%TF.GenerationSoftware,KiCad,Pcbnew,10.0.3*%
%TF.CreationDate,2026-05-30T14:01:47+08:00*%
%TF.ProjectId,tellmelight_rev_a,74656c6c-6d65-46c6-9967-68745f726576,A0*%
%TF.SameCoordinates,Original*%
%TF.FileFunction,Copper,L2,Bot*%
%TF.FilePolarity,Positive*%
%FSLAX46Y46*%
G04 Gerber Fmt 4.6, Leading zero omitted, Abs format (unit mm)*
G04 Created by KiCad (PCBNEW 10.0.3) date 2026-05-30 14:01:47*
%MOMM*%
%LPD*%
G01*
G04 APERTURE LIST*
G04 Aperture macros list*
%AMRoundRect*
0 Rectangle with rounded corners*
0 $1 Rounding radius*
0 $2 $3 $4 $5 $6 $7 $8 $9 X,Y pos of 4 corners*
0 Add a 4 corners polygon primitive as box body*
4,1,4,$2,$3,$4,$5,$6,$7,$8,$9,$2,$3,0*
0 Add four circle primitives for the rounded corners*
1,1,$1+$1,$2,$3*
1,1,$1+$1,$4,$5*
1,1,$1+$1,$6,$7*
1,1,$1+$1,$8,$9*
0 Add four rect primitives between the rounded corners*
20,1,$1+$1,$2,$3,$4,$5,0*
20,1,$1+$1,$4,$5,$6,$7,0*
20,1,$1+$1,$6,$7,$8,$9,0*
20,1,$1+$1,$8,$9,$2,$3,0*%
G04 Aperture macros list end*
%TA.AperFunction,SMDPad,CuDef*%
%ADD10RoundRect,0.250000X-0.475000X-0.250000X0.475000X-0.250000X0.475000X0.250000X-0.475000X0.250000X0*%
%TD*%
%TA.AperFunction,ComponentPad*%
%ADD11R,1.000000X1.000000*%
%TD*%
%TA.AperFunction,ComponentPad*%
%ADD12C,1.000000*%
%TD*%
%TA.AperFunction,SMDPad,CuDef*%
%ADD13C,1.000000*%
%TD*%
%TA.AperFunction,SMDPad,CuDef*%
%ADD14RoundRect,0.050000X-0.337500X-0.050000X0.337500X-0.050000X0.337500X0.050000X-0.337500X0.050000X0*%
%TD*%
%TA.AperFunction,SMDPad,CuDef*%
%ADD15RoundRect,0.050000X-0.050000X-0.337500X0.050000X-0.337500X0.050000X0.337500X-0.050000X0.337500X0*%
%TD*%
%TA.AperFunction,HeatsinkPad*%
%ADD16C,0.500000*%
%TD*%
%TA.AperFunction,HeatsinkPad*%
%ADD17R,2.800000X2.800000*%
%TD*%
%TA.AperFunction,SMDPad,CuDef*%
%ADD18RoundRect,0.225000X-0.225000X-0.250000X0.225000X-0.250000X0.225000X0.250000X-0.225000X0.250000X0*%
%TD*%
%TA.AperFunction,SMDPad,CuDef*%
%ADD19RoundRect,0.250000X-0.450000X-0.350000X0.450000X-0.350000X0.450000X0.350000X-0.450000X0.350000X0*%
%TD*%
%TA.AperFunction,SMDPad,CuDef*%
%ADD20RoundRect,0.200000X-0.200000X-0.275000X0.200000X-0.275000X0.200000X0.275000X-0.200000X0.275000X0*%
%TD*%
%TA.AperFunction,SMDPad,CuDef*%
%ADD21RoundRect,0.150000X-0.825000X-0.150000X0.825000X-0.150000X0.825000X0.150000X-0.825000X0.150000X0*%
%TD*%
%TA.AperFunction,SMDPad,CuDef*%
%ADD22RoundRect,0.150000X-0.512500X-0.150000X0.512500X-0.150000X0.512500X0.150000X-0.512500X0.150000X0*%
%TD*%
%TA.AperFunction,SMDPad,CuDef*%
%ADD23RoundRect,0.050000X-0.387500X-0.050000X0.387500X-0.050000X0.387500X0.050000X-0.387500X0.050000X0*%
%TD*%
%TA.AperFunction,SMDPad,CuDef*%
%ADD24RoundRect,0.050000X-0.050000X-0.387500X0.050000X-0.387500X0.050000X0.387500X-0.050000X0.387500X0*%
%TD*%
%TA.AperFunction,HeatsinkPad*%
%ADD25R,3.200000X3.200000*%
%TD*%
%TA.AperFunction,SMDPad,CuDef*%
%ADD26RoundRect,0.150000X0.150000X0.575000X-0.150000X0.575000X-0.150000X-0.575000X0.150000X-0.575000X0*%
%TD*%
%TA.AperFunction,SMDPad,CuDef*%
%ADD27RoundRect,0.075000X0.075000X0.650000X-0.075000X0.650000X-0.075000X-0.650000X0.075000X-0.650000X0*%
%TD*%
%TA.AperFunction,ComponentPad*%
%ADD28O,1.000000X1.600000*%
%TD*%
%TA.AperFunction,ComponentPad*%
%ADD29O,1.000000X2.100000*%
%TD*%
G04 APERTURE END LIST*
D10*
%TO.P,SW2,1*%
%TO.N,N/C*%
X84425000Y-57850000D03*
X89575000Y-57850000D03*
%TO.P,SW2,2*%
X84425000Y-56150000D03*
X89575000Y-56150000D03*
%TD*%
D11*
%TO.P,SWD1,1*%
%TO.N,N/C*%
X12000000Y-61000000D03*
D12*
%TO.P,SWD1,2*%
X13270000Y-61000000D03*
%TO.P,SWD1,3*%
X14540000Y-61000000D03*
%TO.P,SWD1,4*%
X15810000Y-61000000D03*
%TO.P,SWD1,5*%
X17080000Y-61000000D03*
%TD*%
D13*
%TO.P,TP1,1*%
%TO.N,N/C*%
X8000000Y-8000000D03*
%TD*%
D14*
%TO.P,U2,1*%
%TO.N,N/C*%
X44012500Y-28400000D03*
%TO.P,U2,2*%
X44012500Y-28000000D03*
%TO.P,U2,3*%
X44012500Y-27600000D03*
%TO.P,U2,4*%
X44012500Y-27200000D03*
%TO.P,U2,5*%
X44012500Y-26800000D03*
%TO.P,U2,6*%
X44012500Y-26400000D03*
%TO.P,U2,7*%
X44012500Y-26000000D03*
%TO.P,U2,8*%
X44012500Y-25600000D03*
D15*
%TO.P,U2,9*%
X44600000Y-25012500D03*
%TO.P,U2,10*%
X45000000Y-25012500D03*
%TO.P,U2,11*%
X45400000Y-25012500D03*
%TO.P,U2,12*%
X45800000Y-25012500D03*
%TO.P,U2,13*%
X46200000Y-25012500D03*
%TO.P,U2,14*%
X46600000Y-25012500D03*
%TO.P,U2,15*%
X47000000Y-25012500D03*
%TO.P,U2,16*%
X47400000Y-25012500D03*
D14*
%TO.P,U2,17*%
X47987500Y-25600000D03*
%TO.P,U2,18*%
X47987500Y-26000000D03*
%TO.P,U2,19*%
X47987500Y-26400000D03*
%TO.P,U2,20*%
X47987500Y-26800000D03*
%TO.P,U2,21*%
X47987500Y-27200000D03*
%TO.P,U2,22*%
X47987500Y-27600000D03*
%TO.P,U2,23*%
X47987500Y-28000000D03*
%TO.P,U2,24*%
X47987500Y-28400000D03*
D15*
%TO.P,U2,25*%
X47400000Y-28987500D03*
%TO.P,U2,26*%
X47000000Y-28987500D03*
%TO.P,U2,27*%
X46600000Y-28987500D03*
%TO.P,U2,28*%
X46200000Y-28987500D03*
%TO.P,U2,29*%
X45800000Y-28987500D03*
%TO.P,U2,30*%
X45400000Y-28987500D03*
%TO.P,U2,31*%
X45000000Y-28987500D03*
%TO.P,U2,32*%
X44600000Y-28987500D03*
D16*
%TO.P,U2,33*%
X44850000Y-25850000D03*
X44850000Y-27000000D03*
X44850000Y-28150000D03*
X46000000Y-25850000D03*
X46000000Y-27000000D03*
D17*
X46000000Y-27000000D03*
D16*
X46000000Y-28150000D03*
X47150000Y-25850000D03*
X47150000Y-27000000D03*
X47150000Y-28150000D03*
%TD*%
D18*
%TO.P,C1,1*%
%TO.N,N/C*%
X39225000Y-44000000D03*
%TO.P,C1,2*%
X40775000Y-44000000D03*
%TD*%
D13*
%TO.P,TP5,1*%
%TO.N,N/C*%
X8000000Y-28000000D03*
%TD*%
D18*
%TO.P,C13,1*%
%TO.N,N/C*%
X25225000Y-38000000D03*
%TO.P,C13,2*%
X26775000Y-38000000D03*
%TD*%
%TO.P,C4,1*%
%TO.N,N/C*%
X51225000Y-23000000D03*
%TO.P,C4,2*%
X52775000Y-23000000D03*
%TD*%
D19*
%TO.P,Y1,1*%
%TO.N,N/C*%
X27900000Y-41150000D03*
%TO.P,Y1,2*%
X30100000Y-41150000D03*
%TO.P,Y1,3*%
X30100000Y-42850000D03*
%TO.P,Y1,4*%
X27900000Y-42850000D03*
%TD*%
D18*
%TO.P,C8,1*%
%TO.N,N/C*%
X60225000Y-56000000D03*
%TO.P,C8,2*%
X61775000Y-56000000D03*
%TD*%
D10*
%TO.P,SW1,1*%
%TO.N,N/C*%
X75425000Y-57850000D03*
X80575000Y-57850000D03*
%TO.P,SW1,2*%
X75425000Y-56150000D03*
X80575000Y-56150000D03*
%TD*%
D13*
%TO.P,TP7,1*%
%TO.N,N/C*%
X8000000Y-38000000D03*
%TD*%
D20*
%TO.P,R5,1*%
%TO.N,N/C*%
X53175000Y-31000000D03*
%TO.P,R5,2*%
X54825000Y-31000000D03*
%TD*%
D21*
%TO.P,U3,1*%
%TO.N,N/C*%
X23525000Y-51905000D03*
%TO.P,U3,2*%
X23525000Y-50635000D03*
%TO.P,U3,3*%
X23525000Y-49365000D03*
%TO.P,U3,4*%
X23525000Y-48095000D03*
%TO.P,U3,5*%
X28475000Y-48095000D03*
%TO.P,U3,6*%
X28475000Y-49365000D03*
%TO.P,U3,7*%
X28475000Y-50635000D03*
%TO.P,U3,8*%
X28475000Y-51905000D03*
%TD*%
D22*
%TO.P,U4,1*%
%TO.N,N/C*%
X63862500Y-51950000D03*
%TO.P,U4,2*%
X63862500Y-51000000D03*
%TO.P,U4,3*%
X63862500Y-50050000D03*
%TO.P,U4,4*%
X66137500Y-50050000D03*
%TO.P,U4,5*%
X66137500Y-51950000D03*
%TD*%
D20*
%TO.P,R3,1*%
%TO.N,N/C*%
X66175000Y-62000000D03*
%TO.P,R3,2*%
X67825000Y-62000000D03*
%TD*%
D18*
%TO.P,C3,1*%
%TO.N,N/C*%
X39225000Y-23000000D03*
%TO.P,C3,2*%
X40775000Y-23000000D03*
%TD*%
%TO.P,C9,1*%
%TO.N,N/C*%
X30225000Y-36000000D03*
%TO.P,C9,2*%
X31775000Y-36000000D03*
%TD*%
D13*
%TO.P,TP2,1*%
%TO.N,N/C*%
X8000000Y-13000000D03*
%TD*%
%TO.P,TP6,1*%
%TO.N,N/C*%
X8000000Y-33000000D03*
%TD*%
D18*
%TO.P,C12,1*%
%TO.N,N/C*%
X67225000Y-60000000D03*
%TO.P,C12,2*%
X68775000Y-60000000D03*
%TD*%
%TO.P,C11,1*%
%TO.N,N/C*%
X68225000Y-56000000D03*
%TO.P,C11,2*%
X69775000Y-56000000D03*
%TD*%
%TO.P,C7,1*%
%TO.N,N/C*%
X34225000Y-58000000D03*
%TO.P,C7,2*%
X35775000Y-58000000D03*
%TD*%
D22*
%TO.P,U5,1*%
%TO.N,N/C*%
X35862500Y-61950000D03*
%TO.P,U5,2*%
X35862500Y-61000000D03*
%TO.P,U5,3*%
X35862500Y-60050000D03*
%TO.P,U5,4*%
X38137500Y-60050000D03*
%TO.P,U5,5*%
X38137500Y-61000000D03*
%TO.P,U5,6*%
X38137500Y-61950000D03*
%TD*%
D23*
%TO.P,U1,1*%
%TO.N,N/C*%
X42562500Y-52600000D03*
%TO.P,U1,2*%
X42562500Y-52200000D03*
%TO.P,U1,3*%
X42562500Y-51800000D03*
%TO.P,U1,4*%
X42562500Y-51400000D03*
%TO.P,U1,5*%
X42562500Y-51000000D03*
%TO.P,U1,6*%
X42562500Y-50600000D03*
%TO.P,U1,7*%
X42562500Y-50200000D03*
%TO.P,U1,8*%
X42562500Y-49800000D03*
%TO.P,U1,9*%
X42562500Y-49400000D03*
%TO.P,U1,10*%
X42562500Y-49000000D03*
%TO.P,U1,11*%
X42562500Y-48600000D03*
%TO.P,U1,12*%
X42562500Y-48200000D03*
%TO.P,U1,13*%
X42562500Y-47800000D03*
%TO.P,U1,14*%
X42562500Y-47400000D03*
D24*
%TO.P,U1,15*%
X43400000Y-46562500D03*
%TO.P,U1,16*%
X43800000Y-46562500D03*
%TO.P,U1,17*%
X44200000Y-46562500D03*
%TO.P,U1,18*%
X44600000Y-46562500D03*
%TO.P,U1,19*%
X45000000Y-46562500D03*
%TO.P,U1,20*%
X45400000Y-46562500D03*
%TO.P,U1,21*%
X45800000Y-46562500D03*
%TO.P,U1,22*%
X46200000Y-46562500D03*
%TO.P,U1,23*%
X46600000Y-46562500D03*
%TO.P,U1,24*%
X47000000Y-46562500D03*
%TO.P,U1,25*%
X47400000Y-46562500D03*
%TO.P,U1,26*%
X47800000Y-46562500D03*
%TO.P,U1,27*%
X48200000Y-46562500D03*
%TO.P,U1,28*%
X48600000Y-46562500D03*
D23*
%TO.P,U1,29*%
X49437500Y-47400000D03*
%TO.P,U1,30*%
X49437500Y-47800000D03*
%TO.P,U1,31*%
X49437500Y-48200000D03*
%TO.P,U1,32*%
X49437500Y-48600000D03*
%TO.P,U1,33*%
X49437500Y-49000000D03*
%TO.P,U1,34*%
X49437500Y-49400000D03*
%TO.P,U1,35*%
X49437500Y-49800000D03*
%TO.P,U1,36*%
X49437500Y-50200000D03*
%TO.P,U1,37*%
X49437500Y-50600000D03*
%TO.P,U1,38*%
X49437500Y-51000000D03*
%TO.P,U1,39*%
X49437500Y-51400000D03*
%TO.P,U1,40*%
X49437500Y-51800000D03*
%TO.P,U1,41*%
X49437500Y-52200000D03*
%TO.P,U1,42*%
X49437500Y-52600000D03*
D24*
%TO.P,U1,43*%
X48600000Y-53437500D03*
%TO.P,U1,44*%
X48200000Y-53437500D03*
%TO.P,U1,45*%
X47800000Y-53437500D03*
%TO.P,U1,46*%
X47400000Y-53437500D03*
%TO.P,U1,47*%
X47000000Y-53437500D03*
%TO.P,U1,48*%
X46600000Y-53437500D03*
%TO.P,U1,49*%
X46200000Y-53437500D03*
%TO.P,U1,50*%
X45800000Y-53437500D03*
%TO.P,U1,51*%
X45400000Y-53437500D03*
%TO.P,U1,52*%
X45000000Y-53437500D03*
%TO.P,U1,53*%
X44600000Y-53437500D03*
%TO.P,U1,54*%
X44200000Y-53437500D03*
%TO.P,U1,55*%
X43800000Y-53437500D03*
%TO.P,U1,56*%
X43400000Y-53437500D03*
D16*
%TO.P,U1,57*%
X44650000Y-48650000D03*
X44650000Y-51350000D03*
D25*
X46000000Y-50000000D03*
D16*
X47350000Y-48650000D03*
X47350000Y-51350000D03*
%TD*%
D18*
%TO.P,C2,1*%
%TO.N,N/C*%
X51225000Y-44000000D03*
%TO.P,C2,2*%
X52775000Y-44000000D03*
%TD*%
D13*
%TO.P,TP8,1*%
%TO.N,N/C*%
X8000000Y-43000000D03*
%TD*%
D20*
%TO.P,R1,1*%
%TO.N,N/C*%
X38175000Y-56000000D03*
%TO.P,R1,2*%
X39825000Y-56000000D03*
%TD*%
D18*
%TO.P,C14,1*%
%TO.N,N/C*%
X31225000Y-38000000D03*
%TO.P,C14,2*%
X32775000Y-38000000D03*
%TD*%
D13*
%TO.P,TP4,1*%
%TO.N,N/C*%
X8000000Y-23000000D03*
%TD*%
D20*
%TO.P,R6,1*%
%TO.N,N/C*%
X57175000Y-31000000D03*
%TO.P,R6,2*%
X58825000Y-31000000D03*
%TD*%
D26*
%TO.P,J1,A1*%
%TO.N,GND_USB_A*%
X51250000Y-61955000D03*
%TO.P,J1,A4*%
%TO.N,VBUS_USB_A*%
X50450000Y-61955000D03*
D27*
%TO.P,J1,A5*%
%TO.N,N/C*%
X49250000Y-61955000D03*
%TO.P,J1,A6*%
X48250000Y-61955000D03*
%TO.P,J1,A7*%
X47750000Y-61955000D03*
%TO.P,J1,A8*%
X46750000Y-61955000D03*
D26*
%TO.P,J1,A9*%
%TO.N,VBUS_USB_B*%
X45550000Y-61955000D03*
%TO.P,J1,A12*%
%TO.N,GND_USB_B*%
X44750000Y-61955000D03*
%TO.P,J1,B1*%
X44750000Y-61955000D03*
%TO.P,J1,B4*%
%TO.N,VBUS_USB_B*%
X45550000Y-61955000D03*
D27*
%TO.P,J1,B5*%
%TO.N,N/C*%
X46250000Y-61955000D03*
%TO.P,J1,B6*%
X47250000Y-61955000D03*
%TO.P,J1,B7*%
X48750000Y-61955000D03*
%TO.P,J1,B8*%
X49750000Y-61955000D03*
D26*
%TO.P,J1,B9*%
%TO.N,VBUS_USB_A*%
X50450000Y-61955000D03*
%TO.P,J1,B12*%
%TO.N,GND_USB_A*%
X51250000Y-61955000D03*
D28*
%TO.P,J1,SH*%
%TO.N,N/C*%
X52320000Y-67050000D03*
D29*
X52320000Y-62870000D03*
D28*
X43680000Y-67050000D03*
D29*
X43680000Y-62870000D03*
%TD*%
D13*
%TO.P,TP3,1*%
%TO.N,N/C*%
X8000000Y-18000000D03*
%TD*%
D20*
%TO.P,R4,1*%
%TO.N,N/C*%
X71175000Y-62000000D03*
%TO.P,R4,2*%
X72825000Y-62000000D03*
%TD*%
D18*
%TO.P,C10,1*%
%TO.N,N/C*%
X60225000Y-36000000D03*
%TO.P,C10,2*%
X61775000Y-36000000D03*
%TD*%
%TO.P,C6,1*%
%TO.N,N/C*%
X67225000Y-47000000D03*
%TO.P,C6,2*%
X68775000Y-47000000D03*
%TD*%
D20*
%TO.P,R2,1*%
%TO.N,N/C*%
X42175000Y-56000000D03*
%TO.P,R2,2*%
X43825000Y-56000000D03*
%TD*%
D18*
%TO.P,C5,1*%
%TO.N,N/C*%
X23225000Y-45000000D03*
%TO.P,C5,2*%
X24775000Y-45000000D03*
%TD*%
M02*
