%TF.GenerationSoftware,KiCad,Pcbnew,10.0.3*%
%TF.CreationDate,2026-05-30T14:01:47+08:00*%
%TF.ProjectId,tellmelight_rev_a,74656c6c-6d65-46c6-9967-68745f726576,A0*%
%TF.SameCoordinates,Original*%
%TF.FileFunction,Legend,Top*%
%TF.FilePolarity,Positive*%
%FSLAX46Y46*%
G04 Gerber Fmt 4.6, Leading zero omitted, Abs format (unit mm)*
G04 Created by KiCad (PCBNEW 10.0.3) date 2026-05-30 14:01:47*
%MOMM*%
%LPD*%
G01*
G04 APERTURE LIST*
%ADD10C,0.180000*%
%ADD11C,0.132000*%
%ADD12C,0.150000*%
%ADD13C,0.120000*%
G04 APERTURE END LIST*
D10*
X10000000Y-8000000D02*
X23000000Y-11000000D01*
X10000000Y-58000000D02*
X10000000Y-8000000D01*
X23000000Y-11000000D02*
X23000000Y-53000000D01*
X23000000Y-53000000D02*
X10000000Y-58000000D01*
X32000000Y-29000000D02*
X43000000Y-31000000D01*
X32000000Y-51000000D02*
X32000000Y-29000000D01*
X43000000Y-31000000D02*
X43000000Y-48000000D01*
X43000000Y-48000000D02*
X32000000Y-51000000D01*
X53000000Y-27000000D02*
X64000000Y-23000000D01*
X53000000Y-43000000D02*
X53000000Y-27000000D01*
X64000000Y-23000000D02*
X64000000Y-45000000D01*
X64000000Y-45000000D02*
X53000000Y-43000000D01*
X75000000Y-6000000D02*
X89000000Y-10000000D01*
X75000000Y-62000000D02*
X75000000Y-6000000D01*
X89000000Y-10000000D02*
X89000000Y-55000000D01*
X89000000Y-55000000D02*
X75000000Y-62000000D01*
D11*
X28771429Y-4402016D02*
X29400001Y-4402016D01*
X29085715Y-5502016D02*
X29085715Y-4402016D01*
X30185715Y-5449636D02*
X30080953Y-5502016D01*
X30080953Y-5502016D02*
X29871429Y-5502016D01*
X29871429Y-5502016D02*
X29766667Y-5449636D01*
X29766667Y-5449636D02*
X29714286Y-5344874D01*
X29714286Y-5344874D02*
X29714286Y-4925826D01*
X29714286Y-4925826D02*
X29766667Y-4821064D01*
X29766667Y-4821064D02*
X29871429Y-4768683D01*
X29871429Y-4768683D02*
X30080953Y-4768683D01*
X30080953Y-4768683D02*
X30185715Y-4821064D01*
X30185715Y-4821064D02*
X30238096Y-4925826D01*
X30238096Y-4925826D02*
X30238096Y-5030588D01*
X30238096Y-5030588D02*
X29714286Y-5135350D01*
X30866667Y-5502016D02*
X30761905Y-5449636D01*
X30761905Y-5449636D02*
X30709524Y-5344874D01*
X30709524Y-5344874D02*
X30709524Y-4402016D01*
X31442857Y-5502016D02*
X31338095Y-5449636D01*
X31338095Y-5449636D02*
X31285714Y-5344874D01*
X31285714Y-5344874D02*
X31285714Y-4402016D01*
X31861904Y-5502016D02*
X31861904Y-4402016D01*
X31861904Y-4402016D02*
X32228571Y-5187731D01*
X32228571Y-5187731D02*
X32595238Y-4402016D01*
X32595238Y-4402016D02*
X32595238Y-5502016D01*
X33538095Y-5449636D02*
X33433333Y-5502016D01*
X33433333Y-5502016D02*
X33223809Y-5502016D01*
X33223809Y-5502016D02*
X33119047Y-5449636D01*
X33119047Y-5449636D02*
X33066666Y-5344874D01*
X33066666Y-5344874D02*
X33066666Y-4925826D01*
X33066666Y-4925826D02*
X33119047Y-4821064D01*
X33119047Y-4821064D02*
X33223809Y-4768683D01*
X33223809Y-4768683D02*
X33433333Y-4768683D01*
X33433333Y-4768683D02*
X33538095Y-4821064D01*
X33538095Y-4821064D02*
X33590476Y-4925826D01*
X33590476Y-4925826D02*
X33590476Y-5030588D01*
X33590476Y-5030588D02*
X33066666Y-5135350D01*
X34585714Y-5502016D02*
X34061904Y-5502016D01*
X34061904Y-5502016D02*
X34061904Y-4402016D01*
X34952380Y-5502016D02*
X34952380Y-4768683D01*
X34952380Y-4402016D02*
X34899999Y-4454397D01*
X34899999Y-4454397D02*
X34952380Y-4506778D01*
X34952380Y-4506778D02*
X35004761Y-4454397D01*
X35004761Y-4454397D02*
X34952380Y-4402016D01*
X34952380Y-4402016D02*
X34952380Y-4506778D01*
X35947619Y-4768683D02*
X35947619Y-5659159D01*
X35947619Y-5659159D02*
X35895238Y-5763921D01*
X35895238Y-5763921D02*
X35842857Y-5816302D01*
X35842857Y-5816302D02*
X35738095Y-5868683D01*
X35738095Y-5868683D02*
X35580952Y-5868683D01*
X35580952Y-5868683D02*
X35476190Y-5816302D01*
X35947619Y-5449636D02*
X35842857Y-5502016D01*
X35842857Y-5502016D02*
X35633333Y-5502016D01*
X35633333Y-5502016D02*
X35528571Y-5449636D01*
X35528571Y-5449636D02*
X35476190Y-5397255D01*
X35476190Y-5397255D02*
X35423809Y-5292493D01*
X35423809Y-5292493D02*
X35423809Y-4978207D01*
X35423809Y-4978207D02*
X35476190Y-4873445D01*
X35476190Y-4873445D02*
X35528571Y-4821064D01*
X35528571Y-4821064D02*
X35633333Y-4768683D01*
X35633333Y-4768683D02*
X35842857Y-4768683D01*
X35842857Y-4768683D02*
X35947619Y-4821064D01*
X36471428Y-5502016D02*
X36471428Y-4402016D01*
X36942857Y-5502016D02*
X36942857Y-4925826D01*
X36942857Y-4925826D02*
X36890476Y-4821064D01*
X36890476Y-4821064D02*
X36785714Y-4768683D01*
X36785714Y-4768683D02*
X36628571Y-4768683D01*
X36628571Y-4768683D02*
X36523809Y-4821064D01*
X36523809Y-4821064D02*
X36471428Y-4873445D01*
X37309523Y-4768683D02*
X37728571Y-4768683D01*
X37466666Y-4402016D02*
X37466666Y-5344874D01*
X37466666Y-5344874D02*
X37519047Y-5449636D01*
X37519047Y-5449636D02*
X37623809Y-5502016D01*
X37623809Y-5502016D02*
X37728571Y-5502016D01*
X39561904Y-5502016D02*
X39195237Y-4978207D01*
X38933332Y-5502016D02*
X38933332Y-4402016D01*
X38933332Y-4402016D02*
X39352380Y-4402016D01*
X39352380Y-4402016D02*
X39457142Y-4454397D01*
X39457142Y-4454397D02*
X39509523Y-4506778D01*
X39509523Y-4506778D02*
X39561904Y-4611540D01*
X39561904Y-4611540D02*
X39561904Y-4768683D01*
X39561904Y-4768683D02*
X39509523Y-4873445D01*
X39509523Y-4873445D02*
X39457142Y-4925826D01*
X39457142Y-4925826D02*
X39352380Y-4978207D01*
X39352380Y-4978207D02*
X38933332Y-4978207D01*
X40452380Y-5449636D02*
X40347618Y-5502016D01*
X40347618Y-5502016D02*
X40138094Y-5502016D01*
X40138094Y-5502016D02*
X40033332Y-5449636D01*
X40033332Y-5449636D02*
X39980951Y-5344874D01*
X39980951Y-5344874D02*
X39980951Y-4925826D01*
X39980951Y-4925826D02*
X40033332Y-4821064D01*
X40033332Y-4821064D02*
X40138094Y-4768683D01*
X40138094Y-4768683D02*
X40347618Y-4768683D01*
X40347618Y-4768683D02*
X40452380Y-4821064D01*
X40452380Y-4821064D02*
X40504761Y-4925826D01*
X40504761Y-4925826D02*
X40504761Y-5030588D01*
X40504761Y-5030588D02*
X39980951Y-5135350D01*
X40871427Y-4768683D02*
X41133332Y-5502016D01*
X41133332Y-5502016D02*
X41395237Y-4768683D01*
X42599998Y-5187731D02*
X43123808Y-5187731D01*
X42495236Y-5502016D02*
X42861903Y-4402016D01*
X42861903Y-4402016D02*
X43228570Y-5502016D01*
D12*
X4238095Y-66304819D02*
X4238095Y-65304819D01*
X4238095Y-65781009D02*
X4809523Y-65781009D01*
X4809523Y-66304819D02*
X4809523Y-65304819D01*
X5190476Y-65304819D02*
X5809523Y-65304819D01*
X5809523Y-65304819D02*
X5476190Y-65685771D01*
X5476190Y-65685771D02*
X5619047Y-65685771D01*
X5619047Y-65685771D02*
X5714285Y-65733390D01*
X5714285Y-65733390D02*
X5761904Y-65781009D01*
X5761904Y-65781009D02*
X5809523Y-65876247D01*
X5809523Y-65876247D02*
X5809523Y-66114342D01*
X5809523Y-66114342D02*
X5761904Y-66209580D01*
X5761904Y-66209580D02*
X5714285Y-66257200D01*
X5714285Y-66257200D02*
X5619047Y-66304819D01*
X5619047Y-66304819D02*
X5333333Y-66304819D01*
X5333333Y-66304819D02*
X5238095Y-66257200D01*
X5238095Y-66257200D02*
X5190476Y-66209580D01*
X35404819Y-40738094D02*
X34404819Y-40738094D01*
X34404819Y-40738094D02*
X34404819Y-40499999D01*
X34404819Y-40499999D02*
X34452438Y-40357142D01*
X34452438Y-40357142D02*
X34547676Y-40261904D01*
X34547676Y-40261904D02*
X34642914Y-40214285D01*
X34642914Y-40214285D02*
X34833390Y-40166666D01*
X34833390Y-40166666D02*
X34976247Y-40166666D01*
X34976247Y-40166666D02*
X35166723Y-40214285D01*
X35166723Y-40214285D02*
X35261961Y-40261904D01*
X35261961Y-40261904D02*
X35357200Y-40357142D01*
X35357200Y-40357142D02*
X35404819Y-40499999D01*
X35404819Y-40499999D02*
X35404819Y-40738094D01*
X34404819Y-39833332D02*
X34404819Y-39214285D01*
X34404819Y-39214285D02*
X34785771Y-39547618D01*
X34785771Y-39547618D02*
X34785771Y-39404761D01*
X34785771Y-39404761D02*
X34833390Y-39309523D01*
X34833390Y-39309523D02*
X34881009Y-39261904D01*
X34881009Y-39261904D02*
X34976247Y-39214285D01*
X34976247Y-39214285D02*
X35214342Y-39214285D01*
X35214342Y-39214285D02*
X35309580Y-39261904D01*
X35309580Y-39261904D02*
X35357200Y-39309523D01*
X35357200Y-39309523D02*
X35404819Y-39404761D01*
X35404819Y-39404761D02*
X35404819Y-39690475D01*
X35404819Y-39690475D02*
X35357200Y-39785713D01*
X35357200Y-39785713D02*
X35309580Y-39833332D01*
X4238095Y-2304819D02*
X4238095Y-1304819D01*
X4238095Y-1781009D02*
X4809523Y-1781009D01*
X4809523Y-2304819D02*
X4809523Y-1304819D01*
X5809523Y-2304819D02*
X5238095Y-2304819D01*
X5523809Y-2304819D02*
X5523809Y-1304819D01*
X5523809Y-1304819D02*
X5428571Y-1447676D01*
X5428571Y-1447676D02*
X5333333Y-1542914D01*
X5333333Y-1542914D02*
X5238095Y-1590533D01*
X14404819Y-20238094D02*
X13404819Y-20238094D01*
X13404819Y-20238094D02*
X13404819Y-19999999D01*
X13404819Y-19999999D02*
X13452438Y-19857142D01*
X13452438Y-19857142D02*
X13547676Y-19761904D01*
X13547676Y-19761904D02*
X13642914Y-19714285D01*
X13642914Y-19714285D02*
X13833390Y-19666666D01*
X13833390Y-19666666D02*
X13976247Y-19666666D01*
X13976247Y-19666666D02*
X14166723Y-19714285D01*
X14166723Y-19714285D02*
X14261961Y-19761904D01*
X14261961Y-19761904D02*
X14357200Y-19857142D01*
X14357200Y-19857142D02*
X14404819Y-19999999D01*
X14404819Y-19999999D02*
X14404819Y-20238094D01*
X14404819Y-18714285D02*
X14404819Y-19285713D01*
X14404819Y-18999999D02*
X13404819Y-18999999D01*
X13404819Y-18999999D02*
X13547676Y-19095237D01*
X13547676Y-19095237D02*
X13642914Y-19190475D01*
X13642914Y-19190475D02*
X13690533Y-19285713D01*
X90238095Y-2304819D02*
X90238095Y-1304819D01*
X90238095Y-1781009D02*
X90809523Y-1781009D01*
X90809523Y-2304819D02*
X90809523Y-1304819D01*
X91238095Y-1400057D02*
X91285714Y-1352438D01*
X91285714Y-1352438D02*
X91380952Y-1304819D01*
X91380952Y-1304819D02*
X91619047Y-1304819D01*
X91619047Y-1304819D02*
X91714285Y-1352438D01*
X91714285Y-1352438D02*
X91761904Y-1400057D01*
X91761904Y-1400057D02*
X91809523Y-1495295D01*
X91809523Y-1495295D02*
X91809523Y-1590533D01*
X91809523Y-1590533D02*
X91761904Y-1733390D01*
X91761904Y-1733390D02*
X91190476Y-2304819D01*
X91190476Y-2304819D02*
X91809523Y-2304819D01*
X79904819Y-20738094D02*
X78904819Y-20738094D01*
X78904819Y-20738094D02*
X78904819Y-20499999D01*
X78904819Y-20499999D02*
X78952438Y-20357142D01*
X78952438Y-20357142D02*
X79047676Y-20261904D01*
X79047676Y-20261904D02*
X79142914Y-20214285D01*
X79142914Y-20214285D02*
X79333390Y-20166666D01*
X79333390Y-20166666D02*
X79476247Y-20166666D01*
X79476247Y-20166666D02*
X79666723Y-20214285D01*
X79666723Y-20214285D02*
X79761961Y-20261904D01*
X79761961Y-20261904D02*
X79857200Y-20357142D01*
X79857200Y-20357142D02*
X79904819Y-20499999D01*
X79904819Y-20499999D02*
X79904819Y-20738094D01*
X78904819Y-19261904D02*
X78904819Y-19738094D01*
X78904819Y-19738094D02*
X79381009Y-19785713D01*
X79381009Y-19785713D02*
X79333390Y-19738094D01*
X79333390Y-19738094D02*
X79285771Y-19642856D01*
X79285771Y-19642856D02*
X79285771Y-19404761D01*
X79285771Y-19404761D02*
X79333390Y-19309523D01*
X79333390Y-19309523D02*
X79381009Y-19261904D01*
X79381009Y-19261904D02*
X79476247Y-19214285D01*
X79476247Y-19214285D02*
X79714342Y-19214285D01*
X79714342Y-19214285D02*
X79809580Y-19261904D01*
X79809580Y-19261904D02*
X79857200Y-19309523D01*
X79857200Y-19309523D02*
X79904819Y-19404761D01*
X79904819Y-19404761D02*
X79904819Y-19642856D01*
X79904819Y-19642856D02*
X79857200Y-19738094D01*
X79857200Y-19738094D02*
X79809580Y-19785713D01*
X56404819Y-34738094D02*
X55404819Y-34738094D01*
X55404819Y-34738094D02*
X55404819Y-34499999D01*
X55404819Y-34499999D02*
X55452438Y-34357142D01*
X55452438Y-34357142D02*
X55547676Y-34261904D01*
X55547676Y-34261904D02*
X55642914Y-34214285D01*
X55642914Y-34214285D02*
X55833390Y-34166666D01*
X55833390Y-34166666D02*
X55976247Y-34166666D01*
X55976247Y-34166666D02*
X56166723Y-34214285D01*
X56166723Y-34214285D02*
X56261961Y-34261904D01*
X56261961Y-34261904D02*
X56357200Y-34357142D01*
X56357200Y-34357142D02*
X56404819Y-34499999D01*
X56404819Y-34499999D02*
X56404819Y-34738094D01*
X55738152Y-33309523D02*
X56404819Y-33309523D01*
X55357200Y-33547618D02*
X56071485Y-33785713D01*
X56071485Y-33785713D02*
X56071485Y-33166666D01*
X79904819Y-47238094D02*
X78904819Y-47238094D01*
X78904819Y-47238094D02*
X78904819Y-46999999D01*
X78904819Y-46999999D02*
X78952438Y-46857142D01*
X78952438Y-46857142D02*
X79047676Y-46761904D01*
X79047676Y-46761904D02*
X79142914Y-46714285D01*
X79142914Y-46714285D02*
X79333390Y-46666666D01*
X79333390Y-46666666D02*
X79476247Y-46666666D01*
X79476247Y-46666666D02*
X79666723Y-46714285D01*
X79666723Y-46714285D02*
X79761961Y-46761904D01*
X79761961Y-46761904D02*
X79857200Y-46857142D01*
X79857200Y-46857142D02*
X79904819Y-46999999D01*
X79904819Y-46999999D02*
X79904819Y-47238094D01*
X78904819Y-45809523D02*
X78904819Y-45999999D01*
X78904819Y-45999999D02*
X78952438Y-46095237D01*
X78952438Y-46095237D02*
X79000057Y-46142856D01*
X79000057Y-46142856D02*
X79142914Y-46238094D01*
X79142914Y-46238094D02*
X79333390Y-46285713D01*
X79333390Y-46285713D02*
X79714342Y-46285713D01*
X79714342Y-46285713D02*
X79809580Y-46238094D01*
X79809580Y-46238094D02*
X79857200Y-46190475D01*
X79857200Y-46190475D02*
X79904819Y-46095237D01*
X79904819Y-46095237D02*
X79904819Y-45904761D01*
X79904819Y-45904761D02*
X79857200Y-45809523D01*
X79857200Y-45809523D02*
X79809580Y-45761904D01*
X79809580Y-45761904D02*
X79714342Y-45714285D01*
X79714342Y-45714285D02*
X79476247Y-45714285D01*
X79476247Y-45714285D02*
X79381009Y-45761904D01*
X79381009Y-45761904D02*
X79333390Y-45809523D01*
X79333390Y-45809523D02*
X79285771Y-45904761D01*
X79285771Y-45904761D02*
X79285771Y-46095237D01*
X79285771Y-46095237D02*
X79333390Y-46190475D01*
X79333390Y-46190475D02*
X79381009Y-46238094D01*
X79381009Y-46238094D02*
X79476247Y-46285713D01*
X90238095Y-66304819D02*
X90238095Y-65304819D01*
X90238095Y-65781009D02*
X90809523Y-65781009D01*
X90809523Y-66304819D02*
X90809523Y-65304819D01*
X91714285Y-65638152D02*
X91714285Y-66304819D01*
X91476190Y-65257200D02*
X91238095Y-65971485D01*
X91238095Y-65971485D02*
X91857142Y-65971485D01*
X14404819Y-45238094D02*
X13404819Y-45238094D01*
X13404819Y-45238094D02*
X13404819Y-44999999D01*
X13404819Y-44999999D02*
X13452438Y-44857142D01*
X13452438Y-44857142D02*
X13547676Y-44761904D01*
X13547676Y-44761904D02*
X13642914Y-44714285D01*
X13642914Y-44714285D02*
X13833390Y-44666666D01*
X13833390Y-44666666D02*
X13976247Y-44666666D01*
X13976247Y-44666666D02*
X14166723Y-44714285D01*
X14166723Y-44714285D02*
X14261961Y-44761904D01*
X14261961Y-44761904D02*
X14357200Y-44857142D01*
X14357200Y-44857142D02*
X14404819Y-44999999D01*
X14404819Y-44999999D02*
X14404819Y-45238094D01*
X13500057Y-44285713D02*
X13452438Y-44238094D01*
X13452438Y-44238094D02*
X13404819Y-44142856D01*
X13404819Y-44142856D02*
X13404819Y-43904761D01*
X13404819Y-43904761D02*
X13452438Y-43809523D01*
X13452438Y-43809523D02*
X13500057Y-43761904D01*
X13500057Y-43761904D02*
X13595295Y-43714285D01*
X13595295Y-43714285D02*
X13690533Y-43714285D01*
X13690533Y-43714285D02*
X13833390Y-43761904D01*
X13833390Y-43761904D02*
X14404819Y-44333332D01*
X14404819Y-44333332D02*
X14404819Y-43714285D01*
%TO.C,D3*%
D13*
X35700000Y-37650000D02*
X35700000Y-42550000D01*
X35700000Y-42550000D02*
X36600000Y-42550000D01*
X39300000Y-42550000D02*
X39300000Y-37650000D01*
%TO.C,D1*%
X14700000Y-17150000D02*
X14700000Y-22050000D01*
X14700000Y-22050000D02*
X15600000Y-22050000D01*
X18300000Y-22050000D02*
X18300000Y-17150000D01*
%TO.C,D5*%
X80200000Y-17650000D02*
X80200000Y-22550000D01*
X80200000Y-22550000D02*
X81100000Y-22550000D01*
X83800000Y-22550000D02*
X83800000Y-17650000D01*
%TO.C,D4*%
X56700000Y-31650000D02*
X56700000Y-36550000D01*
X56700000Y-36550000D02*
X57600000Y-36550000D01*
X60300000Y-36550000D02*
X60300000Y-31650000D01*
%TO.C,D6*%
X80200000Y-44150000D02*
X80200000Y-49050000D01*
X80200000Y-49050000D02*
X81100000Y-49050000D01*
X83800000Y-49050000D02*
X83800000Y-44150000D01*
%TO.C,D2*%
X14700000Y-42150000D02*
X14700000Y-47050000D01*
X14700000Y-47050000D02*
X15600000Y-47050000D01*
X18300000Y-47050000D02*
X18300000Y-42150000D01*
%TD*%
M02*
