%TF.GenerationSoftware,KiCad,Pcbnew,10.0.3*%
%TF.CreationDate,2026-05-30T14:01:47+08:00*%
%TF.ProjectId,tellmelight_rev_a,74656c6c-6d65-46c6-9967-68745f726576,A0*%
%TF.SameCoordinates,Original*%
%TF.FileFunction,Legend,Bot*%
%TF.FilePolarity,Positive*%
%FSLAX46Y46*%
G04 Gerber Fmt 4.6, Leading zero omitted, Abs format (unit mm)*
G04 Created by KiCad (PCBNEW 10.0.3) date 2026-05-30 14:01:47*
%MOMM*%
%LPD*%
G01*
G04 APERTURE LIST*
%ADD10C,0.150000*%
%ADD11C,0.120000*%
G04 APERTURE END LIST*
D10*
X88333332Y-60157200D02*
X88190475Y-60204819D01*
X88190475Y-60204819D02*
X87952380Y-60204819D01*
X87952380Y-60204819D02*
X87857142Y-60157200D01*
X87857142Y-60157200D02*
X87809523Y-60109580D01*
X87809523Y-60109580D02*
X87761904Y-60014342D01*
X87761904Y-60014342D02*
X87761904Y-59919104D01*
X87761904Y-59919104D02*
X87809523Y-59823866D01*
X87809523Y-59823866D02*
X87857142Y-59776247D01*
X87857142Y-59776247D02*
X87952380Y-59728628D01*
X87952380Y-59728628D02*
X88142856Y-59681009D01*
X88142856Y-59681009D02*
X88238094Y-59633390D01*
X88238094Y-59633390D02*
X88285713Y-59585771D01*
X88285713Y-59585771D02*
X88333332Y-59490533D01*
X88333332Y-59490533D02*
X88333332Y-59395295D01*
X88333332Y-59395295D02*
X88285713Y-59300057D01*
X88285713Y-59300057D02*
X88238094Y-59252438D01*
X88238094Y-59252438D02*
X88142856Y-59204819D01*
X88142856Y-59204819D02*
X87904761Y-59204819D01*
X87904761Y-59204819D02*
X87761904Y-59252438D01*
X87428570Y-59204819D02*
X87190475Y-60204819D01*
X87190475Y-60204819D02*
X86999999Y-59490533D01*
X86999999Y-59490533D02*
X86809523Y-60204819D01*
X86809523Y-60204819D02*
X86571428Y-59204819D01*
X86238094Y-59300057D02*
X86190475Y-59252438D01*
X86190475Y-59252438D02*
X86095237Y-59204819D01*
X86095237Y-59204819D02*
X85857142Y-59204819D01*
X85857142Y-59204819D02*
X85761904Y-59252438D01*
X85761904Y-59252438D02*
X85714285Y-59300057D01*
X85714285Y-59300057D02*
X85666666Y-59395295D01*
X85666666Y-59395295D02*
X85666666Y-59490533D01*
X85666666Y-59490533D02*
X85714285Y-59633390D01*
X85714285Y-59633390D02*
X86285713Y-60204819D01*
X86285713Y-60204819D02*
X85666666Y-60204819D01*
X10662200Y-59166667D02*
X10709819Y-59309524D01*
X10709819Y-59309524D02*
X10709819Y-59547619D01*
X10709819Y-59547619D02*
X10662200Y-59642857D01*
X10662200Y-59642857D02*
X10614580Y-59690476D01*
X10614580Y-59690476D02*
X10519342Y-59738095D01*
X10519342Y-59738095D02*
X10424104Y-59738095D01*
X10424104Y-59738095D02*
X10328866Y-59690476D01*
X10328866Y-59690476D02*
X10281247Y-59642857D01*
X10281247Y-59642857D02*
X10233628Y-59547619D01*
X10233628Y-59547619D02*
X10186009Y-59357143D01*
X10186009Y-59357143D02*
X10138390Y-59261905D01*
X10138390Y-59261905D02*
X10090771Y-59214286D01*
X10090771Y-59214286D02*
X9995533Y-59166667D01*
X9995533Y-59166667D02*
X9900295Y-59166667D01*
X9900295Y-59166667D02*
X9805057Y-59214286D01*
X9805057Y-59214286D02*
X9757438Y-59261905D01*
X9757438Y-59261905D02*
X9709819Y-59357143D01*
X9709819Y-59357143D02*
X9709819Y-59595238D01*
X9709819Y-59595238D02*
X9757438Y-59738095D01*
X9709819Y-60071429D02*
X10709819Y-60309524D01*
X10709819Y-60309524D02*
X9995533Y-60500000D01*
X9995533Y-60500000D02*
X10709819Y-60690476D01*
X10709819Y-60690476D02*
X9709819Y-60928572D01*
X10709819Y-61309524D02*
X9709819Y-61309524D01*
X9709819Y-61309524D02*
X9709819Y-61547619D01*
X9709819Y-61547619D02*
X9757438Y-61690476D01*
X9757438Y-61690476D02*
X9852676Y-61785714D01*
X9852676Y-61785714D02*
X9947914Y-61833333D01*
X9947914Y-61833333D02*
X10138390Y-61880952D01*
X10138390Y-61880952D02*
X10281247Y-61880952D01*
X10281247Y-61880952D02*
X10471723Y-61833333D01*
X10471723Y-61833333D02*
X10566961Y-61785714D01*
X10566961Y-61785714D02*
X10662200Y-61690476D01*
X10662200Y-61690476D02*
X10709819Y-61547619D01*
X10709819Y-61547619D02*
X10709819Y-61309524D01*
X10709819Y-62833333D02*
X10709819Y-62261905D01*
X10709819Y-62547619D02*
X9709819Y-62547619D01*
X9709819Y-62547619D02*
X9852676Y-62452381D01*
X9852676Y-62452381D02*
X9947914Y-62357143D01*
X9947914Y-62357143D02*
X9995533Y-62261905D01*
X9261904Y-8902819D02*
X8690476Y-8902819D01*
X8976190Y-9902819D02*
X8976190Y-8902819D01*
X8357142Y-9902819D02*
X8357142Y-8902819D01*
X8357142Y-8902819D02*
X7976190Y-8902819D01*
X7976190Y-8902819D02*
X7880952Y-8950438D01*
X7880952Y-8950438D02*
X7833333Y-8998057D01*
X7833333Y-8998057D02*
X7785714Y-9093295D01*
X7785714Y-9093295D02*
X7785714Y-9236152D01*
X7785714Y-9236152D02*
X7833333Y-9331390D01*
X7833333Y-9331390D02*
X7880952Y-9379009D01*
X7880952Y-9379009D02*
X7976190Y-9426628D01*
X7976190Y-9426628D02*
X8357142Y-9426628D01*
X6833333Y-9902819D02*
X7404761Y-9902819D01*
X7119047Y-9902819D02*
X7119047Y-8902819D01*
X7119047Y-8902819D02*
X7214285Y-9045676D01*
X7214285Y-9045676D02*
X7309523Y-9140914D01*
X7309523Y-9140914D02*
X7404761Y-9188533D01*
X46761904Y-29784819D02*
X46761904Y-30594342D01*
X46761904Y-30594342D02*
X46714285Y-30689580D01*
X46714285Y-30689580D02*
X46666666Y-30737200D01*
X46666666Y-30737200D02*
X46571428Y-30784819D01*
X46571428Y-30784819D02*
X46380952Y-30784819D01*
X46380952Y-30784819D02*
X46285714Y-30737200D01*
X46285714Y-30737200D02*
X46238095Y-30689580D01*
X46238095Y-30689580D02*
X46190476Y-30594342D01*
X46190476Y-30594342D02*
X46190476Y-29784819D01*
X45761904Y-29880057D02*
X45714285Y-29832438D01*
X45714285Y-29832438D02*
X45619047Y-29784819D01*
X45619047Y-29784819D02*
X45380952Y-29784819D01*
X45380952Y-29784819D02*
X45285714Y-29832438D01*
X45285714Y-29832438D02*
X45238095Y-29880057D01*
X45238095Y-29880057D02*
X45190476Y-29975295D01*
X45190476Y-29975295D02*
X45190476Y-30070533D01*
X45190476Y-30070533D02*
X45238095Y-30213390D01*
X45238095Y-30213390D02*
X45809523Y-30784819D01*
X45809523Y-30784819D02*
X45190476Y-30784819D01*
X9261904Y-28902819D02*
X8690476Y-28902819D01*
X8976190Y-29902819D02*
X8976190Y-28902819D01*
X8357142Y-29902819D02*
X8357142Y-28902819D01*
X8357142Y-28902819D02*
X7976190Y-28902819D01*
X7976190Y-28902819D02*
X7880952Y-28950438D01*
X7880952Y-28950438D02*
X7833333Y-28998057D01*
X7833333Y-28998057D02*
X7785714Y-29093295D01*
X7785714Y-29093295D02*
X7785714Y-29236152D01*
X7785714Y-29236152D02*
X7833333Y-29331390D01*
X7833333Y-29331390D02*
X7880952Y-29379009D01*
X7880952Y-29379009D02*
X7976190Y-29426628D01*
X7976190Y-29426628D02*
X8357142Y-29426628D01*
X6880952Y-28902819D02*
X7357142Y-28902819D01*
X7357142Y-28902819D02*
X7404761Y-29379009D01*
X7404761Y-29379009D02*
X7357142Y-29331390D01*
X7357142Y-29331390D02*
X7261904Y-29283771D01*
X7261904Y-29283771D02*
X7023809Y-29283771D01*
X7023809Y-29283771D02*
X6928571Y-29331390D01*
X6928571Y-29331390D02*
X6880952Y-29379009D01*
X6880952Y-29379009D02*
X6833333Y-29474247D01*
X6833333Y-29474247D02*
X6833333Y-29712342D01*
X6833333Y-29712342D02*
X6880952Y-29807580D01*
X6880952Y-29807580D02*
X6928571Y-29855200D01*
X6928571Y-29855200D02*
X7023809Y-29902819D01*
X7023809Y-29902819D02*
X7261904Y-29902819D01*
X7261904Y-29902819D02*
X7357142Y-29855200D01*
X7357142Y-29855200D02*
X7404761Y-29807580D01*
X29476190Y-44428628D02*
X29476190Y-44904819D01*
X29809523Y-43904819D02*
X29476190Y-44428628D01*
X29476190Y-44428628D02*
X29142857Y-43904819D01*
X28285714Y-44904819D02*
X28857142Y-44904819D01*
X28571428Y-44904819D02*
X28571428Y-43904819D01*
X28571428Y-43904819D02*
X28666666Y-44047676D01*
X28666666Y-44047676D02*
X28761904Y-44142914D01*
X28761904Y-44142914D02*
X28857142Y-44190533D01*
X79333332Y-60157200D02*
X79190475Y-60204819D01*
X79190475Y-60204819D02*
X78952380Y-60204819D01*
X78952380Y-60204819D02*
X78857142Y-60157200D01*
X78857142Y-60157200D02*
X78809523Y-60109580D01*
X78809523Y-60109580D02*
X78761904Y-60014342D01*
X78761904Y-60014342D02*
X78761904Y-59919104D01*
X78761904Y-59919104D02*
X78809523Y-59823866D01*
X78809523Y-59823866D02*
X78857142Y-59776247D01*
X78857142Y-59776247D02*
X78952380Y-59728628D01*
X78952380Y-59728628D02*
X79142856Y-59681009D01*
X79142856Y-59681009D02*
X79238094Y-59633390D01*
X79238094Y-59633390D02*
X79285713Y-59585771D01*
X79285713Y-59585771D02*
X79333332Y-59490533D01*
X79333332Y-59490533D02*
X79333332Y-59395295D01*
X79333332Y-59395295D02*
X79285713Y-59300057D01*
X79285713Y-59300057D02*
X79238094Y-59252438D01*
X79238094Y-59252438D02*
X79142856Y-59204819D01*
X79142856Y-59204819D02*
X78904761Y-59204819D01*
X78904761Y-59204819D02*
X78761904Y-59252438D01*
X78428570Y-59204819D02*
X78190475Y-60204819D01*
X78190475Y-60204819D02*
X77999999Y-59490533D01*
X77999999Y-59490533D02*
X77809523Y-60204819D01*
X77809523Y-60204819D02*
X77571428Y-59204819D01*
X76666666Y-60204819D02*
X77238094Y-60204819D01*
X76952380Y-60204819D02*
X76952380Y-59204819D01*
X76952380Y-59204819D02*
X77047618Y-59347676D01*
X77047618Y-59347676D02*
X77142856Y-59442914D01*
X77142856Y-59442914D02*
X77238094Y-59490533D01*
X9261904Y-38902819D02*
X8690476Y-38902819D01*
X8976190Y-39902819D02*
X8976190Y-38902819D01*
X8357142Y-39902819D02*
X8357142Y-38902819D01*
X8357142Y-38902819D02*
X7976190Y-38902819D01*
X7976190Y-38902819D02*
X7880952Y-38950438D01*
X7880952Y-38950438D02*
X7833333Y-38998057D01*
X7833333Y-38998057D02*
X7785714Y-39093295D01*
X7785714Y-39093295D02*
X7785714Y-39236152D01*
X7785714Y-39236152D02*
X7833333Y-39331390D01*
X7833333Y-39331390D02*
X7880952Y-39379009D01*
X7880952Y-39379009D02*
X7976190Y-39426628D01*
X7976190Y-39426628D02*
X8357142Y-39426628D01*
X7452380Y-38902819D02*
X6785714Y-38902819D01*
X6785714Y-38902819D02*
X7214285Y-39902819D01*
X26761904Y-52854819D02*
X26761904Y-53664342D01*
X26761904Y-53664342D02*
X26714285Y-53759580D01*
X26714285Y-53759580D02*
X26666666Y-53807200D01*
X26666666Y-53807200D02*
X26571428Y-53854819D01*
X26571428Y-53854819D02*
X26380952Y-53854819D01*
X26380952Y-53854819D02*
X26285714Y-53807200D01*
X26285714Y-53807200D02*
X26238095Y-53759580D01*
X26238095Y-53759580D02*
X26190476Y-53664342D01*
X26190476Y-53664342D02*
X26190476Y-52854819D01*
X25809523Y-52854819D02*
X25190476Y-52854819D01*
X25190476Y-52854819D02*
X25523809Y-53235771D01*
X25523809Y-53235771D02*
X25380952Y-53235771D01*
X25380952Y-53235771D02*
X25285714Y-53283390D01*
X25285714Y-53283390D02*
X25238095Y-53331009D01*
X25238095Y-53331009D02*
X25190476Y-53426247D01*
X25190476Y-53426247D02*
X25190476Y-53664342D01*
X25190476Y-53664342D02*
X25238095Y-53759580D01*
X25238095Y-53759580D02*
X25285714Y-53807200D01*
X25285714Y-53807200D02*
X25380952Y-53854819D01*
X25380952Y-53854819D02*
X25666666Y-53854819D01*
X25666666Y-53854819D02*
X25761904Y-53807200D01*
X25761904Y-53807200D02*
X25809523Y-53759580D01*
X65761904Y-52854819D02*
X65761904Y-53664342D01*
X65761904Y-53664342D02*
X65714285Y-53759580D01*
X65714285Y-53759580D02*
X65666666Y-53807200D01*
X65666666Y-53807200D02*
X65571428Y-53854819D01*
X65571428Y-53854819D02*
X65380952Y-53854819D01*
X65380952Y-53854819D02*
X65285714Y-53807200D01*
X65285714Y-53807200D02*
X65238095Y-53759580D01*
X65238095Y-53759580D02*
X65190476Y-53664342D01*
X65190476Y-53664342D02*
X65190476Y-52854819D01*
X64285714Y-53188152D02*
X64285714Y-53854819D01*
X64523809Y-52807200D02*
X64761904Y-53521485D01*
X64761904Y-53521485D02*
X64142857Y-53521485D01*
X9261904Y-13902819D02*
X8690476Y-13902819D01*
X8976190Y-14902819D02*
X8976190Y-13902819D01*
X8357142Y-14902819D02*
X8357142Y-13902819D01*
X8357142Y-13902819D02*
X7976190Y-13902819D01*
X7976190Y-13902819D02*
X7880952Y-13950438D01*
X7880952Y-13950438D02*
X7833333Y-13998057D01*
X7833333Y-13998057D02*
X7785714Y-14093295D01*
X7785714Y-14093295D02*
X7785714Y-14236152D01*
X7785714Y-14236152D02*
X7833333Y-14331390D01*
X7833333Y-14331390D02*
X7880952Y-14379009D01*
X7880952Y-14379009D02*
X7976190Y-14426628D01*
X7976190Y-14426628D02*
X8357142Y-14426628D01*
X7404761Y-13998057D02*
X7357142Y-13950438D01*
X7357142Y-13950438D02*
X7261904Y-13902819D01*
X7261904Y-13902819D02*
X7023809Y-13902819D01*
X7023809Y-13902819D02*
X6928571Y-13950438D01*
X6928571Y-13950438D02*
X6880952Y-13998057D01*
X6880952Y-13998057D02*
X6833333Y-14093295D01*
X6833333Y-14093295D02*
X6833333Y-14188533D01*
X6833333Y-14188533D02*
X6880952Y-14331390D01*
X6880952Y-14331390D02*
X7452380Y-14902819D01*
X7452380Y-14902819D02*
X6833333Y-14902819D01*
X9261904Y-33902819D02*
X8690476Y-33902819D01*
X8976190Y-34902819D02*
X8976190Y-33902819D01*
X8357142Y-34902819D02*
X8357142Y-33902819D01*
X8357142Y-33902819D02*
X7976190Y-33902819D01*
X7976190Y-33902819D02*
X7880952Y-33950438D01*
X7880952Y-33950438D02*
X7833333Y-33998057D01*
X7833333Y-33998057D02*
X7785714Y-34093295D01*
X7785714Y-34093295D02*
X7785714Y-34236152D01*
X7785714Y-34236152D02*
X7833333Y-34331390D01*
X7833333Y-34331390D02*
X7880952Y-34379009D01*
X7880952Y-34379009D02*
X7976190Y-34426628D01*
X7976190Y-34426628D02*
X8357142Y-34426628D01*
X6928571Y-33902819D02*
X7119047Y-33902819D01*
X7119047Y-33902819D02*
X7214285Y-33950438D01*
X7214285Y-33950438D02*
X7261904Y-33998057D01*
X7261904Y-33998057D02*
X7357142Y-34140914D01*
X7357142Y-34140914D02*
X7404761Y-34331390D01*
X7404761Y-34331390D02*
X7404761Y-34712342D01*
X7404761Y-34712342D02*
X7357142Y-34807580D01*
X7357142Y-34807580D02*
X7309523Y-34855200D01*
X7309523Y-34855200D02*
X7214285Y-34902819D01*
X7214285Y-34902819D02*
X7023809Y-34902819D01*
X7023809Y-34902819D02*
X6928571Y-34855200D01*
X6928571Y-34855200D02*
X6880952Y-34807580D01*
X6880952Y-34807580D02*
X6833333Y-34712342D01*
X6833333Y-34712342D02*
X6833333Y-34474247D01*
X6833333Y-34474247D02*
X6880952Y-34379009D01*
X6880952Y-34379009D02*
X6928571Y-34331390D01*
X6928571Y-34331390D02*
X7023809Y-34283771D01*
X7023809Y-34283771D02*
X7214285Y-34283771D01*
X7214285Y-34283771D02*
X7309523Y-34331390D01*
X7309523Y-34331390D02*
X7357142Y-34379009D01*
X7357142Y-34379009D02*
X7404761Y-34474247D01*
X37761904Y-62854819D02*
X37761904Y-63664342D01*
X37761904Y-63664342D02*
X37714285Y-63759580D01*
X37714285Y-63759580D02*
X37666666Y-63807200D01*
X37666666Y-63807200D02*
X37571428Y-63854819D01*
X37571428Y-63854819D02*
X37380952Y-63854819D01*
X37380952Y-63854819D02*
X37285714Y-63807200D01*
X37285714Y-63807200D02*
X37238095Y-63759580D01*
X37238095Y-63759580D02*
X37190476Y-63664342D01*
X37190476Y-63664342D02*
X37190476Y-62854819D01*
X36238095Y-62854819D02*
X36714285Y-62854819D01*
X36714285Y-62854819D02*
X36761904Y-63331009D01*
X36761904Y-63331009D02*
X36714285Y-63283390D01*
X36714285Y-63283390D02*
X36619047Y-63235771D01*
X36619047Y-63235771D02*
X36380952Y-63235771D01*
X36380952Y-63235771D02*
X36285714Y-63283390D01*
X36285714Y-63283390D02*
X36238095Y-63331009D01*
X36238095Y-63331009D02*
X36190476Y-63426247D01*
X36190476Y-63426247D02*
X36190476Y-63664342D01*
X36190476Y-63664342D02*
X36238095Y-63759580D01*
X36238095Y-63759580D02*
X36285714Y-63807200D01*
X36285714Y-63807200D02*
X36380952Y-63854819D01*
X36380952Y-63854819D02*
X36619047Y-63854819D01*
X36619047Y-63854819D02*
X36714285Y-63807200D01*
X36714285Y-63807200D02*
X36761904Y-63759580D01*
X46761904Y-54284819D02*
X46761904Y-55094342D01*
X46761904Y-55094342D02*
X46714285Y-55189580D01*
X46714285Y-55189580D02*
X46666666Y-55237200D01*
X46666666Y-55237200D02*
X46571428Y-55284819D01*
X46571428Y-55284819D02*
X46380952Y-55284819D01*
X46380952Y-55284819D02*
X46285714Y-55237200D01*
X46285714Y-55237200D02*
X46238095Y-55189580D01*
X46238095Y-55189580D02*
X46190476Y-55094342D01*
X46190476Y-55094342D02*
X46190476Y-54284819D01*
X45190476Y-55284819D02*
X45761904Y-55284819D01*
X45476190Y-55284819D02*
X45476190Y-54284819D01*
X45476190Y-54284819D02*
X45571428Y-54427676D01*
X45571428Y-54427676D02*
X45666666Y-54522914D01*
X45666666Y-54522914D02*
X45761904Y-54570533D01*
X9261904Y-43902819D02*
X8690476Y-43902819D01*
X8976190Y-44902819D02*
X8976190Y-43902819D01*
X8357142Y-44902819D02*
X8357142Y-43902819D01*
X8357142Y-43902819D02*
X7976190Y-43902819D01*
X7976190Y-43902819D02*
X7880952Y-43950438D01*
X7880952Y-43950438D02*
X7833333Y-43998057D01*
X7833333Y-43998057D02*
X7785714Y-44093295D01*
X7785714Y-44093295D02*
X7785714Y-44236152D01*
X7785714Y-44236152D02*
X7833333Y-44331390D01*
X7833333Y-44331390D02*
X7880952Y-44379009D01*
X7880952Y-44379009D02*
X7976190Y-44426628D01*
X7976190Y-44426628D02*
X8357142Y-44426628D01*
X7214285Y-44331390D02*
X7309523Y-44283771D01*
X7309523Y-44283771D02*
X7357142Y-44236152D01*
X7357142Y-44236152D02*
X7404761Y-44140914D01*
X7404761Y-44140914D02*
X7404761Y-44093295D01*
X7404761Y-44093295D02*
X7357142Y-43998057D01*
X7357142Y-43998057D02*
X7309523Y-43950438D01*
X7309523Y-43950438D02*
X7214285Y-43902819D01*
X7214285Y-43902819D02*
X7023809Y-43902819D01*
X7023809Y-43902819D02*
X6928571Y-43950438D01*
X6928571Y-43950438D02*
X6880952Y-43998057D01*
X6880952Y-43998057D02*
X6833333Y-44093295D01*
X6833333Y-44093295D02*
X6833333Y-44140914D01*
X6833333Y-44140914D02*
X6880952Y-44236152D01*
X6880952Y-44236152D02*
X6928571Y-44283771D01*
X6928571Y-44283771D02*
X7023809Y-44331390D01*
X7023809Y-44331390D02*
X7214285Y-44331390D01*
X7214285Y-44331390D02*
X7309523Y-44379009D01*
X7309523Y-44379009D02*
X7357142Y-44426628D01*
X7357142Y-44426628D02*
X7404761Y-44521866D01*
X7404761Y-44521866D02*
X7404761Y-44712342D01*
X7404761Y-44712342D02*
X7357142Y-44807580D01*
X7357142Y-44807580D02*
X7309523Y-44855200D01*
X7309523Y-44855200D02*
X7214285Y-44902819D01*
X7214285Y-44902819D02*
X7023809Y-44902819D01*
X7023809Y-44902819D02*
X6928571Y-44855200D01*
X6928571Y-44855200D02*
X6880952Y-44807580D01*
X6880952Y-44807580D02*
X6833333Y-44712342D01*
X6833333Y-44712342D02*
X6833333Y-44521866D01*
X6833333Y-44521866D02*
X6880952Y-44426628D01*
X6880952Y-44426628D02*
X6928571Y-44379009D01*
X6928571Y-44379009D02*
X7023809Y-44331390D01*
X9261904Y-23902819D02*
X8690476Y-23902819D01*
X8976190Y-24902819D02*
X8976190Y-23902819D01*
X8357142Y-24902819D02*
X8357142Y-23902819D01*
X8357142Y-23902819D02*
X7976190Y-23902819D01*
X7976190Y-23902819D02*
X7880952Y-23950438D01*
X7880952Y-23950438D02*
X7833333Y-23998057D01*
X7833333Y-23998057D02*
X7785714Y-24093295D01*
X7785714Y-24093295D02*
X7785714Y-24236152D01*
X7785714Y-24236152D02*
X7833333Y-24331390D01*
X7833333Y-24331390D02*
X7880952Y-24379009D01*
X7880952Y-24379009D02*
X7976190Y-24426628D01*
X7976190Y-24426628D02*
X8357142Y-24426628D01*
X6928571Y-24236152D02*
X6928571Y-24902819D01*
X7166666Y-23855200D02*
X7404761Y-24569485D01*
X7404761Y-24569485D02*
X6785714Y-24569485D01*
X48333333Y-59809819D02*
X48333333Y-60524104D01*
X48333333Y-60524104D02*
X48380952Y-60666961D01*
X48380952Y-60666961D02*
X48476190Y-60762200D01*
X48476190Y-60762200D02*
X48619047Y-60809819D01*
X48619047Y-60809819D02*
X48714285Y-60809819D01*
X47333333Y-60809819D02*
X47904761Y-60809819D01*
X47619047Y-60809819D02*
X47619047Y-59809819D01*
X47619047Y-59809819D02*
X47714285Y-59952676D01*
X47714285Y-59952676D02*
X47809523Y-60047914D01*
X47809523Y-60047914D02*
X47904761Y-60095533D01*
X9261904Y-18902819D02*
X8690476Y-18902819D01*
X8976190Y-19902819D02*
X8976190Y-18902819D01*
X8357142Y-19902819D02*
X8357142Y-18902819D01*
X8357142Y-18902819D02*
X7976190Y-18902819D01*
X7976190Y-18902819D02*
X7880952Y-18950438D01*
X7880952Y-18950438D02*
X7833333Y-18998057D01*
X7833333Y-18998057D02*
X7785714Y-19093295D01*
X7785714Y-19093295D02*
X7785714Y-19236152D01*
X7785714Y-19236152D02*
X7833333Y-19331390D01*
X7833333Y-19331390D02*
X7880952Y-19379009D01*
X7880952Y-19379009D02*
X7976190Y-19426628D01*
X7976190Y-19426628D02*
X8357142Y-19426628D01*
X7452380Y-18902819D02*
X6833333Y-18902819D01*
X6833333Y-18902819D02*
X7166666Y-19283771D01*
X7166666Y-19283771D02*
X7023809Y-19283771D01*
X7023809Y-19283771D02*
X6928571Y-19331390D01*
X6928571Y-19331390D02*
X6880952Y-19379009D01*
X6880952Y-19379009D02*
X6833333Y-19474247D01*
X6833333Y-19474247D02*
X6833333Y-19712342D01*
X6833333Y-19712342D02*
X6880952Y-19807580D01*
X6880952Y-19807580D02*
X6928571Y-19855200D01*
X6928571Y-19855200D02*
X7023809Y-19902819D01*
X7023809Y-19902819D02*
X7309523Y-19902819D01*
X7309523Y-19902819D02*
X7404761Y-19855200D01*
X7404761Y-19855200D02*
X7452380Y-19807580D01*
%TO.C,SW2*%
D11*
X84540000Y-55140000D02*
X89460000Y-55140000D01*
X84540000Y-55390000D02*
X84540000Y-55140000D01*
X84540000Y-58860000D02*
X84540000Y-58610000D01*
X89460000Y-55390000D02*
X89460000Y-55140000D01*
X89460000Y-58860000D02*
X84540000Y-58860000D01*
X89460000Y-58860000D02*
X89460000Y-58610000D01*
%TO.C,SWD1*%
X11190000Y-59840000D02*
X11190000Y-61000000D01*
X12000000Y-59840000D02*
X11190000Y-59840000D01*
X12810000Y-59840000D02*
X12810000Y-60333292D01*
X12810000Y-59840000D02*
X17825000Y-59840000D01*
X12810000Y-61666708D02*
X12810000Y-62160000D01*
X12810000Y-62160000D02*
X17825000Y-62160000D01*
X17825000Y-59840000D02*
X17825000Y-60682077D01*
X17825000Y-61317923D02*
X17825000Y-62160000D01*
%TO.C,TP1*%
X8700000Y-8000000D02*
G75*
G02*
X7300000Y-8000000I-700000J0D01*
G01*
X7300000Y-8000000D02*
G75*
G02*
X8700000Y-8000000I700000J0D01*
G01*
%TO.C,U2*%
X43890000Y-24890000D02*
X43890000Y-25240000D01*
X43890000Y-28760000D02*
X43890000Y-29110000D01*
X43890000Y-29110000D02*
X44240000Y-29110000D01*
X44240000Y-24890000D02*
X43890000Y-24890000D01*
X47760000Y-29110000D02*
X48110000Y-29110000D01*
X48110000Y-24890000D02*
X47760000Y-24890000D01*
X48110000Y-25240000D02*
X48110000Y-24890000D01*
X48110000Y-29110000D02*
X48110000Y-28760000D01*
X43360000Y-28400000D02*
X43030000Y-28160000D01*
X43030000Y-28640000D01*
X43360000Y-28400000D01*
G36*
X43360000Y-28400000D02*
G01*
X43030000Y-28640000D01*
X43030000Y-28160000D01*
X43360000Y-28400000D01*
G37*
%TO.C,C1*%
X39859420Y-43490000D02*
X40140580Y-43490000D01*
X39859420Y-44510000D02*
X40140580Y-44510000D01*
%TO.C,TP5*%
X8700000Y-28000000D02*
G75*
G02*
X7300000Y-28000000I-700000J0D01*
G01*
X7300000Y-28000000D02*
G75*
G02*
X8700000Y-28000000I700000J0D01*
G01*
%TO.C,C13*%
X25859420Y-37490000D02*
X26140580Y-37490000D01*
X25859420Y-38510000D02*
X26140580Y-38510000D01*
%TO.C,C4*%
X51859420Y-22490000D02*
X52140580Y-22490000D01*
X51859420Y-23510000D02*
X52140580Y-23510000D01*
%TO.C,Y1*%
X26940000Y-40290000D02*
X31060000Y-40290000D01*
X26940000Y-43710000D02*
X26940000Y-40290000D01*
%TO.C,C8*%
X60859420Y-55490000D02*
X61140580Y-55490000D01*
X60859420Y-56510000D02*
X61140580Y-56510000D01*
%TO.C,SW1*%
X75540000Y-55140000D02*
X80460000Y-55140000D01*
X75540000Y-55390000D02*
X75540000Y-55140000D01*
X75540000Y-58860000D02*
X75540000Y-58610000D01*
X80460000Y-55390000D02*
X80460000Y-55140000D01*
X80460000Y-58860000D02*
X75540000Y-58860000D01*
X80460000Y-58860000D02*
X80460000Y-58610000D01*
%TO.C,TP7*%
X8700000Y-38000000D02*
G75*
G02*
X7300000Y-38000000I-700000J0D01*
G01*
X7300000Y-38000000D02*
G75*
G02*
X8700000Y-38000000I700000J0D01*
G01*
%TO.C,R5*%
X53762742Y-30477500D02*
X54237258Y-30477500D01*
X53762742Y-31522500D02*
X54237258Y-31522500D01*
%TO.C,U3*%
X23940000Y-47440000D02*
X23940000Y-47535000D01*
X23940000Y-52465000D02*
X23940000Y-52560000D01*
X23940000Y-52560000D02*
X28060000Y-52560000D01*
X28060000Y-47440000D02*
X23940000Y-47440000D01*
X28060000Y-47535000D02*
X28060000Y-47440000D01*
X28060000Y-52560000D02*
X28060000Y-52465000D01*
X23400000Y-52470000D02*
X23160000Y-52800000D01*
X23640000Y-52800000D01*
X23400000Y-52470000D01*
G36*
X23640000Y-52800000D02*
G01*
X23160000Y-52800000D01*
X23400000Y-52470000D01*
X23640000Y-52800000D01*
G37*
%TO.C,U4*%
X64090000Y-49440000D02*
X64090000Y-49490000D01*
X64090000Y-52510000D02*
X64090000Y-52560000D01*
X64090000Y-52560000D02*
X65910000Y-52560000D01*
X65910000Y-49440000D02*
X64090000Y-49440000D01*
X65910000Y-49490000D02*
X65910000Y-49440000D01*
X65910000Y-51390000D02*
X65910000Y-50610000D01*
X65910000Y-52560000D02*
X65910000Y-52510000D01*
X63550000Y-52510000D02*
X63310000Y-52840000D01*
X63790000Y-52840000D01*
X63550000Y-52510000D01*
G36*
X63790000Y-52840000D02*
G01*
X63310000Y-52840000D01*
X63550000Y-52510000D01*
X63790000Y-52840000D01*
G37*
%TO.C,R3*%
X66762742Y-61477500D02*
X67237258Y-61477500D01*
X66762742Y-62522500D02*
X67237258Y-62522500D01*
%TO.C,C3*%
X39859420Y-22490000D02*
X40140580Y-22490000D01*
X39859420Y-23510000D02*
X40140580Y-23510000D01*
%TO.C,C9*%
X30859420Y-35490000D02*
X31140580Y-35490000D01*
X30859420Y-36510000D02*
X31140580Y-36510000D01*
%TO.C,TP2*%
X8700000Y-13000000D02*
G75*
G02*
X7300000Y-13000000I-700000J0D01*
G01*
X7300000Y-13000000D02*
G75*
G02*
X8700000Y-13000000I700000J0D01*
G01*
%TO.C,TP6*%
X8700000Y-33000000D02*
G75*
G02*
X7300000Y-33000000I-700000J0D01*
G01*
X7300000Y-33000000D02*
G75*
G02*
X8700000Y-33000000I700000J0D01*
G01*
%TO.C,C12*%
X67859420Y-59490000D02*
X68140580Y-59490000D01*
X67859420Y-60510000D02*
X68140580Y-60510000D01*
%TO.C,C11*%
X68859420Y-55490000D02*
X69140580Y-55490000D01*
X68859420Y-56510000D02*
X69140580Y-56510000D01*
%TO.C,C7*%
X34859420Y-57490000D02*
X35140580Y-57490000D01*
X34859420Y-58510000D02*
X35140580Y-58510000D01*
%TO.C,U5*%
X36090000Y-59440000D02*
X36090000Y-59490000D01*
X36090000Y-62510000D02*
X36090000Y-62560000D01*
X36090000Y-62560000D02*
X37910000Y-62560000D01*
X37910000Y-59440000D02*
X36090000Y-59440000D01*
X37910000Y-59490000D02*
X37910000Y-59440000D01*
X37910000Y-62560000D02*
X37910000Y-62510000D01*
X35550000Y-62510000D02*
X35310000Y-62840000D01*
X35790000Y-62840000D01*
X35550000Y-62510000D01*
G36*
X35790000Y-62840000D02*
G01*
X35310000Y-62840000D01*
X35550000Y-62510000D01*
X35790000Y-62840000D01*
G37*
%TO.C,U1*%
X42390000Y-46390000D02*
X42390000Y-47040000D01*
X42390000Y-52960000D02*
X42390000Y-53610000D01*
X42390000Y-53610000D02*
X43040000Y-53610000D01*
X43040000Y-46390000D02*
X42390000Y-46390000D01*
X48960000Y-53610000D02*
X49610000Y-53610000D01*
X49610000Y-46390000D02*
X48960000Y-46390000D01*
X49610000Y-47040000D02*
X49610000Y-46390000D01*
X49610000Y-53610000D02*
X49610000Y-52960000D01*
X41860000Y-52600000D02*
X41530000Y-52360000D01*
X41530000Y-52840000D01*
X41860000Y-52600000D01*
G36*
X41860000Y-52600000D02*
G01*
X41530000Y-52840000D01*
X41530000Y-52360000D01*
X41860000Y-52600000D01*
G37*
%TO.C,C2*%
X51859420Y-43490000D02*
X52140580Y-43490000D01*
X51859420Y-44510000D02*
X52140580Y-44510000D01*
%TO.C,TP8*%
X8700000Y-43000000D02*
G75*
G02*
X7300000Y-43000000I-700000J0D01*
G01*
X7300000Y-43000000D02*
G75*
G02*
X8700000Y-43000000I700000J0D01*
G01*
%TO.C,R1*%
X38762742Y-55477500D02*
X39237258Y-55477500D01*
X38762742Y-56522500D02*
X39237258Y-56522500D01*
%TO.C,C14*%
X31859420Y-37490000D02*
X32140580Y-37490000D01*
X31859420Y-38510000D02*
X32140580Y-38510000D01*
%TO.C,TP4*%
X8700000Y-23000000D02*
G75*
G02*
X7300000Y-23000000I-700000J0D01*
G01*
X7300000Y-23000000D02*
G75*
G02*
X8700000Y-23000000I700000J0D01*
G01*
%TO.C,R6*%
X57762742Y-30477500D02*
X58237258Y-30477500D01*
X57762742Y-31522500D02*
X58237258Y-31522500D01*
%TO.C,J1*%
X43300000Y-64100000D02*
X43300000Y-66100000D01*
X43300000Y-68000000D02*
X43300000Y-69900000D01*
X52700000Y-64100000D02*
X52700000Y-66100000D01*
X52700000Y-68000000D02*
X52700000Y-69900000D01*
X52700000Y-69900000D02*
X43300000Y-69900000D01*
%TO.C,TP3*%
X8700000Y-18000000D02*
G75*
G02*
X7300000Y-18000000I-700000J0D01*
G01*
X7300000Y-18000000D02*
G75*
G02*
X8700000Y-18000000I700000J0D01*
G01*
%TO.C,R4*%
X71762742Y-61477500D02*
X72237258Y-61477500D01*
X71762742Y-62522500D02*
X72237258Y-62522500D01*
%TO.C,C10*%
X60859420Y-35490000D02*
X61140580Y-35490000D01*
X60859420Y-36510000D02*
X61140580Y-36510000D01*
%TO.C,C6*%
X67859420Y-46490000D02*
X68140580Y-46490000D01*
X67859420Y-47510000D02*
X68140580Y-47510000D01*
%TO.C,R2*%
X42762742Y-55477500D02*
X43237258Y-55477500D01*
X42762742Y-56522500D02*
X43237258Y-56522500D01*
%TO.C,C5*%
X23859420Y-44490000D02*
X24140580Y-44490000D01*
X23859420Y-45510000D02*
X24140580Y-45510000D01*
%TD*%
M02*
