%TF.GenerationSoftware,KiCad,Pcbnew,10.0.3*%
%TF.CreationDate,2026-05-30T19:10:27+08:00*%
%TF.ProjectId,tellmelight_rev_a2,74656c6c-6d65-46c6-9967-68745f726576,A2*%
%TF.SameCoordinates,Original*%
%TF.FileFunction,Soldermask,Top*%
%TF.FilePolarity,Negative*%
%FSLAX46Y46*%
G04 Gerber Fmt 4.6, Leading zero omitted, Abs format (unit mm)*
G04 Created by KiCad (PCBNEW 10.0.3) date 2026-05-30 19:10:27*
%MOMM*%
%LPD*%
G01*
G04 APERTURE LIST*
G04 APERTURE END LIST*
G36*
X5256790Y-67930393D02*
G01*
X5420952Y-67983733D01*
X5574748Y-68062096D01*
X5714393Y-68163553D01*
X5836447Y-68285607D01*
X5937904Y-68425252D01*
X6016267Y-68579048D01*
X6069607Y-68743210D01*
X6096609Y-68913695D01*
X6096609Y-69086305D01*
X6069607Y-69256790D01*
X6016267Y-69420952D01*
X5937904Y-69574748D01*
X5836447Y-69714393D01*
X5714393Y-69836447D01*
X5574748Y-69937904D01*
X5420952Y-70016267D01*
X5256790Y-70069607D01*
X5086305Y-70096609D01*
X4913695Y-70096609D01*
X4743210Y-70069607D01*
X4579048Y-70016267D01*
X4425252Y-69937904D01*
X4285607Y-69836447D01*
X4163553Y-69714393D01*
X4062096Y-69574748D01*
X3983733Y-69420952D01*
X3930393Y-69256790D01*
X3903391Y-69086305D01*
X3903391Y-68913695D01*
X3930393Y-68743210D01*
X3983733Y-68579048D01*
X4062096Y-68425252D01*
X4163553Y-68285607D01*
X4285607Y-68163553D01*
X4425252Y-68062096D01*
X4579048Y-67983733D01*
X4743210Y-67930393D01*
X4913695Y-67903391D01*
X5086305Y-67903391D01*
X5256790Y-67930393D01*
G37*
G36*
X91256790Y-67930393D02*
G01*
X91420952Y-67983733D01*
X91574748Y-68062096D01*
X91714393Y-68163553D01*
X91836447Y-68285607D01*
X91937904Y-68425252D01*
X92016267Y-68579048D01*
X92069607Y-68743210D01*
X92096609Y-68913695D01*
X92096609Y-69086305D01*
X92069607Y-69256790D01*
X92016267Y-69420952D01*
X91937904Y-69574748D01*
X91836447Y-69714393D01*
X91714393Y-69836447D01*
X91574748Y-69937904D01*
X91420952Y-70016267D01*
X91256790Y-70069607D01*
X91086305Y-70096609D01*
X90913695Y-70096609D01*
X90743210Y-70069607D01*
X90579048Y-70016267D01*
X90425252Y-69937904D01*
X90285607Y-69836447D01*
X90163553Y-69714393D01*
X90062096Y-69574748D01*
X89983733Y-69420952D01*
X89930393Y-69256790D01*
X89903391Y-69086305D01*
X89903391Y-68913695D01*
X89930393Y-68743210D01*
X89983733Y-68579048D01*
X90062096Y-68425252D01*
X90163553Y-68285607D01*
X90285607Y-68163553D01*
X90425252Y-68062096D01*
X90579048Y-67983733D01*
X90743210Y-67930393D01*
X90913695Y-67903391D01*
X91086305Y-67903391D01*
X91256790Y-67930393D01*
G37*
G36*
X43871342Y-66288060D02*
G01*
X43984381Y-66353323D01*
X44076677Y-66445619D01*
X44141940Y-66558658D01*
X44175722Y-66684737D01*
X44180000Y-66750000D01*
X44180000Y-67350000D01*
X44175722Y-67415263D01*
X44141940Y-67541342D01*
X44076677Y-67654381D01*
X43984381Y-67746677D01*
X43871342Y-67811940D01*
X43745263Y-67845722D01*
X43614737Y-67845722D01*
X43488658Y-67811940D01*
X43375619Y-67746677D01*
X43283323Y-67654381D01*
X43218060Y-67541342D01*
X43184278Y-67415263D01*
X43180000Y-67350000D01*
X43180000Y-66750000D01*
X43184278Y-66684737D01*
X43218060Y-66558658D01*
X43283323Y-66445619D01*
X43375619Y-66353323D01*
X43488658Y-66288060D01*
X43614737Y-66254278D01*
X43745263Y-66254278D01*
X43871342Y-66288060D01*
G37*
G36*
X52511342Y-66288060D02*
G01*
X52624381Y-66353323D01*
X52716677Y-66445619D01*
X52781940Y-66558658D01*
X52815722Y-66684737D01*
X52820000Y-66750000D01*
X52820000Y-67350000D01*
X52815722Y-67415263D01*
X52781940Y-67541342D01*
X52716677Y-67654381D01*
X52624381Y-67746677D01*
X52511342Y-67811940D01*
X52385263Y-67845722D01*
X52254737Y-67845722D01*
X52128658Y-67811940D01*
X52015619Y-67746677D01*
X51923323Y-67654381D01*
X51858060Y-67541342D01*
X51824278Y-67415263D01*
X51820000Y-67350000D01*
X51820000Y-66750000D01*
X51824278Y-66684737D01*
X51858060Y-66558658D01*
X51923323Y-66445619D01*
X52015619Y-66353323D01*
X52128658Y-66288060D01*
X52254737Y-66254278D01*
X52385263Y-66254278D01*
X52511342Y-66288060D01*
G37*
G36*
X43871342Y-61858060D02*
G01*
X43984381Y-61923323D01*
X44076677Y-62015619D01*
X44141940Y-62128658D01*
X44175722Y-62254737D01*
X44180000Y-62320000D01*
X44180000Y-63420000D01*
X44175722Y-63485263D01*
X44141940Y-63611342D01*
X44076677Y-63724381D01*
X43984381Y-63816677D01*
X43871342Y-63881940D01*
X43745263Y-63915722D01*
X43614737Y-63915722D01*
X43488658Y-63881940D01*
X43375619Y-63816677D01*
X43283323Y-63724381D01*
X43218060Y-63611342D01*
X43184278Y-63485263D01*
X43180000Y-63420000D01*
X43180000Y-62320000D01*
X43184278Y-62254737D01*
X43218060Y-62128658D01*
X43283323Y-62015619D01*
X43375619Y-61923323D01*
X43488658Y-61858060D01*
X43614737Y-61824278D01*
X43745263Y-61824278D01*
X43871342Y-61858060D01*
G37*
G36*
X52511342Y-61858060D02*
G01*
X52624381Y-61923323D01*
X52716677Y-62015619D01*
X52781940Y-62128658D01*
X52815722Y-62254737D01*
X52820000Y-62320000D01*
X52820000Y-63420000D01*
X52815722Y-63485263D01*
X52781940Y-63611342D01*
X52716677Y-63724381D01*
X52624381Y-63816677D01*
X52511342Y-63881940D01*
X52385263Y-63915722D01*
X52254737Y-63915722D01*
X52128658Y-63881940D01*
X52015619Y-63816677D01*
X51923323Y-63724381D01*
X51858060Y-63611342D01*
X51824278Y-63485263D01*
X51820000Y-63420000D01*
X51820000Y-62320000D01*
X51824278Y-62254737D01*
X51858060Y-62128658D01*
X51923323Y-62015619D01*
X52015619Y-61923323D01*
X52128658Y-61858060D01*
X52254737Y-61824278D01*
X52385263Y-61824278D01*
X52511342Y-61858060D01*
G37*
G36*
X45234372Y-63099739D02*
G01*
X45307847Y-63142160D01*
X45367840Y-63202153D01*
X45410261Y-63275628D01*
X45432220Y-63357579D01*
X45432220Y-63442421D01*
X45410261Y-63524372D01*
X45367840Y-63597847D01*
X45307847Y-63657840D01*
X45234372Y-63700261D01*
X45152421Y-63722220D01*
X45067579Y-63722220D01*
X44985628Y-63700261D01*
X44912153Y-63657840D01*
X44852160Y-63597847D01*
X44809739Y-63524372D01*
X44787780Y-63442421D01*
X44787780Y-63357579D01*
X44809739Y-63275628D01*
X44852160Y-63202153D01*
X44912153Y-63142160D01*
X44985628Y-63099739D01*
X45067579Y-63077780D01*
X45152421Y-63077780D01*
X45234372Y-63099739D01*
G37*
G36*
X51014372Y-63099739D02*
G01*
X51087847Y-63142160D01*
X51147840Y-63202153D01*
X51190261Y-63275628D01*
X51212220Y-63357579D01*
X51212220Y-63442421D01*
X51190261Y-63524372D01*
X51147840Y-63597847D01*
X51087847Y-63657840D01*
X51014372Y-63700261D01*
X50932421Y-63722220D01*
X50847579Y-63722220D01*
X50765628Y-63700261D01*
X50692153Y-63657840D01*
X50632160Y-63597847D01*
X50589739Y-63524372D01*
X50567780Y-63442421D01*
X50567780Y-63357579D01*
X50589739Y-63275628D01*
X50632160Y-63202153D01*
X50692153Y-63142160D01*
X50765628Y-63099739D01*
X50847579Y-63077780D01*
X50932421Y-63077780D01*
X51014372Y-63099739D01*
G37*
G36*
X81750000Y-48800000D02*
G01*
X80850000Y-48800000D01*
X80850000Y-47300000D01*
X81750000Y-47300000D01*
X81750000Y-48800000D01*
G37*
G36*
X83150000Y-48800000D02*
G01*
X82250000Y-48800000D01*
X82250000Y-47300000D01*
X83150000Y-47300000D01*
X83150000Y-48800000D01*
G37*
G36*
X16250000Y-46800000D02*
G01*
X15350000Y-46800000D01*
X15350000Y-45300000D01*
X16250000Y-45300000D01*
X16250000Y-46800000D01*
G37*
G36*
X17650000Y-46800000D02*
G01*
X16750000Y-46800000D01*
X16750000Y-45300000D01*
X17650000Y-45300000D01*
X17650000Y-46800000D01*
G37*
G36*
X81750000Y-45700000D02*
G01*
X80850000Y-45700000D01*
X80850000Y-44200000D01*
X81750000Y-44200000D01*
X81750000Y-45700000D01*
G37*
G36*
X83150000Y-45700000D02*
G01*
X82250000Y-45700000D01*
X82250000Y-44200000D01*
X83150000Y-44200000D01*
X83150000Y-45700000D01*
G37*
G36*
X16250000Y-43700000D02*
G01*
X15350000Y-43700000D01*
X15350000Y-42200000D01*
X16250000Y-42200000D01*
X16250000Y-43700000D01*
G37*
G36*
X17650000Y-43700000D02*
G01*
X16750000Y-43700000D01*
X16750000Y-42200000D01*
X17650000Y-42200000D01*
X17650000Y-43700000D01*
G37*
G36*
X37250000Y-42300000D02*
G01*
X36350000Y-42300000D01*
X36350000Y-40800000D01*
X37250000Y-40800000D01*
X37250000Y-42300000D01*
G37*
G36*
X38650000Y-42300000D02*
G01*
X37750000Y-42300000D01*
X37750000Y-40800000D01*
X38650000Y-40800000D01*
X38650000Y-42300000D01*
G37*
G36*
X37250000Y-39200000D02*
G01*
X36350000Y-39200000D01*
X36350000Y-37700000D01*
X37250000Y-37700000D01*
X37250000Y-39200000D01*
G37*
G36*
X38650000Y-39200000D02*
G01*
X37750000Y-39200000D01*
X37750000Y-37700000D01*
X38650000Y-37700000D01*
X38650000Y-39200000D01*
G37*
G36*
X58250000Y-36300000D02*
G01*
X57350000Y-36300000D01*
X57350000Y-34800000D01*
X58250000Y-34800000D01*
X58250000Y-36300000D01*
G37*
G36*
X59650000Y-36300000D02*
G01*
X58750000Y-36300000D01*
X58750000Y-34800000D01*
X59650000Y-34800000D01*
X59650000Y-36300000D01*
G37*
G36*
X58250000Y-33200000D02*
G01*
X57350000Y-33200000D01*
X57350000Y-31700000D01*
X58250000Y-31700000D01*
X58250000Y-33200000D01*
G37*
G36*
X59650000Y-33200000D02*
G01*
X58750000Y-33200000D01*
X58750000Y-31700000D01*
X59650000Y-31700000D01*
X59650000Y-33200000D01*
G37*
G36*
X81750000Y-22300000D02*
G01*
X80850000Y-22300000D01*
X80850000Y-20800000D01*
X81750000Y-20800000D01*
X81750000Y-22300000D01*
G37*
G36*
X83150000Y-22300000D02*
G01*
X82250000Y-22300000D01*
X82250000Y-20800000D01*
X83150000Y-20800000D01*
X83150000Y-22300000D01*
G37*
G36*
X16250000Y-21800000D02*
G01*
X15350000Y-21800000D01*
X15350000Y-20300000D01*
X16250000Y-20300000D01*
X16250000Y-21800000D01*
G37*
G36*
X17650000Y-21800000D02*
G01*
X16750000Y-21800000D01*
X16750000Y-20300000D01*
X17650000Y-20300000D01*
X17650000Y-21800000D01*
G37*
G36*
X81750000Y-19200000D02*
G01*
X80850000Y-19200000D01*
X80850000Y-17700000D01*
X81750000Y-17700000D01*
X81750000Y-19200000D01*
G37*
G36*
X83150000Y-19200000D02*
G01*
X82250000Y-19200000D01*
X82250000Y-17700000D01*
X83150000Y-17700000D01*
X83150000Y-19200000D01*
G37*
G36*
X16250000Y-18700000D02*
G01*
X15350000Y-18700000D01*
X15350000Y-17200000D01*
X16250000Y-17200000D01*
X16250000Y-18700000D01*
G37*
G36*
X17650000Y-18700000D02*
G01*
X16750000Y-18700000D01*
X16750000Y-17200000D01*
X17650000Y-17200000D01*
X17650000Y-18700000D01*
G37*
G36*
X5256790Y-3930393D02*
G01*
X5420952Y-3983733D01*
X5574748Y-4062096D01*
X5714393Y-4163553D01*
X5836447Y-4285607D01*
X5937904Y-4425252D01*
X6016267Y-4579048D01*
X6069607Y-4743210D01*
X6096609Y-4913695D01*
X6096609Y-5086305D01*
X6069607Y-5256790D01*
X6016267Y-5420952D01*
X5937904Y-5574748D01*
X5836447Y-5714393D01*
X5714393Y-5836447D01*
X5574748Y-5937904D01*
X5420952Y-6016267D01*
X5256790Y-6069607D01*
X5086305Y-6096609D01*
X4913695Y-6096609D01*
X4743210Y-6069607D01*
X4579048Y-6016267D01*
X4425252Y-5937904D01*
X4285607Y-5836447D01*
X4163553Y-5714393D01*
X4062096Y-5574748D01*
X3983733Y-5420952D01*
X3930393Y-5256790D01*
X3903391Y-5086305D01*
X3903391Y-4913695D01*
X3930393Y-4743210D01*
X3983733Y-4579048D01*
X4062096Y-4425252D01*
X4163553Y-4285607D01*
X4285607Y-4163553D01*
X4425252Y-4062096D01*
X4579048Y-3983733D01*
X4743210Y-3930393D01*
X4913695Y-3903391D01*
X5086305Y-3903391D01*
X5256790Y-3930393D01*
G37*
G36*
X91256790Y-3930393D02*
G01*
X91420952Y-3983733D01*
X91574748Y-4062096D01*
X91714393Y-4163553D01*
X91836447Y-4285607D01*
X91937904Y-4425252D01*
X92016267Y-4579048D01*
X92069607Y-4743210D01*
X92096609Y-4913695D01*
X92096609Y-5086305D01*
X92069607Y-5256790D01*
X92016267Y-5420952D01*
X91937904Y-5574748D01*
X91836447Y-5714393D01*
X91714393Y-5836447D01*
X91574748Y-5937904D01*
X91420952Y-6016267D01*
X91256790Y-6069607D01*
X91086305Y-6096609D01*
X90913695Y-6096609D01*
X90743210Y-6069607D01*
X90579048Y-6016267D01*
X90425252Y-5937904D01*
X90285607Y-5836447D01*
X90163553Y-5714393D01*
X90062096Y-5574748D01*
X89983733Y-5420952D01*
X89930393Y-5256790D01*
X89903391Y-5086305D01*
X89903391Y-4913695D01*
X89930393Y-4743210D01*
X89983733Y-4579048D01*
X90062096Y-4425252D01*
X90163553Y-4285607D01*
X90285607Y-4163553D01*
X90425252Y-4062096D01*
X90579048Y-3983733D01*
X90743210Y-3930393D01*
X90913695Y-3903391D01*
X91086305Y-3903391D01*
X91256790Y-3930393D01*
G37*
M02*
