%TF.GenerationSoftware,KiCad,Pcbnew,10.0.3*%
%TF.CreationDate,2026-05-30T19:10:27+08:00*%
%TF.ProjectId,tellmelight_rev_a2,74656c6c-6d65-46c6-9967-68745f726576,A2*%
%TF.SameCoordinates,Original*%
%TF.FileFunction,AssemblyDrawing,Bot*%
%FSLAX46Y46*%
G04 Gerber Fmt 4.6, Leading zero omitted, Abs format (unit mm)*
G04 Created by KiCad (PCBNEW 10.0.3) date 2026-05-30 19:10:27*
%MOMM*%
%LPD*%
G01*
G04 APERTURE LIST*
%ADD10C,0.150000*%
%ADD11C,0.060000*%
%ADD12C,0.110000*%
%ADD13C,0.120000*%
%ADD14C,0.100000*%
G04 APERTURE END LIST*
D10*
X9261904Y-38904819D02*
X8690476Y-38904819D01*
X8976190Y-39904819D02*
X8976190Y-38904819D01*
X8357142Y-39904819D02*
X8357142Y-38904819D01*
X8357142Y-38904819D02*
X7976190Y-38904819D01*
X7976190Y-38904819D02*
X7880952Y-38952438D01*
X7880952Y-38952438D02*
X7833333Y-39000057D01*
X7833333Y-39000057D02*
X7785714Y-39095295D01*
X7785714Y-39095295D02*
X7785714Y-39238152D01*
X7785714Y-39238152D02*
X7833333Y-39333390D01*
X7833333Y-39333390D02*
X7880952Y-39381009D01*
X7880952Y-39381009D02*
X7976190Y-39428628D01*
X7976190Y-39428628D02*
X8357142Y-39428628D01*
X7452380Y-38904819D02*
X6785714Y-38904819D01*
X6785714Y-38904819D02*
X7214285Y-39904819D01*
D11*
X68066666Y-47143832D02*
X68085714Y-47162880D01*
X68085714Y-47162880D02*
X68142856Y-47181927D01*
X68142856Y-47181927D02*
X68180952Y-47181927D01*
X68180952Y-47181927D02*
X68238095Y-47162880D01*
X68238095Y-47162880D02*
X68276190Y-47124784D01*
X68276190Y-47124784D02*
X68295237Y-47086689D01*
X68295237Y-47086689D02*
X68314285Y-47010499D01*
X68314285Y-47010499D02*
X68314285Y-46953356D01*
X68314285Y-46953356D02*
X68295237Y-46877165D01*
X68295237Y-46877165D02*
X68276190Y-46839070D01*
X68276190Y-46839070D02*
X68238095Y-46800975D01*
X68238095Y-46800975D02*
X68180952Y-46781927D01*
X68180952Y-46781927D02*
X68142856Y-46781927D01*
X68142856Y-46781927D02*
X68085714Y-46800975D01*
X68085714Y-46800975D02*
X68066666Y-46820022D01*
X67723809Y-46781927D02*
X67799999Y-46781927D01*
X67799999Y-46781927D02*
X67838095Y-46800975D01*
X67838095Y-46800975D02*
X67857142Y-46820022D01*
X67857142Y-46820022D02*
X67895237Y-46877165D01*
X67895237Y-46877165D02*
X67914285Y-46953356D01*
X67914285Y-46953356D02*
X67914285Y-47105737D01*
X67914285Y-47105737D02*
X67895237Y-47143832D01*
X67895237Y-47143832D02*
X67876190Y-47162880D01*
X67876190Y-47162880D02*
X67838095Y-47181927D01*
X67838095Y-47181927D02*
X67761904Y-47181927D01*
X67761904Y-47181927D02*
X67723809Y-47162880D01*
X67723809Y-47162880D02*
X67704761Y-47143832D01*
X67704761Y-47143832D02*
X67685714Y-47105737D01*
X67685714Y-47105737D02*
X67685714Y-47010499D01*
X67685714Y-47010499D02*
X67704761Y-46972403D01*
X67704761Y-46972403D02*
X67723809Y-46953356D01*
X67723809Y-46953356D02*
X67761904Y-46934308D01*
X67761904Y-46934308D02*
X67838095Y-46934308D01*
X67838095Y-46934308D02*
X67876190Y-46953356D01*
X67876190Y-46953356D02*
X67895237Y-46972403D01*
X67895237Y-46972403D02*
X67914285Y-47010499D01*
D10*
X9261904Y-18904819D02*
X8690476Y-18904819D01*
X8976190Y-19904819D02*
X8976190Y-18904819D01*
X8357142Y-19904819D02*
X8357142Y-18904819D01*
X8357142Y-18904819D02*
X7976190Y-18904819D01*
X7976190Y-18904819D02*
X7880952Y-18952438D01*
X7880952Y-18952438D02*
X7833333Y-19000057D01*
X7833333Y-19000057D02*
X7785714Y-19095295D01*
X7785714Y-19095295D02*
X7785714Y-19238152D01*
X7785714Y-19238152D02*
X7833333Y-19333390D01*
X7833333Y-19333390D02*
X7880952Y-19381009D01*
X7880952Y-19381009D02*
X7976190Y-19428628D01*
X7976190Y-19428628D02*
X8357142Y-19428628D01*
X7452380Y-18904819D02*
X6833333Y-18904819D01*
X6833333Y-18904819D02*
X7166666Y-19285771D01*
X7166666Y-19285771D02*
X7023809Y-19285771D01*
X7023809Y-19285771D02*
X6928571Y-19333390D01*
X6928571Y-19333390D02*
X6880952Y-19381009D01*
X6880952Y-19381009D02*
X6833333Y-19476247D01*
X6833333Y-19476247D02*
X6833333Y-19714342D01*
X6833333Y-19714342D02*
X6880952Y-19809580D01*
X6880952Y-19809580D02*
X6928571Y-19857200D01*
X6928571Y-19857200D02*
X7023809Y-19904819D01*
X7023809Y-19904819D02*
X7309523Y-19904819D01*
X7309523Y-19904819D02*
X7404761Y-19857200D01*
X7404761Y-19857200D02*
X7452380Y-19809580D01*
X9261904Y-43904819D02*
X8690476Y-43904819D01*
X8976190Y-44904819D02*
X8976190Y-43904819D01*
X8357142Y-44904819D02*
X8357142Y-43904819D01*
X8357142Y-43904819D02*
X7976190Y-43904819D01*
X7976190Y-43904819D02*
X7880952Y-43952438D01*
X7880952Y-43952438D02*
X7833333Y-44000057D01*
X7833333Y-44000057D02*
X7785714Y-44095295D01*
X7785714Y-44095295D02*
X7785714Y-44238152D01*
X7785714Y-44238152D02*
X7833333Y-44333390D01*
X7833333Y-44333390D02*
X7880952Y-44381009D01*
X7880952Y-44381009D02*
X7976190Y-44428628D01*
X7976190Y-44428628D02*
X8357142Y-44428628D01*
X7214285Y-44333390D02*
X7309523Y-44285771D01*
X7309523Y-44285771D02*
X7357142Y-44238152D01*
X7357142Y-44238152D02*
X7404761Y-44142914D01*
X7404761Y-44142914D02*
X7404761Y-44095295D01*
X7404761Y-44095295D02*
X7357142Y-44000057D01*
X7357142Y-44000057D02*
X7309523Y-43952438D01*
X7309523Y-43952438D02*
X7214285Y-43904819D01*
X7214285Y-43904819D02*
X7023809Y-43904819D01*
X7023809Y-43904819D02*
X6928571Y-43952438D01*
X6928571Y-43952438D02*
X6880952Y-44000057D01*
X6880952Y-44000057D02*
X6833333Y-44095295D01*
X6833333Y-44095295D02*
X6833333Y-44142914D01*
X6833333Y-44142914D02*
X6880952Y-44238152D01*
X6880952Y-44238152D02*
X6928571Y-44285771D01*
X6928571Y-44285771D02*
X7023809Y-44333390D01*
X7023809Y-44333390D02*
X7214285Y-44333390D01*
X7214285Y-44333390D02*
X7309523Y-44381009D01*
X7309523Y-44381009D02*
X7357142Y-44428628D01*
X7357142Y-44428628D02*
X7404761Y-44523866D01*
X7404761Y-44523866D02*
X7404761Y-44714342D01*
X7404761Y-44714342D02*
X7357142Y-44809580D01*
X7357142Y-44809580D02*
X7309523Y-44857200D01*
X7309523Y-44857200D02*
X7214285Y-44904819D01*
X7214285Y-44904819D02*
X7023809Y-44904819D01*
X7023809Y-44904819D02*
X6928571Y-44857200D01*
X6928571Y-44857200D02*
X6880952Y-44809580D01*
X6880952Y-44809580D02*
X6833333Y-44714342D01*
X6833333Y-44714342D02*
X6833333Y-44523866D01*
X6833333Y-44523866D02*
X6880952Y-44428628D01*
X6880952Y-44428628D02*
X6928571Y-44381009D01*
X6928571Y-44381009D02*
X7023809Y-44333390D01*
D11*
X52066666Y-44143832D02*
X52085714Y-44162880D01*
X52085714Y-44162880D02*
X52142856Y-44181927D01*
X52142856Y-44181927D02*
X52180952Y-44181927D01*
X52180952Y-44181927D02*
X52238095Y-44162880D01*
X52238095Y-44162880D02*
X52276190Y-44124784D01*
X52276190Y-44124784D02*
X52295237Y-44086689D01*
X52295237Y-44086689D02*
X52314285Y-44010499D01*
X52314285Y-44010499D02*
X52314285Y-43953356D01*
X52314285Y-43953356D02*
X52295237Y-43877165D01*
X52295237Y-43877165D02*
X52276190Y-43839070D01*
X52276190Y-43839070D02*
X52238095Y-43800975D01*
X52238095Y-43800975D02*
X52180952Y-43781927D01*
X52180952Y-43781927D02*
X52142856Y-43781927D01*
X52142856Y-43781927D02*
X52085714Y-43800975D01*
X52085714Y-43800975D02*
X52066666Y-43820022D01*
X51914285Y-43820022D02*
X51895237Y-43800975D01*
X51895237Y-43800975D02*
X51857142Y-43781927D01*
X51857142Y-43781927D02*
X51761904Y-43781927D01*
X51761904Y-43781927D02*
X51723809Y-43800975D01*
X51723809Y-43800975D02*
X51704761Y-43820022D01*
X51704761Y-43820022D02*
X51685714Y-43858118D01*
X51685714Y-43858118D02*
X51685714Y-43896213D01*
X51685714Y-43896213D02*
X51704761Y-43953356D01*
X51704761Y-43953356D02*
X51933333Y-44181927D01*
X51933333Y-44181927D02*
X51685714Y-44181927D01*
X52066666Y-23143832D02*
X52085714Y-23162880D01*
X52085714Y-23162880D02*
X52142856Y-23181927D01*
X52142856Y-23181927D02*
X52180952Y-23181927D01*
X52180952Y-23181927D02*
X52238095Y-23162880D01*
X52238095Y-23162880D02*
X52276190Y-23124784D01*
X52276190Y-23124784D02*
X52295237Y-23086689D01*
X52295237Y-23086689D02*
X52314285Y-23010499D01*
X52314285Y-23010499D02*
X52314285Y-22953356D01*
X52314285Y-22953356D02*
X52295237Y-22877165D01*
X52295237Y-22877165D02*
X52276190Y-22839070D01*
X52276190Y-22839070D02*
X52238095Y-22800975D01*
X52238095Y-22800975D02*
X52180952Y-22781927D01*
X52180952Y-22781927D02*
X52142856Y-22781927D01*
X52142856Y-22781927D02*
X52085714Y-22800975D01*
X52085714Y-22800975D02*
X52066666Y-22820022D01*
X51723809Y-22915260D02*
X51723809Y-23181927D01*
X51819047Y-22762880D02*
X51914285Y-23048594D01*
X51914285Y-23048594D02*
X51666666Y-23048594D01*
X72066666Y-62181927D02*
X72199999Y-61991451D01*
X72295237Y-62181927D02*
X72295237Y-61781927D01*
X72295237Y-61781927D02*
X72142856Y-61781927D01*
X72142856Y-61781927D02*
X72104761Y-61800975D01*
X72104761Y-61800975D02*
X72085714Y-61820022D01*
X72085714Y-61820022D02*
X72066666Y-61858118D01*
X72066666Y-61858118D02*
X72066666Y-61915260D01*
X72066666Y-61915260D02*
X72085714Y-61953356D01*
X72085714Y-61953356D02*
X72104761Y-61972403D01*
X72104761Y-61972403D02*
X72142856Y-61991451D01*
X72142856Y-61991451D02*
X72295237Y-61991451D01*
X71723809Y-61915260D02*
X71723809Y-62181927D01*
X71819047Y-61762880D02*
X71914285Y-62048594D01*
X71914285Y-62048594D02*
X71666666Y-62048594D01*
D10*
X37761904Y-61954819D02*
X37761904Y-62764342D01*
X37761904Y-62764342D02*
X37714285Y-62859580D01*
X37714285Y-62859580D02*
X37666666Y-62907200D01*
X37666666Y-62907200D02*
X37571428Y-62954819D01*
X37571428Y-62954819D02*
X37380952Y-62954819D01*
X37380952Y-62954819D02*
X37285714Y-62907200D01*
X37285714Y-62907200D02*
X37238095Y-62859580D01*
X37238095Y-62859580D02*
X37190476Y-62764342D01*
X37190476Y-62764342D02*
X37190476Y-61954819D01*
X36238095Y-61954819D02*
X36714285Y-61954819D01*
X36714285Y-61954819D02*
X36761904Y-62431009D01*
X36761904Y-62431009D02*
X36714285Y-62383390D01*
X36714285Y-62383390D02*
X36619047Y-62335771D01*
X36619047Y-62335771D02*
X36380952Y-62335771D01*
X36380952Y-62335771D02*
X36285714Y-62383390D01*
X36285714Y-62383390D02*
X36238095Y-62431009D01*
X36238095Y-62431009D02*
X36190476Y-62526247D01*
X36190476Y-62526247D02*
X36190476Y-62764342D01*
X36190476Y-62764342D02*
X36238095Y-62859580D01*
X36238095Y-62859580D02*
X36285714Y-62907200D01*
X36285714Y-62907200D02*
X36380952Y-62954819D01*
X36380952Y-62954819D02*
X36619047Y-62954819D01*
X36619047Y-62954819D02*
X36714285Y-62907200D01*
X36714285Y-62907200D02*
X36761904Y-62859580D01*
D11*
X41257142Y-31143832D02*
X41276190Y-31162880D01*
X41276190Y-31162880D02*
X41333332Y-31181927D01*
X41333332Y-31181927D02*
X41371428Y-31181927D01*
X41371428Y-31181927D02*
X41428571Y-31162880D01*
X41428571Y-31162880D02*
X41466666Y-31124784D01*
X41466666Y-31124784D02*
X41485713Y-31086689D01*
X41485713Y-31086689D02*
X41504761Y-31010499D01*
X41504761Y-31010499D02*
X41504761Y-30953356D01*
X41504761Y-30953356D02*
X41485713Y-30877165D01*
X41485713Y-30877165D02*
X41466666Y-30839070D01*
X41466666Y-30839070D02*
X41428571Y-30800975D01*
X41428571Y-30800975D02*
X41371428Y-30781927D01*
X41371428Y-30781927D02*
X41333332Y-30781927D01*
X41333332Y-30781927D02*
X41276190Y-30800975D01*
X41276190Y-30800975D02*
X41257142Y-30820022D01*
X40876190Y-31181927D02*
X41104761Y-31181927D01*
X40990475Y-31181927D02*
X40990475Y-30781927D01*
X40990475Y-30781927D02*
X41028571Y-30839070D01*
X41028571Y-30839070D02*
X41066666Y-30877165D01*
X41066666Y-30877165D02*
X41104761Y-30896213D01*
X40514285Y-30781927D02*
X40704761Y-30781927D01*
X40704761Y-30781927D02*
X40723809Y-30972403D01*
X40723809Y-30972403D02*
X40704761Y-30953356D01*
X40704761Y-30953356D02*
X40666666Y-30934308D01*
X40666666Y-30934308D02*
X40571428Y-30934308D01*
X40571428Y-30934308D02*
X40533333Y-30953356D01*
X40533333Y-30953356D02*
X40514285Y-30972403D01*
X40514285Y-30972403D02*
X40495238Y-31010499D01*
X40495238Y-31010499D02*
X40495238Y-31105737D01*
X40495238Y-31105737D02*
X40514285Y-31143832D01*
X40514285Y-31143832D02*
X40533333Y-31162880D01*
X40533333Y-31162880D02*
X40571428Y-31181927D01*
X40571428Y-31181927D02*
X40666666Y-31181927D01*
X40666666Y-31181927D02*
X40704761Y-31162880D01*
X40704761Y-31162880D02*
X40723809Y-31143832D01*
X40066666Y-23143832D02*
X40085714Y-23162880D01*
X40085714Y-23162880D02*
X40142856Y-23181927D01*
X40142856Y-23181927D02*
X40180952Y-23181927D01*
X40180952Y-23181927D02*
X40238095Y-23162880D01*
X40238095Y-23162880D02*
X40276190Y-23124784D01*
X40276190Y-23124784D02*
X40295237Y-23086689D01*
X40295237Y-23086689D02*
X40314285Y-23010499D01*
X40314285Y-23010499D02*
X40314285Y-22953356D01*
X40314285Y-22953356D02*
X40295237Y-22877165D01*
X40295237Y-22877165D02*
X40276190Y-22839070D01*
X40276190Y-22839070D02*
X40238095Y-22800975D01*
X40238095Y-22800975D02*
X40180952Y-22781927D01*
X40180952Y-22781927D02*
X40142856Y-22781927D01*
X40142856Y-22781927D02*
X40085714Y-22800975D01*
X40085714Y-22800975D02*
X40066666Y-22820022D01*
X39933333Y-22781927D02*
X39685714Y-22781927D01*
X39685714Y-22781927D02*
X39819047Y-22934308D01*
X39819047Y-22934308D02*
X39761904Y-22934308D01*
X39761904Y-22934308D02*
X39723809Y-22953356D01*
X39723809Y-22953356D02*
X39704761Y-22972403D01*
X39704761Y-22972403D02*
X39685714Y-23010499D01*
X39685714Y-23010499D02*
X39685714Y-23105737D01*
X39685714Y-23105737D02*
X39704761Y-23143832D01*
X39704761Y-23143832D02*
X39723809Y-23162880D01*
X39723809Y-23162880D02*
X39761904Y-23181927D01*
X39761904Y-23181927D02*
X39876190Y-23181927D01*
X39876190Y-23181927D02*
X39914285Y-23162880D01*
X39914285Y-23162880D02*
X39933333Y-23143832D01*
X43066666Y-56181927D02*
X43199999Y-55991451D01*
X43295237Y-56181927D02*
X43295237Y-55781927D01*
X43295237Y-55781927D02*
X43142856Y-55781927D01*
X43142856Y-55781927D02*
X43104761Y-55800975D01*
X43104761Y-55800975D02*
X43085714Y-55820022D01*
X43085714Y-55820022D02*
X43066666Y-55858118D01*
X43066666Y-55858118D02*
X43066666Y-55915260D01*
X43066666Y-55915260D02*
X43085714Y-55953356D01*
X43085714Y-55953356D02*
X43104761Y-55972403D01*
X43104761Y-55972403D02*
X43142856Y-55991451D01*
X43142856Y-55991451D02*
X43295237Y-55991451D01*
X42914285Y-55820022D02*
X42895237Y-55800975D01*
X42895237Y-55800975D02*
X42857142Y-55781927D01*
X42857142Y-55781927D02*
X42761904Y-55781927D01*
X42761904Y-55781927D02*
X42723809Y-55800975D01*
X42723809Y-55800975D02*
X42704761Y-55820022D01*
X42704761Y-55820022D02*
X42685714Y-55858118D01*
X42685714Y-55858118D02*
X42685714Y-55896213D01*
X42685714Y-55896213D02*
X42704761Y-55953356D01*
X42704761Y-55953356D02*
X42933333Y-56181927D01*
X42933333Y-56181927D02*
X42685714Y-56181927D01*
X61066666Y-56143832D02*
X61085714Y-56162880D01*
X61085714Y-56162880D02*
X61142856Y-56181927D01*
X61142856Y-56181927D02*
X61180952Y-56181927D01*
X61180952Y-56181927D02*
X61238095Y-56162880D01*
X61238095Y-56162880D02*
X61276190Y-56124784D01*
X61276190Y-56124784D02*
X61295237Y-56086689D01*
X61295237Y-56086689D02*
X61314285Y-56010499D01*
X61314285Y-56010499D02*
X61314285Y-55953356D01*
X61314285Y-55953356D02*
X61295237Y-55877165D01*
X61295237Y-55877165D02*
X61276190Y-55839070D01*
X61276190Y-55839070D02*
X61238095Y-55800975D01*
X61238095Y-55800975D02*
X61180952Y-55781927D01*
X61180952Y-55781927D02*
X61142856Y-55781927D01*
X61142856Y-55781927D02*
X61085714Y-55800975D01*
X61085714Y-55800975D02*
X61066666Y-55820022D01*
X60838095Y-55953356D02*
X60876190Y-55934308D01*
X60876190Y-55934308D02*
X60895237Y-55915260D01*
X60895237Y-55915260D02*
X60914285Y-55877165D01*
X60914285Y-55877165D02*
X60914285Y-55858118D01*
X60914285Y-55858118D02*
X60895237Y-55820022D01*
X60895237Y-55820022D02*
X60876190Y-55800975D01*
X60876190Y-55800975D02*
X60838095Y-55781927D01*
X60838095Y-55781927D02*
X60761904Y-55781927D01*
X60761904Y-55781927D02*
X60723809Y-55800975D01*
X60723809Y-55800975D02*
X60704761Y-55820022D01*
X60704761Y-55820022D02*
X60685714Y-55858118D01*
X60685714Y-55858118D02*
X60685714Y-55877165D01*
X60685714Y-55877165D02*
X60704761Y-55915260D01*
X60704761Y-55915260D02*
X60723809Y-55934308D01*
X60723809Y-55934308D02*
X60761904Y-55953356D01*
X60761904Y-55953356D02*
X60838095Y-55953356D01*
X60838095Y-55953356D02*
X60876190Y-55972403D01*
X60876190Y-55972403D02*
X60895237Y-55991451D01*
X60895237Y-55991451D02*
X60914285Y-56029546D01*
X60914285Y-56029546D02*
X60914285Y-56105737D01*
X60914285Y-56105737D02*
X60895237Y-56143832D01*
X60895237Y-56143832D02*
X60876190Y-56162880D01*
X60876190Y-56162880D02*
X60838095Y-56181927D01*
X60838095Y-56181927D02*
X60761904Y-56181927D01*
X60761904Y-56181927D02*
X60723809Y-56162880D01*
X60723809Y-56162880D02*
X60704761Y-56143832D01*
X60704761Y-56143832D02*
X60685714Y-56105737D01*
X60685714Y-56105737D02*
X60685714Y-56029546D01*
X60685714Y-56029546D02*
X60704761Y-55991451D01*
X60704761Y-55991451D02*
X60723809Y-55972403D01*
X60723809Y-55972403D02*
X60761904Y-55953356D01*
X69257142Y-56143832D02*
X69276190Y-56162880D01*
X69276190Y-56162880D02*
X69333332Y-56181927D01*
X69333332Y-56181927D02*
X69371428Y-56181927D01*
X69371428Y-56181927D02*
X69428571Y-56162880D01*
X69428571Y-56162880D02*
X69466666Y-56124784D01*
X69466666Y-56124784D02*
X69485713Y-56086689D01*
X69485713Y-56086689D02*
X69504761Y-56010499D01*
X69504761Y-56010499D02*
X69504761Y-55953356D01*
X69504761Y-55953356D02*
X69485713Y-55877165D01*
X69485713Y-55877165D02*
X69466666Y-55839070D01*
X69466666Y-55839070D02*
X69428571Y-55800975D01*
X69428571Y-55800975D02*
X69371428Y-55781927D01*
X69371428Y-55781927D02*
X69333332Y-55781927D01*
X69333332Y-55781927D02*
X69276190Y-55800975D01*
X69276190Y-55800975D02*
X69257142Y-55820022D01*
X68876190Y-56181927D02*
X69104761Y-56181927D01*
X68990475Y-56181927D02*
X68990475Y-55781927D01*
X68990475Y-55781927D02*
X69028571Y-55839070D01*
X69028571Y-55839070D02*
X69066666Y-55877165D01*
X69066666Y-55877165D02*
X69104761Y-55896213D01*
X68495238Y-56181927D02*
X68723809Y-56181927D01*
X68609523Y-56181927D02*
X68609523Y-55781927D01*
X68609523Y-55781927D02*
X68647619Y-55839070D01*
X68647619Y-55839070D02*
X68685714Y-55877165D01*
X68685714Y-55877165D02*
X68723809Y-55896213D01*
X61257142Y-36143832D02*
X61276190Y-36162880D01*
X61276190Y-36162880D02*
X61333332Y-36181927D01*
X61333332Y-36181927D02*
X61371428Y-36181927D01*
X61371428Y-36181927D02*
X61428571Y-36162880D01*
X61428571Y-36162880D02*
X61466666Y-36124784D01*
X61466666Y-36124784D02*
X61485713Y-36086689D01*
X61485713Y-36086689D02*
X61504761Y-36010499D01*
X61504761Y-36010499D02*
X61504761Y-35953356D01*
X61504761Y-35953356D02*
X61485713Y-35877165D01*
X61485713Y-35877165D02*
X61466666Y-35839070D01*
X61466666Y-35839070D02*
X61428571Y-35800975D01*
X61428571Y-35800975D02*
X61371428Y-35781927D01*
X61371428Y-35781927D02*
X61333332Y-35781927D01*
X61333332Y-35781927D02*
X61276190Y-35800975D01*
X61276190Y-35800975D02*
X61257142Y-35820022D01*
X60876190Y-36181927D02*
X61104761Y-36181927D01*
X60990475Y-36181927D02*
X60990475Y-35781927D01*
X60990475Y-35781927D02*
X61028571Y-35839070D01*
X61028571Y-35839070D02*
X61066666Y-35877165D01*
X61066666Y-35877165D02*
X61104761Y-35896213D01*
X60628571Y-35781927D02*
X60590476Y-35781927D01*
X60590476Y-35781927D02*
X60552380Y-35800975D01*
X60552380Y-35800975D02*
X60533333Y-35820022D01*
X60533333Y-35820022D02*
X60514285Y-35858118D01*
X60514285Y-35858118D02*
X60495238Y-35934308D01*
X60495238Y-35934308D02*
X60495238Y-36029546D01*
X60495238Y-36029546D02*
X60514285Y-36105737D01*
X60514285Y-36105737D02*
X60533333Y-36143832D01*
X60533333Y-36143832D02*
X60552380Y-36162880D01*
X60552380Y-36162880D02*
X60590476Y-36181927D01*
X60590476Y-36181927D02*
X60628571Y-36181927D01*
X60628571Y-36181927D02*
X60666666Y-36162880D01*
X60666666Y-36162880D02*
X60685714Y-36143832D01*
X60685714Y-36143832D02*
X60704761Y-36105737D01*
X60704761Y-36105737D02*
X60723809Y-36029546D01*
X60723809Y-36029546D02*
X60723809Y-35934308D01*
X60723809Y-35934308D02*
X60704761Y-35858118D01*
X60704761Y-35858118D02*
X60685714Y-35820022D01*
X60685714Y-35820022D02*
X60666666Y-35800975D01*
X60666666Y-35800975D02*
X60628571Y-35781927D01*
D10*
X16738094Y-55904819D02*
X16166666Y-55904819D01*
X16452380Y-56904819D02*
X16452380Y-55904819D01*
X15833332Y-56904819D02*
X15833332Y-55904819D01*
X15833332Y-55904819D02*
X15452380Y-55904819D01*
X15452380Y-55904819D02*
X15357142Y-55952438D01*
X15357142Y-55952438D02*
X15309523Y-56000057D01*
X15309523Y-56000057D02*
X15261904Y-56095295D01*
X15261904Y-56095295D02*
X15261904Y-56238152D01*
X15261904Y-56238152D02*
X15309523Y-56333390D01*
X15309523Y-56333390D02*
X15357142Y-56381009D01*
X15357142Y-56381009D02*
X15452380Y-56428628D01*
X15452380Y-56428628D02*
X15833332Y-56428628D01*
X14309523Y-56904819D02*
X14880951Y-56904819D01*
X14595237Y-56904819D02*
X14595237Y-55904819D01*
X14595237Y-55904819D02*
X14690475Y-56047676D01*
X14690475Y-56047676D02*
X14785713Y-56142914D01*
X14785713Y-56142914D02*
X14880951Y-56190533D01*
X13928570Y-56000057D02*
X13880951Y-55952438D01*
X13880951Y-55952438D02*
X13785713Y-55904819D01*
X13785713Y-55904819D02*
X13547618Y-55904819D01*
X13547618Y-55904819D02*
X13452380Y-55952438D01*
X13452380Y-55952438D02*
X13404761Y-56000057D01*
X13404761Y-56000057D02*
X13357142Y-56095295D01*
X13357142Y-56095295D02*
X13357142Y-56190533D01*
X13357142Y-56190533D02*
X13404761Y-56333390D01*
X13404761Y-56333390D02*
X13976189Y-56904819D01*
X13976189Y-56904819D02*
X13357142Y-56904819D01*
X88333332Y-57407200D02*
X88190475Y-57454819D01*
X88190475Y-57454819D02*
X87952380Y-57454819D01*
X87952380Y-57454819D02*
X87857142Y-57407200D01*
X87857142Y-57407200D02*
X87809523Y-57359580D01*
X87809523Y-57359580D02*
X87761904Y-57264342D01*
X87761904Y-57264342D02*
X87761904Y-57169104D01*
X87761904Y-57169104D02*
X87809523Y-57073866D01*
X87809523Y-57073866D02*
X87857142Y-57026247D01*
X87857142Y-57026247D02*
X87952380Y-56978628D01*
X87952380Y-56978628D02*
X88142856Y-56931009D01*
X88142856Y-56931009D02*
X88238094Y-56883390D01*
X88238094Y-56883390D02*
X88285713Y-56835771D01*
X88285713Y-56835771D02*
X88333332Y-56740533D01*
X88333332Y-56740533D02*
X88333332Y-56645295D01*
X88333332Y-56645295D02*
X88285713Y-56550057D01*
X88285713Y-56550057D02*
X88238094Y-56502438D01*
X88238094Y-56502438D02*
X88142856Y-56454819D01*
X88142856Y-56454819D02*
X87904761Y-56454819D01*
X87904761Y-56454819D02*
X87761904Y-56502438D01*
X87428570Y-56454819D02*
X87190475Y-57454819D01*
X87190475Y-57454819D02*
X86999999Y-56740533D01*
X86999999Y-56740533D02*
X86809523Y-57454819D01*
X86809523Y-57454819D02*
X86571428Y-56454819D01*
X86238094Y-56550057D02*
X86190475Y-56502438D01*
X86190475Y-56502438D02*
X86095237Y-56454819D01*
X86095237Y-56454819D02*
X85857142Y-56454819D01*
X85857142Y-56454819D02*
X85761904Y-56502438D01*
X85761904Y-56502438D02*
X85714285Y-56550057D01*
X85714285Y-56550057D02*
X85666666Y-56645295D01*
X85666666Y-56645295D02*
X85666666Y-56740533D01*
X85666666Y-56740533D02*
X85714285Y-56883390D01*
X85714285Y-56883390D02*
X86285713Y-57454819D01*
X86285713Y-57454819D02*
X85666666Y-57454819D01*
D11*
X62066666Y-31181927D02*
X62199999Y-30991451D01*
X62295237Y-31181927D02*
X62295237Y-30781927D01*
X62295237Y-30781927D02*
X62142856Y-30781927D01*
X62142856Y-30781927D02*
X62104761Y-30800975D01*
X62104761Y-30800975D02*
X62085714Y-30820022D01*
X62085714Y-30820022D02*
X62066666Y-30858118D01*
X62066666Y-30858118D02*
X62066666Y-30915260D01*
X62066666Y-30915260D02*
X62085714Y-30953356D01*
X62085714Y-30953356D02*
X62104761Y-30972403D01*
X62104761Y-30972403D02*
X62142856Y-30991451D01*
X62142856Y-30991451D02*
X62295237Y-30991451D01*
X61838095Y-30953356D02*
X61876190Y-30934308D01*
X61876190Y-30934308D02*
X61895237Y-30915260D01*
X61895237Y-30915260D02*
X61914285Y-30877165D01*
X61914285Y-30877165D02*
X61914285Y-30858118D01*
X61914285Y-30858118D02*
X61895237Y-30820022D01*
X61895237Y-30820022D02*
X61876190Y-30800975D01*
X61876190Y-30800975D02*
X61838095Y-30781927D01*
X61838095Y-30781927D02*
X61761904Y-30781927D01*
X61761904Y-30781927D02*
X61723809Y-30800975D01*
X61723809Y-30800975D02*
X61704761Y-30820022D01*
X61704761Y-30820022D02*
X61685714Y-30858118D01*
X61685714Y-30858118D02*
X61685714Y-30877165D01*
X61685714Y-30877165D02*
X61704761Y-30915260D01*
X61704761Y-30915260D02*
X61723809Y-30934308D01*
X61723809Y-30934308D02*
X61761904Y-30953356D01*
X61761904Y-30953356D02*
X61838095Y-30953356D01*
X61838095Y-30953356D02*
X61876190Y-30972403D01*
X61876190Y-30972403D02*
X61895237Y-30991451D01*
X61895237Y-30991451D02*
X61914285Y-31029546D01*
X61914285Y-31029546D02*
X61914285Y-31105737D01*
X61914285Y-31105737D02*
X61895237Y-31143832D01*
X61895237Y-31143832D02*
X61876190Y-31162880D01*
X61876190Y-31162880D02*
X61838095Y-31181927D01*
X61838095Y-31181927D02*
X61761904Y-31181927D01*
X61761904Y-31181927D02*
X61723809Y-31162880D01*
X61723809Y-31162880D02*
X61704761Y-31143832D01*
X61704761Y-31143832D02*
X61685714Y-31105737D01*
X61685714Y-31105737D02*
X61685714Y-31029546D01*
X61685714Y-31029546D02*
X61704761Y-30991451D01*
X61704761Y-30991451D02*
X61723809Y-30972403D01*
X61723809Y-30972403D02*
X61761904Y-30953356D01*
D12*
X64607365Y-50451428D02*
X65190222Y-50451428D01*
X65190222Y-50451428D02*
X65258794Y-50485714D01*
X65258794Y-50485714D02*
X65293080Y-50520000D01*
X65293080Y-50520000D02*
X65327365Y-50588571D01*
X65327365Y-50588571D02*
X65327365Y-50725714D01*
X65327365Y-50725714D02*
X65293080Y-50794285D01*
X65293080Y-50794285D02*
X65258794Y-50828571D01*
X65258794Y-50828571D02*
X65190222Y-50862857D01*
X65190222Y-50862857D02*
X64607365Y-50862857D01*
X64847365Y-51514286D02*
X65327365Y-51514286D01*
X64573080Y-51342857D02*
X65087365Y-51171428D01*
X65087365Y-51171428D02*
X65087365Y-51617143D01*
D11*
X35066666Y-58143832D02*
X35085714Y-58162880D01*
X35085714Y-58162880D02*
X35142856Y-58181927D01*
X35142856Y-58181927D02*
X35180952Y-58181927D01*
X35180952Y-58181927D02*
X35238095Y-58162880D01*
X35238095Y-58162880D02*
X35276190Y-58124784D01*
X35276190Y-58124784D02*
X35295237Y-58086689D01*
X35295237Y-58086689D02*
X35314285Y-58010499D01*
X35314285Y-58010499D02*
X35314285Y-57953356D01*
X35314285Y-57953356D02*
X35295237Y-57877165D01*
X35295237Y-57877165D02*
X35276190Y-57839070D01*
X35276190Y-57839070D02*
X35238095Y-57800975D01*
X35238095Y-57800975D02*
X35180952Y-57781927D01*
X35180952Y-57781927D02*
X35142856Y-57781927D01*
X35142856Y-57781927D02*
X35085714Y-57800975D01*
X35085714Y-57800975D02*
X35066666Y-57820022D01*
X34933333Y-57781927D02*
X34666666Y-57781927D01*
X34666666Y-57781927D02*
X34838095Y-58181927D01*
D10*
X79333332Y-57407200D02*
X79190475Y-57454819D01*
X79190475Y-57454819D02*
X78952380Y-57454819D01*
X78952380Y-57454819D02*
X78857142Y-57407200D01*
X78857142Y-57407200D02*
X78809523Y-57359580D01*
X78809523Y-57359580D02*
X78761904Y-57264342D01*
X78761904Y-57264342D02*
X78761904Y-57169104D01*
X78761904Y-57169104D02*
X78809523Y-57073866D01*
X78809523Y-57073866D02*
X78857142Y-57026247D01*
X78857142Y-57026247D02*
X78952380Y-56978628D01*
X78952380Y-56978628D02*
X79142856Y-56931009D01*
X79142856Y-56931009D02*
X79238094Y-56883390D01*
X79238094Y-56883390D02*
X79285713Y-56835771D01*
X79285713Y-56835771D02*
X79333332Y-56740533D01*
X79333332Y-56740533D02*
X79333332Y-56645295D01*
X79333332Y-56645295D02*
X79285713Y-56550057D01*
X79285713Y-56550057D02*
X79238094Y-56502438D01*
X79238094Y-56502438D02*
X79142856Y-56454819D01*
X79142856Y-56454819D02*
X78904761Y-56454819D01*
X78904761Y-56454819D02*
X78761904Y-56502438D01*
X78428570Y-56454819D02*
X78190475Y-57454819D01*
X78190475Y-57454819D02*
X77999999Y-56740533D01*
X77999999Y-56740533D02*
X77809523Y-57454819D01*
X77809523Y-57454819D02*
X77571428Y-56454819D01*
X76666666Y-57454819D02*
X77238094Y-57454819D01*
X76952380Y-57454819D02*
X76952380Y-56454819D01*
X76952380Y-56454819D02*
X77047618Y-56597676D01*
X77047618Y-56597676D02*
X77142856Y-56692914D01*
X77142856Y-56692914D02*
X77238094Y-56740533D01*
D11*
X40066666Y-44143832D02*
X40085714Y-44162880D01*
X40085714Y-44162880D02*
X40142856Y-44181927D01*
X40142856Y-44181927D02*
X40180952Y-44181927D01*
X40180952Y-44181927D02*
X40238095Y-44162880D01*
X40238095Y-44162880D02*
X40276190Y-44124784D01*
X40276190Y-44124784D02*
X40295237Y-44086689D01*
X40295237Y-44086689D02*
X40314285Y-44010499D01*
X40314285Y-44010499D02*
X40314285Y-43953356D01*
X40314285Y-43953356D02*
X40295237Y-43877165D01*
X40295237Y-43877165D02*
X40276190Y-43839070D01*
X40276190Y-43839070D02*
X40238095Y-43800975D01*
X40238095Y-43800975D02*
X40180952Y-43781927D01*
X40180952Y-43781927D02*
X40142856Y-43781927D01*
X40142856Y-43781927D02*
X40085714Y-43800975D01*
X40085714Y-43800975D02*
X40066666Y-43820022D01*
X39685714Y-44181927D02*
X39914285Y-44181927D01*
X39799999Y-44181927D02*
X39799999Y-43781927D01*
X39799999Y-43781927D02*
X39838095Y-43839070D01*
X39838095Y-43839070D02*
X39876190Y-43877165D01*
X39876190Y-43877165D02*
X39914285Y-43896213D01*
X32257142Y-38143832D02*
X32276190Y-38162880D01*
X32276190Y-38162880D02*
X32333332Y-38181927D01*
X32333332Y-38181927D02*
X32371428Y-38181927D01*
X32371428Y-38181927D02*
X32428571Y-38162880D01*
X32428571Y-38162880D02*
X32466666Y-38124784D01*
X32466666Y-38124784D02*
X32485713Y-38086689D01*
X32485713Y-38086689D02*
X32504761Y-38010499D01*
X32504761Y-38010499D02*
X32504761Y-37953356D01*
X32504761Y-37953356D02*
X32485713Y-37877165D01*
X32485713Y-37877165D02*
X32466666Y-37839070D01*
X32466666Y-37839070D02*
X32428571Y-37800975D01*
X32428571Y-37800975D02*
X32371428Y-37781927D01*
X32371428Y-37781927D02*
X32333332Y-37781927D01*
X32333332Y-37781927D02*
X32276190Y-37800975D01*
X32276190Y-37800975D02*
X32257142Y-37820022D01*
X31876190Y-38181927D02*
X32104761Y-38181927D01*
X31990475Y-38181927D02*
X31990475Y-37781927D01*
X31990475Y-37781927D02*
X32028571Y-37839070D01*
X32028571Y-37839070D02*
X32066666Y-37877165D01*
X32066666Y-37877165D02*
X32104761Y-37896213D01*
X31533333Y-37915260D02*
X31533333Y-38181927D01*
X31628571Y-37762880D02*
X31723809Y-38048594D01*
X31723809Y-38048594D02*
X31476190Y-38048594D01*
D10*
X25454819Y-49238095D02*
X26264342Y-49238095D01*
X26264342Y-49238095D02*
X26359580Y-49285714D01*
X26359580Y-49285714D02*
X26407200Y-49333333D01*
X26407200Y-49333333D02*
X26454819Y-49428571D01*
X26454819Y-49428571D02*
X26454819Y-49619047D01*
X26454819Y-49619047D02*
X26407200Y-49714285D01*
X26407200Y-49714285D02*
X26359580Y-49761904D01*
X26359580Y-49761904D02*
X26264342Y-49809523D01*
X26264342Y-49809523D02*
X25454819Y-49809523D01*
X25454819Y-50190476D02*
X25454819Y-50809523D01*
X25454819Y-50809523D02*
X25835771Y-50476190D01*
X25835771Y-50476190D02*
X25835771Y-50619047D01*
X25835771Y-50619047D02*
X25883390Y-50714285D01*
X25883390Y-50714285D02*
X25931009Y-50761904D01*
X25931009Y-50761904D02*
X26026247Y-50809523D01*
X26026247Y-50809523D02*
X26264342Y-50809523D01*
X26264342Y-50809523D02*
X26359580Y-50761904D01*
X26359580Y-50761904D02*
X26407200Y-50714285D01*
X26407200Y-50714285D02*
X26454819Y-50619047D01*
X26454819Y-50619047D02*
X26454819Y-50333333D01*
X26454819Y-50333333D02*
X26407200Y-50238095D01*
X26407200Y-50238095D02*
X26359580Y-50190476D01*
X9261904Y-23904819D02*
X8690476Y-23904819D01*
X8976190Y-24904819D02*
X8976190Y-23904819D01*
X8357142Y-24904819D02*
X8357142Y-23904819D01*
X8357142Y-23904819D02*
X7976190Y-23904819D01*
X7976190Y-23904819D02*
X7880952Y-23952438D01*
X7880952Y-23952438D02*
X7833333Y-24000057D01*
X7833333Y-24000057D02*
X7785714Y-24095295D01*
X7785714Y-24095295D02*
X7785714Y-24238152D01*
X7785714Y-24238152D02*
X7833333Y-24333390D01*
X7833333Y-24333390D02*
X7880952Y-24381009D01*
X7880952Y-24381009D02*
X7976190Y-24428628D01*
X7976190Y-24428628D02*
X8357142Y-24428628D01*
X6928571Y-24238152D02*
X6928571Y-24904819D01*
X7166666Y-23857200D02*
X7404761Y-24571485D01*
X7404761Y-24571485D02*
X6785714Y-24571485D01*
X11738094Y-63904819D02*
X11166666Y-63904819D01*
X11452380Y-64904819D02*
X11452380Y-63904819D01*
X10833332Y-64904819D02*
X10833332Y-63904819D01*
X10833332Y-63904819D02*
X10452380Y-63904819D01*
X10452380Y-63904819D02*
X10357142Y-63952438D01*
X10357142Y-63952438D02*
X10309523Y-64000057D01*
X10309523Y-64000057D02*
X10261904Y-64095295D01*
X10261904Y-64095295D02*
X10261904Y-64238152D01*
X10261904Y-64238152D02*
X10309523Y-64333390D01*
X10309523Y-64333390D02*
X10357142Y-64381009D01*
X10357142Y-64381009D02*
X10452380Y-64428628D01*
X10452380Y-64428628D02*
X10833332Y-64428628D01*
X9309523Y-64904819D02*
X9880951Y-64904819D01*
X9595237Y-64904819D02*
X9595237Y-63904819D01*
X9595237Y-63904819D02*
X9690475Y-64047676D01*
X9690475Y-64047676D02*
X9785713Y-64142914D01*
X9785713Y-64142914D02*
X9880951Y-64190533D01*
X8357142Y-64904819D02*
X8928570Y-64904819D01*
X8642856Y-64904819D02*
X8642856Y-63904819D01*
X8642856Y-63904819D02*
X8738094Y-64047676D01*
X8738094Y-64047676D02*
X8833332Y-64142914D01*
X8833332Y-64142914D02*
X8928570Y-64190533D01*
X46761904Y-26454819D02*
X46761904Y-27264342D01*
X46761904Y-27264342D02*
X46714285Y-27359580D01*
X46714285Y-27359580D02*
X46666666Y-27407200D01*
X46666666Y-27407200D02*
X46571428Y-27454819D01*
X46571428Y-27454819D02*
X46380952Y-27454819D01*
X46380952Y-27454819D02*
X46285714Y-27407200D01*
X46285714Y-27407200D02*
X46238095Y-27359580D01*
X46238095Y-27359580D02*
X46190476Y-27264342D01*
X46190476Y-27264342D02*
X46190476Y-26454819D01*
X45761904Y-26550057D02*
X45714285Y-26502438D01*
X45714285Y-26502438D02*
X45619047Y-26454819D01*
X45619047Y-26454819D02*
X45380952Y-26454819D01*
X45380952Y-26454819D02*
X45285714Y-26502438D01*
X45285714Y-26502438D02*
X45238095Y-26550057D01*
X45238095Y-26550057D02*
X45190476Y-26645295D01*
X45190476Y-26645295D02*
X45190476Y-26740533D01*
X45190476Y-26740533D02*
X45238095Y-26883390D01*
X45238095Y-26883390D02*
X45809523Y-27454819D01*
X45809523Y-27454819D02*
X45190476Y-27454819D01*
X11738094Y-59904819D02*
X11166666Y-59904819D01*
X11452380Y-60904819D02*
X11452380Y-59904819D01*
X10833332Y-60904819D02*
X10833332Y-59904819D01*
X10833332Y-59904819D02*
X10452380Y-59904819D01*
X10452380Y-59904819D02*
X10357142Y-59952438D01*
X10357142Y-59952438D02*
X10309523Y-60000057D01*
X10309523Y-60000057D02*
X10261904Y-60095295D01*
X10261904Y-60095295D02*
X10261904Y-60238152D01*
X10261904Y-60238152D02*
X10309523Y-60333390D01*
X10309523Y-60333390D02*
X10357142Y-60381009D01*
X10357142Y-60381009D02*
X10452380Y-60428628D01*
X10452380Y-60428628D02*
X10833332Y-60428628D01*
X9309523Y-60904819D02*
X9880951Y-60904819D01*
X9595237Y-60904819D02*
X9595237Y-59904819D01*
X9595237Y-59904819D02*
X9690475Y-60047676D01*
X9690475Y-60047676D02*
X9785713Y-60142914D01*
X9785713Y-60142914D02*
X9880951Y-60190533D01*
X8690475Y-59904819D02*
X8595237Y-59904819D01*
X8595237Y-59904819D02*
X8499999Y-59952438D01*
X8499999Y-59952438D02*
X8452380Y-60000057D01*
X8452380Y-60000057D02*
X8404761Y-60095295D01*
X8404761Y-60095295D02*
X8357142Y-60285771D01*
X8357142Y-60285771D02*
X8357142Y-60523866D01*
X8357142Y-60523866D02*
X8404761Y-60714342D01*
X8404761Y-60714342D02*
X8452380Y-60809580D01*
X8452380Y-60809580D02*
X8499999Y-60857200D01*
X8499999Y-60857200D02*
X8595237Y-60904819D01*
X8595237Y-60904819D02*
X8690475Y-60904819D01*
X8690475Y-60904819D02*
X8785713Y-60857200D01*
X8785713Y-60857200D02*
X8833332Y-60809580D01*
X8833332Y-60809580D02*
X8880951Y-60714342D01*
X8880951Y-60714342D02*
X8928570Y-60523866D01*
X8928570Y-60523866D02*
X8928570Y-60285771D01*
X8928570Y-60285771D02*
X8880951Y-60095295D01*
X8880951Y-60095295D02*
X8833332Y-60000057D01*
X8833332Y-60000057D02*
X8785713Y-59952438D01*
X8785713Y-59952438D02*
X8690475Y-59904819D01*
X11261904Y-55904819D02*
X10690476Y-55904819D01*
X10976190Y-56904819D02*
X10976190Y-55904819D01*
X10357142Y-56904819D02*
X10357142Y-55904819D01*
X10357142Y-55904819D02*
X9976190Y-55904819D01*
X9976190Y-55904819D02*
X9880952Y-55952438D01*
X9880952Y-55952438D02*
X9833333Y-56000057D01*
X9833333Y-56000057D02*
X9785714Y-56095295D01*
X9785714Y-56095295D02*
X9785714Y-56238152D01*
X9785714Y-56238152D02*
X9833333Y-56333390D01*
X9833333Y-56333390D02*
X9880952Y-56381009D01*
X9880952Y-56381009D02*
X9976190Y-56428628D01*
X9976190Y-56428628D02*
X10357142Y-56428628D01*
X9309523Y-56904819D02*
X9119047Y-56904819D01*
X9119047Y-56904819D02*
X9023809Y-56857200D01*
X9023809Y-56857200D02*
X8976190Y-56809580D01*
X8976190Y-56809580D02*
X8880952Y-56666723D01*
X8880952Y-56666723D02*
X8833333Y-56476247D01*
X8833333Y-56476247D02*
X8833333Y-56095295D01*
X8833333Y-56095295D02*
X8880952Y-56000057D01*
X8880952Y-56000057D02*
X8928571Y-55952438D01*
X8928571Y-55952438D02*
X9023809Y-55904819D01*
X9023809Y-55904819D02*
X9214285Y-55904819D01*
X9214285Y-55904819D02*
X9309523Y-55952438D01*
X9309523Y-55952438D02*
X9357142Y-56000057D01*
X9357142Y-56000057D02*
X9404761Y-56095295D01*
X9404761Y-56095295D02*
X9404761Y-56333390D01*
X9404761Y-56333390D02*
X9357142Y-56428628D01*
X9357142Y-56428628D02*
X9309523Y-56476247D01*
X9309523Y-56476247D02*
X9214285Y-56523866D01*
X9214285Y-56523866D02*
X9023809Y-56523866D01*
X9023809Y-56523866D02*
X8928571Y-56476247D01*
X8928571Y-56476247D02*
X8880952Y-56428628D01*
X8880952Y-56428628D02*
X8833333Y-56333390D01*
X9261904Y-13904819D02*
X8690476Y-13904819D01*
X8976190Y-14904819D02*
X8976190Y-13904819D01*
X8357142Y-14904819D02*
X8357142Y-13904819D01*
X8357142Y-13904819D02*
X7976190Y-13904819D01*
X7976190Y-13904819D02*
X7880952Y-13952438D01*
X7880952Y-13952438D02*
X7833333Y-14000057D01*
X7833333Y-14000057D02*
X7785714Y-14095295D01*
X7785714Y-14095295D02*
X7785714Y-14238152D01*
X7785714Y-14238152D02*
X7833333Y-14333390D01*
X7833333Y-14333390D02*
X7880952Y-14381009D01*
X7880952Y-14381009D02*
X7976190Y-14428628D01*
X7976190Y-14428628D02*
X8357142Y-14428628D01*
X7404761Y-14000057D02*
X7357142Y-13952438D01*
X7357142Y-13952438D02*
X7261904Y-13904819D01*
X7261904Y-13904819D02*
X7023809Y-13904819D01*
X7023809Y-13904819D02*
X6928571Y-13952438D01*
X6928571Y-13952438D02*
X6880952Y-14000057D01*
X6880952Y-14000057D02*
X6833333Y-14095295D01*
X6833333Y-14095295D02*
X6833333Y-14190533D01*
X6833333Y-14190533D02*
X6880952Y-14333390D01*
X6880952Y-14333390D02*
X7452380Y-14904819D01*
X7452380Y-14904819D02*
X6833333Y-14904819D01*
X9261904Y-8904819D02*
X8690476Y-8904819D01*
X8976190Y-9904819D02*
X8976190Y-8904819D01*
X8357142Y-9904819D02*
X8357142Y-8904819D01*
X8357142Y-8904819D02*
X7976190Y-8904819D01*
X7976190Y-8904819D02*
X7880952Y-8952438D01*
X7880952Y-8952438D02*
X7833333Y-9000057D01*
X7833333Y-9000057D02*
X7785714Y-9095295D01*
X7785714Y-9095295D02*
X7785714Y-9238152D01*
X7785714Y-9238152D02*
X7833333Y-9333390D01*
X7833333Y-9333390D02*
X7880952Y-9381009D01*
X7880952Y-9381009D02*
X7976190Y-9428628D01*
X7976190Y-9428628D02*
X8357142Y-9428628D01*
X6833333Y-9904819D02*
X7404761Y-9904819D01*
X7119047Y-9904819D02*
X7119047Y-8904819D01*
X7119047Y-8904819D02*
X7214285Y-9047676D01*
X7214285Y-9047676D02*
X7309523Y-9142914D01*
X7309523Y-9142914D02*
X7404761Y-9190533D01*
D11*
X54066666Y-31181927D02*
X54199999Y-30991451D01*
X54295237Y-31181927D02*
X54295237Y-30781927D01*
X54295237Y-30781927D02*
X54142856Y-30781927D01*
X54142856Y-30781927D02*
X54104761Y-30800975D01*
X54104761Y-30800975D02*
X54085714Y-30820022D01*
X54085714Y-30820022D02*
X54066666Y-30858118D01*
X54066666Y-30858118D02*
X54066666Y-30915260D01*
X54066666Y-30915260D02*
X54085714Y-30953356D01*
X54085714Y-30953356D02*
X54104761Y-30972403D01*
X54104761Y-30972403D02*
X54142856Y-30991451D01*
X54142856Y-30991451D02*
X54295237Y-30991451D01*
X53704761Y-30781927D02*
X53895237Y-30781927D01*
X53895237Y-30781927D02*
X53914285Y-30972403D01*
X53914285Y-30972403D02*
X53895237Y-30953356D01*
X53895237Y-30953356D02*
X53857142Y-30934308D01*
X53857142Y-30934308D02*
X53761904Y-30934308D01*
X53761904Y-30934308D02*
X53723809Y-30953356D01*
X53723809Y-30953356D02*
X53704761Y-30972403D01*
X53704761Y-30972403D02*
X53685714Y-31010499D01*
X53685714Y-31010499D02*
X53685714Y-31105737D01*
X53685714Y-31105737D02*
X53704761Y-31143832D01*
X53704761Y-31143832D02*
X53723809Y-31162880D01*
X53723809Y-31162880D02*
X53761904Y-31181927D01*
X53761904Y-31181927D02*
X53857142Y-31181927D01*
X53857142Y-31181927D02*
X53895237Y-31162880D01*
X53895237Y-31162880D02*
X53914285Y-31143832D01*
D10*
X46761904Y-49454819D02*
X46761904Y-50264342D01*
X46761904Y-50264342D02*
X46714285Y-50359580D01*
X46714285Y-50359580D02*
X46666666Y-50407200D01*
X46666666Y-50407200D02*
X46571428Y-50454819D01*
X46571428Y-50454819D02*
X46380952Y-50454819D01*
X46380952Y-50454819D02*
X46285714Y-50407200D01*
X46285714Y-50407200D02*
X46238095Y-50359580D01*
X46238095Y-50359580D02*
X46190476Y-50264342D01*
X46190476Y-50264342D02*
X46190476Y-49454819D01*
X45190476Y-50454819D02*
X45761904Y-50454819D01*
X45476190Y-50454819D02*
X45476190Y-49454819D01*
X45476190Y-49454819D02*
X45571428Y-49597676D01*
X45571428Y-49597676D02*
X45666666Y-49692914D01*
X45666666Y-49692914D02*
X45761904Y-49740533D01*
X9261904Y-28904819D02*
X8690476Y-28904819D01*
X8976190Y-29904819D02*
X8976190Y-28904819D01*
X8357142Y-29904819D02*
X8357142Y-28904819D01*
X8357142Y-28904819D02*
X7976190Y-28904819D01*
X7976190Y-28904819D02*
X7880952Y-28952438D01*
X7880952Y-28952438D02*
X7833333Y-29000057D01*
X7833333Y-29000057D02*
X7785714Y-29095295D01*
X7785714Y-29095295D02*
X7785714Y-29238152D01*
X7785714Y-29238152D02*
X7833333Y-29333390D01*
X7833333Y-29333390D02*
X7880952Y-29381009D01*
X7880952Y-29381009D02*
X7976190Y-29428628D01*
X7976190Y-29428628D02*
X8357142Y-29428628D01*
X6880952Y-28904819D02*
X7357142Y-28904819D01*
X7357142Y-28904819D02*
X7404761Y-29381009D01*
X7404761Y-29381009D02*
X7357142Y-29333390D01*
X7357142Y-29333390D02*
X7261904Y-29285771D01*
X7261904Y-29285771D02*
X7023809Y-29285771D01*
X7023809Y-29285771D02*
X6928571Y-29333390D01*
X6928571Y-29333390D02*
X6880952Y-29381009D01*
X6880952Y-29381009D02*
X6833333Y-29476247D01*
X6833333Y-29476247D02*
X6833333Y-29714342D01*
X6833333Y-29714342D02*
X6880952Y-29809580D01*
X6880952Y-29809580D02*
X6928571Y-29857200D01*
X6928571Y-29857200D02*
X7023809Y-29904819D01*
X7023809Y-29904819D02*
X7261904Y-29904819D01*
X7261904Y-29904819D02*
X7357142Y-29857200D01*
X7357142Y-29857200D02*
X7404761Y-29809580D01*
D11*
X68257142Y-60143832D02*
X68276190Y-60162880D01*
X68276190Y-60162880D02*
X68333332Y-60181927D01*
X68333332Y-60181927D02*
X68371428Y-60181927D01*
X68371428Y-60181927D02*
X68428571Y-60162880D01*
X68428571Y-60162880D02*
X68466666Y-60124784D01*
X68466666Y-60124784D02*
X68485713Y-60086689D01*
X68485713Y-60086689D02*
X68504761Y-60010499D01*
X68504761Y-60010499D02*
X68504761Y-59953356D01*
X68504761Y-59953356D02*
X68485713Y-59877165D01*
X68485713Y-59877165D02*
X68466666Y-59839070D01*
X68466666Y-59839070D02*
X68428571Y-59800975D01*
X68428571Y-59800975D02*
X68371428Y-59781927D01*
X68371428Y-59781927D02*
X68333332Y-59781927D01*
X68333332Y-59781927D02*
X68276190Y-59800975D01*
X68276190Y-59800975D02*
X68257142Y-59820022D01*
X67876190Y-60181927D02*
X68104761Y-60181927D01*
X67990475Y-60181927D02*
X67990475Y-59781927D01*
X67990475Y-59781927D02*
X68028571Y-59839070D01*
X68028571Y-59839070D02*
X68066666Y-59877165D01*
X68066666Y-59877165D02*
X68104761Y-59896213D01*
X67723809Y-59820022D02*
X67704761Y-59800975D01*
X67704761Y-59800975D02*
X67666666Y-59781927D01*
X67666666Y-59781927D02*
X67571428Y-59781927D01*
X67571428Y-59781927D02*
X67533333Y-59800975D01*
X67533333Y-59800975D02*
X67514285Y-59820022D01*
X67514285Y-59820022D02*
X67495238Y-59858118D01*
X67495238Y-59858118D02*
X67495238Y-59896213D01*
X67495238Y-59896213D02*
X67514285Y-59953356D01*
X67514285Y-59953356D02*
X67742857Y-60181927D01*
X67742857Y-60181927D02*
X67495238Y-60181927D01*
X39066666Y-56181927D02*
X39199999Y-55991451D01*
X39295237Y-56181927D02*
X39295237Y-55781927D01*
X39295237Y-55781927D02*
X39142856Y-55781927D01*
X39142856Y-55781927D02*
X39104761Y-55800975D01*
X39104761Y-55800975D02*
X39085714Y-55820022D01*
X39085714Y-55820022D02*
X39066666Y-55858118D01*
X39066666Y-55858118D02*
X39066666Y-55915260D01*
X39066666Y-55915260D02*
X39085714Y-55953356D01*
X39085714Y-55953356D02*
X39104761Y-55972403D01*
X39104761Y-55972403D02*
X39142856Y-55991451D01*
X39142856Y-55991451D02*
X39295237Y-55991451D01*
X38685714Y-56181927D02*
X38914285Y-56181927D01*
X38799999Y-56181927D02*
X38799999Y-55781927D01*
X38799999Y-55781927D02*
X38838095Y-55839070D01*
X38838095Y-55839070D02*
X38876190Y-55877165D01*
X38876190Y-55877165D02*
X38914285Y-55896213D01*
X26257142Y-38143832D02*
X26276190Y-38162880D01*
X26276190Y-38162880D02*
X26333332Y-38181927D01*
X26333332Y-38181927D02*
X26371428Y-38181927D01*
X26371428Y-38181927D02*
X26428571Y-38162880D01*
X26428571Y-38162880D02*
X26466666Y-38124784D01*
X26466666Y-38124784D02*
X26485713Y-38086689D01*
X26485713Y-38086689D02*
X26504761Y-38010499D01*
X26504761Y-38010499D02*
X26504761Y-37953356D01*
X26504761Y-37953356D02*
X26485713Y-37877165D01*
X26485713Y-37877165D02*
X26466666Y-37839070D01*
X26466666Y-37839070D02*
X26428571Y-37800975D01*
X26428571Y-37800975D02*
X26371428Y-37781927D01*
X26371428Y-37781927D02*
X26333332Y-37781927D01*
X26333332Y-37781927D02*
X26276190Y-37800975D01*
X26276190Y-37800975D02*
X26257142Y-37820022D01*
X25876190Y-38181927D02*
X26104761Y-38181927D01*
X25990475Y-38181927D02*
X25990475Y-37781927D01*
X25990475Y-37781927D02*
X26028571Y-37839070D01*
X26028571Y-37839070D02*
X26066666Y-37877165D01*
X26066666Y-37877165D02*
X26104761Y-37896213D01*
X25742857Y-37781927D02*
X25495238Y-37781927D01*
X25495238Y-37781927D02*
X25628571Y-37934308D01*
X25628571Y-37934308D02*
X25571428Y-37934308D01*
X25571428Y-37934308D02*
X25533333Y-37953356D01*
X25533333Y-37953356D02*
X25514285Y-37972403D01*
X25514285Y-37972403D02*
X25495238Y-38010499D01*
X25495238Y-38010499D02*
X25495238Y-38105737D01*
X25495238Y-38105737D02*
X25514285Y-38143832D01*
X25514285Y-38143832D02*
X25533333Y-38162880D01*
X25533333Y-38162880D02*
X25571428Y-38181927D01*
X25571428Y-38181927D02*
X25685714Y-38181927D01*
X25685714Y-38181927D02*
X25723809Y-38162880D01*
X25723809Y-38162880D02*
X25742857Y-38143832D01*
X24066666Y-45143832D02*
X24085714Y-45162880D01*
X24085714Y-45162880D02*
X24142856Y-45181927D01*
X24142856Y-45181927D02*
X24180952Y-45181927D01*
X24180952Y-45181927D02*
X24238095Y-45162880D01*
X24238095Y-45162880D02*
X24276190Y-45124784D01*
X24276190Y-45124784D02*
X24295237Y-45086689D01*
X24295237Y-45086689D02*
X24314285Y-45010499D01*
X24314285Y-45010499D02*
X24314285Y-44953356D01*
X24314285Y-44953356D02*
X24295237Y-44877165D01*
X24295237Y-44877165D02*
X24276190Y-44839070D01*
X24276190Y-44839070D02*
X24238095Y-44800975D01*
X24238095Y-44800975D02*
X24180952Y-44781927D01*
X24180952Y-44781927D02*
X24142856Y-44781927D01*
X24142856Y-44781927D02*
X24085714Y-44800975D01*
X24085714Y-44800975D02*
X24066666Y-44820022D01*
X23704761Y-44781927D02*
X23895237Y-44781927D01*
X23895237Y-44781927D02*
X23914285Y-44972403D01*
X23914285Y-44972403D02*
X23895237Y-44953356D01*
X23895237Y-44953356D02*
X23857142Y-44934308D01*
X23857142Y-44934308D02*
X23761904Y-44934308D01*
X23761904Y-44934308D02*
X23723809Y-44953356D01*
X23723809Y-44953356D02*
X23704761Y-44972403D01*
X23704761Y-44972403D02*
X23685714Y-45010499D01*
X23685714Y-45010499D02*
X23685714Y-45105737D01*
X23685714Y-45105737D02*
X23704761Y-45143832D01*
X23704761Y-45143832D02*
X23723809Y-45162880D01*
X23723809Y-45162880D02*
X23761904Y-45181927D01*
X23761904Y-45181927D02*
X23857142Y-45181927D01*
X23857142Y-45181927D02*
X23895237Y-45162880D01*
X23895237Y-45162880D02*
X23914285Y-45143832D01*
X50066666Y-31181927D02*
X50199999Y-30991451D01*
X50295237Y-31181927D02*
X50295237Y-30781927D01*
X50295237Y-30781927D02*
X50142856Y-30781927D01*
X50142856Y-30781927D02*
X50104761Y-30800975D01*
X50104761Y-30800975D02*
X50085714Y-30820022D01*
X50085714Y-30820022D02*
X50066666Y-30858118D01*
X50066666Y-30858118D02*
X50066666Y-30915260D01*
X50066666Y-30915260D02*
X50085714Y-30953356D01*
X50085714Y-30953356D02*
X50104761Y-30972403D01*
X50104761Y-30972403D02*
X50142856Y-30991451D01*
X50142856Y-30991451D02*
X50295237Y-30991451D01*
X49933333Y-30781927D02*
X49666666Y-30781927D01*
X49666666Y-30781927D02*
X49838095Y-31181927D01*
D10*
X9261904Y-33904819D02*
X8690476Y-33904819D01*
X8976190Y-34904819D02*
X8976190Y-33904819D01*
X8357142Y-34904819D02*
X8357142Y-33904819D01*
X8357142Y-33904819D02*
X7976190Y-33904819D01*
X7976190Y-33904819D02*
X7880952Y-33952438D01*
X7880952Y-33952438D02*
X7833333Y-34000057D01*
X7833333Y-34000057D02*
X7785714Y-34095295D01*
X7785714Y-34095295D02*
X7785714Y-34238152D01*
X7785714Y-34238152D02*
X7833333Y-34333390D01*
X7833333Y-34333390D02*
X7880952Y-34381009D01*
X7880952Y-34381009D02*
X7976190Y-34428628D01*
X7976190Y-34428628D02*
X8357142Y-34428628D01*
X6928571Y-33904819D02*
X7119047Y-33904819D01*
X7119047Y-33904819D02*
X7214285Y-33952438D01*
X7214285Y-33952438D02*
X7261904Y-34000057D01*
X7261904Y-34000057D02*
X7357142Y-34142914D01*
X7357142Y-34142914D02*
X7404761Y-34333390D01*
X7404761Y-34333390D02*
X7404761Y-34714342D01*
X7404761Y-34714342D02*
X7357142Y-34809580D01*
X7357142Y-34809580D02*
X7309523Y-34857200D01*
X7309523Y-34857200D02*
X7214285Y-34904819D01*
X7214285Y-34904819D02*
X7023809Y-34904819D01*
X7023809Y-34904819D02*
X6928571Y-34857200D01*
X6928571Y-34857200D02*
X6880952Y-34809580D01*
X6880952Y-34809580D02*
X6833333Y-34714342D01*
X6833333Y-34714342D02*
X6833333Y-34476247D01*
X6833333Y-34476247D02*
X6880952Y-34381009D01*
X6880952Y-34381009D02*
X6928571Y-34333390D01*
X6928571Y-34333390D02*
X7023809Y-34285771D01*
X7023809Y-34285771D02*
X7214285Y-34285771D01*
X7214285Y-34285771D02*
X7309523Y-34333390D01*
X7309523Y-34333390D02*
X7357142Y-34381009D01*
X7357142Y-34381009D02*
X7404761Y-34476247D01*
X48333333Y-65454819D02*
X48333333Y-66169104D01*
X48333333Y-66169104D02*
X48380952Y-66311961D01*
X48380952Y-66311961D02*
X48476190Y-66407200D01*
X48476190Y-66407200D02*
X48619047Y-66454819D01*
X48619047Y-66454819D02*
X48714285Y-66454819D01*
X47333333Y-66454819D02*
X47904761Y-66454819D01*
X47619047Y-66454819D02*
X47619047Y-65454819D01*
X47619047Y-65454819D02*
X47714285Y-65597676D01*
X47714285Y-65597676D02*
X47809523Y-65692914D01*
X47809523Y-65692914D02*
X47904761Y-65740533D01*
D11*
X58066666Y-31181927D02*
X58199999Y-30991451D01*
X58295237Y-31181927D02*
X58295237Y-30781927D01*
X58295237Y-30781927D02*
X58142856Y-30781927D01*
X58142856Y-30781927D02*
X58104761Y-30800975D01*
X58104761Y-30800975D02*
X58085714Y-30820022D01*
X58085714Y-30820022D02*
X58066666Y-30858118D01*
X58066666Y-30858118D02*
X58066666Y-30915260D01*
X58066666Y-30915260D02*
X58085714Y-30953356D01*
X58085714Y-30953356D02*
X58104761Y-30972403D01*
X58104761Y-30972403D02*
X58142856Y-30991451D01*
X58142856Y-30991451D02*
X58295237Y-30991451D01*
X57723809Y-30781927D02*
X57799999Y-30781927D01*
X57799999Y-30781927D02*
X57838095Y-30800975D01*
X57838095Y-30800975D02*
X57857142Y-30820022D01*
X57857142Y-30820022D02*
X57895237Y-30877165D01*
X57895237Y-30877165D02*
X57914285Y-30953356D01*
X57914285Y-30953356D02*
X57914285Y-31105737D01*
X57914285Y-31105737D02*
X57895237Y-31143832D01*
X57895237Y-31143832D02*
X57876190Y-31162880D01*
X57876190Y-31162880D02*
X57838095Y-31181927D01*
X57838095Y-31181927D02*
X57761904Y-31181927D01*
X57761904Y-31181927D02*
X57723809Y-31162880D01*
X57723809Y-31162880D02*
X57704761Y-31143832D01*
X57704761Y-31143832D02*
X57685714Y-31105737D01*
X57685714Y-31105737D02*
X57685714Y-31010499D01*
X57685714Y-31010499D02*
X57704761Y-30972403D01*
X57704761Y-30972403D02*
X57723809Y-30953356D01*
X57723809Y-30953356D02*
X57761904Y-30934308D01*
X57761904Y-30934308D02*
X57838095Y-30934308D01*
X57838095Y-30934308D02*
X57876190Y-30953356D01*
X57876190Y-30953356D02*
X57895237Y-30972403D01*
X57895237Y-30972403D02*
X57914285Y-31010499D01*
X67066666Y-62181927D02*
X67199999Y-61991451D01*
X67295237Y-62181927D02*
X67295237Y-61781927D01*
X67295237Y-61781927D02*
X67142856Y-61781927D01*
X67142856Y-61781927D02*
X67104761Y-61800975D01*
X67104761Y-61800975D02*
X67085714Y-61820022D01*
X67085714Y-61820022D02*
X67066666Y-61858118D01*
X67066666Y-61858118D02*
X67066666Y-61915260D01*
X67066666Y-61915260D02*
X67085714Y-61953356D01*
X67085714Y-61953356D02*
X67104761Y-61972403D01*
X67104761Y-61972403D02*
X67142856Y-61991451D01*
X67142856Y-61991451D02*
X67295237Y-61991451D01*
X66933333Y-61781927D02*
X66685714Y-61781927D01*
X66685714Y-61781927D02*
X66819047Y-61934308D01*
X66819047Y-61934308D02*
X66761904Y-61934308D01*
X66761904Y-61934308D02*
X66723809Y-61953356D01*
X66723809Y-61953356D02*
X66704761Y-61972403D01*
X66704761Y-61972403D02*
X66685714Y-62010499D01*
X66685714Y-62010499D02*
X66685714Y-62105737D01*
X66685714Y-62105737D02*
X66704761Y-62143832D01*
X66704761Y-62143832D02*
X66723809Y-62162880D01*
X66723809Y-62162880D02*
X66761904Y-62181927D01*
X66761904Y-62181927D02*
X66876190Y-62181927D01*
X66876190Y-62181927D02*
X66914285Y-62162880D01*
X66914285Y-62162880D02*
X66933333Y-62143832D01*
D13*
X29380951Y-41982902D02*
X29380951Y-42363855D01*
X29647618Y-41563855D02*
X29380951Y-41982902D01*
X29380951Y-41982902D02*
X29114285Y-41563855D01*
X28428571Y-42363855D02*
X28885714Y-42363855D01*
X28657142Y-42363855D02*
X28657142Y-41563855D01*
X28657142Y-41563855D02*
X28733333Y-41678140D01*
X28733333Y-41678140D02*
X28809523Y-41754331D01*
X28809523Y-41754331D02*
X28885714Y-41792426D01*
D11*
X31066666Y-36143832D02*
X31085714Y-36162880D01*
X31085714Y-36162880D02*
X31142856Y-36181927D01*
X31142856Y-36181927D02*
X31180952Y-36181927D01*
X31180952Y-36181927D02*
X31238095Y-36162880D01*
X31238095Y-36162880D02*
X31276190Y-36124784D01*
X31276190Y-36124784D02*
X31295237Y-36086689D01*
X31295237Y-36086689D02*
X31314285Y-36010499D01*
X31314285Y-36010499D02*
X31314285Y-35953356D01*
X31314285Y-35953356D02*
X31295237Y-35877165D01*
X31295237Y-35877165D02*
X31276190Y-35839070D01*
X31276190Y-35839070D02*
X31238095Y-35800975D01*
X31238095Y-35800975D02*
X31180952Y-35781927D01*
X31180952Y-35781927D02*
X31142856Y-35781927D01*
X31142856Y-35781927D02*
X31085714Y-35800975D01*
X31085714Y-35800975D02*
X31066666Y-35820022D01*
X30876190Y-36181927D02*
X30799999Y-36181927D01*
X30799999Y-36181927D02*
X30761904Y-36162880D01*
X30761904Y-36162880D02*
X30742856Y-36143832D01*
X30742856Y-36143832D02*
X30704761Y-36086689D01*
X30704761Y-36086689D02*
X30685714Y-36010499D01*
X30685714Y-36010499D02*
X30685714Y-35858118D01*
X30685714Y-35858118D02*
X30704761Y-35820022D01*
X30704761Y-35820022D02*
X30723809Y-35800975D01*
X30723809Y-35800975D02*
X30761904Y-35781927D01*
X30761904Y-35781927D02*
X30838095Y-35781927D01*
X30838095Y-35781927D02*
X30876190Y-35800975D01*
X30876190Y-35800975D02*
X30895237Y-35820022D01*
X30895237Y-35820022D02*
X30914285Y-35858118D01*
X30914285Y-35858118D02*
X30914285Y-35953356D01*
X30914285Y-35953356D02*
X30895237Y-35991451D01*
X30895237Y-35991451D02*
X30876190Y-36010499D01*
X30876190Y-36010499D02*
X30838095Y-36029546D01*
X30838095Y-36029546D02*
X30761904Y-36029546D01*
X30761904Y-36029546D02*
X30723809Y-36010499D01*
X30723809Y-36010499D02*
X30704761Y-35991451D01*
X30704761Y-35991451D02*
X30685714Y-35953356D01*
D10*
X16738094Y-59904819D02*
X16166666Y-59904819D01*
X16452380Y-60904819D02*
X16452380Y-59904819D01*
X15833332Y-60904819D02*
X15833332Y-59904819D01*
X15833332Y-59904819D02*
X15452380Y-59904819D01*
X15452380Y-59904819D02*
X15357142Y-59952438D01*
X15357142Y-59952438D02*
X15309523Y-60000057D01*
X15309523Y-60000057D02*
X15261904Y-60095295D01*
X15261904Y-60095295D02*
X15261904Y-60238152D01*
X15261904Y-60238152D02*
X15309523Y-60333390D01*
X15309523Y-60333390D02*
X15357142Y-60381009D01*
X15357142Y-60381009D02*
X15452380Y-60428628D01*
X15452380Y-60428628D02*
X15833332Y-60428628D01*
X14309523Y-60904819D02*
X14880951Y-60904819D01*
X14595237Y-60904819D02*
X14595237Y-59904819D01*
X14595237Y-59904819D02*
X14690475Y-60047676D01*
X14690475Y-60047676D02*
X14785713Y-60142914D01*
X14785713Y-60142914D02*
X14880951Y-60190533D01*
X13976189Y-59904819D02*
X13357142Y-59904819D01*
X13357142Y-59904819D02*
X13690475Y-60285771D01*
X13690475Y-60285771D02*
X13547618Y-60285771D01*
X13547618Y-60285771D02*
X13452380Y-60333390D01*
X13452380Y-60333390D02*
X13404761Y-60381009D01*
X13404761Y-60381009D02*
X13357142Y-60476247D01*
X13357142Y-60476247D02*
X13357142Y-60714342D01*
X13357142Y-60714342D02*
X13404761Y-60809580D01*
X13404761Y-60809580D02*
X13452380Y-60857200D01*
X13452380Y-60857200D02*
X13547618Y-60904819D01*
X13547618Y-60904819D02*
X13833332Y-60904819D01*
X13833332Y-60904819D02*
X13928570Y-60857200D01*
X13928570Y-60857200D02*
X13976189Y-60809580D01*
D11*
X62257142Y-27143832D02*
X62276190Y-27162880D01*
X62276190Y-27162880D02*
X62333332Y-27181927D01*
X62333332Y-27181927D02*
X62371428Y-27181927D01*
X62371428Y-27181927D02*
X62428571Y-27162880D01*
X62428571Y-27162880D02*
X62466666Y-27124784D01*
X62466666Y-27124784D02*
X62485713Y-27086689D01*
X62485713Y-27086689D02*
X62504761Y-27010499D01*
X62504761Y-27010499D02*
X62504761Y-26953356D01*
X62504761Y-26953356D02*
X62485713Y-26877165D01*
X62485713Y-26877165D02*
X62466666Y-26839070D01*
X62466666Y-26839070D02*
X62428571Y-26800975D01*
X62428571Y-26800975D02*
X62371428Y-26781927D01*
X62371428Y-26781927D02*
X62333332Y-26781927D01*
X62333332Y-26781927D02*
X62276190Y-26800975D01*
X62276190Y-26800975D02*
X62257142Y-26820022D01*
X61876190Y-27181927D02*
X62104761Y-27181927D01*
X61990475Y-27181927D02*
X61990475Y-26781927D01*
X61990475Y-26781927D02*
X62028571Y-26839070D01*
X62028571Y-26839070D02*
X62066666Y-26877165D01*
X62066666Y-26877165D02*
X62104761Y-26896213D01*
X61533333Y-26781927D02*
X61609523Y-26781927D01*
X61609523Y-26781927D02*
X61647619Y-26800975D01*
X61647619Y-26800975D02*
X61666666Y-26820022D01*
X61666666Y-26820022D02*
X61704761Y-26877165D01*
X61704761Y-26877165D02*
X61723809Y-26953356D01*
X61723809Y-26953356D02*
X61723809Y-27105737D01*
X61723809Y-27105737D02*
X61704761Y-27143832D01*
X61704761Y-27143832D02*
X61685714Y-27162880D01*
X61685714Y-27162880D02*
X61647619Y-27181927D01*
X61647619Y-27181927D02*
X61571428Y-27181927D01*
X61571428Y-27181927D02*
X61533333Y-27162880D01*
X61533333Y-27162880D02*
X61514285Y-27143832D01*
X61514285Y-27143832D02*
X61495238Y-27105737D01*
X61495238Y-27105737D02*
X61495238Y-27010499D01*
X61495238Y-27010499D02*
X61514285Y-26972403D01*
X61514285Y-26972403D02*
X61533333Y-26953356D01*
X61533333Y-26953356D02*
X61571428Y-26934308D01*
X61571428Y-26934308D02*
X61647619Y-26934308D01*
X61647619Y-26934308D02*
X61685714Y-26953356D01*
X61685714Y-26953356D02*
X61704761Y-26972403D01*
X61704761Y-26972403D02*
X61723809Y-27010499D01*
%TO.C,C6*%
D14*
X67200000Y-46600000D02*
X68800000Y-46600000D01*
X68800000Y-47400000D01*
X67200000Y-47400000D01*
X67200000Y-46600000D01*
%TO.C,C2*%
X51200000Y-43600000D02*
X52800000Y-43600000D01*
X52800000Y-44400000D01*
X51200000Y-44400000D01*
X51200000Y-43600000D01*
%TO.C,C4*%
X51200000Y-22600000D02*
X52800000Y-22600000D01*
X52800000Y-23400000D01*
X51200000Y-23400000D01*
X51200000Y-22600000D01*
%TO.C,R4*%
X71200000Y-61587500D02*
X72800000Y-61587500D01*
X72800000Y-62412500D01*
X71200000Y-62412500D01*
X71200000Y-61587500D01*
%TO.C,U5*%
X36500000Y-60900000D02*
X36500000Y-61400000D01*
X36500000Y-60900000D02*
X36800000Y-60600000D01*
X36500000Y-61400000D02*
X37500000Y-61400000D01*
X37500000Y-60600000D02*
X36800000Y-60600000D01*
X37500000Y-61400000D02*
X37500000Y-60600000D01*
%TO.C,C15*%
X40200000Y-30600000D02*
X41800000Y-30600000D01*
X41800000Y-31400000D01*
X40200000Y-31400000D01*
X40200000Y-30600000D01*
%TO.C,C3*%
X39200000Y-22600000D02*
X40800000Y-22600000D01*
X40800000Y-23400000D01*
X39200000Y-23400000D01*
X39200000Y-22600000D01*
%TO.C,R2*%
X42200000Y-55587500D02*
X43800000Y-55587500D01*
X43800000Y-56412500D01*
X42200000Y-56412500D01*
X42200000Y-55587500D01*
%TO.C,C8*%
X60200000Y-55600000D02*
X61800000Y-55600000D01*
X61800000Y-56400000D01*
X60200000Y-56400000D01*
X60200000Y-55600000D01*
%TO.C,C11*%
X68200000Y-55600000D02*
X69800000Y-55600000D01*
X69800000Y-56400000D01*
X68200000Y-56400000D01*
X68200000Y-55600000D01*
%TO.C,C10*%
X60200000Y-35600000D02*
X61800000Y-35600000D01*
X61800000Y-36400000D01*
X60200000Y-36400000D01*
X60200000Y-35600000D01*
%TO.C,SW2*%
X84650000Y-55250000D02*
X84650000Y-58750000D01*
X84650000Y-58750000D02*
X89350000Y-58750000D01*
X85700000Y-56200000D02*
X86400000Y-56200000D01*
X85700000Y-57800000D02*
X85700000Y-56200000D01*
X86400000Y-57800000D02*
X85700000Y-57800000D01*
X87600000Y-56200000D02*
X88300000Y-56200000D01*
X88300000Y-56200000D02*
X88300000Y-57800000D01*
X88300000Y-57800000D02*
X87600000Y-57800000D01*
X89350000Y-55250000D02*
X84650000Y-55250000D01*
X89350000Y-58750000D02*
X89350000Y-55250000D01*
X86400000Y-56200000D02*
G75*
G02*
X87600000Y-56200000I600000J-800000D01*
G01*
X87600000Y-57800000D02*
G75*
G02*
X86400000Y-57800000I-600000J800000D01*
G01*
%TO.C,R8*%
X61200000Y-30587500D02*
X62800000Y-30587500D01*
X62800000Y-31412500D01*
X61200000Y-31412500D01*
X61200000Y-30587500D01*
%TO.C,U4*%
X64600000Y-52450000D02*
X65800000Y-52450000D01*
X65800000Y-49550000D01*
X64200000Y-49550000D01*
X64200000Y-52050000D01*
X64600000Y-52450000D01*
%TO.C,C7*%
X34200000Y-57600000D02*
X35800000Y-57600000D01*
X35800000Y-58400000D01*
X34200000Y-58400000D01*
X34200000Y-57600000D01*
%TO.C,SW1*%
X75650000Y-55250000D02*
X75650000Y-58750000D01*
X75650000Y-58750000D02*
X80350000Y-58750000D01*
X76700000Y-56200000D02*
X77400000Y-56200000D01*
X76700000Y-57800000D02*
X76700000Y-56200000D01*
X77400000Y-57800000D02*
X76700000Y-57800000D01*
X78600000Y-56200000D02*
X79300000Y-56200000D01*
X79300000Y-56200000D02*
X79300000Y-57800000D01*
X79300000Y-57800000D02*
X78600000Y-57800000D01*
X80350000Y-55250000D02*
X75650000Y-55250000D01*
X80350000Y-58750000D02*
X80350000Y-55250000D01*
X77400000Y-56200000D02*
G75*
G02*
X78600000Y-56200000I600000J-800000D01*
G01*
X78600000Y-57800000D02*
G75*
G02*
X77400000Y-57800000I-600000J800000D01*
G01*
%TO.C,C1*%
X39200000Y-43600000D02*
X40800000Y-43600000D01*
X40800000Y-44400000D01*
X39200000Y-44400000D01*
X39200000Y-43600000D01*
%TO.C,C14*%
X31200000Y-37600000D02*
X32800000Y-37600000D01*
X32800000Y-38400000D01*
X31200000Y-38400000D01*
X31200000Y-37600000D01*
%TO.C,U3*%
X25025000Y-52450000D02*
X27950000Y-52450000D01*
X27950000Y-47550000D01*
X24050000Y-47550000D01*
X24050000Y-51475000D01*
X25025000Y-52450000D01*
%TO.C,U2*%
X45000000Y-29000000D02*
X48000000Y-29000000D01*
X48000000Y-25000000D01*
X44000000Y-25000000D01*
X44000000Y-28000000D01*
X45000000Y-29000000D01*
%TO.C,R5*%
X53200000Y-30587500D02*
X54800000Y-30587500D01*
X54800000Y-31412500D01*
X53200000Y-31412500D01*
X53200000Y-30587500D01*
%TO.C,U1*%
X43500000Y-53500000D02*
X49500000Y-53500000D01*
X49500000Y-46500000D01*
X42500000Y-46500000D01*
X42500000Y-52500000D01*
X43500000Y-53500000D01*
%TO.C,C12*%
X67200000Y-59600000D02*
X68800000Y-59600000D01*
X68800000Y-60400000D01*
X67200000Y-60400000D01*
X67200000Y-59600000D01*
%TO.C,R1*%
X38200000Y-55587500D02*
X39800000Y-55587500D01*
X39800000Y-56412500D01*
X38200000Y-56412500D01*
X38200000Y-55587500D01*
%TO.C,C13*%
X25200000Y-37600000D02*
X26800000Y-37600000D01*
X26800000Y-38400000D01*
X25200000Y-38400000D01*
X25200000Y-37600000D01*
%TO.C,C5*%
X23200000Y-44600000D02*
X24800000Y-44600000D01*
X24800000Y-45400000D01*
X23200000Y-45400000D01*
X23200000Y-44600000D01*
%TO.C,R7*%
X49200000Y-30587500D02*
X50800000Y-30587500D01*
X50800000Y-31412500D01*
X49200000Y-31412500D01*
X49200000Y-30587500D01*
%TO.C,J1*%
X43530000Y-62350000D02*
X43530000Y-69650000D01*
X52470000Y-62350000D02*
X43530000Y-62350000D01*
X52470000Y-62350000D02*
X52470000Y-69650000D01*
X52470000Y-69650000D02*
X43530000Y-69650000D01*
%TO.C,R6*%
X57200000Y-30587500D02*
X58800000Y-30587500D01*
X58800000Y-31412500D01*
X57200000Y-31412500D01*
X57200000Y-30587500D01*
%TO.C,R3*%
X66200000Y-61587500D02*
X67800000Y-61587500D01*
X67800000Y-62412500D01*
X66200000Y-62412500D01*
X66200000Y-61587500D01*
%TO.C,Y1*%
X30600000Y-43250000D02*
X30600000Y-40750000D01*
X28025000Y-40750000D01*
X27400000Y-41375000D01*
X27400000Y-43250000D01*
X30600000Y-43250000D01*
%TO.C,C9*%
X30200000Y-35600000D02*
X31800000Y-35600000D01*
X31800000Y-36400000D01*
X30200000Y-36400000D01*
X30200000Y-35600000D01*
%TO.C,C16*%
X61200000Y-26600000D02*
X62800000Y-26600000D01*
X62800000Y-27400000D01*
X61200000Y-27400000D01*
X61200000Y-26600000D01*
%TD*%
M02*
