%TF.GenerationSoftware,KiCad,Pcbnew,10.0.3*%
%TF.CreationDate,2026-05-30T18:52:23+08:00*%
%TF.ProjectId,tellmelight_rev_a2,74656c6c-6d65-46c6-9967-68745f726576,A2*%
%TF.SameCoordinates,Original*%
%TF.FileFunction,Other,User*%
%FSLAX46Y46*%
G04 Gerber Fmt 4.6, Leading zero omitted, Abs format (unit mm)*
G04 Created by KiCad (PCBNEW 10.0.3) date 2026-05-30 18:52:23*
%MOMM*%
%LPD*%
G01*
G04 APERTURE LIST*
%ADD10C,0.050000*%
G04 APERTURE END LIST*
%TO.C,TP8*%
D10*
X9000000Y-43000000D02*
G75*
G02*
X7000000Y-43000000I-1000000J0D01*
G01*
X7000000Y-43000000D02*
G75*
G02*
X9000000Y-43000000I1000000J0D01*
G01*
%TO.C,R5*%
X52520000Y-30270000D02*
X55480000Y-30270000D01*
X55480000Y-31730000D01*
X52520000Y-31730000D01*
X52520000Y-30270000D01*
%TO.C,R3*%
X65520000Y-61270000D02*
X68480000Y-61270000D01*
X68480000Y-62730000D01*
X65520000Y-62730000D01*
X65520000Y-61270000D01*
%TO.C,SW2*%
X83450000Y-55000000D02*
X83450000Y-59000000D01*
X83450000Y-59000000D02*
X90550000Y-59000000D01*
X90550000Y-55000000D02*
X83450000Y-55000000D01*
X90550000Y-59000000D02*
X90550000Y-55000000D01*
%TO.C,U4*%
X62950000Y-49500000D02*
X62950000Y-52500000D01*
X62950000Y-52500000D02*
X63950000Y-52500000D01*
X63950000Y-49300000D02*
X63950000Y-49500000D01*
X63950000Y-49500000D02*
X62950000Y-49500000D01*
X63950000Y-52500000D02*
X63950000Y-52700000D01*
X63950000Y-52700000D02*
X66050000Y-52700000D01*
X66050000Y-49300000D02*
X63950000Y-49300000D01*
X66050000Y-49500000D02*
X66050000Y-49300000D01*
X66050000Y-50610000D02*
X67050000Y-50610000D01*
X66050000Y-51390000D02*
X66050000Y-50610000D01*
X66050000Y-52500000D02*
X67050000Y-52500000D01*
X66050000Y-52700000D02*
X66050000Y-52500000D01*
X67050000Y-49500000D02*
X66050000Y-49500000D01*
X67050000Y-50610000D02*
X67050000Y-49500000D01*
X67050000Y-51390000D02*
X66050000Y-51390000D01*
X67050000Y-52500000D02*
X67050000Y-51390000D01*
%TO.C,TP11*%
X11000000Y-63000000D02*
G75*
G02*
X9000000Y-63000000I-1000000J0D01*
G01*
X9000000Y-63000000D02*
G75*
G02*
X11000000Y-63000000I1000000J0D01*
G01*
%TO.C,R7*%
X48520000Y-30270000D02*
X51480000Y-30270000D01*
X51480000Y-31730000D01*
X48520000Y-31730000D01*
X48520000Y-30270000D01*
%TO.C,TP2*%
X9000000Y-13000000D02*
G75*
G02*
X7000000Y-13000000I-1000000J0D01*
G01*
X7000000Y-13000000D02*
G75*
G02*
X9000000Y-13000000I1000000J0D01*
G01*
%TO.C,R4*%
X70520000Y-61270000D02*
X73480000Y-61270000D01*
X73480000Y-62730000D01*
X70520000Y-62730000D01*
X70520000Y-61270000D01*
%TO.C,SW1*%
X74450000Y-55000000D02*
X74450000Y-59000000D01*
X74450000Y-59000000D02*
X81550000Y-59000000D01*
X81550000Y-55000000D02*
X74450000Y-55000000D01*
X81550000Y-59000000D02*
X81550000Y-55000000D01*
%TO.C,R6*%
X56520000Y-30270000D02*
X59480000Y-30270000D01*
X59480000Y-31730000D01*
X56520000Y-31730000D01*
X56520000Y-30270000D01*
%TO.C,TP10*%
X11000000Y-59000000D02*
G75*
G02*
X9000000Y-59000000I-1000000J0D01*
G01*
X9000000Y-59000000D02*
G75*
G02*
X11000000Y-59000000I1000000J0D01*
G01*
%TO.C,TP6*%
X9000000Y-33000000D02*
G75*
G02*
X7000000Y-33000000I-1000000J0D01*
G01*
X7000000Y-33000000D02*
G75*
G02*
X9000000Y-33000000I1000000J0D01*
G01*
%TO.C,C12*%
X66520000Y-59270000D02*
X69480000Y-59270000D01*
X69480000Y-60730000D01*
X66520000Y-60730000D01*
X66520000Y-59270000D01*
%TO.C,TP4*%
X9000000Y-23000000D02*
G75*
G02*
X7000000Y-23000000I-1000000J0D01*
G01*
X7000000Y-23000000D02*
G75*
G02*
X9000000Y-23000000I1000000J0D01*
G01*
%TO.C,C15*%
X39520000Y-30270000D02*
X42480000Y-30270000D01*
X42480000Y-31730000D01*
X39520000Y-31730000D01*
X39520000Y-30270000D01*
%TO.C,C2*%
X50520000Y-43270000D02*
X53480000Y-43270000D01*
X53480000Y-44730000D01*
X50520000Y-44730000D01*
X50520000Y-43270000D01*
%TO.C,TP7*%
X9000000Y-38000000D02*
G75*
G02*
X7000000Y-38000000I-1000000J0D01*
G01*
X7000000Y-38000000D02*
G75*
G02*
X9000000Y-38000000I1000000J0D01*
G01*
%TO.C,C13*%
X24520000Y-37270000D02*
X27480000Y-37270000D01*
X27480000Y-38730000D01*
X24520000Y-38730000D01*
X24520000Y-37270000D01*
%TO.C,C10*%
X59520000Y-35270000D02*
X62480000Y-35270000D01*
X62480000Y-36730000D01*
X59520000Y-36730000D01*
X59520000Y-35270000D01*
%TO.C,TP1*%
X9000000Y-8000000D02*
G75*
G02*
X7000000Y-8000000I-1000000J0D01*
G01*
X7000000Y-8000000D02*
G75*
G02*
X9000000Y-8000000I1000000J0D01*
G01*
%TO.C,J1*%
X42680000Y-60730000D02*
X42680000Y-70150000D01*
X53320000Y-60730000D02*
X42680000Y-60730000D01*
X53320000Y-60730000D02*
X53320000Y-70150000D01*
X53320000Y-70150000D02*
X42680000Y-70150000D01*
%TO.C,TP9*%
X11000000Y-55000000D02*
G75*
G02*
X9000000Y-55000000I-1000000J0D01*
G01*
X9000000Y-55000000D02*
G75*
G02*
X11000000Y-55000000I1000000J0D01*
G01*
%TO.C,U3*%
X22300000Y-47540000D02*
X22300000Y-52460000D01*
X22300000Y-52460000D02*
X23800000Y-52460000D01*
X23800000Y-47300000D02*
X23800000Y-47540000D01*
X23800000Y-47540000D02*
X22300000Y-47540000D01*
X23800000Y-52460000D02*
X23800000Y-52700000D01*
X23800000Y-52700000D02*
X28200000Y-52700000D01*
X28200000Y-47300000D02*
X23800000Y-47300000D01*
X28200000Y-47540000D02*
X28200000Y-47300000D01*
X28200000Y-52460000D02*
X29700000Y-52460000D01*
X28200000Y-52700000D02*
X28200000Y-52460000D01*
X29700000Y-47540000D02*
X28200000Y-47540000D01*
X29700000Y-52460000D02*
X29700000Y-47540000D01*
%TO.C,TP5*%
X9000000Y-28000000D02*
G75*
G02*
X7000000Y-28000000I-1000000J0D01*
G01*
X7000000Y-28000000D02*
G75*
G02*
X9000000Y-28000000I1000000J0D01*
G01*
%TO.C,TP13*%
X16000000Y-59000000D02*
G75*
G02*
X14000000Y-59000000I-1000000J0D01*
G01*
X14000000Y-59000000D02*
G75*
G02*
X16000000Y-59000000I1000000J0D01*
G01*
%TO.C,TP12*%
X16000000Y-55000000D02*
G75*
G02*
X14000000Y-55000000I-1000000J0D01*
G01*
X14000000Y-55000000D02*
G75*
G02*
X16000000Y-55000000I1000000J0D01*
G01*
%TO.C,C16*%
X60520000Y-26270000D02*
X63480000Y-26270000D01*
X63480000Y-27730000D01*
X60520000Y-27730000D01*
X60520000Y-26270000D01*
%TO.C,Y1*%
X26900000Y-40250000D02*
X31100000Y-40250000D01*
X31100000Y-43750000D01*
X26900000Y-43750000D01*
X26900000Y-40250000D01*
%TO.C,C14*%
X30520000Y-37270000D02*
X33480000Y-37270000D01*
X33480000Y-38730000D01*
X30520000Y-38730000D01*
X30520000Y-37270000D01*
%TO.C,C4*%
X50520000Y-22270000D02*
X53480000Y-22270000D01*
X53480000Y-23730000D01*
X50520000Y-23730000D01*
X50520000Y-22270000D01*
%TO.C,C8*%
X59520000Y-55270000D02*
X62480000Y-55270000D01*
X62480000Y-56730000D01*
X59520000Y-56730000D01*
X59520000Y-55270000D01*
%TO.C,U1*%
X41870000Y-47050000D02*
X41870000Y-52950000D01*
X41870000Y-52950000D02*
X42250000Y-52950000D01*
X42250000Y-46250000D02*
X42250000Y-47050000D01*
X42250000Y-47050000D02*
X41870000Y-47050000D01*
X42250000Y-52950000D02*
X42250000Y-53750000D01*
X42250000Y-53750000D02*
X43050000Y-53750000D01*
X43050000Y-45870000D02*
X43050000Y-46250000D01*
X43050000Y-46250000D02*
X42250000Y-46250000D01*
X43050000Y-53750000D02*
X43050000Y-54130000D01*
X43050000Y-54130000D02*
X48950000Y-54130000D01*
X48950000Y-45870000D02*
X43050000Y-45870000D01*
X48950000Y-46250000D02*
X48950000Y-45870000D01*
X48950000Y-53750000D02*
X49750000Y-53750000D01*
X48950000Y-54130000D02*
X48950000Y-53750000D01*
X49750000Y-46250000D02*
X48950000Y-46250000D01*
X49750000Y-47050000D02*
X49750000Y-46250000D01*
X49750000Y-52950000D02*
X50130000Y-52950000D01*
X49750000Y-53750000D02*
X49750000Y-52950000D01*
X50130000Y-47050000D02*
X49750000Y-47050000D01*
X50130000Y-52950000D02*
X50130000Y-47050000D01*
%TO.C,TP3*%
X9000000Y-18000000D02*
G75*
G02*
X7000000Y-18000000I-1000000J0D01*
G01*
X7000000Y-18000000D02*
G75*
G02*
X9000000Y-18000000I1000000J0D01*
G01*
%TO.C,C5*%
X22520000Y-44270000D02*
X25480000Y-44270000D01*
X25480000Y-45730000D01*
X22520000Y-45730000D01*
X22520000Y-44270000D01*
%TO.C,R1*%
X37520000Y-55270000D02*
X40480000Y-55270000D01*
X40480000Y-56730000D01*
X37520000Y-56730000D01*
X37520000Y-55270000D01*
%TO.C,C11*%
X67520000Y-55270000D02*
X70480000Y-55270000D01*
X70480000Y-56730000D01*
X67520000Y-56730000D01*
X67520000Y-55270000D01*
%TO.C,C9*%
X29520000Y-35270000D02*
X32480000Y-35270000D01*
X32480000Y-36730000D01*
X29520000Y-36730000D01*
X29520000Y-35270000D01*
%TO.C,R8*%
X60520000Y-30270000D02*
X63480000Y-30270000D01*
X63480000Y-31730000D01*
X60520000Y-31730000D01*
X60520000Y-30270000D01*
%TO.C,C3*%
X38520000Y-22270000D02*
X41480000Y-22270000D01*
X41480000Y-23730000D01*
X38520000Y-23730000D01*
X38520000Y-22270000D01*
%TO.C,C1*%
X38520000Y-43270000D02*
X41480000Y-43270000D01*
X41480000Y-44730000D01*
X38520000Y-44730000D01*
X38520000Y-43270000D01*
%TO.C,C7*%
X33520000Y-57270000D02*
X36480000Y-57270000D01*
X36480000Y-58730000D01*
X33520000Y-58730000D01*
X33520000Y-57270000D01*
%TO.C,U5*%
X36200000Y-60300000D02*
X36200000Y-61700000D01*
X36200000Y-61700000D02*
X37800000Y-61700000D01*
X37800000Y-60300000D02*
X36200000Y-60300000D01*
X37800000Y-61700000D02*
X37800000Y-60300000D01*
%TO.C,C6*%
X66520000Y-46270000D02*
X69480000Y-46270000D01*
X69480000Y-47730000D01*
X66520000Y-47730000D01*
X66520000Y-46270000D01*
%TO.C,U2*%
X43370000Y-25250000D02*
X43370000Y-28750000D01*
X43370000Y-28750000D02*
X43750000Y-28750000D01*
X43750000Y-24750000D02*
X43750000Y-25250000D01*
X43750000Y-25250000D02*
X43370000Y-25250000D01*
X43750000Y-28750000D02*
X43750000Y-29250000D01*
X43750000Y-29250000D02*
X44250000Y-29250000D01*
X44250000Y-24370000D02*
X44250000Y-24750000D01*
X44250000Y-24750000D02*
X43750000Y-24750000D01*
X44250000Y-29250000D02*
X44250000Y-29630000D01*
X44250000Y-29630000D02*
X47750000Y-29630000D01*
X47750000Y-24370000D02*
X44250000Y-24370000D01*
X47750000Y-24750000D02*
X47750000Y-24370000D01*
X47750000Y-29250000D02*
X48250000Y-29250000D01*
X47750000Y-29630000D02*
X47750000Y-29250000D01*
X48250000Y-24750000D02*
X47750000Y-24750000D01*
X48250000Y-25250000D02*
X48250000Y-24750000D01*
X48250000Y-28750000D02*
X48630000Y-28750000D01*
X48250000Y-29250000D02*
X48250000Y-28750000D01*
X48630000Y-25250000D02*
X48250000Y-25250000D01*
X48630000Y-28750000D02*
X48630000Y-25250000D01*
%TO.C,R2*%
X41520000Y-55270000D02*
X44480000Y-55270000D01*
X44480000Y-56730000D01*
X41520000Y-56730000D01*
X41520000Y-55270000D01*
%TD*%
M02*
