%TF.GenerationSoftware,KiCad,Pcbnew,10.0.3*%
%TF.CreationDate,2026-05-30T19:10:27+08:00*%
%TF.ProjectId,tellmelight_rev_a2,74656c6c-6d65-46c6-9967-68745f726576,A2*%
%TF.SameCoordinates,Original*%
%TF.FileFunction,Copper,L1,Top*%
%TF.FilePolarity,Positive*%
%FSLAX46Y46*%
G04 Gerber Fmt 4.6, Leading zero omitted, Abs format (unit mm)*
G04 Created by KiCad (PCBNEW 10.0.3) date 2026-05-30 19:10:27*
%MOMM*%
%LPD*%
G01*
G04 APERTURE LIST*
%TA.AperFunction,SMDPad,CuDef*%
%ADD10R,0.900000X1.500000*%
%TD*%
%TA.AperFunction,HeatsinkPad*%
%ADD11C,0.500000*%
%TD*%
%TA.AperFunction,HeatsinkPad*%
%ADD12R,2.800000X2.800000*%
%TD*%
%TA.AperFunction,HeatsinkPad*%
%ADD13R,3.200000X3.200000*%
%TD*%
%TA.AperFunction,ComponentPad*%
%ADD14O,1.000000X1.600000*%
%TD*%
%TA.AperFunction,ComponentPad*%
%ADD15O,1.000000X2.100000*%
%TD*%
G04 APERTURE END LIST*
D10*
%TO.P,D1,1*%
%TO.N,N/C*%
X15800000Y-21050000D03*
%TO.P,D1,2*%
X17200000Y-21050000D03*
%TO.P,D1,3*%
X15800000Y-17950000D03*
%TO.P,D1,4*%
X17200000Y-17950000D03*
%TD*%
%TO.P,D4,1*%
%TO.N,N/C*%
X57800000Y-35550000D03*
%TO.P,D4,2*%
X59200000Y-35550000D03*
%TO.P,D4,3*%
X57800000Y-32450000D03*
%TO.P,D4,4*%
X59200000Y-32450000D03*
%TD*%
%TO.P,D2,1*%
%TO.N,N/C*%
X15800000Y-46050000D03*
%TO.P,D2,2*%
X17200000Y-46050000D03*
%TO.P,D2,3*%
X15800000Y-42950000D03*
%TO.P,D2,4*%
X17200000Y-42950000D03*
%TD*%
%TO.P,D5,1*%
%TO.N,N/C*%
X81300000Y-21550000D03*
%TO.P,D5,2*%
X82700000Y-21550000D03*
%TO.P,D5,3*%
X81300000Y-18450000D03*
%TO.P,D5,4*%
X82700000Y-18450000D03*
%TD*%
%TO.P,D6,1*%
%TO.N,N/C*%
X81300000Y-48050000D03*
%TO.P,D6,2*%
X82700000Y-48050000D03*
%TO.P,D6,3*%
X81300000Y-44950000D03*
%TO.P,D6,4*%
X82700000Y-44950000D03*
%TD*%
%TO.P,D3,1*%
%TO.N,N/C*%
X36800000Y-41550000D03*
%TO.P,D3,2*%
X38200000Y-41550000D03*
%TO.P,D3,3*%
X36800000Y-38450000D03*
%TO.P,D3,4*%
X38200000Y-38450000D03*
%TD*%
D11*
%TO.P,U2,33*%
%TO.N,N/C*%
X44850000Y-25850000D03*
X44850000Y-27000000D03*
X44850000Y-28150000D03*
X46000000Y-25850000D03*
X46000000Y-27000000D03*
D12*
X46000000Y-27000000D03*
D11*
X46000000Y-28150000D03*
X47150000Y-25850000D03*
X47150000Y-27000000D03*
X47150000Y-28150000D03*
%TD*%
%TO.P,U1,57*%
%TO.N,N/C*%
X44650000Y-48650000D03*
X44650000Y-51350000D03*
D13*
X46000000Y-50000000D03*
D11*
X47350000Y-48650000D03*
X47350000Y-51350000D03*
%TD*%
D14*
%TO.P,J1,SH*%
%TO.N,N/C*%
X52320000Y-67050000D03*
D15*
X52320000Y-62870000D03*
D14*
X43680000Y-67050000D03*
D15*
X43680000Y-62870000D03*
%TD*%
M02*
