%TF.GenerationSoftware,KiCad,Pcbnew,10.0.3*%
%TF.CreationDate,2026-06-01T01:37:37+08:00*%
%TF.ProjectId,tellmelight_rev_a4,74656c6c-6d65-46c6-9967-68745f726576,A4*%
%TF.SameCoordinates,Original*%
%TF.FileFunction,Paste,Top*%
%TF.FilePolarity,Positive*%
%FSLAX46Y46*%
G04 Gerber Fmt 4.6, Leading zero omitted, Abs format (unit mm)*
G04 Created by KiCad (PCBNEW 10.0.3) date 2026-06-01 01:37:37*
%MOMM*%
%LPD*%
G01*
G04 APERTURE LIST*
%ADD10R,0.900000X1.500000*%
%ADD11C,0.350000*%
%ADD12C,0.200000*%
%ADD13O,0.600000X1.200000*%
%ADD14O,0.600000X1.700000*%
G04 APERTURE END LIST*
D10*
%TO.C,D5*%
X63300000Y-17050000D03*
X64700000Y-17050000D03*
X63300000Y-13950000D03*
X64700000Y-13950000D03*
%TD*%
%TO.C,D3*%
X28300000Y-35550000D03*
X29700000Y-35550000D03*
X28300000Y-32450000D03*
X29700000Y-32450000D03*
%TD*%
%TO.C,D1*%
X10100000Y-15550000D03*
X11500000Y-15550000D03*
X10100000Y-12450000D03*
X11500000Y-12450000D03*
%TD*%
%TO.C,D2*%
X10100000Y-38050000D03*
X11500000Y-38050000D03*
X10100000Y-34950000D03*
X11500000Y-34950000D03*
%TD*%
%TO.C,D4*%
X44800000Y-30550000D03*
X46200000Y-30550000D03*
X44800000Y-27450000D03*
X46200000Y-27450000D03*
%TD*%
%TO.C,D6*%
X63300000Y-40050000D03*
X64700000Y-40050000D03*
X63300000Y-36950000D03*
X64700000Y-36950000D03*
%TD*%
D11*
X72000000Y-4000000D03*
X4000000Y-52000000D03*
X72000000Y-52000000D03*
X4000000Y-4000000D03*
D12*
X36650000Y-37650000D03*
X36650000Y-40350000D03*
X39350000Y-37650000D03*
X39350000Y-40350000D03*
X36850000Y-22850000D03*
X36850000Y-24000000D03*
X36850000Y-25150000D03*
X38000000Y-22850000D03*
X38000000Y-24000000D03*
X38000000Y-25150000D03*
X39150000Y-22850000D03*
X39150000Y-24000000D03*
X39150000Y-25150000D03*
D11*
X40890000Y-48400000D03*
X35110000Y-48400000D03*
D13*
X42320000Y-52050000D03*
D14*
X42320000Y-47870000D03*
D13*
X33680000Y-52050000D03*
D14*
X33680000Y-47870000D03*
M02*
