%TF.GenerationSoftware,KiCad,Pcbnew,10.0.3*%
%TF.CreationDate,2026-06-01T02:14:20+08:00*%
%TF.ProjectId,tellmelight_rev_a4,74656c6c-6d65-46c6-9967-68745f726576,A4*%
%TF.SameCoordinates,Original*%
%TF.FileFunction,Copper,L4,Bot*%
%TF.FilePolarity,Positive*%
%FSLAX46Y46*%
G04 Gerber Fmt 4.6, Leading zero omitted, Abs format (unit mm)*
G04 Created by KiCad (PCBNEW 10.0.3) date 2026-06-01 02:14:20*
%MOMM*%
%LPD*%
G01*
G04 APERTURE LIST*
G04 Aperture macros list*
%AMRoundRect*
0 Rectangle with rounded corners*
0 $1 Rounding radius*
0 $2 $3 $4 $5 $6 $7 $8 $9 X,Y pos of 4 corners*
0 Add a 4 corners polygon primitive as box body*
4,1,4,$2,$3,$4,$5,$6,$7,$8,$9,$2,$3,0*
0 Add four circle primitives for the rounded corners*
1,1,$1+$1,$2,$3*
1,1,$1+$1,$4,$5*
1,1,$1+$1,$6,$7*
1,1,$1+$1,$8,$9*
0 Add four rect primitives between the rounded corners*
20,1,$1+$1,$2,$3,$4,$5,0*
20,1,$1+$1,$4,$5,$6,$7,0*
20,1,$1+$1,$6,$7,$8,$9,0*
20,1,$1+$1,$8,$9,$2,$3,0*%
G04 Aperture macros list end*
%TA.AperFunction,SMDPad,CuDef*%
%ADD10RoundRect,0.150000X0.150000X0.575000X-0.150000X0.575000X-0.150000X-0.575000X0.150000X-0.575000X0*%
%TD*%
%TA.AperFunction,SMDPad,CuDef*%
%ADD11RoundRect,0.075000X0.075000X0.650000X-0.075000X0.650000X-0.075000X-0.650000X0.075000X-0.650000X0*%
%TD*%
%TA.AperFunction,ComponentPad*%
%ADD12O,1.000000X1.600000*%
%TD*%
%TA.AperFunction,ComponentPad*%
%ADD13O,1.000000X2.100000*%
%TD*%
%TA.AperFunction,SMDPad,CuDef*%
%ADD14RoundRect,0.075000X-0.075000X-0.175000X0.075000X-0.175000X0.075000X0.175000X-0.075000X0.175000X0*%
%TD*%
%TA.AperFunction,SMDPad,CuDef*%
%ADD15RoundRect,0.225000X-0.225000X-0.250000X0.225000X-0.250000X0.225000X0.250000X-0.225000X0.250000X0*%
%TD*%
%TA.AperFunction,SMDPad,CuDef*%
%ADD16RoundRect,0.200000X-0.200000X-0.275000X0.200000X-0.275000X0.200000X0.275000X-0.200000X0.275000X0*%
%TD*%
%TA.AperFunction,SMDPad,CuDef*%
%ADD17RoundRect,0.250000X-0.450000X-0.350000X0.450000X-0.350000X0.450000X0.350000X-0.450000X0.350000X0*%
%TD*%
%TA.AperFunction,SMDPad,CuDef*%
%ADD18C,1.000000*%
%TD*%
%TA.AperFunction,SMDPad,CuDef*%
%ADD19RoundRect,0.050000X-0.387500X-0.050000X0.387500X-0.050000X0.387500X0.050000X-0.387500X0.050000X0*%
%TD*%
%TA.AperFunction,SMDPad,CuDef*%
%ADD20RoundRect,0.050000X-0.050000X-0.387500X0.050000X-0.387500X0.050000X0.387500X-0.050000X0.387500X0*%
%TD*%
%TA.AperFunction,HeatsinkPad*%
%ADD21R,3.200000X3.200000*%
%TD*%
%TA.AperFunction,SMDPad,CuDef*%
%ADD22RoundRect,0.150000X-0.825000X-0.150000X0.825000X-0.150000X0.825000X0.150000X-0.825000X0.150000X0*%
%TD*%
%TA.AperFunction,SMDPad,CuDef*%
%ADD23RoundRect,0.150000X-0.512500X-0.150000X0.512500X-0.150000X0.512500X0.150000X-0.512500X0.150000X0*%
%TD*%
%TA.AperFunction,SMDPad,CuDef*%
%ADD24RoundRect,0.250000X-0.475000X-0.250000X0.475000X-0.250000X0.475000X0.250000X-0.475000X0.250000X0*%
%TD*%
%TA.AperFunction,SMDPad,CuDef*%
%ADD25RoundRect,0.050000X-0.337500X-0.050000X0.337500X-0.050000X0.337500X0.050000X-0.337500X0.050000X0*%
%TD*%
%TA.AperFunction,SMDPad,CuDef*%
%ADD26RoundRect,0.050000X-0.050000X-0.337500X0.050000X-0.337500X0.050000X0.337500X-0.050000X0.337500X0*%
%TD*%
%TA.AperFunction,HeatsinkPad*%
%ADD27R,2.800000X2.800000*%
%TD*%
%TA.AperFunction,SMDPad,CuDef*%
%ADD28RoundRect,0.075000X-0.075000X-0.075000X0.075000X-0.075000X0.075000X0.075000X-0.075000X0.075000X0*%
%TD*%
%TA.AperFunction,ViaPad*%
%ADD29C,0.450000*%
%TD*%
%TA.AperFunction,Conductor*%
%ADD30C,0.100000*%
%TD*%
%ADD31C,0.300000*%
%ADD32C,0.350000*%
%ADD33O,0.600000X1.200000*%
%ADD34O,0.600000X1.700000*%
G04 APERTURE END LIST*
D10*
%TO.P,J1,A1*%
%TO.N,GND*%
X41250000Y-46955000D03*
%TO.P,J1,A4*%
%TO.N,VBUS*%
X40450000Y-46955000D03*
D11*
%TO.P,J1,A5*%
%TO.N,CC1*%
X39250000Y-46955000D03*
%TO.P,J1,A6*%
%TO.N,USB_DP_CONN*%
X38250000Y-46955000D03*
%TO.P,J1,A7*%
%TO.N,USB_DM_CONN*%
X37750000Y-46955000D03*
%TO.P,J1,A8*%
%TO.N,N/C*%
X36750000Y-46955000D03*
D10*
%TO.P,J1,A9*%
%TO.N,VBUS*%
X35550000Y-46955000D03*
%TO.P,J1,A12*%
%TO.N,GND*%
X34750000Y-46955000D03*
%TO.P,J1,B1*%
X34750000Y-46955000D03*
%TO.P,J1,B4*%
%TO.N,VBUS*%
X35550000Y-46955000D03*
D11*
%TO.P,J1,B5*%
%TO.N,CC2*%
X36250000Y-46955000D03*
%TO.P,J1,B6*%
%TO.N,USB_DP_CONN*%
X37250000Y-46955000D03*
%TO.P,J1,B7*%
%TO.N,USB_DM_CONN*%
X38750000Y-46955000D03*
%TO.P,J1,B8*%
%TO.N,N/C*%
X39750000Y-46955000D03*
D10*
%TO.P,J1,B9*%
%TO.N,VBUS*%
X40450000Y-46955000D03*
%TO.P,J1,B12*%
%TO.N,GND*%
X41250000Y-46955000D03*
D12*
%TO.P,J1,SH*%
%TO.N,SHIELD*%
X42320000Y-52050000D03*
D13*
X42320000Y-47870000D03*
D12*
X33680000Y-52050000D03*
D13*
X33680000Y-47870000D03*
%TD*%
D14*
%TO.P,U6,1*%
%TO.N,VLED*%
X23650000Y-48000000D03*
%TO.P,U6,2*%
%TO.N,GND*%
X24350000Y-48000000D03*
%TD*%
D15*
%TO.P,C6,1*%
%TO.N,3V3*%
X55225000Y-34000000D03*
%TO.P,C6,2*%
%TO.N,GND*%
X56775000Y-34000000D03*
%TD*%
D16*
%TO.P,R8,1*%
%TO.N,3V3*%
X53175000Y-28000000D03*
%TO.P,R8,2*%
%TO.N,LP_EN*%
X54825000Y-28000000D03*
%TD*%
D17*
%TO.P,Y1,1*%
%TO.N,XIN*%
X22900000Y-31150000D03*
%TO.P,Y1,2*%
%TO.N,GND*%
X25100000Y-31150000D03*
%TO.P,Y1,3*%
%TO.N,XOUT*%
X25100000Y-32850000D03*
%TO.P,Y1,4*%
%TO.N,GND*%
X22900000Y-32850000D03*
%TD*%
D18*
%TO.P,TP4,1*%
%TO.N,I2C0_SDA*%
X4000000Y-21000000D03*
%TD*%
D15*
%TO.P,C7,1*%
%TO.N,3V3_USB*%
X41225000Y-44500000D03*
%TO.P,C7,2*%
%TO.N,GND*%
X42775000Y-44500000D03*
%TD*%
%TO.P,C3,1*%
%TO.N,3V3*%
X31225000Y-20000000D03*
%TO.P,C3,2*%
%TO.N,GND*%
X32775000Y-20000000D03*
%TD*%
D19*
%TO.P,U1,1*%
%TO.N,3V3*%
X34562500Y-41600000D03*
%TO.P,U1,2*%
%TO.N,GPIO0_RESERVED*%
X34562500Y-41200000D03*
%TO.P,U1,3*%
%TO.N,GPIO1_RESERVED_LP_EN_OPTION*%
X34562500Y-40800000D03*
%TO.P,U1,4*%
%TO.N,N/C*%
X34562500Y-40400000D03*
%TO.P,U1,5*%
X34562500Y-40000000D03*
%TO.P,U1,6*%
%TO.N,I2C0_SDA*%
X34562500Y-39600000D03*
%TO.P,U1,7*%
%TO.N,I2C0_SCL*%
X34562500Y-39200000D03*
%TO.P,U1,8*%
%TO.N,N/C*%
X34562500Y-38800000D03*
%TO.P,U1,9*%
X34562500Y-38400000D03*
%TO.P,U1,10*%
%TO.N,3V3*%
X34562500Y-38000000D03*
%TO.P,U1,11*%
%TO.N,N/C*%
X34562500Y-37600000D03*
%TO.P,U1,12*%
X34562500Y-37200000D03*
%TO.P,U1,13*%
X34562500Y-36800000D03*
%TO.P,U1,14*%
X34562500Y-36400000D03*
D20*
%TO.P,U1,15*%
X35400000Y-35562500D03*
%TO.P,U1,16*%
X35800000Y-35562500D03*
%TO.P,U1,17*%
X36200000Y-35562500D03*
%TO.P,U1,18*%
X36600000Y-35562500D03*
%TO.P,U1,19*%
%TO.N,GND*%
X37000000Y-35562500D03*
%TO.P,U1,20*%
%TO.N,XIN*%
X37400000Y-35562500D03*
%TO.P,U1,21*%
%TO.N,XOUT*%
X37800000Y-35562500D03*
%TO.P,U1,22*%
%TO.N,3V3*%
X38200000Y-35562500D03*
%TO.P,U1,23*%
X38600000Y-35562500D03*
%TO.P,U1,24*%
%TO.N,SWCLK*%
X39000000Y-35562500D03*
%TO.P,U1,25*%
%TO.N,SWDIO*%
X39400000Y-35562500D03*
%TO.P,U1,26*%
%TO.N,RUN_RESET*%
X39800000Y-35562500D03*
%TO.P,U1,27*%
%TO.N,N/C*%
X40200000Y-35562500D03*
%TO.P,U1,28*%
X40600000Y-35562500D03*
D19*
%TO.P,U1,29*%
X41437500Y-36400000D03*
%TO.P,U1,30*%
X41437500Y-36800000D03*
%TO.P,U1,31*%
X41437500Y-37200000D03*
%TO.P,U1,32*%
X41437500Y-37600000D03*
%TO.P,U1,33*%
%TO.N,3V3*%
X41437500Y-38000000D03*
%TO.P,U1,34*%
%TO.N,N/C*%
X41437500Y-38400000D03*
%TO.P,U1,35*%
X41437500Y-38800000D03*
%TO.P,U1,36*%
X41437500Y-39200000D03*
%TO.P,U1,37*%
X41437500Y-39600000D03*
%TO.P,U1,38*%
X41437500Y-40000000D03*
%TO.P,U1,39*%
X41437500Y-40400000D03*
%TO.P,U1,40*%
X41437500Y-40800000D03*
%TO.P,U1,41*%
X41437500Y-41200000D03*
%TO.P,U1,42*%
%TO.N,3V3*%
X41437500Y-41600000D03*
D20*
%TO.P,U1,43*%
%TO.N,N/C*%
X40600000Y-42437500D03*
%TO.P,U1,44*%
%TO.N,3V3*%
X40200000Y-42437500D03*
%TO.P,U1,45*%
%TO.N,RP2040_VREG_OUT*%
X39800000Y-42437500D03*
%TO.P,U1,46*%
%TO.N,USB_DM_MCU*%
X39400000Y-42437500D03*
%TO.P,U1,47*%
%TO.N,USB_DP_MCU*%
X39000000Y-42437500D03*
%TO.P,U1,48*%
%TO.N,3V3_USB*%
X38600000Y-42437500D03*
%TO.P,U1,49*%
%TO.N,3V3*%
X38200000Y-42437500D03*
%TO.P,U1,50*%
X37800000Y-42437500D03*
%TO.P,U1,51*%
%TO.N,FLASH_HOLD_IO3*%
X37400000Y-42437500D03*
%TO.P,U1,52*%
%TO.N,FLASH_SCLK*%
X37000000Y-42437500D03*
%TO.P,U1,53*%
%TO.N,FLASH_IO0_MOSI*%
X36600000Y-42437500D03*
%TO.P,U1,54*%
%TO.N,FLASH_WP_IO2*%
X36200000Y-42437500D03*
%TO.P,U1,55*%
%TO.N,FLASH_IO1_MISO*%
X35800000Y-42437500D03*
%TO.P,U1,56*%
%TO.N,FLASH_CS_N_BOOTSEL*%
X35400000Y-42437500D03*
D21*
%TO.P,U1,57*%
%TO.N,GND*%
X38000000Y-39000000D03*
%TD*%
D15*
%TO.P,C9,1*%
%TO.N,3V3*%
X24225000Y-26000000D03*
%TO.P,C9,2*%
%TO.N,GND*%
X25775000Y-26000000D03*
%TD*%
D18*
%TO.P,TP12,1*%
%TO.N,3V3*%
X22000000Y-52000000D03*
%TD*%
D16*
%TO.P,R9,1*%
%TO.N,SHIELD*%
X60175000Y-42000000D03*
%TO.P,R9,2*%
%TO.N,GND*%
X61825000Y-42000000D03*
%TD*%
D15*
%TO.P,C16,1*%
%TO.N,3V3*%
X54225000Y-22000000D03*
%TO.P,C16,2*%
%TO.N,GND*%
X55775000Y-22000000D03*
%TD*%
D22*
%TO.P,U3,1*%
%TO.N,FLASH_CS_N_BOOTSEL*%
X19525000Y-40905000D03*
%TO.P,U3,2*%
%TO.N,FLASH_IO1_MISO*%
X19525000Y-39635000D03*
%TO.P,U3,3*%
%TO.N,FLASH_WP_IO2*%
X19525000Y-38365000D03*
%TO.P,U3,4*%
%TO.N,GND*%
X19525000Y-37095000D03*
%TO.P,U3,5*%
%TO.N,FLASH_IO0_MOSI*%
X24475000Y-37095000D03*
%TO.P,U3,6*%
%TO.N,FLASH_SCLK*%
X24475000Y-38365000D03*
%TO.P,U3,7*%
%TO.N,FLASH_HOLD_IO3*%
X24475000Y-39635000D03*
%TO.P,U3,8*%
%TO.N,3V3*%
X24475000Y-40905000D03*
%TD*%
D15*
%TO.P,C2,1*%
%TO.N,3V3*%
X43225000Y-36000000D03*
%TO.P,C2,2*%
%TO.N,GND*%
X44775000Y-36000000D03*
%TD*%
%TO.P,C1,1*%
%TO.N,3V3*%
X31225000Y-36000000D03*
%TO.P,C1,2*%
%TO.N,GND*%
X32775000Y-36000000D03*
%TD*%
D18*
%TO.P,TP3,1*%
%TO.N,GND*%
X4000000Y-17000000D03*
%TD*%
D15*
%TO.P,C5,1*%
%TO.N,3V3*%
X19225000Y-34000000D03*
%TO.P,C5,2*%
%TO.N,GND*%
X20775000Y-34000000D03*
%TD*%
%TO.P,C17,1*%
%TO.N,SHIELD*%
X65225000Y-42000000D03*
%TO.P,C17,2*%
%TO.N,GND*%
X66775000Y-42000000D03*
%TD*%
%TO.P,C8,1*%
%TO.N,VBUS*%
X52225000Y-43000000D03*
%TO.P,C8,2*%
%TO.N,GND*%
X53775000Y-43000000D03*
%TD*%
D16*
%TO.P,R2,1*%
%TO.N,USB_DM_CONN*%
X48175000Y-44000000D03*
%TO.P,R2,2*%
%TO.N,USB_DM_MCU*%
X49825000Y-44000000D03*
%TD*%
%TO.P,R5,1*%
%TO.N,3V3*%
X44175000Y-28000000D03*
%TO.P,R5,2*%
%TO.N,I2C0_SDA*%
X45825000Y-28000000D03*
%TD*%
D18*
%TO.P,TP8,1*%
%TO.N,RUN_RESET*%
X4000000Y-37000000D03*
%TD*%
%TO.P,TP1,1*%
%TO.N,VBUS*%
X4000000Y-9000000D03*
%TD*%
D16*
%TO.P,R3,1*%
%TO.N,CC1*%
X49175000Y-49000000D03*
%TO.P,R3,2*%
%TO.N,GND*%
X50825000Y-49000000D03*
%TD*%
D18*
%TO.P,TP6,1*%
%TO.N,USB_DP_CONN*%
X4000000Y-29000000D03*
%TD*%
%TO.P,TP9,1*%
%TO.N,SWDIO*%
X10000000Y-50000000D03*
%TD*%
D15*
%TO.P,C15,1*%
%TO.N,LP_VCAP*%
X34225000Y-31000000D03*
%TO.P,C15,2*%
%TO.N,GND*%
X35775000Y-31000000D03*
%TD*%
D23*
%TO.P,U4,1*%
%TO.N,VBUS*%
X54862500Y-39950000D03*
%TO.P,U4,2*%
%TO.N,GND*%
X54862500Y-39000000D03*
%TO.P,U4,3*%
%TO.N,VBUS*%
X54862500Y-38050000D03*
%TO.P,U4,4*%
%TO.N,N/C*%
X57137500Y-38050000D03*
%TO.P,U4,5*%
%TO.N,3V3*%
X57137500Y-39950000D03*
%TD*%
D16*
%TO.P,R10,1*%
%TO.N,VBUS*%
X52175000Y-45000000D03*
%TO.P,R10,2*%
%TO.N,VLED*%
X53825000Y-45000000D03*
%TD*%
D15*
%TO.P,C10,1*%
%TO.N,3V3*%
X49225000Y-22000000D03*
%TO.P,C10,2*%
%TO.N,GND*%
X50775000Y-22000000D03*
%TD*%
%TO.P,C18,1*%
%TO.N,RP2040_VREG_OUT*%
X45725000Y-40500000D03*
%TO.P,C18,2*%
%TO.N,GND*%
X47275000Y-40500000D03*
%TD*%
%TO.P,C13,1*%
%TO.N,XIN*%
X20225000Y-28000000D03*
%TO.P,C13,2*%
%TO.N,GND*%
X21775000Y-28000000D03*
%TD*%
%TO.P,C12,1*%
%TO.N,3V3*%
X61225000Y-35000000D03*
%TO.P,C12,2*%
%TO.N,GND*%
X62775000Y-35000000D03*
%TD*%
%TO.P,C4,1*%
%TO.N,3V3*%
X43225000Y-20000000D03*
%TO.P,C4,2*%
%TO.N,GND*%
X44775000Y-20000000D03*
%TD*%
D24*
%TO.P,SW1,1*%
%TO.N,FLASH_CS_N_BOOTSEL*%
X58425000Y-48850000D03*
X63575000Y-48850000D03*
%TO.P,SW1,2*%
%TO.N,GND*%
X58425000Y-47150000D03*
X63575000Y-47150000D03*
%TD*%
D18*
%TO.P,TP10,1*%
%TO.N,SWCLK*%
X14000000Y-50000000D03*
%TD*%
D25*
%TO.P,U2,1*%
%TO.N,D1_R*%
X36012500Y-25400000D03*
%TO.P,U2,2*%
%TO.N,D1_G*%
X36012500Y-25000000D03*
%TO.P,U2,3*%
%TO.N,D1_B*%
X36012500Y-24600000D03*
%TO.P,U2,4*%
%TO.N,D2_R*%
X36012500Y-24200000D03*
%TO.P,U2,5*%
%TO.N,D2_G*%
X36012500Y-23800000D03*
%TO.P,U2,6*%
%TO.N,D2_B*%
X36012500Y-23400000D03*
%TO.P,U2,7*%
%TO.N,D3_R*%
X36012500Y-23000000D03*
%TO.P,U2,8*%
%TO.N,D3_G*%
X36012500Y-22600000D03*
D26*
%TO.P,U2,9*%
%TO.N,D3_B*%
X36600000Y-22012500D03*
%TO.P,U2,10*%
%TO.N,D4_R*%
X37000000Y-22012500D03*
%TO.P,U2,11*%
%TO.N,D4_G*%
X37400000Y-22012500D03*
%TO.P,U2,12*%
%TO.N,D4_B*%
X37800000Y-22012500D03*
%TO.P,U2,13*%
%TO.N,D5_R*%
X38200000Y-22012500D03*
%TO.P,U2,14*%
%TO.N,D5_G*%
X38600000Y-22012500D03*
%TO.P,U2,15*%
%TO.N,D5_B*%
X39000000Y-22012500D03*
%TO.P,U2,16*%
%TO.N,D6_R*%
X39400000Y-22012500D03*
D25*
%TO.P,U2,17*%
%TO.N,D6_G*%
X39987500Y-22600000D03*
%TO.P,U2,18*%
%TO.N,D6_B*%
X39987500Y-23000000D03*
%TO.P,U2,19*%
%TO.N,N/C*%
X39987500Y-23400000D03*
%TO.P,U2,20*%
X39987500Y-23800000D03*
%TO.P,U2,21*%
X39987500Y-24200000D03*
%TO.P,U2,22*%
X39987500Y-24600000D03*
%TO.P,U2,23*%
X39987500Y-25000000D03*
%TO.P,U2,24*%
X39987500Y-25400000D03*
D26*
%TO.P,U2,25*%
%TO.N,GND*%
X39400000Y-25987500D03*
%TO.P,U2,26*%
X39000000Y-25987500D03*
%TO.P,U2,27*%
%TO.N,3V3*%
X38600000Y-25987500D03*
%TO.P,U2,28*%
%TO.N,I2C0_SDA*%
X38200000Y-25987500D03*
%TO.P,U2,29*%
%TO.N,I2C0_SCL*%
X37800000Y-25987500D03*
%TO.P,U2,30*%
%TO.N,LP_EN*%
X37400000Y-25987500D03*
%TO.P,U2,31*%
%TO.N,LP_IREF*%
X37000000Y-25987500D03*
%TO.P,U2,32*%
%TO.N,LP_VCAP*%
X36600000Y-25987500D03*
D27*
%TO.P,U2,33*%
%TO.N,GND*%
X38000000Y-24000000D03*
%TD*%
D16*
%TO.P,R6,1*%
%TO.N,3V3*%
X48175000Y-28000000D03*
%TO.P,R6,2*%
%TO.N,I2C0_SCL*%
X49825000Y-28000000D03*
%TD*%
%TO.P,R7,1*%
%TO.N,LP_IREF*%
X29175000Y-32000000D03*
%TO.P,R7,2*%
%TO.N,GND*%
X30825000Y-32000000D03*
%TD*%
D24*
%TO.P,SW2,1*%
%TO.N,RUN_RESET*%
X66425000Y-48850000D03*
X71575000Y-48850000D03*
%TO.P,SW2,2*%
%TO.N,GND*%
X66425000Y-47150000D03*
X71575000Y-47150000D03*
%TD*%
D15*
%TO.P,C14,1*%
%TO.N,XOUT*%
X27225000Y-29000000D03*
%TO.P,C14,2*%
%TO.N,GND*%
X28775000Y-29000000D03*
%TD*%
D28*
%TO.P,U5,1*%
%TO.N,USB_DP_CONN*%
X28650000Y-47575000D03*
%TO.P,U5,2*%
%TO.N,USB_DM_CONN*%
X29350000Y-47575000D03*
%TO.P,U5,3*%
%TO.N,GND*%
X29000000Y-48425000D03*
%TD*%
D18*
%TO.P,TP7,1*%
%TO.N,USB_DM_CONN*%
X4000000Y-33000000D03*
%TD*%
%TO.P,TP2,1*%
%TO.N,3V3*%
X4000000Y-13000000D03*
%TD*%
%TO.P,TP5,1*%
%TO.N,I2C0_SCL*%
X4000000Y-25000000D03*
%TD*%
D16*
%TO.P,R1,1*%
%TO.N,USB_DP_CONN*%
X44175000Y-44000000D03*
%TO.P,R1,2*%
%TO.N,USB_DP_MCU*%
X45825000Y-44000000D03*
%TD*%
%TO.P,R4,1*%
%TO.N,CC2*%
X54175000Y-49000000D03*
%TO.P,R4,2*%
%TO.N,GND*%
X55825000Y-49000000D03*
%TD*%
D15*
%TO.P,C11,1*%
%TO.N,VBUS*%
X59225000Y-39000000D03*
%TO.P,C11,2*%
%TO.N,GND*%
X60775000Y-39000000D03*
%TD*%
D18*
%TO.P,TP13,1*%
%TO.N,GND*%
X26000000Y-52000000D03*
%TD*%
%TO.P,TP11,1*%
%TO.N,RUN_RESET*%
X18000000Y-50000000D03*
%TD*%
D29*
%TO.N,D5_B*%
X39000000Y-20562500D03*
%TO.N,VLED*%
X65140700Y-18133300D03*
X46980700Y-29648300D03*
X54594300Y-44182800D03*
X23633600Y-39000000D03*
X12273600Y-14648300D03*
%TO.N,D5_G*%
X38600000Y-19812500D03*
%TO.N,D5_R*%
X64700000Y-12850000D03*
X38200000Y-20562500D03*
%TO.N,D6_B*%
X42187500Y-23000000D03*
%TO.N,D6_G*%
X41437500Y-22600000D03*
%TO.N,D6_R*%
X39400000Y-19812500D03*
%TO.N,D2_B*%
X22328800Y-37148300D03*
X33812500Y-23400000D03*
%TO.N,D2_G*%
X34562500Y-23800000D03*
%TO.N,D2_R*%
X33812500Y-24200000D03*
X12268200Y-34048300D03*
X30187100Y-27483400D03*
%TO.N,D4_B*%
X37800000Y-19812500D03*
X45237000Y-29462000D03*
%TO.N,D4_G*%
X37400000Y-20562500D03*
%TO.N,D4_R*%
X37000000Y-19812500D03*
%TO.N,D1_B*%
X34562500Y-24600000D03*
X9727100Y-19269700D03*
%TO.N,D1_G*%
X33812500Y-25000000D03*
%TO.N,D1_R*%
X34562500Y-25400000D03*
%TO.N,D3_B*%
X28107500Y-34343400D03*
X36600000Y-20562500D03*
%TO.N,D3_G*%
X33812500Y-22600000D03*
X28454600Y-30472500D03*
%TO.N,D3_R*%
X34562500Y-23000000D03*
%TO.N,GND*%
X27523500Y-46887500D03*
X37000000Y-34112500D03*
X39000000Y-28187500D03*
X39400000Y-27437500D03*
%TO.N,VBUS*%
X9173400Y-46186200D03*
X4087700Y-9838600D03*
X51228200Y-45000000D03*
X34122300Y-46223400D03*
X42010800Y-46230200D03*
%TO.N,USB_DP_CONN*%
X28418400Y-46705200D03*
X5908200Y-43453600D03*
%TO.N,USB_DM_CONN*%
X5503000Y-39240000D03*
X30941000Y-45984000D03*
X39194900Y-45853200D03*
%TO.N,SHIELD*%
X58760200Y-45778600D03*
%TO.N,3V3*%
X37800000Y-43787500D03*
X40200000Y-43787500D03*
X38200000Y-44537500D03*
X32362500Y-41600000D03*
X38600000Y-27437500D03*
X38200000Y-33362500D03*
X25625900Y-41412200D03*
X42987500Y-38000000D03*
X42987500Y-41600000D03*
X33112500Y-38000000D03*
X38600000Y-34112500D03*
%TO.N,LP_EN*%
X37400000Y-28187500D03*
X55189300Y-28915100D03*
%TO.N,XIN*%
X37400000Y-33362500D03*
X23942100Y-31092000D03*
%TO.N,XOUT*%
X37800000Y-34112500D03*
X30484500Y-33164000D03*
%TO.N,I2C0_SDA*%
X38200000Y-28187500D03*
X33112500Y-39600000D03*
X4000000Y-23733600D03*
%TO.N,3V3_USB*%
X38600000Y-43787500D03*
%TO.N,I2C0_SCL*%
X37800000Y-27437500D03*
X32362500Y-39200000D03*
X4587500Y-25587500D03*
X49210900Y-28614100D03*
%TO.N,SWCLK*%
X14000000Y-49167100D03*
X39000000Y-33362500D03*
%TO.N,SWDIO*%
X10000000Y-39211800D03*
X39400000Y-34112500D03*
%TO.N,RUN_RESET*%
X65362700Y-48926100D03*
X39800000Y-33362500D03*
X18124300Y-34731800D03*
X18014800Y-49167400D03*
X4000000Y-36164800D03*
%TO.N,RP2040_VREG_OUT*%
X42940500Y-42987000D03*
X39800000Y-44537500D03*
%TO.N,USB_DM_MCU*%
X39400000Y-43787500D03*
X49396300Y-43156100D03*
%TO.N,USB_DP_MCU*%
X39000000Y-44537500D03*
%TO.N,FLASH_HOLD_IO3*%
X37400000Y-44537500D03*
%TO.N,FLASH_SCLK*%
X37000000Y-43787500D03*
%TO.N,FLASH_IO0_MOSI*%
X36600000Y-44537500D03*
%TO.N,FLASH_WP_IO2*%
X19525000Y-39000000D03*
X36200000Y-43787500D03*
%TO.N,FLASH_IO1_MISO*%
X35800000Y-44537500D03*
X17300000Y-39635000D03*
%TO.N,FLASH_CS_N_BOOTSEL*%
X35400000Y-43787500D03*
X21963200Y-40905000D03*
X61000000Y-47462700D03*
%TO.N,LP_VCAP*%
X36600000Y-28187500D03*
%TO.N,LP_IREF*%
X31029100Y-32806700D03*
X37000000Y-27437500D03*
%TD*%
%TO.N,D5_B*%
D30*
X39000000Y-22012500D02*
X39000000Y-20562500D01*
%TO.N,VLED*%
X53825000Y-45000000D02*
X54594300Y-44230700D01*
X23650000Y-48000000D02*
X23302400Y-47652400D01*
X54594300Y-44230700D02*
X54594300Y-44182800D01*
X23302400Y-47652400D02*
X23302400Y-39331200D01*
X23302400Y-39331200D02*
X23633600Y-39000000D01*
%TO.N,D5_G*%
X38600000Y-22012500D02*
X38600000Y-19812500D01*
%TO.N,D5_R*%
X38200000Y-22012500D02*
X38200000Y-20562500D01*
%TO.N,D6_B*%
X39987500Y-23000000D02*
X42187500Y-23000000D01*
%TO.N,D6_G*%
X39987500Y-22600000D02*
X41437500Y-22600000D01*
%TO.N,D6_R*%
X39400000Y-22012500D02*
X39400000Y-19812500D01*
%TO.N,D2_B*%
X36012500Y-23400000D02*
X33812500Y-23400000D01*
%TO.N,D2_G*%
X36012500Y-23800000D02*
X34562500Y-23800000D01*
%TO.N,D2_R*%
X36012500Y-24200000D02*
X33812500Y-24200000D01*
X30529100Y-27483400D02*
X30187100Y-27483400D01*
X33812500Y-24200000D02*
X30529100Y-27483400D01*
%TO.N,D4_B*%
X37800000Y-22012500D02*
X37800000Y-19812500D01*
%TO.N,D4_G*%
X37400000Y-22012500D02*
X37400000Y-20562500D01*
%TO.N,D4_R*%
X37000000Y-22012500D02*
X37000000Y-19812500D01*
%TO.N,D1_B*%
X36012500Y-24600000D02*
X34562500Y-24600000D01*
%TO.N,D1_G*%
X36012500Y-25000000D02*
X33812500Y-25000000D01*
%TO.N,D1_R*%
X36012500Y-25400000D02*
X34562500Y-25400000D01*
%TO.N,D3_B*%
X36600000Y-22012500D02*
X36600000Y-20562500D01*
%TO.N,D3_G*%
X36012500Y-22600000D02*
X33812500Y-22600000D01*
%TO.N,D3_R*%
X36012500Y-23000000D02*
X34562500Y-23000000D01*
%TO.N,GND*%
X38000000Y-39000000D02*
X38000000Y-37248300D01*
X45422200Y-41127800D02*
X46647200Y-41127800D01*
X24624500Y-28000000D02*
X24624500Y-27150500D01*
X38000000Y-37248300D02*
X37000000Y-36248300D01*
X25100000Y-31150000D02*
X23400000Y-32850000D01*
X61825000Y-41362300D02*
X61825000Y-40050000D01*
X28775000Y-29000000D02*
X26275000Y-26500000D01*
X21925000Y-32850000D02*
X20775000Y-34000000D01*
X31583200Y-48425000D02*
X33407200Y-46601000D01*
X39000000Y-25000000D02*
X38000000Y-24000000D01*
X61825000Y-42000000D02*
X61825000Y-41362300D01*
X39751700Y-40642200D02*
X42829800Y-43720200D01*
X20775000Y-35845000D02*
X20775000Y-34000000D01*
X58425000Y-47150000D02*
X58534200Y-47040800D01*
X16952600Y-34522600D02*
X19525000Y-37095000D01*
X50172600Y-49652400D02*
X42630700Y-49652400D01*
X44775000Y-20000000D02*
X48775000Y-20000000D01*
X39000000Y-25987500D02*
X39000000Y-28187500D01*
X63465800Y-47040800D02*
X63575000Y-47150000D01*
X26275000Y-26500000D02*
X25775000Y-26000000D01*
X39751700Y-39000000D02*
X39751700Y-40642200D01*
X54659200Y-39000000D02*
X53775000Y-39884200D01*
X61825000Y-41362300D02*
X66137300Y-41362300D01*
X66137300Y-41362300D02*
X66775000Y-42000000D01*
X39400000Y-25987500D02*
X39400000Y-27437500D01*
X53000000Y-46825000D02*
X53000000Y-43775000D01*
X30825000Y-32000000D02*
X28775000Y-29950000D01*
X25100000Y-31150000D02*
X24624500Y-30674500D01*
X49000000Y-47175000D02*
X50825000Y-49000000D01*
X44775000Y-38000000D02*
X44775000Y-36000000D01*
X51436000Y-21339000D02*
X55114000Y-21339000D01*
X39400000Y-25987500D02*
X39000000Y-25987500D01*
X27523500Y-46948500D02*
X29000000Y-48425000D01*
X35000000Y-36000000D02*
X32775000Y-36000000D01*
X42630700Y-49652400D02*
X41550700Y-48572400D01*
X56775000Y-23000000D02*
X56775000Y-34000000D01*
X19525000Y-37095000D02*
X20775000Y-35845000D01*
X42775000Y-43775000D02*
X42829800Y-43720200D01*
X58425000Y-47150000D02*
X56763300Y-47150000D01*
X53775000Y-39884200D02*
X53775000Y-43000000D01*
X37000000Y-36187100D02*
X35187100Y-36187100D01*
X41550700Y-47255700D02*
X41250000Y-46955000D01*
X55114000Y-21339000D02*
X55775000Y-22000000D01*
X56763300Y-47150000D02*
X56763300Y-45819100D01*
X50825000Y-49000000D02*
X53000000Y-46825000D01*
X37000000Y-32225000D02*
X35775000Y-31000000D01*
X54862500Y-39000000D02*
X54659200Y-39000000D01*
X26887500Y-50537500D02*
X26000000Y-51425000D01*
X37000000Y-36187100D02*
X37000000Y-35562500D01*
X50775000Y-22000000D02*
X51436000Y-21339000D01*
X37000000Y-36248300D02*
X37000000Y-36187100D01*
X66425000Y-42350000D02*
X66775000Y-42000000D01*
X62775000Y-37000000D02*
X62775000Y-35000000D01*
X29000000Y-48425000D02*
X31583200Y-48425000D01*
X60775000Y-39000000D02*
X62775000Y-37000000D01*
X39000000Y-25987500D02*
X39000000Y-25000000D01*
X53944200Y-43000000D02*
X53775000Y-43000000D01*
X56763300Y-45819100D02*
X53944200Y-43000000D01*
X23400000Y-32850000D02*
X22900000Y-32850000D01*
X56763300Y-48061700D02*
X56763300Y-47150000D01*
X32775000Y-33950000D02*
X30825000Y-32000000D01*
X37000000Y-34112500D02*
X37000000Y-32225000D01*
X27523500Y-46887500D02*
X27523500Y-46948500D01*
X42829800Y-43720200D02*
X45422200Y-41127800D01*
X28775000Y-29950000D02*
X28775000Y-29000000D01*
X66425000Y-47150000D02*
X63575000Y-47150000D01*
X49000000Y-42225000D02*
X49000000Y-47175000D01*
X24624500Y-27150500D02*
X25775000Y-26000000D01*
X47275000Y-40500000D02*
X44775000Y-38000000D01*
X50825000Y-49000000D02*
X50172600Y-49652400D01*
X55825000Y-49000000D02*
X56763300Y-48061700D01*
X46647200Y-41127800D02*
X47275000Y-40500000D01*
X35187100Y-36187100D02*
X35000000Y-36000000D01*
X47275000Y-40500000D02*
X49000000Y-42225000D01*
X22900000Y-32850000D02*
X21925000Y-32850000D01*
X53000000Y-43775000D02*
X53775000Y-43000000D01*
X26000000Y-51425000D02*
X26000000Y-52000000D01*
X29000000Y-48425000D02*
X26887500Y-50537500D01*
X37000000Y-35562500D02*
X37000000Y-34112500D01*
X41550700Y-48572400D02*
X41550700Y-47255700D01*
X48775000Y-20000000D02*
X50775000Y-22000000D01*
X24624500Y-30674500D02*
X24624500Y-28000000D01*
X21775000Y-28000000D02*
X24624500Y-28000000D01*
X4000000Y-17000000D02*
X16952600Y-29952600D01*
X38000000Y-39000000D02*
X39751700Y-39000000D01*
X61825000Y-40050000D02*
X60775000Y-39000000D01*
X33407200Y-46601000D02*
X34396000Y-46601000D01*
X42775000Y-44500000D02*
X42775000Y-43775000D01*
X55775000Y-22000000D02*
X56775000Y-23000000D01*
X62775000Y-35000000D02*
X61775000Y-34000000D01*
X61775000Y-34000000D02*
X56775000Y-34000000D01*
X58534200Y-47040800D02*
X63465800Y-47040800D01*
X66425000Y-47150000D02*
X66425000Y-42350000D01*
X16952600Y-29952600D02*
X16952600Y-34522600D01*
X26887500Y-50537500D02*
X24350000Y-48000000D01*
X32775000Y-36000000D02*
X32775000Y-33950000D01*
X32775000Y-20000000D02*
X26275000Y-26500000D01*
X66425000Y-47150000D02*
X71575000Y-47150000D01*
X34396000Y-46601000D02*
X34750000Y-46955000D01*
%TO.N,VBUS*%
X55490700Y-39463200D02*
X55003900Y-39950000D01*
X55490700Y-39463200D02*
X56444700Y-40417200D01*
X34298100Y-46047600D02*
X34122300Y-46223400D01*
X55677800Y-39276100D02*
X55490700Y-39463200D01*
X52175000Y-45000000D02*
X51228200Y-45000000D01*
X40450000Y-46502500D02*
X40899200Y-46053300D01*
X35000600Y-46047600D02*
X34298100Y-46047600D01*
X57807800Y-40417200D02*
X59225000Y-39000000D01*
X54701200Y-38050000D02*
X52225000Y-40526200D01*
X55053200Y-38050000D02*
X55677800Y-38674600D01*
X41833900Y-46053300D02*
X42010800Y-46230200D01*
X35550000Y-46955000D02*
X35550000Y-46597000D01*
X56444700Y-40417200D02*
X57807800Y-40417200D01*
X52225000Y-44950000D02*
X52225000Y-43000000D01*
X55677800Y-38674600D02*
X55677800Y-39276100D01*
X4087700Y-9087700D02*
X4087700Y-9838600D01*
X52175000Y-45000000D02*
X52225000Y-44950000D01*
X40899200Y-46053300D02*
X41833900Y-46053300D01*
X54862500Y-38050000D02*
X55053200Y-38050000D01*
X55003900Y-39950000D02*
X54862500Y-39950000D01*
X52225000Y-40526200D02*
X52225000Y-43000000D01*
X54862500Y-38050000D02*
X54701200Y-38050000D01*
X40450000Y-46955000D02*
X40450000Y-46502500D01*
X35550000Y-46597000D02*
X35000600Y-46047600D01*
X4000000Y-9000000D02*
X4087700Y-9087700D01*
%TO.N,CC1*%
X39798300Y-45851600D02*
X39250000Y-46399900D01*
X39250000Y-46399900D02*
X39250000Y-46955000D01*
X49175000Y-49000000D02*
X46026600Y-45851600D01*
X46026600Y-45851600D02*
X39798300Y-45851600D01*
%TO.N,USB_DP_CONN*%
X28418400Y-47343400D02*
X28650000Y-47575000D01*
X37250000Y-46392200D02*
X36703700Y-45845900D01*
X39128500Y-45383600D02*
X38250000Y-46262100D01*
X5908200Y-30908200D02*
X5908200Y-43453600D01*
X43228300Y-45383600D02*
X39128500Y-45383600D01*
X33049900Y-45845900D02*
X30967600Y-47928200D01*
X37250000Y-46955000D02*
X37250000Y-47580200D01*
X38250000Y-47500900D02*
X38250000Y-46955000D01*
X37250000Y-46955000D02*
X37250000Y-46392200D01*
X29003200Y-47928200D02*
X28650000Y-47575000D01*
X36703700Y-45845900D02*
X33049900Y-45845900D01*
X37918900Y-47832000D02*
X38250000Y-47500900D01*
X37501800Y-47832000D02*
X37918900Y-47832000D01*
X30967600Y-47928200D02*
X29003200Y-47928200D01*
X44175000Y-44000000D02*
X44175000Y-44436900D01*
X4000000Y-29000000D02*
X5908200Y-30908200D01*
X37250000Y-47580200D02*
X37501800Y-47832000D01*
X38250000Y-46262100D02*
X38250000Y-46955000D01*
X44175000Y-44436900D02*
X43228300Y-45383600D01*
X28418400Y-46705200D02*
X28418400Y-47343400D01*
%TO.N,USB_DM_CONN*%
X48175000Y-44000000D02*
X46531400Y-45643600D01*
X31280800Y-45644200D02*
X30941000Y-45984000D01*
X39194900Y-45853200D02*
X38750000Y-46298100D01*
X37750000Y-46343600D02*
X37050600Y-45644200D01*
X37750000Y-46955000D02*
X37750000Y-46343600D01*
X30941000Y-45984000D02*
X29350000Y-47575000D01*
X46531400Y-45643600D02*
X39404500Y-45643600D01*
X5503000Y-34503000D02*
X5503000Y-39240000D01*
X4000000Y-33000000D02*
X5503000Y-34503000D01*
X39404500Y-45643600D02*
X39194900Y-45853200D01*
X37050600Y-45644200D02*
X31280800Y-45644200D01*
X38750000Y-46298100D02*
X38750000Y-46955000D01*
%TO.N,CC2*%
X53306100Y-49868900D02*
X38557200Y-49868900D01*
X38557200Y-49868900D02*
X36250000Y-47561700D01*
X54175000Y-49000000D02*
X53306100Y-49868900D01*
X36250000Y-47561700D02*
X36250000Y-46955000D01*
%TO.N,SHIELD*%
X60175000Y-42000000D02*
X60437900Y-42262900D01*
X60437900Y-42654600D02*
X60437900Y-44100900D01*
X60437900Y-44100900D02*
X58760200Y-45778600D01*
X64570400Y-42654600D02*
X65225000Y-42000000D01*
X60437900Y-42654600D02*
X64570400Y-42654600D01*
X60437900Y-42262900D02*
X60437900Y-42654600D01*
%TO.N,3V3*%
X46275000Y-23050000D02*
X48175000Y-23050000D01*
X50275000Y-23050000D02*
X53175000Y-23050000D01*
X42987500Y-36237500D02*
X42987500Y-38000000D01*
X21213800Y-26000000D02*
X19225000Y-27988800D01*
X38600000Y-25987500D02*
X38600000Y-27437500D01*
X44826000Y-34399000D02*
X43225000Y-36000000D01*
X25118700Y-40905000D02*
X25625900Y-41412200D01*
X41437500Y-41600000D02*
X42987500Y-41600000D01*
X48175000Y-23050000D02*
X49225000Y-22000000D01*
X43225000Y-20000000D02*
X46275000Y-23050000D01*
X30225000Y-20000000D02*
X24225000Y-26000000D01*
X40200000Y-42437500D02*
X40200000Y-43787500D01*
X56294300Y-39106800D02*
X56294300Y-36165700D01*
X47524000Y-28651000D02*
X44826000Y-28651000D01*
X24000000Y-41380000D02*
X24000000Y-50000000D01*
X38600000Y-35562500D02*
X38200000Y-35562500D01*
X24000000Y-50000000D02*
X22000000Y-52000000D01*
X31872400Y-19352600D02*
X42577600Y-19352600D01*
X31225000Y-40462500D02*
X32362500Y-41600000D01*
X53175000Y-31950000D02*
X55225000Y-34000000D01*
X44826000Y-28651000D02*
X44826000Y-34399000D01*
X37800000Y-42437500D02*
X38200000Y-42437500D01*
X18988800Y-27988800D02*
X19225000Y-27988800D01*
X31225000Y-20000000D02*
X31872400Y-19352600D01*
X48175000Y-28000000D02*
X47524000Y-28651000D01*
X44826000Y-28651000D02*
X44175000Y-28000000D01*
X31225000Y-20000000D02*
X30225000Y-20000000D01*
X34562500Y-41600000D02*
X32362500Y-41600000D01*
X53175000Y-28000000D02*
X53175000Y-23050000D01*
X61225000Y-35000000D02*
X60059300Y-36165700D01*
X42577600Y-19352600D02*
X43225000Y-20000000D01*
X48175000Y-28000000D02*
X48175000Y-23050000D01*
X60059300Y-36165700D02*
X56294300Y-36165700D01*
X38600000Y-35562500D02*
X38600000Y-34112500D01*
X24475000Y-40905000D02*
X25118700Y-40905000D01*
X55225000Y-35096400D02*
X55225000Y-34000000D01*
X53175000Y-23050000D02*
X54225000Y-22000000D01*
X38200000Y-42437500D02*
X38200000Y-44537500D01*
X24225000Y-26000000D02*
X21213800Y-26000000D01*
X31225000Y-36000000D02*
X31225000Y-40462500D01*
X43225000Y-36000000D02*
X42987500Y-36237500D01*
X53175000Y-28000000D02*
X53175000Y-31950000D01*
X19225000Y-27988800D02*
X19225000Y-34000000D01*
X57137500Y-39950000D02*
X56294300Y-39106800D01*
X38200000Y-35562500D02*
X38200000Y-33362500D01*
X4000000Y-13000000D02*
X18988800Y-27988800D01*
X34562500Y-38000000D02*
X33112500Y-38000000D01*
X41437500Y-38000000D02*
X42987500Y-38000000D01*
X24475000Y-40905000D02*
X24000000Y-41380000D01*
X37800000Y-42437500D02*
X37800000Y-43787500D01*
X56294300Y-36165700D02*
X55225000Y-35096400D01*
X49225000Y-22000000D02*
X50275000Y-23050000D01*
%TO.N,LP_EN*%
X55189300Y-28364300D02*
X55189300Y-28915100D01*
X54825000Y-28000000D02*
X55189300Y-28364300D01*
X37400000Y-25987500D02*
X37400000Y-28187500D01*
%TO.N,XIN*%
X22900000Y-31150000D02*
X20225000Y-28475000D01*
X22900000Y-31150000D02*
X23884100Y-31150000D01*
X20225000Y-28475000D02*
X20225000Y-28000000D01*
X23884100Y-31150000D02*
X23942100Y-31092000D01*
X37400000Y-35562500D02*
X37400000Y-33362500D01*
%TO.N,XOUT*%
X29304600Y-33164000D02*
X30484500Y-33164000D01*
X27045300Y-30904700D02*
X27225000Y-30725000D01*
X25100000Y-32850000D02*
X27045300Y-30904700D01*
X27045300Y-30904700D02*
X29304600Y-33164000D01*
X37800000Y-35562500D02*
X37800000Y-34112500D01*
X27225000Y-30725000D02*
X27225000Y-29000000D01*
%TO.N,I2C0_SDA*%
X38200000Y-25987500D02*
X38200000Y-28187500D01*
X4000000Y-23733600D02*
X4000000Y-21000000D01*
X38620100Y-28607600D02*
X38200000Y-28187500D01*
X34562500Y-39600000D02*
X33112500Y-39600000D01*
X41313800Y-27361700D02*
X40067900Y-28607600D01*
X40067900Y-28607600D02*
X38620100Y-28607600D01*
X45825000Y-28000000D02*
X45186700Y-27361700D01*
X45186700Y-27361700D02*
X41313800Y-27361700D01*
%TO.N,3V3_USB*%
X38600000Y-43787500D02*
X38600000Y-44686600D01*
X38600000Y-44686600D02*
X39073400Y-45160000D01*
X40565000Y-45160000D02*
X41225000Y-44500000D01*
X39073400Y-45160000D02*
X40565000Y-45160000D01*
X38600000Y-42437500D02*
X38600000Y-43787500D01*
%TO.N,I2C0_SCL*%
X37800000Y-25987500D02*
X37800000Y-27437500D01*
X4000000Y-25000000D02*
X4587500Y-25587500D01*
X34562500Y-39200000D02*
X32362500Y-39200000D01*
X49825000Y-28000000D02*
X49210900Y-28614100D01*
%TO.N,SWCLK*%
X39000000Y-35562500D02*
X39000000Y-33362500D01*
X14000000Y-49167100D02*
X14000000Y-50000000D01*
%TO.N,SWDIO*%
X10000000Y-39211800D02*
X10000000Y-50000000D01*
X39400000Y-35562500D02*
X39400000Y-34112500D01*
%TO.N,RUN_RESET*%
X18000000Y-49182200D02*
X18000000Y-50000000D01*
X71575000Y-48850000D02*
X66425000Y-48850000D01*
X39800000Y-35562500D02*
X39800000Y-33362500D01*
X65362700Y-48926100D02*
X66348900Y-48926100D01*
X18014800Y-49167400D02*
X18000000Y-49182200D01*
X4000000Y-37000000D02*
X4000000Y-36164800D01*
X66348900Y-48926100D02*
X66425000Y-48850000D01*
%TO.N,RP2040_VREG_OUT*%
X45725000Y-40500000D02*
X45427500Y-40500000D01*
X39800000Y-42437500D02*
X39800000Y-44537500D01*
X45427500Y-40500000D02*
X42940500Y-42987000D01*
%TO.N,USB_DM_MCU*%
X39400000Y-42437500D02*
X39400000Y-43787500D01*
X49396300Y-43156100D02*
X49825000Y-43584800D01*
X49825000Y-43584800D02*
X49825000Y-44000000D01*
%TO.N,USB_DP_MCU*%
X45170200Y-43345200D02*
X43841000Y-43345200D01*
X41631500Y-43862300D02*
X40853800Y-43862300D01*
X39000000Y-42437500D02*
X39000000Y-44537500D01*
X40319000Y-44397100D02*
X40319000Y-44677800D01*
X42421500Y-45158500D02*
X42000000Y-44737000D01*
X43532000Y-44794700D02*
X43168200Y-45158500D01*
X42000000Y-44737000D02*
X42000000Y-44230800D01*
X43532000Y-43654200D02*
X43532000Y-44794700D01*
X42000000Y-44230800D02*
X41631500Y-43862300D01*
X39420800Y-44958300D02*
X39000000Y-44537500D01*
X43841000Y-43345200D02*
X43532000Y-43654200D01*
X40319000Y-44677800D02*
X40038500Y-44958300D01*
X40038500Y-44958300D02*
X39420800Y-44958300D01*
X45825000Y-44000000D02*
X45170200Y-43345200D01*
X40853800Y-43862300D02*
X40319000Y-44397100D01*
X43168200Y-45158500D02*
X42421500Y-45158500D01*
%TO.N,FLASH_HOLD_IO3*%
X31838600Y-45131500D02*
X36877300Y-45131500D01*
X36877300Y-45131500D02*
X37400000Y-44608800D01*
X37400000Y-42437500D02*
X37400000Y-44537500D01*
X24475000Y-39635000D02*
X26342100Y-39635000D01*
X37400000Y-44608800D02*
X37400000Y-44537500D01*
X26342100Y-39635000D02*
X31838600Y-45131500D01*
%TO.N,FLASH_SCLK*%
X24475000Y-38365000D02*
X26130700Y-38365000D01*
X36775100Y-44929800D02*
X37000000Y-44704900D01*
X37000000Y-44704900D02*
X37000000Y-43787500D01*
X26130700Y-38365000D02*
X32695500Y-44929800D01*
X37000000Y-42437500D02*
X37000000Y-43787500D01*
X32695500Y-44929800D02*
X36775100Y-44929800D01*
%TO.N,FLASH_IO0_MOSI*%
X34943600Y-41983100D02*
X31902400Y-41983100D01*
X31902400Y-41983100D02*
X27014300Y-37095000D01*
X27014300Y-37095000D02*
X24475000Y-37095000D01*
X36373800Y-41826000D02*
X35100700Y-41826000D01*
X36600000Y-42052200D02*
X36373800Y-41826000D01*
X36600000Y-42437500D02*
X36600000Y-44537500D01*
X35100700Y-41826000D02*
X34943600Y-41983100D01*
X36600000Y-42437500D02*
X36600000Y-42052200D01*
%TO.N,FLASH_WP_IO2*%
X36200000Y-42437500D02*
X36200000Y-43787500D01*
X19525000Y-38365000D02*
X19525000Y-39000000D01*
%TO.N,FLASH_IO1_MISO*%
X35800000Y-42437500D02*
X35800000Y-44537500D01*
X19525000Y-39635000D02*
X17300000Y-39635000D01*
%TO.N,FLASH_CS_N_BOOTSEL*%
X63575000Y-48850000D02*
X61000000Y-48850000D01*
X61000000Y-48850000D02*
X61000000Y-47462700D01*
X19525000Y-40905000D02*
X21963200Y-40905000D01*
X61000000Y-48850000D02*
X58425000Y-48850000D01*
X35400000Y-42437500D02*
X35400000Y-43787500D01*
%TO.N,LP_VCAP*%
X36600000Y-28625000D02*
X36600000Y-28187500D01*
X36600000Y-25987500D02*
X36600000Y-28187500D01*
X34225000Y-31000000D02*
X36600000Y-28625000D01*
%TO.N,LP_IREF*%
X29809000Y-32634000D02*
X29175000Y-32000000D01*
X31029100Y-32806700D02*
X30856400Y-32634000D01*
X37000000Y-25987500D02*
X37000000Y-27437500D01*
X30856400Y-32634000D02*
X29809000Y-32634000D01*
%TD*%
D31*
X39000000Y-20562500D03*
X65140700Y-18133300D03*
X46980700Y-29648300D03*
X54594300Y-44182800D03*
X23633600Y-39000000D03*
X12273600Y-14648300D03*
X38600000Y-19812500D03*
X64700000Y-12850000D03*
X38200000Y-20562500D03*
X42187500Y-23000000D03*
X41437500Y-22600000D03*
X39400000Y-19812500D03*
X22328800Y-37148300D03*
X33812500Y-23400000D03*
X34562500Y-23800000D03*
X33812500Y-24200000D03*
X12268200Y-34048300D03*
X30187100Y-27483400D03*
X37800000Y-19812500D03*
X45237000Y-29462000D03*
X37400000Y-20562500D03*
X37000000Y-19812500D03*
X34562500Y-24600000D03*
X9727100Y-19269700D03*
X33812500Y-25000000D03*
X34562500Y-25400000D03*
X28107500Y-34343400D03*
X36600000Y-20562500D03*
X33812500Y-22600000D03*
X28454600Y-30472500D03*
X34562500Y-23000000D03*
X27523500Y-46887500D03*
X37000000Y-34112500D03*
X39000000Y-28187500D03*
X39400000Y-27437500D03*
X9173400Y-46186200D03*
X4087700Y-9838600D03*
X51228200Y-45000000D03*
X34122300Y-46223400D03*
X42010800Y-46230200D03*
X28418400Y-46705200D03*
X5908200Y-43453600D03*
X5503000Y-39240000D03*
X30941000Y-45984000D03*
X39194900Y-45853200D03*
X58760200Y-45778600D03*
X37800000Y-43787500D03*
X40200000Y-43787500D03*
X38200000Y-44537500D03*
X32362500Y-41600000D03*
X38600000Y-27437500D03*
X38200000Y-33362500D03*
X25625900Y-41412200D03*
X42987500Y-38000000D03*
X42987500Y-41600000D03*
X33112500Y-38000000D03*
X38600000Y-34112500D03*
X37400000Y-28187500D03*
X55189300Y-28915100D03*
X37400000Y-33362500D03*
X23942100Y-31092000D03*
X37800000Y-34112500D03*
X30484500Y-33164000D03*
X38200000Y-28187500D03*
X33112500Y-39600000D03*
X4000000Y-23733600D03*
X38600000Y-43787500D03*
X37800000Y-27437500D03*
X32362500Y-39200000D03*
X4587500Y-25587500D03*
X49210900Y-28614100D03*
X14000000Y-49167100D03*
X39000000Y-33362500D03*
X10000000Y-39211800D03*
X39400000Y-34112500D03*
X65362700Y-48926100D03*
X39800000Y-33362500D03*
X18124300Y-34731800D03*
X18014800Y-49167400D03*
X4000000Y-36164800D03*
X42940500Y-42987000D03*
X39800000Y-44537500D03*
X39400000Y-43787500D03*
X49396300Y-43156100D03*
X39000000Y-44537500D03*
X37400000Y-44537500D03*
X37000000Y-43787500D03*
X36600000Y-44537500D03*
X19525000Y-39000000D03*
X36200000Y-43787500D03*
X35800000Y-44537500D03*
X17300000Y-39635000D03*
X35400000Y-43787500D03*
X21963200Y-40905000D03*
X61000000Y-47462700D03*
X36600000Y-28187500D03*
X31029100Y-32806700D03*
X37000000Y-27437500D03*
D32*
X72000000Y-4000000D03*
X4000000Y-4000000D03*
X72000000Y-52000000D03*
X4000000Y-52000000D03*
X40890000Y-48400000D03*
X35110000Y-48400000D03*
D33*
X42320000Y-52050000D03*
D34*
X42320000Y-47870000D03*
D33*
X33680000Y-52050000D03*
D34*
X33680000Y-47870000D03*
M02*
