%TF.GenerationSoftware,KiCad,Pcbnew,10.0.3*%
%TF.CreationDate,2026-06-01T02:14:20+08:00*%
%TF.ProjectId,tellmelight_rev_a4,74656c6c-6d65-46c6-9967-68745f726576,A4*%
%TF.SameCoordinates,Original*%
%TF.FileFunction,Copper,L3,Inr*%
%TF.FilePolarity,Positive*%
%FSLAX46Y46*%
G04 Gerber Fmt 4.6, Leading zero omitted, Abs format (unit mm)*
G04 Created by KiCad (PCBNEW 10.0.3) date 2026-06-01 02:14:20*
%MOMM*%
%LPD*%
G01*
G04 APERTURE LIST*
%TA.AperFunction,ComponentPad*%
%ADD10O,1.000000X1.600000*%
%TD*%
%TA.AperFunction,ComponentPad*%
%ADD11O,1.000000X2.100000*%
%TD*%
%TA.AperFunction,ViaPad*%
%ADD12C,0.450000*%
%TD*%
%TA.AperFunction,Conductor*%
%ADD13C,0.100000*%
%TD*%
%ADD14C,0.300000*%
%ADD15C,0.350000*%
%ADD16O,0.600000X1.200000*%
%ADD17O,0.600000X1.700000*%
G04 APERTURE END LIST*
D10*
%TO.N,SHIELD*%
%TO.C,J1*%
X42320000Y-52050000D03*
D11*
X42320000Y-47870000D03*
D10*
X33680000Y-52050000D03*
D11*
X33680000Y-47870000D03*
%TD*%
D12*
%TO.N,D5_B*%
X39000000Y-20562500D03*
%TO.N,VLED*%
X65140700Y-18133300D03*
X46980700Y-29648300D03*
X54594300Y-44182800D03*
X23633600Y-39000000D03*
X12273600Y-14648300D03*
%TO.N,D5_G*%
X38600000Y-19812500D03*
%TO.N,D5_R*%
X64700000Y-12850000D03*
X38200000Y-20562500D03*
%TO.N,D6_B*%
X42187500Y-23000000D03*
%TO.N,D6_G*%
X41437500Y-22600000D03*
%TO.N,D6_R*%
X39400000Y-19812500D03*
%TO.N,D2_B*%
X22328800Y-37148300D03*
X33812500Y-23400000D03*
%TO.N,D2_G*%
X34562500Y-23800000D03*
%TO.N,D2_R*%
X33812500Y-24200000D03*
X12268200Y-34048300D03*
X30187100Y-27483400D03*
%TO.N,D4_B*%
X37800000Y-19812500D03*
X45237000Y-29462000D03*
%TO.N,D4_G*%
X37400000Y-20562500D03*
%TO.N,D4_R*%
X37000000Y-19812500D03*
%TO.N,D1_B*%
X34562500Y-24600000D03*
X9727100Y-19269700D03*
%TO.N,D1_G*%
X33812500Y-25000000D03*
%TO.N,D1_R*%
X34562500Y-25400000D03*
%TO.N,D3_B*%
X28107500Y-34343400D03*
X36600000Y-20562500D03*
%TO.N,D3_G*%
X33812500Y-22600000D03*
X28454600Y-30472500D03*
%TO.N,D3_R*%
X34562500Y-23000000D03*
%TO.N,GND*%
X27523500Y-46887500D03*
X37000000Y-34112500D03*
X39000000Y-28187500D03*
X39400000Y-27437500D03*
%TO.N,VBUS*%
X9173400Y-46186200D03*
X4087700Y-9838600D03*
X51228200Y-45000000D03*
X34122300Y-46223400D03*
X42010800Y-46230200D03*
%TO.N,USB_DP_CONN*%
X28418400Y-46705200D03*
X5908200Y-43453600D03*
%TO.N,USB_DM_CONN*%
X5503000Y-39240000D03*
X30941000Y-45984000D03*
X39194900Y-45853200D03*
%TO.N,SHIELD*%
X58760200Y-45778600D03*
%TO.N,3V3*%
X37800000Y-43787500D03*
X40200000Y-43787500D03*
X38200000Y-44537500D03*
X32362500Y-41600000D03*
X38600000Y-27437500D03*
X38200000Y-33362500D03*
X25625900Y-41412200D03*
X42987500Y-38000000D03*
X42987500Y-41600000D03*
X33112500Y-38000000D03*
X38600000Y-34112500D03*
%TO.N,LP_EN*%
X37400000Y-28187500D03*
X55189300Y-28915100D03*
%TO.N,XIN*%
X37400000Y-33362500D03*
X23942100Y-31092000D03*
%TO.N,XOUT*%
X37800000Y-34112500D03*
X30484500Y-33164000D03*
%TO.N,I2C0_SDA*%
X38200000Y-28187500D03*
X33112500Y-39600000D03*
X4000000Y-23733600D03*
%TO.N,3V3_USB*%
X38600000Y-43787500D03*
%TO.N,I2C0_SCL*%
X37800000Y-27437500D03*
X32362500Y-39200000D03*
X4587500Y-25587500D03*
X49210900Y-28614100D03*
%TO.N,SWCLK*%
X14000000Y-49167100D03*
X39000000Y-33362500D03*
%TO.N,SWDIO*%
X10000000Y-39211800D03*
X39400000Y-34112500D03*
%TO.N,RUN_RESET*%
X65362700Y-48926100D03*
X39800000Y-33362500D03*
X18124300Y-34731800D03*
X18014800Y-49167400D03*
X4000000Y-36164800D03*
%TO.N,RP2040_VREG_OUT*%
X42940500Y-42987000D03*
X39800000Y-44537500D03*
%TO.N,USB_DM_MCU*%
X39400000Y-43787500D03*
X49396300Y-43156100D03*
%TO.N,USB_DP_MCU*%
X39000000Y-44537500D03*
%TO.N,FLASH_HOLD_IO3*%
X37400000Y-44537500D03*
%TO.N,FLASH_SCLK*%
X37000000Y-43787500D03*
%TO.N,FLASH_IO0_MOSI*%
X36600000Y-44537500D03*
%TO.N,FLASH_WP_IO2*%
X19525000Y-39000000D03*
X36200000Y-43787500D03*
%TO.N,FLASH_IO1_MISO*%
X35800000Y-44537500D03*
X17300000Y-39635000D03*
%TO.N,FLASH_CS_N_BOOTSEL*%
X35400000Y-43787500D03*
X21963200Y-40905000D03*
X61000000Y-47462700D03*
%TO.N,LP_VCAP*%
X36600000Y-28187500D03*
%TO.N,LP_IREF*%
X31029100Y-32806700D03*
X37000000Y-27437500D03*
%TD*%
%TO.N,VLED*%
D13*
X25103200Y-37530400D02*
X23633600Y-39000000D01*
X39098700Y-37530300D02*
X25103200Y-37530300D01*
X25103200Y-37530300D02*
X25103200Y-37530400D01*
X46980700Y-29648300D02*
X39098700Y-37530300D01*
%TO.N,D5_R*%
X61800000Y-12000000D02*
X64700000Y-12850000D01*
X38200000Y-20562500D02*
X38200000Y-18000000D01*
X43000000Y-12000000D02*
X61800000Y-12000000D01*
X38200000Y-18000000D02*
X43000000Y-12000000D01*
%TO.N,D2_R*%
X12268200Y-34048300D02*
X18833100Y-27483400D01*
X18833100Y-27483400D02*
X30187100Y-27483400D01*
%TO.N,D1_B*%
X34562500Y-24600000D02*
X15057400Y-24600000D01*
X15057400Y-24600000D02*
X9727100Y-19269700D01*
%TO.N,VBUS*%
X43240700Y-45000000D02*
X42010800Y-46229900D01*
X34122300Y-46223400D02*
X34128800Y-46229900D01*
X42010800Y-46229900D02*
X42010800Y-46230200D01*
X51228200Y-45000000D02*
X43240700Y-45000000D01*
X9173400Y-46186200D02*
X30532000Y-46186200D01*
X34128800Y-46229900D02*
X42010800Y-46229900D01*
X30532000Y-46186200D02*
X30745100Y-46399300D01*
X33946400Y-46399300D02*
X34122300Y-46223400D01*
X30745100Y-46399300D02*
X33946400Y-46399300D01*
%TO.N,USB_DP_CONN*%
X9062600Y-46608000D02*
X5908200Y-43453600D01*
X28224000Y-46510800D02*
X27367600Y-46510800D01*
X27367600Y-46510800D02*
X27270400Y-46608000D01*
X28418400Y-46705200D02*
X28224000Y-46510800D01*
X27270400Y-46608000D02*
X9062600Y-46608000D01*
%TO.N,USB_DM_CONN*%
X39124900Y-45783200D02*
X39194900Y-45853200D01*
X31141800Y-45783200D02*
X39124900Y-45783200D01*
X30941000Y-45984000D02*
X31141800Y-45783200D01*
X12247000Y-45984000D02*
X5503000Y-39240000D01*
X30941000Y-45984000D02*
X12247000Y-45984000D01*
%TO.N,SHIELD*%
X42320000Y-52050000D02*
X42320000Y-51098300D01*
X57870500Y-46668300D02*
X58760200Y-45778600D01*
X42320000Y-47870000D02*
X42320000Y-46668300D01*
X33680000Y-51098300D02*
X42320000Y-51098300D01*
X33680000Y-52050000D02*
X33680000Y-51098300D01*
X42320000Y-46668300D02*
X57870500Y-46668300D01*
%TO.N,3V3*%
X38200000Y-45300000D02*
X40200000Y-45300000D01*
X32362500Y-41600000D02*
X25813700Y-41600000D01*
X25813700Y-41600000D02*
X25625900Y-41412200D01*
X40200000Y-45300000D02*
X40200000Y-43787500D01*
X38200000Y-44537500D02*
X38200000Y-45300000D01*
X33112500Y-38000000D02*
X42987500Y-38000000D01*
%TO.N,LP_EN*%
X55085900Y-29018500D02*
X38127000Y-29018500D01*
X55189300Y-28915100D02*
X55085900Y-29018500D01*
X37400000Y-28291500D02*
X37400000Y-28187500D01*
X38127000Y-29018500D02*
X37400000Y-28291500D01*
%TO.N,XIN*%
X37400000Y-33362500D02*
X35129500Y-31092000D01*
X35129500Y-31092000D02*
X23942100Y-31092000D01*
%TO.N,XOUT*%
X30484500Y-33164000D02*
X30505100Y-33184600D01*
X37540300Y-34112500D02*
X37800000Y-34112500D01*
X30505100Y-33184600D02*
X36612400Y-33184600D01*
X36612400Y-33184600D02*
X37540300Y-34112500D01*
%TO.N,I2C0_SDA*%
X38200000Y-28187500D02*
X38200000Y-27272800D01*
X37586100Y-26658900D02*
X6925300Y-26658900D01*
X6925300Y-26658900D02*
X4000000Y-23733600D01*
X38200000Y-27272800D02*
X37586100Y-26658900D01*
%TO.N,I2C0_SCL*%
X4587500Y-25587500D02*
X6060700Y-27060700D01*
X6060700Y-27060700D02*
X37423200Y-27060700D01*
X38085700Y-28614100D02*
X49210900Y-28614100D01*
X37800000Y-28328400D02*
X38085700Y-28614100D01*
X37800000Y-27437500D02*
X37800000Y-28328400D01*
X37423200Y-27060700D02*
X37800000Y-27437500D01*
%TO.N,SWDIO*%
X39400000Y-34149000D02*
X38440500Y-35108500D01*
X39400000Y-34112500D02*
X39400000Y-34149000D01*
X14103300Y-35108500D02*
X10000000Y-39211800D01*
X38440500Y-35108500D02*
X14103300Y-35108500D01*
%TO.N,RUN_RESET*%
X38519100Y-34731800D02*
X18124300Y-34731800D01*
X39010000Y-34240900D02*
X38519100Y-34731800D01*
X39800000Y-33362500D02*
X39600000Y-33362500D01*
X5433000Y-34731800D02*
X18124300Y-34731800D01*
X39600000Y-33362500D02*
X39010000Y-33952500D01*
X39010000Y-33952500D02*
X39010000Y-34240900D01*
X4000000Y-36164800D02*
X5433000Y-34731800D01*
%TO.N,FLASH_WP_IO2*%
X24690600Y-44165600D02*
X19525000Y-39000000D01*
X36200000Y-43787500D02*
X36017400Y-43787500D01*
X35639300Y-44165600D02*
X24690600Y-44165600D01*
X36017400Y-43787500D02*
X35639300Y-44165600D01*
%TO.N,FLASH_IO1_MISO*%
X17300000Y-39635000D02*
X17300000Y-44900000D01*
X35800000Y-44900000D02*
X35800000Y-44537500D01*
X17300000Y-44900000D02*
X35800000Y-44900000D01*
%TO.N,FLASH_CS_N_BOOTSEL*%
X35816600Y-43370900D02*
X35400000Y-43787500D01*
X49078500Y-43370900D02*
X35816600Y-43370900D01*
X61000000Y-47462700D02*
X57070100Y-43532800D01*
X32517500Y-40905000D02*
X21963200Y-40905000D01*
X49240400Y-43532800D02*
X49078500Y-43370900D01*
X35400000Y-43787500D02*
X32517500Y-40905000D01*
X57070100Y-43532800D02*
X49240400Y-43532800D01*
%TD*%
D14*
X39000000Y-20562500D03*
X65140700Y-18133300D03*
X46980700Y-29648300D03*
X54594300Y-44182800D03*
X23633600Y-39000000D03*
X12273600Y-14648300D03*
X38600000Y-19812500D03*
X64700000Y-12850000D03*
X38200000Y-20562500D03*
X42187500Y-23000000D03*
X41437500Y-22600000D03*
X39400000Y-19812500D03*
X22328800Y-37148300D03*
X33812500Y-23400000D03*
X34562500Y-23800000D03*
X33812500Y-24200000D03*
X12268200Y-34048300D03*
X30187100Y-27483400D03*
X37800000Y-19812500D03*
X45237000Y-29462000D03*
X37400000Y-20562500D03*
X37000000Y-19812500D03*
X34562500Y-24600000D03*
X9727100Y-19269700D03*
X33812500Y-25000000D03*
X34562500Y-25400000D03*
X28107500Y-34343400D03*
X36600000Y-20562500D03*
X33812500Y-22600000D03*
X28454600Y-30472500D03*
X34562500Y-23000000D03*
X27523500Y-46887500D03*
X37000000Y-34112500D03*
X39000000Y-28187500D03*
X39400000Y-27437500D03*
X9173400Y-46186200D03*
X4087700Y-9838600D03*
X51228200Y-45000000D03*
X34122300Y-46223400D03*
X42010800Y-46230200D03*
X28418400Y-46705200D03*
X5908200Y-43453600D03*
X5503000Y-39240000D03*
X30941000Y-45984000D03*
X39194900Y-45853200D03*
X58760200Y-45778600D03*
X37800000Y-43787500D03*
X40200000Y-43787500D03*
X38200000Y-44537500D03*
X32362500Y-41600000D03*
X38600000Y-27437500D03*
X38200000Y-33362500D03*
X25625900Y-41412200D03*
X42987500Y-38000000D03*
X42987500Y-41600000D03*
X33112500Y-38000000D03*
X38600000Y-34112500D03*
X37400000Y-28187500D03*
X55189300Y-28915100D03*
X37400000Y-33362500D03*
X23942100Y-31092000D03*
X37800000Y-34112500D03*
X30484500Y-33164000D03*
X38200000Y-28187500D03*
X33112500Y-39600000D03*
X4000000Y-23733600D03*
X38600000Y-43787500D03*
X37800000Y-27437500D03*
X32362500Y-39200000D03*
X4587500Y-25587500D03*
X49210900Y-28614100D03*
X14000000Y-49167100D03*
X39000000Y-33362500D03*
X10000000Y-39211800D03*
X39400000Y-34112500D03*
X65362700Y-48926100D03*
X39800000Y-33362500D03*
X18124300Y-34731800D03*
X18014800Y-49167400D03*
X4000000Y-36164800D03*
X42940500Y-42987000D03*
X39800000Y-44537500D03*
X39400000Y-43787500D03*
X49396300Y-43156100D03*
X39000000Y-44537500D03*
X37400000Y-44537500D03*
X37000000Y-43787500D03*
X36600000Y-44537500D03*
X19525000Y-39000000D03*
X36200000Y-43787500D03*
X35800000Y-44537500D03*
X17300000Y-39635000D03*
X35400000Y-43787500D03*
X21963200Y-40905000D03*
X61000000Y-47462700D03*
X36600000Y-28187500D03*
X31029100Y-32806700D03*
X37000000Y-27437500D03*
D15*
X72000000Y-4000000D03*
X4000000Y-4000000D03*
X72000000Y-52000000D03*
X4000000Y-52000000D03*
X40890000Y-48400000D03*
X35110000Y-48400000D03*
D16*
X42320000Y-52050000D03*
D17*
X42320000Y-47870000D03*
D16*
X33680000Y-52050000D03*
D17*
X33680000Y-47870000D03*
M02*
