%TF.GenerationSoftware,KiCad,Pcbnew,10.0.3*%
%TF.CreationDate,2026-06-01T01:37:37+08:00*%
%TF.ProjectId,tellmelight_rev_a4,74656c6c-6d65-46c6-9967-68745f726576,A4*%
%TF.SameCoordinates,Original*%
%TF.FileFunction,Copper,L3,Inr*%
%TF.FilePolarity,Positive*%
%FSLAX46Y46*%
G04 Gerber Fmt 4.6, Leading zero omitted, Abs format (unit mm)*
G04 Created by KiCad (PCBNEW 10.0.3) date 2026-06-01 01:37:37*
%MOMM*%
%LPD*%
G01*
G04 APERTURE LIST*
%TA.AperFunction,HeatsinkPad*%
%ADD10C,0.500000*%
%TD*%
%TA.AperFunction,ComponentPad*%
%ADD11O,1.000000X1.600000*%
%TD*%
%TA.AperFunction,ComponentPad*%
%ADD12O,1.000000X2.100000*%
%TD*%
%TA.AperFunction,ViaPad*%
%ADD13C,0.450000*%
%TD*%
%TA.AperFunction,Conductor*%
%ADD14C,0.100000*%
%TD*%
%ADD15C,0.250000*%
%ADD16C,0.350000*%
%ADD17C,0.200000*%
%ADD18O,0.600000X1.200000*%
%ADD19O,0.600000X1.700000*%
G04 APERTURE END LIST*
D10*
%TO.N,GND*%
%TO.C,U1*%
X36650000Y-37650000D03*
X36650000Y-40350000D03*
X39350000Y-37650000D03*
X39350000Y-40350000D03*
%TD*%
%TO.N,GND*%
%TO.C,U2*%
X36850000Y-22850000D03*
X36850000Y-24000000D03*
X36850000Y-25150000D03*
X38000000Y-22850000D03*
X38000000Y-24000000D03*
X38000000Y-25150000D03*
X39150000Y-22850000D03*
X39150000Y-24000000D03*
X39150000Y-25150000D03*
%TD*%
D11*
%TO.N,SHIELD*%
%TO.C,J1*%
X42320000Y-52050000D03*
D12*
X42320000Y-47870000D03*
D11*
X33680000Y-52050000D03*
D12*
X33680000Y-47870000D03*
%TD*%
D13*
%TO.N,D5_B*%
X39000000Y-20562500D03*
%TO.N,VLED*%
X55078000Y-43626900D03*
X46384000Y-31635700D03*
X11500000Y-36971400D03*
X63736700Y-18131400D03*
X11894400Y-16635500D03*
X22336000Y-47728600D03*
%TO.N,D5_G*%
X38600000Y-19812500D03*
%TO.N,D5_R*%
X64700000Y-12850000D03*
X38200000Y-20562500D03*
%TO.N,D3_B*%
X36600000Y-20562500D03*
X33159300Y-35025200D03*
%TO.N,D3_G*%
X33812500Y-22600000D03*
X28300000Y-30894700D03*
%TO.N,D3_R*%
X34562500Y-23000000D03*
X31566400Y-31548300D03*
%TO.N,D1_B*%
X34562500Y-24600000D03*
%TO.N,D1_G*%
X33812500Y-25000000D03*
%TO.N,D1_R*%
X34562500Y-25400000D03*
%TO.N,D2_B*%
X33812500Y-23400000D03*
X12284500Y-36181900D03*
%TO.N,D2_G*%
X10041600Y-33864800D03*
X34562500Y-23800000D03*
X31003600Y-26604100D03*
%TO.N,D2_R*%
X33812500Y-24200000D03*
%TO.N,D4_B*%
X37800000Y-19812500D03*
%TO.N,D4_G*%
X37400000Y-20562500D03*
%TO.N,D4_R*%
X37000000Y-19812500D03*
%TO.N,D6_B*%
X42187500Y-23000000D03*
%TO.N,D6_G*%
X41437500Y-22600000D03*
%TO.N,D6_R*%
X39400000Y-19812500D03*
%TO.N,GND*%
X39000000Y-28187500D03*
X37000000Y-34112500D03*
X32499000Y-46664800D03*
X39400000Y-27437500D03*
%TO.N,3V3*%
X42987500Y-41600000D03*
X42987500Y-38000000D03*
X38600000Y-27437500D03*
X24475000Y-41534900D03*
X32362500Y-41600000D03*
X19742600Y-34752200D03*
X38600000Y-34112500D03*
X33112500Y-38000000D03*
X37800000Y-43787500D03*
X40200000Y-43787500D03*
X38200000Y-44537500D03*
X38200000Y-33362500D03*
%TO.N,VBUS*%
X51441500Y-45000000D03*
X40851700Y-45589400D03*
X4000000Y-9828000D03*
X28593700Y-48109600D03*
%TO.N,RP2040_VREG_OUT*%
X39800000Y-44537500D03*
%TO.N,LP_EN*%
X37400000Y-28187500D03*
X39733300Y-28346600D03*
X54096400Y-27663000D03*
%TO.N,RUN_RESET*%
X68612000Y-41709000D03*
X39800000Y-33362500D03*
X18706500Y-50480000D03*
%TO.N,USB_DM_CONN*%
X3261800Y-43736000D03*
X30782900Y-45823900D03*
%TO.N,SHIELD*%
X60812600Y-46211600D03*
%TO.N,I2C0_SDA*%
X4000000Y-22032400D03*
X38200000Y-28187500D03*
X33112500Y-39600000D03*
%TO.N,I2C0_SCL*%
X32362500Y-39200000D03*
X4838200Y-25000000D03*
X37800000Y-27437500D03*
%TO.N,XIN*%
X23940700Y-31070400D03*
X37400000Y-33362500D03*
%TO.N,XOUT*%
X27322200Y-32512300D03*
X37800000Y-34112500D03*
%TO.N,SWCLK*%
X39000000Y-33362500D03*
X14000000Y-48699800D03*
%TO.N,SWDIO*%
X9118500Y-42358300D03*
X39400000Y-34112500D03*
%TO.N,USB_DM_MCU*%
X39400000Y-43787500D03*
X49783100Y-43193900D03*
%TO.N,USB_DP_MCU*%
X39000000Y-44537500D03*
%TO.N,3V3_USB*%
X38600000Y-43787500D03*
%TO.N,FLASH_HOLD_IO3*%
X37400000Y-44537500D03*
%TO.N,FLASH_SCLK*%
X37000000Y-43787500D03*
%TO.N,FLASH_IO0_MOSI*%
X36600000Y-44537500D03*
%TO.N,FLASH_WP_IO2*%
X19525000Y-39000000D03*
X36200000Y-43787500D03*
%TO.N,FLASH_IO1_MISO*%
X20717200Y-41531000D03*
X35800000Y-44537500D03*
%TO.N,FLASH_CS_N_BOOTSEL*%
X39763900Y-45898900D03*
X35400000Y-43787500D03*
X21419100Y-41696000D03*
X58425000Y-48020800D03*
%TO.N,LP_VCAP*%
X36600000Y-28187500D03*
%TO.N,LP_IREF*%
X37000000Y-27437500D03*
X29175000Y-30903100D03*
%TD*%
%TO.N,D2_G*%
D14*
X17302300Y-26604100D02*
X10041600Y-33864800D01*
X31003600Y-26604100D02*
X17302300Y-26604100D01*
%TO.N,GND*%
X37225100Y-34112500D02*
X37000000Y-34112500D01*
X37802900Y-29384600D02*
X37802900Y-33534700D01*
X39150000Y-22850000D02*
X38000000Y-22850000D01*
X38000000Y-22850000D02*
X36850000Y-22850000D01*
X37802900Y-33534700D02*
X37225100Y-34112500D01*
X38000000Y-24000000D02*
X36850000Y-24000000D01*
X38000000Y-25150000D02*
X36850000Y-25150000D01*
X39000000Y-28187500D02*
X37802900Y-29384600D01*
%TO.N,3V3*%
X24540100Y-41600000D02*
X24475000Y-41534900D01*
X32362500Y-41600000D02*
X24540100Y-41600000D01*
%TO.N,VBUS*%
X40851700Y-45589400D02*
X41441100Y-45000000D01*
X41441100Y-45000000D02*
X51441500Y-45000000D01*
%TO.N,LP_EN*%
X39733300Y-28346600D02*
X53412800Y-28346600D01*
X53412800Y-28346600D02*
X54096400Y-27663000D01*
%TO.N,RUN_RESET*%
X45787100Y-39349500D02*
X39717300Y-45419300D01*
X34472200Y-48232700D02*
X34472200Y-48616500D01*
X48146500Y-41709000D02*
X68612000Y-41709000D01*
X39717300Y-45419300D02*
X39695900Y-45419300D01*
X34472200Y-48616500D02*
X32608700Y-50480000D01*
X39695900Y-45419300D02*
X38625400Y-46489800D01*
X32608700Y-50480000D02*
X18706500Y-50480000D01*
X36215100Y-46489800D02*
X34472200Y-48232700D01*
X39800000Y-33362500D02*
X45787100Y-39349500D01*
X38625400Y-46489800D02*
X36215100Y-46489800D01*
X45787100Y-39349500D02*
X48146500Y-41709000D01*
%TO.N,USB_DM_CONN*%
X3261800Y-43736000D02*
X5349700Y-45823900D01*
X5349700Y-45823900D02*
X30782900Y-45823900D01*
%TO.N,SHIELD*%
X42320000Y-47870000D02*
X42320000Y-49071700D01*
X33680000Y-52050000D02*
X33680000Y-51098300D01*
X33680000Y-51098300D02*
X42320000Y-51098300D01*
X42320000Y-52050000D02*
X42320000Y-51098300D01*
X57952500Y-49071700D02*
X60812600Y-46211600D01*
X42320000Y-49071700D02*
X57952500Y-49071700D01*
%TO.N,I2C0_SDA*%
X38200000Y-28187500D02*
X38200000Y-27299900D01*
X7837400Y-25869800D02*
X4000000Y-22032400D01*
X36769900Y-25869800D02*
X7837400Y-25869800D01*
X38200000Y-27299900D02*
X36769900Y-25869800D01*
%TO.N,I2C0_SCL*%
X4838200Y-25000000D02*
X6009600Y-26171400D01*
X6009600Y-26171400D02*
X36533900Y-26171400D01*
X36533900Y-26171400D02*
X37800000Y-27437500D01*
%TO.N,XIN*%
X23940700Y-31070400D02*
X24150100Y-31279800D01*
X35160200Y-31122700D02*
X37400000Y-33362500D01*
X29652800Y-31279800D02*
X29809900Y-31122700D01*
X24150100Y-31279800D02*
X29652800Y-31279800D01*
X29809900Y-31122700D02*
X35160200Y-31122700D01*
%TO.N,XOUT*%
X37411800Y-34500700D02*
X29310600Y-34500700D01*
X29310600Y-34500700D02*
X27322200Y-32512300D01*
X37800000Y-34112500D02*
X37411800Y-34500700D01*
%TO.N,SWCLK*%
X36983800Y-46288100D02*
X16411700Y-46288100D01*
X39002900Y-43638100D02*
X39002900Y-43959600D01*
X39859700Y-34039500D02*
X39859700Y-42781300D01*
X39002900Y-43959600D02*
X38600000Y-44362500D01*
X39000000Y-33362500D02*
X39182700Y-33362500D01*
X38600000Y-44362500D02*
X38600000Y-44671900D01*
X16411700Y-46288100D02*
X14000000Y-48699800D01*
X39182700Y-33362500D02*
X39859700Y-34039500D01*
X39859700Y-42781300D02*
X39002900Y-43638100D01*
X38600000Y-44671900D02*
X36983800Y-46288100D01*
%TO.N,SWDIO*%
X39400000Y-34112500D02*
X37661000Y-35851500D01*
X15625300Y-35851500D02*
X9118500Y-42358300D01*
X37661000Y-35851500D02*
X15625300Y-35851500D01*
%TO.N,FLASH_WP_IO2*%
X36200000Y-43787500D02*
X31412500Y-39000000D01*
X31412500Y-39000000D02*
X19525000Y-39000000D01*
%TO.N,FLASH_IO1_MISO*%
X23723700Y-44537500D02*
X20717200Y-41531000D01*
X35800000Y-44537500D02*
X23723700Y-44537500D01*
%TO.N,FLASH_CS_N_BOOTSEL*%
X35400000Y-43787500D02*
X23510600Y-43787500D01*
X23510600Y-43787500D02*
X21419100Y-41696000D01*
X39831100Y-45966100D02*
X39763900Y-45898900D01*
X58425000Y-48020800D02*
X56370300Y-45966100D01*
X56370300Y-45966100D02*
X39831100Y-45966100D01*
%TO.N,LP_IREF*%
X32640600Y-27437500D02*
X29175000Y-30903100D01*
X37000000Y-27437500D02*
X32640600Y-27437500D01*
%TD*%
D15*
X39000000Y-20562500D03*
X55078000Y-43626900D03*
X46384000Y-31635700D03*
X11500000Y-36971400D03*
X63736700Y-18131400D03*
X11894400Y-16635500D03*
X22336000Y-47728600D03*
X38600000Y-19812500D03*
X64700000Y-12850000D03*
X38200000Y-20562500D03*
X36600000Y-20562500D03*
X33159300Y-35025200D03*
X33812500Y-22600000D03*
X28300000Y-30894700D03*
X34562500Y-23000000D03*
X31566400Y-31548300D03*
X34562500Y-24600000D03*
X33812500Y-25000000D03*
X34562500Y-25400000D03*
X33812500Y-23400000D03*
X12284500Y-36181900D03*
X10041600Y-33864800D03*
X34562500Y-23800000D03*
X31003600Y-26604100D03*
X33812500Y-24200000D03*
X37800000Y-19812500D03*
X37400000Y-20562500D03*
X37000000Y-19812500D03*
X42187500Y-23000000D03*
X41437500Y-22600000D03*
X39400000Y-19812500D03*
X39000000Y-28187500D03*
X37000000Y-34112500D03*
X32499000Y-46664800D03*
X39400000Y-27437500D03*
X42987500Y-41600000D03*
X42987500Y-38000000D03*
X38600000Y-27437500D03*
X24475000Y-41534900D03*
X32362500Y-41600000D03*
X19742600Y-34752200D03*
X38600000Y-34112500D03*
X33112500Y-38000000D03*
X37800000Y-43787500D03*
X40200000Y-43787500D03*
X38200000Y-44537500D03*
X38200000Y-33362500D03*
X51441500Y-45000000D03*
X40851700Y-45589400D03*
X4000000Y-9828000D03*
X28593700Y-48109600D03*
X39800000Y-44537500D03*
X37400000Y-28187500D03*
X39733300Y-28346600D03*
X54096400Y-27663000D03*
X68612000Y-41709000D03*
X39800000Y-33362500D03*
X18706500Y-50480000D03*
X3261800Y-43736000D03*
X30782900Y-45823900D03*
X60812600Y-46211600D03*
X4000000Y-22032400D03*
X38200000Y-28187500D03*
X33112500Y-39600000D03*
X32362500Y-39200000D03*
X4838200Y-25000000D03*
X37800000Y-27437500D03*
X23940700Y-31070400D03*
X37400000Y-33362500D03*
X27322200Y-32512300D03*
X37800000Y-34112500D03*
X39000000Y-33362500D03*
X14000000Y-48699800D03*
X9118500Y-42358300D03*
X39400000Y-34112500D03*
X39400000Y-43787500D03*
X49783100Y-43193900D03*
X39000000Y-44537500D03*
X38600000Y-43787500D03*
X37400000Y-44537500D03*
X37000000Y-43787500D03*
X36600000Y-44537500D03*
X19525000Y-39000000D03*
X36200000Y-43787500D03*
X20717200Y-41531000D03*
X35800000Y-44537500D03*
X39763900Y-45898900D03*
X35400000Y-43787500D03*
X21419100Y-41696000D03*
X58425000Y-48020800D03*
X36600000Y-28187500D03*
X37000000Y-27437500D03*
X29175000Y-30903100D03*
D16*
X72000000Y-4000000D03*
X4000000Y-52000000D03*
X72000000Y-52000000D03*
X4000000Y-4000000D03*
D17*
X36650000Y-37650000D03*
X36650000Y-40350000D03*
X39350000Y-37650000D03*
X39350000Y-40350000D03*
X36850000Y-22850000D03*
X36850000Y-24000000D03*
X36850000Y-25150000D03*
X38000000Y-22850000D03*
X38000000Y-24000000D03*
X38000000Y-25150000D03*
X39150000Y-22850000D03*
X39150000Y-24000000D03*
X39150000Y-25150000D03*
D16*
X40890000Y-48400000D03*
X35110000Y-48400000D03*
D18*
X42320000Y-52050000D03*
D19*
X42320000Y-47870000D03*
D18*
X33680000Y-52050000D03*
D19*
X33680000Y-47870000D03*
M02*
