%TF.GenerationSoftware,KiCad,Pcbnew,10.0.3*%
%TF.CreationDate,2026-06-01T02:14:20+08:00*%
%TF.ProjectId,tellmelight_rev_a4,74656c6c-6d65-46c6-9967-68745f726576,A4*%
%TF.SameCoordinates,Original*%
%TF.FileFunction,Copper,L1,Top*%
%TF.FilePolarity,Positive*%
%FSLAX46Y46*%
G04 Gerber Fmt 4.6, Leading zero omitted, Abs format (unit mm)*
G04 Created by KiCad (PCBNEW 10.0.3) date 2026-06-01 02:14:20*
%MOMM*%
%LPD*%
G01*
G04 APERTURE LIST*
%TA.AperFunction,SMDPad,CuDef*%
%ADD10R,0.900000X1.500000*%
%TD*%
%TA.AperFunction,ComponentPad*%
%ADD11O,1.000000X1.600000*%
%TD*%
%TA.AperFunction,ComponentPad*%
%ADD12O,1.000000X2.100000*%
%TD*%
%TA.AperFunction,ViaPad*%
%ADD13C,0.450000*%
%TD*%
%TA.AperFunction,Conductor*%
%ADD14C,0.100000*%
%TD*%
%ADD15C,0.300000*%
%ADD16C,0.350000*%
%ADD17O,0.600000X1.200000*%
%ADD18O,0.600000X1.700000*%
G04 APERTURE END LIST*
D10*
%TO.P,D5,1*%
%TO.N,D5_B*%
X63300000Y-17050000D03*
%TO.P,D5,2*%
%TO.N,VLED*%
X64700000Y-17050000D03*
%TO.P,D5,3*%
%TO.N,D5_G*%
X63300000Y-13950000D03*
%TO.P,D5,4*%
%TO.N,D5_R*%
X64700000Y-13950000D03*
%TD*%
%TO.P,D6,1*%
%TO.N,D6_B*%
X63300000Y-40050000D03*
%TO.P,D6,2*%
%TO.N,VLED*%
X64700000Y-40050000D03*
%TO.P,D6,3*%
%TO.N,D6_G*%
X63300000Y-36950000D03*
%TO.P,D6,4*%
%TO.N,D6_R*%
X64700000Y-36950000D03*
%TD*%
%TO.P,D2,1*%
%TO.N,D2_B*%
X10100000Y-38050000D03*
%TO.P,D2,2*%
%TO.N,VLED*%
X11500000Y-38050000D03*
%TO.P,D2,3*%
%TO.N,D2_G*%
X10100000Y-34950000D03*
%TO.P,D2,4*%
%TO.N,D2_R*%
X11500000Y-34950000D03*
%TD*%
%TO.P,D4,1*%
%TO.N,D4_B*%
X44800000Y-30550000D03*
%TO.P,D4,2*%
%TO.N,VLED*%
X46200000Y-30550000D03*
%TO.P,D4,3*%
%TO.N,D4_G*%
X44800000Y-27450000D03*
%TO.P,D4,4*%
%TO.N,D4_R*%
X46200000Y-27450000D03*
%TD*%
%TO.P,D1,1*%
%TO.N,D1_B*%
X10100000Y-15550000D03*
%TO.P,D1,2*%
%TO.N,VLED*%
X11500000Y-15550000D03*
%TO.P,D1,3*%
%TO.N,D1_G*%
X10100000Y-12450000D03*
%TO.P,D1,4*%
%TO.N,D1_R*%
X11500000Y-12450000D03*
%TD*%
%TO.P,D3,1*%
%TO.N,D3_B*%
X28300000Y-35550000D03*
%TO.P,D3,2*%
%TO.N,VLED*%
X29700000Y-35550000D03*
%TO.P,D3,3*%
%TO.N,D3_G*%
X28300000Y-32450000D03*
%TO.P,D3,4*%
%TO.N,D3_R*%
X29700000Y-32450000D03*
%TD*%
D11*
%TO.P,J1,SH*%
%TO.N,SHIELD*%
X42320000Y-52050000D03*
D12*
X42320000Y-47870000D03*
D11*
X33680000Y-52050000D03*
D12*
X33680000Y-47870000D03*
%TD*%
D13*
%TO.N,D5_B*%
X39000000Y-20562500D03*
%TO.N,VLED*%
X65140700Y-18133300D03*
X46980700Y-29648300D03*
X54594300Y-44182800D03*
X23633600Y-39000000D03*
X12273600Y-14648300D03*
%TO.N,D5_G*%
X38600000Y-19812500D03*
%TO.N,D5_R*%
X64700000Y-12850000D03*
X38200000Y-20562500D03*
%TO.N,D6_B*%
X42187500Y-23000000D03*
%TO.N,D6_G*%
X41437500Y-22600000D03*
%TO.N,D6_R*%
X39400000Y-19812500D03*
%TO.N,D2_B*%
X22328800Y-37148300D03*
X33812500Y-23400000D03*
%TO.N,D2_G*%
X34562500Y-23800000D03*
%TO.N,D2_R*%
X33812500Y-24200000D03*
X12268200Y-34048300D03*
X30187100Y-27483400D03*
%TO.N,D4_B*%
X37800000Y-19812500D03*
X45237000Y-29462000D03*
%TO.N,D4_G*%
X37400000Y-20562500D03*
%TO.N,D4_R*%
X37000000Y-19812500D03*
%TO.N,D1_B*%
X34562500Y-24600000D03*
X9727100Y-19269700D03*
%TO.N,D1_G*%
X33812500Y-25000000D03*
%TO.N,D1_R*%
X34562500Y-25400000D03*
%TO.N,D3_B*%
X28107500Y-34343400D03*
X36600000Y-20562500D03*
%TO.N,D3_G*%
X33812500Y-22600000D03*
X28454600Y-30472500D03*
%TO.N,D3_R*%
X34562500Y-23000000D03*
%TO.N,GND*%
X27523500Y-46887500D03*
X37000000Y-34112500D03*
X39000000Y-28187500D03*
X39400000Y-27437500D03*
%TO.N,VBUS*%
X9173400Y-46186200D03*
X4087700Y-9838600D03*
X51228200Y-45000000D03*
X34122300Y-46223400D03*
X42010800Y-46230200D03*
%TO.N,USB_DP_CONN*%
X28418400Y-46705200D03*
X5908200Y-43453600D03*
%TO.N,USB_DM_CONN*%
X5503000Y-39240000D03*
X30941000Y-45984000D03*
X39194900Y-45853200D03*
%TO.N,SHIELD*%
X58760200Y-45778600D03*
%TO.N,3V3*%
X37800000Y-43787500D03*
X40200000Y-43787500D03*
X38200000Y-44537500D03*
X32362500Y-41600000D03*
X38600000Y-27437500D03*
X38200000Y-33362500D03*
X25625900Y-41412200D03*
X42987500Y-38000000D03*
X42987500Y-41600000D03*
X33112500Y-38000000D03*
X38600000Y-34112500D03*
%TO.N,LP_EN*%
X37400000Y-28187500D03*
X55189300Y-28915100D03*
%TO.N,XIN*%
X37400000Y-33362500D03*
X23942100Y-31092000D03*
%TO.N,XOUT*%
X37800000Y-34112500D03*
X30484500Y-33164000D03*
%TO.N,I2C0_SDA*%
X38200000Y-28187500D03*
X33112500Y-39600000D03*
X4000000Y-23733600D03*
%TO.N,3V3_USB*%
X38600000Y-43787500D03*
%TO.N,I2C0_SCL*%
X37800000Y-27437500D03*
X32362500Y-39200000D03*
X4587500Y-25587500D03*
X49210900Y-28614100D03*
%TO.N,SWCLK*%
X14000000Y-49167100D03*
X39000000Y-33362500D03*
%TO.N,SWDIO*%
X10000000Y-39211800D03*
X39400000Y-34112500D03*
%TO.N,RUN_RESET*%
X65362700Y-48926100D03*
X39800000Y-33362500D03*
X18124300Y-34731800D03*
X18014800Y-49167400D03*
X4000000Y-36164800D03*
%TO.N,RP2040_VREG_OUT*%
X42940500Y-42987000D03*
X39800000Y-44537500D03*
%TO.N,USB_DM_MCU*%
X39400000Y-43787500D03*
X49396300Y-43156100D03*
%TO.N,USB_DP_MCU*%
X39000000Y-44537500D03*
%TO.N,FLASH_HOLD_IO3*%
X37400000Y-44537500D03*
%TO.N,FLASH_SCLK*%
X37000000Y-43787500D03*
%TO.N,FLASH_IO0_MOSI*%
X36600000Y-44537500D03*
%TO.N,FLASH_WP_IO2*%
X19525000Y-39000000D03*
X36200000Y-43787500D03*
%TO.N,FLASH_IO1_MISO*%
X35800000Y-44537500D03*
X17300000Y-39635000D03*
%TO.N,FLASH_CS_N_BOOTSEL*%
X35400000Y-43787500D03*
X21963200Y-40905000D03*
X61000000Y-47462700D03*
%TO.N,LP_VCAP*%
X36600000Y-28187500D03*
%TO.N,LP_IREF*%
X31029100Y-32806700D03*
X37000000Y-27437500D03*
%TD*%
%TO.N,D5_B*%
D14*
X39000000Y-20562500D02*
X39000000Y-19635200D01*
X39000000Y-19635200D02*
X40683500Y-17951700D01*
X40683500Y-17951700D02*
X63300000Y-17951700D01*
X63300000Y-17050000D02*
X63300000Y-17951700D01*
%TO.N,VLED*%
X65140700Y-18133300D02*
X64959100Y-17951700D01*
X23633600Y-39000000D02*
X23247100Y-38613500D01*
X11500000Y-15550000D02*
X11500000Y-14648300D01*
X29700000Y-36451700D02*
X27151700Y-39000000D01*
X23247100Y-38613500D02*
X12439900Y-38613500D01*
X46200000Y-29648300D02*
X46980700Y-29648300D01*
X64700000Y-17050000D02*
X64700000Y-17951700D01*
X11500000Y-38050000D02*
X11500000Y-38951700D01*
X64700000Y-40951700D02*
X61468900Y-44182800D01*
X27151700Y-39000000D02*
X23633600Y-39000000D01*
X46200000Y-30550000D02*
X46200000Y-29648300D01*
X12101700Y-38951700D02*
X11500000Y-38951700D01*
X12439900Y-38613500D02*
X12101700Y-38951700D01*
X61468900Y-44182800D02*
X54594300Y-44182800D01*
X64700000Y-40050000D02*
X64700000Y-40951700D01*
X11500000Y-14648300D02*
X12273600Y-14648300D01*
X29700000Y-35550000D02*
X29700000Y-36451700D01*
X64959100Y-17951700D02*
X64700000Y-17951700D01*
%TO.N,D5_G*%
X38600000Y-19812500D02*
X38600000Y-19718800D01*
X43467100Y-14851700D02*
X63300000Y-14851700D01*
X38600000Y-19718800D02*
X43467100Y-14851700D01*
X63300000Y-13950000D02*
X63300000Y-14851700D01*
%TO.N,D5_R*%
X64700000Y-12850000D02*
X64700000Y-13950000D01*
%TO.N,D6_B*%
X63300000Y-40050000D02*
X63300000Y-39148300D01*
X47151700Y-23000000D02*
X63300000Y-39148300D01*
X42187500Y-23000000D02*
X47151700Y-23000000D01*
%TO.N,D6_G*%
X49851700Y-22600000D02*
X63300000Y-36048300D01*
X41437500Y-22600000D02*
X49851700Y-22600000D01*
X63300000Y-36950000D02*
X63300000Y-36048300D01*
%TO.N,D6_R*%
X48464200Y-19812500D02*
X64700000Y-36048300D01*
X64700000Y-36950000D02*
X64700000Y-36048300D01*
X39400000Y-19812500D02*
X48464200Y-19812500D01*
%TO.N,D2_B*%
X10100000Y-37148300D02*
X22328800Y-37148300D01*
X10100000Y-38050000D02*
X10100000Y-37148300D01*
%TO.N,D2_G*%
X35151400Y-24241600D02*
X35151400Y-25376700D01*
X34709800Y-23800000D02*
X35151400Y-24241600D01*
X35151400Y-25376700D02*
X30582400Y-29945700D01*
X10100000Y-34950000D02*
X10100000Y-34048300D01*
X30582400Y-29945700D02*
X14202600Y-29945700D01*
X34562500Y-23800000D02*
X34709800Y-23800000D01*
X14202600Y-29945700D02*
X10100000Y-34048300D01*
%TO.N,D2_R*%
X12268200Y-34048300D02*
X11500000Y-34048300D01*
X11500000Y-34950000D02*
X11500000Y-34048300D01*
%TO.N,D4_B*%
X44800000Y-30550000D02*
X44800000Y-29648300D01*
X45050700Y-29648300D02*
X44800000Y-29648300D01*
X45237000Y-29462000D02*
X45050700Y-29648300D01*
%TO.N,D4_G*%
X37400000Y-20562500D02*
X37400000Y-20705100D01*
X37400000Y-20705100D02*
X43243200Y-26548300D01*
X43243200Y-26548300D02*
X44800000Y-26548300D01*
X44800000Y-27450000D02*
X44800000Y-26548300D01*
%TO.N,D4_R*%
X37776700Y-20727000D02*
X42762100Y-25712400D01*
X37776700Y-20364100D02*
X37776700Y-20727000D01*
X45364100Y-25712400D02*
X46200000Y-26548300D01*
X37225100Y-19812500D02*
X37776700Y-20364100D01*
X37000000Y-19812500D02*
X37225100Y-19812500D01*
X42762100Y-25712400D02*
X45364100Y-25712400D01*
X46200000Y-27450000D02*
X46200000Y-26548300D01*
%TO.N,D1_B*%
X10100000Y-15550000D02*
X10100000Y-18896800D01*
X10100000Y-18896800D02*
X9727100Y-19269700D01*
%TO.N,D1_G*%
X10100000Y-12450000D02*
X10100000Y-13351700D01*
X13093100Y-14000000D02*
X10748300Y-14000000D01*
X33812500Y-25000000D02*
X24093100Y-25000000D01*
X24093100Y-25000000D02*
X13093100Y-14000000D01*
X10748300Y-14000000D02*
X10100000Y-13351700D01*
%TO.N,D1_R*%
X34562500Y-25400000D02*
X34939200Y-25023300D01*
X13003400Y-13351700D02*
X11500000Y-13351700D01*
X23451700Y-23800000D02*
X13003400Y-13351700D01*
X11500000Y-12450000D02*
X11500000Y-13351700D01*
X34390600Y-24202900D02*
X33987700Y-23800000D01*
X33987700Y-23800000D02*
X23451700Y-23800000D01*
X34939200Y-24381400D02*
X34760700Y-24202900D01*
X34760700Y-24202900D02*
X34390600Y-24202900D01*
X34939200Y-25023300D02*
X34939200Y-24381400D01*
%TO.N,D3_B*%
X28300000Y-34535900D02*
X28300000Y-35550000D01*
X28107500Y-34343400D02*
X28300000Y-34535900D01*
%TO.N,D3_G*%
X28454600Y-31393700D02*
X28454600Y-30472500D01*
X28300000Y-32450000D02*
X28300000Y-31548300D01*
X28300000Y-31548300D02*
X28454600Y-31393700D01*
%TO.N,D3_R*%
X29700000Y-31548300D02*
X35353100Y-25895200D01*
X29700000Y-32450000D02*
X29700000Y-31548300D01*
X35353100Y-23790600D02*
X34562500Y-23000000D01*
X35353100Y-25895200D02*
X35353100Y-23790600D01*
%TO.N,RP2040_VREG_OUT*%
X41390000Y-44537500D02*
X42940500Y-42987000D01*
X39800000Y-44537500D02*
X41390000Y-44537500D01*
%TD*%
D15*
X39000000Y-20562500D03*
X65140700Y-18133300D03*
X46980700Y-29648300D03*
X54594300Y-44182800D03*
X23633600Y-39000000D03*
X12273600Y-14648300D03*
X38600000Y-19812500D03*
X64700000Y-12850000D03*
X38200000Y-20562500D03*
X42187500Y-23000000D03*
X41437500Y-22600000D03*
X39400000Y-19812500D03*
X22328800Y-37148300D03*
X33812500Y-23400000D03*
X34562500Y-23800000D03*
X33812500Y-24200000D03*
X12268200Y-34048300D03*
X30187100Y-27483400D03*
X37800000Y-19812500D03*
X45237000Y-29462000D03*
X37400000Y-20562500D03*
X37000000Y-19812500D03*
X34562500Y-24600000D03*
X9727100Y-19269700D03*
X33812500Y-25000000D03*
X34562500Y-25400000D03*
X28107500Y-34343400D03*
X36600000Y-20562500D03*
X33812500Y-22600000D03*
X28454600Y-30472500D03*
X34562500Y-23000000D03*
X27523500Y-46887500D03*
X37000000Y-34112500D03*
X39000000Y-28187500D03*
X39400000Y-27437500D03*
X9173400Y-46186200D03*
X4087700Y-9838600D03*
X51228200Y-45000000D03*
X34122300Y-46223400D03*
X42010800Y-46230200D03*
X28418400Y-46705200D03*
X5908200Y-43453600D03*
X5503000Y-39240000D03*
X30941000Y-45984000D03*
X39194900Y-45853200D03*
X58760200Y-45778600D03*
X37800000Y-43787500D03*
X40200000Y-43787500D03*
X38200000Y-44537500D03*
X32362500Y-41600000D03*
X38600000Y-27437500D03*
X38200000Y-33362500D03*
X25625900Y-41412200D03*
X42987500Y-38000000D03*
X42987500Y-41600000D03*
X33112500Y-38000000D03*
X38600000Y-34112500D03*
X37400000Y-28187500D03*
X55189300Y-28915100D03*
X37400000Y-33362500D03*
X23942100Y-31092000D03*
X37800000Y-34112500D03*
X30484500Y-33164000D03*
X38200000Y-28187500D03*
X33112500Y-39600000D03*
X4000000Y-23733600D03*
X38600000Y-43787500D03*
X37800000Y-27437500D03*
X32362500Y-39200000D03*
X4587500Y-25587500D03*
X49210900Y-28614100D03*
X14000000Y-49167100D03*
X39000000Y-33362500D03*
X10000000Y-39211800D03*
X39400000Y-34112500D03*
X65362700Y-48926100D03*
X39800000Y-33362500D03*
X18124300Y-34731800D03*
X18014800Y-49167400D03*
X4000000Y-36164800D03*
X42940500Y-42987000D03*
X39800000Y-44537500D03*
X39400000Y-43787500D03*
X49396300Y-43156100D03*
X39000000Y-44537500D03*
X37400000Y-44537500D03*
X37000000Y-43787500D03*
X36600000Y-44537500D03*
X19525000Y-39000000D03*
X36200000Y-43787500D03*
X35800000Y-44537500D03*
X17300000Y-39635000D03*
X35400000Y-43787500D03*
X21963200Y-40905000D03*
X61000000Y-47462700D03*
X36600000Y-28187500D03*
X31029100Y-32806700D03*
X37000000Y-27437500D03*
D16*
X72000000Y-4000000D03*
X4000000Y-4000000D03*
X72000000Y-52000000D03*
X4000000Y-52000000D03*
X40890000Y-48400000D03*
X35110000Y-48400000D03*
D17*
X42320000Y-52050000D03*
D18*
X42320000Y-47870000D03*
D17*
X33680000Y-52050000D03*
D18*
X33680000Y-47870000D03*
M02*
