%TF.GenerationSoftware,KiCad,Pcbnew,10.0.3*%
%TF.CreationDate,2026-06-01T00:55:40+08:00*%
%TF.ProjectId,tellmelight_rev_a4,74656c6c-6d65-46c6-9967-68745f726576,A4*%
%TF.SameCoordinates,Original*%
%TF.FileFunction,Copper,L2,Inr*%
%TF.FilePolarity,Positive*%
%FSLAX46Y46*%
G04 Gerber Fmt 4.6, Leading zero omitted, Abs format (unit mm)*
G04 Created by KiCad (PCBNEW 10.0.3) date 2026-06-01 00:55:40*
%MOMM*%
%LPD*%
G01*
G04 APERTURE LIST*
%TA.AperFunction,ComponentPad*%
%ADD10O,1.000000X1.600000*%
%TD*%
%TA.AperFunction,ComponentPad*%
%ADD11O,1.000000X2.100000*%
%TD*%
%TA.AperFunction,HeatsinkPad*%
%ADD12C,0.500000*%
%TD*%
%TA.AperFunction,ViaPad*%
%ADD13C,0.250000*%
%TD*%
%TA.AperFunction,ViaPad*%
%ADD14C,0.600000*%
%TD*%
%TA.AperFunction,Conductor*%
%ADD15C,0.200000*%
%TD*%
G04 APERTURE END LIST*
D10*
%TO.N,SHIELD*%
%TO.C,J1*%
X42320000Y-52050000D03*
D11*
X42320000Y-47870000D03*
D10*
X33680000Y-52050000D03*
D11*
X33680000Y-47870000D03*
%TD*%
D12*
%TO.N,GND*%
%TO.C,U2*%
X36850000Y-22850000D03*
X36850000Y-24000000D03*
X36850000Y-25150000D03*
X38000000Y-22850000D03*
X38000000Y-24000000D03*
X38000000Y-25150000D03*
X39150000Y-22850000D03*
X39150000Y-24000000D03*
X39150000Y-25150000D03*
%TD*%
%TO.N,GND*%
%TO.C,U1*%
X36650000Y-37650000D03*
X36650000Y-40350000D03*
X39350000Y-37650000D03*
X39350000Y-40350000D03*
%TD*%
D13*
%TO.N,D4_B*%
X37550000Y-19200000D03*
D14*
X43846400Y-30550000D03*
%TO.N,VLED*%
X65483000Y-18189100D03*
X11813900Y-17436700D03*
X12459600Y-38050000D03*
X22997900Y-48000000D03*
X57240800Y-41224000D03*
D13*
%TO.N,D4_G*%
X36900000Y-19200000D03*
D14*
%TO.N,D4_R*%
X45402600Y-25600900D03*
D13*
X36250000Y-19200000D03*
%TO.N,D2_B*%
X33000000Y-22750000D03*
%TO.N,D2_G*%
X33000000Y-23400000D03*
%TO.N,D2_R*%
X33000000Y-24050000D03*
%TO.N,D5_B*%
X39500000Y-19200000D03*
%TO.N,D5_G*%
X38850000Y-19200000D03*
D14*
%TO.N,D5_R*%
X64525200Y-15219300D03*
D13*
X38200000Y-19200000D03*
%TO.N,D1_B*%
X33000000Y-24700000D03*
D14*
X10441800Y-16812000D03*
D13*
%TO.N,D1_G*%
X33000000Y-25350000D03*
D14*
X9888600Y-13713100D03*
%TO.N,D1_R*%
X12383100Y-11398300D03*
D13*
X33000000Y-26000000D03*
%TO.N,D3_B*%
X35600000Y-19200000D03*
%TO.N,D3_G*%
X33000000Y-21450000D03*
D14*
X28007000Y-30466400D03*
D13*
%TO.N,D3_R*%
X31600000Y-22000000D03*
%TO.N,D6_B*%
X42500000Y-22350000D03*
%TO.N,D6_G*%
X42500000Y-21700000D03*
%TO.N,D6_R*%
X40150000Y-19200000D03*
%TO.N,GND*%
X39800000Y-27000000D03*
D14*
X53482100Y-39749600D03*
X6770600Y-20506300D03*
D13*
X37000000Y-34600000D03*
D14*
X32406300Y-46291200D03*
D13*
X39200000Y-27000000D03*
D14*
X44001200Y-35226200D03*
%TO.N,VBUS*%
X39861000Y-48193400D03*
X30719400Y-46227400D03*
X5025700Y-9000000D03*
%TO.N,USB_DP_CONN*%
X29490700Y-46297100D03*
X12442200Y-29000000D03*
%TO.N,USB_DM_CONN*%
X3183900Y-43147100D03*
X40972200Y-43445100D03*
X29856400Y-47068500D03*
X37952300Y-48191700D03*
%TO.N,SHIELD*%
X60175000Y-43924400D03*
D13*
%TO.N,3V3*%
X42400000Y-41600000D03*
X42400000Y-38000000D03*
X38600000Y-27000000D03*
X32800000Y-38000000D03*
X38600000Y-34200000D03*
X38200000Y-43300000D03*
X37800000Y-43000000D03*
X38200000Y-34600000D03*
X40200000Y-43300000D03*
D14*
%TO.N,XOUT*%
X26875400Y-31074600D03*
D13*
X37800000Y-32900000D03*
D14*
%TO.N,LP_IREF*%
X29175000Y-30470600D03*
D13*
X37000000Y-29200000D03*
D14*
%TO.N,I2C0_SDA*%
X4801700Y-26221300D03*
D13*
X38200000Y-28500000D03*
X32800000Y-39600000D03*
D14*
%TO.N,I2C0_SCL*%
X49825000Y-29478100D03*
D13*
X37800000Y-29200000D03*
X32000000Y-39200000D03*
D14*
X6125800Y-26672900D03*
D13*
%TO.N,LP_EN*%
X37400000Y-28500000D03*
D14*
X55032200Y-28983200D03*
X39907400Y-29442700D03*
%TO.N,XIN*%
X21667700Y-31746400D03*
D13*
X37400000Y-33700000D03*
D14*
%TO.N,FLASH_CS_N_BOOTSEL*%
X53258300Y-49480300D03*
D13*
X35400000Y-44700000D03*
D14*
X20511800Y-42986500D03*
%TO.N,FLASH_IO1_MISO*%
X21761000Y-41737600D03*
D13*
X35800000Y-44000000D03*
D14*
%TO.N,FLASH_WP_IO2*%
X21544200Y-39487500D03*
D13*
X36200000Y-44700000D03*
D14*
%TO.N,FLASH_IO0_MOSI*%
X25752300Y-41541700D03*
D13*
X36600000Y-44000000D03*
D14*
%TO.N,FLASH_SCLK*%
X26260300Y-38675500D03*
D13*
X37000000Y-44700000D03*
%TO.N,FLASH_HOLD_IO3*%
X37400000Y-44000000D03*
D14*
X22997600Y-39443700D03*
D13*
%TO.N,RP2040_VREG_OUT*%
X39800000Y-44000000D03*
D14*
X44951500Y-41273500D03*
D13*
%TO.N,SWCLK*%
X39000000Y-33700000D03*
D14*
X14721800Y-50721800D03*
D13*
%TO.N,USB_DM_MCU*%
X39400000Y-44700000D03*
D14*
X49427800Y-42943100D03*
D13*
%TO.N,SWDIO*%
X39400000Y-32900000D03*
D14*
X10000000Y-44753600D03*
D13*
%TO.N,RUN_RESET*%
X39800000Y-33700000D03*
D14*
X72643800Y-45005900D03*
X19262600Y-50963100D03*
D13*
%TO.N,USB_DP_MCU*%
X39000000Y-44000000D03*
D14*
X45089100Y-43264100D03*
%TD*%
%TO.N,D4_B*%
D15*
X37550000Y-19200000D02*
X43846400Y-25496400D01*
X43846400Y-25496400D02*
X43846400Y-30550000D01*
%TO.N,VLED*%
X12459600Y-38050000D02*
X11813900Y-37404300D01*
X57240800Y-41224000D02*
X57240800Y-26431300D01*
X11813900Y-37404300D02*
X11813900Y-17436700D01*
X12459600Y-38050000D02*
X22409600Y-48000000D01*
X22409600Y-48000000D02*
X22997900Y-48000000D01*
X57240800Y-26431300D02*
X65483000Y-18189100D01*
%TO.N,D1_R*%
X33454500Y-21627800D02*
X33454500Y-21273700D01*
X32561400Y-25561400D02*
X32561400Y-22520900D01*
X32561400Y-22520900D02*
X33454500Y-21627800D01*
X33000000Y-26000000D02*
X32561400Y-25561400D01*
X33454500Y-21273700D02*
X23579100Y-11398300D01*
X23579100Y-11398300D02*
X12383100Y-11398300D01*
%TO.N,D3_G*%
X28007000Y-26443000D02*
X28007000Y-30466400D01*
X33000000Y-21450000D02*
X28007000Y-26443000D01*
%TO.N,GND*%
X39200000Y-25200000D02*
X39200000Y-27000000D01*
X40553300Y-35226200D02*
X44001200Y-35226200D01*
X38000000Y-22850000D02*
X39150000Y-22850000D01*
X37000000Y-37300000D02*
X36650000Y-37650000D01*
X40553300Y-36446700D02*
X39350000Y-37650000D01*
X38000000Y-25150000D02*
X38000000Y-24000000D01*
X32791500Y-46291200D02*
X32406300Y-46291200D01*
X40553300Y-27753300D02*
X40553300Y-35226200D01*
X39800000Y-27000000D02*
X40553300Y-27753300D01*
X39150000Y-25150000D02*
X39200000Y-25200000D01*
X36650000Y-40350000D02*
X36650000Y-37650000D01*
X40553300Y-35226200D02*
X40553300Y-36446700D01*
X39350000Y-40350000D02*
X38732700Y-40350000D01*
X38732700Y-40350000D02*
X32791500Y-46291200D01*
X39150000Y-25150000D02*
X39150000Y-24000000D01*
X39150000Y-24000000D02*
X39150000Y-22850000D01*
X39350000Y-40350000D02*
X39350000Y-37650000D01*
X37000000Y-34600000D02*
X37000000Y-37300000D01*
X38000000Y-24000000D02*
X38000000Y-22850000D01*
%TO.N,VBUS*%
X30719400Y-46227400D02*
X30719400Y-38844800D01*
X30719400Y-38844800D02*
X22267900Y-30393300D01*
X22267900Y-30393300D02*
X22267900Y-25198400D01*
X22267900Y-25198400D02*
X6069500Y-9000000D01*
X6069500Y-9000000D02*
X5025700Y-9000000D01*
%TO.N,USB_DP_CONN*%
X29490700Y-46297100D02*
X23756700Y-40563100D01*
X13426600Y-29000000D02*
X12442200Y-29000000D01*
X23756700Y-39330100D02*
X13426600Y-29000000D01*
X23756700Y-40563100D02*
X23756700Y-39330100D01*
%TO.N,USB_DM_CONN*%
X40972200Y-45171800D02*
X37952300Y-48191700D01*
X40972200Y-43445100D02*
X40972200Y-45171800D01*
%TO.N,SHIELD*%
X42320000Y-47870000D02*
X42320000Y-52050000D01*
X33680000Y-47870000D02*
X33680000Y-52050000D01*
%TO.N,3V3*%
X42400000Y-41600000D02*
X42400000Y-38000000D01*
X38687400Y-32213100D02*
X38687400Y-27087400D01*
X38512800Y-32387700D02*
X38687400Y-32213100D01*
X38100000Y-43300000D02*
X37800000Y-43000000D01*
X41900000Y-41600000D02*
X40200000Y-43300000D01*
X38512800Y-34112800D02*
X38512800Y-32387700D01*
X38200000Y-43300000D02*
X38100000Y-43300000D01*
X38200000Y-34600000D02*
X38600000Y-34200000D01*
X42400000Y-41600000D02*
X41900000Y-41600000D01*
X40200000Y-43300000D02*
X38200000Y-43300000D01*
X38600000Y-34200000D02*
X38512800Y-34112800D01*
X38687400Y-27087400D02*
X38600000Y-27000000D01*
%TO.N,I2C0_SDA*%
X35034100Y-37365900D02*
X35034100Y-33015900D01*
X38268700Y-29781300D02*
X38268700Y-28568700D01*
X35034100Y-33015900D02*
X38268700Y-29781300D01*
X32800000Y-39600000D02*
X35034100Y-37365900D01*
X38268700Y-28568700D02*
X38200000Y-28500000D01*
%TO.N,I2C0_SCL*%
X32000000Y-35000000D02*
X32000000Y-39200000D01*
X37800000Y-29200000D02*
X32000000Y-35000000D01*
%TO.N,SWCLK*%
X31321100Y-46511700D02*
X30968600Y-46864200D01*
X19013500Y-50361400D02*
X18653200Y-50721700D01*
X37400200Y-37469200D02*
X37400200Y-40381600D01*
X39093700Y-35775700D02*
X37400200Y-37469200D01*
X18653200Y-50721800D02*
X14721800Y-50721800D01*
X39093700Y-33793700D02*
X39093700Y-35775700D01*
X18653200Y-50721700D02*
X18653200Y-50721800D01*
X37400200Y-40381600D02*
X32495600Y-45286200D01*
X32495600Y-45286200D02*
X31990900Y-45286200D01*
X39000000Y-33700000D02*
X39093700Y-33793700D01*
X31990900Y-45286200D02*
X31321100Y-45956000D01*
X27420400Y-50361400D02*
X19013500Y-50361400D01*
X30968600Y-46864200D02*
X30917600Y-46864200D01*
X31321100Y-45956000D02*
X31321100Y-46511700D01*
X30917600Y-46864200D02*
X27420400Y-50361400D01*
%TO.N,RUN_RESET*%
X39800000Y-33700000D02*
X39800000Y-36026400D01*
X31804600Y-46040500D02*
X31804600Y-46596200D01*
X31804600Y-46596200D02*
X27437700Y-50963100D01*
X39800000Y-36026400D02*
X38441700Y-37384700D01*
X32712900Y-45687900D02*
X32157200Y-45687900D01*
X38441700Y-37384700D02*
X38441700Y-39959100D01*
X38441700Y-39959100D02*
X32712900Y-45687900D01*
X32157200Y-45687900D02*
X31804600Y-46040500D01*
X27437700Y-50963100D02*
X19262600Y-50963100D01*
%TD*%
M02*
