%TF.GenerationSoftware,KiCad,Pcbnew,10.0.3*%
%TF.CreationDate,2026-06-01T00:55:40+08:00*%
%TF.ProjectId,tellmelight_rev_a4,74656c6c-6d65-46c6-9967-68745f726576,A4*%
%TF.SameCoordinates,Original*%
%TF.FileFunction,Other,Comment*%
%FSLAX46Y46*%
G04 Gerber Fmt 4.6, Leading zero omitted, Abs format (unit mm)*
G04 Created by KiCad (PCBNEW 10.0.3) date 2026-06-01 00:55:40*
%MOMM*%
%LPD*%
G01*
G04 APERTURE LIST*
%ADD10C,0.120000*%
%ADD11C,0.150000*%
G04 APERTURE END LIST*
D10*
X-3885714Y-53271331D02*
X-3885714Y-52871331D01*
X-3885714Y-52985617D02*
X-3857143Y-52928474D01*
X-3857143Y-52928474D02*
X-3828572Y-52899902D01*
X-3828572Y-52899902D02*
X-3771429Y-52871331D01*
X-3771429Y-52871331D02*
X-3714286Y-52871331D01*
X-3428571Y-53271331D02*
X-3485714Y-53242760D01*
X-3485714Y-53242760D02*
X-3514285Y-53214188D01*
X-3514285Y-53214188D02*
X-3542857Y-53157045D01*
X-3542857Y-53157045D02*
X-3542857Y-52985617D01*
X-3542857Y-52985617D02*
X-3514285Y-52928474D01*
X-3514285Y-52928474D02*
X-3485714Y-52899902D01*
X-3485714Y-52899902D02*
X-3428571Y-52871331D01*
X-3428571Y-52871331D02*
X-3342857Y-52871331D01*
X-3342857Y-52871331D02*
X-3285714Y-52899902D01*
X-3285714Y-52899902D02*
X-3257143Y-52928474D01*
X-3257143Y-52928474D02*
X-3228571Y-52985617D01*
X-3228571Y-52985617D02*
X-3228571Y-53157045D01*
X-3228571Y-53157045D02*
X-3257143Y-53214188D01*
X-3257143Y-53214188D02*
X-3285714Y-53242760D01*
X-3285714Y-53242760D02*
X-3342857Y-53271331D01*
X-3342857Y-53271331D02*
X-3428571Y-53271331D01*
X-2714286Y-52871331D02*
X-2714286Y-53271331D01*
X-2971428Y-52871331D02*
X-2971428Y-53185617D01*
X-2971428Y-53185617D02*
X-2942857Y-53242760D01*
X-2942857Y-53242760D02*
X-2885714Y-53271331D01*
X-2885714Y-53271331D02*
X-2800000Y-53271331D01*
X-2800000Y-53271331D02*
X-2742857Y-53242760D01*
X-2742857Y-53242760D02*
X-2714286Y-53214188D01*
X-2514286Y-52871331D02*
X-2285714Y-52871331D01*
X-2428571Y-52671331D02*
X-2428571Y-53185617D01*
X-2428571Y-53185617D02*
X-2400000Y-53242760D01*
X-2400000Y-53242760D02*
X-2342857Y-53271331D01*
X-2342857Y-53271331D02*
X-2285714Y-53271331D01*
X-2085714Y-53271331D02*
X-2085714Y-52871331D01*
X-2085714Y-52671331D02*
X-2114286Y-52699902D01*
X-2114286Y-52699902D02*
X-2085714Y-52728474D01*
X-2085714Y-52728474D02*
X-2057143Y-52699902D01*
X-2057143Y-52699902D02*
X-2085714Y-52671331D01*
X-2085714Y-52671331D02*
X-2085714Y-52728474D01*
X-1800000Y-52871331D02*
X-1800000Y-53271331D01*
X-1800000Y-52928474D02*
X-1771429Y-52899902D01*
X-1771429Y-52899902D02*
X-1714286Y-52871331D01*
X-1714286Y-52871331D02*
X-1628572Y-52871331D01*
X-1628572Y-52871331D02*
X-1571429Y-52899902D01*
X-1571429Y-52899902D02*
X-1542858Y-52957045D01*
X-1542858Y-52957045D02*
X-1542858Y-53271331D01*
X-1000001Y-52871331D02*
X-1000001Y-53357045D01*
X-1000001Y-53357045D02*
X-1028572Y-53414188D01*
X-1028572Y-53414188D02*
X-1057143Y-53442760D01*
X-1057143Y-53442760D02*
X-1114286Y-53471331D01*
X-1114286Y-53471331D02*
X-1200001Y-53471331D01*
X-1200001Y-53471331D02*
X-1257143Y-53442760D01*
X-1000001Y-53242760D02*
X-1057143Y-53271331D01*
X-1057143Y-53271331D02*
X-1171429Y-53271331D01*
X-1171429Y-53271331D02*
X-1228572Y-53242760D01*
X-1228572Y-53242760D02*
X-1257143Y-53214188D01*
X-1257143Y-53214188D02*
X-1285715Y-53157045D01*
X-1285715Y-53157045D02*
X-1285715Y-52985617D01*
X-1285715Y-52985617D02*
X-1257143Y-52928474D01*
X-1257143Y-52928474D02*
X-1228572Y-52899902D01*
X-1228572Y-52899902D02*
X-1171429Y-52871331D01*
X-1171429Y-52871331D02*
X-1057143Y-52871331D01*
X-1057143Y-52871331D02*
X-1000001Y-52899902D01*
X-1Y-53242760D02*
X-57143Y-53271331D01*
X-57143Y-53271331D02*
X-171429Y-53271331D01*
X-171429Y-53271331D02*
X-228572Y-53242760D01*
X-228572Y-53242760D02*
X-257143Y-53214188D01*
X-257143Y-53214188D02*
X-285715Y-53157045D01*
X-285715Y-53157045D02*
X-285715Y-52985617D01*
X-285715Y-52985617D02*
X-257143Y-52928474D01*
X-257143Y-52928474D02*
X-228572Y-52899902D01*
X-228572Y-52899902D02*
X-171429Y-52871331D01*
X-171429Y-52871331D02*
X-57143Y-52871331D01*
X-57143Y-52871331D02*
X-1Y-52899902D01*
X342856Y-53271331D02*
X285713Y-53242760D01*
X285713Y-53242760D02*
X257142Y-53214188D01*
X257142Y-53214188D02*
X228570Y-53157045D01*
X228570Y-53157045D02*
X228570Y-52985617D01*
X228570Y-52985617D02*
X257142Y-52928474D01*
X257142Y-52928474D02*
X285713Y-52899902D01*
X285713Y-52899902D02*
X342856Y-52871331D01*
X342856Y-52871331D02*
X428570Y-52871331D01*
X428570Y-52871331D02*
X485713Y-52899902D01*
X485713Y-52899902D02*
X514285Y-52928474D01*
X514285Y-52928474D02*
X542856Y-52985617D01*
X542856Y-52985617D02*
X542856Y-53157045D01*
X542856Y-53157045D02*
X514285Y-53214188D01*
X514285Y-53214188D02*
X485713Y-53242760D01*
X485713Y-53242760D02*
X428570Y-53271331D01*
X428570Y-53271331D02*
X342856Y-53271331D01*
X799999Y-53271331D02*
X799999Y-52871331D01*
X799999Y-52928474D02*
X828570Y-52899902D01*
X828570Y-52899902D02*
X885713Y-52871331D01*
X885713Y-52871331D02*
X971427Y-52871331D01*
X971427Y-52871331D02*
X1028570Y-52899902D01*
X1028570Y-52899902D02*
X1057142Y-52957045D01*
X1057142Y-52957045D02*
X1057142Y-53271331D01*
X1057142Y-52957045D02*
X1085713Y-52899902D01*
X1085713Y-52899902D02*
X1142856Y-52871331D01*
X1142856Y-52871331D02*
X1228570Y-52871331D01*
X1228570Y-52871331D02*
X1285713Y-52899902D01*
X1285713Y-52899902D02*
X1314284Y-52957045D01*
X1314284Y-52957045D02*
X1314284Y-53271331D01*
X1599999Y-52871331D02*
X1599999Y-53471331D01*
X1599999Y-52899902D02*
X1657142Y-52871331D01*
X1657142Y-52871331D02*
X1771427Y-52871331D01*
X1771427Y-52871331D02*
X1828570Y-52899902D01*
X1828570Y-52899902D02*
X1857142Y-52928474D01*
X1857142Y-52928474D02*
X1885713Y-52985617D01*
X1885713Y-52985617D02*
X1885713Y-53157045D01*
X1885713Y-53157045D02*
X1857142Y-53214188D01*
X1857142Y-53214188D02*
X1828570Y-53242760D01*
X1828570Y-53242760D02*
X1771427Y-53271331D01*
X1771427Y-53271331D02*
X1657142Y-53271331D01*
X1657142Y-53271331D02*
X1599999Y-53242760D01*
X2228570Y-53271331D02*
X2171427Y-53242760D01*
X2171427Y-53242760D02*
X2142856Y-53185617D01*
X2142856Y-53185617D02*
X2142856Y-52671331D01*
X2685713Y-53242760D02*
X2628570Y-53271331D01*
X2628570Y-53271331D02*
X2514285Y-53271331D01*
X2514285Y-53271331D02*
X2457142Y-53242760D01*
X2457142Y-53242760D02*
X2428570Y-53185617D01*
X2428570Y-53185617D02*
X2428570Y-52957045D01*
X2428570Y-52957045D02*
X2457142Y-52899902D01*
X2457142Y-52899902D02*
X2514285Y-52871331D01*
X2514285Y-52871331D02*
X2628570Y-52871331D01*
X2628570Y-52871331D02*
X2685713Y-52899902D01*
X2685713Y-52899902D02*
X2714285Y-52957045D01*
X2714285Y-52957045D02*
X2714285Y-53014188D01*
X2714285Y-53014188D02*
X2428570Y-53071331D01*
X2885713Y-52871331D02*
X3114285Y-52871331D01*
X2971428Y-52671331D02*
X2971428Y-53185617D01*
X2971428Y-53185617D02*
X2999999Y-53242760D01*
X2999999Y-53242760D02*
X3057142Y-53271331D01*
X3057142Y-53271331D02*
X3114285Y-53271331D01*
X3542856Y-53242760D02*
X3485713Y-53271331D01*
X3485713Y-53271331D02*
X3371428Y-53271331D01*
X3371428Y-53271331D02*
X3314285Y-53242760D01*
X3314285Y-53242760D02*
X3285713Y-53185617D01*
X3285713Y-53185617D02*
X3285713Y-52957045D01*
X3285713Y-52957045D02*
X3314285Y-52899902D01*
X3314285Y-52899902D02*
X3371428Y-52871331D01*
X3371428Y-52871331D02*
X3485713Y-52871331D01*
X3485713Y-52871331D02*
X3542856Y-52899902D01*
X3542856Y-52899902D02*
X3571428Y-52957045D01*
X3571428Y-52957045D02*
X3571428Y-53014188D01*
X3571428Y-53014188D02*
X3285713Y-53071331D01*
X4285714Y-53271331D02*
X4285714Y-52871331D01*
X4285714Y-52928474D02*
X4314285Y-52899902D01*
X4314285Y-52899902D02*
X4371428Y-52871331D01*
X4371428Y-52871331D02*
X4457142Y-52871331D01*
X4457142Y-52871331D02*
X4514285Y-52899902D01*
X4514285Y-52899902D02*
X4542857Y-52957045D01*
X4542857Y-52957045D02*
X4542857Y-53271331D01*
X4542857Y-52957045D02*
X4571428Y-52899902D01*
X4571428Y-52899902D02*
X4628571Y-52871331D01*
X4628571Y-52871331D02*
X4714285Y-52871331D01*
X4714285Y-52871331D02*
X4771428Y-52899902D01*
X4771428Y-52899902D02*
X4799999Y-52957045D01*
X4799999Y-52957045D02*
X4799999Y-53271331D01*
X5342857Y-53271331D02*
X5342857Y-52957045D01*
X5342857Y-52957045D02*
X5314285Y-52899902D01*
X5314285Y-52899902D02*
X5257142Y-52871331D01*
X5257142Y-52871331D02*
X5142857Y-52871331D01*
X5142857Y-52871331D02*
X5085714Y-52899902D01*
X5342857Y-53242760D02*
X5285714Y-53271331D01*
X5285714Y-53271331D02*
X5142857Y-53271331D01*
X5142857Y-53271331D02*
X5085714Y-53242760D01*
X5085714Y-53242760D02*
X5057142Y-53185617D01*
X5057142Y-53185617D02*
X5057142Y-53128474D01*
X5057142Y-53128474D02*
X5085714Y-53071331D01*
X5085714Y-53071331D02*
X5142857Y-53042760D01*
X5142857Y-53042760D02*
X5285714Y-53042760D01*
X5285714Y-53042760D02*
X5342857Y-53014188D01*
X5628571Y-53271331D02*
X5628571Y-52871331D01*
X5628571Y-52985617D02*
X5657142Y-52928474D01*
X5657142Y-52928474D02*
X5685714Y-52899902D01*
X5685714Y-52899902D02*
X5742856Y-52871331D01*
X5742856Y-52871331D02*
X5799999Y-52871331D01*
X6000000Y-53271331D02*
X6000000Y-52671331D01*
X6057143Y-53042760D02*
X6228571Y-53271331D01*
X6228571Y-52871331D02*
X6000000Y-53099902D01*
X6714285Y-53242760D02*
X6657142Y-53271331D01*
X6657142Y-53271331D02*
X6542857Y-53271331D01*
X6542857Y-53271331D02*
X6485714Y-53242760D01*
X6485714Y-53242760D02*
X6457142Y-53185617D01*
X6457142Y-53185617D02*
X6457142Y-52957045D01*
X6457142Y-52957045D02*
X6485714Y-52899902D01*
X6485714Y-52899902D02*
X6542857Y-52871331D01*
X6542857Y-52871331D02*
X6657142Y-52871331D01*
X6657142Y-52871331D02*
X6714285Y-52899902D01*
X6714285Y-52899902D02*
X6742857Y-52957045D01*
X6742857Y-52957045D02*
X6742857Y-53014188D01*
X6742857Y-53014188D02*
X6457142Y-53071331D01*
X7000000Y-53271331D02*
X7000000Y-52871331D01*
X7000000Y-52985617D02*
X7028571Y-52928474D01*
X7028571Y-52928474D02*
X7057143Y-52899902D01*
X7057143Y-52899902D02*
X7114285Y-52871331D01*
X7114285Y-52871331D02*
X7171428Y-52871331D01*
X-5400000Y-54099902D02*
X-5114286Y-54099902D01*
X-5457143Y-54271331D02*
X-5257143Y-53671331D01*
X-5257143Y-53671331D02*
X-5057143Y-54271331D01*
X-4914285Y-53871331D02*
X-4771428Y-54271331D01*
X-4771428Y-54271331D02*
X-4628571Y-53871331D01*
X-4142857Y-54271331D02*
X-4142857Y-53957045D01*
X-4142857Y-53957045D02*
X-4171428Y-53899902D01*
X-4171428Y-53899902D02*
X-4228571Y-53871331D01*
X-4228571Y-53871331D02*
X-4342857Y-53871331D01*
X-4342857Y-53871331D02*
X-4399999Y-53899902D01*
X-4142857Y-54242760D02*
X-4199999Y-54271331D01*
X-4199999Y-54271331D02*
X-4342857Y-54271331D01*
X-4342857Y-54271331D02*
X-4399999Y-54242760D01*
X-4399999Y-54242760D02*
X-4428571Y-54185617D01*
X-4428571Y-54185617D02*
X-4428571Y-54128474D01*
X-4428571Y-54128474D02*
X-4399999Y-54071331D01*
X-4399999Y-54071331D02*
X-4342857Y-54042760D01*
X-4342857Y-54042760D02*
X-4199999Y-54042760D01*
X-4199999Y-54042760D02*
X-4142857Y-54014188D01*
X-3942857Y-53871331D02*
X-3714285Y-53871331D01*
X-3857142Y-53671331D02*
X-3857142Y-54185617D01*
X-3857142Y-54185617D02*
X-3828571Y-54242760D01*
X-3828571Y-54242760D02*
X-3771428Y-54271331D01*
X-3771428Y-54271331D02*
X-3714285Y-54271331D01*
X-3257143Y-54271331D02*
X-3257143Y-53957045D01*
X-3257143Y-53957045D02*
X-3285714Y-53899902D01*
X-3285714Y-53899902D02*
X-3342857Y-53871331D01*
X-3342857Y-53871331D02*
X-3457143Y-53871331D01*
X-3457143Y-53871331D02*
X-3514285Y-53899902D01*
X-3257143Y-54242760D02*
X-3314285Y-54271331D01*
X-3314285Y-54271331D02*
X-3457143Y-54271331D01*
X-3457143Y-54271331D02*
X-3514285Y-54242760D01*
X-3514285Y-54242760D02*
X-3542857Y-54185617D01*
X-3542857Y-54185617D02*
X-3542857Y-54128474D01*
X-3542857Y-54128474D02*
X-3514285Y-54071331D01*
X-3514285Y-54071331D02*
X-3457143Y-54042760D01*
X-3457143Y-54042760D02*
X-3314285Y-54042760D01*
X-3314285Y-54042760D02*
X-3257143Y-54014188D01*
X-2971428Y-54271331D02*
X-2971428Y-53871331D01*
X-2971428Y-53985617D02*
X-2942857Y-53928474D01*
X-2942857Y-53928474D02*
X-2914286Y-53899902D01*
X-2914286Y-53899902D02*
X-2857143Y-53871331D01*
X-2857143Y-53871331D02*
X-2800000Y-53871331D01*
X-2199999Y-53871331D02*
X-2085714Y-54271331D01*
X-2085714Y-54271331D02*
X-1971428Y-53985617D01*
X-1971428Y-53985617D02*
X-1857142Y-54271331D01*
X-1857142Y-54271331D02*
X-1742856Y-53871331D01*
X-1257143Y-54271331D02*
X-1257143Y-53957045D01*
X-1257143Y-53957045D02*
X-1285714Y-53899902D01*
X-1285714Y-53899902D02*
X-1342857Y-53871331D01*
X-1342857Y-53871331D02*
X-1457143Y-53871331D01*
X-1457143Y-53871331D02*
X-1514285Y-53899902D01*
X-1257143Y-54242760D02*
X-1314285Y-54271331D01*
X-1314285Y-54271331D02*
X-1457143Y-54271331D01*
X-1457143Y-54271331D02*
X-1514285Y-54242760D01*
X-1514285Y-54242760D02*
X-1542857Y-54185617D01*
X-1542857Y-54185617D02*
X-1542857Y-54128474D01*
X-1542857Y-54128474D02*
X-1514285Y-54071331D01*
X-1514285Y-54071331D02*
X-1457143Y-54042760D01*
X-1457143Y-54042760D02*
X-1314285Y-54042760D01*
X-1314285Y-54042760D02*
X-1257143Y-54014188D01*
X-1057143Y-53871331D02*
X-828571Y-53871331D01*
X-971428Y-53671331D02*
X-971428Y-54185617D01*
X-971428Y-54185617D02*
X-942857Y-54242760D01*
X-942857Y-54242760D02*
X-885714Y-54271331D01*
X-885714Y-54271331D02*
X-828571Y-54271331D01*
X-400000Y-54242760D02*
X-457143Y-54271331D01*
X-457143Y-54271331D02*
X-571429Y-54271331D01*
X-571429Y-54271331D02*
X-628571Y-54242760D01*
X-628571Y-54242760D02*
X-657143Y-54185617D01*
X-657143Y-54185617D02*
X-657143Y-53957045D01*
X-657143Y-53957045D02*
X-628571Y-53899902D01*
X-628571Y-53899902D02*
X-571429Y-53871331D01*
X-571429Y-53871331D02*
X-457143Y-53871331D01*
X-457143Y-53871331D02*
X-400000Y-53899902D01*
X-400000Y-53899902D02*
X-371429Y-53957045D01*
X-371429Y-53957045D02*
X-371429Y-54014188D01*
X-371429Y-54014188D02*
X-657143Y-54071331D01*
X-114285Y-54271331D02*
X-114285Y-53871331D01*
X-114285Y-53985617D02*
X-85714Y-53928474D01*
X-85714Y-53928474D02*
X-57143Y-53899902D01*
X-57143Y-53899902D02*
X0Y-53871331D01*
X0Y-53871331D02*
X57142Y-53871331D01*
X257143Y-54271331D02*
X257143Y-53871331D01*
X257143Y-53928474D02*
X285714Y-53899902D01*
X285714Y-53899902D02*
X342857Y-53871331D01*
X342857Y-53871331D02*
X428571Y-53871331D01*
X428571Y-53871331D02*
X485714Y-53899902D01*
X485714Y-53899902D02*
X514286Y-53957045D01*
X514286Y-53957045D02*
X514286Y-54271331D01*
X514286Y-53957045D02*
X542857Y-53899902D01*
X542857Y-53899902D02*
X600000Y-53871331D01*
X600000Y-53871331D02*
X685714Y-53871331D01*
X685714Y-53871331D02*
X742857Y-53899902D01*
X742857Y-53899902D02*
X771428Y-53957045D01*
X771428Y-53957045D02*
X771428Y-54271331D01*
X1314286Y-54271331D02*
X1314286Y-53957045D01*
X1314286Y-53957045D02*
X1285714Y-53899902D01*
X1285714Y-53899902D02*
X1228571Y-53871331D01*
X1228571Y-53871331D02*
X1114286Y-53871331D01*
X1114286Y-53871331D02*
X1057143Y-53899902D01*
X1314286Y-54242760D02*
X1257143Y-54271331D01*
X1257143Y-54271331D02*
X1114286Y-54271331D01*
X1114286Y-54271331D02*
X1057143Y-54242760D01*
X1057143Y-54242760D02*
X1028571Y-54185617D01*
X1028571Y-54185617D02*
X1028571Y-54128474D01*
X1028571Y-54128474D02*
X1057143Y-54071331D01*
X1057143Y-54071331D02*
X1114286Y-54042760D01*
X1114286Y-54042760D02*
X1257143Y-54042760D01*
X1257143Y-54042760D02*
X1314286Y-54014188D01*
X1600000Y-54271331D02*
X1600000Y-53871331D01*
X1600000Y-53985617D02*
X1628571Y-53928474D01*
X1628571Y-53928474D02*
X1657143Y-53899902D01*
X1657143Y-53899902D02*
X1714285Y-53871331D01*
X1714285Y-53871331D02*
X1771428Y-53871331D01*
X1971429Y-54271331D02*
X1971429Y-53671331D01*
X2028572Y-54042760D02*
X2200000Y-54271331D01*
X2200000Y-53871331D02*
X1971429Y-54099902D01*
X2885714Y-54099902D02*
X3171429Y-54099902D01*
X2828571Y-54271331D02*
X3028571Y-53671331D01*
X3028571Y-53671331D02*
X3228571Y-54271331D01*
X3742857Y-54271331D02*
X3400000Y-54271331D01*
X3571429Y-54271331D02*
X3571429Y-53671331D01*
X3571429Y-53671331D02*
X3514286Y-53757045D01*
X3514286Y-53757045D02*
X3457143Y-53814188D01*
X3457143Y-53814188D02*
X3400000Y-53842760D01*
X4428572Y-54242760D02*
X4485715Y-54271331D01*
X4485715Y-54271331D02*
X4600001Y-54271331D01*
X4600001Y-54271331D02*
X4657144Y-54242760D01*
X4657144Y-54242760D02*
X4685715Y-54185617D01*
X4685715Y-54185617D02*
X4685715Y-54157045D01*
X4685715Y-54157045D02*
X4657144Y-54099902D01*
X4657144Y-54099902D02*
X4600001Y-54071331D01*
X4600001Y-54071331D02*
X4514287Y-54071331D01*
X4514287Y-54071331D02*
X4457144Y-54042760D01*
X4457144Y-54042760D02*
X4428572Y-53985617D01*
X4428572Y-53985617D02*
X4428572Y-53957045D01*
X4428572Y-53957045D02*
X4457144Y-53899902D01*
X4457144Y-53899902D02*
X4514287Y-53871331D01*
X4514287Y-53871331D02*
X4600001Y-53871331D01*
X4600001Y-53871331D02*
X4657144Y-53899902D01*
X5171429Y-54242760D02*
X5114286Y-54271331D01*
X5114286Y-54271331D02*
X5000001Y-54271331D01*
X5000001Y-54271331D02*
X4942858Y-54242760D01*
X4942858Y-54242760D02*
X4914286Y-54185617D01*
X4914286Y-54185617D02*
X4914286Y-53957045D01*
X4914286Y-53957045D02*
X4942858Y-53899902D01*
X4942858Y-53899902D02*
X5000001Y-53871331D01*
X5000001Y-53871331D02*
X5114286Y-53871331D01*
X5114286Y-53871331D02*
X5171429Y-53899902D01*
X5171429Y-53899902D02*
X5200001Y-53957045D01*
X5200001Y-53957045D02*
X5200001Y-54014188D01*
X5200001Y-54014188D02*
X4914286Y-54071331D01*
X5457144Y-53871331D02*
X5457144Y-54471331D01*
X5457144Y-53899902D02*
X5514287Y-53871331D01*
X5514287Y-53871331D02*
X5628572Y-53871331D01*
X5628572Y-53871331D02*
X5685715Y-53899902D01*
X5685715Y-53899902D02*
X5714287Y-53928474D01*
X5714287Y-53928474D02*
X5742858Y-53985617D01*
X5742858Y-53985617D02*
X5742858Y-54157045D01*
X5742858Y-54157045D02*
X5714287Y-54214188D01*
X5714287Y-54214188D02*
X5685715Y-54242760D01*
X5685715Y-54242760D02*
X5628572Y-54271331D01*
X5628572Y-54271331D02*
X5514287Y-54271331D01*
X5514287Y-54271331D02*
X5457144Y-54242760D01*
X6257144Y-54271331D02*
X6257144Y-53957045D01*
X6257144Y-53957045D02*
X6228572Y-53899902D01*
X6228572Y-53899902D02*
X6171429Y-53871331D01*
X6171429Y-53871331D02*
X6057144Y-53871331D01*
X6057144Y-53871331D02*
X6000001Y-53899902D01*
X6257144Y-54242760D02*
X6200001Y-54271331D01*
X6200001Y-54271331D02*
X6057144Y-54271331D01*
X6057144Y-54271331D02*
X6000001Y-54242760D01*
X6000001Y-54242760D02*
X5971429Y-54185617D01*
X5971429Y-54185617D02*
X5971429Y-54128474D01*
X5971429Y-54128474D02*
X6000001Y-54071331D01*
X6000001Y-54071331D02*
X6057144Y-54042760D01*
X6057144Y-54042760D02*
X6200001Y-54042760D01*
X6200001Y-54042760D02*
X6257144Y-54014188D01*
X6542858Y-54271331D02*
X6542858Y-53871331D01*
X6542858Y-53985617D02*
X6571429Y-53928474D01*
X6571429Y-53928474D02*
X6600001Y-53899902D01*
X6600001Y-53899902D02*
X6657143Y-53871331D01*
X6657143Y-53871331D02*
X6714286Y-53871331D01*
X7171430Y-54271331D02*
X7171430Y-53957045D01*
X7171430Y-53957045D02*
X7142858Y-53899902D01*
X7142858Y-53899902D02*
X7085715Y-53871331D01*
X7085715Y-53871331D02*
X6971430Y-53871331D01*
X6971430Y-53871331D02*
X6914287Y-53899902D01*
X7171430Y-54242760D02*
X7114287Y-54271331D01*
X7114287Y-54271331D02*
X6971430Y-54271331D01*
X6971430Y-54271331D02*
X6914287Y-54242760D01*
X6914287Y-54242760D02*
X6885715Y-54185617D01*
X6885715Y-54185617D02*
X6885715Y-54128474D01*
X6885715Y-54128474D02*
X6914287Y-54071331D01*
X6914287Y-54071331D02*
X6971430Y-54042760D01*
X6971430Y-54042760D02*
X7114287Y-54042760D01*
X7114287Y-54042760D02*
X7171430Y-54014188D01*
X7371429Y-53871331D02*
X7600001Y-53871331D01*
X7457144Y-53671331D02*
X7457144Y-54185617D01*
X7457144Y-54185617D02*
X7485715Y-54242760D01*
X7485715Y-54242760D02*
X7542858Y-54271331D01*
X7542858Y-54271331D02*
X7600001Y-54271331D01*
X8028572Y-54242760D02*
X7971429Y-54271331D01*
X7971429Y-54271331D02*
X7857144Y-54271331D01*
X7857144Y-54271331D02*
X7800001Y-54242760D01*
X7800001Y-54242760D02*
X7771429Y-54185617D01*
X7771429Y-54185617D02*
X7771429Y-53957045D01*
X7771429Y-53957045D02*
X7800001Y-53899902D01*
X7800001Y-53899902D02*
X7857144Y-53871331D01*
X7857144Y-53871331D02*
X7971429Y-53871331D01*
X7971429Y-53871331D02*
X8028572Y-53899902D01*
X8028572Y-53899902D02*
X8057144Y-53957045D01*
X8057144Y-53957045D02*
X8057144Y-54014188D01*
X8057144Y-54014188D02*
X7771429Y-54071331D01*
X8571430Y-54271331D02*
X8571430Y-53671331D01*
X8571430Y-54242760D02*
X8514287Y-54271331D01*
X8514287Y-54271331D02*
X8400001Y-54271331D01*
X8400001Y-54271331D02*
X8342858Y-54242760D01*
X8342858Y-54242760D02*
X8314287Y-54214188D01*
X8314287Y-54214188D02*
X8285715Y-54157045D01*
X8285715Y-54157045D02*
X8285715Y-53985617D01*
X8285715Y-53985617D02*
X8314287Y-53928474D01*
X8314287Y-53928474D02*
X8342858Y-53899902D01*
X8342858Y-53899902D02*
X8400001Y-53871331D01*
X8400001Y-53871331D02*
X8514287Y-53871331D01*
X8514287Y-53871331D02*
X8571430Y-53899902D01*
X-2200000Y-55099902D02*
X-1914286Y-55099902D01*
X-2257143Y-55271331D02*
X-2057143Y-54671331D01*
X-2057143Y-54671331D02*
X-1857143Y-55271331D01*
X-1714285Y-54871331D02*
X-1571428Y-55271331D01*
X-1571428Y-55271331D02*
X-1428571Y-54871331D01*
X-942857Y-55271331D02*
X-942857Y-54957045D01*
X-942857Y-54957045D02*
X-971428Y-54899902D01*
X-971428Y-54899902D02*
X-1028571Y-54871331D01*
X-1028571Y-54871331D02*
X-1142857Y-54871331D01*
X-1142857Y-54871331D02*
X-1199999Y-54899902D01*
X-942857Y-55242760D02*
X-999999Y-55271331D01*
X-999999Y-55271331D02*
X-1142857Y-55271331D01*
X-1142857Y-55271331D02*
X-1199999Y-55242760D01*
X-1199999Y-55242760D02*
X-1228571Y-55185617D01*
X-1228571Y-55185617D02*
X-1228571Y-55128474D01*
X-1228571Y-55128474D02*
X-1199999Y-55071331D01*
X-1199999Y-55071331D02*
X-1142857Y-55042760D01*
X-1142857Y-55042760D02*
X-999999Y-55042760D01*
X-999999Y-55042760D02*
X-942857Y-55014188D01*
X-742857Y-54871331D02*
X-514285Y-54871331D01*
X-657142Y-54671331D02*
X-657142Y-55185617D01*
X-657142Y-55185617D02*
X-628571Y-55242760D01*
X-628571Y-55242760D02*
X-571428Y-55271331D01*
X-571428Y-55271331D02*
X-514285Y-55271331D01*
X-57143Y-55271331D02*
X-57143Y-54957045D01*
X-57143Y-54957045D02*
X-85714Y-54899902D01*
X-85714Y-54899902D02*
X-142857Y-54871331D01*
X-142857Y-54871331D02*
X-257143Y-54871331D01*
X-257143Y-54871331D02*
X-314285Y-54899902D01*
X-57143Y-55242760D02*
X-114285Y-55271331D01*
X-114285Y-55271331D02*
X-257143Y-55271331D01*
X-257143Y-55271331D02*
X-314285Y-55242760D01*
X-314285Y-55242760D02*
X-342857Y-55185617D01*
X-342857Y-55185617D02*
X-342857Y-55128474D01*
X-342857Y-55128474D02*
X-314285Y-55071331D01*
X-314285Y-55071331D02*
X-257143Y-55042760D01*
X-257143Y-55042760D02*
X-114285Y-55042760D01*
X-114285Y-55042760D02*
X-57143Y-55014188D01*
X228571Y-55271331D02*
X228571Y-54871331D01*
X228571Y-54985617D02*
X257142Y-54928474D01*
X257142Y-54928474D02*
X285714Y-54899902D01*
X285714Y-54899902D02*
X342856Y-54871331D01*
X342856Y-54871331D02*
X399999Y-54871331D01*
X1000000Y-54871331D02*
X1114286Y-55271331D01*
X1114286Y-55271331D02*
X1228571Y-54985617D01*
X1228571Y-54985617D02*
X1342857Y-55271331D01*
X1342857Y-55271331D02*
X1457143Y-54871331D01*
X1942857Y-55271331D02*
X1942857Y-54957045D01*
X1942857Y-54957045D02*
X1914285Y-54899902D01*
X1914285Y-54899902D02*
X1857142Y-54871331D01*
X1857142Y-54871331D02*
X1742857Y-54871331D01*
X1742857Y-54871331D02*
X1685714Y-54899902D01*
X1942857Y-55242760D02*
X1885714Y-55271331D01*
X1885714Y-55271331D02*
X1742857Y-55271331D01*
X1742857Y-55271331D02*
X1685714Y-55242760D01*
X1685714Y-55242760D02*
X1657142Y-55185617D01*
X1657142Y-55185617D02*
X1657142Y-55128474D01*
X1657142Y-55128474D02*
X1685714Y-55071331D01*
X1685714Y-55071331D02*
X1742857Y-55042760D01*
X1742857Y-55042760D02*
X1885714Y-55042760D01*
X1885714Y-55042760D02*
X1942857Y-55014188D01*
X2142856Y-54871331D02*
X2371428Y-54871331D01*
X2228571Y-54671331D02*
X2228571Y-55185617D01*
X2228571Y-55185617D02*
X2257142Y-55242760D01*
X2257142Y-55242760D02*
X2314285Y-55271331D01*
X2314285Y-55271331D02*
X2371428Y-55271331D01*
X2799999Y-55242760D02*
X2742856Y-55271331D01*
X2742856Y-55271331D02*
X2628571Y-55271331D01*
X2628571Y-55271331D02*
X2571428Y-55242760D01*
X2571428Y-55242760D02*
X2542856Y-55185617D01*
X2542856Y-55185617D02*
X2542856Y-54957045D01*
X2542856Y-54957045D02*
X2571428Y-54899902D01*
X2571428Y-54899902D02*
X2628571Y-54871331D01*
X2628571Y-54871331D02*
X2742856Y-54871331D01*
X2742856Y-54871331D02*
X2799999Y-54899902D01*
X2799999Y-54899902D02*
X2828571Y-54957045D01*
X2828571Y-54957045D02*
X2828571Y-55014188D01*
X2828571Y-55014188D02*
X2542856Y-55071331D01*
X3085714Y-55271331D02*
X3085714Y-54871331D01*
X3085714Y-54985617D02*
X3114285Y-54928474D01*
X3114285Y-54928474D02*
X3142857Y-54899902D01*
X3142857Y-54899902D02*
X3199999Y-54871331D01*
X3199999Y-54871331D02*
X3257142Y-54871331D01*
X3457143Y-55271331D02*
X3457143Y-54871331D01*
X3457143Y-54928474D02*
X3485714Y-54899902D01*
X3485714Y-54899902D02*
X3542857Y-54871331D01*
X3542857Y-54871331D02*
X3628571Y-54871331D01*
X3628571Y-54871331D02*
X3685714Y-54899902D01*
X3685714Y-54899902D02*
X3714286Y-54957045D01*
X3714286Y-54957045D02*
X3714286Y-55271331D01*
X3714286Y-54957045D02*
X3742857Y-54899902D01*
X3742857Y-54899902D02*
X3800000Y-54871331D01*
X3800000Y-54871331D02*
X3885714Y-54871331D01*
X3885714Y-54871331D02*
X3942857Y-54899902D01*
X3942857Y-54899902D02*
X3971428Y-54957045D01*
X3971428Y-54957045D02*
X3971428Y-55271331D01*
X4514286Y-55271331D02*
X4514286Y-54957045D01*
X4514286Y-54957045D02*
X4485714Y-54899902D01*
X4485714Y-54899902D02*
X4428571Y-54871331D01*
X4428571Y-54871331D02*
X4314286Y-54871331D01*
X4314286Y-54871331D02*
X4257143Y-54899902D01*
X4514286Y-55242760D02*
X4457143Y-55271331D01*
X4457143Y-55271331D02*
X4314286Y-55271331D01*
X4314286Y-55271331D02*
X4257143Y-55242760D01*
X4257143Y-55242760D02*
X4228571Y-55185617D01*
X4228571Y-55185617D02*
X4228571Y-55128474D01*
X4228571Y-55128474D02*
X4257143Y-55071331D01*
X4257143Y-55071331D02*
X4314286Y-55042760D01*
X4314286Y-55042760D02*
X4457143Y-55042760D01*
X4457143Y-55042760D02*
X4514286Y-55014188D01*
X4800000Y-55271331D02*
X4800000Y-54871331D01*
X4800000Y-54985617D02*
X4828571Y-54928474D01*
X4828571Y-54928474D02*
X4857143Y-54899902D01*
X4857143Y-54899902D02*
X4914285Y-54871331D01*
X4914285Y-54871331D02*
X4971428Y-54871331D01*
X5171429Y-55271331D02*
X5171429Y-54671331D01*
X5228572Y-55042760D02*
X5400000Y-55271331D01*
X5400000Y-54871331D02*
X5171429Y-55099902D01*
%TO.C,H1*%
D11*
X6200000Y-4000000D02*
G75*
G02*
X1800000Y-4000000I-2200000J0D01*
G01*
X1800000Y-4000000D02*
G75*
G02*
X6200000Y-4000000I2200000J0D01*
G01*
%TO.C,H4*%
X74200000Y-52000000D02*
G75*
G02*
X69800000Y-52000000I-2200000J0D01*
G01*
X69800000Y-52000000D02*
G75*
G02*
X74200000Y-52000000I2200000J0D01*
G01*
%TO.C,H2*%
X74200000Y-4000000D02*
G75*
G02*
X69800000Y-4000000I-2200000J0D01*
G01*
X69800000Y-4000000D02*
G75*
G02*
X74200000Y-4000000I2200000J0D01*
G01*
%TO.C,H3*%
X6200000Y-52000000D02*
G75*
G02*
X1800000Y-52000000I-2200000J0D01*
G01*
X1800000Y-52000000D02*
G75*
G02*
X6200000Y-52000000I2200000J0D01*
G01*
%TD*%
M02*
