%TF.GenerationSoftware,KiCad,Pcbnew,10.0.3*%
%TF.CreationDate,2026-05-31T01:54:39+08:00*%
%TF.ProjectId,tellmelight_rev_a3,74656c6c-6d65-46c6-9967-68745f726576,A3*%
%TF.SameCoordinates,Original*%
%TF.FileFunction,Soldermask,Top*%
%TF.FilePolarity,Negative*%
%FSLAX46Y46*%
G04 Gerber Fmt 4.6, Leading zero omitted, Abs format (unit mm)*
G04 Created by KiCad (PCBNEW 10.0.3) date 2026-05-31 01:54:39*
%MOMM*%
%LPD*%
G01*
G04 APERTURE LIST*
G04 APERTURE END LIST*
G36*
X4256790Y-50930393D02*
G01*
X4420952Y-50983733D01*
X4574748Y-51062096D01*
X4714393Y-51163553D01*
X4836447Y-51285607D01*
X4937904Y-51425252D01*
X5016267Y-51579048D01*
X5069607Y-51743210D01*
X5096609Y-51913695D01*
X5096609Y-52086305D01*
X5069607Y-52256790D01*
X5016267Y-52420952D01*
X4937904Y-52574748D01*
X4836447Y-52714393D01*
X4714393Y-52836447D01*
X4574748Y-52937904D01*
X4420952Y-53016267D01*
X4256790Y-53069607D01*
X4086305Y-53096609D01*
X3913695Y-53096609D01*
X3743210Y-53069607D01*
X3579048Y-53016267D01*
X3425252Y-52937904D01*
X3285607Y-52836447D01*
X3163553Y-52714393D01*
X3062096Y-52574748D01*
X2983733Y-52420952D01*
X2930393Y-52256790D01*
X2903391Y-52086305D01*
X2903391Y-51913695D01*
X2930393Y-51743210D01*
X2983733Y-51579048D01*
X3062096Y-51425252D01*
X3163553Y-51285607D01*
X3285607Y-51163553D01*
X3425252Y-51062096D01*
X3579048Y-50983733D01*
X3743210Y-50930393D01*
X3913695Y-50903391D01*
X4086305Y-50903391D01*
X4256790Y-50930393D01*
G37*
G36*
X72256790Y-50930393D02*
G01*
X72420952Y-50983733D01*
X72574748Y-51062096D01*
X72714393Y-51163553D01*
X72836447Y-51285607D01*
X72937904Y-51425252D01*
X73016267Y-51579048D01*
X73069607Y-51743210D01*
X73096609Y-51913695D01*
X73096609Y-52086305D01*
X73069607Y-52256790D01*
X73016267Y-52420952D01*
X72937904Y-52574748D01*
X72836447Y-52714393D01*
X72714393Y-52836447D01*
X72574748Y-52937904D01*
X72420952Y-53016267D01*
X72256790Y-53069607D01*
X72086305Y-53096609D01*
X71913695Y-53096609D01*
X71743210Y-53069607D01*
X71579048Y-53016267D01*
X71425252Y-52937904D01*
X71285607Y-52836447D01*
X71163553Y-52714393D01*
X71062096Y-52574748D01*
X70983733Y-52420952D01*
X70930393Y-52256790D01*
X70903391Y-52086305D01*
X70903391Y-51913695D01*
X70930393Y-51743210D01*
X70983733Y-51579048D01*
X71062096Y-51425252D01*
X71163553Y-51285607D01*
X71285607Y-51163553D01*
X71425252Y-51062096D01*
X71579048Y-50983733D01*
X71743210Y-50930393D01*
X71913695Y-50903391D01*
X72086305Y-50903391D01*
X72256790Y-50930393D01*
G37*
G36*
X33871342Y-51288060D02*
G01*
X33984381Y-51353323D01*
X34076677Y-51445619D01*
X34141940Y-51558658D01*
X34175722Y-51684737D01*
X34180000Y-51750000D01*
X34180000Y-52350000D01*
X34175722Y-52415263D01*
X34141940Y-52541342D01*
X34076677Y-52654381D01*
X33984381Y-52746677D01*
X33871342Y-52811940D01*
X33745263Y-52845722D01*
X33614737Y-52845722D01*
X33488658Y-52811940D01*
X33375619Y-52746677D01*
X33283323Y-52654381D01*
X33218060Y-52541342D01*
X33184278Y-52415263D01*
X33180000Y-52350000D01*
X33180000Y-51750000D01*
X33184278Y-51684737D01*
X33218060Y-51558658D01*
X33283323Y-51445619D01*
X33375619Y-51353323D01*
X33488658Y-51288060D01*
X33614737Y-51254278D01*
X33745263Y-51254278D01*
X33871342Y-51288060D01*
G37*
G36*
X42511342Y-51288060D02*
G01*
X42624381Y-51353323D01*
X42716677Y-51445619D01*
X42781940Y-51558658D01*
X42815722Y-51684737D01*
X42820000Y-51750000D01*
X42820000Y-52350000D01*
X42815722Y-52415263D01*
X42781940Y-52541342D01*
X42716677Y-52654381D01*
X42624381Y-52746677D01*
X42511342Y-52811940D01*
X42385263Y-52845722D01*
X42254737Y-52845722D01*
X42128658Y-52811940D01*
X42015619Y-52746677D01*
X41923323Y-52654381D01*
X41858060Y-52541342D01*
X41824278Y-52415263D01*
X41820000Y-52350000D01*
X41820000Y-51750000D01*
X41824278Y-51684737D01*
X41858060Y-51558658D01*
X41923323Y-51445619D01*
X42015619Y-51353323D01*
X42128658Y-51288060D01*
X42254737Y-51254278D01*
X42385263Y-51254278D01*
X42511342Y-51288060D01*
G37*
G36*
X33871342Y-46858060D02*
G01*
X33984381Y-46923323D01*
X34076677Y-47015619D01*
X34141940Y-47128658D01*
X34175722Y-47254737D01*
X34180000Y-47320000D01*
X34180000Y-48420000D01*
X34175722Y-48485263D01*
X34141940Y-48611342D01*
X34076677Y-48724381D01*
X33984381Y-48816677D01*
X33871342Y-48881940D01*
X33745263Y-48915722D01*
X33614737Y-48915722D01*
X33488658Y-48881940D01*
X33375619Y-48816677D01*
X33283323Y-48724381D01*
X33218060Y-48611342D01*
X33184278Y-48485263D01*
X33180000Y-48420000D01*
X33180000Y-47320000D01*
X33184278Y-47254737D01*
X33218060Y-47128658D01*
X33283323Y-47015619D01*
X33375619Y-46923323D01*
X33488658Y-46858060D01*
X33614737Y-46824278D01*
X33745263Y-46824278D01*
X33871342Y-46858060D01*
G37*
G36*
X42511342Y-46858060D02*
G01*
X42624381Y-46923323D01*
X42716677Y-47015619D01*
X42781940Y-47128658D01*
X42815722Y-47254737D01*
X42820000Y-47320000D01*
X42820000Y-48420000D01*
X42815722Y-48485263D01*
X42781940Y-48611342D01*
X42716677Y-48724381D01*
X42624381Y-48816677D01*
X42511342Y-48881940D01*
X42385263Y-48915722D01*
X42254737Y-48915722D01*
X42128658Y-48881940D01*
X42015619Y-48816677D01*
X41923323Y-48724381D01*
X41858060Y-48611342D01*
X41824278Y-48485263D01*
X41820000Y-48420000D01*
X41820000Y-47320000D01*
X41824278Y-47254737D01*
X41858060Y-47128658D01*
X41923323Y-47015619D01*
X42015619Y-46923323D01*
X42128658Y-46858060D01*
X42254737Y-46824278D01*
X42385263Y-46824278D01*
X42511342Y-46858060D01*
G37*
G36*
X35234372Y-48099739D02*
G01*
X35307847Y-48142160D01*
X35367840Y-48202153D01*
X35410261Y-48275628D01*
X35432220Y-48357579D01*
X35432220Y-48442421D01*
X35410261Y-48524372D01*
X35367840Y-48597847D01*
X35307847Y-48657840D01*
X35234372Y-48700261D01*
X35152421Y-48722220D01*
X35067579Y-48722220D01*
X34985628Y-48700261D01*
X34912153Y-48657840D01*
X34852160Y-48597847D01*
X34809739Y-48524372D01*
X34787780Y-48442421D01*
X34787780Y-48357579D01*
X34809739Y-48275628D01*
X34852160Y-48202153D01*
X34912153Y-48142160D01*
X34985628Y-48099739D01*
X35067579Y-48077780D01*
X35152421Y-48077780D01*
X35234372Y-48099739D01*
G37*
G36*
X41014372Y-48099739D02*
G01*
X41087847Y-48142160D01*
X41147840Y-48202153D01*
X41190261Y-48275628D01*
X41212220Y-48357579D01*
X41212220Y-48442421D01*
X41190261Y-48524372D01*
X41147840Y-48597847D01*
X41087847Y-48657840D01*
X41014372Y-48700261D01*
X40932421Y-48722220D01*
X40847579Y-48722220D01*
X40765628Y-48700261D01*
X40692153Y-48657840D01*
X40632160Y-48597847D01*
X40589739Y-48524372D01*
X40567780Y-48442421D01*
X40567780Y-48357579D01*
X40589739Y-48275628D01*
X40632160Y-48202153D01*
X40692153Y-48142160D01*
X40765628Y-48099739D01*
X40847579Y-48077780D01*
X40932421Y-48077780D01*
X41014372Y-48099739D01*
G37*
G36*
X63750000Y-40800000D02*
G01*
X62850000Y-40800000D01*
X62850000Y-39300000D01*
X63750000Y-39300000D01*
X63750000Y-40800000D01*
G37*
G36*
X65150000Y-40800000D02*
G01*
X64250000Y-40800000D01*
X64250000Y-39300000D01*
X65150000Y-39300000D01*
X65150000Y-40800000D01*
G37*
G36*
X10550000Y-38800000D02*
G01*
X9650000Y-38800000D01*
X9650000Y-37300000D01*
X10550000Y-37300000D01*
X10550000Y-38800000D01*
G37*
G36*
X11950000Y-38800000D02*
G01*
X11050000Y-38800000D01*
X11050000Y-37300000D01*
X11950000Y-37300000D01*
X11950000Y-38800000D01*
G37*
G36*
X63750000Y-37700000D02*
G01*
X62850000Y-37700000D01*
X62850000Y-36200000D01*
X63750000Y-36200000D01*
X63750000Y-37700000D01*
G37*
G36*
X65150000Y-37700000D02*
G01*
X64250000Y-37700000D01*
X64250000Y-36200000D01*
X65150000Y-36200000D01*
X65150000Y-37700000D01*
G37*
G36*
X28750000Y-36300000D02*
G01*
X27850000Y-36300000D01*
X27850000Y-34800000D01*
X28750000Y-34800000D01*
X28750000Y-36300000D01*
G37*
G36*
X30150000Y-36300000D02*
G01*
X29250000Y-36300000D01*
X29250000Y-34800000D01*
X30150000Y-34800000D01*
X30150000Y-36300000D01*
G37*
G36*
X10550000Y-35700000D02*
G01*
X9650000Y-35700000D01*
X9650000Y-34200000D01*
X10550000Y-34200000D01*
X10550000Y-35700000D01*
G37*
G36*
X11950000Y-35700000D02*
G01*
X11050000Y-35700000D01*
X11050000Y-34200000D01*
X11950000Y-34200000D01*
X11950000Y-35700000D01*
G37*
G36*
X28750000Y-33200000D02*
G01*
X27850000Y-33200000D01*
X27850000Y-31700000D01*
X28750000Y-31700000D01*
X28750000Y-33200000D01*
G37*
G36*
X30150000Y-33200000D02*
G01*
X29250000Y-33200000D01*
X29250000Y-31700000D01*
X30150000Y-31700000D01*
X30150000Y-33200000D01*
G37*
G36*
X45250000Y-31300000D02*
G01*
X44350000Y-31300000D01*
X44350000Y-29800000D01*
X45250000Y-29800000D01*
X45250000Y-31300000D01*
G37*
G36*
X46650000Y-31300000D02*
G01*
X45750000Y-31300000D01*
X45750000Y-29800000D01*
X46650000Y-29800000D01*
X46650000Y-31300000D01*
G37*
G36*
X45250000Y-28200000D02*
G01*
X44350000Y-28200000D01*
X44350000Y-26700000D01*
X45250000Y-26700000D01*
X45250000Y-28200000D01*
G37*
G36*
X46650000Y-28200000D02*
G01*
X45750000Y-28200000D01*
X45750000Y-26700000D01*
X46650000Y-26700000D01*
X46650000Y-28200000D01*
G37*
G36*
X63750000Y-17800000D02*
G01*
X62850000Y-17800000D01*
X62850000Y-16300000D01*
X63750000Y-16300000D01*
X63750000Y-17800000D01*
G37*
G36*
X65150000Y-17800000D02*
G01*
X64250000Y-17800000D01*
X64250000Y-16300000D01*
X65150000Y-16300000D01*
X65150000Y-17800000D01*
G37*
G36*
X10550000Y-16300000D02*
G01*
X9650000Y-16300000D01*
X9650000Y-14800000D01*
X10550000Y-14800000D01*
X10550000Y-16300000D01*
G37*
G36*
X11950000Y-16300000D02*
G01*
X11050000Y-16300000D01*
X11050000Y-14800000D01*
X11950000Y-14800000D01*
X11950000Y-16300000D01*
G37*
G36*
X63750000Y-14700000D02*
G01*
X62850000Y-14700000D01*
X62850000Y-13200000D01*
X63750000Y-13200000D01*
X63750000Y-14700000D01*
G37*
G36*
X65150000Y-14700000D02*
G01*
X64250000Y-14700000D01*
X64250000Y-13200000D01*
X65150000Y-13200000D01*
X65150000Y-14700000D01*
G37*
G36*
X10550000Y-13200000D02*
G01*
X9650000Y-13200000D01*
X9650000Y-11700000D01*
X10550000Y-11700000D01*
X10550000Y-13200000D01*
G37*
G36*
X11950000Y-13200000D02*
G01*
X11050000Y-13200000D01*
X11050000Y-11700000D01*
X11950000Y-11700000D01*
X11950000Y-13200000D01*
G37*
G36*
X4256790Y-2930393D02*
G01*
X4420952Y-2983733D01*
X4574748Y-3062096D01*
X4714393Y-3163553D01*
X4836447Y-3285607D01*
X4937904Y-3425252D01*
X5016267Y-3579048D01*
X5069607Y-3743210D01*
X5096609Y-3913695D01*
X5096609Y-4086305D01*
X5069607Y-4256790D01*
X5016267Y-4420952D01*
X4937904Y-4574748D01*
X4836447Y-4714393D01*
X4714393Y-4836447D01*
X4574748Y-4937904D01*
X4420952Y-5016267D01*
X4256790Y-5069607D01*
X4086305Y-5096609D01*
X3913695Y-5096609D01*
X3743210Y-5069607D01*
X3579048Y-5016267D01*
X3425252Y-4937904D01*
X3285607Y-4836447D01*
X3163553Y-4714393D01*
X3062096Y-4574748D01*
X2983733Y-4420952D01*
X2930393Y-4256790D01*
X2903391Y-4086305D01*
X2903391Y-3913695D01*
X2930393Y-3743210D01*
X2983733Y-3579048D01*
X3062096Y-3425252D01*
X3163553Y-3285607D01*
X3285607Y-3163553D01*
X3425252Y-3062096D01*
X3579048Y-2983733D01*
X3743210Y-2930393D01*
X3913695Y-2903391D01*
X4086305Y-2903391D01*
X4256790Y-2930393D01*
G37*
G36*
X72256790Y-2930393D02*
G01*
X72420952Y-2983733D01*
X72574748Y-3062096D01*
X72714393Y-3163553D01*
X72836447Y-3285607D01*
X72937904Y-3425252D01*
X73016267Y-3579048D01*
X73069607Y-3743210D01*
X73096609Y-3913695D01*
X73096609Y-4086305D01*
X73069607Y-4256790D01*
X73016267Y-4420952D01*
X72937904Y-4574748D01*
X72836447Y-4714393D01*
X72714393Y-4836447D01*
X72574748Y-4937904D01*
X72420952Y-5016267D01*
X72256790Y-5069607D01*
X72086305Y-5096609D01*
X71913695Y-5096609D01*
X71743210Y-5069607D01*
X71579048Y-5016267D01*
X71425252Y-4937904D01*
X71285607Y-4836447D01*
X71163553Y-4714393D01*
X71062096Y-4574748D01*
X70983733Y-4420952D01*
X70930393Y-4256790D01*
X70903391Y-4086305D01*
X70903391Y-3913695D01*
X70930393Y-3743210D01*
X70983733Y-3579048D01*
X71062096Y-3425252D01*
X71163553Y-3285607D01*
X71285607Y-3163553D01*
X71425252Y-3062096D01*
X71579048Y-2983733D01*
X71743210Y-2930393D01*
X71913695Y-2903391D01*
X72086305Y-2903391D01*
X72256790Y-2930393D01*
G37*
M02*
