%TF.GenerationSoftware,KiCad,Pcbnew,10.0.3*%
%TF.CreationDate,2026-05-31T01:06:47+08:00*%
%TF.ProjectId,tellmelight_rev_a3,74656c6c-6d65-46c6-9967-68745f726576,A3*%
%TF.SameCoordinates,Original*%
%TF.FileFunction,Other,Comment*%
%FSLAX46Y46*%
G04 Gerber Fmt 4.6, Leading zero omitted, Abs format (unit mm)*
G04 Created by KiCad (PCBNEW 10.0.3) date 2026-05-31 01:06:47*
%MOMM*%
%LPD*%
G01*
G04 APERTURE LIST*
%ADD10C,0.120000*%
%ADD11C,0.150000*%
G04 APERTURE END LIST*
D10*
X-2200000Y-55099902D02*
X-1914286Y-55099902D01*
X-2257143Y-55271331D02*
X-2057143Y-54671331D01*
X-2057143Y-54671331D02*
X-1857143Y-55271331D01*
X-1714285Y-54871331D02*
X-1571428Y-55271331D01*
X-1571428Y-55271331D02*
X-1428571Y-54871331D01*
X-942857Y-55271331D02*
X-942857Y-54957045D01*
X-942857Y-54957045D02*
X-971428Y-54899902D01*
X-971428Y-54899902D02*
X-1028571Y-54871331D01*
X-1028571Y-54871331D02*
X-1142857Y-54871331D01*
X-1142857Y-54871331D02*
X-1199999Y-54899902D01*
X-942857Y-55242760D02*
X-999999Y-55271331D01*
X-999999Y-55271331D02*
X-1142857Y-55271331D01*
X-1142857Y-55271331D02*
X-1199999Y-55242760D01*
X-1199999Y-55242760D02*
X-1228571Y-55185617D01*
X-1228571Y-55185617D02*
X-1228571Y-55128474D01*
X-1228571Y-55128474D02*
X-1199999Y-55071331D01*
X-1199999Y-55071331D02*
X-1142857Y-55042760D01*
X-1142857Y-55042760D02*
X-999999Y-55042760D01*
X-999999Y-55042760D02*
X-942857Y-55014188D01*
X-742857Y-54871331D02*
X-514285Y-54871331D01*
X-657142Y-54671331D02*
X-657142Y-55185617D01*
X-657142Y-55185617D02*
X-628571Y-55242760D01*
X-628571Y-55242760D02*
X-571428Y-55271331D01*
X-571428Y-55271331D02*
X-514285Y-55271331D01*
X-57143Y-55271331D02*
X-57143Y-54957045D01*
X-57143Y-54957045D02*
X-85714Y-54899902D01*
X-85714Y-54899902D02*
X-142857Y-54871331D01*
X-142857Y-54871331D02*
X-257143Y-54871331D01*
X-257143Y-54871331D02*
X-314285Y-54899902D01*
X-57143Y-55242760D02*
X-114285Y-55271331D01*
X-114285Y-55271331D02*
X-257143Y-55271331D01*
X-257143Y-55271331D02*
X-314285Y-55242760D01*
X-314285Y-55242760D02*
X-342857Y-55185617D01*
X-342857Y-55185617D02*
X-342857Y-55128474D01*
X-342857Y-55128474D02*
X-314285Y-55071331D01*
X-314285Y-55071331D02*
X-257143Y-55042760D01*
X-257143Y-55042760D02*
X-114285Y-55042760D01*
X-114285Y-55042760D02*
X-57143Y-55014188D01*
X228571Y-55271331D02*
X228571Y-54871331D01*
X228571Y-54985617D02*
X257142Y-54928474D01*
X257142Y-54928474D02*
X285714Y-54899902D01*
X285714Y-54899902D02*
X342856Y-54871331D01*
X342856Y-54871331D02*
X399999Y-54871331D01*
X1000000Y-54871331D02*
X1114286Y-55271331D01*
X1114286Y-55271331D02*
X1228571Y-54985617D01*
X1228571Y-54985617D02*
X1342857Y-55271331D01*
X1342857Y-55271331D02*
X1457143Y-54871331D01*
X1942857Y-55271331D02*
X1942857Y-54957045D01*
X1942857Y-54957045D02*
X1914285Y-54899902D01*
X1914285Y-54899902D02*
X1857142Y-54871331D01*
X1857142Y-54871331D02*
X1742857Y-54871331D01*
X1742857Y-54871331D02*
X1685714Y-54899902D01*
X1942857Y-55242760D02*
X1885714Y-55271331D01*
X1885714Y-55271331D02*
X1742857Y-55271331D01*
X1742857Y-55271331D02*
X1685714Y-55242760D01*
X1685714Y-55242760D02*
X1657142Y-55185617D01*
X1657142Y-55185617D02*
X1657142Y-55128474D01*
X1657142Y-55128474D02*
X1685714Y-55071331D01*
X1685714Y-55071331D02*
X1742857Y-55042760D01*
X1742857Y-55042760D02*
X1885714Y-55042760D01*
X1885714Y-55042760D02*
X1942857Y-55014188D01*
X2142856Y-54871331D02*
X2371428Y-54871331D01*
X2228571Y-54671331D02*
X2228571Y-55185617D01*
X2228571Y-55185617D02*
X2257142Y-55242760D01*
X2257142Y-55242760D02*
X2314285Y-55271331D01*
X2314285Y-55271331D02*
X2371428Y-55271331D01*
X2799999Y-55242760D02*
X2742856Y-55271331D01*
X2742856Y-55271331D02*
X2628571Y-55271331D01*
X2628571Y-55271331D02*
X2571428Y-55242760D01*
X2571428Y-55242760D02*
X2542856Y-55185617D01*
X2542856Y-55185617D02*
X2542856Y-54957045D01*
X2542856Y-54957045D02*
X2571428Y-54899902D01*
X2571428Y-54899902D02*
X2628571Y-54871331D01*
X2628571Y-54871331D02*
X2742856Y-54871331D01*
X2742856Y-54871331D02*
X2799999Y-54899902D01*
X2799999Y-54899902D02*
X2828571Y-54957045D01*
X2828571Y-54957045D02*
X2828571Y-55014188D01*
X2828571Y-55014188D02*
X2542856Y-55071331D01*
X3085714Y-55271331D02*
X3085714Y-54871331D01*
X3085714Y-54985617D02*
X3114285Y-54928474D01*
X3114285Y-54928474D02*
X3142857Y-54899902D01*
X3142857Y-54899902D02*
X3199999Y-54871331D01*
X3199999Y-54871331D02*
X3257142Y-54871331D01*
X3457143Y-55271331D02*
X3457143Y-54871331D01*
X3457143Y-54928474D02*
X3485714Y-54899902D01*
X3485714Y-54899902D02*
X3542857Y-54871331D01*
X3542857Y-54871331D02*
X3628571Y-54871331D01*
X3628571Y-54871331D02*
X3685714Y-54899902D01*
X3685714Y-54899902D02*
X3714286Y-54957045D01*
X3714286Y-54957045D02*
X3714286Y-55271331D01*
X3714286Y-54957045D02*
X3742857Y-54899902D01*
X3742857Y-54899902D02*
X3800000Y-54871331D01*
X3800000Y-54871331D02*
X3885714Y-54871331D01*
X3885714Y-54871331D02*
X3942857Y-54899902D01*
X3942857Y-54899902D02*
X3971428Y-54957045D01*
X3971428Y-54957045D02*
X3971428Y-55271331D01*
X4514286Y-55271331D02*
X4514286Y-54957045D01*
X4514286Y-54957045D02*
X4485714Y-54899902D01*
X4485714Y-54899902D02*
X4428571Y-54871331D01*
X4428571Y-54871331D02*
X4314286Y-54871331D01*
X4314286Y-54871331D02*
X4257143Y-54899902D01*
X4514286Y-55242760D02*
X4457143Y-55271331D01*
X4457143Y-55271331D02*
X4314286Y-55271331D01*
X4314286Y-55271331D02*
X4257143Y-55242760D01*
X4257143Y-55242760D02*
X4228571Y-55185617D01*
X4228571Y-55185617D02*
X4228571Y-55128474D01*
X4228571Y-55128474D02*
X4257143Y-55071331D01*
X4257143Y-55071331D02*
X4314286Y-55042760D01*
X4314286Y-55042760D02*
X4457143Y-55042760D01*
X4457143Y-55042760D02*
X4514286Y-55014188D01*
X4800000Y-55271331D02*
X4800000Y-54871331D01*
X4800000Y-54985617D02*
X4828571Y-54928474D01*
X4828571Y-54928474D02*
X4857143Y-54899902D01*
X4857143Y-54899902D02*
X4914285Y-54871331D01*
X4914285Y-54871331D02*
X4971428Y-54871331D01*
X5171429Y-55271331D02*
X5171429Y-54671331D01*
X5228572Y-55042760D02*
X5400000Y-55271331D01*
X5400000Y-54871331D02*
X5171429Y-55099902D01*
%TO.C,H4*%
D11*
X74200000Y-52000000D02*
G75*
G02*
X69800000Y-52000000I-2200000J0D01*
G01*
X69800000Y-52000000D02*
G75*
G02*
X74200000Y-52000000I2200000J0D01*
G01*
%TO.C,H1*%
X6200000Y-4000000D02*
G75*
G02*
X1800000Y-4000000I-2200000J0D01*
G01*
X1800000Y-4000000D02*
G75*
G02*
X6200000Y-4000000I2200000J0D01*
G01*
%TO.C,H2*%
X74200000Y-4000000D02*
G75*
G02*
X69800000Y-4000000I-2200000J0D01*
G01*
X69800000Y-4000000D02*
G75*
G02*
X74200000Y-4000000I2200000J0D01*
G01*
%TO.C,H3*%
X6200000Y-52000000D02*
G75*
G02*
X1800000Y-52000000I-2200000J0D01*
G01*
X1800000Y-52000000D02*
G75*
G02*
X6200000Y-52000000I2200000J0D01*
G01*
%TD*%
M02*
