%TF.GenerationSoftware,KiCad,Pcbnew,10.0.3*%
%TF.CreationDate,2026-05-31T01:54:39+08:00*%
%TF.ProjectId,tellmelight_rev_a3,74656c6c-6d65-46c6-9967-68745f726576,A3*%
%TF.SameCoordinates,Original*%
%TF.FileFunction,Copper,L4,Bot*%
%TF.FilePolarity,Positive*%
%FSLAX46Y46*%
G04 Gerber Fmt 4.6, Leading zero omitted, Abs format (unit mm)*
G04 Created by KiCad (PCBNEW 10.0.3) date 2026-05-31 01:54:39*
%MOMM*%
%LPD*%
G01*
G04 APERTURE LIST*
G04 Aperture macros list*
%AMRoundRect*
0 Rectangle with rounded corners*
0 $1 Rounding radius*
0 $2 $3 $4 $5 $6 $7 $8 $9 X,Y pos of 4 corners*
0 Add a 4 corners polygon primitive as box body*
4,1,4,$2,$3,$4,$5,$6,$7,$8,$9,$2,$3,0*
0 Add four circle primitives for the rounded corners*
1,1,$1+$1,$2,$3*
1,1,$1+$1,$4,$5*
1,1,$1+$1,$6,$7*
1,1,$1+$1,$8,$9*
0 Add four rect primitives between the rounded corners*
20,1,$1+$1,$2,$3,$4,$5,0*
20,1,$1+$1,$4,$5,$6,$7,0*
20,1,$1+$1,$6,$7,$8,$9,0*
20,1,$1+$1,$8,$9,$2,$3,0*%
G04 Aperture macros list end*
%TA.AperFunction,SMDPad,CuDef*%
%ADD10RoundRect,0.150000X-0.512500X-0.150000X0.512500X-0.150000X0.512500X0.150000X-0.512500X0.150000X0*%
%TD*%
%TA.AperFunction,SMDPad,CuDef*%
%ADD11RoundRect,0.225000X-0.225000X-0.250000X0.225000X-0.250000X0.225000X0.250000X-0.225000X0.250000X0*%
%TD*%
%TA.AperFunction,SMDPad,CuDef*%
%ADD12RoundRect,0.200000X-0.200000X-0.275000X0.200000X-0.275000X0.200000X0.275000X-0.200000X0.275000X0*%
%TD*%
%TA.AperFunction,SMDPad,CuDef*%
%ADD13RoundRect,0.250000X-0.475000X-0.250000X0.475000X-0.250000X0.475000X0.250000X-0.475000X0.250000X0*%
%TD*%
%TA.AperFunction,SMDPad,CuDef*%
%ADD14RoundRect,0.150000X0.150000X0.575000X-0.150000X0.575000X-0.150000X-0.575000X0.150000X-0.575000X0*%
%TD*%
%TA.AperFunction,SMDPad,CuDef*%
%ADD15RoundRect,0.075000X0.075000X0.650000X-0.075000X0.650000X-0.075000X-0.650000X0.075000X-0.650000X0*%
%TD*%
%TA.AperFunction,ComponentPad*%
%ADD16O,1.000000X1.600000*%
%TD*%
%TA.AperFunction,ComponentPad*%
%ADD17O,1.000000X2.100000*%
%TD*%
%TA.AperFunction,SMDPad,CuDef*%
%ADD18C,1.000000*%
%TD*%
%TA.AperFunction,SMDPad,CuDef*%
%ADD19RoundRect,0.250000X-0.450000X-0.350000X0.450000X-0.350000X0.450000X0.350000X-0.450000X0.350000X0*%
%TD*%
%TA.AperFunction,SMDPad,CuDef*%
%ADD20RoundRect,0.075000X-0.075000X-0.075000X0.075000X-0.075000X0.075000X0.075000X-0.075000X0.075000X0*%
%TD*%
%TA.AperFunction,SMDPad,CuDef*%
%ADD21RoundRect,0.075000X-0.075000X-0.175000X0.075000X-0.175000X0.075000X0.175000X-0.075000X0.175000X0*%
%TD*%
%TA.AperFunction,SMDPad,CuDef*%
%ADD22RoundRect,0.150000X-0.825000X-0.150000X0.825000X-0.150000X0.825000X0.150000X-0.825000X0.150000X0*%
%TD*%
%TA.AperFunction,SMDPad,CuDef*%
%ADD23RoundRect,0.050000X-0.337500X-0.050000X0.337500X-0.050000X0.337500X0.050000X-0.337500X0.050000X0*%
%TD*%
%TA.AperFunction,SMDPad,CuDef*%
%ADD24RoundRect,0.050000X-0.050000X-0.337500X0.050000X-0.337500X0.050000X0.337500X-0.050000X0.337500X0*%
%TD*%
%TA.AperFunction,HeatsinkPad*%
%ADD25C,0.500000*%
%TD*%
%TA.AperFunction,HeatsinkPad*%
%ADD26R,2.800000X2.800000*%
%TD*%
%TA.AperFunction,SMDPad,CuDef*%
%ADD27RoundRect,0.050000X-0.387500X-0.050000X0.387500X-0.050000X0.387500X0.050000X-0.387500X0.050000X0*%
%TD*%
%TA.AperFunction,SMDPad,CuDef*%
%ADD28RoundRect,0.050000X-0.050000X-0.387500X0.050000X-0.387500X0.050000X0.387500X-0.050000X0.387500X0*%
%TD*%
%TA.AperFunction,HeatsinkPad*%
%ADD29R,3.200000X3.200000*%
%TD*%
G04 APERTURE END LIST*
D10*
%TO.P,U4,1*%
%TO.N,N/C*%
X54862500Y-39950000D03*
%TO.P,U4,2*%
X54862500Y-39000000D03*
%TO.P,U4,3*%
X54862500Y-38050000D03*
%TO.P,U4,4*%
X57137500Y-38050000D03*
%TO.P,U4,5*%
X57137500Y-39950000D03*
%TD*%
D11*
%TO.P,C3,1*%
%TO.N,N/C*%
X31225000Y-20000000D03*
%TO.P,C3,2*%
X32775000Y-20000000D03*
%TD*%
%TO.P,C14,1*%
%TO.N,N/C*%
X27225000Y-29000000D03*
%TO.P,C14,2*%
X28775000Y-29000000D03*
%TD*%
D12*
%TO.P,R8,1*%
%TO.N,N/C*%
X53175000Y-28000000D03*
%TO.P,R8,2*%
X54825000Y-28000000D03*
%TD*%
D11*
%TO.P,C6,1*%
%TO.N,N/C*%
X55225000Y-34000000D03*
%TO.P,C6,2*%
X56775000Y-34000000D03*
%TD*%
D12*
%TO.P,R6,1*%
%TO.N,N/C*%
X48175000Y-28000000D03*
%TO.P,R6,2*%
X49825000Y-28000000D03*
%TD*%
D11*
%TO.P,C12,1*%
%TO.N,N/C*%
X61225000Y-35000000D03*
%TO.P,C12,2*%
X62775000Y-35000000D03*
%TD*%
%TO.P,C15,1*%
%TO.N,N/C*%
X30225000Y-28000000D03*
%TO.P,C15,2*%
X31775000Y-28000000D03*
%TD*%
D13*
%TO.P,SW2,1*%
%TO.N,N/C*%
X66425000Y-48850000D03*
X71575000Y-48850000D03*
%TO.P,SW2,2*%
X66425000Y-47150000D03*
X71575000Y-47150000D03*
%TD*%
D11*
%TO.P,C16,1*%
%TO.N,N/C*%
X54225000Y-22000000D03*
%TO.P,C16,2*%
X55775000Y-22000000D03*
%TD*%
D12*
%TO.P,R2,1*%
%TO.N,N/C*%
X35175000Y-44000000D03*
%TO.P,R2,2*%
X36825000Y-44000000D03*
%TD*%
D11*
%TO.P,C13,1*%
%TO.N,N/C*%
X20225000Y-28000000D03*
%TO.P,C13,2*%
X21775000Y-28000000D03*
%TD*%
%TO.P,C10,1*%
%TO.N,N/C*%
X49225000Y-22000000D03*
%TO.P,C10,2*%
X50775000Y-22000000D03*
%TD*%
%TO.P,C8,1*%
%TO.N,N/C*%
X52225000Y-43000000D03*
%TO.P,C8,2*%
X53775000Y-43000000D03*
%TD*%
D12*
%TO.P,R1,1*%
%TO.N,N/C*%
X31175000Y-44000000D03*
%TO.P,R1,2*%
X32825000Y-44000000D03*
%TD*%
D14*
%TO.P,J1,A1*%
%TO.N,USB_GND_DUP_1*%
X41250000Y-46955000D03*
%TO.P,J1,A4*%
%TO.N,USB_VBUS_DUP_1*%
X40450000Y-46955000D03*
D15*
%TO.P,J1,A5*%
%TO.N,N/C*%
X39250000Y-46955000D03*
%TO.P,J1,A6*%
X38250000Y-46955000D03*
%TO.P,J1,A7*%
X37750000Y-46955000D03*
%TO.P,J1,A8*%
X36750000Y-46955000D03*
D14*
%TO.P,J1,A9*%
%TO.N,USB_VBUS_DUP_2*%
X35550000Y-46955000D03*
%TO.P,J1,A12*%
%TO.N,USB_GND_DUP_2*%
X34750000Y-46955000D03*
%TO.P,J1,B1*%
X34750000Y-46955000D03*
%TO.P,J1,B4*%
%TO.N,USB_VBUS_DUP_2*%
X35550000Y-46955000D03*
D15*
%TO.P,J1,B5*%
%TO.N,N/C*%
X36250000Y-46955000D03*
%TO.P,J1,B6*%
X37250000Y-46955000D03*
%TO.P,J1,B7*%
X38750000Y-46955000D03*
%TO.P,J1,B8*%
X39750000Y-46955000D03*
D14*
%TO.P,J1,B9*%
%TO.N,USB_VBUS_DUP_1*%
X40450000Y-46955000D03*
%TO.P,J1,B12*%
%TO.N,USB_GND_DUP_1*%
X41250000Y-46955000D03*
D16*
%TO.P,J1,SH*%
%TO.N,N/C*%
X42320000Y-52050000D03*
D17*
X42320000Y-47870000D03*
D16*
X33680000Y-52050000D03*
D17*
X33680000Y-47870000D03*
%TD*%
D11*
%TO.P,C17,1*%
%TO.N,N/C*%
X65225000Y-42000000D03*
%TO.P,C17,2*%
X66775000Y-42000000D03*
%TD*%
%TO.P,C1,1*%
%TO.N,N/C*%
X31225000Y-36000000D03*
%TO.P,C1,2*%
X32775000Y-36000000D03*
%TD*%
%TO.P,C5,1*%
%TO.N,N/C*%
X19225000Y-34000000D03*
%TO.P,C5,2*%
X20775000Y-34000000D03*
%TD*%
D18*
%TO.P,TP8,1*%
%TO.N,N/C*%
X4000000Y-37000000D03*
%TD*%
%TO.P,TP5,1*%
%TO.N,N/C*%
X4000000Y-25000000D03*
%TD*%
D19*
%TO.P,Y1,1*%
%TO.N,N/C*%
X22900000Y-31150000D03*
%TO.P,Y1,2*%
X25100000Y-31150000D03*
%TO.P,Y1,3*%
X25100000Y-32850000D03*
%TO.P,Y1,4*%
X22900000Y-32850000D03*
%TD*%
D20*
%TO.P,U5,1*%
%TO.N,N/C*%
X28650000Y-47575000D03*
%TO.P,U5,2*%
X29350000Y-47575000D03*
%TO.P,U5,3*%
X29000000Y-48425000D03*
%TD*%
D18*
%TO.P,TP9,1*%
%TO.N,N/C*%
X10000000Y-50000000D03*
%TD*%
D12*
%TO.P,R5,1*%
%TO.N,N/C*%
X44175000Y-28000000D03*
%TO.P,R5,2*%
X45825000Y-28000000D03*
%TD*%
D11*
%TO.P,C7,1*%
%TO.N,N/C*%
X27225000Y-44000000D03*
%TO.P,C7,2*%
X28775000Y-44000000D03*
%TD*%
D18*
%TO.P,TP10,1*%
%TO.N,N/C*%
X14000000Y-50000000D03*
%TD*%
D11*
%TO.P,C4,1*%
%TO.N,N/C*%
X43225000Y-20000000D03*
%TO.P,C4,2*%
X44775000Y-20000000D03*
%TD*%
D13*
%TO.P,SW1,1*%
%TO.N,N/C*%
X58425000Y-48850000D03*
X63575000Y-48850000D03*
%TO.P,SW1,2*%
X58425000Y-47150000D03*
X63575000Y-47150000D03*
%TD*%
D18*
%TO.P,TP3,1*%
%TO.N,N/C*%
X4000000Y-17000000D03*
%TD*%
D21*
%TO.P,U6,1*%
%TO.N,N/C*%
X23650000Y-48000000D03*
%TO.P,U6,2*%
X24350000Y-48000000D03*
%TD*%
D11*
%TO.P,C9,1*%
%TO.N,N/C*%
X24225000Y-26000000D03*
%TO.P,C9,2*%
X25775000Y-26000000D03*
%TD*%
D18*
%TO.P,TP1,1*%
%TO.N,N/C*%
X4000000Y-9000000D03*
%TD*%
D11*
%TO.P,C2,1*%
%TO.N,N/C*%
X43225000Y-36000000D03*
%TO.P,C2,2*%
X44775000Y-36000000D03*
%TD*%
D12*
%TO.P,R7,1*%
%TO.N,N/C*%
X33175000Y-28000000D03*
%TO.P,R7,2*%
X34825000Y-28000000D03*
%TD*%
D18*
%TO.P,TP13,1*%
%TO.N,N/C*%
X26000000Y-52000000D03*
%TD*%
%TO.P,TP11,1*%
%TO.N,N/C*%
X18000000Y-50000000D03*
%TD*%
%TO.P,TP2,1*%
%TO.N,N/C*%
X4000000Y-13000000D03*
%TD*%
D22*
%TO.P,U3,1*%
%TO.N,N/C*%
X19525000Y-40905000D03*
%TO.P,U3,2*%
X19525000Y-39635000D03*
%TO.P,U3,3*%
X19525000Y-38365000D03*
%TO.P,U3,4*%
X19525000Y-37095000D03*
%TO.P,U3,5*%
X24475000Y-37095000D03*
%TO.P,U3,6*%
X24475000Y-38365000D03*
%TO.P,U3,7*%
X24475000Y-39635000D03*
%TO.P,U3,8*%
X24475000Y-40905000D03*
%TD*%
D12*
%TO.P,R10,1*%
%TO.N,N/C*%
X46175000Y-45000000D03*
%TO.P,R10,2*%
X47825000Y-45000000D03*
%TD*%
D11*
%TO.P,C11,1*%
%TO.N,N/C*%
X59225000Y-39000000D03*
%TO.P,C11,2*%
X60775000Y-39000000D03*
%TD*%
D12*
%TO.P,R9,1*%
%TO.N,N/C*%
X60175000Y-42000000D03*
%TO.P,R9,2*%
X61825000Y-42000000D03*
%TD*%
D18*
%TO.P,TP4,1*%
%TO.N,N/C*%
X4000000Y-21000000D03*
%TD*%
D12*
%TO.P,R3,1*%
%TO.N,N/C*%
X49175000Y-49000000D03*
%TO.P,R3,2*%
X50825000Y-49000000D03*
%TD*%
D23*
%TO.P,U2,1*%
%TO.N,N/C*%
X36012500Y-25400000D03*
%TO.P,U2,2*%
X36012500Y-25000000D03*
%TO.P,U2,3*%
X36012500Y-24600000D03*
%TO.P,U2,4*%
X36012500Y-24200000D03*
%TO.P,U2,5*%
X36012500Y-23800000D03*
%TO.P,U2,6*%
X36012500Y-23400000D03*
%TO.P,U2,7*%
X36012500Y-23000000D03*
%TO.P,U2,8*%
X36012500Y-22600000D03*
D24*
%TO.P,U2,9*%
X36600000Y-22012500D03*
%TO.P,U2,10*%
X37000000Y-22012500D03*
%TO.P,U2,11*%
X37400000Y-22012500D03*
%TO.P,U2,12*%
X37800000Y-22012500D03*
%TO.P,U2,13*%
X38200000Y-22012500D03*
%TO.P,U2,14*%
X38600000Y-22012500D03*
%TO.P,U2,15*%
X39000000Y-22012500D03*
%TO.P,U2,16*%
X39400000Y-22012500D03*
D23*
%TO.P,U2,17*%
X39987500Y-22600000D03*
%TO.P,U2,18*%
X39987500Y-23000000D03*
%TO.P,U2,19*%
X39987500Y-23400000D03*
%TO.P,U2,20*%
X39987500Y-23800000D03*
%TO.P,U2,21*%
X39987500Y-24200000D03*
%TO.P,U2,22*%
X39987500Y-24600000D03*
%TO.P,U2,23*%
X39987500Y-25000000D03*
%TO.P,U2,24*%
X39987500Y-25400000D03*
D24*
%TO.P,U2,25*%
X39400000Y-25987500D03*
%TO.P,U2,26*%
X39000000Y-25987500D03*
%TO.P,U2,27*%
X38600000Y-25987500D03*
%TO.P,U2,28*%
X38200000Y-25987500D03*
%TO.P,U2,29*%
X37800000Y-25987500D03*
%TO.P,U2,30*%
X37400000Y-25987500D03*
%TO.P,U2,31*%
X37000000Y-25987500D03*
%TO.P,U2,32*%
X36600000Y-25987500D03*
D25*
%TO.P,U2,33*%
X36850000Y-22850000D03*
X36850000Y-24000000D03*
X36850000Y-25150000D03*
X38000000Y-22850000D03*
X38000000Y-24000000D03*
D26*
X38000000Y-24000000D03*
D25*
X38000000Y-25150000D03*
X39150000Y-22850000D03*
X39150000Y-24000000D03*
X39150000Y-25150000D03*
%TD*%
D18*
%TO.P,TP12,1*%
%TO.N,N/C*%
X22000000Y-52000000D03*
%TD*%
D27*
%TO.P,U1,1*%
%TO.N,N/C*%
X34562500Y-41600000D03*
%TO.P,U1,2*%
X34562500Y-41200000D03*
%TO.P,U1,3*%
X34562500Y-40800000D03*
%TO.P,U1,4*%
X34562500Y-40400000D03*
%TO.P,U1,5*%
X34562500Y-40000000D03*
%TO.P,U1,6*%
X34562500Y-39600000D03*
%TO.P,U1,7*%
X34562500Y-39200000D03*
%TO.P,U1,8*%
X34562500Y-38800000D03*
%TO.P,U1,9*%
X34562500Y-38400000D03*
%TO.P,U1,10*%
X34562500Y-38000000D03*
%TO.P,U1,11*%
X34562500Y-37600000D03*
%TO.P,U1,12*%
X34562500Y-37200000D03*
%TO.P,U1,13*%
X34562500Y-36800000D03*
%TO.P,U1,14*%
X34562500Y-36400000D03*
D28*
%TO.P,U1,15*%
X35400000Y-35562500D03*
%TO.P,U1,16*%
X35800000Y-35562500D03*
%TO.P,U1,17*%
X36200000Y-35562500D03*
%TO.P,U1,18*%
X36600000Y-35562500D03*
%TO.P,U1,19*%
X37000000Y-35562500D03*
%TO.P,U1,20*%
X37400000Y-35562500D03*
%TO.P,U1,21*%
X37800000Y-35562500D03*
%TO.P,U1,22*%
X38200000Y-35562500D03*
%TO.P,U1,23*%
X38600000Y-35562500D03*
%TO.P,U1,24*%
X39000000Y-35562500D03*
%TO.P,U1,25*%
X39400000Y-35562500D03*
%TO.P,U1,26*%
X39800000Y-35562500D03*
%TO.P,U1,27*%
X40200000Y-35562500D03*
%TO.P,U1,28*%
X40600000Y-35562500D03*
D27*
%TO.P,U1,29*%
X41437500Y-36400000D03*
%TO.P,U1,30*%
X41437500Y-36800000D03*
%TO.P,U1,31*%
X41437500Y-37200000D03*
%TO.P,U1,32*%
X41437500Y-37600000D03*
%TO.P,U1,33*%
X41437500Y-38000000D03*
%TO.P,U1,34*%
X41437500Y-38400000D03*
%TO.P,U1,35*%
X41437500Y-38800000D03*
%TO.P,U1,36*%
X41437500Y-39200000D03*
%TO.P,U1,37*%
X41437500Y-39600000D03*
%TO.P,U1,38*%
X41437500Y-40000000D03*
%TO.P,U1,39*%
X41437500Y-40400000D03*
%TO.P,U1,40*%
X41437500Y-40800000D03*
%TO.P,U1,41*%
X41437500Y-41200000D03*
%TO.P,U1,42*%
X41437500Y-41600000D03*
D28*
%TO.P,U1,43*%
X40600000Y-42437500D03*
%TO.P,U1,44*%
X40200000Y-42437500D03*
%TO.P,U1,45*%
X39800000Y-42437500D03*
%TO.P,U1,46*%
X39400000Y-42437500D03*
%TO.P,U1,47*%
X39000000Y-42437500D03*
%TO.P,U1,48*%
X38600000Y-42437500D03*
%TO.P,U1,49*%
X38200000Y-42437500D03*
%TO.P,U1,50*%
X37800000Y-42437500D03*
%TO.P,U1,51*%
X37400000Y-42437500D03*
%TO.P,U1,52*%
X37000000Y-42437500D03*
%TO.P,U1,53*%
X36600000Y-42437500D03*
%TO.P,U1,54*%
X36200000Y-42437500D03*
%TO.P,U1,55*%
X35800000Y-42437500D03*
%TO.P,U1,56*%
X35400000Y-42437500D03*
D25*
%TO.P,U1,57*%
X36650000Y-37650000D03*
X36650000Y-40350000D03*
D29*
X38000000Y-39000000D03*
D25*
X39350000Y-37650000D03*
X39350000Y-40350000D03*
%TD*%
D18*
%TO.P,TP6,1*%
%TO.N,N/C*%
X4000000Y-29000000D03*
%TD*%
%TO.P,TP7,1*%
%TO.N,N/C*%
X4000000Y-33000000D03*
%TD*%
D12*
%TO.P,R4,1*%
%TO.N,N/C*%
X54175000Y-49000000D03*
%TO.P,R4,2*%
X55825000Y-49000000D03*
%TD*%
M02*
