%TF.GenerationSoftware,KiCad,Pcbnew,10.0.3*%
%TF.CreationDate,2026-05-31T01:54:39+08:00*%
%TF.ProjectId,tellmelight_rev_a3,74656c6c-6d65-46c6-9967-68745f726576,A3*%
%TF.SameCoordinates,Original*%
%TF.FileFunction,Legend,Top*%
%TF.FilePolarity,Positive*%
%FSLAX46Y46*%
G04 Gerber Fmt 4.6, Leading zero omitted, Abs format (unit mm)*
G04 Created by KiCad (PCBNEW 10.0.3) date 2026-05-31 01:54:39*
%MOMM*%
%LPD*%
G01*
G04 APERTURE LIST*
%ADD10C,0.160000*%
%ADD11C,0.150000*%
%ADD12C,0.120000*%
G04 APERTURE END LIST*
D10*
X6500000Y-5500000D02*
X16500000Y-8000000D01*
X6500000Y-46500000D02*
X6500000Y-5500000D01*
X16500000Y-8000000D02*
X16500000Y-42500000D01*
X16500000Y-42500000D02*
X6500000Y-46500000D01*
X24500000Y-27500000D02*
X33000000Y-29000000D01*
X24500000Y-44000000D02*
X24500000Y-27500000D01*
D11*
X30000000Y-9300000D02*
X30560000Y-8580000D01*
X30160000Y-14840000D02*
X31120000Y-14440000D01*
X30320000Y-10260000D02*
X31120000Y-9620000D01*
X30320000Y-16119999D02*
X30160000Y-14840000D01*
X30320000Y-16759999D02*
X30320000Y-16119999D01*
X30560000Y-8580000D02*
X31440000Y-8260000D01*
X30800000Y-17240000D02*
X30320000Y-16759999D01*
X30960000Y-11140000D02*
X31440000Y-10820000D01*
X31120000Y-9620000D02*
X32000000Y-9540000D01*
X31120000Y-14440000D02*
X32320000Y-14200000D01*
X31440000Y-8260000D02*
X32320000Y-8500000D01*
X31440000Y-10820000D02*
X32000000Y-10820000D01*
X31760000Y-15000000D02*
X31880000Y-15000000D01*
X31820000Y-14940000D02*
X31820000Y-15059999D01*
X32000000Y-9540000D02*
X32720000Y-10020000D01*
X32000000Y-10820000D02*
X32479999Y-11140000D01*
X32080000Y-17800000D02*
X30800000Y-17240000D01*
X32320000Y-8500000D02*
X32880000Y-9219999D01*
X32320000Y-14200000D02*
X33200000Y-14840000D01*
D10*
X33000000Y-29000000D02*
X33000000Y-42000000D01*
X33000000Y-42000000D02*
X24500000Y-44000000D01*
D11*
X33119999Y-17080000D02*
X32080000Y-17800000D01*
X33200000Y-14840000D02*
X33840000Y-15960000D01*
X33840000Y-15960000D02*
X33119999Y-17080000D01*
X34160000Y-9620000D02*
X34560000Y-9219999D01*
X34160000Y-9620000D02*
X34560000Y-10020000D01*
X34160000Y-9620000D02*
X35120000Y-9620000D01*
X34640000Y-16200000D02*
X42240000Y-16200000D01*
X35120000Y-8580000D02*
X36000000Y-7779999D01*
X35120000Y-10580000D02*
X35120000Y-8580000D01*
X36000000Y-7779999D02*
X36000000Y-7300000D01*
X36000000Y-7779999D02*
X36880000Y-8580000D01*
X36000000Y-11219999D02*
X35120000Y-10580000D01*
X36880000Y-8580000D02*
X36880000Y-10580000D01*
X36880000Y-10580000D02*
X36000000Y-11219999D01*
X39120000Y-8740000D02*
X39760000Y-8100000D01*
X39760000Y-8100000D02*
X40400000Y-7460000D01*
X39760000Y-8100000D02*
X40400000Y-8740000D01*
X39760000Y-9379999D02*
X39120000Y-8740000D01*
X39760000Y-9379999D02*
X40400000Y-8740000D01*
X40000000Y-8740000D02*
X40800000Y-8740000D01*
X40400000Y-7460000D02*
X41040000Y-8100000D01*
X40400000Y-8340000D02*
X40400000Y-9140000D01*
X40400000Y-8740000D02*
X39760000Y-8100000D01*
X40400000Y-8740000D02*
X39760000Y-9379999D01*
X40400000Y-8740000D02*
X41040000Y-8100000D01*
X40400000Y-8740000D02*
X41040000Y-9379999D01*
X40400000Y-10020000D02*
X39760000Y-9379999D01*
X41040000Y-8100000D02*
X40400000Y-8740000D01*
X41040000Y-8100000D02*
X41680000Y-8740000D01*
X41040000Y-9379999D02*
X40400000Y-8740000D01*
X41040000Y-9379999D02*
X40400000Y-10020000D01*
X41680000Y-8740000D02*
X41040000Y-9379999D01*
D10*
X43000000Y-24000000D02*
X52000000Y-21500000D01*
X43000000Y-36500000D02*
X43000000Y-24000000D01*
X52000000Y-21500000D02*
X52000000Y-38000000D01*
X52000000Y-38000000D02*
X43000000Y-36500000D01*
X59000000Y-4500000D02*
X70000000Y-7500000D01*
X59000000Y-49000000D02*
X59000000Y-4500000D01*
X70000000Y-7500000D02*
X70000000Y-44000000D01*
X70000000Y-44000000D02*
X59000000Y-49000000D01*
D12*
X18861904Y-3063855D02*
X19319047Y-3063855D01*
X19090475Y-3863855D02*
X19090475Y-3063855D01*
X19890476Y-3825760D02*
X19814285Y-3863855D01*
X19814285Y-3863855D02*
X19661904Y-3863855D01*
X19661904Y-3863855D02*
X19585714Y-3825760D01*
X19585714Y-3825760D02*
X19547618Y-3749569D01*
X19547618Y-3749569D02*
X19547618Y-3444807D01*
X19547618Y-3444807D02*
X19585714Y-3368617D01*
X19585714Y-3368617D02*
X19661904Y-3330521D01*
X19661904Y-3330521D02*
X19814285Y-3330521D01*
X19814285Y-3330521D02*
X19890476Y-3368617D01*
X19890476Y-3368617D02*
X19928571Y-3444807D01*
X19928571Y-3444807D02*
X19928571Y-3520998D01*
X19928571Y-3520998D02*
X19547618Y-3597188D01*
X20385713Y-3863855D02*
X20309523Y-3825760D01*
X20309523Y-3825760D02*
X20271428Y-3749569D01*
X20271428Y-3749569D02*
X20271428Y-3063855D01*
X20804761Y-3863855D02*
X20728571Y-3825760D01*
X20728571Y-3825760D02*
X20690476Y-3749569D01*
X20690476Y-3749569D02*
X20690476Y-3063855D01*
X21109524Y-3863855D02*
X21109524Y-3063855D01*
X21109524Y-3063855D02*
X21376190Y-3635283D01*
X21376190Y-3635283D02*
X21642857Y-3063855D01*
X21642857Y-3063855D02*
X21642857Y-3863855D01*
X22328572Y-3825760D02*
X22252381Y-3863855D01*
X22252381Y-3863855D02*
X22100000Y-3863855D01*
X22100000Y-3863855D02*
X22023810Y-3825760D01*
X22023810Y-3825760D02*
X21985714Y-3749569D01*
X21985714Y-3749569D02*
X21985714Y-3444807D01*
X21985714Y-3444807D02*
X22023810Y-3368617D01*
X22023810Y-3368617D02*
X22100000Y-3330521D01*
X22100000Y-3330521D02*
X22252381Y-3330521D01*
X22252381Y-3330521D02*
X22328572Y-3368617D01*
X22328572Y-3368617D02*
X22366667Y-3444807D01*
X22366667Y-3444807D02*
X22366667Y-3520998D01*
X22366667Y-3520998D02*
X21985714Y-3597188D01*
X23090476Y-3863855D02*
X22709524Y-3863855D01*
X22709524Y-3863855D02*
X22709524Y-3063855D01*
X23357143Y-3863855D02*
X23357143Y-3330521D01*
X23357143Y-3063855D02*
X23319047Y-3101950D01*
X23319047Y-3101950D02*
X23357143Y-3140045D01*
X23357143Y-3140045D02*
X23395238Y-3101950D01*
X23395238Y-3101950D02*
X23357143Y-3063855D01*
X23357143Y-3063855D02*
X23357143Y-3140045D01*
X24080952Y-3330521D02*
X24080952Y-3978140D01*
X24080952Y-3978140D02*
X24042857Y-4054331D01*
X24042857Y-4054331D02*
X24004761Y-4092426D01*
X24004761Y-4092426D02*
X23928571Y-4130521D01*
X23928571Y-4130521D02*
X23814285Y-4130521D01*
X23814285Y-4130521D02*
X23738095Y-4092426D01*
X24080952Y-3825760D02*
X24004761Y-3863855D01*
X24004761Y-3863855D02*
X23852380Y-3863855D01*
X23852380Y-3863855D02*
X23776190Y-3825760D01*
X23776190Y-3825760D02*
X23738095Y-3787664D01*
X23738095Y-3787664D02*
X23699999Y-3711474D01*
X23699999Y-3711474D02*
X23699999Y-3482902D01*
X23699999Y-3482902D02*
X23738095Y-3406712D01*
X23738095Y-3406712D02*
X23776190Y-3368617D01*
X23776190Y-3368617D02*
X23852380Y-3330521D01*
X23852380Y-3330521D02*
X24004761Y-3330521D01*
X24004761Y-3330521D02*
X24080952Y-3368617D01*
X24461905Y-3863855D02*
X24461905Y-3063855D01*
X24804762Y-3863855D02*
X24804762Y-3444807D01*
X24804762Y-3444807D02*
X24766667Y-3368617D01*
X24766667Y-3368617D02*
X24690476Y-3330521D01*
X24690476Y-3330521D02*
X24576190Y-3330521D01*
X24576190Y-3330521D02*
X24500000Y-3368617D01*
X24500000Y-3368617D02*
X24461905Y-3406712D01*
X25071429Y-3330521D02*
X25376191Y-3330521D01*
X25185715Y-3063855D02*
X25185715Y-3749569D01*
X25185715Y-3749569D02*
X25223810Y-3825760D01*
X25223810Y-3825760D02*
X25300000Y-3863855D01*
X25300000Y-3863855D02*
X25376191Y-3863855D01*
X26709525Y-3863855D02*
X26442858Y-3482902D01*
X26252382Y-3863855D02*
X26252382Y-3063855D01*
X26252382Y-3063855D02*
X26557144Y-3063855D01*
X26557144Y-3063855D02*
X26633334Y-3101950D01*
X26633334Y-3101950D02*
X26671429Y-3140045D01*
X26671429Y-3140045D02*
X26709525Y-3216236D01*
X26709525Y-3216236D02*
X26709525Y-3330521D01*
X26709525Y-3330521D02*
X26671429Y-3406712D01*
X26671429Y-3406712D02*
X26633334Y-3444807D01*
X26633334Y-3444807D02*
X26557144Y-3482902D01*
X26557144Y-3482902D02*
X26252382Y-3482902D01*
X27357144Y-3825760D02*
X27280953Y-3863855D01*
X27280953Y-3863855D02*
X27128572Y-3863855D01*
X27128572Y-3863855D02*
X27052382Y-3825760D01*
X27052382Y-3825760D02*
X27014286Y-3749569D01*
X27014286Y-3749569D02*
X27014286Y-3444807D01*
X27014286Y-3444807D02*
X27052382Y-3368617D01*
X27052382Y-3368617D02*
X27128572Y-3330521D01*
X27128572Y-3330521D02*
X27280953Y-3330521D01*
X27280953Y-3330521D02*
X27357144Y-3368617D01*
X27357144Y-3368617D02*
X27395239Y-3444807D01*
X27395239Y-3444807D02*
X27395239Y-3520998D01*
X27395239Y-3520998D02*
X27014286Y-3597188D01*
X27661905Y-3330521D02*
X27852381Y-3863855D01*
X27852381Y-3863855D02*
X28042858Y-3330521D01*
X28919048Y-3635283D02*
X29300001Y-3635283D01*
X28842858Y-3863855D02*
X29109525Y-3063855D01*
X29109525Y-3063855D02*
X29376191Y-3863855D01*
X29566667Y-3063855D02*
X30061905Y-3063855D01*
X30061905Y-3063855D02*
X29795239Y-3368617D01*
X29795239Y-3368617D02*
X29909524Y-3368617D01*
X29909524Y-3368617D02*
X29985715Y-3406712D01*
X29985715Y-3406712D02*
X30023810Y-3444807D01*
X30023810Y-3444807D02*
X30061905Y-3520998D01*
X30061905Y-3520998D02*
X30061905Y-3711474D01*
X30061905Y-3711474D02*
X30023810Y-3787664D01*
X30023810Y-3787664D02*
X29985715Y-3825760D01*
X29985715Y-3825760D02*
X29909524Y-3863855D01*
X29909524Y-3863855D02*
X29680953Y-3863855D01*
X29680953Y-3863855D02*
X29604762Y-3825760D01*
X29604762Y-3825760D02*
X29566667Y-3787664D01*
X36166665Y-3444807D02*
X36280951Y-3482902D01*
X36280951Y-3482902D02*
X36319046Y-3520998D01*
X36319046Y-3520998D02*
X36357142Y-3597188D01*
X36357142Y-3597188D02*
X36357142Y-3711474D01*
X36357142Y-3711474D02*
X36319046Y-3787664D01*
X36319046Y-3787664D02*
X36280951Y-3825760D01*
X36280951Y-3825760D02*
X36204761Y-3863855D01*
X36204761Y-3863855D02*
X35899999Y-3863855D01*
X35899999Y-3863855D02*
X35899999Y-3063855D01*
X35899999Y-3063855D02*
X36166665Y-3063855D01*
X36166665Y-3063855D02*
X36242856Y-3101950D01*
X36242856Y-3101950D02*
X36280951Y-3140045D01*
X36280951Y-3140045D02*
X36319046Y-3216236D01*
X36319046Y-3216236D02*
X36319046Y-3292426D01*
X36319046Y-3292426D02*
X36280951Y-3368617D01*
X36280951Y-3368617D02*
X36242856Y-3406712D01*
X36242856Y-3406712D02*
X36166665Y-3444807D01*
X36166665Y-3444807D02*
X35899999Y-3444807D01*
X36623808Y-3330521D02*
X36814284Y-3863855D01*
X37004761Y-3330521D02*
X36814284Y-3863855D01*
X36814284Y-3863855D02*
X36738094Y-4054331D01*
X36738094Y-4054331D02*
X36699999Y-4092426D01*
X36699999Y-4092426D02*
X36623808Y-4130521D01*
X38147618Y-3063855D02*
X38147618Y-3635283D01*
X38147618Y-3635283D02*
X38109523Y-3749569D01*
X38109523Y-3749569D02*
X38033332Y-3825760D01*
X38033332Y-3825760D02*
X37919047Y-3863855D01*
X37919047Y-3863855D02*
X37842856Y-3863855D01*
X38642856Y-3863855D02*
X38566666Y-3825760D01*
X38566666Y-3825760D02*
X38528571Y-3787664D01*
X38528571Y-3787664D02*
X38490475Y-3711474D01*
X38490475Y-3711474D02*
X38490475Y-3482902D01*
X38490475Y-3482902D02*
X38528571Y-3406712D01*
X38528571Y-3406712D02*
X38566666Y-3368617D01*
X38566666Y-3368617D02*
X38642856Y-3330521D01*
X38642856Y-3330521D02*
X38757142Y-3330521D01*
X38757142Y-3330521D02*
X38833333Y-3368617D01*
X38833333Y-3368617D02*
X38871428Y-3406712D01*
X38871428Y-3406712D02*
X38909523Y-3482902D01*
X38909523Y-3482902D02*
X38909523Y-3711474D01*
X38909523Y-3711474D02*
X38871428Y-3787664D01*
X38871428Y-3787664D02*
X38833333Y-3825760D01*
X38833333Y-3825760D02*
X38757142Y-3863855D01*
X38757142Y-3863855D02*
X38642856Y-3863855D01*
X39557143Y-3825760D02*
X39480952Y-3863855D01*
X39480952Y-3863855D02*
X39328571Y-3863855D01*
X39328571Y-3863855D02*
X39252381Y-3825760D01*
X39252381Y-3825760D02*
X39214285Y-3749569D01*
X39214285Y-3749569D02*
X39214285Y-3444807D01*
X39214285Y-3444807D02*
X39252381Y-3368617D01*
X39252381Y-3368617D02*
X39328571Y-3330521D01*
X39328571Y-3330521D02*
X39480952Y-3330521D01*
X39480952Y-3330521D02*
X39557143Y-3368617D01*
X39557143Y-3368617D02*
X39595238Y-3444807D01*
X39595238Y-3444807D02*
X39595238Y-3520998D01*
X39595238Y-3520998D02*
X39214285Y-3597188D01*
X39861904Y-3330521D02*
X40052380Y-3863855D01*
X40242857Y-3330521D02*
X40052380Y-3863855D01*
X40052380Y-3863855D02*
X39976190Y-4054331D01*
X39976190Y-4054331D02*
X39938095Y-4092426D01*
X39938095Y-4092426D02*
X39861904Y-4130521D01*
X40547619Y-3787664D02*
X40585714Y-3825760D01*
X40585714Y-3825760D02*
X40547619Y-3863855D01*
X40547619Y-3863855D02*
X40509523Y-3825760D01*
X40509523Y-3825760D02*
X40547619Y-3787664D01*
X40547619Y-3787664D02*
X40547619Y-3863855D01*
X41271428Y-3330521D02*
X41271428Y-4130521D01*
X41271428Y-3825760D02*
X41195237Y-3863855D01*
X41195237Y-3863855D02*
X41042856Y-3863855D01*
X41042856Y-3863855D02*
X40966666Y-3825760D01*
X40966666Y-3825760D02*
X40928571Y-3787664D01*
X40928571Y-3787664D02*
X40890475Y-3711474D01*
X40890475Y-3711474D02*
X40890475Y-3482902D01*
X40890475Y-3482902D02*
X40928571Y-3406712D01*
X40928571Y-3406712D02*
X40966666Y-3368617D01*
X40966666Y-3368617D02*
X41042856Y-3330521D01*
X41042856Y-3330521D02*
X41195237Y-3330521D01*
X41195237Y-3330521D02*
X41271428Y-3368617D01*
X41652381Y-3863855D02*
X41652381Y-3330521D01*
X41652381Y-3063855D02*
X41614285Y-3101950D01*
X41614285Y-3101950D02*
X41652381Y-3140045D01*
X41652381Y-3140045D02*
X41690476Y-3101950D01*
X41690476Y-3101950D02*
X41652381Y-3063855D01*
X41652381Y-3063855D02*
X41652381Y-3140045D01*
X42376190Y-3863855D02*
X42376190Y-3444807D01*
X42376190Y-3444807D02*
X42338095Y-3368617D01*
X42338095Y-3368617D02*
X42261904Y-3330521D01*
X42261904Y-3330521D02*
X42109523Y-3330521D01*
X42109523Y-3330521D02*
X42033333Y-3368617D01*
X42376190Y-3825760D02*
X42299999Y-3863855D01*
X42299999Y-3863855D02*
X42109523Y-3863855D01*
X42109523Y-3863855D02*
X42033333Y-3825760D01*
X42033333Y-3825760D02*
X41995237Y-3749569D01*
X41995237Y-3749569D02*
X41995237Y-3673379D01*
X41995237Y-3673379D02*
X42033333Y-3597188D01*
X42033333Y-3597188D02*
X42109523Y-3559093D01*
X42109523Y-3559093D02*
X42299999Y-3559093D01*
X42299999Y-3559093D02*
X42376190Y-3520998D01*
X42871428Y-3863855D02*
X42795238Y-3825760D01*
X42795238Y-3825760D02*
X42757143Y-3787664D01*
X42757143Y-3787664D02*
X42719047Y-3711474D01*
X42719047Y-3711474D02*
X42719047Y-3482902D01*
X42719047Y-3482902D02*
X42757143Y-3406712D01*
X42757143Y-3406712D02*
X42795238Y-3368617D01*
X42795238Y-3368617D02*
X42871428Y-3330521D01*
X42871428Y-3330521D02*
X42985714Y-3330521D01*
X42985714Y-3330521D02*
X43061905Y-3368617D01*
X43061905Y-3368617D02*
X43100000Y-3406712D01*
X43100000Y-3406712D02*
X43138095Y-3482902D01*
X43138095Y-3482902D02*
X43138095Y-3711474D01*
X43138095Y-3711474D02*
X43100000Y-3787664D01*
X43100000Y-3787664D02*
X43061905Y-3825760D01*
X43061905Y-3825760D02*
X42985714Y-3863855D01*
X42985714Y-3863855D02*
X42871428Y-3863855D01*
D11*
X10462295Y-16771428D02*
X10462295Y-17228571D01*
X10462295Y-16999999D02*
X9662295Y-16999999D01*
X9662295Y-16999999D02*
X9776580Y-17076190D01*
X9776580Y-17076190D02*
X9852771Y-17152380D01*
X9852771Y-17152380D02*
X9890866Y-17228571D01*
X45162295Y-31771428D02*
X45162295Y-32228571D01*
X45162295Y-31999999D02*
X44362295Y-31999999D01*
X44362295Y-31999999D02*
X44476580Y-32076190D01*
X44476580Y-32076190D02*
X44552771Y-32152380D01*
X44552771Y-32152380D02*
X44590866Y-32228571D01*
X28662295Y-36771428D02*
X28662295Y-37228571D01*
X28662295Y-36999999D02*
X27862295Y-36999999D01*
X27862295Y-36999999D02*
X27976580Y-37076190D01*
X27976580Y-37076190D02*
X28052771Y-37152380D01*
X28052771Y-37152380D02*
X28090866Y-37228571D01*
X10462295Y-39271428D02*
X10462295Y-39728571D01*
X10462295Y-39499999D02*
X9662295Y-39499999D01*
X9662295Y-39499999D02*
X9776580Y-39576190D01*
X9776580Y-39576190D02*
X9852771Y-39652380D01*
X9852771Y-39652380D02*
X9890866Y-39728571D01*
X71238095Y-1304819D02*
X71238095Y-304819D01*
X71238095Y-781009D02*
X71809523Y-781009D01*
X71809523Y-1304819D02*
X71809523Y-304819D01*
X72238095Y-400057D02*
X72285714Y-352438D01*
X72285714Y-352438D02*
X72380952Y-304819D01*
X72380952Y-304819D02*
X72619047Y-304819D01*
X72619047Y-304819D02*
X72714285Y-352438D01*
X72714285Y-352438D02*
X72761904Y-400057D01*
X72761904Y-400057D02*
X72809523Y-495295D01*
X72809523Y-495295D02*
X72809523Y-590533D01*
X72809523Y-590533D02*
X72761904Y-733390D01*
X72761904Y-733390D02*
X72190476Y-1304819D01*
X72190476Y-1304819D02*
X72809523Y-1304819D01*
X3238095Y-1304819D02*
X3238095Y-304819D01*
X3238095Y-781009D02*
X3809523Y-781009D01*
X3809523Y-1304819D02*
X3809523Y-304819D01*
X4809523Y-1304819D02*
X4238095Y-1304819D01*
X4523809Y-1304819D02*
X4523809Y-304819D01*
X4523809Y-304819D02*
X4428571Y-447676D01*
X4428571Y-447676D02*
X4333333Y-542914D01*
X4333333Y-542914D02*
X4238095Y-590533D01*
X63662295Y-41271428D02*
X63662295Y-41728571D01*
X63662295Y-41499999D02*
X62862295Y-41499999D01*
X62862295Y-41499999D02*
X62976580Y-41576190D01*
X62976580Y-41576190D02*
X63052771Y-41652380D01*
X63052771Y-41652380D02*
X63090866Y-41728571D01*
X63662295Y-18271428D02*
X63662295Y-18728571D01*
X63662295Y-18499999D02*
X62862295Y-18499999D01*
X62862295Y-18499999D02*
X62976580Y-18576190D01*
X62976580Y-18576190D02*
X63052771Y-18652380D01*
X63052771Y-18652380D02*
X63090866Y-18728571D01*
X71238095Y-49304819D02*
X71238095Y-48304819D01*
X71238095Y-48781009D02*
X71809523Y-48781009D01*
X71809523Y-49304819D02*
X71809523Y-48304819D01*
X72714285Y-48638152D02*
X72714285Y-49304819D01*
X72476190Y-48257200D02*
X72238095Y-48971485D01*
X72238095Y-48971485D02*
X72857142Y-48971485D01*
X3238095Y-49304819D02*
X3238095Y-48304819D01*
X3238095Y-48781009D02*
X3809523Y-48781009D01*
X3809523Y-49304819D02*
X3809523Y-48304819D01*
X4190476Y-48304819D02*
X4809523Y-48304819D01*
X4809523Y-48304819D02*
X4476190Y-48685771D01*
X4476190Y-48685771D02*
X4619047Y-48685771D01*
X4619047Y-48685771D02*
X4714285Y-48733390D01*
X4714285Y-48733390D02*
X4761904Y-48781009D01*
X4761904Y-48781009D02*
X4809523Y-48876247D01*
X4809523Y-48876247D02*
X4809523Y-49114342D01*
X4809523Y-49114342D02*
X4761904Y-49209580D01*
X4761904Y-49209580D02*
X4714285Y-49257200D01*
X4714285Y-49257200D02*
X4619047Y-49304819D01*
X4619047Y-49304819D02*
X4333333Y-49304819D01*
X4333333Y-49304819D02*
X4238095Y-49257200D01*
X4238095Y-49257200D02*
X4190476Y-49209580D01*
%TO.C,D1*%
D12*
X9200000Y-16100000D02*
X9200000Y-11500000D01*
X9600000Y-16500000D02*
X9200000Y-16100000D01*
X12400000Y-11500000D02*
X9200000Y-11500000D01*
X12400000Y-16500000D02*
X9600000Y-16500000D01*
X12400000Y-16500000D02*
X12400000Y-11500000D01*
%TO.C,D4*%
X43900000Y-31100000D02*
X43900000Y-26500000D01*
X44300000Y-31500000D02*
X43900000Y-31100000D01*
X47100000Y-26500000D02*
X43900000Y-26500000D01*
X47100000Y-31500000D02*
X44300000Y-31500000D01*
X47100000Y-31500000D02*
X47100000Y-26500000D01*
%TO.C,D3*%
X27400000Y-36100000D02*
X27400000Y-31500000D01*
X27800000Y-36500000D02*
X27400000Y-36100000D01*
X30600000Y-31500000D02*
X27400000Y-31500000D01*
X30600000Y-36500000D02*
X27800000Y-36500000D01*
X30600000Y-36500000D02*
X30600000Y-31500000D01*
%TO.C,D2*%
X9200000Y-38600000D02*
X9200000Y-34000000D01*
X9600000Y-39000000D02*
X9200000Y-38600000D01*
X12400000Y-34000000D02*
X9200000Y-34000000D01*
X12400000Y-39000000D02*
X9600000Y-39000000D01*
X12400000Y-39000000D02*
X12400000Y-34000000D01*
%TO.C,D6*%
X62400000Y-40600000D02*
X62400000Y-36000000D01*
X62800000Y-41000000D02*
X62400000Y-40600000D01*
X65600000Y-36000000D02*
X62400000Y-36000000D01*
X65600000Y-41000000D02*
X62800000Y-41000000D01*
X65600000Y-41000000D02*
X65600000Y-36000000D01*
%TO.C,D5*%
X62400000Y-17600000D02*
X62400000Y-13000000D01*
X62800000Y-18000000D02*
X62400000Y-17600000D01*
X65600000Y-13000000D02*
X62400000Y-13000000D01*
X65600000Y-18000000D02*
X62800000Y-18000000D01*
X65600000Y-18000000D02*
X65600000Y-13000000D01*
%TD*%
M02*
