%TF.GenerationSoftware,KiCad,Pcbnew,10.0.3*%
%TF.CreationDate,2026-05-30T17:04:58+08:00*%
%TF.ProjectId,tellmelight_rev_a1,74656c6c-6d65-46c6-9967-68745f726576,A1*%
%TF.SameCoordinates,Original*%
%TF.FileFunction,Paste,Bot*%
%TF.FilePolarity,Positive*%
%FSLAX46Y46*%
G04 Gerber Fmt 4.6, Leading zero omitted, Abs format (unit mm)*
G04 Created by KiCad (PCBNEW 10.0.3) date 2026-05-30 17:04:58*
%MOMM*%
%LPD*%
G01*
G04 APERTURE LIST*
G04 Aperture macros list*
%AMRoundRect*
0 Rectangle with rounded corners*
0 $1 Rounding radius*
0 $2 $3 $4 $5 $6 $7 $8 $9 X,Y pos of 4 corners*
0 Add a 4 corners polygon primitive as box body*
4,1,4,$2,$3,$4,$5,$6,$7,$8,$9,$2,$3,0*
0 Add four circle primitives for the rounded corners*
1,1,$1+$1,$2,$3*
1,1,$1+$1,$4,$5*
1,1,$1+$1,$6,$7*
1,1,$1+$1,$8,$9*
0 Add four rect primitives between the rounded corners*
20,1,$1+$1,$2,$3,$4,$5,0*
20,1,$1+$1,$4,$5,$6,$7,0*
20,1,$1+$1,$6,$7,$8,$9,0*
20,1,$1+$1,$8,$9,$2,$3,0*%
G04 Aperture macros list end*
%ADD10RoundRect,0.200000X-0.200000X-0.275000X0.200000X-0.275000X0.200000X0.275000X-0.200000X0.275000X0*%
%ADD11RoundRect,0.150000X-0.825000X-0.150000X0.825000X-0.150000X0.825000X0.150000X-0.825000X0.150000X0*%
%ADD12RoundRect,0.225000X-0.225000X-0.250000X0.225000X-0.250000X0.225000X0.250000X-0.225000X0.250000X0*%
%ADD13RoundRect,0.250000X-0.475000X-0.250000X0.475000X-0.250000X0.475000X0.250000X-0.475000X0.250000X0*%
%ADD14RoundRect,0.150000X-0.512500X-0.150000X0.512500X-0.150000X0.512500X0.150000X-0.512500X0.150000X0*%
%ADD15RoundRect,0.250000X-0.335000X-0.335000X0.335000X-0.335000X0.335000X0.335000X-0.335000X0.335000X0*%
%ADD16RoundRect,0.050000X-0.337500X-0.050000X0.337500X-0.050000X0.337500X0.050000X-0.337500X0.050000X0*%
%ADD17RoundRect,0.050000X-0.050000X-0.337500X0.050000X-0.337500X0.050000X0.337500X-0.050000X0.337500X0*%
%ADD18RoundRect,0.250000X-0.370000X-0.370000X0.370000X-0.370000X0.370000X0.370000X-0.370000X0.370000X0*%
%ADD19RoundRect,0.050000X-0.387500X-0.050000X0.387500X-0.050000X0.387500X0.050000X-0.387500X0.050000X0*%
%ADD20RoundRect,0.050000X-0.050000X-0.387500X0.050000X-0.387500X0.050000X0.387500X-0.050000X0.387500X0*%
%ADD21RoundRect,0.250000X-0.450000X-0.350000X0.450000X-0.350000X0.450000X0.350000X-0.450000X0.350000X0*%
%ADD22RoundRect,0.150000X0.150000X0.575000X-0.150000X0.575000X-0.150000X-0.575000X0.150000X-0.575000X0*%
%ADD23RoundRect,0.075000X0.075000X0.650000X-0.075000X0.650000X-0.075000X-0.650000X0.075000X-0.650000X0*%
G04 APERTURE END LIST*
D10*
%TO.C,R3*%
X66175000Y-62000000D03*
X67825000Y-62000000D03*
%TD*%
D11*
%TO.C,U3*%
X23525000Y-51905000D03*
X23525000Y-50635000D03*
X23525000Y-49365000D03*
X23525000Y-48095000D03*
X28475000Y-48095000D03*
X28475000Y-49365000D03*
X28475000Y-50635000D03*
X28475000Y-51905000D03*
%TD*%
D12*
%TO.C,C11*%
X68225000Y-56000000D03*
X69775000Y-56000000D03*
%TD*%
%TO.C,C10*%
X60225000Y-36000000D03*
X61775000Y-36000000D03*
%TD*%
D10*
%TO.C,R4*%
X71175000Y-62000000D03*
X72825000Y-62000000D03*
%TD*%
D12*
%TO.C,C12*%
X67225000Y-60000000D03*
X68775000Y-60000000D03*
%TD*%
%TO.C,C7*%
X34225000Y-58000000D03*
X35775000Y-58000000D03*
%TD*%
D13*
%TO.C,SW1*%
X75425000Y-57850000D03*
X80575000Y-57850000D03*
X75425000Y-56150000D03*
X80575000Y-56150000D03*
%TD*%
D14*
%TO.C,U4*%
X63862500Y-51950000D03*
X63862500Y-51000000D03*
X63862500Y-50050000D03*
X66137500Y-50050000D03*
X66137500Y-51950000D03*
%TD*%
D10*
%TO.C,R2*%
X42175000Y-56000000D03*
X43825000Y-56000000D03*
%TD*%
D12*
%TO.C,C6*%
X67225000Y-47000000D03*
X68775000Y-47000000D03*
%TD*%
%TO.C,C9*%
X30225000Y-36000000D03*
X31775000Y-36000000D03*
%TD*%
%TO.C,C14*%
X31225000Y-38000000D03*
X32775000Y-38000000D03*
%TD*%
D10*
%TO.C,R6*%
X57175000Y-31000000D03*
X58825000Y-31000000D03*
%TD*%
D15*
%TO.C,U2*%
X45300000Y-26300000D03*
X45300000Y-27700000D03*
X46700000Y-26300000D03*
X46700000Y-27700000D03*
D16*
X44012500Y-28400000D03*
X44012500Y-28000000D03*
X44012500Y-27600000D03*
X44012500Y-27200000D03*
X44012500Y-26800000D03*
X44012500Y-26400000D03*
X44012500Y-26000000D03*
X44012500Y-25600000D03*
D17*
X44600000Y-25012500D03*
X45000000Y-25012500D03*
X45400000Y-25012500D03*
X45800000Y-25012500D03*
X46200000Y-25012500D03*
X46600000Y-25012500D03*
X47000000Y-25012500D03*
X47400000Y-25012500D03*
D16*
X47987500Y-25600000D03*
X47987500Y-26000000D03*
X47987500Y-26400000D03*
X47987500Y-26800000D03*
X47987500Y-27200000D03*
X47987500Y-27600000D03*
X47987500Y-28000000D03*
X47987500Y-28400000D03*
D17*
X47400000Y-28987500D03*
X47000000Y-28987500D03*
X46600000Y-28987500D03*
X46200000Y-28987500D03*
X45800000Y-28987500D03*
X45400000Y-28987500D03*
X45000000Y-28987500D03*
X44600000Y-28987500D03*
%TD*%
D13*
%TO.C,SW2*%
X84425000Y-57850000D03*
X89575000Y-57850000D03*
X84425000Y-56150000D03*
X89575000Y-56150000D03*
%TD*%
D12*
%TO.C,C2*%
X51225000Y-44000000D03*
X52775000Y-44000000D03*
%TD*%
D10*
%TO.C,R1*%
X38175000Y-56000000D03*
X39825000Y-56000000D03*
%TD*%
D12*
%TO.C,C5*%
X23225000Y-45000000D03*
X24775000Y-45000000D03*
%TD*%
D10*
%TO.C,R5*%
X53175000Y-31000000D03*
X54825000Y-31000000D03*
%TD*%
D12*
%TO.C,C13*%
X25225000Y-38000000D03*
X26775000Y-38000000D03*
%TD*%
%TO.C,C3*%
X39225000Y-23000000D03*
X40775000Y-23000000D03*
%TD*%
%TO.C,C4*%
X51225000Y-23000000D03*
X52775000Y-23000000D03*
%TD*%
%TO.C,C8*%
X60225000Y-56000000D03*
X61775000Y-56000000D03*
%TD*%
D18*
%TO.C,U1*%
X45200000Y-49200000D03*
X45200000Y-50800000D03*
X46800000Y-49200000D03*
X46800000Y-50800000D03*
D19*
X42562500Y-52600000D03*
X42562500Y-52200000D03*
X42562500Y-51800000D03*
X42562500Y-51400000D03*
X42562500Y-51000000D03*
X42562500Y-50600000D03*
X42562500Y-50200000D03*
X42562500Y-49800000D03*
X42562500Y-49400000D03*
X42562500Y-49000000D03*
X42562500Y-48600000D03*
X42562500Y-48200000D03*
X42562500Y-47800000D03*
X42562500Y-47400000D03*
D20*
X43400000Y-46562500D03*
X43800000Y-46562500D03*
X44200000Y-46562500D03*
X44600000Y-46562500D03*
X45000000Y-46562500D03*
X45400000Y-46562500D03*
X45800000Y-46562500D03*
X46200000Y-46562500D03*
X46600000Y-46562500D03*
X47000000Y-46562500D03*
X47400000Y-46562500D03*
X47800000Y-46562500D03*
X48200000Y-46562500D03*
X48600000Y-46562500D03*
D19*
X49437500Y-47400000D03*
X49437500Y-47800000D03*
X49437500Y-48200000D03*
X49437500Y-48600000D03*
X49437500Y-49000000D03*
X49437500Y-49400000D03*
X49437500Y-49800000D03*
X49437500Y-50200000D03*
X49437500Y-50600000D03*
X49437500Y-51000000D03*
X49437500Y-51400000D03*
X49437500Y-51800000D03*
X49437500Y-52200000D03*
X49437500Y-52600000D03*
D20*
X48600000Y-53437500D03*
X48200000Y-53437500D03*
X47800000Y-53437500D03*
X47400000Y-53437500D03*
X47000000Y-53437500D03*
X46600000Y-53437500D03*
X46200000Y-53437500D03*
X45800000Y-53437500D03*
X45400000Y-53437500D03*
X45000000Y-53437500D03*
X44600000Y-53437500D03*
X44200000Y-53437500D03*
X43800000Y-53437500D03*
X43400000Y-53437500D03*
%TD*%
D14*
%TO.C,U5*%
X35862500Y-61950000D03*
X35862500Y-61000000D03*
X35862500Y-60050000D03*
X38137500Y-60050000D03*
X38137500Y-61000000D03*
X38137500Y-61950000D03*
%TD*%
D21*
%TO.C,Y1*%
X27900000Y-41150000D03*
X30100000Y-41150000D03*
X30100000Y-42850000D03*
X27900000Y-42850000D03*
%TD*%
D12*
%TO.C,C1*%
X39225000Y-44000000D03*
X40775000Y-44000000D03*
%TD*%
D22*
%TO.C,J1*%
X51250000Y-61955000D03*
X50450000Y-61955000D03*
D23*
X49250000Y-61955000D03*
X48250000Y-61955000D03*
X47750000Y-61955000D03*
X46750000Y-61955000D03*
D22*
X45550000Y-61955000D03*
X44750000Y-61955000D03*
X44750000Y-61955000D03*
X45550000Y-61955000D03*
D23*
X46250000Y-61955000D03*
X47250000Y-61955000D03*
X48750000Y-61955000D03*
X49750000Y-61955000D03*
D22*
X50450000Y-61955000D03*
X51250000Y-61955000D03*
%TD*%
M02*
