%TF.GenerationSoftware,KiCad,Pcbnew,10.0.3*%
%TF.CreationDate,2026-05-30T19:10:27+08:00*%
%TF.ProjectId,tellmelight_rev_a2,74656c6c-6d65-46c6-9967-68745f726576,A2*%
%TF.SameCoordinates,Original*%
%TF.FileFunction,OtherDrawing,Comment*%
%FSLAX46Y46*%
G04 Gerber Fmt 4.6, Leading zero omitted, Abs format (unit mm)*
G04 Created by KiCad (PCBNEW 10.0.3) date 2026-05-30 19:10:27*
%MOMM*%
%LPD*%
G01*
G04 APERTURE LIST*
%ADD10C,0.250000*%
%ADD11C,0.120000*%
G04 APERTURE END LIST*
D10*
X10000000Y-8000000D02*
X23000000Y-11000000D01*
X10000000Y-58000000D02*
X10000000Y-8000000D01*
X23000000Y-11000000D02*
X23000000Y-53000000D01*
X23000000Y-53000000D02*
X10000000Y-58000000D01*
X32000000Y-29000000D02*
X43000000Y-31000000D01*
X32000000Y-51000000D02*
X32000000Y-29000000D01*
X43000000Y-31000000D02*
X43000000Y-48000000D01*
X43000000Y-48000000D02*
X32000000Y-51000000D01*
X53000000Y-27000000D02*
X64000000Y-23000000D01*
X53000000Y-43000000D02*
X53000000Y-27000000D01*
X64000000Y-23000000D02*
X64000000Y-45000000D01*
X64000000Y-45000000D02*
X53000000Y-43000000D01*
X75000000Y-6000000D02*
X89000000Y-10000000D01*
X75000000Y-62000000D02*
X75000000Y-6000000D01*
X89000000Y-10000000D02*
X89000000Y-55000000D01*
X89000000Y-55000000D02*
X75000000Y-62000000D01*
D11*
X12209523Y-32825760D02*
X12323809Y-32863855D01*
X12323809Y-32863855D02*
X12514285Y-32863855D01*
X12514285Y-32863855D02*
X12590476Y-32825760D01*
X12590476Y-32825760D02*
X12628571Y-32787664D01*
X12628571Y-32787664D02*
X12666666Y-32711474D01*
X12666666Y-32711474D02*
X12666666Y-32635283D01*
X12666666Y-32635283D02*
X12628571Y-32559093D01*
X12628571Y-32559093D02*
X12590476Y-32520998D01*
X12590476Y-32520998D02*
X12514285Y-32482902D01*
X12514285Y-32482902D02*
X12361904Y-32444807D01*
X12361904Y-32444807D02*
X12285714Y-32406712D01*
X12285714Y-32406712D02*
X12247619Y-32368617D01*
X12247619Y-32368617D02*
X12209523Y-32292426D01*
X12209523Y-32292426D02*
X12209523Y-32216236D01*
X12209523Y-32216236D02*
X12247619Y-32140045D01*
X12247619Y-32140045D02*
X12285714Y-32101950D01*
X12285714Y-32101950D02*
X12361904Y-32063855D01*
X12361904Y-32063855D02*
X12552381Y-32063855D01*
X12552381Y-32063855D02*
X12666666Y-32101950D01*
X13428571Y-32863855D02*
X12971428Y-32863855D01*
X13200000Y-32863855D02*
X13200000Y-32063855D01*
X13200000Y-32063855D02*
X13123809Y-32178140D01*
X13123809Y-32178140D02*
X13047619Y-32254331D01*
X13047619Y-32254331D02*
X12971428Y-32292426D01*
X14342857Y-32025760D02*
X13657143Y-33054331D01*
X14571428Y-32825760D02*
X14685714Y-32863855D01*
X14685714Y-32863855D02*
X14876190Y-32863855D01*
X14876190Y-32863855D02*
X14952381Y-32825760D01*
X14952381Y-32825760D02*
X14990476Y-32787664D01*
X14990476Y-32787664D02*
X15028571Y-32711474D01*
X15028571Y-32711474D02*
X15028571Y-32635283D01*
X15028571Y-32635283D02*
X14990476Y-32559093D01*
X14990476Y-32559093D02*
X14952381Y-32520998D01*
X14952381Y-32520998D02*
X14876190Y-32482902D01*
X14876190Y-32482902D02*
X14723809Y-32444807D01*
X14723809Y-32444807D02*
X14647619Y-32406712D01*
X14647619Y-32406712D02*
X14609524Y-32368617D01*
X14609524Y-32368617D02*
X14571428Y-32292426D01*
X14571428Y-32292426D02*
X14571428Y-32216236D01*
X14571428Y-32216236D02*
X14609524Y-32140045D01*
X14609524Y-32140045D02*
X14647619Y-32101950D01*
X14647619Y-32101950D02*
X14723809Y-32063855D01*
X14723809Y-32063855D02*
X14914286Y-32063855D01*
X14914286Y-32063855D02*
X15028571Y-32101950D01*
X15333333Y-32140045D02*
X15371429Y-32101950D01*
X15371429Y-32101950D02*
X15447619Y-32063855D01*
X15447619Y-32063855D02*
X15638095Y-32063855D01*
X15638095Y-32063855D02*
X15714286Y-32101950D01*
X15714286Y-32101950D02*
X15752381Y-32140045D01*
X15752381Y-32140045D02*
X15790476Y-32216236D01*
X15790476Y-32216236D02*
X15790476Y-32292426D01*
X15790476Y-32292426D02*
X15752381Y-32406712D01*
X15752381Y-32406712D02*
X15295238Y-32863855D01*
X15295238Y-32863855D02*
X15790476Y-32863855D01*
X34390475Y-40075760D02*
X34504761Y-40113855D01*
X34504761Y-40113855D02*
X34695237Y-40113855D01*
X34695237Y-40113855D02*
X34771428Y-40075760D01*
X34771428Y-40075760D02*
X34809523Y-40037664D01*
X34809523Y-40037664D02*
X34847618Y-39961474D01*
X34847618Y-39961474D02*
X34847618Y-39885283D01*
X34847618Y-39885283D02*
X34809523Y-39809093D01*
X34809523Y-39809093D02*
X34771428Y-39770998D01*
X34771428Y-39770998D02*
X34695237Y-39732902D01*
X34695237Y-39732902D02*
X34542856Y-39694807D01*
X34542856Y-39694807D02*
X34466666Y-39656712D01*
X34466666Y-39656712D02*
X34428571Y-39618617D01*
X34428571Y-39618617D02*
X34390475Y-39542426D01*
X34390475Y-39542426D02*
X34390475Y-39466236D01*
X34390475Y-39466236D02*
X34428571Y-39390045D01*
X34428571Y-39390045D02*
X34466666Y-39351950D01*
X34466666Y-39351950D02*
X34542856Y-39313855D01*
X34542856Y-39313855D02*
X34733333Y-39313855D01*
X34733333Y-39313855D02*
X34847618Y-39351950D01*
X35114285Y-39313855D02*
X35609523Y-39313855D01*
X35609523Y-39313855D02*
X35342857Y-39618617D01*
X35342857Y-39618617D02*
X35457142Y-39618617D01*
X35457142Y-39618617D02*
X35533333Y-39656712D01*
X35533333Y-39656712D02*
X35571428Y-39694807D01*
X35571428Y-39694807D02*
X35609523Y-39770998D01*
X35609523Y-39770998D02*
X35609523Y-39961474D01*
X35609523Y-39961474D02*
X35571428Y-40037664D01*
X35571428Y-40037664D02*
X35533333Y-40075760D01*
X35533333Y-40075760D02*
X35457142Y-40113855D01*
X35457142Y-40113855D02*
X35228571Y-40113855D01*
X35228571Y-40113855D02*
X35152380Y-40075760D01*
X35152380Y-40075760D02*
X35114285Y-40037664D01*
X55390475Y-34825760D02*
X55504761Y-34863855D01*
X55504761Y-34863855D02*
X55695237Y-34863855D01*
X55695237Y-34863855D02*
X55771428Y-34825760D01*
X55771428Y-34825760D02*
X55809523Y-34787664D01*
X55809523Y-34787664D02*
X55847618Y-34711474D01*
X55847618Y-34711474D02*
X55847618Y-34635283D01*
X55847618Y-34635283D02*
X55809523Y-34559093D01*
X55809523Y-34559093D02*
X55771428Y-34520998D01*
X55771428Y-34520998D02*
X55695237Y-34482902D01*
X55695237Y-34482902D02*
X55542856Y-34444807D01*
X55542856Y-34444807D02*
X55466666Y-34406712D01*
X55466666Y-34406712D02*
X55428571Y-34368617D01*
X55428571Y-34368617D02*
X55390475Y-34292426D01*
X55390475Y-34292426D02*
X55390475Y-34216236D01*
X55390475Y-34216236D02*
X55428571Y-34140045D01*
X55428571Y-34140045D02*
X55466666Y-34101950D01*
X55466666Y-34101950D02*
X55542856Y-34063855D01*
X55542856Y-34063855D02*
X55733333Y-34063855D01*
X55733333Y-34063855D02*
X55847618Y-34101950D01*
X56533333Y-34330521D02*
X56533333Y-34863855D01*
X56342857Y-34025760D02*
X56152380Y-34597188D01*
X56152380Y-34597188D02*
X56647619Y-34597188D01*
X77709523Y-33575760D02*
X77823809Y-33613855D01*
X77823809Y-33613855D02*
X78014285Y-33613855D01*
X78014285Y-33613855D02*
X78090476Y-33575760D01*
X78090476Y-33575760D02*
X78128571Y-33537664D01*
X78128571Y-33537664D02*
X78166666Y-33461474D01*
X78166666Y-33461474D02*
X78166666Y-33385283D01*
X78166666Y-33385283D02*
X78128571Y-33309093D01*
X78128571Y-33309093D02*
X78090476Y-33270998D01*
X78090476Y-33270998D02*
X78014285Y-33232902D01*
X78014285Y-33232902D02*
X77861904Y-33194807D01*
X77861904Y-33194807D02*
X77785714Y-33156712D01*
X77785714Y-33156712D02*
X77747619Y-33118617D01*
X77747619Y-33118617D02*
X77709523Y-33042426D01*
X77709523Y-33042426D02*
X77709523Y-32966236D01*
X77709523Y-32966236D02*
X77747619Y-32890045D01*
X77747619Y-32890045D02*
X77785714Y-32851950D01*
X77785714Y-32851950D02*
X77861904Y-32813855D01*
X77861904Y-32813855D02*
X78052381Y-32813855D01*
X78052381Y-32813855D02*
X78166666Y-32851950D01*
X78890476Y-32813855D02*
X78509524Y-32813855D01*
X78509524Y-32813855D02*
X78471428Y-33194807D01*
X78471428Y-33194807D02*
X78509524Y-33156712D01*
X78509524Y-33156712D02*
X78585714Y-33118617D01*
X78585714Y-33118617D02*
X78776190Y-33118617D01*
X78776190Y-33118617D02*
X78852381Y-33156712D01*
X78852381Y-33156712D02*
X78890476Y-33194807D01*
X78890476Y-33194807D02*
X78928571Y-33270998D01*
X78928571Y-33270998D02*
X78928571Y-33461474D01*
X78928571Y-33461474D02*
X78890476Y-33537664D01*
X78890476Y-33537664D02*
X78852381Y-33575760D01*
X78852381Y-33575760D02*
X78776190Y-33613855D01*
X78776190Y-33613855D02*
X78585714Y-33613855D01*
X78585714Y-33613855D02*
X78509524Y-33575760D01*
X78509524Y-33575760D02*
X78471428Y-33537664D01*
X79842857Y-32775760D02*
X79157143Y-33804331D01*
X80071428Y-33575760D02*
X80185714Y-33613855D01*
X80185714Y-33613855D02*
X80376190Y-33613855D01*
X80376190Y-33613855D02*
X80452381Y-33575760D01*
X80452381Y-33575760D02*
X80490476Y-33537664D01*
X80490476Y-33537664D02*
X80528571Y-33461474D01*
X80528571Y-33461474D02*
X80528571Y-33385283D01*
X80528571Y-33385283D02*
X80490476Y-33309093D01*
X80490476Y-33309093D02*
X80452381Y-33270998D01*
X80452381Y-33270998D02*
X80376190Y-33232902D01*
X80376190Y-33232902D02*
X80223809Y-33194807D01*
X80223809Y-33194807D02*
X80147619Y-33156712D01*
X80147619Y-33156712D02*
X80109524Y-33118617D01*
X80109524Y-33118617D02*
X80071428Y-33042426D01*
X80071428Y-33042426D02*
X80071428Y-32966236D01*
X80071428Y-32966236D02*
X80109524Y-32890045D01*
X80109524Y-32890045D02*
X80147619Y-32851950D01*
X80147619Y-32851950D02*
X80223809Y-32813855D01*
X80223809Y-32813855D02*
X80414286Y-32813855D01*
X80414286Y-32813855D02*
X80528571Y-32851950D01*
X81214286Y-32813855D02*
X81061905Y-32813855D01*
X81061905Y-32813855D02*
X80985714Y-32851950D01*
X80985714Y-32851950D02*
X80947619Y-32890045D01*
X80947619Y-32890045D02*
X80871429Y-33004331D01*
X80871429Y-33004331D02*
X80833333Y-33156712D01*
X80833333Y-33156712D02*
X80833333Y-33461474D01*
X80833333Y-33461474D02*
X80871429Y-33537664D01*
X80871429Y-33537664D02*
X80909524Y-33575760D01*
X80909524Y-33575760D02*
X80985714Y-33613855D01*
X80985714Y-33613855D02*
X81138095Y-33613855D01*
X81138095Y-33613855D02*
X81214286Y-33575760D01*
X81214286Y-33575760D02*
X81252381Y-33537664D01*
X81252381Y-33537664D02*
X81290476Y-33461474D01*
X81290476Y-33461474D02*
X81290476Y-33270998D01*
X81290476Y-33270998D02*
X81252381Y-33194807D01*
X81252381Y-33194807D02*
X81214286Y-33156712D01*
X81214286Y-33156712D02*
X81138095Y-33118617D01*
X81138095Y-33118617D02*
X80985714Y-33118617D01*
X80985714Y-33118617D02*
X80909524Y-33156712D01*
X80909524Y-33156712D02*
X80871429Y-33194807D01*
X80871429Y-33194807D02*
X80833333Y-33270998D01*
X4657142Y-64938688D02*
X4357142Y-64938688D01*
X4357142Y-65410117D02*
X4357142Y-64510117D01*
X4357142Y-64510117D02*
X4785714Y-64510117D01*
X5128571Y-65410117D02*
X5128571Y-64510117D01*
X5857142Y-64938688D02*
X5557142Y-64938688D01*
X5557142Y-65410117D02*
X5557142Y-64510117D01*
X5557142Y-64510117D02*
X5985714Y-64510117D01*
X6500000Y-64510117D02*
X6671428Y-64510117D01*
X6671428Y-64510117D02*
X6757143Y-64552974D01*
X6757143Y-64552974D02*
X6842857Y-64638688D01*
X6842857Y-64638688D02*
X6885714Y-64810117D01*
X6885714Y-64810117D02*
X6885714Y-65110117D01*
X6885714Y-65110117D02*
X6842857Y-65281545D01*
X6842857Y-65281545D02*
X6757143Y-65367260D01*
X6757143Y-65367260D02*
X6671428Y-65410117D01*
X6671428Y-65410117D02*
X6500000Y-65410117D01*
X6500000Y-65410117D02*
X6414286Y-65367260D01*
X6414286Y-65367260D02*
X6328571Y-65281545D01*
X6328571Y-65281545D02*
X6285714Y-65110117D01*
X6285714Y-65110117D02*
X6285714Y-64810117D01*
X6285714Y-64810117D02*
X6328571Y-64638688D01*
X6328571Y-64638688D02*
X6414286Y-64552974D01*
X6414286Y-64552974D02*
X6500000Y-64510117D01*
X8085714Y-65410117D02*
X7999999Y-65367260D01*
X7999999Y-65367260D02*
X7957142Y-65324402D01*
X7957142Y-65324402D02*
X7914285Y-65238688D01*
X7914285Y-65238688D02*
X7914285Y-64981545D01*
X7914285Y-64981545D02*
X7957142Y-64895831D01*
X7957142Y-64895831D02*
X7999999Y-64852974D01*
X7999999Y-64852974D02*
X8085714Y-64810117D01*
X8085714Y-64810117D02*
X8214285Y-64810117D01*
X8214285Y-64810117D02*
X8299999Y-64852974D01*
X8299999Y-64852974D02*
X8342857Y-64895831D01*
X8342857Y-64895831D02*
X8385714Y-64981545D01*
X8385714Y-64981545D02*
X8385714Y-65238688D01*
X8385714Y-65238688D02*
X8342857Y-65324402D01*
X8342857Y-65324402D02*
X8299999Y-65367260D01*
X8299999Y-65367260D02*
X8214285Y-65410117D01*
X8214285Y-65410117D02*
X8085714Y-65410117D01*
X8900000Y-65410117D02*
X8814285Y-65367260D01*
X8814285Y-65367260D02*
X8771428Y-65281545D01*
X8771428Y-65281545D02*
X8771428Y-64510117D01*
X9628572Y-65410117D02*
X9628572Y-64510117D01*
X9628572Y-65367260D02*
X9542857Y-65410117D01*
X9542857Y-65410117D02*
X9371429Y-65410117D01*
X9371429Y-65410117D02*
X9285714Y-65367260D01*
X9285714Y-65367260D02*
X9242857Y-65324402D01*
X9242857Y-65324402D02*
X9200000Y-65238688D01*
X9200000Y-65238688D02*
X9200000Y-64981545D01*
X9200000Y-64981545D02*
X9242857Y-64895831D01*
X9242857Y-64895831D02*
X9285714Y-64852974D01*
X9285714Y-64852974D02*
X9371429Y-64810117D01*
X9371429Y-64810117D02*
X9542857Y-64810117D01*
X9542857Y-64810117D02*
X9628572Y-64852974D01*
X10400000Y-65367260D02*
X10314286Y-65410117D01*
X10314286Y-65410117D02*
X10142858Y-65410117D01*
X10142858Y-65410117D02*
X10057143Y-65367260D01*
X10057143Y-65367260D02*
X10014286Y-65281545D01*
X10014286Y-65281545D02*
X10014286Y-64938688D01*
X10014286Y-64938688D02*
X10057143Y-64852974D01*
X10057143Y-64852974D02*
X10142858Y-64810117D01*
X10142858Y-64810117D02*
X10314286Y-64810117D01*
X10314286Y-64810117D02*
X10400000Y-64852974D01*
X10400000Y-64852974D02*
X10442858Y-64938688D01*
X10442858Y-64938688D02*
X10442858Y-65024402D01*
X10442858Y-65024402D02*
X10014286Y-65110117D01*
X10785715Y-65367260D02*
X10871429Y-65410117D01*
X10871429Y-65410117D02*
X11042858Y-65410117D01*
X11042858Y-65410117D02*
X11128572Y-65367260D01*
X11128572Y-65367260D02*
X11171429Y-65281545D01*
X11171429Y-65281545D02*
X11171429Y-65238688D01*
X11171429Y-65238688D02*
X11128572Y-65152974D01*
X11128572Y-65152974D02*
X11042858Y-65110117D01*
X11042858Y-65110117D02*
X10914287Y-65110117D01*
X10914287Y-65110117D02*
X10828572Y-65067260D01*
X10828572Y-65067260D02*
X10785715Y-64981545D01*
X10785715Y-64981545D02*
X10785715Y-64938688D01*
X10785715Y-64938688D02*
X10828572Y-64852974D01*
X10828572Y-64852974D02*
X10914287Y-64810117D01*
X10914287Y-64810117D02*
X11042858Y-64810117D01*
X11042858Y-64810117D02*
X11128572Y-64852974D01*
X11428572Y-64810117D02*
X11771429Y-64810117D01*
X11557143Y-64510117D02*
X11557143Y-65281545D01*
X11557143Y-65281545D02*
X11600000Y-65367260D01*
X11600000Y-65367260D02*
X11685715Y-65410117D01*
X11685715Y-65410117D02*
X11771429Y-65410117D01*
X74942856Y-64810117D02*
X74942856Y-65410117D01*
X74942856Y-64895831D02*
X74985713Y-64852974D01*
X74985713Y-64852974D02*
X75071428Y-64810117D01*
X75071428Y-64810117D02*
X75199999Y-64810117D01*
X75199999Y-64810117D02*
X75285713Y-64852974D01*
X75285713Y-64852974D02*
X75328571Y-64938688D01*
X75328571Y-64938688D02*
X75328571Y-65410117D01*
X76099999Y-65367260D02*
X76014285Y-65410117D01*
X76014285Y-65410117D02*
X75842857Y-65410117D01*
X75842857Y-65410117D02*
X75757142Y-65367260D01*
X75757142Y-65367260D02*
X75714285Y-65281545D01*
X75714285Y-65281545D02*
X75714285Y-64938688D01*
X75714285Y-64938688D02*
X75757142Y-64852974D01*
X75757142Y-64852974D02*
X75842857Y-64810117D01*
X75842857Y-64810117D02*
X76014285Y-64810117D01*
X76014285Y-64810117D02*
X76099999Y-64852974D01*
X76099999Y-64852974D02*
X76142857Y-64938688D01*
X76142857Y-64938688D02*
X76142857Y-65024402D01*
X76142857Y-65024402D02*
X75714285Y-65110117D01*
X76442857Y-64810117D02*
X76614286Y-65410117D01*
X76614286Y-65410117D02*
X76785714Y-64981545D01*
X76785714Y-64981545D02*
X76957143Y-65410117D01*
X76957143Y-65410117D02*
X77128571Y-64810117D01*
X77814285Y-65367260D02*
X77728571Y-65410117D01*
X77728571Y-65410117D02*
X77557143Y-65410117D01*
X77557143Y-65410117D02*
X77471428Y-65367260D01*
X77471428Y-65367260D02*
X77428571Y-65281545D01*
X77428571Y-65281545D02*
X77428571Y-64938688D01*
X77428571Y-64938688D02*
X77471428Y-64852974D01*
X77471428Y-64852974D02*
X77557143Y-64810117D01*
X77557143Y-64810117D02*
X77728571Y-64810117D01*
X77728571Y-64810117D02*
X77814285Y-64852974D01*
X77814285Y-64852974D02*
X77857143Y-64938688D01*
X77857143Y-64938688D02*
X77857143Y-65024402D01*
X77857143Y-65024402D02*
X77428571Y-65110117D01*
X78200000Y-65367260D02*
X78285714Y-65410117D01*
X78285714Y-65410117D02*
X78457143Y-65410117D01*
X78457143Y-65410117D02*
X78542857Y-65367260D01*
X78542857Y-65367260D02*
X78585714Y-65281545D01*
X78585714Y-65281545D02*
X78585714Y-65238688D01*
X78585714Y-65238688D02*
X78542857Y-65152974D01*
X78542857Y-65152974D02*
X78457143Y-65110117D01*
X78457143Y-65110117D02*
X78328572Y-65110117D01*
X78328572Y-65110117D02*
X78242857Y-65067260D01*
X78242857Y-65067260D02*
X78200000Y-64981545D01*
X78200000Y-64981545D02*
X78200000Y-64938688D01*
X78200000Y-64938688D02*
X78242857Y-64852974D01*
X78242857Y-64852974D02*
X78328572Y-64810117D01*
X78328572Y-64810117D02*
X78457143Y-64810117D01*
X78457143Y-64810117D02*
X78542857Y-64852974D01*
X78842857Y-64810117D02*
X79185714Y-64810117D01*
X78971428Y-64510117D02*
X78971428Y-65281545D01*
X78971428Y-65281545D02*
X79014285Y-65367260D01*
X79014285Y-65367260D02*
X79100000Y-65410117D01*
X79100000Y-65410117D02*
X79185714Y-65410117D01*
M02*
