%TF.GenerationSoftware,KiCad,Pcbnew,10.0.3*%
%TF.CreationDate,2026-06-01T00:55:40+08:00*%
%TF.ProjectId,tellmelight_rev_a4,74656c6c-6d65-46c6-9967-68745f726576,A4*%
%TF.SameCoordinates,Original*%
%TF.FileFunction,Soldermask,Bot*%
%TF.FilePolarity,Negative*%
%FSLAX46Y46*%
G04 Gerber Fmt 4.6, Leading zero omitted, Abs format (unit mm)*
G04 Created by KiCad (PCBNEW 10.0.3) date 2026-06-01 00:55:40*
%MOMM*%
%LPD*%
G01*
G04 APERTURE LIST*
G04 APERTURE END LIST*
G36*
X4256790Y-50930393D02*
G01*
X4420952Y-50983733D01*
X4574748Y-51062096D01*
X4714393Y-51163553D01*
X4836447Y-51285607D01*
X4937904Y-51425252D01*
X5016267Y-51579048D01*
X5069607Y-51743210D01*
X5096609Y-51913695D01*
X5096609Y-52086305D01*
X5069607Y-52256790D01*
X5016267Y-52420952D01*
X4937904Y-52574748D01*
X4836447Y-52714393D01*
X4714393Y-52836447D01*
X4574748Y-52937904D01*
X4420952Y-53016267D01*
X4256790Y-53069607D01*
X4086305Y-53096609D01*
X3913695Y-53096609D01*
X3743210Y-53069607D01*
X3579048Y-53016267D01*
X3425252Y-52937904D01*
X3285607Y-52836447D01*
X3163553Y-52714393D01*
X3062096Y-52574748D01*
X2983733Y-52420952D01*
X2930393Y-52256790D01*
X2903391Y-52086305D01*
X2903391Y-51913695D01*
X2930393Y-51743210D01*
X2983733Y-51579048D01*
X3062096Y-51425252D01*
X3163553Y-51285607D01*
X3285607Y-51163553D01*
X3425252Y-51062096D01*
X3579048Y-50983733D01*
X3743210Y-50930393D01*
X3913695Y-50903391D01*
X4086305Y-50903391D01*
X4256790Y-50930393D01*
G37*
G36*
X72256790Y-50930393D02*
G01*
X72420952Y-50983733D01*
X72574748Y-51062096D01*
X72714393Y-51163553D01*
X72836447Y-51285607D01*
X72937904Y-51425252D01*
X73016267Y-51579048D01*
X73069607Y-51743210D01*
X73096609Y-51913695D01*
X73096609Y-52086305D01*
X73069607Y-52256790D01*
X73016267Y-52420952D01*
X72937904Y-52574748D01*
X72836447Y-52714393D01*
X72714393Y-52836447D01*
X72574748Y-52937904D01*
X72420952Y-53016267D01*
X72256790Y-53069607D01*
X72086305Y-53096609D01*
X71913695Y-53096609D01*
X71743210Y-53069607D01*
X71579048Y-53016267D01*
X71425252Y-52937904D01*
X71285607Y-52836447D01*
X71163553Y-52714393D01*
X71062096Y-52574748D01*
X70983733Y-52420952D01*
X70930393Y-52256790D01*
X70903391Y-52086305D01*
X70903391Y-51913695D01*
X70930393Y-51743210D01*
X70983733Y-51579048D01*
X71062096Y-51425252D01*
X71163553Y-51285607D01*
X71285607Y-51163553D01*
X71425252Y-51062096D01*
X71579048Y-50983733D01*
X71743210Y-50930393D01*
X71913695Y-50903391D01*
X72086305Y-50903391D01*
X72256790Y-50930393D01*
G37*
G36*
X33871342Y-51288060D02*
G01*
X33984381Y-51353323D01*
X34076677Y-51445619D01*
X34141940Y-51558658D01*
X34175722Y-51684737D01*
X34180000Y-51750000D01*
X34180000Y-52350000D01*
X34175722Y-52415263D01*
X34141940Y-52541342D01*
X34076677Y-52654381D01*
X33984381Y-52746677D01*
X33871342Y-52811940D01*
X33745263Y-52845722D01*
X33614737Y-52845722D01*
X33488658Y-52811940D01*
X33375619Y-52746677D01*
X33283323Y-52654381D01*
X33218060Y-52541342D01*
X33184278Y-52415263D01*
X33180000Y-52350000D01*
X33180000Y-51750000D01*
X33184278Y-51684737D01*
X33218060Y-51558658D01*
X33283323Y-51445619D01*
X33375619Y-51353323D01*
X33488658Y-51288060D01*
X33614737Y-51254278D01*
X33745263Y-51254278D01*
X33871342Y-51288060D01*
G37*
G36*
X42511342Y-51288060D02*
G01*
X42624381Y-51353323D01*
X42716677Y-51445619D01*
X42781940Y-51558658D01*
X42815722Y-51684737D01*
X42820000Y-51750000D01*
X42820000Y-52350000D01*
X42815722Y-52415263D01*
X42781940Y-52541342D01*
X42716677Y-52654381D01*
X42624381Y-52746677D01*
X42511342Y-52811940D01*
X42385263Y-52845722D01*
X42254737Y-52845722D01*
X42128658Y-52811940D01*
X42015619Y-52746677D01*
X41923323Y-52654381D01*
X41858060Y-52541342D01*
X41824278Y-52415263D01*
X41820000Y-52350000D01*
X41820000Y-51750000D01*
X41824278Y-51684737D01*
X41858060Y-51558658D01*
X41923323Y-51445619D01*
X42015619Y-51353323D01*
X42128658Y-51288060D01*
X42254737Y-51254278D01*
X42385263Y-51254278D01*
X42511342Y-51288060D01*
G37*
G36*
X22191342Y-51538060D02*
G01*
X22304381Y-51603323D01*
X22396677Y-51695619D01*
X22461940Y-51808658D01*
X22495722Y-51934737D01*
X22495722Y-52065263D01*
X22461940Y-52191342D01*
X22396677Y-52304381D01*
X22304381Y-52396677D01*
X22191342Y-52461940D01*
X22065263Y-52495722D01*
X21934737Y-52495722D01*
X21808658Y-52461940D01*
X21695619Y-52396677D01*
X21603323Y-52304381D01*
X21538060Y-52191342D01*
X21504278Y-52065263D01*
X21504278Y-51934737D01*
X21538060Y-51808658D01*
X21603323Y-51695619D01*
X21695619Y-51603323D01*
X21808658Y-51538060D01*
X21934737Y-51504278D01*
X22065263Y-51504278D01*
X22191342Y-51538060D01*
G37*
G36*
X26191342Y-51538060D02*
G01*
X26304381Y-51603323D01*
X26396677Y-51695619D01*
X26461940Y-51808658D01*
X26495722Y-51934737D01*
X26495722Y-52065263D01*
X26461940Y-52191342D01*
X26396677Y-52304381D01*
X26304381Y-52396677D01*
X26191342Y-52461940D01*
X26065263Y-52495722D01*
X25934737Y-52495722D01*
X25808658Y-52461940D01*
X25695619Y-52396677D01*
X25603323Y-52304381D01*
X25538060Y-52191342D01*
X25504278Y-52065263D01*
X25504278Y-51934737D01*
X25538060Y-51808658D01*
X25603323Y-51695619D01*
X25695619Y-51603323D01*
X25808658Y-51538060D01*
X25934737Y-51504278D01*
X26065263Y-51504278D01*
X26191342Y-51538060D01*
G37*
G36*
X10191342Y-49538060D02*
G01*
X10304381Y-49603323D01*
X10396677Y-49695619D01*
X10461940Y-49808658D01*
X10495722Y-49934737D01*
X10495722Y-50065263D01*
X10461940Y-50191342D01*
X10396677Y-50304381D01*
X10304381Y-50396677D01*
X10191342Y-50461940D01*
X10065263Y-50495722D01*
X9934737Y-50495722D01*
X9808658Y-50461940D01*
X9695619Y-50396677D01*
X9603323Y-50304381D01*
X9538060Y-50191342D01*
X9504278Y-50065263D01*
X9504278Y-49934737D01*
X9538060Y-49808658D01*
X9603323Y-49695619D01*
X9695619Y-49603323D01*
X9808658Y-49538060D01*
X9934737Y-49504278D01*
X10065263Y-49504278D01*
X10191342Y-49538060D01*
G37*
G36*
X14191342Y-49538060D02*
G01*
X14304381Y-49603323D01*
X14396677Y-49695619D01*
X14461940Y-49808658D01*
X14495722Y-49934737D01*
X14495722Y-50065263D01*
X14461940Y-50191342D01*
X14396677Y-50304381D01*
X14304381Y-50396677D01*
X14191342Y-50461940D01*
X14065263Y-50495722D01*
X13934737Y-50495722D01*
X13808658Y-50461940D01*
X13695619Y-50396677D01*
X13603323Y-50304381D01*
X13538060Y-50191342D01*
X13504278Y-50065263D01*
X13504278Y-49934737D01*
X13538060Y-49808658D01*
X13603323Y-49695619D01*
X13695619Y-49603323D01*
X13808658Y-49538060D01*
X13934737Y-49504278D01*
X14065263Y-49504278D01*
X14191342Y-49538060D01*
G37*
G36*
X18191342Y-49538060D02*
G01*
X18304381Y-49603323D01*
X18396677Y-49695619D01*
X18461940Y-49808658D01*
X18495722Y-49934737D01*
X18495722Y-50065263D01*
X18461940Y-50191342D01*
X18396677Y-50304381D01*
X18304381Y-50396677D01*
X18191342Y-50461940D01*
X18065263Y-50495722D01*
X17934737Y-50495722D01*
X17808658Y-50461940D01*
X17695619Y-50396677D01*
X17603323Y-50304381D01*
X17538060Y-50191342D01*
X17504278Y-50065263D01*
X17504278Y-49934737D01*
X17538060Y-49808658D01*
X17603323Y-49695619D01*
X17695619Y-49603323D01*
X17808658Y-49538060D01*
X17934737Y-49504278D01*
X18065263Y-49504278D01*
X18191342Y-49538060D01*
G37*
G36*
X49451537Y-48540224D02*
G01*
X49516421Y-48583579D01*
X49559776Y-48648463D01*
X49575000Y-48725000D01*
X49575000Y-49275000D01*
X49559776Y-49351537D01*
X49516421Y-49416421D01*
X49451537Y-49459776D01*
X49375000Y-49475000D01*
X48975000Y-49475000D01*
X48898463Y-49459776D01*
X48833579Y-49416421D01*
X48790224Y-49351537D01*
X48775000Y-49275000D01*
X48775000Y-48725000D01*
X48790224Y-48648463D01*
X48833579Y-48583579D01*
X48898463Y-48540224D01*
X48975000Y-48525000D01*
X49375000Y-48525000D01*
X49451537Y-48540224D01*
G37*
G36*
X51101537Y-48540224D02*
G01*
X51166421Y-48583579D01*
X51209776Y-48648463D01*
X51225000Y-48725000D01*
X51225000Y-49275000D01*
X51209776Y-49351537D01*
X51166421Y-49416421D01*
X51101537Y-49459776D01*
X51025000Y-49475000D01*
X50625000Y-49475000D01*
X50548463Y-49459776D01*
X50483579Y-49416421D01*
X50440224Y-49351537D01*
X50425000Y-49275000D01*
X50425000Y-48725000D01*
X50440224Y-48648463D01*
X50483579Y-48583579D01*
X50548463Y-48540224D01*
X50625000Y-48525000D01*
X51025000Y-48525000D01*
X51101537Y-48540224D01*
G37*
G36*
X54451537Y-48540224D02*
G01*
X54516421Y-48583579D01*
X54559776Y-48648463D01*
X54575000Y-48725000D01*
X54575000Y-49275000D01*
X54559776Y-49351537D01*
X54516421Y-49416421D01*
X54451537Y-49459776D01*
X54375000Y-49475000D01*
X53975000Y-49475000D01*
X53898463Y-49459776D01*
X53833579Y-49416421D01*
X53790224Y-49351537D01*
X53775000Y-49275000D01*
X53775000Y-48725000D01*
X53790224Y-48648463D01*
X53833579Y-48583579D01*
X53898463Y-48540224D01*
X53975000Y-48525000D01*
X54375000Y-48525000D01*
X54451537Y-48540224D01*
G37*
G36*
X56101537Y-48540224D02*
G01*
X56166421Y-48583579D01*
X56209776Y-48648463D01*
X56225000Y-48725000D01*
X56225000Y-49275000D01*
X56209776Y-49351537D01*
X56166421Y-49416421D01*
X56101537Y-49459776D01*
X56025000Y-49475000D01*
X55625000Y-49475000D01*
X55548463Y-49459776D01*
X55483579Y-49416421D01*
X55440224Y-49351537D01*
X55425000Y-49275000D01*
X55425000Y-48725000D01*
X55440224Y-48648463D01*
X55483579Y-48583579D01*
X55548463Y-48540224D01*
X55625000Y-48525000D01*
X56025000Y-48525000D01*
X56101537Y-48540224D01*
G37*
G36*
X58995671Y-48369030D02*
G01*
X59076777Y-48423223D01*
X59130970Y-48504329D01*
X59150000Y-48600000D01*
X59150000Y-49100000D01*
X59130970Y-49195671D01*
X59076777Y-49276777D01*
X58995671Y-49330970D01*
X58900000Y-49350000D01*
X57950000Y-49350000D01*
X57854329Y-49330970D01*
X57773223Y-49276777D01*
X57719030Y-49195671D01*
X57700000Y-49100000D01*
X57700000Y-48600000D01*
X57719030Y-48504329D01*
X57773223Y-48423223D01*
X57854329Y-48369030D01*
X57950000Y-48350000D01*
X58900000Y-48350000D01*
X58995671Y-48369030D01*
G37*
G36*
X64145671Y-48369030D02*
G01*
X64226777Y-48423223D01*
X64280970Y-48504329D01*
X64300000Y-48600000D01*
X64300000Y-49100000D01*
X64280970Y-49195671D01*
X64226777Y-49276777D01*
X64145671Y-49330970D01*
X64050000Y-49350000D01*
X63100000Y-49350000D01*
X63004329Y-49330970D01*
X62923223Y-49276777D01*
X62869030Y-49195671D01*
X62850000Y-49100000D01*
X62850000Y-48600000D01*
X62869030Y-48504329D01*
X62923223Y-48423223D01*
X63004329Y-48369030D01*
X63100000Y-48350000D01*
X64050000Y-48350000D01*
X64145671Y-48369030D01*
G37*
G36*
X66995671Y-48369030D02*
G01*
X67076777Y-48423223D01*
X67130970Y-48504329D01*
X67150000Y-48600000D01*
X67150000Y-49100000D01*
X67130970Y-49195671D01*
X67076777Y-49276777D01*
X66995671Y-49330970D01*
X66900000Y-49350000D01*
X65950000Y-49350000D01*
X65854329Y-49330970D01*
X65773223Y-49276777D01*
X65719030Y-49195671D01*
X65700000Y-49100000D01*
X65700000Y-48600000D01*
X65719030Y-48504329D01*
X65773223Y-48423223D01*
X65854329Y-48369030D01*
X65950000Y-48350000D01*
X66900000Y-48350000D01*
X66995671Y-48369030D01*
G37*
G36*
X72145671Y-48369030D02*
G01*
X72226777Y-48423223D01*
X72280970Y-48504329D01*
X72300000Y-48600000D01*
X72300000Y-49100000D01*
X72280970Y-49195671D01*
X72226777Y-49276777D01*
X72145671Y-49330970D01*
X72050000Y-49350000D01*
X71100000Y-49350000D01*
X71004329Y-49330970D01*
X70923223Y-49276777D01*
X70869030Y-49195671D01*
X70850000Y-49100000D01*
X70850000Y-48600000D01*
X70869030Y-48504329D01*
X70923223Y-48423223D01*
X71004329Y-48369030D01*
X71100000Y-48350000D01*
X72050000Y-48350000D01*
X72145671Y-48369030D01*
G37*
G36*
X33871342Y-46858060D02*
G01*
X33984381Y-46923323D01*
X34076677Y-47015619D01*
X34141940Y-47128658D01*
X34175722Y-47254737D01*
X34180000Y-47320000D01*
X34180000Y-48420000D01*
X34175722Y-48485263D01*
X34141940Y-48611342D01*
X34076677Y-48724381D01*
X33984381Y-48816677D01*
X33871342Y-48881940D01*
X33745263Y-48915722D01*
X33614737Y-48915722D01*
X33488658Y-48881940D01*
X33375619Y-48816677D01*
X33283323Y-48724381D01*
X33218060Y-48611342D01*
X33184278Y-48485263D01*
X33180000Y-48420000D01*
X33180000Y-47320000D01*
X33184278Y-47254737D01*
X33218060Y-47128658D01*
X33283323Y-47015619D01*
X33375619Y-46923323D01*
X33488658Y-46858060D01*
X33614737Y-46824278D01*
X33745263Y-46824278D01*
X33871342Y-46858060D01*
G37*
G36*
X42511342Y-46858060D02*
G01*
X42624381Y-46923323D01*
X42716677Y-47015619D01*
X42781940Y-47128658D01*
X42815722Y-47254737D01*
X42820000Y-47320000D01*
X42820000Y-48420000D01*
X42815722Y-48485263D01*
X42781940Y-48611342D01*
X42716677Y-48724381D01*
X42624381Y-48816677D01*
X42511342Y-48881940D01*
X42385263Y-48915722D01*
X42254737Y-48915722D01*
X42128658Y-48881940D01*
X42015619Y-48816677D01*
X41923323Y-48724381D01*
X41858060Y-48611342D01*
X41824278Y-48485263D01*
X41820000Y-48420000D01*
X41820000Y-47320000D01*
X41824278Y-47254737D01*
X41858060Y-47128658D01*
X41923323Y-47015619D01*
X42015619Y-46923323D01*
X42128658Y-46858060D01*
X42254737Y-46824278D01*
X42385263Y-46824278D01*
X42511342Y-46858060D01*
G37*
G36*
X35234372Y-48099739D02*
G01*
X35307847Y-48142160D01*
X35367840Y-48202153D01*
X35410261Y-48275628D01*
X35432220Y-48357579D01*
X35432220Y-48442421D01*
X35410261Y-48524372D01*
X35367840Y-48597847D01*
X35307847Y-48657840D01*
X35234372Y-48700261D01*
X35152421Y-48722220D01*
X35067579Y-48722220D01*
X34985628Y-48700261D01*
X34912153Y-48657840D01*
X34852160Y-48597847D01*
X34809739Y-48524372D01*
X34787780Y-48442421D01*
X34787780Y-48357579D01*
X34809739Y-48275628D01*
X34852160Y-48202153D01*
X34912153Y-48142160D01*
X34985628Y-48099739D01*
X35067579Y-48077780D01*
X35152421Y-48077780D01*
X35234372Y-48099739D01*
G37*
G36*
X41014372Y-48099739D02*
G01*
X41087847Y-48142160D01*
X41147840Y-48202153D01*
X41190261Y-48275628D01*
X41212220Y-48357579D01*
X41212220Y-48442421D01*
X41190261Y-48524372D01*
X41147840Y-48597847D01*
X41087847Y-48657840D01*
X41014372Y-48700261D01*
X40932421Y-48722220D01*
X40847579Y-48722220D01*
X40765628Y-48700261D01*
X40692153Y-48657840D01*
X40632160Y-48597847D01*
X40589739Y-48524372D01*
X40567780Y-48442421D01*
X40567780Y-48357579D01*
X40589739Y-48275628D01*
X40632160Y-48202153D01*
X40692153Y-48142160D01*
X40765628Y-48099739D01*
X40847579Y-48077780D01*
X40932421Y-48077780D01*
X41014372Y-48099739D01*
G37*
G36*
X29103701Y-48280709D02*
G01*
X29128033Y-48296967D01*
X29144291Y-48321299D01*
X29150000Y-48350000D01*
X29150000Y-48500000D01*
X29144291Y-48528701D01*
X29128033Y-48553033D01*
X29103701Y-48569291D01*
X29075000Y-48575000D01*
X28925000Y-48575000D01*
X28896299Y-48569291D01*
X28871967Y-48553033D01*
X28855709Y-48528701D01*
X28850000Y-48500000D01*
X28850000Y-48350000D01*
X28855709Y-48321299D01*
X28871967Y-48296967D01*
X28896299Y-48280709D01*
X28925000Y-48275000D01*
X29075000Y-48275000D01*
X29103701Y-48280709D01*
G37*
G36*
X23753701Y-47755709D02*
G01*
X23778033Y-47771967D01*
X23794291Y-47796299D01*
X23800000Y-47825000D01*
X23800000Y-48175000D01*
X23794291Y-48203701D01*
X23778033Y-48228033D01*
X23753701Y-48244291D01*
X23725000Y-48250000D01*
X23575000Y-48250000D01*
X23546299Y-48244291D01*
X23521967Y-48228033D01*
X23505709Y-48203701D01*
X23500000Y-48175000D01*
X23500000Y-47825000D01*
X23505709Y-47796299D01*
X23521967Y-47771967D01*
X23546299Y-47755709D01*
X23575000Y-47750000D01*
X23725000Y-47750000D01*
X23753701Y-47755709D01*
G37*
G36*
X24453701Y-47755709D02*
G01*
X24478033Y-47771967D01*
X24494291Y-47796299D01*
X24500000Y-47825000D01*
X24500000Y-48175000D01*
X24494291Y-48203701D01*
X24478033Y-48228033D01*
X24453701Y-48244291D01*
X24425000Y-48250000D01*
X24275000Y-48250000D01*
X24246299Y-48244291D01*
X24221967Y-48228033D01*
X24205709Y-48203701D01*
X24200000Y-48175000D01*
X24200000Y-47825000D01*
X24205709Y-47796299D01*
X24221967Y-47771967D01*
X24246299Y-47755709D01*
X24275000Y-47750000D01*
X24425000Y-47750000D01*
X24453701Y-47755709D01*
G37*
G36*
X28753701Y-47430709D02*
G01*
X28778033Y-47446967D01*
X28794291Y-47471299D01*
X28800000Y-47500000D01*
X28800000Y-47650000D01*
X28794291Y-47678701D01*
X28778033Y-47703033D01*
X28753701Y-47719291D01*
X28725000Y-47725000D01*
X28575000Y-47725000D01*
X28546299Y-47719291D01*
X28521967Y-47703033D01*
X28505709Y-47678701D01*
X28500000Y-47650000D01*
X28500000Y-47500000D01*
X28505709Y-47471299D01*
X28521967Y-47446967D01*
X28546299Y-47430709D01*
X28575000Y-47425000D01*
X28725000Y-47425000D01*
X28753701Y-47430709D01*
G37*
G36*
X29453701Y-47430709D02*
G01*
X29478033Y-47446967D01*
X29494291Y-47471299D01*
X29500000Y-47500000D01*
X29500000Y-47650000D01*
X29494291Y-47678701D01*
X29478033Y-47703033D01*
X29453701Y-47719291D01*
X29425000Y-47725000D01*
X29275000Y-47725000D01*
X29246299Y-47719291D01*
X29221967Y-47703033D01*
X29205709Y-47678701D01*
X29200000Y-47650000D01*
X29200000Y-47500000D01*
X29205709Y-47471299D01*
X29221967Y-47446967D01*
X29246299Y-47430709D01*
X29275000Y-47425000D01*
X29425000Y-47425000D01*
X29453701Y-47430709D01*
G37*
G36*
X34957403Y-46241418D02*
G01*
X35006066Y-46273934D01*
X35038582Y-46322597D01*
X35050000Y-46380000D01*
X35050000Y-47530000D01*
X35038582Y-47587403D01*
X35006066Y-47636066D01*
X34957403Y-47668582D01*
X34900000Y-47680000D01*
X34600000Y-47680000D01*
X34542597Y-47668582D01*
X34493934Y-47636066D01*
X34461418Y-47587403D01*
X34450000Y-47530000D01*
X34450000Y-46380000D01*
X34461418Y-46322597D01*
X34493934Y-46273934D01*
X34542597Y-46241418D01*
X34600000Y-46230000D01*
X34900000Y-46230000D01*
X34957403Y-46241418D01*
G37*
G36*
X35757403Y-46241418D02*
G01*
X35806066Y-46273934D01*
X35838582Y-46322597D01*
X35850000Y-46380000D01*
X35850000Y-47530000D01*
X35838582Y-47587403D01*
X35806066Y-47636066D01*
X35757403Y-47668582D01*
X35700000Y-47680000D01*
X35400000Y-47680000D01*
X35342597Y-47668582D01*
X35293934Y-47636066D01*
X35261418Y-47587403D01*
X35250000Y-47530000D01*
X35250000Y-46380000D01*
X35261418Y-46322597D01*
X35293934Y-46273934D01*
X35342597Y-46241418D01*
X35400000Y-46230000D01*
X35700000Y-46230000D01*
X35757403Y-46241418D01*
G37*
G36*
X36353701Y-46235709D02*
G01*
X36378033Y-46251967D01*
X36394291Y-46276299D01*
X36400000Y-46305000D01*
X36400000Y-47605000D01*
X36394291Y-47633701D01*
X36378033Y-47658033D01*
X36353701Y-47674291D01*
X36325000Y-47680000D01*
X36175000Y-47680000D01*
X36146299Y-47674291D01*
X36121967Y-47658033D01*
X36105709Y-47633701D01*
X36100000Y-47605000D01*
X36100000Y-46305000D01*
X36105709Y-46276299D01*
X36121967Y-46251967D01*
X36146299Y-46235709D01*
X36175000Y-46230000D01*
X36325000Y-46230000D01*
X36353701Y-46235709D01*
G37*
G36*
X36853701Y-46235709D02*
G01*
X36878033Y-46251967D01*
X36894291Y-46276299D01*
X36900000Y-46305000D01*
X36900000Y-47605000D01*
X36894291Y-47633701D01*
X36878033Y-47658033D01*
X36853701Y-47674291D01*
X36825000Y-47680000D01*
X36675000Y-47680000D01*
X36646299Y-47674291D01*
X36621967Y-47658033D01*
X36605709Y-47633701D01*
X36600000Y-47605000D01*
X36600000Y-46305000D01*
X36605709Y-46276299D01*
X36621967Y-46251967D01*
X36646299Y-46235709D01*
X36675000Y-46230000D01*
X36825000Y-46230000D01*
X36853701Y-46235709D01*
G37*
G36*
X37353701Y-46235709D02*
G01*
X37378033Y-46251967D01*
X37394291Y-46276299D01*
X37400000Y-46305000D01*
X37400000Y-47605000D01*
X37394291Y-47633701D01*
X37378033Y-47658033D01*
X37353701Y-47674291D01*
X37325000Y-47680000D01*
X37175000Y-47680000D01*
X37146299Y-47674291D01*
X37121967Y-47658033D01*
X37105709Y-47633701D01*
X37100000Y-47605000D01*
X37100000Y-46305000D01*
X37105709Y-46276299D01*
X37121967Y-46251967D01*
X37146299Y-46235709D01*
X37175000Y-46230000D01*
X37325000Y-46230000D01*
X37353701Y-46235709D01*
G37*
G36*
X37853701Y-46235709D02*
G01*
X37878033Y-46251967D01*
X37894291Y-46276299D01*
X37900000Y-46305000D01*
X37900000Y-47605000D01*
X37894291Y-47633701D01*
X37878033Y-47658033D01*
X37853701Y-47674291D01*
X37825000Y-47680000D01*
X37675000Y-47680000D01*
X37646299Y-47674291D01*
X37621967Y-47658033D01*
X37605709Y-47633701D01*
X37600000Y-47605000D01*
X37600000Y-46305000D01*
X37605709Y-46276299D01*
X37621967Y-46251967D01*
X37646299Y-46235709D01*
X37675000Y-46230000D01*
X37825000Y-46230000D01*
X37853701Y-46235709D01*
G37*
G36*
X38353701Y-46235709D02*
G01*
X38378033Y-46251967D01*
X38394291Y-46276299D01*
X38400000Y-46305000D01*
X38400000Y-47605000D01*
X38394291Y-47633701D01*
X38378033Y-47658033D01*
X38353701Y-47674291D01*
X38325000Y-47680000D01*
X38175000Y-47680000D01*
X38146299Y-47674291D01*
X38121967Y-47658033D01*
X38105709Y-47633701D01*
X38100000Y-47605000D01*
X38100000Y-46305000D01*
X38105709Y-46276299D01*
X38121967Y-46251967D01*
X38146299Y-46235709D01*
X38175000Y-46230000D01*
X38325000Y-46230000D01*
X38353701Y-46235709D01*
G37*
G36*
X38853701Y-46235709D02*
G01*
X38878033Y-46251967D01*
X38894291Y-46276299D01*
X38900000Y-46305000D01*
X38900000Y-47605000D01*
X38894291Y-47633701D01*
X38878033Y-47658033D01*
X38853701Y-47674291D01*
X38825000Y-47680000D01*
X38675000Y-47680000D01*
X38646299Y-47674291D01*
X38621967Y-47658033D01*
X38605709Y-47633701D01*
X38600000Y-47605000D01*
X38600000Y-46305000D01*
X38605709Y-46276299D01*
X38621967Y-46251967D01*
X38646299Y-46235709D01*
X38675000Y-46230000D01*
X38825000Y-46230000D01*
X38853701Y-46235709D01*
G37*
G36*
X39353701Y-46235709D02*
G01*
X39378033Y-46251967D01*
X39394291Y-46276299D01*
X39400000Y-46305000D01*
X39400000Y-47605000D01*
X39394291Y-47633701D01*
X39378033Y-47658033D01*
X39353701Y-47674291D01*
X39325000Y-47680000D01*
X39175000Y-47680000D01*
X39146299Y-47674291D01*
X39121967Y-47658033D01*
X39105709Y-47633701D01*
X39100000Y-47605000D01*
X39100000Y-46305000D01*
X39105709Y-46276299D01*
X39121967Y-46251967D01*
X39146299Y-46235709D01*
X39175000Y-46230000D01*
X39325000Y-46230000D01*
X39353701Y-46235709D01*
G37*
G36*
X39853701Y-46235709D02*
G01*
X39878033Y-46251967D01*
X39894291Y-46276299D01*
X39900000Y-46305000D01*
X39900000Y-47605000D01*
X39894291Y-47633701D01*
X39878033Y-47658033D01*
X39853701Y-47674291D01*
X39825000Y-47680000D01*
X39675000Y-47680000D01*
X39646299Y-47674291D01*
X39621967Y-47658033D01*
X39605709Y-47633701D01*
X39600000Y-47605000D01*
X39600000Y-46305000D01*
X39605709Y-46276299D01*
X39621967Y-46251967D01*
X39646299Y-46235709D01*
X39675000Y-46230000D01*
X39825000Y-46230000D01*
X39853701Y-46235709D01*
G37*
G36*
X40657403Y-46241418D02*
G01*
X40706066Y-46273934D01*
X40738582Y-46322597D01*
X40750000Y-46380000D01*
X40750000Y-47530000D01*
X40738582Y-47587403D01*
X40706066Y-47636066D01*
X40657403Y-47668582D01*
X40600000Y-47680000D01*
X40300000Y-47680000D01*
X40242597Y-47668582D01*
X40193934Y-47636066D01*
X40161418Y-47587403D01*
X40150000Y-47530000D01*
X40150000Y-46380000D01*
X40161418Y-46322597D01*
X40193934Y-46273934D01*
X40242597Y-46241418D01*
X40300000Y-46230000D01*
X40600000Y-46230000D01*
X40657403Y-46241418D01*
G37*
G36*
X41457403Y-46241418D02*
G01*
X41506066Y-46273934D01*
X41538582Y-46322597D01*
X41550000Y-46380000D01*
X41550000Y-47530000D01*
X41538582Y-47587403D01*
X41506066Y-47636066D01*
X41457403Y-47668582D01*
X41400000Y-47680000D01*
X41100000Y-47680000D01*
X41042597Y-47668582D01*
X40993934Y-47636066D01*
X40961418Y-47587403D01*
X40950000Y-47530000D01*
X40950000Y-46380000D01*
X40961418Y-46322597D01*
X40993934Y-46273934D01*
X41042597Y-46241418D01*
X41100000Y-46230000D01*
X41400000Y-46230000D01*
X41457403Y-46241418D01*
G37*
G36*
X58995671Y-46669030D02*
G01*
X59076777Y-46723223D01*
X59130970Y-46804329D01*
X59150000Y-46900000D01*
X59150000Y-47400000D01*
X59130970Y-47495671D01*
X59076777Y-47576777D01*
X58995671Y-47630970D01*
X58900000Y-47650000D01*
X57950000Y-47650000D01*
X57854329Y-47630970D01*
X57773223Y-47576777D01*
X57719030Y-47495671D01*
X57700000Y-47400000D01*
X57700000Y-46900000D01*
X57719030Y-46804329D01*
X57773223Y-46723223D01*
X57854329Y-46669030D01*
X57950000Y-46650000D01*
X58900000Y-46650000D01*
X58995671Y-46669030D01*
G37*
G36*
X64145671Y-46669030D02*
G01*
X64226777Y-46723223D01*
X64280970Y-46804329D01*
X64300000Y-46900000D01*
X64300000Y-47400000D01*
X64280970Y-47495671D01*
X64226777Y-47576777D01*
X64145671Y-47630970D01*
X64050000Y-47650000D01*
X63100000Y-47650000D01*
X63004329Y-47630970D01*
X62923223Y-47576777D01*
X62869030Y-47495671D01*
X62850000Y-47400000D01*
X62850000Y-46900000D01*
X62869030Y-46804329D01*
X62923223Y-46723223D01*
X63004329Y-46669030D01*
X63100000Y-46650000D01*
X64050000Y-46650000D01*
X64145671Y-46669030D01*
G37*
G36*
X66995671Y-46669030D02*
G01*
X67076777Y-46723223D01*
X67130970Y-46804329D01*
X67150000Y-46900000D01*
X67150000Y-47400000D01*
X67130970Y-47495671D01*
X67076777Y-47576777D01*
X66995671Y-47630970D01*
X66900000Y-47650000D01*
X65950000Y-47650000D01*
X65854329Y-47630970D01*
X65773223Y-47576777D01*
X65719030Y-47495671D01*
X65700000Y-47400000D01*
X65700000Y-46900000D01*
X65719030Y-46804329D01*
X65773223Y-46723223D01*
X65854329Y-46669030D01*
X65950000Y-46650000D01*
X66900000Y-46650000D01*
X66995671Y-46669030D01*
G37*
G36*
X72145671Y-46669030D02*
G01*
X72226777Y-46723223D01*
X72280970Y-46804329D01*
X72300000Y-46900000D01*
X72300000Y-47400000D01*
X72280970Y-47495671D01*
X72226777Y-47576777D01*
X72145671Y-47630970D01*
X72050000Y-47650000D01*
X71100000Y-47650000D01*
X71004329Y-47630970D01*
X70923223Y-47576777D01*
X70869030Y-47495671D01*
X70850000Y-47400000D01*
X70850000Y-46900000D01*
X70869030Y-46804329D01*
X70923223Y-46723223D01*
X71004329Y-46669030D01*
X71100000Y-46650000D01*
X72050000Y-46650000D01*
X72145671Y-46669030D01*
G37*
G36*
X52451537Y-44540224D02*
G01*
X52516421Y-44583579D01*
X52559776Y-44648463D01*
X52575000Y-44725000D01*
X52575000Y-45275000D01*
X52559776Y-45351537D01*
X52516421Y-45416421D01*
X52451537Y-45459776D01*
X52375000Y-45475000D01*
X51975000Y-45475000D01*
X51898463Y-45459776D01*
X51833579Y-45416421D01*
X51790224Y-45351537D01*
X51775000Y-45275000D01*
X51775000Y-44725000D01*
X51790224Y-44648463D01*
X51833579Y-44583579D01*
X51898463Y-44540224D01*
X51975000Y-44525000D01*
X52375000Y-44525000D01*
X52451537Y-44540224D01*
G37*
G36*
X54101537Y-44540224D02*
G01*
X54166421Y-44583579D01*
X54209776Y-44648463D01*
X54225000Y-44725000D01*
X54225000Y-45275000D01*
X54209776Y-45351537D01*
X54166421Y-45416421D01*
X54101537Y-45459776D01*
X54025000Y-45475000D01*
X53625000Y-45475000D01*
X53548463Y-45459776D01*
X53483579Y-45416421D01*
X53440224Y-45351537D01*
X53425000Y-45275000D01*
X53425000Y-44725000D01*
X53440224Y-44648463D01*
X53483579Y-44583579D01*
X53548463Y-44540224D01*
X53625000Y-44525000D01*
X54025000Y-44525000D01*
X54101537Y-44540224D01*
G37*
G36*
X41536104Y-44042127D02*
G01*
X41609099Y-44090901D01*
X41657873Y-44163896D01*
X41675000Y-44250000D01*
X41675000Y-44750000D01*
X41657873Y-44836104D01*
X41609099Y-44909099D01*
X41536104Y-44957873D01*
X41450000Y-44975000D01*
X41000000Y-44975000D01*
X40913896Y-44957873D01*
X40840901Y-44909099D01*
X40792127Y-44836104D01*
X40775000Y-44750000D01*
X40775000Y-44250000D01*
X40792127Y-44163896D01*
X40840901Y-44090901D01*
X40913896Y-44042127D01*
X41000000Y-44025000D01*
X41450000Y-44025000D01*
X41536104Y-44042127D01*
G37*
G36*
X43086104Y-44042127D02*
G01*
X43159099Y-44090901D01*
X43207873Y-44163896D01*
X43225000Y-44250000D01*
X43225000Y-44750000D01*
X43207873Y-44836104D01*
X43159099Y-44909099D01*
X43086104Y-44957873D01*
X43000000Y-44975000D01*
X42550000Y-44975000D01*
X42463896Y-44957873D01*
X42390901Y-44909099D01*
X42342127Y-44836104D01*
X42325000Y-44750000D01*
X42325000Y-44250000D01*
X42342127Y-44163896D01*
X42390901Y-44090901D01*
X42463896Y-44042127D01*
X42550000Y-44025000D01*
X43000000Y-44025000D01*
X43086104Y-44042127D01*
G37*
G36*
X44451537Y-43540224D02*
G01*
X44516421Y-43583579D01*
X44559776Y-43648463D01*
X44575000Y-43725000D01*
X44575000Y-44275000D01*
X44559776Y-44351537D01*
X44516421Y-44416421D01*
X44451537Y-44459776D01*
X44375000Y-44475000D01*
X43975000Y-44475000D01*
X43898463Y-44459776D01*
X43833579Y-44416421D01*
X43790224Y-44351537D01*
X43775000Y-44275000D01*
X43775000Y-43725000D01*
X43790224Y-43648463D01*
X43833579Y-43583579D01*
X43898463Y-43540224D01*
X43975000Y-43525000D01*
X44375000Y-43525000D01*
X44451537Y-43540224D01*
G37*
G36*
X46101537Y-43540224D02*
G01*
X46166421Y-43583579D01*
X46209776Y-43648463D01*
X46225000Y-43725000D01*
X46225000Y-44275000D01*
X46209776Y-44351537D01*
X46166421Y-44416421D01*
X46101537Y-44459776D01*
X46025000Y-44475000D01*
X45625000Y-44475000D01*
X45548463Y-44459776D01*
X45483579Y-44416421D01*
X45440224Y-44351537D01*
X45425000Y-44275000D01*
X45425000Y-43725000D01*
X45440224Y-43648463D01*
X45483579Y-43583579D01*
X45548463Y-43540224D01*
X45625000Y-43525000D01*
X46025000Y-43525000D01*
X46101537Y-43540224D01*
G37*
G36*
X48451537Y-43540224D02*
G01*
X48516421Y-43583579D01*
X48559776Y-43648463D01*
X48575000Y-43725000D01*
X48575000Y-44275000D01*
X48559776Y-44351537D01*
X48516421Y-44416421D01*
X48451537Y-44459776D01*
X48375000Y-44475000D01*
X47975000Y-44475000D01*
X47898463Y-44459776D01*
X47833579Y-44416421D01*
X47790224Y-44351537D01*
X47775000Y-44275000D01*
X47775000Y-43725000D01*
X47790224Y-43648463D01*
X47833579Y-43583579D01*
X47898463Y-43540224D01*
X47975000Y-43525000D01*
X48375000Y-43525000D01*
X48451537Y-43540224D01*
G37*
G36*
X50101537Y-43540224D02*
G01*
X50166421Y-43583579D01*
X50209776Y-43648463D01*
X50225000Y-43725000D01*
X50225000Y-44275000D01*
X50209776Y-44351537D01*
X50166421Y-44416421D01*
X50101537Y-44459776D01*
X50025000Y-44475000D01*
X49625000Y-44475000D01*
X49548463Y-44459776D01*
X49483579Y-44416421D01*
X49440224Y-44351537D01*
X49425000Y-44275000D01*
X49425000Y-43725000D01*
X49440224Y-43648463D01*
X49483579Y-43583579D01*
X49548463Y-43540224D01*
X49625000Y-43525000D01*
X50025000Y-43525000D01*
X50101537Y-43540224D01*
G37*
G36*
X52536104Y-42542127D02*
G01*
X52609099Y-42590901D01*
X52657873Y-42663896D01*
X52675000Y-42750000D01*
X52675000Y-43250000D01*
X52657873Y-43336104D01*
X52609099Y-43409099D01*
X52536104Y-43457873D01*
X52450000Y-43475000D01*
X52000000Y-43475000D01*
X51913896Y-43457873D01*
X51840901Y-43409099D01*
X51792127Y-43336104D01*
X51775000Y-43250000D01*
X51775000Y-42750000D01*
X51792127Y-42663896D01*
X51840901Y-42590901D01*
X51913896Y-42542127D01*
X52000000Y-42525000D01*
X52450000Y-42525000D01*
X52536104Y-42542127D01*
G37*
G36*
X54086104Y-42542127D02*
G01*
X54159099Y-42590901D01*
X54207873Y-42663896D01*
X54225000Y-42750000D01*
X54225000Y-43250000D01*
X54207873Y-43336104D01*
X54159099Y-43409099D01*
X54086104Y-43457873D01*
X54000000Y-43475000D01*
X53550000Y-43475000D01*
X53463896Y-43457873D01*
X53390901Y-43409099D01*
X53342127Y-43336104D01*
X53325000Y-43250000D01*
X53325000Y-42750000D01*
X53342127Y-42663896D01*
X53390901Y-42590901D01*
X53463896Y-42542127D01*
X53550000Y-42525000D01*
X54000000Y-42525000D01*
X54086104Y-42542127D01*
G37*
G36*
X35469134Y-42003806D02*
G01*
X35485355Y-42014645D01*
X35496194Y-42030866D01*
X35500000Y-42050000D01*
X35500000Y-42825000D01*
X35496194Y-42844134D01*
X35485355Y-42860355D01*
X35469134Y-42871194D01*
X35450000Y-42875000D01*
X35350000Y-42875000D01*
X35330866Y-42871194D01*
X35314645Y-42860355D01*
X35303806Y-42844134D01*
X35300000Y-42825000D01*
X35300000Y-42050000D01*
X35303806Y-42030866D01*
X35314645Y-42014645D01*
X35330866Y-42003806D01*
X35350000Y-42000000D01*
X35450000Y-42000000D01*
X35469134Y-42003806D01*
G37*
G36*
X35869134Y-42003806D02*
G01*
X35885355Y-42014645D01*
X35896194Y-42030866D01*
X35900000Y-42050000D01*
X35900000Y-42825000D01*
X35896194Y-42844134D01*
X35885355Y-42860355D01*
X35869134Y-42871194D01*
X35850000Y-42875000D01*
X35750000Y-42875000D01*
X35730866Y-42871194D01*
X35714645Y-42860355D01*
X35703806Y-42844134D01*
X35700000Y-42825000D01*
X35700000Y-42050000D01*
X35703806Y-42030866D01*
X35714645Y-42014645D01*
X35730866Y-42003806D01*
X35750000Y-42000000D01*
X35850000Y-42000000D01*
X35869134Y-42003806D01*
G37*
G36*
X36269134Y-42003806D02*
G01*
X36285355Y-42014645D01*
X36296194Y-42030866D01*
X36300000Y-42050000D01*
X36300000Y-42825000D01*
X36296194Y-42844134D01*
X36285355Y-42860355D01*
X36269134Y-42871194D01*
X36250000Y-42875000D01*
X36150000Y-42875000D01*
X36130866Y-42871194D01*
X36114645Y-42860355D01*
X36103806Y-42844134D01*
X36100000Y-42825000D01*
X36100000Y-42050000D01*
X36103806Y-42030866D01*
X36114645Y-42014645D01*
X36130866Y-42003806D01*
X36150000Y-42000000D01*
X36250000Y-42000000D01*
X36269134Y-42003806D01*
G37*
G36*
X36669134Y-42003806D02*
G01*
X36685355Y-42014645D01*
X36696194Y-42030866D01*
X36700000Y-42050000D01*
X36700000Y-42825000D01*
X36696194Y-42844134D01*
X36685355Y-42860355D01*
X36669134Y-42871194D01*
X36650000Y-42875000D01*
X36550000Y-42875000D01*
X36530866Y-42871194D01*
X36514645Y-42860355D01*
X36503806Y-42844134D01*
X36500000Y-42825000D01*
X36500000Y-42050000D01*
X36503806Y-42030866D01*
X36514645Y-42014645D01*
X36530866Y-42003806D01*
X36550000Y-42000000D01*
X36650000Y-42000000D01*
X36669134Y-42003806D01*
G37*
G36*
X37069134Y-42003806D02*
G01*
X37085355Y-42014645D01*
X37096194Y-42030866D01*
X37100000Y-42050000D01*
X37100000Y-42825000D01*
X37096194Y-42844134D01*
X37085355Y-42860355D01*
X37069134Y-42871194D01*
X37050000Y-42875000D01*
X36950000Y-42875000D01*
X36930866Y-42871194D01*
X36914645Y-42860355D01*
X36903806Y-42844134D01*
X36900000Y-42825000D01*
X36900000Y-42050000D01*
X36903806Y-42030866D01*
X36914645Y-42014645D01*
X36930866Y-42003806D01*
X36950000Y-42000000D01*
X37050000Y-42000000D01*
X37069134Y-42003806D01*
G37*
G36*
X37469134Y-42003806D02*
G01*
X37485355Y-42014645D01*
X37496194Y-42030866D01*
X37500000Y-42050000D01*
X37500000Y-42825000D01*
X37496194Y-42844134D01*
X37485355Y-42860355D01*
X37469134Y-42871194D01*
X37450000Y-42875000D01*
X37350000Y-42875000D01*
X37330866Y-42871194D01*
X37314645Y-42860355D01*
X37303806Y-42844134D01*
X37300000Y-42825000D01*
X37300000Y-42050000D01*
X37303806Y-42030866D01*
X37314645Y-42014645D01*
X37330866Y-42003806D01*
X37350000Y-42000000D01*
X37450000Y-42000000D01*
X37469134Y-42003806D01*
G37*
G36*
X37869134Y-42003806D02*
G01*
X37885355Y-42014645D01*
X37896194Y-42030866D01*
X37900000Y-42050000D01*
X37900000Y-42825000D01*
X37896194Y-42844134D01*
X37885355Y-42860355D01*
X37869134Y-42871194D01*
X37850000Y-42875000D01*
X37750000Y-42875000D01*
X37730866Y-42871194D01*
X37714645Y-42860355D01*
X37703806Y-42844134D01*
X37700000Y-42825000D01*
X37700000Y-42050000D01*
X37703806Y-42030866D01*
X37714645Y-42014645D01*
X37730866Y-42003806D01*
X37750000Y-42000000D01*
X37850000Y-42000000D01*
X37869134Y-42003806D01*
G37*
G36*
X38269134Y-42003806D02*
G01*
X38285355Y-42014645D01*
X38296194Y-42030866D01*
X38300000Y-42050000D01*
X38300000Y-42825000D01*
X38296194Y-42844134D01*
X38285355Y-42860355D01*
X38269134Y-42871194D01*
X38250000Y-42875000D01*
X38150000Y-42875000D01*
X38130866Y-42871194D01*
X38114645Y-42860355D01*
X38103806Y-42844134D01*
X38100000Y-42825000D01*
X38100000Y-42050000D01*
X38103806Y-42030866D01*
X38114645Y-42014645D01*
X38130866Y-42003806D01*
X38150000Y-42000000D01*
X38250000Y-42000000D01*
X38269134Y-42003806D01*
G37*
G36*
X38669134Y-42003806D02*
G01*
X38685355Y-42014645D01*
X38696194Y-42030866D01*
X38700000Y-42050000D01*
X38700000Y-42825000D01*
X38696194Y-42844134D01*
X38685355Y-42860355D01*
X38669134Y-42871194D01*
X38650000Y-42875000D01*
X38550000Y-42875000D01*
X38530866Y-42871194D01*
X38514645Y-42860355D01*
X38503806Y-42844134D01*
X38500000Y-42825000D01*
X38500000Y-42050000D01*
X38503806Y-42030866D01*
X38514645Y-42014645D01*
X38530866Y-42003806D01*
X38550000Y-42000000D01*
X38650000Y-42000000D01*
X38669134Y-42003806D01*
G37*
G36*
X39069134Y-42003806D02*
G01*
X39085355Y-42014645D01*
X39096194Y-42030866D01*
X39100000Y-42050000D01*
X39100000Y-42825000D01*
X39096194Y-42844134D01*
X39085355Y-42860355D01*
X39069134Y-42871194D01*
X39050000Y-42875000D01*
X38950000Y-42875000D01*
X38930866Y-42871194D01*
X38914645Y-42860355D01*
X38903806Y-42844134D01*
X38900000Y-42825000D01*
X38900000Y-42050000D01*
X38903806Y-42030866D01*
X38914645Y-42014645D01*
X38930866Y-42003806D01*
X38950000Y-42000000D01*
X39050000Y-42000000D01*
X39069134Y-42003806D01*
G37*
G36*
X39469134Y-42003806D02*
G01*
X39485355Y-42014645D01*
X39496194Y-42030866D01*
X39500000Y-42050000D01*
X39500000Y-42825000D01*
X39496194Y-42844134D01*
X39485355Y-42860355D01*
X39469134Y-42871194D01*
X39450000Y-42875000D01*
X39350000Y-42875000D01*
X39330866Y-42871194D01*
X39314645Y-42860355D01*
X39303806Y-42844134D01*
X39300000Y-42825000D01*
X39300000Y-42050000D01*
X39303806Y-42030866D01*
X39314645Y-42014645D01*
X39330866Y-42003806D01*
X39350000Y-42000000D01*
X39450000Y-42000000D01*
X39469134Y-42003806D01*
G37*
G36*
X39869134Y-42003806D02*
G01*
X39885355Y-42014645D01*
X39896194Y-42030866D01*
X39900000Y-42050000D01*
X39900000Y-42825000D01*
X39896194Y-42844134D01*
X39885355Y-42860355D01*
X39869134Y-42871194D01*
X39850000Y-42875000D01*
X39750000Y-42875000D01*
X39730866Y-42871194D01*
X39714645Y-42860355D01*
X39703806Y-42844134D01*
X39700000Y-42825000D01*
X39700000Y-42050000D01*
X39703806Y-42030866D01*
X39714645Y-42014645D01*
X39730866Y-42003806D01*
X39750000Y-42000000D01*
X39850000Y-42000000D01*
X39869134Y-42003806D01*
G37*
G36*
X40269134Y-42003806D02*
G01*
X40285355Y-42014645D01*
X40296194Y-42030866D01*
X40300000Y-42050000D01*
X40300000Y-42825000D01*
X40296194Y-42844134D01*
X40285355Y-42860355D01*
X40269134Y-42871194D01*
X40250000Y-42875000D01*
X40150000Y-42875000D01*
X40130866Y-42871194D01*
X40114645Y-42860355D01*
X40103806Y-42844134D01*
X40100000Y-42825000D01*
X40100000Y-42050000D01*
X40103806Y-42030866D01*
X40114645Y-42014645D01*
X40130866Y-42003806D01*
X40150000Y-42000000D01*
X40250000Y-42000000D01*
X40269134Y-42003806D01*
G37*
G36*
X40669134Y-42003806D02*
G01*
X40685355Y-42014645D01*
X40696194Y-42030866D01*
X40700000Y-42050000D01*
X40700000Y-42825000D01*
X40696194Y-42844134D01*
X40685355Y-42860355D01*
X40669134Y-42871194D01*
X40650000Y-42875000D01*
X40550000Y-42875000D01*
X40530866Y-42871194D01*
X40514645Y-42860355D01*
X40503806Y-42844134D01*
X40500000Y-42825000D01*
X40500000Y-42050000D01*
X40503806Y-42030866D01*
X40514645Y-42014645D01*
X40530866Y-42003806D01*
X40550000Y-42000000D01*
X40650000Y-42000000D01*
X40669134Y-42003806D01*
G37*
G36*
X60451537Y-41540224D02*
G01*
X60516421Y-41583579D01*
X60559776Y-41648463D01*
X60575000Y-41725000D01*
X60575000Y-42275000D01*
X60559776Y-42351537D01*
X60516421Y-42416421D01*
X60451537Y-42459776D01*
X60375000Y-42475000D01*
X59975000Y-42475000D01*
X59898463Y-42459776D01*
X59833579Y-42416421D01*
X59790224Y-42351537D01*
X59775000Y-42275000D01*
X59775000Y-41725000D01*
X59790224Y-41648463D01*
X59833579Y-41583579D01*
X59898463Y-41540224D01*
X59975000Y-41525000D01*
X60375000Y-41525000D01*
X60451537Y-41540224D01*
G37*
G36*
X62101537Y-41540224D02*
G01*
X62166421Y-41583579D01*
X62209776Y-41648463D01*
X62225000Y-41725000D01*
X62225000Y-42275000D01*
X62209776Y-42351537D01*
X62166421Y-42416421D01*
X62101537Y-42459776D01*
X62025000Y-42475000D01*
X61625000Y-42475000D01*
X61548463Y-42459776D01*
X61483579Y-42416421D01*
X61440224Y-42351537D01*
X61425000Y-42275000D01*
X61425000Y-41725000D01*
X61440224Y-41648463D01*
X61483579Y-41583579D01*
X61548463Y-41540224D01*
X61625000Y-41525000D01*
X62025000Y-41525000D01*
X62101537Y-41540224D01*
G37*
G36*
X65536104Y-41542127D02*
G01*
X65609099Y-41590901D01*
X65657873Y-41663896D01*
X65675000Y-41750000D01*
X65675000Y-42250000D01*
X65657873Y-42336104D01*
X65609099Y-42409099D01*
X65536104Y-42457873D01*
X65450000Y-42475000D01*
X65000000Y-42475000D01*
X64913896Y-42457873D01*
X64840901Y-42409099D01*
X64792127Y-42336104D01*
X64775000Y-42250000D01*
X64775000Y-41750000D01*
X64792127Y-41663896D01*
X64840901Y-41590901D01*
X64913896Y-41542127D01*
X65000000Y-41525000D01*
X65450000Y-41525000D01*
X65536104Y-41542127D01*
G37*
G36*
X67086104Y-41542127D02*
G01*
X67159099Y-41590901D01*
X67207873Y-41663896D01*
X67225000Y-41750000D01*
X67225000Y-42250000D01*
X67207873Y-42336104D01*
X67159099Y-42409099D01*
X67086104Y-42457873D01*
X67000000Y-42475000D01*
X66550000Y-42475000D01*
X66463896Y-42457873D01*
X66390901Y-42409099D01*
X66342127Y-42336104D01*
X66325000Y-42250000D01*
X66325000Y-41750000D01*
X66342127Y-41663896D01*
X66390901Y-41590901D01*
X66463896Y-41542127D01*
X66550000Y-41525000D01*
X67000000Y-41525000D01*
X67086104Y-41542127D01*
G37*
G36*
X34969134Y-41503806D02*
G01*
X34985355Y-41514645D01*
X34996194Y-41530866D01*
X35000000Y-41550000D01*
X35000000Y-41650000D01*
X34996194Y-41669134D01*
X34985355Y-41685355D01*
X34969134Y-41696194D01*
X34950000Y-41700000D01*
X34175000Y-41700000D01*
X34155866Y-41696194D01*
X34139645Y-41685355D01*
X34128806Y-41669134D01*
X34125000Y-41650000D01*
X34125000Y-41550000D01*
X34128806Y-41530866D01*
X34139645Y-41514645D01*
X34155866Y-41503806D01*
X34175000Y-41500000D01*
X34950000Y-41500000D01*
X34969134Y-41503806D01*
G37*
G36*
X41844134Y-41503806D02*
G01*
X41860355Y-41514645D01*
X41871194Y-41530866D01*
X41875000Y-41550000D01*
X41875000Y-41650000D01*
X41871194Y-41669134D01*
X41860355Y-41685355D01*
X41844134Y-41696194D01*
X41825000Y-41700000D01*
X41050000Y-41700000D01*
X41030866Y-41696194D01*
X41014645Y-41685355D01*
X41003806Y-41669134D01*
X41000000Y-41650000D01*
X41000000Y-41550000D01*
X41003806Y-41530866D01*
X41014645Y-41514645D01*
X41030866Y-41503806D01*
X41050000Y-41500000D01*
X41825000Y-41500000D01*
X41844134Y-41503806D01*
G37*
G36*
X34969134Y-41103806D02*
G01*
X34985355Y-41114645D01*
X34996194Y-41130866D01*
X35000000Y-41150000D01*
X35000000Y-41250000D01*
X34996194Y-41269134D01*
X34985355Y-41285355D01*
X34969134Y-41296194D01*
X34950000Y-41300000D01*
X34175000Y-41300000D01*
X34155866Y-41296194D01*
X34139645Y-41285355D01*
X34128806Y-41269134D01*
X34125000Y-41250000D01*
X34125000Y-41150000D01*
X34128806Y-41130866D01*
X34139645Y-41114645D01*
X34155866Y-41103806D01*
X34175000Y-41100000D01*
X34950000Y-41100000D01*
X34969134Y-41103806D01*
G37*
G36*
X41844134Y-41103806D02*
G01*
X41860355Y-41114645D01*
X41871194Y-41130866D01*
X41875000Y-41150000D01*
X41875000Y-41250000D01*
X41871194Y-41269134D01*
X41860355Y-41285355D01*
X41844134Y-41296194D01*
X41825000Y-41300000D01*
X41050000Y-41300000D01*
X41030866Y-41296194D01*
X41014645Y-41285355D01*
X41003806Y-41269134D01*
X41000000Y-41250000D01*
X41000000Y-41150000D01*
X41003806Y-41130866D01*
X41014645Y-41114645D01*
X41030866Y-41103806D01*
X41050000Y-41100000D01*
X41825000Y-41100000D01*
X41844134Y-41103806D01*
G37*
G36*
X20407403Y-40616418D02*
G01*
X20456066Y-40648934D01*
X20488582Y-40697597D01*
X20500000Y-40755000D01*
X20500000Y-41055000D01*
X20488582Y-41112403D01*
X20456066Y-41161066D01*
X20407403Y-41193582D01*
X20350000Y-41205000D01*
X18700000Y-41205000D01*
X18642597Y-41193582D01*
X18593934Y-41161066D01*
X18561418Y-41112403D01*
X18550000Y-41055000D01*
X18550000Y-40755000D01*
X18561418Y-40697597D01*
X18593934Y-40648934D01*
X18642597Y-40616418D01*
X18700000Y-40605000D01*
X20350000Y-40605000D01*
X20407403Y-40616418D01*
G37*
G36*
X25357403Y-40616418D02*
G01*
X25406066Y-40648934D01*
X25438582Y-40697597D01*
X25450000Y-40755000D01*
X25450000Y-41055000D01*
X25438582Y-41112403D01*
X25406066Y-41161066D01*
X25357403Y-41193582D01*
X25300000Y-41205000D01*
X23650000Y-41205000D01*
X23592597Y-41193582D01*
X23543934Y-41161066D01*
X23511418Y-41112403D01*
X23500000Y-41055000D01*
X23500000Y-40755000D01*
X23511418Y-40697597D01*
X23543934Y-40648934D01*
X23592597Y-40616418D01*
X23650000Y-40605000D01*
X25300000Y-40605000D01*
X25357403Y-40616418D01*
G37*
G36*
X46036104Y-40042127D02*
G01*
X46109099Y-40090901D01*
X46157873Y-40163896D01*
X46175000Y-40250000D01*
X46175000Y-40750000D01*
X46157873Y-40836104D01*
X46109099Y-40909099D01*
X46036104Y-40957873D01*
X45950000Y-40975000D01*
X45500000Y-40975000D01*
X45413896Y-40957873D01*
X45340901Y-40909099D01*
X45292127Y-40836104D01*
X45275000Y-40750000D01*
X45275000Y-40250000D01*
X45292127Y-40163896D01*
X45340901Y-40090901D01*
X45413896Y-40042127D01*
X45500000Y-40025000D01*
X45950000Y-40025000D01*
X46036104Y-40042127D01*
G37*
G36*
X47586104Y-40042127D02*
G01*
X47659099Y-40090901D01*
X47707873Y-40163896D01*
X47725000Y-40250000D01*
X47725000Y-40750000D01*
X47707873Y-40836104D01*
X47659099Y-40909099D01*
X47586104Y-40957873D01*
X47500000Y-40975000D01*
X47050000Y-40975000D01*
X46963896Y-40957873D01*
X46890901Y-40909099D01*
X46842127Y-40836104D01*
X46825000Y-40750000D01*
X46825000Y-40250000D01*
X46842127Y-40163896D01*
X46890901Y-40090901D01*
X46963896Y-40042127D01*
X47050000Y-40025000D01*
X47500000Y-40025000D01*
X47586104Y-40042127D01*
G37*
G36*
X34969134Y-40703806D02*
G01*
X34985355Y-40714645D01*
X34996194Y-40730866D01*
X35000000Y-40750000D01*
X35000000Y-40850000D01*
X34996194Y-40869134D01*
X34985355Y-40885355D01*
X34969134Y-40896194D01*
X34950000Y-40900000D01*
X34175000Y-40900000D01*
X34155866Y-40896194D01*
X34139645Y-40885355D01*
X34128806Y-40869134D01*
X34125000Y-40850000D01*
X34125000Y-40750000D01*
X34128806Y-40730866D01*
X34139645Y-40714645D01*
X34155866Y-40703806D01*
X34175000Y-40700000D01*
X34950000Y-40700000D01*
X34969134Y-40703806D01*
G37*
G36*
X41844134Y-40703806D02*
G01*
X41860355Y-40714645D01*
X41871194Y-40730866D01*
X41875000Y-40750000D01*
X41875000Y-40850000D01*
X41871194Y-40869134D01*
X41860355Y-40885355D01*
X41844134Y-40896194D01*
X41825000Y-40900000D01*
X41050000Y-40900000D01*
X41030866Y-40896194D01*
X41014645Y-40885355D01*
X41003806Y-40869134D01*
X41000000Y-40850000D01*
X41000000Y-40750000D01*
X41003806Y-40730866D01*
X41014645Y-40714645D01*
X41030866Y-40703806D01*
X41050000Y-40700000D01*
X41825000Y-40700000D01*
X41844134Y-40703806D01*
G37*
G36*
X39600000Y-40600000D02*
G01*
X36400000Y-40600000D01*
X36400000Y-37400000D01*
X39600000Y-37400000D01*
X39600000Y-40600000D01*
G37*
G36*
X34969134Y-40303806D02*
G01*
X34985355Y-40314645D01*
X34996194Y-40330866D01*
X35000000Y-40350000D01*
X35000000Y-40450000D01*
X34996194Y-40469134D01*
X34985355Y-40485355D01*
X34969134Y-40496194D01*
X34950000Y-40500000D01*
X34175000Y-40500000D01*
X34155866Y-40496194D01*
X34139645Y-40485355D01*
X34128806Y-40469134D01*
X34125000Y-40450000D01*
X34125000Y-40350000D01*
X34128806Y-40330866D01*
X34139645Y-40314645D01*
X34155866Y-40303806D01*
X34175000Y-40300000D01*
X34950000Y-40300000D01*
X34969134Y-40303806D01*
G37*
G36*
X41844134Y-40303806D02*
G01*
X41860355Y-40314645D01*
X41871194Y-40330866D01*
X41875000Y-40350000D01*
X41875000Y-40450000D01*
X41871194Y-40469134D01*
X41860355Y-40485355D01*
X41844134Y-40496194D01*
X41825000Y-40500000D01*
X41050000Y-40500000D01*
X41030866Y-40496194D01*
X41014645Y-40485355D01*
X41003806Y-40469134D01*
X41000000Y-40450000D01*
X41000000Y-40350000D01*
X41003806Y-40330866D01*
X41014645Y-40314645D01*
X41030866Y-40303806D01*
X41050000Y-40300000D01*
X41825000Y-40300000D01*
X41844134Y-40303806D01*
G37*
G36*
X55432403Y-39661418D02*
G01*
X55481066Y-39693934D01*
X55513582Y-39742597D01*
X55525000Y-39800000D01*
X55525000Y-40100000D01*
X55513582Y-40157403D01*
X55481066Y-40206066D01*
X55432403Y-40238582D01*
X55375000Y-40250000D01*
X54350000Y-40250000D01*
X54292597Y-40238582D01*
X54243934Y-40206066D01*
X54211418Y-40157403D01*
X54200000Y-40100000D01*
X54200000Y-39800000D01*
X54211418Y-39742597D01*
X54243934Y-39693934D01*
X54292597Y-39661418D01*
X54350000Y-39650000D01*
X55375000Y-39650000D01*
X55432403Y-39661418D01*
G37*
G36*
X57707403Y-39661418D02*
G01*
X57756066Y-39693934D01*
X57788582Y-39742597D01*
X57800000Y-39800000D01*
X57800000Y-40100000D01*
X57788582Y-40157403D01*
X57756066Y-40206066D01*
X57707403Y-40238582D01*
X57650000Y-40250000D01*
X56625000Y-40250000D01*
X56567597Y-40238582D01*
X56518934Y-40206066D01*
X56486418Y-40157403D01*
X56475000Y-40100000D01*
X56475000Y-39800000D01*
X56486418Y-39742597D01*
X56518934Y-39693934D01*
X56567597Y-39661418D01*
X56625000Y-39650000D01*
X57650000Y-39650000D01*
X57707403Y-39661418D01*
G37*
G36*
X34969134Y-39903806D02*
G01*
X34985355Y-39914645D01*
X34996194Y-39930866D01*
X35000000Y-39950000D01*
X35000000Y-40050000D01*
X34996194Y-40069134D01*
X34985355Y-40085355D01*
X34969134Y-40096194D01*
X34950000Y-40100000D01*
X34175000Y-40100000D01*
X34155866Y-40096194D01*
X34139645Y-40085355D01*
X34128806Y-40069134D01*
X34125000Y-40050000D01*
X34125000Y-39950000D01*
X34128806Y-39930866D01*
X34139645Y-39914645D01*
X34155866Y-39903806D01*
X34175000Y-39900000D01*
X34950000Y-39900000D01*
X34969134Y-39903806D01*
G37*
G36*
X41844134Y-39903806D02*
G01*
X41860355Y-39914645D01*
X41871194Y-39930866D01*
X41875000Y-39950000D01*
X41875000Y-40050000D01*
X41871194Y-40069134D01*
X41860355Y-40085355D01*
X41844134Y-40096194D01*
X41825000Y-40100000D01*
X41050000Y-40100000D01*
X41030866Y-40096194D01*
X41014645Y-40085355D01*
X41003806Y-40069134D01*
X41000000Y-40050000D01*
X41000000Y-39950000D01*
X41003806Y-39930866D01*
X41014645Y-39914645D01*
X41030866Y-39903806D01*
X41050000Y-39900000D01*
X41825000Y-39900000D01*
X41844134Y-39903806D01*
G37*
G36*
X20407403Y-39346418D02*
G01*
X20456066Y-39378934D01*
X20488582Y-39427597D01*
X20500000Y-39485000D01*
X20500000Y-39785000D01*
X20488582Y-39842403D01*
X20456066Y-39891066D01*
X20407403Y-39923582D01*
X20350000Y-39935000D01*
X18700000Y-39935000D01*
X18642597Y-39923582D01*
X18593934Y-39891066D01*
X18561418Y-39842403D01*
X18550000Y-39785000D01*
X18550000Y-39485000D01*
X18561418Y-39427597D01*
X18593934Y-39378934D01*
X18642597Y-39346418D01*
X18700000Y-39335000D01*
X20350000Y-39335000D01*
X20407403Y-39346418D01*
G37*
G36*
X25357403Y-39346418D02*
G01*
X25406066Y-39378934D01*
X25438582Y-39427597D01*
X25450000Y-39485000D01*
X25450000Y-39785000D01*
X25438582Y-39842403D01*
X25406066Y-39891066D01*
X25357403Y-39923582D01*
X25300000Y-39935000D01*
X23650000Y-39935000D01*
X23592597Y-39923582D01*
X23543934Y-39891066D01*
X23511418Y-39842403D01*
X23500000Y-39785000D01*
X23500000Y-39485000D01*
X23511418Y-39427597D01*
X23543934Y-39378934D01*
X23592597Y-39346418D01*
X23650000Y-39335000D01*
X25300000Y-39335000D01*
X25357403Y-39346418D01*
G37*
G36*
X34969134Y-39503806D02*
G01*
X34985355Y-39514645D01*
X34996194Y-39530866D01*
X35000000Y-39550000D01*
X35000000Y-39650000D01*
X34996194Y-39669134D01*
X34985355Y-39685355D01*
X34969134Y-39696194D01*
X34950000Y-39700000D01*
X34175000Y-39700000D01*
X34155866Y-39696194D01*
X34139645Y-39685355D01*
X34128806Y-39669134D01*
X34125000Y-39650000D01*
X34125000Y-39550000D01*
X34128806Y-39530866D01*
X34139645Y-39514645D01*
X34155866Y-39503806D01*
X34175000Y-39500000D01*
X34950000Y-39500000D01*
X34969134Y-39503806D01*
G37*
G36*
X41844134Y-39503806D02*
G01*
X41860355Y-39514645D01*
X41871194Y-39530866D01*
X41875000Y-39550000D01*
X41875000Y-39650000D01*
X41871194Y-39669134D01*
X41860355Y-39685355D01*
X41844134Y-39696194D01*
X41825000Y-39700000D01*
X41050000Y-39700000D01*
X41030866Y-39696194D01*
X41014645Y-39685355D01*
X41003806Y-39669134D01*
X41000000Y-39650000D01*
X41000000Y-39550000D01*
X41003806Y-39530866D01*
X41014645Y-39514645D01*
X41030866Y-39503806D01*
X41050000Y-39500000D01*
X41825000Y-39500000D01*
X41844134Y-39503806D01*
G37*
G36*
X59536104Y-38542127D02*
G01*
X59609099Y-38590901D01*
X59657873Y-38663896D01*
X59675000Y-38750000D01*
X59675000Y-39250000D01*
X59657873Y-39336104D01*
X59609099Y-39409099D01*
X59536104Y-39457873D01*
X59450000Y-39475000D01*
X59000000Y-39475000D01*
X58913896Y-39457873D01*
X58840901Y-39409099D01*
X58792127Y-39336104D01*
X58775000Y-39250000D01*
X58775000Y-38750000D01*
X58792127Y-38663896D01*
X58840901Y-38590901D01*
X58913896Y-38542127D01*
X59000000Y-38525000D01*
X59450000Y-38525000D01*
X59536104Y-38542127D01*
G37*
G36*
X61086104Y-38542127D02*
G01*
X61159099Y-38590901D01*
X61207873Y-38663896D01*
X61225000Y-38750000D01*
X61225000Y-39250000D01*
X61207873Y-39336104D01*
X61159099Y-39409099D01*
X61086104Y-39457873D01*
X61000000Y-39475000D01*
X60550000Y-39475000D01*
X60463896Y-39457873D01*
X60390901Y-39409099D01*
X60342127Y-39336104D01*
X60325000Y-39250000D01*
X60325000Y-38750000D01*
X60342127Y-38663896D01*
X60390901Y-38590901D01*
X60463896Y-38542127D01*
X60550000Y-38525000D01*
X61000000Y-38525000D01*
X61086104Y-38542127D01*
G37*
G36*
X34969134Y-39103806D02*
G01*
X34985355Y-39114645D01*
X34996194Y-39130866D01*
X35000000Y-39150000D01*
X35000000Y-39250000D01*
X34996194Y-39269134D01*
X34985355Y-39285355D01*
X34969134Y-39296194D01*
X34950000Y-39300000D01*
X34175000Y-39300000D01*
X34155866Y-39296194D01*
X34139645Y-39285355D01*
X34128806Y-39269134D01*
X34125000Y-39250000D01*
X34125000Y-39150000D01*
X34128806Y-39130866D01*
X34139645Y-39114645D01*
X34155866Y-39103806D01*
X34175000Y-39100000D01*
X34950000Y-39100000D01*
X34969134Y-39103806D01*
G37*
G36*
X41844134Y-39103806D02*
G01*
X41860355Y-39114645D01*
X41871194Y-39130866D01*
X41875000Y-39150000D01*
X41875000Y-39250000D01*
X41871194Y-39269134D01*
X41860355Y-39285355D01*
X41844134Y-39296194D01*
X41825000Y-39300000D01*
X41050000Y-39300000D01*
X41030866Y-39296194D01*
X41014645Y-39285355D01*
X41003806Y-39269134D01*
X41000000Y-39250000D01*
X41000000Y-39150000D01*
X41003806Y-39130866D01*
X41014645Y-39114645D01*
X41030866Y-39103806D01*
X41050000Y-39100000D01*
X41825000Y-39100000D01*
X41844134Y-39103806D01*
G37*
G36*
X55432403Y-38711418D02*
G01*
X55481066Y-38743934D01*
X55513582Y-38792597D01*
X55525000Y-38850000D01*
X55525000Y-39150000D01*
X55513582Y-39207403D01*
X55481066Y-39256066D01*
X55432403Y-39288582D01*
X55375000Y-39300000D01*
X54350000Y-39300000D01*
X54292597Y-39288582D01*
X54243934Y-39256066D01*
X54211418Y-39207403D01*
X54200000Y-39150000D01*
X54200000Y-38850000D01*
X54211418Y-38792597D01*
X54243934Y-38743934D01*
X54292597Y-38711418D01*
X54350000Y-38700000D01*
X55375000Y-38700000D01*
X55432403Y-38711418D01*
G37*
G36*
X34969134Y-38703806D02*
G01*
X34985355Y-38714645D01*
X34996194Y-38730866D01*
X35000000Y-38750000D01*
X35000000Y-38850000D01*
X34996194Y-38869134D01*
X34985355Y-38885355D01*
X34969134Y-38896194D01*
X34950000Y-38900000D01*
X34175000Y-38900000D01*
X34155866Y-38896194D01*
X34139645Y-38885355D01*
X34128806Y-38869134D01*
X34125000Y-38850000D01*
X34125000Y-38750000D01*
X34128806Y-38730866D01*
X34139645Y-38714645D01*
X34155866Y-38703806D01*
X34175000Y-38700000D01*
X34950000Y-38700000D01*
X34969134Y-38703806D01*
G37*
G36*
X41844134Y-38703806D02*
G01*
X41860355Y-38714645D01*
X41871194Y-38730866D01*
X41875000Y-38750000D01*
X41875000Y-38850000D01*
X41871194Y-38869134D01*
X41860355Y-38885355D01*
X41844134Y-38896194D01*
X41825000Y-38900000D01*
X41050000Y-38900000D01*
X41030866Y-38896194D01*
X41014645Y-38885355D01*
X41003806Y-38869134D01*
X41000000Y-38850000D01*
X41000000Y-38750000D01*
X41003806Y-38730866D01*
X41014645Y-38714645D01*
X41030866Y-38703806D01*
X41050000Y-38700000D01*
X41825000Y-38700000D01*
X41844134Y-38703806D01*
G37*
G36*
X20407403Y-38076418D02*
G01*
X20456066Y-38108934D01*
X20488582Y-38157597D01*
X20500000Y-38215000D01*
X20500000Y-38515000D01*
X20488582Y-38572403D01*
X20456066Y-38621066D01*
X20407403Y-38653582D01*
X20350000Y-38665000D01*
X18700000Y-38665000D01*
X18642597Y-38653582D01*
X18593934Y-38621066D01*
X18561418Y-38572403D01*
X18550000Y-38515000D01*
X18550000Y-38215000D01*
X18561418Y-38157597D01*
X18593934Y-38108934D01*
X18642597Y-38076418D01*
X18700000Y-38065000D01*
X20350000Y-38065000D01*
X20407403Y-38076418D01*
G37*
G36*
X25357403Y-38076418D02*
G01*
X25406066Y-38108934D01*
X25438582Y-38157597D01*
X25450000Y-38215000D01*
X25450000Y-38515000D01*
X25438582Y-38572403D01*
X25406066Y-38621066D01*
X25357403Y-38653582D01*
X25300000Y-38665000D01*
X23650000Y-38665000D01*
X23592597Y-38653582D01*
X23543934Y-38621066D01*
X23511418Y-38572403D01*
X23500000Y-38515000D01*
X23500000Y-38215000D01*
X23511418Y-38157597D01*
X23543934Y-38108934D01*
X23592597Y-38076418D01*
X23650000Y-38065000D01*
X25300000Y-38065000D01*
X25357403Y-38076418D01*
G37*
G36*
X34969134Y-38303806D02*
G01*
X34985355Y-38314645D01*
X34996194Y-38330866D01*
X35000000Y-38350000D01*
X35000000Y-38450000D01*
X34996194Y-38469134D01*
X34985355Y-38485355D01*
X34969134Y-38496194D01*
X34950000Y-38500000D01*
X34175000Y-38500000D01*
X34155866Y-38496194D01*
X34139645Y-38485355D01*
X34128806Y-38469134D01*
X34125000Y-38450000D01*
X34125000Y-38350000D01*
X34128806Y-38330866D01*
X34139645Y-38314645D01*
X34155866Y-38303806D01*
X34175000Y-38300000D01*
X34950000Y-38300000D01*
X34969134Y-38303806D01*
G37*
G36*
X41844134Y-38303806D02*
G01*
X41860355Y-38314645D01*
X41871194Y-38330866D01*
X41875000Y-38350000D01*
X41875000Y-38450000D01*
X41871194Y-38469134D01*
X41860355Y-38485355D01*
X41844134Y-38496194D01*
X41825000Y-38500000D01*
X41050000Y-38500000D01*
X41030866Y-38496194D01*
X41014645Y-38485355D01*
X41003806Y-38469134D01*
X41000000Y-38450000D01*
X41000000Y-38350000D01*
X41003806Y-38330866D01*
X41014645Y-38314645D01*
X41030866Y-38303806D01*
X41050000Y-38300000D01*
X41825000Y-38300000D01*
X41844134Y-38303806D01*
G37*
G36*
X55432403Y-37761418D02*
G01*
X55481066Y-37793934D01*
X55513582Y-37842597D01*
X55525000Y-37900000D01*
X55525000Y-38200000D01*
X55513582Y-38257403D01*
X55481066Y-38306066D01*
X55432403Y-38338582D01*
X55375000Y-38350000D01*
X54350000Y-38350000D01*
X54292597Y-38338582D01*
X54243934Y-38306066D01*
X54211418Y-38257403D01*
X54200000Y-38200000D01*
X54200000Y-37900000D01*
X54211418Y-37842597D01*
X54243934Y-37793934D01*
X54292597Y-37761418D01*
X54350000Y-37750000D01*
X55375000Y-37750000D01*
X55432403Y-37761418D01*
G37*
G36*
X57707403Y-37761418D02*
G01*
X57756066Y-37793934D01*
X57788582Y-37842597D01*
X57800000Y-37900000D01*
X57800000Y-38200000D01*
X57788582Y-38257403D01*
X57756066Y-38306066D01*
X57707403Y-38338582D01*
X57650000Y-38350000D01*
X56625000Y-38350000D01*
X56567597Y-38338582D01*
X56518934Y-38306066D01*
X56486418Y-38257403D01*
X56475000Y-38200000D01*
X56475000Y-37900000D01*
X56486418Y-37842597D01*
X56518934Y-37793934D01*
X56567597Y-37761418D01*
X56625000Y-37750000D01*
X57650000Y-37750000D01*
X57707403Y-37761418D01*
G37*
G36*
X34969134Y-37903806D02*
G01*
X34985355Y-37914645D01*
X34996194Y-37930866D01*
X35000000Y-37950000D01*
X35000000Y-38050000D01*
X34996194Y-38069134D01*
X34985355Y-38085355D01*
X34969134Y-38096194D01*
X34950000Y-38100000D01*
X34175000Y-38100000D01*
X34155866Y-38096194D01*
X34139645Y-38085355D01*
X34128806Y-38069134D01*
X34125000Y-38050000D01*
X34125000Y-37950000D01*
X34128806Y-37930866D01*
X34139645Y-37914645D01*
X34155866Y-37903806D01*
X34175000Y-37900000D01*
X34950000Y-37900000D01*
X34969134Y-37903806D01*
G37*
G36*
X41844134Y-37903806D02*
G01*
X41860355Y-37914645D01*
X41871194Y-37930866D01*
X41875000Y-37950000D01*
X41875000Y-38050000D01*
X41871194Y-38069134D01*
X41860355Y-38085355D01*
X41844134Y-38096194D01*
X41825000Y-38100000D01*
X41050000Y-38100000D01*
X41030866Y-38096194D01*
X41014645Y-38085355D01*
X41003806Y-38069134D01*
X41000000Y-38050000D01*
X41000000Y-37950000D01*
X41003806Y-37930866D01*
X41014645Y-37914645D01*
X41030866Y-37903806D01*
X41050000Y-37900000D01*
X41825000Y-37900000D01*
X41844134Y-37903806D01*
G37*
G36*
X34969134Y-37503806D02*
G01*
X34985355Y-37514645D01*
X34996194Y-37530866D01*
X35000000Y-37550000D01*
X35000000Y-37650000D01*
X34996194Y-37669134D01*
X34985355Y-37685355D01*
X34969134Y-37696194D01*
X34950000Y-37700000D01*
X34175000Y-37700000D01*
X34155866Y-37696194D01*
X34139645Y-37685355D01*
X34128806Y-37669134D01*
X34125000Y-37650000D01*
X34125000Y-37550000D01*
X34128806Y-37530866D01*
X34139645Y-37514645D01*
X34155866Y-37503806D01*
X34175000Y-37500000D01*
X34950000Y-37500000D01*
X34969134Y-37503806D01*
G37*
G36*
X41844134Y-37503806D02*
G01*
X41860355Y-37514645D01*
X41871194Y-37530866D01*
X41875000Y-37550000D01*
X41875000Y-37650000D01*
X41871194Y-37669134D01*
X41860355Y-37685355D01*
X41844134Y-37696194D01*
X41825000Y-37700000D01*
X41050000Y-37700000D01*
X41030866Y-37696194D01*
X41014645Y-37685355D01*
X41003806Y-37669134D01*
X41000000Y-37650000D01*
X41000000Y-37550000D01*
X41003806Y-37530866D01*
X41014645Y-37514645D01*
X41030866Y-37503806D01*
X41050000Y-37500000D01*
X41825000Y-37500000D01*
X41844134Y-37503806D01*
G37*
G36*
X4191342Y-36538060D02*
G01*
X4304381Y-36603323D01*
X4396677Y-36695619D01*
X4461940Y-36808658D01*
X4495722Y-36934737D01*
X4495722Y-37065263D01*
X4461940Y-37191342D01*
X4396677Y-37304381D01*
X4304381Y-37396677D01*
X4191342Y-37461940D01*
X4065263Y-37495722D01*
X3934737Y-37495722D01*
X3808658Y-37461940D01*
X3695619Y-37396677D01*
X3603323Y-37304381D01*
X3538060Y-37191342D01*
X3504278Y-37065263D01*
X3504278Y-36934737D01*
X3538060Y-36808658D01*
X3603323Y-36695619D01*
X3695619Y-36603323D01*
X3808658Y-36538060D01*
X3934737Y-36504278D01*
X4065263Y-36504278D01*
X4191342Y-36538060D01*
G37*
G36*
X20407403Y-36806418D02*
G01*
X20456066Y-36838934D01*
X20488582Y-36887597D01*
X20500000Y-36945000D01*
X20500000Y-37245000D01*
X20488582Y-37302403D01*
X20456066Y-37351066D01*
X20407403Y-37383582D01*
X20350000Y-37395000D01*
X18700000Y-37395000D01*
X18642597Y-37383582D01*
X18593934Y-37351066D01*
X18561418Y-37302403D01*
X18550000Y-37245000D01*
X18550000Y-36945000D01*
X18561418Y-36887597D01*
X18593934Y-36838934D01*
X18642597Y-36806418D01*
X18700000Y-36795000D01*
X20350000Y-36795000D01*
X20407403Y-36806418D01*
G37*
G36*
X25357403Y-36806418D02*
G01*
X25406066Y-36838934D01*
X25438582Y-36887597D01*
X25450000Y-36945000D01*
X25450000Y-37245000D01*
X25438582Y-37302403D01*
X25406066Y-37351066D01*
X25357403Y-37383582D01*
X25300000Y-37395000D01*
X23650000Y-37395000D01*
X23592597Y-37383582D01*
X23543934Y-37351066D01*
X23511418Y-37302403D01*
X23500000Y-37245000D01*
X23500000Y-36945000D01*
X23511418Y-36887597D01*
X23543934Y-36838934D01*
X23592597Y-36806418D01*
X23650000Y-36795000D01*
X25300000Y-36795000D01*
X25357403Y-36806418D01*
G37*
G36*
X34969134Y-37103806D02*
G01*
X34985355Y-37114645D01*
X34996194Y-37130866D01*
X35000000Y-37150000D01*
X35000000Y-37250000D01*
X34996194Y-37269134D01*
X34985355Y-37285355D01*
X34969134Y-37296194D01*
X34950000Y-37300000D01*
X34175000Y-37300000D01*
X34155866Y-37296194D01*
X34139645Y-37285355D01*
X34128806Y-37269134D01*
X34125000Y-37250000D01*
X34125000Y-37150000D01*
X34128806Y-37130866D01*
X34139645Y-37114645D01*
X34155866Y-37103806D01*
X34175000Y-37100000D01*
X34950000Y-37100000D01*
X34969134Y-37103806D01*
G37*
G36*
X41844134Y-37103806D02*
G01*
X41860355Y-37114645D01*
X41871194Y-37130866D01*
X41875000Y-37150000D01*
X41875000Y-37250000D01*
X41871194Y-37269134D01*
X41860355Y-37285355D01*
X41844134Y-37296194D01*
X41825000Y-37300000D01*
X41050000Y-37300000D01*
X41030866Y-37296194D01*
X41014645Y-37285355D01*
X41003806Y-37269134D01*
X41000000Y-37250000D01*
X41000000Y-37150000D01*
X41003806Y-37130866D01*
X41014645Y-37114645D01*
X41030866Y-37103806D01*
X41050000Y-37100000D01*
X41825000Y-37100000D01*
X41844134Y-37103806D01*
G37*
G36*
X34969134Y-36703806D02*
G01*
X34985355Y-36714645D01*
X34996194Y-36730866D01*
X35000000Y-36750000D01*
X35000000Y-36850000D01*
X34996194Y-36869134D01*
X34985355Y-36885355D01*
X34969134Y-36896194D01*
X34950000Y-36900000D01*
X34175000Y-36900000D01*
X34155866Y-36896194D01*
X34139645Y-36885355D01*
X34128806Y-36869134D01*
X34125000Y-36850000D01*
X34125000Y-36750000D01*
X34128806Y-36730866D01*
X34139645Y-36714645D01*
X34155866Y-36703806D01*
X34175000Y-36700000D01*
X34950000Y-36700000D01*
X34969134Y-36703806D01*
G37*
G36*
X41844134Y-36703806D02*
G01*
X41860355Y-36714645D01*
X41871194Y-36730866D01*
X41875000Y-36750000D01*
X41875000Y-36850000D01*
X41871194Y-36869134D01*
X41860355Y-36885355D01*
X41844134Y-36896194D01*
X41825000Y-36900000D01*
X41050000Y-36900000D01*
X41030866Y-36896194D01*
X41014645Y-36885355D01*
X41003806Y-36869134D01*
X41000000Y-36850000D01*
X41000000Y-36750000D01*
X41003806Y-36730866D01*
X41014645Y-36714645D01*
X41030866Y-36703806D01*
X41050000Y-36700000D01*
X41825000Y-36700000D01*
X41844134Y-36703806D01*
G37*
G36*
X34969134Y-36303806D02*
G01*
X34985355Y-36314645D01*
X34996194Y-36330866D01*
X35000000Y-36350000D01*
X35000000Y-36450000D01*
X34996194Y-36469134D01*
X34985355Y-36485355D01*
X34969134Y-36496194D01*
X34950000Y-36500000D01*
X34175000Y-36500000D01*
X34155866Y-36496194D01*
X34139645Y-36485355D01*
X34128806Y-36469134D01*
X34125000Y-36450000D01*
X34125000Y-36350000D01*
X34128806Y-36330866D01*
X34139645Y-36314645D01*
X34155866Y-36303806D01*
X34175000Y-36300000D01*
X34950000Y-36300000D01*
X34969134Y-36303806D01*
G37*
G36*
X41844134Y-36303806D02*
G01*
X41860355Y-36314645D01*
X41871194Y-36330866D01*
X41875000Y-36350000D01*
X41875000Y-36450000D01*
X41871194Y-36469134D01*
X41860355Y-36485355D01*
X41844134Y-36496194D01*
X41825000Y-36500000D01*
X41050000Y-36500000D01*
X41030866Y-36496194D01*
X41014645Y-36485355D01*
X41003806Y-36469134D01*
X41000000Y-36450000D01*
X41000000Y-36350000D01*
X41003806Y-36330866D01*
X41014645Y-36314645D01*
X41030866Y-36303806D01*
X41050000Y-36300000D01*
X41825000Y-36300000D01*
X41844134Y-36303806D01*
G37*
G36*
X31536104Y-35542127D02*
G01*
X31609099Y-35590901D01*
X31657873Y-35663896D01*
X31675000Y-35750000D01*
X31675000Y-36250000D01*
X31657873Y-36336104D01*
X31609099Y-36409099D01*
X31536104Y-36457873D01*
X31450000Y-36475000D01*
X31000000Y-36475000D01*
X30913896Y-36457873D01*
X30840901Y-36409099D01*
X30792127Y-36336104D01*
X30775000Y-36250000D01*
X30775000Y-35750000D01*
X30792127Y-35663896D01*
X30840901Y-35590901D01*
X30913896Y-35542127D01*
X31000000Y-35525000D01*
X31450000Y-35525000D01*
X31536104Y-35542127D01*
G37*
G36*
X33086104Y-35542127D02*
G01*
X33159099Y-35590901D01*
X33207873Y-35663896D01*
X33225000Y-35750000D01*
X33225000Y-36250000D01*
X33207873Y-36336104D01*
X33159099Y-36409099D01*
X33086104Y-36457873D01*
X33000000Y-36475000D01*
X32550000Y-36475000D01*
X32463896Y-36457873D01*
X32390901Y-36409099D01*
X32342127Y-36336104D01*
X32325000Y-36250000D01*
X32325000Y-35750000D01*
X32342127Y-35663896D01*
X32390901Y-35590901D01*
X32463896Y-35542127D01*
X32550000Y-35525000D01*
X33000000Y-35525000D01*
X33086104Y-35542127D01*
G37*
G36*
X43536104Y-35542127D02*
G01*
X43609099Y-35590901D01*
X43657873Y-35663896D01*
X43675000Y-35750000D01*
X43675000Y-36250000D01*
X43657873Y-36336104D01*
X43609099Y-36409099D01*
X43536104Y-36457873D01*
X43450000Y-36475000D01*
X43000000Y-36475000D01*
X42913896Y-36457873D01*
X42840901Y-36409099D01*
X42792127Y-36336104D01*
X42775000Y-36250000D01*
X42775000Y-35750000D01*
X42792127Y-35663896D01*
X42840901Y-35590901D01*
X42913896Y-35542127D01*
X43000000Y-35525000D01*
X43450000Y-35525000D01*
X43536104Y-35542127D01*
G37*
G36*
X45086104Y-35542127D02*
G01*
X45159099Y-35590901D01*
X45207873Y-35663896D01*
X45225000Y-35750000D01*
X45225000Y-36250000D01*
X45207873Y-36336104D01*
X45159099Y-36409099D01*
X45086104Y-36457873D01*
X45000000Y-36475000D01*
X44550000Y-36475000D01*
X44463896Y-36457873D01*
X44390901Y-36409099D01*
X44342127Y-36336104D01*
X44325000Y-36250000D01*
X44325000Y-35750000D01*
X44342127Y-35663896D01*
X44390901Y-35590901D01*
X44463896Y-35542127D01*
X44550000Y-35525000D01*
X45000000Y-35525000D01*
X45086104Y-35542127D01*
G37*
G36*
X35469134Y-35128806D02*
G01*
X35485355Y-35139645D01*
X35496194Y-35155866D01*
X35500000Y-35175000D01*
X35500000Y-35950000D01*
X35496194Y-35969134D01*
X35485355Y-35985355D01*
X35469134Y-35996194D01*
X35450000Y-36000000D01*
X35350000Y-36000000D01*
X35330866Y-35996194D01*
X35314645Y-35985355D01*
X35303806Y-35969134D01*
X35300000Y-35950000D01*
X35300000Y-35175000D01*
X35303806Y-35155866D01*
X35314645Y-35139645D01*
X35330866Y-35128806D01*
X35350000Y-35125000D01*
X35450000Y-35125000D01*
X35469134Y-35128806D01*
G37*
G36*
X35869134Y-35128806D02*
G01*
X35885355Y-35139645D01*
X35896194Y-35155866D01*
X35900000Y-35175000D01*
X35900000Y-35950000D01*
X35896194Y-35969134D01*
X35885355Y-35985355D01*
X35869134Y-35996194D01*
X35850000Y-36000000D01*
X35750000Y-36000000D01*
X35730866Y-35996194D01*
X35714645Y-35985355D01*
X35703806Y-35969134D01*
X35700000Y-35950000D01*
X35700000Y-35175000D01*
X35703806Y-35155866D01*
X35714645Y-35139645D01*
X35730866Y-35128806D01*
X35750000Y-35125000D01*
X35850000Y-35125000D01*
X35869134Y-35128806D01*
G37*
G36*
X36269134Y-35128806D02*
G01*
X36285355Y-35139645D01*
X36296194Y-35155866D01*
X36300000Y-35175000D01*
X36300000Y-35950000D01*
X36296194Y-35969134D01*
X36285355Y-35985355D01*
X36269134Y-35996194D01*
X36250000Y-36000000D01*
X36150000Y-36000000D01*
X36130866Y-35996194D01*
X36114645Y-35985355D01*
X36103806Y-35969134D01*
X36100000Y-35950000D01*
X36100000Y-35175000D01*
X36103806Y-35155866D01*
X36114645Y-35139645D01*
X36130866Y-35128806D01*
X36150000Y-35125000D01*
X36250000Y-35125000D01*
X36269134Y-35128806D01*
G37*
G36*
X36669134Y-35128806D02*
G01*
X36685355Y-35139645D01*
X36696194Y-35155866D01*
X36700000Y-35175000D01*
X36700000Y-35950000D01*
X36696194Y-35969134D01*
X36685355Y-35985355D01*
X36669134Y-35996194D01*
X36650000Y-36000000D01*
X36550000Y-36000000D01*
X36530866Y-35996194D01*
X36514645Y-35985355D01*
X36503806Y-35969134D01*
X36500000Y-35950000D01*
X36500000Y-35175000D01*
X36503806Y-35155866D01*
X36514645Y-35139645D01*
X36530866Y-35128806D01*
X36550000Y-35125000D01*
X36650000Y-35125000D01*
X36669134Y-35128806D01*
G37*
G36*
X37069134Y-35128806D02*
G01*
X37085355Y-35139645D01*
X37096194Y-35155866D01*
X37100000Y-35175000D01*
X37100000Y-35950000D01*
X37096194Y-35969134D01*
X37085355Y-35985355D01*
X37069134Y-35996194D01*
X37050000Y-36000000D01*
X36950000Y-36000000D01*
X36930866Y-35996194D01*
X36914645Y-35985355D01*
X36903806Y-35969134D01*
X36900000Y-35950000D01*
X36900000Y-35175000D01*
X36903806Y-35155866D01*
X36914645Y-35139645D01*
X36930866Y-35128806D01*
X36950000Y-35125000D01*
X37050000Y-35125000D01*
X37069134Y-35128806D01*
G37*
G36*
X37469134Y-35128806D02*
G01*
X37485355Y-35139645D01*
X37496194Y-35155866D01*
X37500000Y-35175000D01*
X37500000Y-35950000D01*
X37496194Y-35969134D01*
X37485355Y-35985355D01*
X37469134Y-35996194D01*
X37450000Y-36000000D01*
X37350000Y-36000000D01*
X37330866Y-35996194D01*
X37314645Y-35985355D01*
X37303806Y-35969134D01*
X37300000Y-35950000D01*
X37300000Y-35175000D01*
X37303806Y-35155866D01*
X37314645Y-35139645D01*
X37330866Y-35128806D01*
X37350000Y-35125000D01*
X37450000Y-35125000D01*
X37469134Y-35128806D01*
G37*
G36*
X37869134Y-35128806D02*
G01*
X37885355Y-35139645D01*
X37896194Y-35155866D01*
X37900000Y-35175000D01*
X37900000Y-35950000D01*
X37896194Y-35969134D01*
X37885355Y-35985355D01*
X37869134Y-35996194D01*
X37850000Y-36000000D01*
X37750000Y-36000000D01*
X37730866Y-35996194D01*
X37714645Y-35985355D01*
X37703806Y-35969134D01*
X37700000Y-35950000D01*
X37700000Y-35175000D01*
X37703806Y-35155866D01*
X37714645Y-35139645D01*
X37730866Y-35128806D01*
X37750000Y-35125000D01*
X37850000Y-35125000D01*
X37869134Y-35128806D01*
G37*
G36*
X38269134Y-35128806D02*
G01*
X38285355Y-35139645D01*
X38296194Y-35155866D01*
X38300000Y-35175000D01*
X38300000Y-35950000D01*
X38296194Y-35969134D01*
X38285355Y-35985355D01*
X38269134Y-35996194D01*
X38250000Y-36000000D01*
X38150000Y-36000000D01*
X38130866Y-35996194D01*
X38114645Y-35985355D01*
X38103806Y-35969134D01*
X38100000Y-35950000D01*
X38100000Y-35175000D01*
X38103806Y-35155866D01*
X38114645Y-35139645D01*
X38130866Y-35128806D01*
X38150000Y-35125000D01*
X38250000Y-35125000D01*
X38269134Y-35128806D01*
G37*
G36*
X38669134Y-35128806D02*
G01*
X38685355Y-35139645D01*
X38696194Y-35155866D01*
X38700000Y-35175000D01*
X38700000Y-35950000D01*
X38696194Y-35969134D01*
X38685355Y-35985355D01*
X38669134Y-35996194D01*
X38650000Y-36000000D01*
X38550000Y-36000000D01*
X38530866Y-35996194D01*
X38514645Y-35985355D01*
X38503806Y-35969134D01*
X38500000Y-35950000D01*
X38500000Y-35175000D01*
X38503806Y-35155866D01*
X38514645Y-35139645D01*
X38530866Y-35128806D01*
X38550000Y-35125000D01*
X38650000Y-35125000D01*
X38669134Y-35128806D01*
G37*
G36*
X39069134Y-35128806D02*
G01*
X39085355Y-35139645D01*
X39096194Y-35155866D01*
X39100000Y-35175000D01*
X39100000Y-35950000D01*
X39096194Y-35969134D01*
X39085355Y-35985355D01*
X39069134Y-35996194D01*
X39050000Y-36000000D01*
X38950000Y-36000000D01*
X38930866Y-35996194D01*
X38914645Y-35985355D01*
X38903806Y-35969134D01*
X38900000Y-35950000D01*
X38900000Y-35175000D01*
X38903806Y-35155866D01*
X38914645Y-35139645D01*
X38930866Y-35128806D01*
X38950000Y-35125000D01*
X39050000Y-35125000D01*
X39069134Y-35128806D01*
G37*
G36*
X39469134Y-35128806D02*
G01*
X39485355Y-35139645D01*
X39496194Y-35155866D01*
X39500000Y-35175000D01*
X39500000Y-35950000D01*
X39496194Y-35969134D01*
X39485355Y-35985355D01*
X39469134Y-35996194D01*
X39450000Y-36000000D01*
X39350000Y-36000000D01*
X39330866Y-35996194D01*
X39314645Y-35985355D01*
X39303806Y-35969134D01*
X39300000Y-35950000D01*
X39300000Y-35175000D01*
X39303806Y-35155866D01*
X39314645Y-35139645D01*
X39330866Y-35128806D01*
X39350000Y-35125000D01*
X39450000Y-35125000D01*
X39469134Y-35128806D01*
G37*
G36*
X39869134Y-35128806D02*
G01*
X39885355Y-35139645D01*
X39896194Y-35155866D01*
X39900000Y-35175000D01*
X39900000Y-35950000D01*
X39896194Y-35969134D01*
X39885355Y-35985355D01*
X39869134Y-35996194D01*
X39850000Y-36000000D01*
X39750000Y-36000000D01*
X39730866Y-35996194D01*
X39714645Y-35985355D01*
X39703806Y-35969134D01*
X39700000Y-35950000D01*
X39700000Y-35175000D01*
X39703806Y-35155866D01*
X39714645Y-35139645D01*
X39730866Y-35128806D01*
X39750000Y-35125000D01*
X39850000Y-35125000D01*
X39869134Y-35128806D01*
G37*
G36*
X40269134Y-35128806D02*
G01*
X40285355Y-35139645D01*
X40296194Y-35155866D01*
X40300000Y-35175000D01*
X40300000Y-35950000D01*
X40296194Y-35969134D01*
X40285355Y-35985355D01*
X40269134Y-35996194D01*
X40250000Y-36000000D01*
X40150000Y-36000000D01*
X40130866Y-35996194D01*
X40114645Y-35985355D01*
X40103806Y-35969134D01*
X40100000Y-35950000D01*
X40100000Y-35175000D01*
X40103806Y-35155866D01*
X40114645Y-35139645D01*
X40130866Y-35128806D01*
X40150000Y-35125000D01*
X40250000Y-35125000D01*
X40269134Y-35128806D01*
G37*
G36*
X40669134Y-35128806D02*
G01*
X40685355Y-35139645D01*
X40696194Y-35155866D01*
X40700000Y-35175000D01*
X40700000Y-35950000D01*
X40696194Y-35969134D01*
X40685355Y-35985355D01*
X40669134Y-35996194D01*
X40650000Y-36000000D01*
X40550000Y-36000000D01*
X40530866Y-35996194D01*
X40514645Y-35985355D01*
X40503806Y-35969134D01*
X40500000Y-35950000D01*
X40500000Y-35175000D01*
X40503806Y-35155866D01*
X40514645Y-35139645D01*
X40530866Y-35128806D01*
X40550000Y-35125000D01*
X40650000Y-35125000D01*
X40669134Y-35128806D01*
G37*
G36*
X61536104Y-34542127D02*
G01*
X61609099Y-34590901D01*
X61657873Y-34663896D01*
X61675000Y-34750000D01*
X61675000Y-35250000D01*
X61657873Y-35336104D01*
X61609099Y-35409099D01*
X61536104Y-35457873D01*
X61450000Y-35475000D01*
X61000000Y-35475000D01*
X60913896Y-35457873D01*
X60840901Y-35409099D01*
X60792127Y-35336104D01*
X60775000Y-35250000D01*
X60775000Y-34750000D01*
X60792127Y-34663896D01*
X60840901Y-34590901D01*
X60913896Y-34542127D01*
X61000000Y-34525000D01*
X61450000Y-34525000D01*
X61536104Y-34542127D01*
G37*
G36*
X63086104Y-34542127D02*
G01*
X63159099Y-34590901D01*
X63207873Y-34663896D01*
X63225000Y-34750000D01*
X63225000Y-35250000D01*
X63207873Y-35336104D01*
X63159099Y-35409099D01*
X63086104Y-35457873D01*
X63000000Y-35475000D01*
X62550000Y-35475000D01*
X62463896Y-35457873D01*
X62390901Y-35409099D01*
X62342127Y-35336104D01*
X62325000Y-35250000D01*
X62325000Y-34750000D01*
X62342127Y-34663896D01*
X62390901Y-34590901D01*
X62463896Y-34542127D01*
X62550000Y-34525000D01*
X63000000Y-34525000D01*
X63086104Y-34542127D01*
G37*
G36*
X19536104Y-33542127D02*
G01*
X19609099Y-33590901D01*
X19657873Y-33663896D01*
X19675000Y-33750000D01*
X19675000Y-34250000D01*
X19657873Y-34336104D01*
X19609099Y-34409099D01*
X19536104Y-34457873D01*
X19450000Y-34475000D01*
X19000000Y-34475000D01*
X18913896Y-34457873D01*
X18840901Y-34409099D01*
X18792127Y-34336104D01*
X18775000Y-34250000D01*
X18775000Y-33750000D01*
X18792127Y-33663896D01*
X18840901Y-33590901D01*
X18913896Y-33542127D01*
X19000000Y-33525000D01*
X19450000Y-33525000D01*
X19536104Y-33542127D01*
G37*
G36*
X21086104Y-33542127D02*
G01*
X21159099Y-33590901D01*
X21207873Y-33663896D01*
X21225000Y-33750000D01*
X21225000Y-34250000D01*
X21207873Y-34336104D01*
X21159099Y-34409099D01*
X21086104Y-34457873D01*
X21000000Y-34475000D01*
X20550000Y-34475000D01*
X20463896Y-34457873D01*
X20390901Y-34409099D01*
X20342127Y-34336104D01*
X20325000Y-34250000D01*
X20325000Y-33750000D01*
X20342127Y-33663896D01*
X20390901Y-33590901D01*
X20463896Y-33542127D01*
X20550000Y-33525000D01*
X21000000Y-33525000D01*
X21086104Y-33542127D01*
G37*
G36*
X55536104Y-33542127D02*
G01*
X55609099Y-33590901D01*
X55657873Y-33663896D01*
X55675000Y-33750000D01*
X55675000Y-34250000D01*
X55657873Y-34336104D01*
X55609099Y-34409099D01*
X55536104Y-34457873D01*
X55450000Y-34475000D01*
X55000000Y-34475000D01*
X54913896Y-34457873D01*
X54840901Y-34409099D01*
X54792127Y-34336104D01*
X54775000Y-34250000D01*
X54775000Y-33750000D01*
X54792127Y-33663896D01*
X54840901Y-33590901D01*
X54913896Y-33542127D01*
X55000000Y-33525000D01*
X55450000Y-33525000D01*
X55536104Y-33542127D01*
G37*
G36*
X57086104Y-33542127D02*
G01*
X57159099Y-33590901D01*
X57207873Y-33663896D01*
X57225000Y-33750000D01*
X57225000Y-34250000D01*
X57207873Y-34336104D01*
X57159099Y-34409099D01*
X57086104Y-34457873D01*
X57000000Y-34475000D01*
X56550000Y-34475000D01*
X56463896Y-34457873D01*
X56390901Y-34409099D01*
X56342127Y-34336104D01*
X56325000Y-34250000D01*
X56325000Y-33750000D01*
X56342127Y-33663896D01*
X56390901Y-33590901D01*
X56463896Y-33542127D01*
X56550000Y-33525000D01*
X57000000Y-33525000D01*
X57086104Y-33542127D01*
G37*
G36*
X4191342Y-32538060D02*
G01*
X4304381Y-32603323D01*
X4396677Y-32695619D01*
X4461940Y-32808658D01*
X4495722Y-32934737D01*
X4495722Y-33065263D01*
X4461940Y-33191342D01*
X4396677Y-33304381D01*
X4304381Y-33396677D01*
X4191342Y-33461940D01*
X4065263Y-33495722D01*
X3934737Y-33495722D01*
X3808658Y-33461940D01*
X3695619Y-33396677D01*
X3603323Y-33304381D01*
X3538060Y-33191342D01*
X3504278Y-33065263D01*
X3504278Y-32934737D01*
X3538060Y-32808658D01*
X3603323Y-32695619D01*
X3695619Y-32603323D01*
X3808658Y-32538060D01*
X3934737Y-32504278D01*
X4065263Y-32504278D01*
X4191342Y-32538060D01*
G37*
G36*
X23445671Y-32269030D02*
G01*
X23526777Y-32323223D01*
X23580970Y-32404329D01*
X23600000Y-32500000D01*
X23600000Y-33200000D01*
X23580970Y-33295671D01*
X23526777Y-33376777D01*
X23445671Y-33430970D01*
X23350000Y-33450000D01*
X22450000Y-33450000D01*
X22354329Y-33430970D01*
X22273223Y-33376777D01*
X22219030Y-33295671D01*
X22200000Y-33200000D01*
X22200000Y-32500000D01*
X22219030Y-32404329D01*
X22273223Y-32323223D01*
X22354329Y-32269030D01*
X22450000Y-32250000D01*
X23350000Y-32250000D01*
X23445671Y-32269030D01*
G37*
G36*
X25645671Y-32269030D02*
G01*
X25726777Y-32323223D01*
X25780970Y-32404329D01*
X25800000Y-32500000D01*
X25800000Y-33200000D01*
X25780970Y-33295671D01*
X25726777Y-33376777D01*
X25645671Y-33430970D01*
X25550000Y-33450000D01*
X24650000Y-33450000D01*
X24554329Y-33430970D01*
X24473223Y-33376777D01*
X24419030Y-33295671D01*
X24400000Y-33200000D01*
X24400000Y-32500000D01*
X24419030Y-32404329D01*
X24473223Y-32323223D01*
X24554329Y-32269030D01*
X24650000Y-32250000D01*
X25550000Y-32250000D01*
X25645671Y-32269030D01*
G37*
G36*
X29451537Y-31540224D02*
G01*
X29516421Y-31583579D01*
X29559776Y-31648463D01*
X29575000Y-31725000D01*
X29575000Y-32275000D01*
X29559776Y-32351537D01*
X29516421Y-32416421D01*
X29451537Y-32459776D01*
X29375000Y-32475000D01*
X28975000Y-32475000D01*
X28898463Y-32459776D01*
X28833579Y-32416421D01*
X28790224Y-32351537D01*
X28775000Y-32275000D01*
X28775000Y-31725000D01*
X28790224Y-31648463D01*
X28833579Y-31583579D01*
X28898463Y-31540224D01*
X28975000Y-31525000D01*
X29375000Y-31525000D01*
X29451537Y-31540224D01*
G37*
G36*
X31101537Y-31540224D02*
G01*
X31166421Y-31583579D01*
X31209776Y-31648463D01*
X31225000Y-31725000D01*
X31225000Y-32275000D01*
X31209776Y-32351537D01*
X31166421Y-32416421D01*
X31101537Y-32459776D01*
X31025000Y-32475000D01*
X30625000Y-32475000D01*
X30548463Y-32459776D01*
X30483579Y-32416421D01*
X30440224Y-32351537D01*
X30425000Y-32275000D01*
X30425000Y-31725000D01*
X30440224Y-31648463D01*
X30483579Y-31583579D01*
X30548463Y-31540224D01*
X30625000Y-31525000D01*
X31025000Y-31525000D01*
X31101537Y-31540224D01*
G37*
G36*
X23445671Y-30569030D02*
G01*
X23526777Y-30623223D01*
X23580970Y-30704329D01*
X23600000Y-30800000D01*
X23600000Y-31500000D01*
X23580970Y-31595671D01*
X23526777Y-31676777D01*
X23445671Y-31730970D01*
X23350000Y-31750000D01*
X22450000Y-31750000D01*
X22354329Y-31730970D01*
X22273223Y-31676777D01*
X22219030Y-31595671D01*
X22200000Y-31500000D01*
X22200000Y-30800000D01*
X22219030Y-30704329D01*
X22273223Y-30623223D01*
X22354329Y-30569030D01*
X22450000Y-30550000D01*
X23350000Y-30550000D01*
X23445671Y-30569030D01*
G37*
G36*
X25645671Y-30569030D02*
G01*
X25726777Y-30623223D01*
X25780970Y-30704329D01*
X25800000Y-30800000D01*
X25800000Y-31500000D01*
X25780970Y-31595671D01*
X25726777Y-31676777D01*
X25645671Y-31730970D01*
X25550000Y-31750000D01*
X24650000Y-31750000D01*
X24554329Y-31730970D01*
X24473223Y-31676777D01*
X24419030Y-31595671D01*
X24400000Y-31500000D01*
X24400000Y-30800000D01*
X24419030Y-30704329D01*
X24473223Y-30623223D01*
X24554329Y-30569030D01*
X24650000Y-30550000D01*
X25550000Y-30550000D01*
X25645671Y-30569030D01*
G37*
G36*
X34536104Y-30542127D02*
G01*
X34609099Y-30590901D01*
X34657873Y-30663896D01*
X34675000Y-30750000D01*
X34675000Y-31250000D01*
X34657873Y-31336104D01*
X34609099Y-31409099D01*
X34536104Y-31457873D01*
X34450000Y-31475000D01*
X34000000Y-31475000D01*
X33913896Y-31457873D01*
X33840901Y-31409099D01*
X33792127Y-31336104D01*
X33775000Y-31250000D01*
X33775000Y-30750000D01*
X33792127Y-30663896D01*
X33840901Y-30590901D01*
X33913896Y-30542127D01*
X34000000Y-30525000D01*
X34450000Y-30525000D01*
X34536104Y-30542127D01*
G37*
G36*
X36086104Y-30542127D02*
G01*
X36159099Y-30590901D01*
X36207873Y-30663896D01*
X36225000Y-30750000D01*
X36225000Y-31250000D01*
X36207873Y-31336104D01*
X36159099Y-31409099D01*
X36086104Y-31457873D01*
X36000000Y-31475000D01*
X35550000Y-31475000D01*
X35463896Y-31457873D01*
X35390901Y-31409099D01*
X35342127Y-31336104D01*
X35325000Y-31250000D01*
X35325000Y-30750000D01*
X35342127Y-30663896D01*
X35390901Y-30590901D01*
X35463896Y-30542127D01*
X35550000Y-30525000D01*
X36000000Y-30525000D01*
X36086104Y-30542127D01*
G37*
G36*
X4191342Y-28538060D02*
G01*
X4304381Y-28603323D01*
X4396677Y-28695619D01*
X4461940Y-28808658D01*
X4495722Y-28934737D01*
X4495722Y-29065263D01*
X4461940Y-29191342D01*
X4396677Y-29304381D01*
X4304381Y-29396677D01*
X4191342Y-29461940D01*
X4065263Y-29495722D01*
X3934737Y-29495722D01*
X3808658Y-29461940D01*
X3695619Y-29396677D01*
X3603323Y-29304381D01*
X3538060Y-29191342D01*
X3504278Y-29065263D01*
X3504278Y-28934737D01*
X3538060Y-28808658D01*
X3603323Y-28695619D01*
X3695619Y-28603323D01*
X3808658Y-28538060D01*
X3934737Y-28504278D01*
X4065263Y-28504278D01*
X4191342Y-28538060D01*
G37*
G36*
X27536104Y-28542127D02*
G01*
X27609099Y-28590901D01*
X27657873Y-28663896D01*
X27675000Y-28750000D01*
X27675000Y-29250000D01*
X27657873Y-29336104D01*
X27609099Y-29409099D01*
X27536104Y-29457873D01*
X27450000Y-29475000D01*
X27000000Y-29475000D01*
X26913896Y-29457873D01*
X26840901Y-29409099D01*
X26792127Y-29336104D01*
X26775000Y-29250000D01*
X26775000Y-28750000D01*
X26792127Y-28663896D01*
X26840901Y-28590901D01*
X26913896Y-28542127D01*
X27000000Y-28525000D01*
X27450000Y-28525000D01*
X27536104Y-28542127D01*
G37*
G36*
X29086104Y-28542127D02*
G01*
X29159099Y-28590901D01*
X29207873Y-28663896D01*
X29225000Y-28750000D01*
X29225000Y-29250000D01*
X29207873Y-29336104D01*
X29159099Y-29409099D01*
X29086104Y-29457873D01*
X29000000Y-29475000D01*
X28550000Y-29475000D01*
X28463896Y-29457873D01*
X28390901Y-29409099D01*
X28342127Y-29336104D01*
X28325000Y-29250000D01*
X28325000Y-28750000D01*
X28342127Y-28663896D01*
X28390901Y-28590901D01*
X28463896Y-28542127D01*
X28550000Y-28525000D01*
X29000000Y-28525000D01*
X29086104Y-28542127D01*
G37*
G36*
X20536104Y-27542127D02*
G01*
X20609099Y-27590901D01*
X20657873Y-27663896D01*
X20675000Y-27750000D01*
X20675000Y-28250000D01*
X20657873Y-28336104D01*
X20609099Y-28409099D01*
X20536104Y-28457873D01*
X20450000Y-28475000D01*
X20000000Y-28475000D01*
X19913896Y-28457873D01*
X19840901Y-28409099D01*
X19792127Y-28336104D01*
X19775000Y-28250000D01*
X19775000Y-27750000D01*
X19792127Y-27663896D01*
X19840901Y-27590901D01*
X19913896Y-27542127D01*
X20000000Y-27525000D01*
X20450000Y-27525000D01*
X20536104Y-27542127D01*
G37*
G36*
X22086104Y-27542127D02*
G01*
X22159099Y-27590901D01*
X22207873Y-27663896D01*
X22225000Y-27750000D01*
X22225000Y-28250000D01*
X22207873Y-28336104D01*
X22159099Y-28409099D01*
X22086104Y-28457873D01*
X22000000Y-28475000D01*
X21550000Y-28475000D01*
X21463896Y-28457873D01*
X21390901Y-28409099D01*
X21342127Y-28336104D01*
X21325000Y-28250000D01*
X21325000Y-27750000D01*
X21342127Y-27663896D01*
X21390901Y-27590901D01*
X21463896Y-27542127D01*
X21550000Y-27525000D01*
X22000000Y-27525000D01*
X22086104Y-27542127D01*
G37*
G36*
X44451537Y-27540224D02*
G01*
X44516421Y-27583579D01*
X44559776Y-27648463D01*
X44575000Y-27725000D01*
X44575000Y-28275000D01*
X44559776Y-28351537D01*
X44516421Y-28416421D01*
X44451537Y-28459776D01*
X44375000Y-28475000D01*
X43975000Y-28475000D01*
X43898463Y-28459776D01*
X43833579Y-28416421D01*
X43790224Y-28351537D01*
X43775000Y-28275000D01*
X43775000Y-27725000D01*
X43790224Y-27648463D01*
X43833579Y-27583579D01*
X43898463Y-27540224D01*
X43975000Y-27525000D01*
X44375000Y-27525000D01*
X44451537Y-27540224D01*
G37*
G36*
X46101537Y-27540224D02*
G01*
X46166421Y-27583579D01*
X46209776Y-27648463D01*
X46225000Y-27725000D01*
X46225000Y-28275000D01*
X46209776Y-28351537D01*
X46166421Y-28416421D01*
X46101537Y-28459776D01*
X46025000Y-28475000D01*
X45625000Y-28475000D01*
X45548463Y-28459776D01*
X45483579Y-28416421D01*
X45440224Y-28351537D01*
X45425000Y-28275000D01*
X45425000Y-27725000D01*
X45440224Y-27648463D01*
X45483579Y-27583579D01*
X45548463Y-27540224D01*
X45625000Y-27525000D01*
X46025000Y-27525000D01*
X46101537Y-27540224D01*
G37*
G36*
X48451537Y-27540224D02*
G01*
X48516421Y-27583579D01*
X48559776Y-27648463D01*
X48575000Y-27725000D01*
X48575000Y-28275000D01*
X48559776Y-28351537D01*
X48516421Y-28416421D01*
X48451537Y-28459776D01*
X48375000Y-28475000D01*
X47975000Y-28475000D01*
X47898463Y-28459776D01*
X47833579Y-28416421D01*
X47790224Y-28351537D01*
X47775000Y-28275000D01*
X47775000Y-27725000D01*
X47790224Y-27648463D01*
X47833579Y-27583579D01*
X47898463Y-27540224D01*
X47975000Y-27525000D01*
X48375000Y-27525000D01*
X48451537Y-27540224D01*
G37*
G36*
X50101537Y-27540224D02*
G01*
X50166421Y-27583579D01*
X50209776Y-27648463D01*
X50225000Y-27725000D01*
X50225000Y-28275000D01*
X50209776Y-28351537D01*
X50166421Y-28416421D01*
X50101537Y-28459776D01*
X50025000Y-28475000D01*
X49625000Y-28475000D01*
X49548463Y-28459776D01*
X49483579Y-28416421D01*
X49440224Y-28351537D01*
X49425000Y-28275000D01*
X49425000Y-27725000D01*
X49440224Y-27648463D01*
X49483579Y-27583579D01*
X49548463Y-27540224D01*
X49625000Y-27525000D01*
X50025000Y-27525000D01*
X50101537Y-27540224D01*
G37*
G36*
X53451537Y-27540224D02*
G01*
X53516421Y-27583579D01*
X53559776Y-27648463D01*
X53575000Y-27725000D01*
X53575000Y-28275000D01*
X53559776Y-28351537D01*
X53516421Y-28416421D01*
X53451537Y-28459776D01*
X53375000Y-28475000D01*
X52975000Y-28475000D01*
X52898463Y-28459776D01*
X52833579Y-28416421D01*
X52790224Y-28351537D01*
X52775000Y-28275000D01*
X52775000Y-27725000D01*
X52790224Y-27648463D01*
X52833579Y-27583579D01*
X52898463Y-27540224D01*
X52975000Y-27525000D01*
X53375000Y-27525000D01*
X53451537Y-27540224D01*
G37*
G36*
X55101537Y-27540224D02*
G01*
X55166421Y-27583579D01*
X55209776Y-27648463D01*
X55225000Y-27725000D01*
X55225000Y-28275000D01*
X55209776Y-28351537D01*
X55166421Y-28416421D01*
X55101537Y-28459776D01*
X55025000Y-28475000D01*
X54625000Y-28475000D01*
X54548463Y-28459776D01*
X54483579Y-28416421D01*
X54440224Y-28351537D01*
X54425000Y-28275000D01*
X54425000Y-27725000D01*
X54440224Y-27648463D01*
X54483579Y-27583579D01*
X54548463Y-27540224D01*
X54625000Y-27525000D01*
X55025000Y-27525000D01*
X55101537Y-27540224D01*
G37*
G36*
X24536104Y-25542127D02*
G01*
X24609099Y-25590901D01*
X24657873Y-25663896D01*
X24675000Y-25750000D01*
X24675000Y-26250000D01*
X24657873Y-26336104D01*
X24609099Y-26409099D01*
X24536104Y-26457873D01*
X24450000Y-26475000D01*
X24000000Y-26475000D01*
X23913896Y-26457873D01*
X23840901Y-26409099D01*
X23792127Y-26336104D01*
X23775000Y-26250000D01*
X23775000Y-25750000D01*
X23792127Y-25663896D01*
X23840901Y-25590901D01*
X23913896Y-25542127D01*
X24000000Y-25525000D01*
X24450000Y-25525000D01*
X24536104Y-25542127D01*
G37*
G36*
X26086104Y-25542127D02*
G01*
X26159099Y-25590901D01*
X26207873Y-25663896D01*
X26225000Y-25750000D01*
X26225000Y-26250000D01*
X26207873Y-26336104D01*
X26159099Y-26409099D01*
X26086104Y-26457873D01*
X26000000Y-26475000D01*
X25550000Y-26475000D01*
X25463896Y-26457873D01*
X25390901Y-26409099D01*
X25342127Y-26336104D01*
X25325000Y-26250000D01*
X25325000Y-25750000D01*
X25342127Y-25663896D01*
X25390901Y-25590901D01*
X25463896Y-25542127D01*
X25550000Y-25525000D01*
X26000000Y-25525000D01*
X26086104Y-25542127D01*
G37*
G36*
X36669134Y-25603806D02*
G01*
X36685355Y-25614645D01*
X36696194Y-25630866D01*
X36700000Y-25650000D01*
X36700000Y-26325000D01*
X36696194Y-26344134D01*
X36685355Y-26360355D01*
X36669134Y-26371194D01*
X36650000Y-26375000D01*
X36550000Y-26375000D01*
X36530866Y-26371194D01*
X36514645Y-26360355D01*
X36503806Y-26344134D01*
X36500000Y-26325000D01*
X36500000Y-25650000D01*
X36503806Y-25630866D01*
X36514645Y-25614645D01*
X36530866Y-25603806D01*
X36550000Y-25600000D01*
X36650000Y-25600000D01*
X36669134Y-25603806D01*
G37*
G36*
X37069134Y-25603806D02*
G01*
X37085355Y-25614645D01*
X37096194Y-25630866D01*
X37100000Y-25650000D01*
X37100000Y-26325000D01*
X37096194Y-26344134D01*
X37085355Y-26360355D01*
X37069134Y-26371194D01*
X37050000Y-26375000D01*
X36950000Y-26375000D01*
X36930866Y-26371194D01*
X36914645Y-26360355D01*
X36903806Y-26344134D01*
X36900000Y-26325000D01*
X36900000Y-25650000D01*
X36903806Y-25630866D01*
X36914645Y-25614645D01*
X36930866Y-25603806D01*
X36950000Y-25600000D01*
X37050000Y-25600000D01*
X37069134Y-25603806D01*
G37*
G36*
X37469134Y-25603806D02*
G01*
X37485355Y-25614645D01*
X37496194Y-25630866D01*
X37500000Y-25650000D01*
X37500000Y-26325000D01*
X37496194Y-26344134D01*
X37485355Y-26360355D01*
X37469134Y-26371194D01*
X37450000Y-26375000D01*
X37350000Y-26375000D01*
X37330866Y-26371194D01*
X37314645Y-26360355D01*
X37303806Y-26344134D01*
X37300000Y-26325000D01*
X37300000Y-25650000D01*
X37303806Y-25630866D01*
X37314645Y-25614645D01*
X37330866Y-25603806D01*
X37350000Y-25600000D01*
X37450000Y-25600000D01*
X37469134Y-25603806D01*
G37*
G36*
X37869134Y-25603806D02*
G01*
X37885355Y-25614645D01*
X37896194Y-25630866D01*
X37900000Y-25650000D01*
X37900000Y-26325000D01*
X37896194Y-26344134D01*
X37885355Y-26360355D01*
X37869134Y-26371194D01*
X37850000Y-26375000D01*
X37750000Y-26375000D01*
X37730866Y-26371194D01*
X37714645Y-26360355D01*
X37703806Y-26344134D01*
X37700000Y-26325000D01*
X37700000Y-25650000D01*
X37703806Y-25630866D01*
X37714645Y-25614645D01*
X37730866Y-25603806D01*
X37750000Y-25600000D01*
X37850000Y-25600000D01*
X37869134Y-25603806D01*
G37*
G36*
X38269134Y-25603806D02*
G01*
X38285355Y-25614645D01*
X38296194Y-25630866D01*
X38300000Y-25650000D01*
X38300000Y-26325000D01*
X38296194Y-26344134D01*
X38285355Y-26360355D01*
X38269134Y-26371194D01*
X38250000Y-26375000D01*
X38150000Y-26375000D01*
X38130866Y-26371194D01*
X38114645Y-26360355D01*
X38103806Y-26344134D01*
X38100000Y-26325000D01*
X38100000Y-25650000D01*
X38103806Y-25630866D01*
X38114645Y-25614645D01*
X38130866Y-25603806D01*
X38150000Y-25600000D01*
X38250000Y-25600000D01*
X38269134Y-25603806D01*
G37*
G36*
X38669134Y-25603806D02*
G01*
X38685355Y-25614645D01*
X38696194Y-25630866D01*
X38700000Y-25650000D01*
X38700000Y-26325000D01*
X38696194Y-26344134D01*
X38685355Y-26360355D01*
X38669134Y-26371194D01*
X38650000Y-26375000D01*
X38550000Y-26375000D01*
X38530866Y-26371194D01*
X38514645Y-26360355D01*
X38503806Y-26344134D01*
X38500000Y-26325000D01*
X38500000Y-25650000D01*
X38503806Y-25630866D01*
X38514645Y-25614645D01*
X38530866Y-25603806D01*
X38550000Y-25600000D01*
X38650000Y-25600000D01*
X38669134Y-25603806D01*
G37*
G36*
X39069134Y-25603806D02*
G01*
X39085355Y-25614645D01*
X39096194Y-25630866D01*
X39100000Y-25650000D01*
X39100000Y-26325000D01*
X39096194Y-26344134D01*
X39085355Y-26360355D01*
X39069134Y-26371194D01*
X39050000Y-26375000D01*
X38950000Y-26375000D01*
X38930866Y-26371194D01*
X38914645Y-26360355D01*
X38903806Y-26344134D01*
X38900000Y-26325000D01*
X38900000Y-25650000D01*
X38903806Y-25630866D01*
X38914645Y-25614645D01*
X38930866Y-25603806D01*
X38950000Y-25600000D01*
X39050000Y-25600000D01*
X39069134Y-25603806D01*
G37*
G36*
X39469134Y-25603806D02*
G01*
X39485355Y-25614645D01*
X39496194Y-25630866D01*
X39500000Y-25650000D01*
X39500000Y-26325000D01*
X39496194Y-26344134D01*
X39485355Y-26360355D01*
X39469134Y-26371194D01*
X39450000Y-26375000D01*
X39350000Y-26375000D01*
X39330866Y-26371194D01*
X39314645Y-26360355D01*
X39303806Y-26344134D01*
X39300000Y-26325000D01*
X39300000Y-25650000D01*
X39303806Y-25630866D01*
X39314645Y-25614645D01*
X39330866Y-25603806D01*
X39350000Y-25600000D01*
X39450000Y-25600000D01*
X39469134Y-25603806D01*
G37*
G36*
X36369134Y-25303806D02*
G01*
X36385355Y-25314645D01*
X36396194Y-25330866D01*
X36400000Y-25350000D01*
X36400000Y-25450000D01*
X36396194Y-25469134D01*
X36385355Y-25485355D01*
X36369134Y-25496194D01*
X36350000Y-25500000D01*
X35675000Y-25500000D01*
X35655866Y-25496194D01*
X35639645Y-25485355D01*
X35628806Y-25469134D01*
X35625000Y-25450000D01*
X35625000Y-25350000D01*
X35628806Y-25330866D01*
X35639645Y-25314645D01*
X35655866Y-25303806D01*
X35675000Y-25300000D01*
X36350000Y-25300000D01*
X36369134Y-25303806D01*
G37*
G36*
X40344134Y-25303806D02*
G01*
X40360355Y-25314645D01*
X40371194Y-25330866D01*
X40375000Y-25350000D01*
X40375000Y-25450000D01*
X40371194Y-25469134D01*
X40360355Y-25485355D01*
X40344134Y-25496194D01*
X40325000Y-25500000D01*
X39650000Y-25500000D01*
X39630866Y-25496194D01*
X39614645Y-25485355D01*
X39603806Y-25469134D01*
X39600000Y-25450000D01*
X39600000Y-25350000D01*
X39603806Y-25330866D01*
X39614645Y-25314645D01*
X39630866Y-25303806D01*
X39650000Y-25300000D01*
X40325000Y-25300000D01*
X40344134Y-25303806D01*
G37*
G36*
X4191342Y-24538060D02*
G01*
X4304381Y-24603323D01*
X4396677Y-24695619D01*
X4461940Y-24808658D01*
X4495722Y-24934737D01*
X4495722Y-25065263D01*
X4461940Y-25191342D01*
X4396677Y-25304381D01*
X4304381Y-25396677D01*
X4191342Y-25461940D01*
X4065263Y-25495722D01*
X3934737Y-25495722D01*
X3808658Y-25461940D01*
X3695619Y-25396677D01*
X3603323Y-25304381D01*
X3538060Y-25191342D01*
X3504278Y-25065263D01*
X3504278Y-24934737D01*
X3538060Y-24808658D01*
X3603323Y-24695619D01*
X3695619Y-24603323D01*
X3808658Y-24538060D01*
X3934737Y-24504278D01*
X4065263Y-24504278D01*
X4191342Y-24538060D01*
G37*
G36*
X39400000Y-25400000D02*
G01*
X36600000Y-25400000D01*
X36600000Y-22600000D01*
X39400000Y-22600000D01*
X39400000Y-25400000D01*
G37*
G36*
X36369134Y-24903806D02*
G01*
X36385355Y-24914645D01*
X36396194Y-24930866D01*
X36400000Y-24950000D01*
X36400000Y-25050000D01*
X36396194Y-25069134D01*
X36385355Y-25085355D01*
X36369134Y-25096194D01*
X36350000Y-25100000D01*
X35675000Y-25100000D01*
X35655866Y-25096194D01*
X35639645Y-25085355D01*
X35628806Y-25069134D01*
X35625000Y-25050000D01*
X35625000Y-24950000D01*
X35628806Y-24930866D01*
X35639645Y-24914645D01*
X35655866Y-24903806D01*
X35675000Y-24900000D01*
X36350000Y-24900000D01*
X36369134Y-24903806D01*
G37*
G36*
X40344134Y-24903806D02*
G01*
X40360355Y-24914645D01*
X40371194Y-24930866D01*
X40375000Y-24950000D01*
X40375000Y-25050000D01*
X40371194Y-25069134D01*
X40360355Y-25085355D01*
X40344134Y-25096194D01*
X40325000Y-25100000D01*
X39650000Y-25100000D01*
X39630866Y-25096194D01*
X39614645Y-25085355D01*
X39603806Y-25069134D01*
X39600000Y-25050000D01*
X39600000Y-24950000D01*
X39603806Y-24930866D01*
X39614645Y-24914645D01*
X39630866Y-24903806D01*
X39650000Y-24900000D01*
X40325000Y-24900000D01*
X40344134Y-24903806D01*
G37*
G36*
X36369134Y-24503806D02*
G01*
X36385355Y-24514645D01*
X36396194Y-24530866D01*
X36400000Y-24550000D01*
X36400000Y-24650000D01*
X36396194Y-24669134D01*
X36385355Y-24685355D01*
X36369134Y-24696194D01*
X36350000Y-24700000D01*
X35675000Y-24700000D01*
X35655866Y-24696194D01*
X35639645Y-24685355D01*
X35628806Y-24669134D01*
X35625000Y-24650000D01*
X35625000Y-24550000D01*
X35628806Y-24530866D01*
X35639645Y-24514645D01*
X35655866Y-24503806D01*
X35675000Y-24500000D01*
X36350000Y-24500000D01*
X36369134Y-24503806D01*
G37*
G36*
X40344134Y-24503806D02*
G01*
X40360355Y-24514645D01*
X40371194Y-24530866D01*
X40375000Y-24550000D01*
X40375000Y-24650000D01*
X40371194Y-24669134D01*
X40360355Y-24685355D01*
X40344134Y-24696194D01*
X40325000Y-24700000D01*
X39650000Y-24700000D01*
X39630866Y-24696194D01*
X39614645Y-24685355D01*
X39603806Y-24669134D01*
X39600000Y-24650000D01*
X39600000Y-24550000D01*
X39603806Y-24530866D01*
X39614645Y-24514645D01*
X39630866Y-24503806D01*
X39650000Y-24500000D01*
X40325000Y-24500000D01*
X40344134Y-24503806D01*
G37*
G36*
X36369134Y-24103806D02*
G01*
X36385355Y-24114645D01*
X36396194Y-24130866D01*
X36400000Y-24150000D01*
X36400000Y-24250000D01*
X36396194Y-24269134D01*
X36385355Y-24285355D01*
X36369134Y-24296194D01*
X36350000Y-24300000D01*
X35675000Y-24300000D01*
X35655866Y-24296194D01*
X35639645Y-24285355D01*
X35628806Y-24269134D01*
X35625000Y-24250000D01*
X35625000Y-24150000D01*
X35628806Y-24130866D01*
X35639645Y-24114645D01*
X35655866Y-24103806D01*
X35675000Y-24100000D01*
X36350000Y-24100000D01*
X36369134Y-24103806D01*
G37*
G36*
X40344134Y-24103806D02*
G01*
X40360355Y-24114645D01*
X40371194Y-24130866D01*
X40375000Y-24150000D01*
X40375000Y-24250000D01*
X40371194Y-24269134D01*
X40360355Y-24285355D01*
X40344134Y-24296194D01*
X40325000Y-24300000D01*
X39650000Y-24300000D01*
X39630866Y-24296194D01*
X39614645Y-24285355D01*
X39603806Y-24269134D01*
X39600000Y-24250000D01*
X39600000Y-24150000D01*
X39603806Y-24130866D01*
X39614645Y-24114645D01*
X39630866Y-24103806D01*
X39650000Y-24100000D01*
X40325000Y-24100000D01*
X40344134Y-24103806D01*
G37*
G36*
X36369134Y-23703806D02*
G01*
X36385355Y-23714645D01*
X36396194Y-23730866D01*
X36400000Y-23750000D01*
X36400000Y-23850000D01*
X36396194Y-23869134D01*
X36385355Y-23885355D01*
X36369134Y-23896194D01*
X36350000Y-23900000D01*
X35675000Y-23900000D01*
X35655866Y-23896194D01*
X35639645Y-23885355D01*
X35628806Y-23869134D01*
X35625000Y-23850000D01*
X35625000Y-23750000D01*
X35628806Y-23730866D01*
X35639645Y-23714645D01*
X35655866Y-23703806D01*
X35675000Y-23700000D01*
X36350000Y-23700000D01*
X36369134Y-23703806D01*
G37*
G36*
X40344134Y-23703806D02*
G01*
X40360355Y-23714645D01*
X40371194Y-23730866D01*
X40375000Y-23750000D01*
X40375000Y-23850000D01*
X40371194Y-23869134D01*
X40360355Y-23885355D01*
X40344134Y-23896194D01*
X40325000Y-23900000D01*
X39650000Y-23900000D01*
X39630866Y-23896194D01*
X39614645Y-23885355D01*
X39603806Y-23869134D01*
X39600000Y-23850000D01*
X39600000Y-23750000D01*
X39603806Y-23730866D01*
X39614645Y-23714645D01*
X39630866Y-23703806D01*
X39650000Y-23700000D01*
X40325000Y-23700000D01*
X40344134Y-23703806D01*
G37*
G36*
X36369134Y-23303806D02*
G01*
X36385355Y-23314645D01*
X36396194Y-23330866D01*
X36400000Y-23350000D01*
X36400000Y-23450000D01*
X36396194Y-23469134D01*
X36385355Y-23485355D01*
X36369134Y-23496194D01*
X36350000Y-23500000D01*
X35675000Y-23500000D01*
X35655866Y-23496194D01*
X35639645Y-23485355D01*
X35628806Y-23469134D01*
X35625000Y-23450000D01*
X35625000Y-23350000D01*
X35628806Y-23330866D01*
X35639645Y-23314645D01*
X35655866Y-23303806D01*
X35675000Y-23300000D01*
X36350000Y-23300000D01*
X36369134Y-23303806D01*
G37*
G36*
X40344134Y-23303806D02*
G01*
X40360355Y-23314645D01*
X40371194Y-23330866D01*
X40375000Y-23350000D01*
X40375000Y-23450000D01*
X40371194Y-23469134D01*
X40360355Y-23485355D01*
X40344134Y-23496194D01*
X40325000Y-23500000D01*
X39650000Y-23500000D01*
X39630866Y-23496194D01*
X39614645Y-23485355D01*
X39603806Y-23469134D01*
X39600000Y-23450000D01*
X39600000Y-23350000D01*
X39603806Y-23330866D01*
X39614645Y-23314645D01*
X39630866Y-23303806D01*
X39650000Y-23300000D01*
X40325000Y-23300000D01*
X40344134Y-23303806D01*
G37*
G36*
X36369134Y-22903806D02*
G01*
X36385355Y-22914645D01*
X36396194Y-22930866D01*
X36400000Y-22950000D01*
X36400000Y-23050000D01*
X36396194Y-23069134D01*
X36385355Y-23085355D01*
X36369134Y-23096194D01*
X36350000Y-23100000D01*
X35675000Y-23100000D01*
X35655866Y-23096194D01*
X35639645Y-23085355D01*
X35628806Y-23069134D01*
X35625000Y-23050000D01*
X35625000Y-22950000D01*
X35628806Y-22930866D01*
X35639645Y-22914645D01*
X35655866Y-22903806D01*
X35675000Y-22900000D01*
X36350000Y-22900000D01*
X36369134Y-22903806D01*
G37*
G36*
X40344134Y-22903806D02*
G01*
X40360355Y-22914645D01*
X40371194Y-22930866D01*
X40375000Y-22950000D01*
X40375000Y-23050000D01*
X40371194Y-23069134D01*
X40360355Y-23085355D01*
X40344134Y-23096194D01*
X40325000Y-23100000D01*
X39650000Y-23100000D01*
X39630866Y-23096194D01*
X39614645Y-23085355D01*
X39603806Y-23069134D01*
X39600000Y-23050000D01*
X39600000Y-22950000D01*
X39603806Y-22930866D01*
X39614645Y-22914645D01*
X39630866Y-22903806D01*
X39650000Y-22900000D01*
X40325000Y-22900000D01*
X40344134Y-22903806D01*
G37*
G36*
X36369134Y-22503806D02*
G01*
X36385355Y-22514645D01*
X36396194Y-22530866D01*
X36400000Y-22550000D01*
X36400000Y-22650000D01*
X36396194Y-22669134D01*
X36385355Y-22685355D01*
X36369134Y-22696194D01*
X36350000Y-22700000D01*
X35675000Y-22700000D01*
X35655866Y-22696194D01*
X35639645Y-22685355D01*
X35628806Y-22669134D01*
X35625000Y-22650000D01*
X35625000Y-22550000D01*
X35628806Y-22530866D01*
X35639645Y-22514645D01*
X35655866Y-22503806D01*
X35675000Y-22500000D01*
X36350000Y-22500000D01*
X36369134Y-22503806D01*
G37*
G36*
X40344134Y-22503806D02*
G01*
X40360355Y-22514645D01*
X40371194Y-22530866D01*
X40375000Y-22550000D01*
X40375000Y-22650000D01*
X40371194Y-22669134D01*
X40360355Y-22685355D01*
X40344134Y-22696194D01*
X40325000Y-22700000D01*
X39650000Y-22700000D01*
X39630866Y-22696194D01*
X39614645Y-22685355D01*
X39603806Y-22669134D01*
X39600000Y-22650000D01*
X39600000Y-22550000D01*
X39603806Y-22530866D01*
X39614645Y-22514645D01*
X39630866Y-22503806D01*
X39650000Y-22500000D01*
X40325000Y-22500000D01*
X40344134Y-22503806D01*
G37*
G36*
X49536104Y-21542127D02*
G01*
X49609099Y-21590901D01*
X49657873Y-21663896D01*
X49675000Y-21750000D01*
X49675000Y-22250000D01*
X49657873Y-22336104D01*
X49609099Y-22409099D01*
X49536104Y-22457873D01*
X49450000Y-22475000D01*
X49000000Y-22475000D01*
X48913896Y-22457873D01*
X48840901Y-22409099D01*
X48792127Y-22336104D01*
X48775000Y-22250000D01*
X48775000Y-21750000D01*
X48792127Y-21663896D01*
X48840901Y-21590901D01*
X48913896Y-21542127D01*
X49000000Y-21525000D01*
X49450000Y-21525000D01*
X49536104Y-21542127D01*
G37*
G36*
X51086104Y-21542127D02*
G01*
X51159099Y-21590901D01*
X51207873Y-21663896D01*
X51225000Y-21750000D01*
X51225000Y-22250000D01*
X51207873Y-22336104D01*
X51159099Y-22409099D01*
X51086104Y-22457873D01*
X51000000Y-22475000D01*
X50550000Y-22475000D01*
X50463896Y-22457873D01*
X50390901Y-22409099D01*
X50342127Y-22336104D01*
X50325000Y-22250000D01*
X50325000Y-21750000D01*
X50342127Y-21663896D01*
X50390901Y-21590901D01*
X50463896Y-21542127D01*
X50550000Y-21525000D01*
X51000000Y-21525000D01*
X51086104Y-21542127D01*
G37*
G36*
X54536104Y-21542127D02*
G01*
X54609099Y-21590901D01*
X54657873Y-21663896D01*
X54675000Y-21750000D01*
X54675000Y-22250000D01*
X54657873Y-22336104D01*
X54609099Y-22409099D01*
X54536104Y-22457873D01*
X54450000Y-22475000D01*
X54000000Y-22475000D01*
X53913896Y-22457873D01*
X53840901Y-22409099D01*
X53792127Y-22336104D01*
X53775000Y-22250000D01*
X53775000Y-21750000D01*
X53792127Y-21663896D01*
X53840901Y-21590901D01*
X53913896Y-21542127D01*
X54000000Y-21525000D01*
X54450000Y-21525000D01*
X54536104Y-21542127D01*
G37*
G36*
X56086104Y-21542127D02*
G01*
X56159099Y-21590901D01*
X56207873Y-21663896D01*
X56225000Y-21750000D01*
X56225000Y-22250000D01*
X56207873Y-22336104D01*
X56159099Y-22409099D01*
X56086104Y-22457873D01*
X56000000Y-22475000D01*
X55550000Y-22475000D01*
X55463896Y-22457873D01*
X55390901Y-22409099D01*
X55342127Y-22336104D01*
X55325000Y-22250000D01*
X55325000Y-21750000D01*
X55342127Y-21663896D01*
X55390901Y-21590901D01*
X55463896Y-21542127D01*
X55550000Y-21525000D01*
X56000000Y-21525000D01*
X56086104Y-21542127D01*
G37*
G36*
X36669134Y-21628806D02*
G01*
X36685355Y-21639645D01*
X36696194Y-21655866D01*
X36700000Y-21675000D01*
X36700000Y-22350000D01*
X36696194Y-22369134D01*
X36685355Y-22385355D01*
X36669134Y-22396194D01*
X36650000Y-22400000D01*
X36550000Y-22400000D01*
X36530866Y-22396194D01*
X36514645Y-22385355D01*
X36503806Y-22369134D01*
X36500000Y-22350000D01*
X36500000Y-21675000D01*
X36503806Y-21655866D01*
X36514645Y-21639645D01*
X36530866Y-21628806D01*
X36550000Y-21625000D01*
X36650000Y-21625000D01*
X36669134Y-21628806D01*
G37*
G36*
X37069134Y-21628806D02*
G01*
X37085355Y-21639645D01*
X37096194Y-21655866D01*
X37100000Y-21675000D01*
X37100000Y-22350000D01*
X37096194Y-22369134D01*
X37085355Y-22385355D01*
X37069134Y-22396194D01*
X37050000Y-22400000D01*
X36950000Y-22400000D01*
X36930866Y-22396194D01*
X36914645Y-22385355D01*
X36903806Y-22369134D01*
X36900000Y-22350000D01*
X36900000Y-21675000D01*
X36903806Y-21655866D01*
X36914645Y-21639645D01*
X36930866Y-21628806D01*
X36950000Y-21625000D01*
X37050000Y-21625000D01*
X37069134Y-21628806D01*
G37*
G36*
X37469134Y-21628806D02*
G01*
X37485355Y-21639645D01*
X37496194Y-21655866D01*
X37500000Y-21675000D01*
X37500000Y-22350000D01*
X37496194Y-22369134D01*
X37485355Y-22385355D01*
X37469134Y-22396194D01*
X37450000Y-22400000D01*
X37350000Y-22400000D01*
X37330866Y-22396194D01*
X37314645Y-22385355D01*
X37303806Y-22369134D01*
X37300000Y-22350000D01*
X37300000Y-21675000D01*
X37303806Y-21655866D01*
X37314645Y-21639645D01*
X37330866Y-21628806D01*
X37350000Y-21625000D01*
X37450000Y-21625000D01*
X37469134Y-21628806D01*
G37*
G36*
X37869134Y-21628806D02*
G01*
X37885355Y-21639645D01*
X37896194Y-21655866D01*
X37900000Y-21675000D01*
X37900000Y-22350000D01*
X37896194Y-22369134D01*
X37885355Y-22385355D01*
X37869134Y-22396194D01*
X37850000Y-22400000D01*
X37750000Y-22400000D01*
X37730866Y-22396194D01*
X37714645Y-22385355D01*
X37703806Y-22369134D01*
X37700000Y-22350000D01*
X37700000Y-21675000D01*
X37703806Y-21655866D01*
X37714645Y-21639645D01*
X37730866Y-21628806D01*
X37750000Y-21625000D01*
X37850000Y-21625000D01*
X37869134Y-21628806D01*
G37*
G36*
X38269134Y-21628806D02*
G01*
X38285355Y-21639645D01*
X38296194Y-21655866D01*
X38300000Y-21675000D01*
X38300000Y-22350000D01*
X38296194Y-22369134D01*
X38285355Y-22385355D01*
X38269134Y-22396194D01*
X38250000Y-22400000D01*
X38150000Y-22400000D01*
X38130866Y-22396194D01*
X38114645Y-22385355D01*
X38103806Y-22369134D01*
X38100000Y-22350000D01*
X38100000Y-21675000D01*
X38103806Y-21655866D01*
X38114645Y-21639645D01*
X38130866Y-21628806D01*
X38150000Y-21625000D01*
X38250000Y-21625000D01*
X38269134Y-21628806D01*
G37*
G36*
X38669134Y-21628806D02*
G01*
X38685355Y-21639645D01*
X38696194Y-21655866D01*
X38700000Y-21675000D01*
X38700000Y-22350000D01*
X38696194Y-22369134D01*
X38685355Y-22385355D01*
X38669134Y-22396194D01*
X38650000Y-22400000D01*
X38550000Y-22400000D01*
X38530866Y-22396194D01*
X38514645Y-22385355D01*
X38503806Y-22369134D01*
X38500000Y-22350000D01*
X38500000Y-21675000D01*
X38503806Y-21655866D01*
X38514645Y-21639645D01*
X38530866Y-21628806D01*
X38550000Y-21625000D01*
X38650000Y-21625000D01*
X38669134Y-21628806D01*
G37*
G36*
X39069134Y-21628806D02*
G01*
X39085355Y-21639645D01*
X39096194Y-21655866D01*
X39100000Y-21675000D01*
X39100000Y-22350000D01*
X39096194Y-22369134D01*
X39085355Y-22385355D01*
X39069134Y-22396194D01*
X39050000Y-22400000D01*
X38950000Y-22400000D01*
X38930866Y-22396194D01*
X38914645Y-22385355D01*
X38903806Y-22369134D01*
X38900000Y-22350000D01*
X38900000Y-21675000D01*
X38903806Y-21655866D01*
X38914645Y-21639645D01*
X38930866Y-21628806D01*
X38950000Y-21625000D01*
X39050000Y-21625000D01*
X39069134Y-21628806D01*
G37*
G36*
X39469134Y-21628806D02*
G01*
X39485355Y-21639645D01*
X39496194Y-21655866D01*
X39500000Y-21675000D01*
X39500000Y-22350000D01*
X39496194Y-22369134D01*
X39485355Y-22385355D01*
X39469134Y-22396194D01*
X39450000Y-22400000D01*
X39350000Y-22400000D01*
X39330866Y-22396194D01*
X39314645Y-22385355D01*
X39303806Y-22369134D01*
X39300000Y-22350000D01*
X39300000Y-21675000D01*
X39303806Y-21655866D01*
X39314645Y-21639645D01*
X39330866Y-21628806D01*
X39350000Y-21625000D01*
X39450000Y-21625000D01*
X39469134Y-21628806D01*
G37*
G36*
X4191342Y-20538060D02*
G01*
X4304381Y-20603323D01*
X4396677Y-20695619D01*
X4461940Y-20808658D01*
X4495722Y-20934737D01*
X4495722Y-21065263D01*
X4461940Y-21191342D01*
X4396677Y-21304381D01*
X4304381Y-21396677D01*
X4191342Y-21461940D01*
X4065263Y-21495722D01*
X3934737Y-21495722D01*
X3808658Y-21461940D01*
X3695619Y-21396677D01*
X3603323Y-21304381D01*
X3538060Y-21191342D01*
X3504278Y-21065263D01*
X3504278Y-20934737D01*
X3538060Y-20808658D01*
X3603323Y-20695619D01*
X3695619Y-20603323D01*
X3808658Y-20538060D01*
X3934737Y-20504278D01*
X4065263Y-20504278D01*
X4191342Y-20538060D01*
G37*
G36*
X31536104Y-19542127D02*
G01*
X31609099Y-19590901D01*
X31657873Y-19663896D01*
X31675000Y-19750000D01*
X31675000Y-20250000D01*
X31657873Y-20336104D01*
X31609099Y-20409099D01*
X31536104Y-20457873D01*
X31450000Y-20475000D01*
X31000000Y-20475000D01*
X30913896Y-20457873D01*
X30840901Y-20409099D01*
X30792127Y-20336104D01*
X30775000Y-20250000D01*
X30775000Y-19750000D01*
X30792127Y-19663896D01*
X30840901Y-19590901D01*
X30913896Y-19542127D01*
X31000000Y-19525000D01*
X31450000Y-19525000D01*
X31536104Y-19542127D01*
G37*
G36*
X33086104Y-19542127D02*
G01*
X33159099Y-19590901D01*
X33207873Y-19663896D01*
X33225000Y-19750000D01*
X33225000Y-20250000D01*
X33207873Y-20336104D01*
X33159099Y-20409099D01*
X33086104Y-20457873D01*
X33000000Y-20475000D01*
X32550000Y-20475000D01*
X32463896Y-20457873D01*
X32390901Y-20409099D01*
X32342127Y-20336104D01*
X32325000Y-20250000D01*
X32325000Y-19750000D01*
X32342127Y-19663896D01*
X32390901Y-19590901D01*
X32463896Y-19542127D01*
X32550000Y-19525000D01*
X33000000Y-19525000D01*
X33086104Y-19542127D01*
G37*
G36*
X43536104Y-19542127D02*
G01*
X43609099Y-19590901D01*
X43657873Y-19663896D01*
X43675000Y-19750000D01*
X43675000Y-20250000D01*
X43657873Y-20336104D01*
X43609099Y-20409099D01*
X43536104Y-20457873D01*
X43450000Y-20475000D01*
X43000000Y-20475000D01*
X42913896Y-20457873D01*
X42840901Y-20409099D01*
X42792127Y-20336104D01*
X42775000Y-20250000D01*
X42775000Y-19750000D01*
X42792127Y-19663896D01*
X42840901Y-19590901D01*
X42913896Y-19542127D01*
X43000000Y-19525000D01*
X43450000Y-19525000D01*
X43536104Y-19542127D01*
G37*
G36*
X45086104Y-19542127D02*
G01*
X45159099Y-19590901D01*
X45207873Y-19663896D01*
X45225000Y-19750000D01*
X45225000Y-20250000D01*
X45207873Y-20336104D01*
X45159099Y-20409099D01*
X45086104Y-20457873D01*
X45000000Y-20475000D01*
X44550000Y-20475000D01*
X44463896Y-20457873D01*
X44390901Y-20409099D01*
X44342127Y-20336104D01*
X44325000Y-20250000D01*
X44325000Y-19750000D01*
X44342127Y-19663896D01*
X44390901Y-19590901D01*
X44463896Y-19542127D01*
X44550000Y-19525000D01*
X45000000Y-19525000D01*
X45086104Y-19542127D01*
G37*
G36*
X4191342Y-16538060D02*
G01*
X4304381Y-16603323D01*
X4396677Y-16695619D01*
X4461940Y-16808658D01*
X4495722Y-16934737D01*
X4495722Y-17065263D01*
X4461940Y-17191342D01*
X4396677Y-17304381D01*
X4304381Y-17396677D01*
X4191342Y-17461940D01*
X4065263Y-17495722D01*
X3934737Y-17495722D01*
X3808658Y-17461940D01*
X3695619Y-17396677D01*
X3603323Y-17304381D01*
X3538060Y-17191342D01*
X3504278Y-17065263D01*
X3504278Y-16934737D01*
X3538060Y-16808658D01*
X3603323Y-16695619D01*
X3695619Y-16603323D01*
X3808658Y-16538060D01*
X3934737Y-16504278D01*
X4065263Y-16504278D01*
X4191342Y-16538060D01*
G37*
G36*
X4191342Y-12538060D02*
G01*
X4304381Y-12603323D01*
X4396677Y-12695619D01*
X4461940Y-12808658D01*
X4495722Y-12934737D01*
X4495722Y-13065263D01*
X4461940Y-13191342D01*
X4396677Y-13304381D01*
X4304381Y-13396677D01*
X4191342Y-13461940D01*
X4065263Y-13495722D01*
X3934737Y-13495722D01*
X3808658Y-13461940D01*
X3695619Y-13396677D01*
X3603323Y-13304381D01*
X3538060Y-13191342D01*
X3504278Y-13065263D01*
X3504278Y-12934737D01*
X3538060Y-12808658D01*
X3603323Y-12695619D01*
X3695619Y-12603323D01*
X3808658Y-12538060D01*
X3934737Y-12504278D01*
X4065263Y-12504278D01*
X4191342Y-12538060D01*
G37*
G36*
X4191342Y-8538060D02*
G01*
X4304381Y-8603323D01*
X4396677Y-8695619D01*
X4461940Y-8808658D01*
X4495722Y-8934737D01*
X4495722Y-9065263D01*
X4461940Y-9191342D01*
X4396677Y-9304381D01*
X4304381Y-9396677D01*
X4191342Y-9461940D01*
X4065263Y-9495722D01*
X3934737Y-9495722D01*
X3808658Y-9461940D01*
X3695619Y-9396677D01*
X3603323Y-9304381D01*
X3538060Y-9191342D01*
X3504278Y-9065263D01*
X3504278Y-8934737D01*
X3538060Y-8808658D01*
X3603323Y-8695619D01*
X3695619Y-8603323D01*
X3808658Y-8538060D01*
X3934737Y-8504278D01*
X4065263Y-8504278D01*
X4191342Y-8538060D01*
G37*
G36*
X4256790Y-2930393D02*
G01*
X4420952Y-2983733D01*
X4574748Y-3062096D01*
X4714393Y-3163553D01*
X4836447Y-3285607D01*
X4937904Y-3425252D01*
X5016267Y-3579048D01*
X5069607Y-3743210D01*
X5096609Y-3913695D01*
X5096609Y-4086305D01*
X5069607Y-4256790D01*
X5016267Y-4420952D01*
X4937904Y-4574748D01*
X4836447Y-4714393D01*
X4714393Y-4836447D01*
X4574748Y-4937904D01*
X4420952Y-5016267D01*
X4256790Y-5069607D01*
X4086305Y-5096609D01*
X3913695Y-5096609D01*
X3743210Y-5069607D01*
X3579048Y-5016267D01*
X3425252Y-4937904D01*
X3285607Y-4836447D01*
X3163553Y-4714393D01*
X3062096Y-4574748D01*
X2983733Y-4420952D01*
X2930393Y-4256790D01*
X2903391Y-4086305D01*
X2903391Y-3913695D01*
X2930393Y-3743210D01*
X2983733Y-3579048D01*
X3062096Y-3425252D01*
X3163553Y-3285607D01*
X3285607Y-3163553D01*
X3425252Y-3062096D01*
X3579048Y-2983733D01*
X3743210Y-2930393D01*
X3913695Y-2903391D01*
X4086305Y-2903391D01*
X4256790Y-2930393D01*
G37*
G36*
X72256790Y-2930393D02*
G01*
X72420952Y-2983733D01*
X72574748Y-3062096D01*
X72714393Y-3163553D01*
X72836447Y-3285607D01*
X72937904Y-3425252D01*
X73016267Y-3579048D01*
X73069607Y-3743210D01*
X73096609Y-3913695D01*
X73096609Y-4086305D01*
X73069607Y-4256790D01*
X73016267Y-4420952D01*
X72937904Y-4574748D01*
X72836447Y-4714393D01*
X72714393Y-4836447D01*
X72574748Y-4937904D01*
X72420952Y-5016267D01*
X72256790Y-5069607D01*
X72086305Y-5096609D01*
X71913695Y-5096609D01*
X71743210Y-5069607D01*
X71579048Y-5016267D01*
X71425252Y-4937904D01*
X71285607Y-4836447D01*
X71163553Y-4714393D01*
X71062096Y-4574748D01*
X70983733Y-4420952D01*
X70930393Y-4256790D01*
X70903391Y-4086305D01*
X70903391Y-3913695D01*
X70930393Y-3743210D01*
X70983733Y-3579048D01*
X71062096Y-3425252D01*
X71163553Y-3285607D01*
X71285607Y-3163553D01*
X71425252Y-3062096D01*
X71579048Y-2983733D01*
X71743210Y-2930393D01*
X71913695Y-2903391D01*
X72086305Y-2903391D01*
X72256790Y-2930393D01*
G37*
M02*
