%TF.GenerationSoftware,KiCad,Pcbnew,10.0.3*%
%TF.CreationDate,2026-06-01T00:55:41+08:00*%
%TF.ProjectId,tellmelight_rev_a4,74656c6c-6d65-46c6-9967-68745f726576,A4*%
%TF.SameCoordinates,Original*%
%TF.FileFunction,AssemblyDrawing,Bot*%
%FSLAX46Y46*%
G04 Gerber Fmt 4.6, Leading zero omitted, Abs format (unit mm)*
G04 Created by KiCad (PCBNEW 10.0.3) date 2026-06-01 00:55:41*
%MOMM*%
%LPD*%
G01*
G04 APERTURE LIST*
%ADD10C,0.150000*%
%ADD11C,0.060000*%
%ADD12C,0.120000*%
%ADD13C,0.110000*%
%ADD14C,0.040000*%
%ADD15C,0.100000*%
G04 APERTURE END LIST*
D10*
X38333333Y-50454819D02*
X38333333Y-51169104D01*
X38333333Y-51169104D02*
X38380952Y-51311961D01*
X38380952Y-51311961D02*
X38476190Y-51407200D01*
X38476190Y-51407200D02*
X38619047Y-51454819D01*
X38619047Y-51454819D02*
X38714285Y-51454819D01*
X37333333Y-51454819D02*
X37904761Y-51454819D01*
X37619047Y-51454819D02*
X37619047Y-50454819D01*
X37619047Y-50454819D02*
X37714285Y-50597676D01*
X37714285Y-50597676D02*
X37809523Y-50692914D01*
X37809523Y-50692914D02*
X37904761Y-50740533D01*
X5261904Y-17904819D02*
X4690476Y-17904819D01*
X4976190Y-18904819D02*
X4976190Y-17904819D01*
X4357142Y-18904819D02*
X4357142Y-17904819D01*
X4357142Y-17904819D02*
X3976190Y-17904819D01*
X3976190Y-17904819D02*
X3880952Y-17952438D01*
X3880952Y-17952438D02*
X3833333Y-18000057D01*
X3833333Y-18000057D02*
X3785714Y-18095295D01*
X3785714Y-18095295D02*
X3785714Y-18238152D01*
X3785714Y-18238152D02*
X3833333Y-18333390D01*
X3833333Y-18333390D02*
X3880952Y-18381009D01*
X3880952Y-18381009D02*
X3976190Y-18428628D01*
X3976190Y-18428628D02*
X4357142Y-18428628D01*
X3452380Y-17904819D02*
X2833333Y-17904819D01*
X2833333Y-17904819D02*
X3166666Y-18285771D01*
X3166666Y-18285771D02*
X3023809Y-18285771D01*
X3023809Y-18285771D02*
X2928571Y-18333390D01*
X2928571Y-18333390D02*
X2880952Y-18381009D01*
X2880952Y-18381009D02*
X2833333Y-18476247D01*
X2833333Y-18476247D02*
X2833333Y-18714342D01*
X2833333Y-18714342D02*
X2880952Y-18809580D01*
X2880952Y-18809580D02*
X2928571Y-18857200D01*
X2928571Y-18857200D02*
X3023809Y-18904819D01*
X3023809Y-18904819D02*
X3309523Y-18904819D01*
X3309523Y-18904819D02*
X3404761Y-18857200D01*
X3404761Y-18857200D02*
X3452380Y-18809580D01*
X5261904Y-33904819D02*
X4690476Y-33904819D01*
X4976190Y-34904819D02*
X4976190Y-33904819D01*
X4357142Y-34904819D02*
X4357142Y-33904819D01*
X4357142Y-33904819D02*
X3976190Y-33904819D01*
X3976190Y-33904819D02*
X3880952Y-33952438D01*
X3880952Y-33952438D02*
X3833333Y-34000057D01*
X3833333Y-34000057D02*
X3785714Y-34095295D01*
X3785714Y-34095295D02*
X3785714Y-34238152D01*
X3785714Y-34238152D02*
X3833333Y-34333390D01*
X3833333Y-34333390D02*
X3880952Y-34381009D01*
X3880952Y-34381009D02*
X3976190Y-34428628D01*
X3976190Y-34428628D02*
X4357142Y-34428628D01*
X3452380Y-33904819D02*
X2785714Y-33904819D01*
X2785714Y-33904819D02*
X3214285Y-34904819D01*
D11*
X53257142Y-45181927D02*
X53390475Y-44991451D01*
X53485713Y-45181927D02*
X53485713Y-44781927D01*
X53485713Y-44781927D02*
X53333332Y-44781927D01*
X53333332Y-44781927D02*
X53295237Y-44800975D01*
X53295237Y-44800975D02*
X53276190Y-44820022D01*
X53276190Y-44820022D02*
X53257142Y-44858118D01*
X53257142Y-44858118D02*
X53257142Y-44915260D01*
X53257142Y-44915260D02*
X53276190Y-44953356D01*
X53276190Y-44953356D02*
X53295237Y-44972403D01*
X53295237Y-44972403D02*
X53333332Y-44991451D01*
X53333332Y-44991451D02*
X53485713Y-44991451D01*
X52876190Y-45181927D02*
X53104761Y-45181927D01*
X52990475Y-45181927D02*
X52990475Y-44781927D01*
X52990475Y-44781927D02*
X53028571Y-44839070D01*
X53028571Y-44839070D02*
X53066666Y-44877165D01*
X53066666Y-44877165D02*
X53104761Y-44896213D01*
X52628571Y-44781927D02*
X52590476Y-44781927D01*
X52590476Y-44781927D02*
X52552380Y-44800975D01*
X52552380Y-44800975D02*
X52533333Y-44820022D01*
X52533333Y-44820022D02*
X52514285Y-44858118D01*
X52514285Y-44858118D02*
X52495238Y-44934308D01*
X52495238Y-44934308D02*
X52495238Y-45029546D01*
X52495238Y-45029546D02*
X52514285Y-45105737D01*
X52514285Y-45105737D02*
X52533333Y-45143832D01*
X52533333Y-45143832D02*
X52552380Y-45162880D01*
X52552380Y-45162880D02*
X52590476Y-45181927D01*
X52590476Y-45181927D02*
X52628571Y-45181927D01*
X52628571Y-45181927D02*
X52666666Y-45162880D01*
X52666666Y-45162880D02*
X52685714Y-45143832D01*
X52685714Y-45143832D02*
X52704761Y-45105737D01*
X52704761Y-45105737D02*
X52723809Y-45029546D01*
X52723809Y-45029546D02*
X52723809Y-44934308D01*
X52723809Y-44934308D02*
X52704761Y-44858118D01*
X52704761Y-44858118D02*
X52685714Y-44820022D01*
X52685714Y-44820022D02*
X52666666Y-44800975D01*
X52666666Y-44800975D02*
X52628571Y-44781927D01*
D10*
X23738094Y-52904819D02*
X23166666Y-52904819D01*
X23452380Y-53904819D02*
X23452380Y-52904819D01*
X22833332Y-53904819D02*
X22833332Y-52904819D01*
X22833332Y-52904819D02*
X22452380Y-52904819D01*
X22452380Y-52904819D02*
X22357142Y-52952438D01*
X22357142Y-52952438D02*
X22309523Y-53000057D01*
X22309523Y-53000057D02*
X22261904Y-53095295D01*
X22261904Y-53095295D02*
X22261904Y-53238152D01*
X22261904Y-53238152D02*
X22309523Y-53333390D01*
X22309523Y-53333390D02*
X22357142Y-53381009D01*
X22357142Y-53381009D02*
X22452380Y-53428628D01*
X22452380Y-53428628D02*
X22833332Y-53428628D01*
X21309523Y-53904819D02*
X21880951Y-53904819D01*
X21595237Y-53904819D02*
X21595237Y-52904819D01*
X21595237Y-52904819D02*
X21690475Y-53047676D01*
X21690475Y-53047676D02*
X21785713Y-53142914D01*
X21785713Y-53142914D02*
X21880951Y-53190533D01*
X20928570Y-53000057D02*
X20880951Y-52952438D01*
X20880951Y-52952438D02*
X20785713Y-52904819D01*
X20785713Y-52904819D02*
X20547618Y-52904819D01*
X20547618Y-52904819D02*
X20452380Y-52952438D01*
X20452380Y-52952438D02*
X20404761Y-53000057D01*
X20404761Y-53000057D02*
X20357142Y-53095295D01*
X20357142Y-53095295D02*
X20357142Y-53190533D01*
X20357142Y-53190533D02*
X20404761Y-53333390D01*
X20404761Y-53333390D02*
X20976189Y-53904819D01*
X20976189Y-53904819D02*
X20357142Y-53904819D01*
D11*
X50257142Y-22143832D02*
X50276190Y-22162880D01*
X50276190Y-22162880D02*
X50333332Y-22181927D01*
X50333332Y-22181927D02*
X50371428Y-22181927D01*
X50371428Y-22181927D02*
X50428571Y-22162880D01*
X50428571Y-22162880D02*
X50466666Y-22124784D01*
X50466666Y-22124784D02*
X50485713Y-22086689D01*
X50485713Y-22086689D02*
X50504761Y-22010499D01*
X50504761Y-22010499D02*
X50504761Y-21953356D01*
X50504761Y-21953356D02*
X50485713Y-21877165D01*
X50485713Y-21877165D02*
X50466666Y-21839070D01*
X50466666Y-21839070D02*
X50428571Y-21800975D01*
X50428571Y-21800975D02*
X50371428Y-21781927D01*
X50371428Y-21781927D02*
X50333332Y-21781927D01*
X50333332Y-21781927D02*
X50276190Y-21800975D01*
X50276190Y-21800975D02*
X50257142Y-21820022D01*
X49876190Y-22181927D02*
X50104761Y-22181927D01*
X49990475Y-22181927D02*
X49990475Y-21781927D01*
X49990475Y-21781927D02*
X50028571Y-21839070D01*
X50028571Y-21839070D02*
X50066666Y-21877165D01*
X50066666Y-21877165D02*
X50104761Y-21896213D01*
X49628571Y-21781927D02*
X49590476Y-21781927D01*
X49590476Y-21781927D02*
X49552380Y-21800975D01*
X49552380Y-21800975D02*
X49533333Y-21820022D01*
X49533333Y-21820022D02*
X49514285Y-21858118D01*
X49514285Y-21858118D02*
X49495238Y-21934308D01*
X49495238Y-21934308D02*
X49495238Y-22029546D01*
X49495238Y-22029546D02*
X49514285Y-22105737D01*
X49514285Y-22105737D02*
X49533333Y-22143832D01*
X49533333Y-22143832D02*
X49552380Y-22162880D01*
X49552380Y-22162880D02*
X49590476Y-22181927D01*
X49590476Y-22181927D02*
X49628571Y-22181927D01*
X49628571Y-22181927D02*
X49666666Y-22162880D01*
X49666666Y-22162880D02*
X49685714Y-22143832D01*
X49685714Y-22143832D02*
X49704761Y-22105737D01*
X49704761Y-22105737D02*
X49723809Y-22029546D01*
X49723809Y-22029546D02*
X49723809Y-21934308D01*
X49723809Y-21934308D02*
X49704761Y-21858118D01*
X49704761Y-21858118D02*
X49685714Y-21820022D01*
X49685714Y-21820022D02*
X49666666Y-21800975D01*
X49666666Y-21800975D02*
X49628571Y-21781927D01*
X44066666Y-20143832D02*
X44085714Y-20162880D01*
X44085714Y-20162880D02*
X44142856Y-20181927D01*
X44142856Y-20181927D02*
X44180952Y-20181927D01*
X44180952Y-20181927D02*
X44238095Y-20162880D01*
X44238095Y-20162880D02*
X44276190Y-20124784D01*
X44276190Y-20124784D02*
X44295237Y-20086689D01*
X44295237Y-20086689D02*
X44314285Y-20010499D01*
X44314285Y-20010499D02*
X44314285Y-19953356D01*
X44314285Y-19953356D02*
X44295237Y-19877165D01*
X44295237Y-19877165D02*
X44276190Y-19839070D01*
X44276190Y-19839070D02*
X44238095Y-19800975D01*
X44238095Y-19800975D02*
X44180952Y-19781927D01*
X44180952Y-19781927D02*
X44142856Y-19781927D01*
X44142856Y-19781927D02*
X44085714Y-19800975D01*
X44085714Y-19800975D02*
X44066666Y-19820022D01*
X43723809Y-19915260D02*
X43723809Y-20181927D01*
X43819047Y-19762880D02*
X43914285Y-20048594D01*
X43914285Y-20048594D02*
X43666666Y-20048594D01*
X28257142Y-29143832D02*
X28276190Y-29162880D01*
X28276190Y-29162880D02*
X28333332Y-29181927D01*
X28333332Y-29181927D02*
X28371428Y-29181927D01*
X28371428Y-29181927D02*
X28428571Y-29162880D01*
X28428571Y-29162880D02*
X28466666Y-29124784D01*
X28466666Y-29124784D02*
X28485713Y-29086689D01*
X28485713Y-29086689D02*
X28504761Y-29010499D01*
X28504761Y-29010499D02*
X28504761Y-28953356D01*
X28504761Y-28953356D02*
X28485713Y-28877165D01*
X28485713Y-28877165D02*
X28466666Y-28839070D01*
X28466666Y-28839070D02*
X28428571Y-28800975D01*
X28428571Y-28800975D02*
X28371428Y-28781927D01*
X28371428Y-28781927D02*
X28333332Y-28781927D01*
X28333332Y-28781927D02*
X28276190Y-28800975D01*
X28276190Y-28800975D02*
X28257142Y-28820022D01*
X27876190Y-29181927D02*
X28104761Y-29181927D01*
X27990475Y-29181927D02*
X27990475Y-28781927D01*
X27990475Y-28781927D02*
X28028571Y-28839070D01*
X28028571Y-28839070D02*
X28066666Y-28877165D01*
X28066666Y-28877165D02*
X28104761Y-28896213D01*
X27533333Y-28915260D02*
X27533333Y-29181927D01*
X27628571Y-28762880D02*
X27723809Y-29048594D01*
X27723809Y-29048594D02*
X27476190Y-29048594D01*
X55257142Y-22143832D02*
X55276190Y-22162880D01*
X55276190Y-22162880D02*
X55333332Y-22181927D01*
X55333332Y-22181927D02*
X55371428Y-22181927D01*
X55371428Y-22181927D02*
X55428571Y-22162880D01*
X55428571Y-22162880D02*
X55466666Y-22124784D01*
X55466666Y-22124784D02*
X55485713Y-22086689D01*
X55485713Y-22086689D02*
X55504761Y-22010499D01*
X55504761Y-22010499D02*
X55504761Y-21953356D01*
X55504761Y-21953356D02*
X55485713Y-21877165D01*
X55485713Y-21877165D02*
X55466666Y-21839070D01*
X55466666Y-21839070D02*
X55428571Y-21800975D01*
X55428571Y-21800975D02*
X55371428Y-21781927D01*
X55371428Y-21781927D02*
X55333332Y-21781927D01*
X55333332Y-21781927D02*
X55276190Y-21800975D01*
X55276190Y-21800975D02*
X55257142Y-21820022D01*
X54876190Y-22181927D02*
X55104761Y-22181927D01*
X54990475Y-22181927D02*
X54990475Y-21781927D01*
X54990475Y-21781927D02*
X55028571Y-21839070D01*
X55028571Y-21839070D02*
X55066666Y-21877165D01*
X55066666Y-21877165D02*
X55104761Y-21896213D01*
X54533333Y-21781927D02*
X54609523Y-21781927D01*
X54609523Y-21781927D02*
X54647619Y-21800975D01*
X54647619Y-21800975D02*
X54666666Y-21820022D01*
X54666666Y-21820022D02*
X54704761Y-21877165D01*
X54704761Y-21877165D02*
X54723809Y-21953356D01*
X54723809Y-21953356D02*
X54723809Y-22105737D01*
X54723809Y-22105737D02*
X54704761Y-22143832D01*
X54704761Y-22143832D02*
X54685714Y-22162880D01*
X54685714Y-22162880D02*
X54647619Y-22181927D01*
X54647619Y-22181927D02*
X54571428Y-22181927D01*
X54571428Y-22181927D02*
X54533333Y-22162880D01*
X54533333Y-22162880D02*
X54514285Y-22143832D01*
X54514285Y-22143832D02*
X54495238Y-22105737D01*
X54495238Y-22105737D02*
X54495238Y-22010499D01*
X54495238Y-22010499D02*
X54514285Y-21972403D01*
X54514285Y-21972403D02*
X54533333Y-21953356D01*
X54533333Y-21953356D02*
X54571428Y-21934308D01*
X54571428Y-21934308D02*
X54647619Y-21934308D01*
X54647619Y-21934308D02*
X54685714Y-21953356D01*
X54685714Y-21953356D02*
X54704761Y-21972403D01*
X54704761Y-21972403D02*
X54723809Y-22010499D01*
D10*
X5261904Y-13904819D02*
X4690476Y-13904819D01*
X4976190Y-14904819D02*
X4976190Y-13904819D01*
X4357142Y-14904819D02*
X4357142Y-13904819D01*
X4357142Y-13904819D02*
X3976190Y-13904819D01*
X3976190Y-13904819D02*
X3880952Y-13952438D01*
X3880952Y-13952438D02*
X3833333Y-14000057D01*
X3833333Y-14000057D02*
X3785714Y-14095295D01*
X3785714Y-14095295D02*
X3785714Y-14238152D01*
X3785714Y-14238152D02*
X3833333Y-14333390D01*
X3833333Y-14333390D02*
X3880952Y-14381009D01*
X3880952Y-14381009D02*
X3976190Y-14428628D01*
X3976190Y-14428628D02*
X4357142Y-14428628D01*
X3404761Y-14000057D02*
X3357142Y-13952438D01*
X3357142Y-13952438D02*
X3261904Y-13904819D01*
X3261904Y-13904819D02*
X3023809Y-13904819D01*
X3023809Y-13904819D02*
X2928571Y-13952438D01*
X2928571Y-13952438D02*
X2880952Y-14000057D01*
X2880952Y-14000057D02*
X2833333Y-14095295D01*
X2833333Y-14095295D02*
X2833333Y-14190533D01*
X2833333Y-14190533D02*
X2880952Y-14333390D01*
X2880952Y-14333390D02*
X3452380Y-14904819D01*
X3452380Y-14904819D02*
X2833333Y-14904819D01*
D11*
X53066666Y-43143832D02*
X53085714Y-43162880D01*
X53085714Y-43162880D02*
X53142856Y-43181927D01*
X53142856Y-43181927D02*
X53180952Y-43181927D01*
X53180952Y-43181927D02*
X53238095Y-43162880D01*
X53238095Y-43162880D02*
X53276190Y-43124784D01*
X53276190Y-43124784D02*
X53295237Y-43086689D01*
X53295237Y-43086689D02*
X53314285Y-43010499D01*
X53314285Y-43010499D02*
X53314285Y-42953356D01*
X53314285Y-42953356D02*
X53295237Y-42877165D01*
X53295237Y-42877165D02*
X53276190Y-42839070D01*
X53276190Y-42839070D02*
X53238095Y-42800975D01*
X53238095Y-42800975D02*
X53180952Y-42781927D01*
X53180952Y-42781927D02*
X53142856Y-42781927D01*
X53142856Y-42781927D02*
X53085714Y-42800975D01*
X53085714Y-42800975D02*
X53066666Y-42820022D01*
X52838095Y-42953356D02*
X52876190Y-42934308D01*
X52876190Y-42934308D02*
X52895237Y-42915260D01*
X52895237Y-42915260D02*
X52914285Y-42877165D01*
X52914285Y-42877165D02*
X52914285Y-42858118D01*
X52914285Y-42858118D02*
X52895237Y-42820022D01*
X52895237Y-42820022D02*
X52876190Y-42800975D01*
X52876190Y-42800975D02*
X52838095Y-42781927D01*
X52838095Y-42781927D02*
X52761904Y-42781927D01*
X52761904Y-42781927D02*
X52723809Y-42800975D01*
X52723809Y-42800975D02*
X52704761Y-42820022D01*
X52704761Y-42820022D02*
X52685714Y-42858118D01*
X52685714Y-42858118D02*
X52685714Y-42877165D01*
X52685714Y-42877165D02*
X52704761Y-42915260D01*
X52704761Y-42915260D02*
X52723809Y-42934308D01*
X52723809Y-42934308D02*
X52761904Y-42953356D01*
X52761904Y-42953356D02*
X52838095Y-42953356D01*
X52838095Y-42953356D02*
X52876190Y-42972403D01*
X52876190Y-42972403D02*
X52895237Y-42991451D01*
X52895237Y-42991451D02*
X52914285Y-43029546D01*
X52914285Y-43029546D02*
X52914285Y-43105737D01*
X52914285Y-43105737D02*
X52895237Y-43143832D01*
X52895237Y-43143832D02*
X52876190Y-43162880D01*
X52876190Y-43162880D02*
X52838095Y-43181927D01*
X52838095Y-43181927D02*
X52761904Y-43181927D01*
X52761904Y-43181927D02*
X52723809Y-43162880D01*
X52723809Y-43162880D02*
X52704761Y-43143832D01*
X52704761Y-43143832D02*
X52685714Y-43105737D01*
X52685714Y-43105737D02*
X52685714Y-43029546D01*
X52685714Y-43029546D02*
X52704761Y-42991451D01*
X52704761Y-42991451D02*
X52723809Y-42972403D01*
X52723809Y-42972403D02*
X52761904Y-42953356D01*
X30066666Y-32181927D02*
X30199999Y-31991451D01*
X30295237Y-32181927D02*
X30295237Y-31781927D01*
X30295237Y-31781927D02*
X30142856Y-31781927D01*
X30142856Y-31781927D02*
X30104761Y-31800975D01*
X30104761Y-31800975D02*
X30085714Y-31820022D01*
X30085714Y-31820022D02*
X30066666Y-31858118D01*
X30066666Y-31858118D02*
X30066666Y-31915260D01*
X30066666Y-31915260D02*
X30085714Y-31953356D01*
X30085714Y-31953356D02*
X30104761Y-31972403D01*
X30104761Y-31972403D02*
X30142856Y-31991451D01*
X30142856Y-31991451D02*
X30295237Y-31991451D01*
X29933333Y-31781927D02*
X29666666Y-31781927D01*
X29666666Y-31781927D02*
X29838095Y-32181927D01*
X66257142Y-42143832D02*
X66276190Y-42162880D01*
X66276190Y-42162880D02*
X66333332Y-42181927D01*
X66333332Y-42181927D02*
X66371428Y-42181927D01*
X66371428Y-42181927D02*
X66428571Y-42162880D01*
X66428571Y-42162880D02*
X66466666Y-42124784D01*
X66466666Y-42124784D02*
X66485713Y-42086689D01*
X66485713Y-42086689D02*
X66504761Y-42010499D01*
X66504761Y-42010499D02*
X66504761Y-41953356D01*
X66504761Y-41953356D02*
X66485713Y-41877165D01*
X66485713Y-41877165D02*
X66466666Y-41839070D01*
X66466666Y-41839070D02*
X66428571Y-41800975D01*
X66428571Y-41800975D02*
X66371428Y-41781927D01*
X66371428Y-41781927D02*
X66333332Y-41781927D01*
X66333332Y-41781927D02*
X66276190Y-41800975D01*
X66276190Y-41800975D02*
X66257142Y-41820022D01*
X65876190Y-42181927D02*
X66104761Y-42181927D01*
X65990475Y-42181927D02*
X65990475Y-41781927D01*
X65990475Y-41781927D02*
X66028571Y-41839070D01*
X66028571Y-41839070D02*
X66066666Y-41877165D01*
X66066666Y-41877165D02*
X66104761Y-41896213D01*
X65742857Y-41781927D02*
X65476190Y-41781927D01*
X65476190Y-41781927D02*
X65647619Y-42181927D01*
X45066666Y-28181927D02*
X45199999Y-27991451D01*
X45295237Y-28181927D02*
X45295237Y-27781927D01*
X45295237Y-27781927D02*
X45142856Y-27781927D01*
X45142856Y-27781927D02*
X45104761Y-27800975D01*
X45104761Y-27800975D02*
X45085714Y-27820022D01*
X45085714Y-27820022D02*
X45066666Y-27858118D01*
X45066666Y-27858118D02*
X45066666Y-27915260D01*
X45066666Y-27915260D02*
X45085714Y-27953356D01*
X45085714Y-27953356D02*
X45104761Y-27972403D01*
X45104761Y-27972403D02*
X45142856Y-27991451D01*
X45142856Y-27991451D02*
X45295237Y-27991451D01*
X44704761Y-27781927D02*
X44895237Y-27781927D01*
X44895237Y-27781927D02*
X44914285Y-27972403D01*
X44914285Y-27972403D02*
X44895237Y-27953356D01*
X44895237Y-27953356D02*
X44857142Y-27934308D01*
X44857142Y-27934308D02*
X44761904Y-27934308D01*
X44761904Y-27934308D02*
X44723809Y-27953356D01*
X44723809Y-27953356D02*
X44704761Y-27972403D01*
X44704761Y-27972403D02*
X44685714Y-28010499D01*
X44685714Y-28010499D02*
X44685714Y-28105737D01*
X44685714Y-28105737D02*
X44704761Y-28143832D01*
X44704761Y-28143832D02*
X44723809Y-28162880D01*
X44723809Y-28162880D02*
X44761904Y-28181927D01*
X44761904Y-28181927D02*
X44857142Y-28181927D01*
X44857142Y-28181927D02*
X44895237Y-28162880D01*
X44895237Y-28162880D02*
X44914285Y-28143832D01*
X44066666Y-36143832D02*
X44085714Y-36162880D01*
X44085714Y-36162880D02*
X44142856Y-36181927D01*
X44142856Y-36181927D02*
X44180952Y-36181927D01*
X44180952Y-36181927D02*
X44238095Y-36162880D01*
X44238095Y-36162880D02*
X44276190Y-36124784D01*
X44276190Y-36124784D02*
X44295237Y-36086689D01*
X44295237Y-36086689D02*
X44314285Y-36010499D01*
X44314285Y-36010499D02*
X44314285Y-35953356D01*
X44314285Y-35953356D02*
X44295237Y-35877165D01*
X44295237Y-35877165D02*
X44276190Y-35839070D01*
X44276190Y-35839070D02*
X44238095Y-35800975D01*
X44238095Y-35800975D02*
X44180952Y-35781927D01*
X44180952Y-35781927D02*
X44142856Y-35781927D01*
X44142856Y-35781927D02*
X44085714Y-35800975D01*
X44085714Y-35800975D02*
X44066666Y-35820022D01*
X43914285Y-35820022D02*
X43895237Y-35800975D01*
X43895237Y-35800975D02*
X43857142Y-35781927D01*
X43857142Y-35781927D02*
X43761904Y-35781927D01*
X43761904Y-35781927D02*
X43723809Y-35800975D01*
X43723809Y-35800975D02*
X43704761Y-35820022D01*
X43704761Y-35820022D02*
X43685714Y-35858118D01*
X43685714Y-35858118D02*
X43685714Y-35896213D01*
X43685714Y-35896213D02*
X43704761Y-35953356D01*
X43704761Y-35953356D02*
X43933333Y-36181927D01*
X43933333Y-36181927D02*
X43685714Y-36181927D01*
X25066666Y-26143832D02*
X25085714Y-26162880D01*
X25085714Y-26162880D02*
X25142856Y-26181927D01*
X25142856Y-26181927D02*
X25180952Y-26181927D01*
X25180952Y-26181927D02*
X25238095Y-26162880D01*
X25238095Y-26162880D02*
X25276190Y-26124784D01*
X25276190Y-26124784D02*
X25295237Y-26086689D01*
X25295237Y-26086689D02*
X25314285Y-26010499D01*
X25314285Y-26010499D02*
X25314285Y-25953356D01*
X25314285Y-25953356D02*
X25295237Y-25877165D01*
X25295237Y-25877165D02*
X25276190Y-25839070D01*
X25276190Y-25839070D02*
X25238095Y-25800975D01*
X25238095Y-25800975D02*
X25180952Y-25781927D01*
X25180952Y-25781927D02*
X25142856Y-25781927D01*
X25142856Y-25781927D02*
X25085714Y-25800975D01*
X25085714Y-25800975D02*
X25066666Y-25820022D01*
X24876190Y-26181927D02*
X24799999Y-26181927D01*
X24799999Y-26181927D02*
X24761904Y-26162880D01*
X24761904Y-26162880D02*
X24742856Y-26143832D01*
X24742856Y-26143832D02*
X24704761Y-26086689D01*
X24704761Y-26086689D02*
X24685714Y-26010499D01*
X24685714Y-26010499D02*
X24685714Y-25858118D01*
X24685714Y-25858118D02*
X24704761Y-25820022D01*
X24704761Y-25820022D02*
X24723809Y-25800975D01*
X24723809Y-25800975D02*
X24761904Y-25781927D01*
X24761904Y-25781927D02*
X24838095Y-25781927D01*
X24838095Y-25781927D02*
X24876190Y-25800975D01*
X24876190Y-25800975D02*
X24895237Y-25820022D01*
X24895237Y-25820022D02*
X24914285Y-25858118D01*
X24914285Y-25858118D02*
X24914285Y-25953356D01*
X24914285Y-25953356D02*
X24895237Y-25991451D01*
X24895237Y-25991451D02*
X24876190Y-26010499D01*
X24876190Y-26010499D02*
X24838095Y-26029546D01*
X24838095Y-26029546D02*
X24761904Y-26029546D01*
X24761904Y-26029546D02*
X24723809Y-26010499D01*
X24723809Y-26010499D02*
X24704761Y-25991451D01*
X24704761Y-25991451D02*
X24685714Y-25953356D01*
X42066666Y-44643832D02*
X42085714Y-44662880D01*
X42085714Y-44662880D02*
X42142856Y-44681927D01*
X42142856Y-44681927D02*
X42180952Y-44681927D01*
X42180952Y-44681927D02*
X42238095Y-44662880D01*
X42238095Y-44662880D02*
X42276190Y-44624784D01*
X42276190Y-44624784D02*
X42295237Y-44586689D01*
X42295237Y-44586689D02*
X42314285Y-44510499D01*
X42314285Y-44510499D02*
X42314285Y-44453356D01*
X42314285Y-44453356D02*
X42295237Y-44377165D01*
X42295237Y-44377165D02*
X42276190Y-44339070D01*
X42276190Y-44339070D02*
X42238095Y-44300975D01*
X42238095Y-44300975D02*
X42180952Y-44281927D01*
X42180952Y-44281927D02*
X42142856Y-44281927D01*
X42142856Y-44281927D02*
X42085714Y-44300975D01*
X42085714Y-44300975D02*
X42066666Y-44320022D01*
X41933333Y-44281927D02*
X41666666Y-44281927D01*
X41666666Y-44281927D02*
X41838095Y-44681927D01*
D10*
X38761904Y-23454819D02*
X38761904Y-24264342D01*
X38761904Y-24264342D02*
X38714285Y-24359580D01*
X38714285Y-24359580D02*
X38666666Y-24407200D01*
X38666666Y-24407200D02*
X38571428Y-24454819D01*
X38571428Y-24454819D02*
X38380952Y-24454819D01*
X38380952Y-24454819D02*
X38285714Y-24407200D01*
X38285714Y-24407200D02*
X38238095Y-24359580D01*
X38238095Y-24359580D02*
X38190476Y-24264342D01*
X38190476Y-24264342D02*
X38190476Y-23454819D01*
X37761904Y-23550057D02*
X37714285Y-23502438D01*
X37714285Y-23502438D02*
X37619047Y-23454819D01*
X37619047Y-23454819D02*
X37380952Y-23454819D01*
X37380952Y-23454819D02*
X37285714Y-23502438D01*
X37285714Y-23502438D02*
X37238095Y-23550057D01*
X37238095Y-23550057D02*
X37190476Y-23645295D01*
X37190476Y-23645295D02*
X37190476Y-23740533D01*
X37190476Y-23740533D02*
X37238095Y-23883390D01*
X37238095Y-23883390D02*
X37809523Y-24454819D01*
X37809523Y-24454819D02*
X37190476Y-24454819D01*
D11*
X60257142Y-39143832D02*
X60276190Y-39162880D01*
X60276190Y-39162880D02*
X60333332Y-39181927D01*
X60333332Y-39181927D02*
X60371428Y-39181927D01*
X60371428Y-39181927D02*
X60428571Y-39162880D01*
X60428571Y-39162880D02*
X60466666Y-39124784D01*
X60466666Y-39124784D02*
X60485713Y-39086689D01*
X60485713Y-39086689D02*
X60504761Y-39010499D01*
X60504761Y-39010499D02*
X60504761Y-38953356D01*
X60504761Y-38953356D02*
X60485713Y-38877165D01*
X60485713Y-38877165D02*
X60466666Y-38839070D01*
X60466666Y-38839070D02*
X60428571Y-38800975D01*
X60428571Y-38800975D02*
X60371428Y-38781927D01*
X60371428Y-38781927D02*
X60333332Y-38781927D01*
X60333332Y-38781927D02*
X60276190Y-38800975D01*
X60276190Y-38800975D02*
X60257142Y-38820022D01*
X59876190Y-39181927D02*
X60104761Y-39181927D01*
X59990475Y-39181927D02*
X59990475Y-38781927D01*
X59990475Y-38781927D02*
X60028571Y-38839070D01*
X60028571Y-38839070D02*
X60066666Y-38877165D01*
X60066666Y-38877165D02*
X60104761Y-38896213D01*
X59495238Y-39181927D02*
X59723809Y-39181927D01*
X59609523Y-39181927D02*
X59609523Y-38781927D01*
X59609523Y-38781927D02*
X59647619Y-38839070D01*
X59647619Y-38839070D02*
X59685714Y-38877165D01*
X59685714Y-38877165D02*
X59723809Y-38896213D01*
D12*
X24380951Y-31982902D02*
X24380951Y-32363855D01*
X24647618Y-31563855D02*
X24380951Y-31982902D01*
X24380951Y-31982902D02*
X24114285Y-31563855D01*
X23428571Y-32363855D02*
X23885714Y-32363855D01*
X23657142Y-32363855D02*
X23657142Y-31563855D01*
X23657142Y-31563855D02*
X23733333Y-31678140D01*
X23733333Y-31678140D02*
X23809523Y-31754331D01*
X23809523Y-31754331D02*
X23885714Y-31792426D01*
D10*
X21454819Y-38238095D02*
X22264342Y-38238095D01*
X22264342Y-38238095D02*
X22359580Y-38285714D01*
X22359580Y-38285714D02*
X22407200Y-38333333D01*
X22407200Y-38333333D02*
X22454819Y-38428571D01*
X22454819Y-38428571D02*
X22454819Y-38619047D01*
X22454819Y-38619047D02*
X22407200Y-38714285D01*
X22407200Y-38714285D02*
X22359580Y-38761904D01*
X22359580Y-38761904D02*
X22264342Y-38809523D01*
X22264342Y-38809523D02*
X21454819Y-38809523D01*
X21454819Y-39190476D02*
X21454819Y-39809523D01*
X21454819Y-39809523D02*
X21835771Y-39476190D01*
X21835771Y-39476190D02*
X21835771Y-39619047D01*
X21835771Y-39619047D02*
X21883390Y-39714285D01*
X21883390Y-39714285D02*
X21931009Y-39761904D01*
X21931009Y-39761904D02*
X22026247Y-39809523D01*
X22026247Y-39809523D02*
X22264342Y-39809523D01*
X22264342Y-39809523D02*
X22359580Y-39761904D01*
X22359580Y-39761904D02*
X22407200Y-39714285D01*
X22407200Y-39714285D02*
X22454819Y-39619047D01*
X22454819Y-39619047D02*
X22454819Y-39333333D01*
X22454819Y-39333333D02*
X22407200Y-39238095D01*
X22407200Y-39238095D02*
X22359580Y-39190476D01*
D11*
X20066666Y-34143832D02*
X20085714Y-34162880D01*
X20085714Y-34162880D02*
X20142856Y-34181927D01*
X20142856Y-34181927D02*
X20180952Y-34181927D01*
X20180952Y-34181927D02*
X20238095Y-34162880D01*
X20238095Y-34162880D02*
X20276190Y-34124784D01*
X20276190Y-34124784D02*
X20295237Y-34086689D01*
X20295237Y-34086689D02*
X20314285Y-34010499D01*
X20314285Y-34010499D02*
X20314285Y-33953356D01*
X20314285Y-33953356D02*
X20295237Y-33877165D01*
X20295237Y-33877165D02*
X20276190Y-33839070D01*
X20276190Y-33839070D02*
X20238095Y-33800975D01*
X20238095Y-33800975D02*
X20180952Y-33781927D01*
X20180952Y-33781927D02*
X20142856Y-33781927D01*
X20142856Y-33781927D02*
X20085714Y-33800975D01*
X20085714Y-33800975D02*
X20066666Y-33820022D01*
X19704761Y-33781927D02*
X19895237Y-33781927D01*
X19895237Y-33781927D02*
X19914285Y-33972403D01*
X19914285Y-33972403D02*
X19895237Y-33953356D01*
X19895237Y-33953356D02*
X19857142Y-33934308D01*
X19857142Y-33934308D02*
X19761904Y-33934308D01*
X19761904Y-33934308D02*
X19723809Y-33953356D01*
X19723809Y-33953356D02*
X19704761Y-33972403D01*
X19704761Y-33972403D02*
X19685714Y-34010499D01*
X19685714Y-34010499D02*
X19685714Y-34105737D01*
X19685714Y-34105737D02*
X19704761Y-34143832D01*
X19704761Y-34143832D02*
X19723809Y-34162880D01*
X19723809Y-34162880D02*
X19761904Y-34181927D01*
X19761904Y-34181927D02*
X19857142Y-34181927D01*
X19857142Y-34181927D02*
X19895237Y-34162880D01*
X19895237Y-34162880D02*
X19914285Y-34143832D01*
X54066666Y-28181927D02*
X54199999Y-27991451D01*
X54295237Y-28181927D02*
X54295237Y-27781927D01*
X54295237Y-27781927D02*
X54142856Y-27781927D01*
X54142856Y-27781927D02*
X54104761Y-27800975D01*
X54104761Y-27800975D02*
X54085714Y-27820022D01*
X54085714Y-27820022D02*
X54066666Y-27858118D01*
X54066666Y-27858118D02*
X54066666Y-27915260D01*
X54066666Y-27915260D02*
X54085714Y-27953356D01*
X54085714Y-27953356D02*
X54104761Y-27972403D01*
X54104761Y-27972403D02*
X54142856Y-27991451D01*
X54142856Y-27991451D02*
X54295237Y-27991451D01*
X53838095Y-27953356D02*
X53876190Y-27934308D01*
X53876190Y-27934308D02*
X53895237Y-27915260D01*
X53895237Y-27915260D02*
X53914285Y-27877165D01*
X53914285Y-27877165D02*
X53914285Y-27858118D01*
X53914285Y-27858118D02*
X53895237Y-27820022D01*
X53895237Y-27820022D02*
X53876190Y-27800975D01*
X53876190Y-27800975D02*
X53838095Y-27781927D01*
X53838095Y-27781927D02*
X53761904Y-27781927D01*
X53761904Y-27781927D02*
X53723809Y-27800975D01*
X53723809Y-27800975D02*
X53704761Y-27820022D01*
X53704761Y-27820022D02*
X53685714Y-27858118D01*
X53685714Y-27858118D02*
X53685714Y-27877165D01*
X53685714Y-27877165D02*
X53704761Y-27915260D01*
X53704761Y-27915260D02*
X53723809Y-27934308D01*
X53723809Y-27934308D02*
X53761904Y-27953356D01*
X53761904Y-27953356D02*
X53838095Y-27953356D01*
X53838095Y-27953356D02*
X53876190Y-27972403D01*
X53876190Y-27972403D02*
X53895237Y-27991451D01*
X53895237Y-27991451D02*
X53914285Y-28029546D01*
X53914285Y-28029546D02*
X53914285Y-28105737D01*
X53914285Y-28105737D02*
X53895237Y-28143832D01*
X53895237Y-28143832D02*
X53876190Y-28162880D01*
X53876190Y-28162880D02*
X53838095Y-28181927D01*
X53838095Y-28181927D02*
X53761904Y-28181927D01*
X53761904Y-28181927D02*
X53723809Y-28162880D01*
X53723809Y-28162880D02*
X53704761Y-28143832D01*
X53704761Y-28143832D02*
X53685714Y-28105737D01*
X53685714Y-28105737D02*
X53685714Y-28029546D01*
X53685714Y-28029546D02*
X53704761Y-27991451D01*
X53704761Y-27991451D02*
X53723809Y-27972403D01*
X53723809Y-27972403D02*
X53761904Y-27953356D01*
X50066666Y-49181927D02*
X50199999Y-48991451D01*
X50295237Y-49181927D02*
X50295237Y-48781927D01*
X50295237Y-48781927D02*
X50142856Y-48781927D01*
X50142856Y-48781927D02*
X50104761Y-48800975D01*
X50104761Y-48800975D02*
X50085714Y-48820022D01*
X50085714Y-48820022D02*
X50066666Y-48858118D01*
X50066666Y-48858118D02*
X50066666Y-48915260D01*
X50066666Y-48915260D02*
X50085714Y-48953356D01*
X50085714Y-48953356D02*
X50104761Y-48972403D01*
X50104761Y-48972403D02*
X50142856Y-48991451D01*
X50142856Y-48991451D02*
X50295237Y-48991451D01*
X49933333Y-48781927D02*
X49685714Y-48781927D01*
X49685714Y-48781927D02*
X49819047Y-48934308D01*
X49819047Y-48934308D02*
X49761904Y-48934308D01*
X49761904Y-48934308D02*
X49723809Y-48953356D01*
X49723809Y-48953356D02*
X49704761Y-48972403D01*
X49704761Y-48972403D02*
X49685714Y-49010499D01*
X49685714Y-49010499D02*
X49685714Y-49105737D01*
X49685714Y-49105737D02*
X49704761Y-49143832D01*
X49704761Y-49143832D02*
X49723809Y-49162880D01*
X49723809Y-49162880D02*
X49761904Y-49181927D01*
X49761904Y-49181927D02*
X49876190Y-49181927D01*
X49876190Y-49181927D02*
X49914285Y-49162880D01*
X49914285Y-49162880D02*
X49933333Y-49143832D01*
X56066666Y-34143832D02*
X56085714Y-34162880D01*
X56085714Y-34162880D02*
X56142856Y-34181927D01*
X56142856Y-34181927D02*
X56180952Y-34181927D01*
X56180952Y-34181927D02*
X56238095Y-34162880D01*
X56238095Y-34162880D02*
X56276190Y-34124784D01*
X56276190Y-34124784D02*
X56295237Y-34086689D01*
X56295237Y-34086689D02*
X56314285Y-34010499D01*
X56314285Y-34010499D02*
X56314285Y-33953356D01*
X56314285Y-33953356D02*
X56295237Y-33877165D01*
X56295237Y-33877165D02*
X56276190Y-33839070D01*
X56276190Y-33839070D02*
X56238095Y-33800975D01*
X56238095Y-33800975D02*
X56180952Y-33781927D01*
X56180952Y-33781927D02*
X56142856Y-33781927D01*
X56142856Y-33781927D02*
X56085714Y-33800975D01*
X56085714Y-33800975D02*
X56066666Y-33820022D01*
X55723809Y-33781927D02*
X55799999Y-33781927D01*
X55799999Y-33781927D02*
X55838095Y-33800975D01*
X55838095Y-33800975D02*
X55857142Y-33820022D01*
X55857142Y-33820022D02*
X55895237Y-33877165D01*
X55895237Y-33877165D02*
X55914285Y-33953356D01*
X55914285Y-33953356D02*
X55914285Y-34105737D01*
X55914285Y-34105737D02*
X55895237Y-34143832D01*
X55895237Y-34143832D02*
X55876190Y-34162880D01*
X55876190Y-34162880D02*
X55838095Y-34181927D01*
X55838095Y-34181927D02*
X55761904Y-34181927D01*
X55761904Y-34181927D02*
X55723809Y-34162880D01*
X55723809Y-34162880D02*
X55704761Y-34143832D01*
X55704761Y-34143832D02*
X55685714Y-34105737D01*
X55685714Y-34105737D02*
X55685714Y-34010499D01*
X55685714Y-34010499D02*
X55704761Y-33972403D01*
X55704761Y-33972403D02*
X55723809Y-33953356D01*
X55723809Y-33953356D02*
X55761904Y-33934308D01*
X55761904Y-33934308D02*
X55838095Y-33934308D01*
X55838095Y-33934308D02*
X55876190Y-33953356D01*
X55876190Y-33953356D02*
X55895237Y-33972403D01*
X55895237Y-33972403D02*
X55914285Y-34010499D01*
X46757142Y-40643832D02*
X46776190Y-40662880D01*
X46776190Y-40662880D02*
X46833332Y-40681927D01*
X46833332Y-40681927D02*
X46871428Y-40681927D01*
X46871428Y-40681927D02*
X46928571Y-40662880D01*
X46928571Y-40662880D02*
X46966666Y-40624784D01*
X46966666Y-40624784D02*
X46985713Y-40586689D01*
X46985713Y-40586689D02*
X47004761Y-40510499D01*
X47004761Y-40510499D02*
X47004761Y-40453356D01*
X47004761Y-40453356D02*
X46985713Y-40377165D01*
X46985713Y-40377165D02*
X46966666Y-40339070D01*
X46966666Y-40339070D02*
X46928571Y-40300975D01*
X46928571Y-40300975D02*
X46871428Y-40281927D01*
X46871428Y-40281927D02*
X46833332Y-40281927D01*
X46833332Y-40281927D02*
X46776190Y-40300975D01*
X46776190Y-40300975D02*
X46757142Y-40320022D01*
X46376190Y-40681927D02*
X46604761Y-40681927D01*
X46490475Y-40681927D02*
X46490475Y-40281927D01*
X46490475Y-40281927D02*
X46528571Y-40339070D01*
X46528571Y-40339070D02*
X46566666Y-40377165D01*
X46566666Y-40377165D02*
X46604761Y-40396213D01*
X46147619Y-40453356D02*
X46185714Y-40434308D01*
X46185714Y-40434308D02*
X46204761Y-40415260D01*
X46204761Y-40415260D02*
X46223809Y-40377165D01*
X46223809Y-40377165D02*
X46223809Y-40358118D01*
X46223809Y-40358118D02*
X46204761Y-40320022D01*
X46204761Y-40320022D02*
X46185714Y-40300975D01*
X46185714Y-40300975D02*
X46147619Y-40281927D01*
X46147619Y-40281927D02*
X46071428Y-40281927D01*
X46071428Y-40281927D02*
X46033333Y-40300975D01*
X46033333Y-40300975D02*
X46014285Y-40320022D01*
X46014285Y-40320022D02*
X45995238Y-40358118D01*
X45995238Y-40358118D02*
X45995238Y-40377165D01*
X45995238Y-40377165D02*
X46014285Y-40415260D01*
X46014285Y-40415260D02*
X46033333Y-40434308D01*
X46033333Y-40434308D02*
X46071428Y-40453356D01*
X46071428Y-40453356D02*
X46147619Y-40453356D01*
X46147619Y-40453356D02*
X46185714Y-40472403D01*
X46185714Y-40472403D02*
X46204761Y-40491451D01*
X46204761Y-40491451D02*
X46223809Y-40529546D01*
X46223809Y-40529546D02*
X46223809Y-40605737D01*
X46223809Y-40605737D02*
X46204761Y-40643832D01*
X46204761Y-40643832D02*
X46185714Y-40662880D01*
X46185714Y-40662880D02*
X46147619Y-40681927D01*
X46147619Y-40681927D02*
X46071428Y-40681927D01*
X46071428Y-40681927D02*
X46033333Y-40662880D01*
X46033333Y-40662880D02*
X46014285Y-40643832D01*
X46014285Y-40643832D02*
X45995238Y-40605737D01*
X45995238Y-40605737D02*
X45995238Y-40529546D01*
X45995238Y-40529546D02*
X46014285Y-40491451D01*
X46014285Y-40491451D02*
X46033333Y-40472403D01*
X46033333Y-40472403D02*
X46071428Y-40453356D01*
D10*
X5261904Y-25904819D02*
X4690476Y-25904819D01*
X4976190Y-26904819D02*
X4976190Y-25904819D01*
X4357142Y-26904819D02*
X4357142Y-25904819D01*
X4357142Y-25904819D02*
X3976190Y-25904819D01*
X3976190Y-25904819D02*
X3880952Y-25952438D01*
X3880952Y-25952438D02*
X3833333Y-26000057D01*
X3833333Y-26000057D02*
X3785714Y-26095295D01*
X3785714Y-26095295D02*
X3785714Y-26238152D01*
X3785714Y-26238152D02*
X3833333Y-26333390D01*
X3833333Y-26333390D02*
X3880952Y-26381009D01*
X3880952Y-26381009D02*
X3976190Y-26428628D01*
X3976190Y-26428628D02*
X4357142Y-26428628D01*
X2880952Y-25904819D02*
X3357142Y-25904819D01*
X3357142Y-25904819D02*
X3404761Y-26381009D01*
X3404761Y-26381009D02*
X3357142Y-26333390D01*
X3357142Y-26333390D02*
X3261904Y-26285771D01*
X3261904Y-26285771D02*
X3023809Y-26285771D01*
X3023809Y-26285771D02*
X2928571Y-26333390D01*
X2928571Y-26333390D02*
X2880952Y-26381009D01*
X2880952Y-26381009D02*
X2833333Y-26476247D01*
X2833333Y-26476247D02*
X2833333Y-26714342D01*
X2833333Y-26714342D02*
X2880952Y-26809580D01*
X2880952Y-26809580D02*
X2928571Y-26857200D01*
X2928571Y-26857200D02*
X3023809Y-26904819D01*
X3023809Y-26904819D02*
X3261904Y-26904819D01*
X3261904Y-26904819D02*
X3357142Y-26857200D01*
X3357142Y-26857200D02*
X3404761Y-26809580D01*
X15738094Y-50904819D02*
X15166666Y-50904819D01*
X15452380Y-51904819D02*
X15452380Y-50904819D01*
X14833332Y-51904819D02*
X14833332Y-50904819D01*
X14833332Y-50904819D02*
X14452380Y-50904819D01*
X14452380Y-50904819D02*
X14357142Y-50952438D01*
X14357142Y-50952438D02*
X14309523Y-51000057D01*
X14309523Y-51000057D02*
X14261904Y-51095295D01*
X14261904Y-51095295D02*
X14261904Y-51238152D01*
X14261904Y-51238152D02*
X14309523Y-51333390D01*
X14309523Y-51333390D02*
X14357142Y-51381009D01*
X14357142Y-51381009D02*
X14452380Y-51428628D01*
X14452380Y-51428628D02*
X14833332Y-51428628D01*
X13309523Y-51904819D02*
X13880951Y-51904819D01*
X13595237Y-51904819D02*
X13595237Y-50904819D01*
X13595237Y-50904819D02*
X13690475Y-51047676D01*
X13690475Y-51047676D02*
X13785713Y-51142914D01*
X13785713Y-51142914D02*
X13880951Y-51190533D01*
X12690475Y-50904819D02*
X12595237Y-50904819D01*
X12595237Y-50904819D02*
X12499999Y-50952438D01*
X12499999Y-50952438D02*
X12452380Y-51000057D01*
X12452380Y-51000057D02*
X12404761Y-51095295D01*
X12404761Y-51095295D02*
X12357142Y-51285771D01*
X12357142Y-51285771D02*
X12357142Y-51523866D01*
X12357142Y-51523866D02*
X12404761Y-51714342D01*
X12404761Y-51714342D02*
X12452380Y-51809580D01*
X12452380Y-51809580D02*
X12499999Y-51857200D01*
X12499999Y-51857200D02*
X12595237Y-51904819D01*
X12595237Y-51904819D02*
X12690475Y-51904819D01*
X12690475Y-51904819D02*
X12785713Y-51857200D01*
X12785713Y-51857200D02*
X12833332Y-51809580D01*
X12833332Y-51809580D02*
X12880951Y-51714342D01*
X12880951Y-51714342D02*
X12928570Y-51523866D01*
X12928570Y-51523866D02*
X12928570Y-51285771D01*
X12928570Y-51285771D02*
X12880951Y-51095295D01*
X12880951Y-51095295D02*
X12833332Y-51000057D01*
X12833332Y-51000057D02*
X12785713Y-50952438D01*
X12785713Y-50952438D02*
X12690475Y-50904819D01*
D11*
X49066666Y-44181927D02*
X49199999Y-43991451D01*
X49295237Y-44181927D02*
X49295237Y-43781927D01*
X49295237Y-43781927D02*
X49142856Y-43781927D01*
X49142856Y-43781927D02*
X49104761Y-43800975D01*
X49104761Y-43800975D02*
X49085714Y-43820022D01*
X49085714Y-43820022D02*
X49066666Y-43858118D01*
X49066666Y-43858118D02*
X49066666Y-43915260D01*
X49066666Y-43915260D02*
X49085714Y-43953356D01*
X49085714Y-43953356D02*
X49104761Y-43972403D01*
X49104761Y-43972403D02*
X49142856Y-43991451D01*
X49142856Y-43991451D02*
X49295237Y-43991451D01*
X48914285Y-43820022D02*
X48895237Y-43800975D01*
X48895237Y-43800975D02*
X48857142Y-43781927D01*
X48857142Y-43781927D02*
X48761904Y-43781927D01*
X48761904Y-43781927D02*
X48723809Y-43800975D01*
X48723809Y-43800975D02*
X48704761Y-43820022D01*
X48704761Y-43820022D02*
X48685714Y-43858118D01*
X48685714Y-43858118D02*
X48685714Y-43896213D01*
X48685714Y-43896213D02*
X48704761Y-43953356D01*
X48704761Y-43953356D02*
X48933333Y-44181927D01*
X48933333Y-44181927D02*
X48685714Y-44181927D01*
D10*
X62333332Y-48407200D02*
X62190475Y-48454819D01*
X62190475Y-48454819D02*
X61952380Y-48454819D01*
X61952380Y-48454819D02*
X61857142Y-48407200D01*
X61857142Y-48407200D02*
X61809523Y-48359580D01*
X61809523Y-48359580D02*
X61761904Y-48264342D01*
X61761904Y-48264342D02*
X61761904Y-48169104D01*
X61761904Y-48169104D02*
X61809523Y-48073866D01*
X61809523Y-48073866D02*
X61857142Y-48026247D01*
X61857142Y-48026247D02*
X61952380Y-47978628D01*
X61952380Y-47978628D02*
X62142856Y-47931009D01*
X62142856Y-47931009D02*
X62238094Y-47883390D01*
X62238094Y-47883390D02*
X62285713Y-47835771D01*
X62285713Y-47835771D02*
X62333332Y-47740533D01*
X62333332Y-47740533D02*
X62333332Y-47645295D01*
X62333332Y-47645295D02*
X62285713Y-47550057D01*
X62285713Y-47550057D02*
X62238094Y-47502438D01*
X62238094Y-47502438D02*
X62142856Y-47454819D01*
X62142856Y-47454819D02*
X61904761Y-47454819D01*
X61904761Y-47454819D02*
X61761904Y-47502438D01*
X61428570Y-47454819D02*
X61190475Y-48454819D01*
X61190475Y-48454819D02*
X60999999Y-47740533D01*
X60999999Y-47740533D02*
X60809523Y-48454819D01*
X60809523Y-48454819D02*
X60571428Y-47454819D01*
X59666666Y-48454819D02*
X60238094Y-48454819D01*
X59952380Y-48454819D02*
X59952380Y-47454819D01*
X59952380Y-47454819D02*
X60047618Y-47597676D01*
X60047618Y-47597676D02*
X60142856Y-47692914D01*
X60142856Y-47692914D02*
X60238094Y-47740533D01*
X5261904Y-21904819D02*
X4690476Y-21904819D01*
X4976190Y-22904819D02*
X4976190Y-21904819D01*
X4357142Y-22904819D02*
X4357142Y-21904819D01*
X4357142Y-21904819D02*
X3976190Y-21904819D01*
X3976190Y-21904819D02*
X3880952Y-21952438D01*
X3880952Y-21952438D02*
X3833333Y-22000057D01*
X3833333Y-22000057D02*
X3785714Y-22095295D01*
X3785714Y-22095295D02*
X3785714Y-22238152D01*
X3785714Y-22238152D02*
X3833333Y-22333390D01*
X3833333Y-22333390D02*
X3880952Y-22381009D01*
X3880952Y-22381009D02*
X3976190Y-22428628D01*
X3976190Y-22428628D02*
X4357142Y-22428628D01*
X2928571Y-22238152D02*
X2928571Y-22904819D01*
X3166666Y-21857200D02*
X3404761Y-22571485D01*
X3404761Y-22571485D02*
X2785714Y-22571485D01*
D11*
X32066666Y-36143832D02*
X32085714Y-36162880D01*
X32085714Y-36162880D02*
X32142856Y-36181927D01*
X32142856Y-36181927D02*
X32180952Y-36181927D01*
X32180952Y-36181927D02*
X32238095Y-36162880D01*
X32238095Y-36162880D02*
X32276190Y-36124784D01*
X32276190Y-36124784D02*
X32295237Y-36086689D01*
X32295237Y-36086689D02*
X32314285Y-36010499D01*
X32314285Y-36010499D02*
X32314285Y-35953356D01*
X32314285Y-35953356D02*
X32295237Y-35877165D01*
X32295237Y-35877165D02*
X32276190Y-35839070D01*
X32276190Y-35839070D02*
X32238095Y-35800975D01*
X32238095Y-35800975D02*
X32180952Y-35781927D01*
X32180952Y-35781927D02*
X32142856Y-35781927D01*
X32142856Y-35781927D02*
X32085714Y-35800975D01*
X32085714Y-35800975D02*
X32066666Y-35820022D01*
X31685714Y-36181927D02*
X31914285Y-36181927D01*
X31799999Y-36181927D02*
X31799999Y-35781927D01*
X31799999Y-35781927D02*
X31838095Y-35839070D01*
X31838095Y-35839070D02*
X31876190Y-35877165D01*
X31876190Y-35877165D02*
X31914285Y-35896213D01*
D10*
X38761904Y-38454819D02*
X38761904Y-39264342D01*
X38761904Y-39264342D02*
X38714285Y-39359580D01*
X38714285Y-39359580D02*
X38666666Y-39407200D01*
X38666666Y-39407200D02*
X38571428Y-39454819D01*
X38571428Y-39454819D02*
X38380952Y-39454819D01*
X38380952Y-39454819D02*
X38285714Y-39407200D01*
X38285714Y-39407200D02*
X38238095Y-39359580D01*
X38238095Y-39359580D02*
X38190476Y-39264342D01*
X38190476Y-39264342D02*
X38190476Y-38454819D01*
X37190476Y-39454819D02*
X37761904Y-39454819D01*
X37476190Y-39454819D02*
X37476190Y-38454819D01*
X37476190Y-38454819D02*
X37571428Y-38597676D01*
X37571428Y-38597676D02*
X37666666Y-38692914D01*
X37666666Y-38692914D02*
X37761904Y-38740533D01*
D11*
X45066666Y-44181927D02*
X45199999Y-43991451D01*
X45295237Y-44181927D02*
X45295237Y-43781927D01*
X45295237Y-43781927D02*
X45142856Y-43781927D01*
X45142856Y-43781927D02*
X45104761Y-43800975D01*
X45104761Y-43800975D02*
X45085714Y-43820022D01*
X45085714Y-43820022D02*
X45066666Y-43858118D01*
X45066666Y-43858118D02*
X45066666Y-43915260D01*
X45066666Y-43915260D02*
X45085714Y-43953356D01*
X45085714Y-43953356D02*
X45104761Y-43972403D01*
X45104761Y-43972403D02*
X45142856Y-43991451D01*
X45142856Y-43991451D02*
X45295237Y-43991451D01*
X44685714Y-44181927D02*
X44914285Y-44181927D01*
X44799999Y-44181927D02*
X44799999Y-43781927D01*
X44799999Y-43781927D02*
X44838095Y-43839070D01*
X44838095Y-43839070D02*
X44876190Y-43877165D01*
X44876190Y-43877165D02*
X44914285Y-43896213D01*
D10*
X5261904Y-29904819D02*
X4690476Y-29904819D01*
X4976190Y-30904819D02*
X4976190Y-29904819D01*
X4357142Y-30904819D02*
X4357142Y-29904819D01*
X4357142Y-29904819D02*
X3976190Y-29904819D01*
X3976190Y-29904819D02*
X3880952Y-29952438D01*
X3880952Y-29952438D02*
X3833333Y-30000057D01*
X3833333Y-30000057D02*
X3785714Y-30095295D01*
X3785714Y-30095295D02*
X3785714Y-30238152D01*
X3785714Y-30238152D02*
X3833333Y-30333390D01*
X3833333Y-30333390D02*
X3880952Y-30381009D01*
X3880952Y-30381009D02*
X3976190Y-30428628D01*
X3976190Y-30428628D02*
X4357142Y-30428628D01*
X2928571Y-29904819D02*
X3119047Y-29904819D01*
X3119047Y-29904819D02*
X3214285Y-29952438D01*
X3214285Y-29952438D02*
X3261904Y-30000057D01*
X3261904Y-30000057D02*
X3357142Y-30142914D01*
X3357142Y-30142914D02*
X3404761Y-30333390D01*
X3404761Y-30333390D02*
X3404761Y-30714342D01*
X3404761Y-30714342D02*
X3357142Y-30809580D01*
X3357142Y-30809580D02*
X3309523Y-30857200D01*
X3309523Y-30857200D02*
X3214285Y-30904819D01*
X3214285Y-30904819D02*
X3023809Y-30904819D01*
X3023809Y-30904819D02*
X2928571Y-30857200D01*
X2928571Y-30857200D02*
X2880952Y-30809580D01*
X2880952Y-30809580D02*
X2833333Y-30714342D01*
X2833333Y-30714342D02*
X2833333Y-30476247D01*
X2833333Y-30476247D02*
X2880952Y-30381009D01*
X2880952Y-30381009D02*
X2928571Y-30333390D01*
X2928571Y-30333390D02*
X3023809Y-30285771D01*
X3023809Y-30285771D02*
X3214285Y-30285771D01*
X3214285Y-30285771D02*
X3309523Y-30333390D01*
X3309523Y-30333390D02*
X3357142Y-30381009D01*
X3357142Y-30381009D02*
X3404761Y-30476247D01*
X27738094Y-52904819D02*
X27166666Y-52904819D01*
X27452380Y-53904819D02*
X27452380Y-52904819D01*
X26833332Y-53904819D02*
X26833332Y-52904819D01*
X26833332Y-52904819D02*
X26452380Y-52904819D01*
X26452380Y-52904819D02*
X26357142Y-52952438D01*
X26357142Y-52952438D02*
X26309523Y-53000057D01*
X26309523Y-53000057D02*
X26261904Y-53095295D01*
X26261904Y-53095295D02*
X26261904Y-53238152D01*
X26261904Y-53238152D02*
X26309523Y-53333390D01*
X26309523Y-53333390D02*
X26357142Y-53381009D01*
X26357142Y-53381009D02*
X26452380Y-53428628D01*
X26452380Y-53428628D02*
X26833332Y-53428628D01*
X25309523Y-53904819D02*
X25880951Y-53904819D01*
X25595237Y-53904819D02*
X25595237Y-52904819D01*
X25595237Y-52904819D02*
X25690475Y-53047676D01*
X25690475Y-53047676D02*
X25785713Y-53142914D01*
X25785713Y-53142914D02*
X25880951Y-53190533D01*
X24976189Y-52904819D02*
X24357142Y-52904819D01*
X24357142Y-52904819D02*
X24690475Y-53285771D01*
X24690475Y-53285771D02*
X24547618Y-53285771D01*
X24547618Y-53285771D02*
X24452380Y-53333390D01*
X24452380Y-53333390D02*
X24404761Y-53381009D01*
X24404761Y-53381009D02*
X24357142Y-53476247D01*
X24357142Y-53476247D02*
X24357142Y-53714342D01*
X24357142Y-53714342D02*
X24404761Y-53809580D01*
X24404761Y-53809580D02*
X24452380Y-53857200D01*
X24452380Y-53857200D02*
X24547618Y-53904819D01*
X24547618Y-53904819D02*
X24833332Y-53904819D01*
X24833332Y-53904819D02*
X24928570Y-53857200D01*
X24928570Y-53857200D02*
X24976189Y-53809580D01*
D11*
X62257142Y-35143832D02*
X62276190Y-35162880D01*
X62276190Y-35162880D02*
X62333332Y-35181927D01*
X62333332Y-35181927D02*
X62371428Y-35181927D01*
X62371428Y-35181927D02*
X62428571Y-35162880D01*
X62428571Y-35162880D02*
X62466666Y-35124784D01*
X62466666Y-35124784D02*
X62485713Y-35086689D01*
X62485713Y-35086689D02*
X62504761Y-35010499D01*
X62504761Y-35010499D02*
X62504761Y-34953356D01*
X62504761Y-34953356D02*
X62485713Y-34877165D01*
X62485713Y-34877165D02*
X62466666Y-34839070D01*
X62466666Y-34839070D02*
X62428571Y-34800975D01*
X62428571Y-34800975D02*
X62371428Y-34781927D01*
X62371428Y-34781927D02*
X62333332Y-34781927D01*
X62333332Y-34781927D02*
X62276190Y-34800975D01*
X62276190Y-34800975D02*
X62257142Y-34820022D01*
X61876190Y-35181927D02*
X62104761Y-35181927D01*
X61990475Y-35181927D02*
X61990475Y-34781927D01*
X61990475Y-34781927D02*
X62028571Y-34839070D01*
X62028571Y-34839070D02*
X62066666Y-34877165D01*
X62066666Y-34877165D02*
X62104761Y-34896213D01*
X61723809Y-34820022D02*
X61704761Y-34800975D01*
X61704761Y-34800975D02*
X61666666Y-34781927D01*
X61666666Y-34781927D02*
X61571428Y-34781927D01*
X61571428Y-34781927D02*
X61533333Y-34800975D01*
X61533333Y-34800975D02*
X61514285Y-34820022D01*
X61514285Y-34820022D02*
X61495238Y-34858118D01*
X61495238Y-34858118D02*
X61495238Y-34896213D01*
X61495238Y-34896213D02*
X61514285Y-34953356D01*
X61514285Y-34953356D02*
X61742857Y-35181927D01*
X61742857Y-35181927D02*
X61495238Y-35181927D01*
D13*
X55607365Y-38451428D02*
X56190222Y-38451428D01*
X56190222Y-38451428D02*
X56258794Y-38485714D01*
X56258794Y-38485714D02*
X56293080Y-38520000D01*
X56293080Y-38520000D02*
X56327365Y-38588571D01*
X56327365Y-38588571D02*
X56327365Y-38725714D01*
X56327365Y-38725714D02*
X56293080Y-38794285D01*
X56293080Y-38794285D02*
X56258794Y-38828571D01*
X56258794Y-38828571D02*
X56190222Y-38862857D01*
X56190222Y-38862857D02*
X55607365Y-38862857D01*
X55847365Y-39514286D02*
X56327365Y-39514286D01*
X55573080Y-39342857D02*
X56087365Y-39171428D01*
X56087365Y-39171428D02*
X56087365Y-39617143D01*
D11*
X55066666Y-49181927D02*
X55199999Y-48991451D01*
X55295237Y-49181927D02*
X55295237Y-48781927D01*
X55295237Y-48781927D02*
X55142856Y-48781927D01*
X55142856Y-48781927D02*
X55104761Y-48800975D01*
X55104761Y-48800975D02*
X55085714Y-48820022D01*
X55085714Y-48820022D02*
X55066666Y-48858118D01*
X55066666Y-48858118D02*
X55066666Y-48915260D01*
X55066666Y-48915260D02*
X55085714Y-48953356D01*
X55085714Y-48953356D02*
X55104761Y-48972403D01*
X55104761Y-48972403D02*
X55142856Y-48991451D01*
X55142856Y-48991451D02*
X55295237Y-48991451D01*
X54723809Y-48915260D02*
X54723809Y-49181927D01*
X54819047Y-48762880D02*
X54914285Y-49048594D01*
X54914285Y-49048594D02*
X54666666Y-49048594D01*
X49066666Y-28181927D02*
X49199999Y-27991451D01*
X49295237Y-28181927D02*
X49295237Y-27781927D01*
X49295237Y-27781927D02*
X49142856Y-27781927D01*
X49142856Y-27781927D02*
X49104761Y-27800975D01*
X49104761Y-27800975D02*
X49085714Y-27820022D01*
X49085714Y-27820022D02*
X49066666Y-27858118D01*
X49066666Y-27858118D02*
X49066666Y-27915260D01*
X49066666Y-27915260D02*
X49085714Y-27953356D01*
X49085714Y-27953356D02*
X49104761Y-27972403D01*
X49104761Y-27972403D02*
X49142856Y-27991451D01*
X49142856Y-27991451D02*
X49295237Y-27991451D01*
X48723809Y-27781927D02*
X48799999Y-27781927D01*
X48799999Y-27781927D02*
X48838095Y-27800975D01*
X48838095Y-27800975D02*
X48857142Y-27820022D01*
X48857142Y-27820022D02*
X48895237Y-27877165D01*
X48895237Y-27877165D02*
X48914285Y-27953356D01*
X48914285Y-27953356D02*
X48914285Y-28105737D01*
X48914285Y-28105737D02*
X48895237Y-28143832D01*
X48895237Y-28143832D02*
X48876190Y-28162880D01*
X48876190Y-28162880D02*
X48838095Y-28181927D01*
X48838095Y-28181927D02*
X48761904Y-28181927D01*
X48761904Y-28181927D02*
X48723809Y-28162880D01*
X48723809Y-28162880D02*
X48704761Y-28143832D01*
X48704761Y-28143832D02*
X48685714Y-28105737D01*
X48685714Y-28105737D02*
X48685714Y-28010499D01*
X48685714Y-28010499D02*
X48704761Y-27972403D01*
X48704761Y-27972403D02*
X48723809Y-27953356D01*
X48723809Y-27953356D02*
X48761904Y-27934308D01*
X48761904Y-27934308D02*
X48838095Y-27934308D01*
X48838095Y-27934308D02*
X48876190Y-27953356D01*
X48876190Y-27953356D02*
X48895237Y-27972403D01*
X48895237Y-27972403D02*
X48914285Y-28010499D01*
X35257142Y-31143832D02*
X35276190Y-31162880D01*
X35276190Y-31162880D02*
X35333332Y-31181927D01*
X35333332Y-31181927D02*
X35371428Y-31181927D01*
X35371428Y-31181927D02*
X35428571Y-31162880D01*
X35428571Y-31162880D02*
X35466666Y-31124784D01*
X35466666Y-31124784D02*
X35485713Y-31086689D01*
X35485713Y-31086689D02*
X35504761Y-31010499D01*
X35504761Y-31010499D02*
X35504761Y-30953356D01*
X35504761Y-30953356D02*
X35485713Y-30877165D01*
X35485713Y-30877165D02*
X35466666Y-30839070D01*
X35466666Y-30839070D02*
X35428571Y-30800975D01*
X35428571Y-30800975D02*
X35371428Y-30781927D01*
X35371428Y-30781927D02*
X35333332Y-30781927D01*
X35333332Y-30781927D02*
X35276190Y-30800975D01*
X35276190Y-30800975D02*
X35257142Y-30820022D01*
X34876190Y-31181927D02*
X35104761Y-31181927D01*
X34990475Y-31181927D02*
X34990475Y-30781927D01*
X34990475Y-30781927D02*
X35028571Y-30839070D01*
X35028571Y-30839070D02*
X35066666Y-30877165D01*
X35066666Y-30877165D02*
X35104761Y-30896213D01*
X34514285Y-30781927D02*
X34704761Y-30781927D01*
X34704761Y-30781927D02*
X34723809Y-30972403D01*
X34723809Y-30972403D02*
X34704761Y-30953356D01*
X34704761Y-30953356D02*
X34666666Y-30934308D01*
X34666666Y-30934308D02*
X34571428Y-30934308D01*
X34571428Y-30934308D02*
X34533333Y-30953356D01*
X34533333Y-30953356D02*
X34514285Y-30972403D01*
X34514285Y-30972403D02*
X34495238Y-31010499D01*
X34495238Y-31010499D02*
X34495238Y-31105737D01*
X34495238Y-31105737D02*
X34514285Y-31143832D01*
X34514285Y-31143832D02*
X34533333Y-31162880D01*
X34533333Y-31162880D02*
X34571428Y-31181927D01*
X34571428Y-31181927D02*
X34666666Y-31181927D01*
X34666666Y-31181927D02*
X34704761Y-31162880D01*
X34704761Y-31162880D02*
X34723809Y-31143832D01*
D10*
X11261904Y-50904819D02*
X10690476Y-50904819D01*
X10976190Y-51904819D02*
X10976190Y-50904819D01*
X10357142Y-51904819D02*
X10357142Y-50904819D01*
X10357142Y-50904819D02*
X9976190Y-50904819D01*
X9976190Y-50904819D02*
X9880952Y-50952438D01*
X9880952Y-50952438D02*
X9833333Y-51000057D01*
X9833333Y-51000057D02*
X9785714Y-51095295D01*
X9785714Y-51095295D02*
X9785714Y-51238152D01*
X9785714Y-51238152D02*
X9833333Y-51333390D01*
X9833333Y-51333390D02*
X9880952Y-51381009D01*
X9880952Y-51381009D02*
X9976190Y-51428628D01*
X9976190Y-51428628D02*
X10357142Y-51428628D01*
X9309523Y-51904819D02*
X9119047Y-51904819D01*
X9119047Y-51904819D02*
X9023809Y-51857200D01*
X9023809Y-51857200D02*
X8976190Y-51809580D01*
X8976190Y-51809580D02*
X8880952Y-51666723D01*
X8880952Y-51666723D02*
X8833333Y-51476247D01*
X8833333Y-51476247D02*
X8833333Y-51095295D01*
X8833333Y-51095295D02*
X8880952Y-51000057D01*
X8880952Y-51000057D02*
X8928571Y-50952438D01*
X8928571Y-50952438D02*
X9023809Y-50904819D01*
X9023809Y-50904819D02*
X9214285Y-50904819D01*
X9214285Y-50904819D02*
X9309523Y-50952438D01*
X9309523Y-50952438D02*
X9357142Y-51000057D01*
X9357142Y-51000057D02*
X9404761Y-51095295D01*
X9404761Y-51095295D02*
X9404761Y-51333390D01*
X9404761Y-51333390D02*
X9357142Y-51428628D01*
X9357142Y-51428628D02*
X9309523Y-51476247D01*
X9309523Y-51476247D02*
X9214285Y-51523866D01*
X9214285Y-51523866D02*
X9023809Y-51523866D01*
X9023809Y-51523866D02*
X8928571Y-51476247D01*
X8928571Y-51476247D02*
X8880952Y-51428628D01*
X8880952Y-51428628D02*
X8833333Y-51333390D01*
X5261904Y-9904819D02*
X4690476Y-9904819D01*
X4976190Y-10904819D02*
X4976190Y-9904819D01*
X4357142Y-10904819D02*
X4357142Y-9904819D01*
X4357142Y-9904819D02*
X3976190Y-9904819D01*
X3976190Y-9904819D02*
X3880952Y-9952438D01*
X3880952Y-9952438D02*
X3833333Y-10000057D01*
X3833333Y-10000057D02*
X3785714Y-10095295D01*
X3785714Y-10095295D02*
X3785714Y-10238152D01*
X3785714Y-10238152D02*
X3833333Y-10333390D01*
X3833333Y-10333390D02*
X3880952Y-10381009D01*
X3880952Y-10381009D02*
X3976190Y-10428628D01*
X3976190Y-10428628D02*
X4357142Y-10428628D01*
X2833333Y-10904819D02*
X3404761Y-10904819D01*
X3119047Y-10904819D02*
X3119047Y-9904819D01*
X3119047Y-9904819D02*
X3214285Y-10047676D01*
X3214285Y-10047676D02*
X3309523Y-10142914D01*
X3309523Y-10142914D02*
X3404761Y-10190533D01*
D14*
X24190476Y-47863574D02*
X24190476Y-48065955D01*
X24190476Y-48065955D02*
X24178571Y-48089765D01*
X24178571Y-48089765D02*
X24166666Y-48101670D01*
X24166666Y-48101670D02*
X24142857Y-48113574D01*
X24142857Y-48113574D02*
X24095238Y-48113574D01*
X24095238Y-48113574D02*
X24071428Y-48101670D01*
X24071428Y-48101670D02*
X24059523Y-48089765D01*
X24059523Y-48089765D02*
X24047619Y-48065955D01*
X24047619Y-48065955D02*
X24047619Y-47863574D01*
X23821428Y-47863574D02*
X23869047Y-47863574D01*
X23869047Y-47863574D02*
X23892856Y-47875479D01*
X23892856Y-47875479D02*
X23904761Y-47887384D01*
X23904761Y-47887384D02*
X23928571Y-47923098D01*
X23928571Y-47923098D02*
X23940475Y-47970717D01*
X23940475Y-47970717D02*
X23940475Y-48065955D01*
X23940475Y-48065955D02*
X23928571Y-48089765D01*
X23928571Y-48089765D02*
X23916666Y-48101670D01*
X23916666Y-48101670D02*
X23892856Y-48113574D01*
X23892856Y-48113574D02*
X23845237Y-48113574D01*
X23845237Y-48113574D02*
X23821428Y-48101670D01*
X23821428Y-48101670D02*
X23809523Y-48089765D01*
X23809523Y-48089765D02*
X23797618Y-48065955D01*
X23797618Y-48065955D02*
X23797618Y-48006431D01*
X23797618Y-48006431D02*
X23809523Y-47982622D01*
X23809523Y-47982622D02*
X23821428Y-47970717D01*
X23821428Y-47970717D02*
X23845237Y-47958812D01*
X23845237Y-47958812D02*
X23892856Y-47958812D01*
X23892856Y-47958812D02*
X23916666Y-47970717D01*
X23916666Y-47970717D02*
X23928571Y-47982622D01*
X23928571Y-47982622D02*
X23940475Y-48006431D01*
D10*
X5261904Y-37904819D02*
X4690476Y-37904819D01*
X4976190Y-38904819D02*
X4976190Y-37904819D01*
X4357142Y-38904819D02*
X4357142Y-37904819D01*
X4357142Y-37904819D02*
X3976190Y-37904819D01*
X3976190Y-37904819D02*
X3880952Y-37952438D01*
X3880952Y-37952438D02*
X3833333Y-38000057D01*
X3833333Y-38000057D02*
X3785714Y-38095295D01*
X3785714Y-38095295D02*
X3785714Y-38238152D01*
X3785714Y-38238152D02*
X3833333Y-38333390D01*
X3833333Y-38333390D02*
X3880952Y-38381009D01*
X3880952Y-38381009D02*
X3976190Y-38428628D01*
X3976190Y-38428628D02*
X4357142Y-38428628D01*
X3214285Y-38333390D02*
X3309523Y-38285771D01*
X3309523Y-38285771D02*
X3357142Y-38238152D01*
X3357142Y-38238152D02*
X3404761Y-38142914D01*
X3404761Y-38142914D02*
X3404761Y-38095295D01*
X3404761Y-38095295D02*
X3357142Y-38000057D01*
X3357142Y-38000057D02*
X3309523Y-37952438D01*
X3309523Y-37952438D02*
X3214285Y-37904819D01*
X3214285Y-37904819D02*
X3023809Y-37904819D01*
X3023809Y-37904819D02*
X2928571Y-37952438D01*
X2928571Y-37952438D02*
X2880952Y-38000057D01*
X2880952Y-38000057D02*
X2833333Y-38095295D01*
X2833333Y-38095295D02*
X2833333Y-38142914D01*
X2833333Y-38142914D02*
X2880952Y-38238152D01*
X2880952Y-38238152D02*
X2928571Y-38285771D01*
X2928571Y-38285771D02*
X3023809Y-38333390D01*
X3023809Y-38333390D02*
X3214285Y-38333390D01*
X3214285Y-38333390D02*
X3309523Y-38381009D01*
X3309523Y-38381009D02*
X3357142Y-38428628D01*
X3357142Y-38428628D02*
X3404761Y-38523866D01*
X3404761Y-38523866D02*
X3404761Y-38714342D01*
X3404761Y-38714342D02*
X3357142Y-38809580D01*
X3357142Y-38809580D02*
X3309523Y-38857200D01*
X3309523Y-38857200D02*
X3214285Y-38904819D01*
X3214285Y-38904819D02*
X3023809Y-38904819D01*
X3023809Y-38904819D02*
X2928571Y-38857200D01*
X2928571Y-38857200D02*
X2880952Y-38809580D01*
X2880952Y-38809580D02*
X2833333Y-38714342D01*
X2833333Y-38714342D02*
X2833333Y-38523866D01*
X2833333Y-38523866D02*
X2880952Y-38428628D01*
X2880952Y-38428628D02*
X2928571Y-38381009D01*
X2928571Y-38381009D02*
X3023809Y-38333390D01*
D11*
X32066666Y-20143832D02*
X32085714Y-20162880D01*
X32085714Y-20162880D02*
X32142856Y-20181927D01*
X32142856Y-20181927D02*
X32180952Y-20181927D01*
X32180952Y-20181927D02*
X32238095Y-20162880D01*
X32238095Y-20162880D02*
X32276190Y-20124784D01*
X32276190Y-20124784D02*
X32295237Y-20086689D01*
X32295237Y-20086689D02*
X32314285Y-20010499D01*
X32314285Y-20010499D02*
X32314285Y-19953356D01*
X32314285Y-19953356D02*
X32295237Y-19877165D01*
X32295237Y-19877165D02*
X32276190Y-19839070D01*
X32276190Y-19839070D02*
X32238095Y-19800975D01*
X32238095Y-19800975D02*
X32180952Y-19781927D01*
X32180952Y-19781927D02*
X32142856Y-19781927D01*
X32142856Y-19781927D02*
X32085714Y-19800975D01*
X32085714Y-19800975D02*
X32066666Y-19820022D01*
X31933333Y-19781927D02*
X31685714Y-19781927D01*
X31685714Y-19781927D02*
X31819047Y-19934308D01*
X31819047Y-19934308D02*
X31761904Y-19934308D01*
X31761904Y-19934308D02*
X31723809Y-19953356D01*
X31723809Y-19953356D02*
X31704761Y-19972403D01*
X31704761Y-19972403D02*
X31685714Y-20010499D01*
X31685714Y-20010499D02*
X31685714Y-20105737D01*
X31685714Y-20105737D02*
X31704761Y-20143832D01*
X31704761Y-20143832D02*
X31723809Y-20162880D01*
X31723809Y-20162880D02*
X31761904Y-20181927D01*
X31761904Y-20181927D02*
X31876190Y-20181927D01*
X31876190Y-20181927D02*
X31914285Y-20162880D01*
X31914285Y-20162880D02*
X31933333Y-20143832D01*
D10*
X29761904Y-48954819D02*
X29761904Y-49764342D01*
X29761904Y-49764342D02*
X29714285Y-49859580D01*
X29714285Y-49859580D02*
X29666666Y-49907200D01*
X29666666Y-49907200D02*
X29571428Y-49954819D01*
X29571428Y-49954819D02*
X29380952Y-49954819D01*
X29380952Y-49954819D02*
X29285714Y-49907200D01*
X29285714Y-49907200D02*
X29238095Y-49859580D01*
X29238095Y-49859580D02*
X29190476Y-49764342D01*
X29190476Y-49764342D02*
X29190476Y-48954819D01*
X28238095Y-48954819D02*
X28714285Y-48954819D01*
X28714285Y-48954819D02*
X28761904Y-49431009D01*
X28761904Y-49431009D02*
X28714285Y-49383390D01*
X28714285Y-49383390D02*
X28619047Y-49335771D01*
X28619047Y-49335771D02*
X28380952Y-49335771D01*
X28380952Y-49335771D02*
X28285714Y-49383390D01*
X28285714Y-49383390D02*
X28238095Y-49431009D01*
X28238095Y-49431009D02*
X28190476Y-49526247D01*
X28190476Y-49526247D02*
X28190476Y-49764342D01*
X28190476Y-49764342D02*
X28238095Y-49859580D01*
X28238095Y-49859580D02*
X28285714Y-49907200D01*
X28285714Y-49907200D02*
X28380952Y-49954819D01*
X28380952Y-49954819D02*
X28619047Y-49954819D01*
X28619047Y-49954819D02*
X28714285Y-49907200D01*
X28714285Y-49907200D02*
X28761904Y-49859580D01*
X70333332Y-48407200D02*
X70190475Y-48454819D01*
X70190475Y-48454819D02*
X69952380Y-48454819D01*
X69952380Y-48454819D02*
X69857142Y-48407200D01*
X69857142Y-48407200D02*
X69809523Y-48359580D01*
X69809523Y-48359580D02*
X69761904Y-48264342D01*
X69761904Y-48264342D02*
X69761904Y-48169104D01*
X69761904Y-48169104D02*
X69809523Y-48073866D01*
X69809523Y-48073866D02*
X69857142Y-48026247D01*
X69857142Y-48026247D02*
X69952380Y-47978628D01*
X69952380Y-47978628D02*
X70142856Y-47931009D01*
X70142856Y-47931009D02*
X70238094Y-47883390D01*
X70238094Y-47883390D02*
X70285713Y-47835771D01*
X70285713Y-47835771D02*
X70333332Y-47740533D01*
X70333332Y-47740533D02*
X70333332Y-47645295D01*
X70333332Y-47645295D02*
X70285713Y-47550057D01*
X70285713Y-47550057D02*
X70238094Y-47502438D01*
X70238094Y-47502438D02*
X70142856Y-47454819D01*
X70142856Y-47454819D02*
X69904761Y-47454819D01*
X69904761Y-47454819D02*
X69761904Y-47502438D01*
X69428570Y-47454819D02*
X69190475Y-48454819D01*
X69190475Y-48454819D02*
X68999999Y-47740533D01*
X68999999Y-47740533D02*
X68809523Y-48454819D01*
X68809523Y-48454819D02*
X68571428Y-47454819D01*
X68238094Y-47550057D02*
X68190475Y-47502438D01*
X68190475Y-47502438D02*
X68095237Y-47454819D01*
X68095237Y-47454819D02*
X67857142Y-47454819D01*
X67857142Y-47454819D02*
X67761904Y-47502438D01*
X67761904Y-47502438D02*
X67714285Y-47550057D01*
X67714285Y-47550057D02*
X67666666Y-47645295D01*
X67666666Y-47645295D02*
X67666666Y-47740533D01*
X67666666Y-47740533D02*
X67714285Y-47883390D01*
X67714285Y-47883390D02*
X68285713Y-48454819D01*
X68285713Y-48454819D02*
X67666666Y-48454819D01*
D11*
X61066666Y-42181927D02*
X61199999Y-41991451D01*
X61295237Y-42181927D02*
X61295237Y-41781927D01*
X61295237Y-41781927D02*
X61142856Y-41781927D01*
X61142856Y-41781927D02*
X61104761Y-41800975D01*
X61104761Y-41800975D02*
X61085714Y-41820022D01*
X61085714Y-41820022D02*
X61066666Y-41858118D01*
X61066666Y-41858118D02*
X61066666Y-41915260D01*
X61066666Y-41915260D02*
X61085714Y-41953356D01*
X61085714Y-41953356D02*
X61104761Y-41972403D01*
X61104761Y-41972403D02*
X61142856Y-41991451D01*
X61142856Y-41991451D02*
X61295237Y-41991451D01*
X60876190Y-42181927D02*
X60799999Y-42181927D01*
X60799999Y-42181927D02*
X60761904Y-42162880D01*
X60761904Y-42162880D02*
X60742856Y-42143832D01*
X60742856Y-42143832D02*
X60704761Y-42086689D01*
X60704761Y-42086689D02*
X60685714Y-42010499D01*
X60685714Y-42010499D02*
X60685714Y-41858118D01*
X60685714Y-41858118D02*
X60704761Y-41820022D01*
X60704761Y-41820022D02*
X60723809Y-41800975D01*
X60723809Y-41800975D02*
X60761904Y-41781927D01*
X60761904Y-41781927D02*
X60838095Y-41781927D01*
X60838095Y-41781927D02*
X60876190Y-41800975D01*
X60876190Y-41800975D02*
X60895237Y-41820022D01*
X60895237Y-41820022D02*
X60914285Y-41858118D01*
X60914285Y-41858118D02*
X60914285Y-41953356D01*
X60914285Y-41953356D02*
X60895237Y-41991451D01*
X60895237Y-41991451D02*
X60876190Y-42010499D01*
X60876190Y-42010499D02*
X60838095Y-42029546D01*
X60838095Y-42029546D02*
X60761904Y-42029546D01*
X60761904Y-42029546D02*
X60723809Y-42010499D01*
X60723809Y-42010499D02*
X60704761Y-41991451D01*
X60704761Y-41991451D02*
X60685714Y-41953356D01*
X21257142Y-28143832D02*
X21276190Y-28162880D01*
X21276190Y-28162880D02*
X21333332Y-28181927D01*
X21333332Y-28181927D02*
X21371428Y-28181927D01*
X21371428Y-28181927D02*
X21428571Y-28162880D01*
X21428571Y-28162880D02*
X21466666Y-28124784D01*
X21466666Y-28124784D02*
X21485713Y-28086689D01*
X21485713Y-28086689D02*
X21504761Y-28010499D01*
X21504761Y-28010499D02*
X21504761Y-27953356D01*
X21504761Y-27953356D02*
X21485713Y-27877165D01*
X21485713Y-27877165D02*
X21466666Y-27839070D01*
X21466666Y-27839070D02*
X21428571Y-27800975D01*
X21428571Y-27800975D02*
X21371428Y-27781927D01*
X21371428Y-27781927D02*
X21333332Y-27781927D01*
X21333332Y-27781927D02*
X21276190Y-27800975D01*
X21276190Y-27800975D02*
X21257142Y-27820022D01*
X20876190Y-28181927D02*
X21104761Y-28181927D01*
X20990475Y-28181927D02*
X20990475Y-27781927D01*
X20990475Y-27781927D02*
X21028571Y-27839070D01*
X21028571Y-27839070D02*
X21066666Y-27877165D01*
X21066666Y-27877165D02*
X21104761Y-27896213D01*
X20742857Y-27781927D02*
X20495238Y-27781927D01*
X20495238Y-27781927D02*
X20628571Y-27934308D01*
X20628571Y-27934308D02*
X20571428Y-27934308D01*
X20571428Y-27934308D02*
X20533333Y-27953356D01*
X20533333Y-27953356D02*
X20514285Y-27972403D01*
X20514285Y-27972403D02*
X20495238Y-28010499D01*
X20495238Y-28010499D02*
X20495238Y-28105737D01*
X20495238Y-28105737D02*
X20514285Y-28143832D01*
X20514285Y-28143832D02*
X20533333Y-28162880D01*
X20533333Y-28162880D02*
X20571428Y-28181927D01*
X20571428Y-28181927D02*
X20685714Y-28181927D01*
X20685714Y-28181927D02*
X20723809Y-28162880D01*
X20723809Y-28162880D02*
X20742857Y-28143832D01*
D10*
X19738094Y-50904819D02*
X19166666Y-50904819D01*
X19452380Y-51904819D02*
X19452380Y-50904819D01*
X18833332Y-51904819D02*
X18833332Y-50904819D01*
X18833332Y-50904819D02*
X18452380Y-50904819D01*
X18452380Y-50904819D02*
X18357142Y-50952438D01*
X18357142Y-50952438D02*
X18309523Y-51000057D01*
X18309523Y-51000057D02*
X18261904Y-51095295D01*
X18261904Y-51095295D02*
X18261904Y-51238152D01*
X18261904Y-51238152D02*
X18309523Y-51333390D01*
X18309523Y-51333390D02*
X18357142Y-51381009D01*
X18357142Y-51381009D02*
X18452380Y-51428628D01*
X18452380Y-51428628D02*
X18833332Y-51428628D01*
X17309523Y-51904819D02*
X17880951Y-51904819D01*
X17595237Y-51904819D02*
X17595237Y-50904819D01*
X17595237Y-50904819D02*
X17690475Y-51047676D01*
X17690475Y-51047676D02*
X17785713Y-51142914D01*
X17785713Y-51142914D02*
X17880951Y-51190533D01*
X16357142Y-51904819D02*
X16928570Y-51904819D01*
X16642856Y-51904819D02*
X16642856Y-50904819D01*
X16642856Y-50904819D02*
X16738094Y-51047676D01*
X16738094Y-51047676D02*
X16833332Y-51142914D01*
X16833332Y-51142914D02*
X16928570Y-51190533D01*
%TO.C,J1*%
D15*
X33530000Y-47350000D02*
X33530000Y-54650000D01*
X42470000Y-47350000D02*
X33530000Y-47350000D01*
X42470000Y-47350000D02*
X42470000Y-54650000D01*
X42470000Y-54650000D02*
X33530000Y-54650000D01*
%TO.C,R10*%
X52200000Y-44587500D02*
X53800000Y-44587500D01*
X53800000Y-45412500D01*
X52200000Y-45412500D01*
X52200000Y-44587500D01*
%TO.C,C10*%
X49200000Y-21600000D02*
X50800000Y-21600000D01*
X50800000Y-22400000D01*
X49200000Y-22400000D01*
X49200000Y-21600000D01*
%TO.C,C4*%
X43200000Y-19600000D02*
X44800000Y-19600000D01*
X44800000Y-20400000D01*
X43200000Y-20400000D01*
X43200000Y-19600000D01*
%TO.C,C14*%
X27200000Y-28600000D02*
X28800000Y-28600000D01*
X28800000Y-29400000D01*
X27200000Y-29400000D01*
X27200000Y-28600000D01*
%TO.C,C16*%
X54200000Y-21600000D02*
X55800000Y-21600000D01*
X55800000Y-22400000D01*
X54200000Y-22400000D01*
X54200000Y-21600000D01*
%TO.C,C8*%
X52200000Y-42600000D02*
X53800000Y-42600000D01*
X53800000Y-43400000D01*
X52200000Y-43400000D01*
X52200000Y-42600000D01*
%TO.C,R7*%
X29200000Y-31587500D02*
X30800000Y-31587500D01*
X30800000Y-32412500D01*
X29200000Y-32412500D01*
X29200000Y-31587500D01*
%TO.C,C17*%
X65200000Y-41600000D02*
X66800000Y-41600000D01*
X66800000Y-42400000D01*
X65200000Y-42400000D01*
X65200000Y-41600000D01*
%TO.C,R5*%
X44200000Y-27587500D02*
X45800000Y-27587500D01*
X45800000Y-28412500D01*
X44200000Y-28412500D01*
X44200000Y-27587500D01*
%TO.C,C2*%
X43200000Y-35600000D02*
X44800000Y-35600000D01*
X44800000Y-36400000D01*
X43200000Y-36400000D01*
X43200000Y-35600000D01*
%TO.C,C9*%
X24200000Y-25600000D02*
X25800000Y-25600000D01*
X25800000Y-26400000D01*
X24200000Y-26400000D01*
X24200000Y-25600000D01*
%TO.C,C7*%
X41200000Y-44100000D02*
X42800000Y-44100000D01*
X42800000Y-44900000D01*
X41200000Y-44900000D01*
X41200000Y-44100000D01*
%TO.C,U2*%
X37000000Y-26000000D02*
X40000000Y-26000000D01*
X40000000Y-22000000D01*
X36000000Y-22000000D01*
X36000000Y-25000000D01*
X37000000Y-26000000D01*
%TO.C,C11*%
X59200000Y-38600000D02*
X60800000Y-38600000D01*
X60800000Y-39400000D01*
X59200000Y-39400000D01*
X59200000Y-38600000D01*
%TO.C,Y1*%
X25600000Y-33250000D02*
X25600000Y-30750000D01*
X23025000Y-30750000D01*
X22400000Y-31375000D01*
X22400000Y-33250000D01*
X25600000Y-33250000D01*
%TO.C,U3*%
X21025000Y-41450000D02*
X23950000Y-41450000D01*
X23950000Y-36550000D01*
X20050000Y-36550000D01*
X20050000Y-40475000D01*
X21025000Y-41450000D01*
%TO.C,C5*%
X19200000Y-33600000D02*
X20800000Y-33600000D01*
X20800000Y-34400000D01*
X19200000Y-34400000D01*
X19200000Y-33600000D01*
%TO.C,R8*%
X53200000Y-27587500D02*
X54800000Y-27587500D01*
X54800000Y-28412500D01*
X53200000Y-28412500D01*
X53200000Y-27587500D01*
%TO.C,R3*%
X49200000Y-48587500D02*
X50800000Y-48587500D01*
X50800000Y-49412500D01*
X49200000Y-49412500D01*
X49200000Y-48587500D01*
%TO.C,C6*%
X55200000Y-33600000D02*
X56800000Y-33600000D01*
X56800000Y-34400000D01*
X55200000Y-34400000D01*
X55200000Y-33600000D01*
%TO.C,C18*%
X45700000Y-40100000D02*
X47300000Y-40100000D01*
X47300000Y-40900000D01*
X45700000Y-40900000D01*
X45700000Y-40100000D01*
%TO.C,R2*%
X48200000Y-43587500D02*
X49800000Y-43587500D01*
X49800000Y-44412500D01*
X48200000Y-44412500D01*
X48200000Y-43587500D01*
%TO.C,SW1*%
X58650000Y-46250000D02*
X58650000Y-49750000D01*
X58650000Y-49750000D02*
X63350000Y-49750000D01*
X59700000Y-47200000D02*
X60400000Y-47200000D01*
X59700000Y-48800000D02*
X59700000Y-47200000D01*
X60400000Y-48800000D02*
X59700000Y-48800000D01*
X61600000Y-47200000D02*
X62300000Y-47200000D01*
X62300000Y-47200000D02*
X62300000Y-48800000D01*
X62300000Y-48800000D02*
X61600000Y-48800000D01*
X63350000Y-46250000D02*
X58650000Y-46250000D01*
X63350000Y-49750000D02*
X63350000Y-46250000D01*
X60400000Y-47200000D02*
G75*
G02*
X61600000Y-47200000I600000J-800000D01*
G01*
X61600000Y-48800000D02*
G75*
G02*
X60400000Y-48800000I-600000J800000D01*
G01*
%TO.C,C1*%
X31200000Y-35600000D02*
X32800000Y-35600000D01*
X32800000Y-36400000D01*
X31200000Y-36400000D01*
X31200000Y-35600000D01*
%TO.C,U1*%
X35500000Y-42500000D02*
X41500000Y-42500000D01*
X41500000Y-35500000D01*
X34500000Y-35500000D01*
X34500000Y-41500000D01*
X35500000Y-42500000D01*
%TO.C,R1*%
X44200000Y-43587500D02*
X45800000Y-43587500D01*
X45800000Y-44412500D01*
X44200000Y-44412500D01*
X44200000Y-43587500D01*
%TO.C,C12*%
X61200000Y-34600000D02*
X62800000Y-34600000D01*
X62800000Y-35400000D01*
X61200000Y-35400000D01*
X61200000Y-34600000D01*
%TO.C,U4*%
X55600000Y-40450000D02*
X56800000Y-40450000D01*
X56800000Y-37550000D01*
X55200000Y-37550000D01*
X55200000Y-40050000D01*
X55600000Y-40450000D01*
%TO.C,R4*%
X54200000Y-48587500D02*
X55800000Y-48587500D01*
X55800000Y-49412500D01*
X54200000Y-49412500D01*
X54200000Y-48587500D01*
%TO.C,R6*%
X48200000Y-27587500D02*
X49800000Y-27587500D01*
X49800000Y-28412500D01*
X48200000Y-28412500D01*
X48200000Y-27587500D01*
%TO.C,C15*%
X34200000Y-30600000D02*
X35800000Y-30600000D01*
X35800000Y-31400000D01*
X34200000Y-31400000D01*
X34200000Y-30600000D01*
%TO.C,U6*%
X23600000Y-47700000D02*
X23600000Y-48300000D01*
X23700000Y-47700000D02*
X23700000Y-48300000D01*
X23800000Y-47700000D02*
X23800000Y-48300000D01*
X23500000Y-47700000D02*
X24500000Y-47700000D01*
X24500000Y-48300000D01*
X23500000Y-48300000D01*
X23500000Y-47700000D01*
%TO.C,C3*%
X31200000Y-19600000D02*
X32800000Y-19600000D01*
X32800000Y-20400000D01*
X31200000Y-20400000D01*
X31200000Y-19600000D01*
%TO.C,U5*%
X28500000Y-47900000D02*
X28500000Y-48400000D01*
X28500000Y-47900000D02*
X28800000Y-47600000D01*
X28500000Y-48400000D02*
X29500000Y-48400000D01*
X29500000Y-47600000D02*
X28800000Y-47600000D01*
X29500000Y-48400000D02*
X29500000Y-47600000D01*
%TO.C,SW2*%
X66650000Y-46250000D02*
X66650000Y-49750000D01*
X66650000Y-49750000D02*
X71350000Y-49750000D01*
X67700000Y-47200000D02*
X68400000Y-47200000D01*
X67700000Y-48800000D02*
X67700000Y-47200000D01*
X68400000Y-48800000D02*
X67700000Y-48800000D01*
X69600000Y-47200000D02*
X70300000Y-47200000D01*
X70300000Y-47200000D02*
X70300000Y-48800000D01*
X70300000Y-48800000D02*
X69600000Y-48800000D01*
X71350000Y-46250000D02*
X66650000Y-46250000D01*
X71350000Y-49750000D02*
X71350000Y-46250000D01*
X68400000Y-47200000D02*
G75*
G02*
X69600000Y-47200000I600000J-800000D01*
G01*
X69600000Y-48800000D02*
G75*
G02*
X68400000Y-48800000I-600000J800000D01*
G01*
%TO.C,R9*%
X60200000Y-41587500D02*
X61800000Y-41587500D01*
X61800000Y-42412500D01*
X60200000Y-42412500D01*
X60200000Y-41587500D01*
%TO.C,C13*%
X20200000Y-27600000D02*
X21800000Y-27600000D01*
X21800000Y-28400000D01*
X20200000Y-28400000D01*
X20200000Y-27600000D01*
%TD*%
M02*
