M48
; DRILL file KiCad 10.0.3 date 2026-06-01T01:37:48
; FORMAT={-:-/ absolute / metric / decimal}
; #@! TF.CreationDate,2026-06-01T01:37:48+08:00
; #@! TF.GenerationSoftware,Kicad,Pcbnew,10.0.3
; #@! TF.FileFunction,MixedPlating,1,4
FMAT,2
METRIC
; #@! TA.AperFunction,Plated,PTH,ComponentDrill
T1C0.200
; #@! TA.AperFunction,Plated,PTH,ViaDrill
T2C0.250
; #@! TA.AperFunction,Plated,PTH,ComponentDrill
T3C0.600
; #@! TA.AperFunction,NonPlated,NPTH,ComponentDrill
T4C0.650
; #@! TA.AperFunction,NonPlated,NPTH,ComponentDrill
T5C2.200
%
G90
G05
T1
X36.65Y-37.65
X36.65Y-40.35
X36.85Y-22.85
X36.85Y-24.0
X36.85Y-25.15
X38.0Y-22.85
X38.0Y-24.0
X38.0Y-25.15
X39.15Y-22.85
X39.15Y-24.0
X39.15Y-25.15
X39.35Y-37.65
X39.35Y-40.35
T2
X3.262Y-43.736
X4.0Y-9.828
X4.0Y-22.032
X4.838Y-25.0
X9.118Y-42.358
X10.042Y-33.865
X11.5Y-36.971
X11.894Y-16.636
X12.284Y-36.182
X14.0Y-48.7
X18.706Y-50.48
X19.525Y-39.0
X19.743Y-34.752
X20.717Y-41.531
X21.419Y-41.696
X22.336Y-47.729
X23.941Y-31.07
X24.475Y-41.535
X27.322Y-32.512
X28.3Y-30.895
X28.594Y-48.11
X29.175Y-30.903
X30.783Y-45.824
X31.004Y-26.604
X31.566Y-31.548
X32.362Y-39.2
X32.362Y-41.6
X32.499Y-46.665
X33.112Y-38.0
X33.112Y-39.6
X33.159Y-35.025
X33.812Y-22.6
X33.812Y-23.4
X33.812Y-24.2
X33.812Y-25.0
X34.562Y-23.0
X34.562Y-23.8
X34.562Y-24.6
X34.562Y-25.4
X35.4Y-43.788
X35.8Y-44.538
X36.2Y-43.788
X36.6Y-20.562
X36.6Y-28.188
X36.6Y-44.538
X37.0Y-19.812
X37.0Y-27.438
X37.0Y-34.112
X37.0Y-43.788
X37.4Y-20.562
X37.4Y-28.188
X37.4Y-33.362
X37.4Y-44.538
X37.8Y-19.812
X37.8Y-27.438
X37.8Y-34.112
X37.8Y-43.788
X38.2Y-20.562
X38.2Y-28.188
X38.2Y-33.362
X38.2Y-44.538
X38.6Y-19.812
X38.6Y-27.438
X38.6Y-34.112
X38.6Y-43.788
X39.0Y-20.562
X39.0Y-28.188
X39.0Y-33.362
X39.0Y-44.538
X39.4Y-19.812
X39.4Y-27.438
X39.4Y-34.112
X39.4Y-43.788
X39.733Y-28.347
X39.764Y-45.899
X39.8Y-33.362
X39.8Y-44.538
X40.2Y-43.788
X40.852Y-45.589
X41.438Y-22.6
X42.188Y-23.0
X42.987Y-38.0
X42.987Y-41.6
X46.384Y-31.636
X49.783Y-43.194
X51.441Y-45.0
X54.096Y-27.663
X55.078Y-43.627
X58.425Y-48.021
X60.813Y-46.212
X63.737Y-18.131
X64.7Y-12.85
X68.612Y-41.709
T4
X35.11Y-48.4
X40.89Y-48.4
T5
X4.0Y-4.0
X4.0Y-52.0
X72.0Y-4.0
X72.0Y-52.0
T3
X33.68Y-48.42G85X33.68Y-47.32
G05
X33.68Y-52.35G85X33.68Y-51.75
G05
X42.32Y-48.42G85X42.32Y-47.32
G05
X42.32Y-52.35G85X42.32Y-51.75
G05
M30
