%TF.GenerationSoftware,KiCad,Pcbnew,10.0.3*%
%TF.CreationDate,2026-06-01T00:55:40+08:00*%
%TF.ProjectId,tellmelight_rev_a4,74656c6c-6d65-46c6-9967-68745f726576,A4*%
%TF.SameCoordinates,Original*%
%TF.FileFunction,Copper,L3,Inr*%
%TF.FilePolarity,Positive*%
%FSLAX46Y46*%
G04 Gerber Fmt 4.6, Leading zero omitted, Abs format (unit mm)*
G04 Created by KiCad (PCBNEW 10.0.3) date 2026-06-01 00:55:40*
%MOMM*%
%LPD*%
G01*
G04 APERTURE LIST*
%TA.AperFunction,ComponentPad*%
%ADD10O,1.000000X1.600000*%
%TD*%
%TA.AperFunction,ComponentPad*%
%ADD11O,1.000000X2.100000*%
%TD*%
%TA.AperFunction,HeatsinkPad*%
%ADD12C,0.500000*%
%TD*%
%TA.AperFunction,ViaPad*%
%ADD13C,0.250000*%
%TD*%
%TA.AperFunction,ViaPad*%
%ADD14C,0.600000*%
%TD*%
%TA.AperFunction,Conductor*%
%ADD15C,0.200000*%
%TD*%
G04 APERTURE END LIST*
D10*
%TO.N,SHIELD*%
%TO.C,J1*%
X42320000Y-52050000D03*
D11*
X42320000Y-47870000D03*
D10*
X33680000Y-52050000D03*
D11*
X33680000Y-47870000D03*
%TD*%
D12*
%TO.N,GND*%
%TO.C,U2*%
X36850000Y-22850000D03*
X36850000Y-24000000D03*
X36850000Y-25150000D03*
X38000000Y-22850000D03*
X38000000Y-24000000D03*
X38000000Y-25150000D03*
X39150000Y-22850000D03*
X39150000Y-24000000D03*
X39150000Y-25150000D03*
%TD*%
%TO.N,GND*%
%TO.C,U1*%
X36650000Y-37650000D03*
X36650000Y-40350000D03*
X39350000Y-37650000D03*
X39350000Y-40350000D03*
%TD*%
D13*
%TO.N,D4_B*%
X37550000Y-19200000D03*
D14*
X43846400Y-30550000D03*
%TO.N,VLED*%
X65483000Y-18189100D03*
X11813900Y-17436700D03*
X12459600Y-38050000D03*
X22997900Y-48000000D03*
X57240800Y-41224000D03*
D13*
%TO.N,D4_G*%
X36900000Y-19200000D03*
D14*
%TO.N,D4_R*%
X45402600Y-25600900D03*
D13*
X36250000Y-19200000D03*
%TO.N,D2_B*%
X33000000Y-22750000D03*
%TO.N,D2_G*%
X33000000Y-23400000D03*
%TO.N,D2_R*%
X33000000Y-24050000D03*
%TO.N,D5_B*%
X39500000Y-19200000D03*
%TO.N,D5_G*%
X38850000Y-19200000D03*
D14*
%TO.N,D5_R*%
X64525200Y-15219300D03*
D13*
X38200000Y-19200000D03*
%TO.N,D1_B*%
X33000000Y-24700000D03*
D14*
X10441800Y-16812000D03*
D13*
%TO.N,D1_G*%
X33000000Y-25350000D03*
D14*
X9888600Y-13713100D03*
%TO.N,D1_R*%
X12383100Y-11398300D03*
D13*
X33000000Y-26000000D03*
%TO.N,D3_B*%
X35600000Y-19200000D03*
%TO.N,D3_G*%
X33000000Y-21450000D03*
D14*
X28007000Y-30466400D03*
D13*
%TO.N,D3_R*%
X31600000Y-22000000D03*
%TO.N,D6_B*%
X42500000Y-22350000D03*
%TO.N,D6_G*%
X42500000Y-21700000D03*
%TO.N,D6_R*%
X40150000Y-19200000D03*
%TO.N,GND*%
X39800000Y-27000000D03*
D14*
X53482100Y-39749600D03*
X6770600Y-20506300D03*
D13*
X37000000Y-34600000D03*
D14*
X32406300Y-46291200D03*
D13*
X39200000Y-27000000D03*
D14*
X44001200Y-35226200D03*
%TO.N,VBUS*%
X39861000Y-48193400D03*
X30719400Y-46227400D03*
X5025700Y-9000000D03*
%TO.N,USB_DP_CONN*%
X29490700Y-46297100D03*
X12442200Y-29000000D03*
%TO.N,USB_DM_CONN*%
X3183900Y-43147100D03*
X40972200Y-43445100D03*
X29856400Y-47068500D03*
X37952300Y-48191700D03*
%TO.N,SHIELD*%
X60175000Y-43924400D03*
D13*
%TO.N,3V3*%
X42400000Y-41600000D03*
X42400000Y-38000000D03*
X38600000Y-27000000D03*
X32800000Y-38000000D03*
X38600000Y-34200000D03*
X38200000Y-43300000D03*
X37800000Y-43000000D03*
X38200000Y-34600000D03*
X40200000Y-43300000D03*
D14*
%TO.N,XOUT*%
X26875400Y-31074600D03*
D13*
X37800000Y-32900000D03*
D14*
%TO.N,LP_IREF*%
X29175000Y-30470600D03*
D13*
X37000000Y-29200000D03*
D14*
%TO.N,I2C0_SDA*%
X4801700Y-26221300D03*
D13*
X38200000Y-28500000D03*
X32800000Y-39600000D03*
D14*
%TO.N,I2C0_SCL*%
X49825000Y-29478100D03*
D13*
X37800000Y-29200000D03*
X32000000Y-39200000D03*
D14*
X6125800Y-26672900D03*
D13*
%TO.N,LP_EN*%
X37400000Y-28500000D03*
D14*
X55032200Y-28983200D03*
X39907400Y-29442700D03*
%TO.N,XIN*%
X21667700Y-31746400D03*
D13*
X37400000Y-33700000D03*
D14*
%TO.N,FLASH_CS_N_BOOTSEL*%
X53258300Y-49480300D03*
D13*
X35400000Y-44700000D03*
D14*
X20511800Y-42986500D03*
%TO.N,FLASH_IO1_MISO*%
X21761000Y-41737600D03*
D13*
X35800000Y-44000000D03*
D14*
%TO.N,FLASH_WP_IO2*%
X21544200Y-39487500D03*
D13*
X36200000Y-44700000D03*
D14*
%TO.N,FLASH_IO0_MOSI*%
X25752300Y-41541700D03*
D13*
X36600000Y-44000000D03*
D14*
%TO.N,FLASH_SCLK*%
X26260300Y-38675500D03*
D13*
X37000000Y-44700000D03*
%TO.N,FLASH_HOLD_IO3*%
X37400000Y-44000000D03*
D14*
X22997600Y-39443700D03*
D13*
%TO.N,RP2040_VREG_OUT*%
X39800000Y-44000000D03*
D14*
X44951500Y-41273500D03*
D13*
%TO.N,SWCLK*%
X39000000Y-33700000D03*
D14*
X14721800Y-50721800D03*
D13*
%TO.N,USB_DM_MCU*%
X39400000Y-44700000D03*
D14*
X49427800Y-42943100D03*
D13*
%TO.N,SWDIO*%
X39400000Y-32900000D03*
D14*
X10000000Y-44753600D03*
D13*
%TO.N,RUN_RESET*%
X39800000Y-33700000D03*
D14*
X72643800Y-45005900D03*
X19262600Y-50963100D03*
D13*
%TO.N,USB_DP_MCU*%
X39000000Y-44000000D03*
D14*
X45089100Y-43264100D03*
%TD*%
%TO.N,D4_R*%
D15*
X36250000Y-19200000D02*
X36676700Y-19626700D01*
X36676700Y-19626700D02*
X38543000Y-19626700D01*
X44517200Y-25600900D02*
X45402600Y-25600900D01*
X38543000Y-19626700D02*
X44517200Y-25600900D01*
%TO.N,D5_R*%
X42180700Y-15219300D02*
X64525200Y-15219300D01*
X38200000Y-19200000D02*
X42180700Y-15219300D01*
%TO.N,D1_B*%
X33000000Y-24700000D02*
X25112000Y-16812000D01*
X25112000Y-16812000D02*
X10441800Y-16812000D01*
%TO.N,D1_G*%
X9821100Y-13780600D02*
X9888600Y-13713100D01*
X18102800Y-25350000D02*
X9821100Y-17068300D01*
X9821100Y-17068300D02*
X9821100Y-13780600D01*
X33000000Y-25350000D02*
X18102800Y-25350000D01*
%TO.N,GND*%
X48524600Y-39749600D02*
X53482100Y-39749600D01*
X39350000Y-40350000D02*
X36650000Y-40350000D01*
X38000000Y-22850000D02*
X36850000Y-22850000D01*
X38000000Y-25150000D02*
X36720300Y-26429700D01*
X36850000Y-24000000D02*
X38000000Y-24000000D01*
X36720300Y-26429700D02*
X12694000Y-26429700D01*
X39200000Y-27000000D02*
X39800000Y-27000000D01*
X36850000Y-25150000D02*
X38000000Y-25150000D01*
X12694000Y-26429700D02*
X6770600Y-20506300D01*
X44001200Y-35226200D02*
X48524600Y-39749600D01*
%TO.N,USB_DM_CONN*%
X29856400Y-47068500D02*
X32479900Y-47068500D01*
X36276900Y-46516300D02*
X37952300Y-48191700D01*
X3183900Y-43147100D02*
X7105300Y-47068500D01*
X7105300Y-47068500D02*
X29856400Y-47068500D01*
X32479900Y-47068500D02*
X33032100Y-46516300D01*
X33032100Y-46516300D02*
X36276900Y-46516300D01*
%TO.N,SHIELD*%
X42320000Y-46518300D02*
X57581100Y-46518300D01*
X42320000Y-47870000D02*
X42320000Y-46518300D01*
X33680000Y-52050000D02*
X33680000Y-50948300D01*
X42320000Y-52050000D02*
X42320000Y-50948300D01*
X33680000Y-50948300D02*
X42320000Y-50948300D01*
X57581100Y-46518300D02*
X60175000Y-43924400D01*
%TO.N,3V3*%
X35273700Y-35526300D02*
X32800000Y-38000000D01*
X38200000Y-34600000D02*
X38200000Y-35526300D01*
X38200000Y-35526300D02*
X35273700Y-35526300D01*
X42400000Y-38000000D02*
X40673700Y-38000000D01*
X40673700Y-38000000D02*
X38200000Y-35526300D01*
%TO.N,XOUT*%
X37800000Y-32900000D02*
X35974600Y-31074600D01*
X35974600Y-31074600D02*
X26875400Y-31074600D01*
%TO.N,LP_IREF*%
X35729400Y-30470600D02*
X29175000Y-30470600D01*
X37000000Y-29200000D02*
X35729400Y-30470600D01*
%TO.N,I2C0_SDA*%
X4801700Y-26221300D02*
X5930700Y-27350300D01*
X5930700Y-27350300D02*
X37050300Y-27350300D01*
X37050300Y-27350300D02*
X38200000Y-28500000D01*
%TO.N,I2C0_SCL*%
X39618400Y-30060900D02*
X43134400Y-30060900D01*
X38631900Y-28697800D02*
X38631900Y-28296400D01*
X38443600Y-28886100D02*
X39618400Y-30060900D01*
X43717200Y-29478100D02*
X49825000Y-29478100D01*
X38631900Y-28296400D02*
X37284000Y-26948500D01*
X6401400Y-26948500D02*
X6125800Y-26672900D01*
X43134400Y-30060900D02*
X43717200Y-29478100D01*
X37284000Y-26948500D02*
X6401400Y-26948500D01*
X38443600Y-28886100D02*
X38631900Y-28697800D01*
X38443600Y-28886100D02*
X38129700Y-29200000D01*
X38129700Y-29200000D02*
X37800000Y-29200000D01*
%TO.N,LP_EN*%
X40473700Y-28876400D02*
X39907400Y-29442700D01*
X55032200Y-28983200D02*
X54925400Y-28876400D01*
X54925400Y-28876400D02*
X40473700Y-28876400D01*
%TO.N,XIN*%
X21667700Y-31746400D02*
X35446400Y-31746400D01*
X35446400Y-31746400D02*
X37400000Y-33700000D01*
%TO.N,FLASH_CS_N_BOOTSEL*%
X40180300Y-49480300D02*
X53258300Y-49480300D01*
X35400000Y-44700000D02*
X40180300Y-49480300D01*
X35400000Y-44700000D02*
X22225300Y-44700000D01*
X22225300Y-44700000D02*
X20511800Y-42986500D01*
%TO.N,FLASH_IO1_MISO*%
X24023400Y-44000000D02*
X21761000Y-41737600D01*
X35800000Y-44000000D02*
X24023400Y-44000000D01*
%TO.N,FLASH_IO0_MOSI*%
X26888100Y-42677500D02*
X25752300Y-41541700D01*
X36600000Y-44000000D02*
X35277600Y-42677600D01*
X35277600Y-42677600D02*
X26888100Y-42677600D01*
X26888100Y-42677600D02*
X26888100Y-42677500D01*
%TO.N,FLASH_SCLK*%
X37000000Y-44700000D02*
X37348200Y-44700000D01*
X37348200Y-44700000D02*
X37838300Y-44209900D01*
X37838300Y-44209900D02*
X37838300Y-43738200D01*
X37838300Y-43738200D02*
X32775600Y-38675500D01*
X32775600Y-38675500D02*
X26260300Y-38675500D01*
%TO.N,FLASH_HOLD_IO3*%
X37400000Y-44000000D02*
X34340000Y-40940000D01*
X34340000Y-40939900D02*
X24493800Y-40939900D01*
X34340000Y-40940000D02*
X34340000Y-40939900D01*
X24493800Y-40939900D02*
X22997600Y-39443700D01*
%TO.N,RP2040_VREG_OUT*%
X45709200Y-42031200D02*
X44951500Y-41273500D01*
X45709200Y-43551100D02*
X45709200Y-42031200D01*
X39800000Y-44000000D02*
X39880000Y-44080000D01*
X39880000Y-44080000D02*
X45180300Y-44080000D01*
X45180300Y-44080000D02*
X45709200Y-43551100D01*
%TO.N,USB_DM_MCU*%
X47670900Y-44700000D02*
X39400000Y-44700000D01*
X49427800Y-42943100D02*
X47670900Y-44700000D01*
%TO.N,SWDIO*%
X20647800Y-34105800D02*
X10000000Y-44753600D01*
X37863000Y-34174800D02*
X37271400Y-34174800D01*
X37202400Y-34105800D02*
X20647800Y-34105800D01*
X39137800Y-32900000D02*
X37863000Y-34174800D01*
X37271400Y-34174800D02*
X37202400Y-34105800D01*
X39400000Y-32900000D02*
X39137800Y-32900000D01*
%TO.N,RUN_RESET*%
X61337900Y-33700000D02*
X72643800Y-45005900D01*
X39800000Y-33700000D02*
X61337900Y-33700000D01*
%TO.N,USB_DP_MCU*%
X45089100Y-43264100D02*
X44668400Y-42843400D01*
X44668400Y-42843400D02*
X39977600Y-42843400D01*
X39977600Y-42843400D02*
X39000000Y-43821000D01*
X39000000Y-43821000D02*
X39000000Y-44000000D01*
%TD*%
M02*
