%TF.GenerationSoftware,KiCad,Pcbnew,10.0.3*%
%TF.CreationDate,2026-06-01T00:55:40+08:00*%
%TF.ProjectId,tellmelight_rev_a4,74656c6c-6d65-46c6-9967-68745f726576,A4*%
%TF.SameCoordinates,Original*%
%TF.FileFunction,Copper,L1,Top*%
%TF.FilePolarity,Positive*%
%FSLAX46Y46*%
G04 Gerber Fmt 4.6, Leading zero omitted, Abs format (unit mm)*
G04 Created by KiCad (PCBNEW 10.0.3) date 2026-06-01 00:55:40*
%MOMM*%
%LPD*%
G01*
G04 APERTURE LIST*
%TA.AperFunction,SMDPad,CuDef*%
%ADD10R,0.900000X1.500000*%
%TD*%
%TA.AperFunction,ComponentPad*%
%ADD11O,1.000000X1.600000*%
%TD*%
%TA.AperFunction,ComponentPad*%
%ADD12O,1.000000X2.100000*%
%TD*%
%TA.AperFunction,HeatsinkPad*%
%ADD13C,0.500000*%
%TD*%
%TA.AperFunction,HeatsinkPad*%
%ADD14R,2.800000X2.800000*%
%TD*%
%TA.AperFunction,HeatsinkPad*%
%ADD15R,3.200000X3.200000*%
%TD*%
%TA.AperFunction,ViaPad*%
%ADD16C,0.250000*%
%TD*%
%TA.AperFunction,ViaPad*%
%ADD17C,0.600000*%
%TD*%
%TA.AperFunction,Conductor*%
%ADD18C,0.200000*%
%TD*%
G04 APERTURE END LIST*
D10*
%TO.P,D4,1*%
%TO.N,D4_B*%
X44800000Y-30550000D03*
%TO.P,D4,2*%
%TO.N,VLED*%
X46200000Y-30550000D03*
%TO.P,D4,3*%
%TO.N,D4_G*%
X44800000Y-27450000D03*
%TO.P,D4,4*%
%TO.N,D4_R*%
X46200000Y-27450000D03*
%TD*%
%TO.P,D2,1*%
%TO.N,D2_B*%
X10100000Y-38050000D03*
%TO.P,D2,2*%
%TO.N,VLED*%
X11500000Y-38050000D03*
%TO.P,D2,3*%
%TO.N,D2_G*%
X10100000Y-34950000D03*
%TO.P,D2,4*%
%TO.N,D2_R*%
X11500000Y-34950000D03*
%TD*%
%TO.P,D5,1*%
%TO.N,D5_B*%
X63300000Y-17050000D03*
%TO.P,D5,2*%
%TO.N,VLED*%
X64700000Y-17050000D03*
%TO.P,D5,3*%
%TO.N,D5_G*%
X63300000Y-13950000D03*
%TO.P,D5,4*%
%TO.N,D5_R*%
X64700000Y-13950000D03*
%TD*%
%TO.P,D1,1*%
%TO.N,D1_B*%
X10100000Y-15550000D03*
%TO.P,D1,2*%
%TO.N,VLED*%
X11500000Y-15550000D03*
%TO.P,D1,3*%
%TO.N,D1_G*%
X10100000Y-12450000D03*
%TO.P,D1,4*%
%TO.N,D1_R*%
X11500000Y-12450000D03*
%TD*%
%TO.P,D3,1*%
%TO.N,D3_B*%
X28300000Y-35550000D03*
%TO.P,D3,2*%
%TO.N,VLED*%
X29700000Y-35550000D03*
%TO.P,D3,3*%
%TO.N,D3_G*%
X28300000Y-32450000D03*
%TO.P,D3,4*%
%TO.N,D3_R*%
X29700000Y-32450000D03*
%TD*%
%TO.P,D6,1*%
%TO.N,D6_B*%
X63300000Y-40050000D03*
%TO.P,D6,2*%
%TO.N,VLED*%
X64700000Y-40050000D03*
%TO.P,D6,3*%
%TO.N,D6_G*%
X63300000Y-36950000D03*
%TO.P,D6,4*%
%TO.N,D6_R*%
X64700000Y-36950000D03*
%TD*%
D11*
%TO.P,J1,SH*%
%TO.N,SHIELD*%
X42320000Y-52050000D03*
D12*
X42320000Y-47870000D03*
D11*
X33680000Y-52050000D03*
D12*
X33680000Y-47870000D03*
%TD*%
D13*
%TO.P,U2,33*%
%TO.N,GND*%
X36850000Y-22850000D03*
X36850000Y-24000000D03*
X36850000Y-25150000D03*
X38000000Y-22850000D03*
X38000000Y-24000000D03*
D14*
X38000000Y-24000000D03*
D13*
X38000000Y-25150000D03*
X39150000Y-22850000D03*
X39150000Y-24000000D03*
X39150000Y-25150000D03*
%TD*%
%TO.P,U1,57*%
%TO.N,GND*%
X36650000Y-37650000D03*
X36650000Y-40350000D03*
D15*
X38000000Y-39000000D03*
D13*
X39350000Y-37650000D03*
X39350000Y-40350000D03*
%TD*%
D16*
%TO.N,D4_B*%
X37550000Y-19200000D03*
D17*
X43846400Y-30550000D03*
%TO.N,VLED*%
X65483000Y-18189100D03*
X11813900Y-17436700D03*
X12459600Y-38050000D03*
X22997900Y-48000000D03*
X57240800Y-41224000D03*
D16*
%TO.N,D4_G*%
X36900000Y-19200000D03*
D17*
%TO.N,D4_R*%
X45402600Y-25600900D03*
D16*
X36250000Y-19200000D03*
%TO.N,D2_B*%
X33000000Y-22750000D03*
%TO.N,D2_G*%
X33000000Y-23400000D03*
%TO.N,D2_R*%
X33000000Y-24050000D03*
%TO.N,D5_B*%
X39500000Y-19200000D03*
%TO.N,D5_G*%
X38850000Y-19200000D03*
D17*
%TO.N,D5_R*%
X64525200Y-15219300D03*
D16*
X38200000Y-19200000D03*
%TO.N,D1_B*%
X33000000Y-24700000D03*
D17*
X10441800Y-16812000D03*
D16*
%TO.N,D1_G*%
X33000000Y-25350000D03*
D17*
X9888600Y-13713100D03*
%TO.N,D1_R*%
X12383100Y-11398300D03*
D16*
X33000000Y-26000000D03*
%TO.N,D3_B*%
X35600000Y-19200000D03*
%TO.N,D3_G*%
X33000000Y-21450000D03*
D17*
X28007000Y-30466400D03*
D16*
%TO.N,D3_R*%
X31600000Y-22000000D03*
%TO.N,D6_B*%
X42500000Y-22350000D03*
%TO.N,D6_G*%
X42500000Y-21700000D03*
%TO.N,D6_R*%
X40150000Y-19200000D03*
%TO.N,GND*%
X39800000Y-27000000D03*
D17*
X53482100Y-39749600D03*
X6770600Y-20506300D03*
D16*
X37000000Y-34600000D03*
D17*
X32406300Y-46291200D03*
D16*
X39200000Y-27000000D03*
D17*
X44001200Y-35226200D03*
%TO.N,VBUS*%
X39861000Y-48193400D03*
X30719400Y-46227400D03*
X5025700Y-9000000D03*
%TO.N,USB_DP_CONN*%
X29490700Y-46297100D03*
X12442200Y-29000000D03*
%TO.N,USB_DM_CONN*%
X3183900Y-43147100D03*
X40972200Y-43445100D03*
X29856400Y-47068500D03*
X37952300Y-48191700D03*
%TO.N,SHIELD*%
X60175000Y-43924400D03*
D16*
%TO.N,3V3*%
X42400000Y-41600000D03*
X42400000Y-38000000D03*
X38600000Y-27000000D03*
X32800000Y-38000000D03*
X38600000Y-34200000D03*
X38200000Y-43300000D03*
X37800000Y-43000000D03*
X38200000Y-34600000D03*
X40200000Y-43300000D03*
D17*
%TO.N,XOUT*%
X26875400Y-31074600D03*
D16*
X37800000Y-32900000D03*
D17*
%TO.N,LP_IREF*%
X29175000Y-30470600D03*
D16*
X37000000Y-29200000D03*
D17*
%TO.N,I2C0_SDA*%
X4801700Y-26221300D03*
D16*
X38200000Y-28500000D03*
X32800000Y-39600000D03*
D17*
%TO.N,I2C0_SCL*%
X49825000Y-29478100D03*
D16*
X37800000Y-29200000D03*
X32000000Y-39200000D03*
D17*
X6125800Y-26672900D03*
D16*
%TO.N,LP_EN*%
X37400000Y-28500000D03*
D17*
X55032200Y-28983200D03*
X39907400Y-29442700D03*
%TO.N,XIN*%
X21667700Y-31746400D03*
D16*
X37400000Y-33700000D03*
D17*
%TO.N,FLASH_CS_N_BOOTSEL*%
X53258300Y-49480300D03*
D16*
X35400000Y-44700000D03*
D17*
X20511800Y-42986500D03*
%TO.N,FLASH_IO1_MISO*%
X21761000Y-41737600D03*
D16*
X35800000Y-44000000D03*
D17*
%TO.N,FLASH_WP_IO2*%
X21544200Y-39487500D03*
D16*
X36200000Y-44700000D03*
D17*
%TO.N,FLASH_IO0_MOSI*%
X25752300Y-41541700D03*
D16*
X36600000Y-44000000D03*
D17*
%TO.N,FLASH_SCLK*%
X26260300Y-38675500D03*
D16*
X37000000Y-44700000D03*
%TO.N,FLASH_HOLD_IO3*%
X37400000Y-44000000D03*
D17*
X22997600Y-39443700D03*
D16*
%TO.N,RP2040_VREG_OUT*%
X39800000Y-44000000D03*
D17*
X44951500Y-41273500D03*
D16*
%TO.N,SWCLK*%
X39000000Y-33700000D03*
D17*
X14721800Y-50721800D03*
D16*
%TO.N,USB_DM_MCU*%
X39400000Y-44700000D03*
D17*
X49427800Y-42943100D03*
D16*
%TO.N,SWDIO*%
X39400000Y-32900000D03*
D17*
X10000000Y-44753600D03*
D16*
%TO.N,RUN_RESET*%
X39800000Y-33700000D03*
D17*
X72643800Y-45005900D03*
X19262600Y-50963100D03*
D16*
%TO.N,USB_DP_MCU*%
X39000000Y-44000000D03*
D17*
X45089100Y-43264100D03*
%TD*%
%TO.N,D4_B*%
D18*
X44800000Y-30550000D02*
X43846400Y-30550000D01*
%TO.N,VLED*%
X11813900Y-16915600D02*
X11813900Y-17436700D01*
X46200000Y-30550000D02*
X46200000Y-31601700D01*
X64700000Y-17050000D02*
X64700000Y-18101700D01*
X11500000Y-15550000D02*
X11500000Y-16601700D01*
X64700000Y-18101700D02*
X65395600Y-18101700D01*
X64700000Y-41101700D02*
X57240800Y-41101700D01*
X39346800Y-27649700D02*
X36775100Y-27649700D01*
X65395600Y-18101700D02*
X65483000Y-18189100D01*
X57240800Y-41224000D02*
X57240800Y-41101700D01*
X46200000Y-30550000D02*
X46200000Y-29498300D01*
X11500000Y-38050000D02*
X12459600Y-38050000D01*
X64700000Y-40050000D02*
X64700000Y-41101700D01*
X11500000Y-16601700D02*
X11813900Y-16915600D01*
X29700000Y-35550000D02*
X29700000Y-36601700D01*
X36775100Y-27649700D02*
X35662900Y-28761900D01*
X57240800Y-41101700D02*
X55700000Y-41101700D01*
X35662900Y-28761900D02*
X35662900Y-29587100D01*
X28251700Y-38050000D02*
X29700000Y-36601700D01*
X41195400Y-29498300D02*
X39346800Y-27649700D01*
X55700000Y-41101700D02*
X46200000Y-31601700D01*
X46200000Y-29498300D02*
X41195400Y-29498300D01*
X35662900Y-29587100D02*
X29700000Y-35550000D01*
X12459600Y-38050000D02*
X28251700Y-38050000D01*
%TO.N,D4_G*%
X44800000Y-27450000D02*
X44800000Y-26398300D01*
X44098300Y-26398300D02*
X36900000Y-19200000D01*
X44800000Y-26398300D02*
X44098300Y-26398300D01*
%TO.N,D4_R*%
X46200000Y-27450000D02*
X46200000Y-26398300D01*
X45402600Y-25600900D02*
X46200000Y-26398300D01*
%TO.N,D2_B*%
X12111700Y-36998300D02*
X10100000Y-36998300D01*
X33473700Y-23223700D02*
X33473700Y-26193800D01*
X31742500Y-27925000D02*
X21185000Y-27925000D01*
X33000000Y-22750000D02*
X33473700Y-23223700D01*
X10100000Y-38050000D02*
X10100000Y-36998300D01*
X21185000Y-27925000D02*
X12111700Y-36998300D01*
X33473700Y-26193800D02*
X31742500Y-27925000D01*
%TO.N,D2_G*%
X10100000Y-33898300D02*
X20598300Y-23400000D01*
X10100000Y-34950000D02*
X10100000Y-33898300D01*
X20598300Y-23400000D02*
X33000000Y-23400000D01*
%TO.N,D2_R*%
X21348300Y-24050000D02*
X11500000Y-33898300D01*
X33000000Y-24050000D02*
X21348300Y-24050000D01*
X11500000Y-34950000D02*
X11500000Y-33898300D01*
%TO.N,D5_B*%
X39500000Y-19200000D02*
X40598300Y-18101700D01*
X40598300Y-18101700D02*
X63300000Y-18101700D01*
X63300000Y-17050000D02*
X63300000Y-18101700D01*
%TO.N,D5_G*%
X63300000Y-13950000D02*
X63300000Y-15001700D01*
X43048300Y-15001700D02*
X63300000Y-15001700D01*
X38850000Y-19200000D02*
X43048300Y-15001700D01*
%TO.N,D5_R*%
X64700000Y-13950000D02*
X64700000Y-15044500D01*
X64700000Y-15044500D02*
X64525200Y-15219300D01*
%TO.N,D1_B*%
X10231500Y-16601700D02*
X10100000Y-16601700D01*
X10100000Y-15550000D02*
X10100000Y-16601700D01*
X10441800Y-16812000D02*
X10231500Y-16601700D01*
%TO.N,D1_G*%
X10100000Y-13501700D02*
X9888600Y-13713100D01*
X10100000Y-12450000D02*
X10100000Y-13501700D01*
%TO.N,D1_R*%
X11500000Y-12450000D02*
X11500000Y-11398300D01*
X11500000Y-11398300D02*
X12383100Y-11398300D01*
%TO.N,D3_B*%
X29360600Y-34498300D02*
X28300000Y-34498300D01*
X28300000Y-35550000D02*
X28300000Y-34498300D01*
X35261200Y-28597700D02*
X29360600Y-34498300D01*
X35600000Y-19200000D02*
X35261200Y-19538800D01*
X35261200Y-19538800D02*
X35261200Y-28597700D01*
%TO.N,D3_G*%
X28300000Y-32450000D02*
X28300000Y-31398300D01*
X28300000Y-31398300D02*
X28007000Y-31105300D01*
X28007000Y-31105300D02*
X28007000Y-30466400D01*
%TO.N,D3_R*%
X32887800Y-22000000D02*
X31600000Y-22000000D01*
X29700000Y-31398300D02*
X33875400Y-27222900D01*
X33875400Y-27222900D02*
X33875400Y-22987600D01*
X29700000Y-32450000D02*
X29700000Y-31398300D01*
X33875400Y-22987600D02*
X32887800Y-22000000D01*
%TO.N,D6_B*%
X46651700Y-22350000D02*
X63300000Y-38998300D01*
X42500000Y-22350000D02*
X46651700Y-22350000D01*
X63300000Y-40050000D02*
X63300000Y-38998300D01*
%TO.N,D6_G*%
X63300000Y-35898300D02*
X49101700Y-21700000D01*
X63300000Y-36950000D02*
X63300000Y-35898300D01*
X49101700Y-21700000D02*
X42500000Y-21700000D01*
%TO.N,D6_R*%
X64700000Y-36950000D02*
X64700000Y-35898300D01*
X48001700Y-19200000D02*
X64700000Y-35898300D01*
X40150000Y-19200000D02*
X48001700Y-19200000D01*
%TO.N,GND*%
X38000000Y-39000000D02*
X39350000Y-37650000D01*
%TO.N,VBUS*%
X31297900Y-45648900D02*
X37316500Y-45648900D01*
X30719400Y-46227400D02*
X31297900Y-45648900D01*
X37316500Y-45648900D02*
X39861000Y-48193400D01*
%TO.N,LP_EN*%
X38516100Y-28051400D02*
X39907400Y-29442700D01*
X37848600Y-28051400D02*
X38516100Y-28051400D01*
X37400000Y-28500000D02*
X37848600Y-28051400D01*
%TO.N,FLASH_WP_IO2*%
X35733900Y-45166100D02*
X27222800Y-45166100D01*
X36200000Y-44700000D02*
X35733900Y-45166100D01*
X27222800Y-45166100D02*
X21544200Y-39487500D01*
%TD*%
M02*
