%TF.GenerationSoftware,KiCad,Pcbnew,10.0.3*%
%TF.CreationDate,2026-06-01T02:14:20+08:00*%
%TF.ProjectId,tellmelight_rev_a4,74656c6c-6d65-46c6-9967-68745f726576,A4*%
%TF.SameCoordinates,Original*%
%TF.FileFunction,Copper,L2,Inr*%
%TF.FilePolarity,Positive*%
%FSLAX46Y46*%
G04 Gerber Fmt 4.6, Leading zero omitted, Abs format (unit mm)*
G04 Created by KiCad (PCBNEW 10.0.3) date 2026-06-01 02:14:20*
%MOMM*%
%LPD*%
G01*
G04 APERTURE LIST*
%TA.AperFunction,ComponentPad*%
%ADD10O,1.000000X1.600000*%
%TD*%
%TA.AperFunction,ComponentPad*%
%ADD11O,1.000000X2.100000*%
%TD*%
%TA.AperFunction,ViaPad*%
%ADD12C,0.450000*%
%TD*%
%TA.AperFunction,Conductor*%
%ADD13C,0.100000*%
%TD*%
%ADD14C,0.300000*%
%ADD15C,0.350000*%
%ADD16O,0.600000X1.200000*%
%ADD17O,0.600000X1.700000*%
G04 APERTURE END LIST*
D10*
%TO.N,SHIELD*%
%TO.C,J1*%
X42320000Y-52050000D03*
D11*
X42320000Y-47870000D03*
D10*
X33680000Y-52050000D03*
D11*
X33680000Y-47870000D03*
%TD*%
D12*
%TO.N,D5_B*%
X39000000Y-20562500D03*
%TO.N,VLED*%
X65140700Y-18133300D03*
X46980700Y-29648300D03*
X54594300Y-44182800D03*
X23633600Y-39000000D03*
X12273600Y-14648300D03*
%TO.N,D5_G*%
X38600000Y-19812500D03*
%TO.N,D5_R*%
X64700000Y-12850000D03*
X38200000Y-20562500D03*
%TO.N,D6_B*%
X42187500Y-23000000D03*
%TO.N,D6_G*%
X41437500Y-22600000D03*
%TO.N,D6_R*%
X39400000Y-19812500D03*
%TO.N,D2_B*%
X22328800Y-37148300D03*
X33812500Y-23400000D03*
%TO.N,D2_G*%
X34562500Y-23800000D03*
%TO.N,D2_R*%
X33812500Y-24200000D03*
X12268200Y-34048300D03*
X30187100Y-27483400D03*
%TO.N,D4_B*%
X37800000Y-19812500D03*
X45237000Y-29462000D03*
%TO.N,D4_G*%
X37400000Y-20562500D03*
%TO.N,D4_R*%
X37000000Y-19812500D03*
%TO.N,D1_B*%
X34562500Y-24600000D03*
X9727100Y-19269700D03*
%TO.N,D1_G*%
X33812500Y-25000000D03*
%TO.N,D1_R*%
X34562500Y-25400000D03*
%TO.N,D3_B*%
X28107500Y-34343400D03*
X36600000Y-20562500D03*
%TO.N,D3_G*%
X33812500Y-22600000D03*
X28454600Y-30472500D03*
%TO.N,D3_R*%
X34562500Y-23000000D03*
%TO.N,GND*%
X27523500Y-46887500D03*
X37000000Y-34112500D03*
X39000000Y-28187500D03*
X39400000Y-27437500D03*
%TO.N,VBUS*%
X9173400Y-46186200D03*
X4087700Y-9838600D03*
X51228200Y-45000000D03*
X34122300Y-46223400D03*
X42010800Y-46230200D03*
%TO.N,USB_DP_CONN*%
X28418400Y-46705200D03*
X5908200Y-43453600D03*
%TO.N,USB_DM_CONN*%
X5503000Y-39240000D03*
X30941000Y-45984000D03*
X39194900Y-45853200D03*
%TO.N,SHIELD*%
X58760200Y-45778600D03*
%TO.N,3V3*%
X37800000Y-43787500D03*
X40200000Y-43787500D03*
X38200000Y-44537500D03*
X32362500Y-41600000D03*
X38600000Y-27437500D03*
X38200000Y-33362500D03*
X25625900Y-41412200D03*
X42987500Y-38000000D03*
X42987500Y-41600000D03*
X33112500Y-38000000D03*
X38600000Y-34112500D03*
%TO.N,LP_EN*%
X37400000Y-28187500D03*
X55189300Y-28915100D03*
%TO.N,XIN*%
X37400000Y-33362500D03*
X23942100Y-31092000D03*
%TO.N,XOUT*%
X37800000Y-34112500D03*
X30484500Y-33164000D03*
%TO.N,I2C0_SDA*%
X38200000Y-28187500D03*
X33112500Y-39600000D03*
X4000000Y-23733600D03*
%TO.N,3V3_USB*%
X38600000Y-43787500D03*
%TO.N,I2C0_SCL*%
X37800000Y-27437500D03*
X32362500Y-39200000D03*
X4587500Y-25587500D03*
X49210900Y-28614100D03*
%TO.N,SWCLK*%
X14000000Y-49167100D03*
X39000000Y-33362500D03*
%TO.N,SWDIO*%
X10000000Y-39211800D03*
X39400000Y-34112500D03*
%TO.N,RUN_RESET*%
X65362700Y-48926100D03*
X39800000Y-33362500D03*
X18124300Y-34731800D03*
X18014800Y-49167400D03*
X4000000Y-36164800D03*
%TO.N,RP2040_VREG_OUT*%
X42940500Y-42987000D03*
X39800000Y-44537500D03*
%TO.N,USB_DM_MCU*%
X39400000Y-43787500D03*
X49396300Y-43156100D03*
%TO.N,USB_DP_MCU*%
X39000000Y-44537500D03*
%TO.N,FLASH_HOLD_IO3*%
X37400000Y-44537500D03*
%TO.N,FLASH_SCLK*%
X37000000Y-43787500D03*
%TO.N,FLASH_IO0_MOSI*%
X36600000Y-44537500D03*
%TO.N,FLASH_WP_IO2*%
X19525000Y-39000000D03*
X36200000Y-43787500D03*
%TO.N,FLASH_IO1_MISO*%
X35800000Y-44537500D03*
X17300000Y-39635000D03*
%TO.N,FLASH_CS_N_BOOTSEL*%
X35400000Y-43787500D03*
X21963200Y-40905000D03*
X61000000Y-47462700D03*
%TO.N,LP_VCAP*%
X36600000Y-28187500D03*
%TO.N,LP_IREF*%
X31029100Y-32806700D03*
X37000000Y-27437500D03*
%TD*%
%TO.N,VLED*%
D13*
X50370300Y-33037800D02*
X65140700Y-18267400D01*
X54594300Y-44182800D02*
X54594300Y-37261900D01*
X12273600Y-27640000D02*
X12273600Y-14648300D01*
X65140700Y-18267400D02*
X65140700Y-18133300D01*
X50370300Y-33037800D02*
X46980700Y-29648300D01*
X54594300Y-37261900D02*
X50370300Y-33037800D01*
X23633600Y-39000000D02*
X12273600Y-27640000D01*
%TO.N,D2_B*%
X33812500Y-23400000D02*
X30563900Y-26648600D01*
X30563900Y-28913200D02*
X22328800Y-37148300D01*
X30563900Y-26648600D02*
X30563900Y-28913200D01*
%TO.N,D4_B*%
X37800000Y-19812500D02*
X38025100Y-19812500D01*
X38600000Y-22825000D02*
X45237000Y-29462000D01*
X38600000Y-20387400D02*
X38600000Y-22825000D01*
X38025100Y-19812500D02*
X38600000Y-20387400D01*
%TO.N,D3_B*%
X36600000Y-25850900D02*
X28107500Y-34343400D01*
X36600000Y-20562500D02*
X36600000Y-25850900D01*
%TO.N,D3_G*%
X28454700Y-27957800D02*
X28454700Y-30472500D01*
X28454700Y-30472500D02*
X28454600Y-30472500D01*
X33812500Y-22600000D02*
X28454700Y-27957800D01*
%TO.N,GND*%
X37000000Y-37499100D02*
X31840200Y-42658900D01*
X37225100Y-34112500D02*
X37800000Y-33537600D01*
X37000000Y-34112500D02*
X37000000Y-37499100D01*
X31627900Y-42658900D02*
X27523500Y-46763300D01*
X37800000Y-33537600D02*
X37800000Y-29387500D01*
X27523500Y-46763300D02*
X27523500Y-46887500D01*
X37000000Y-34112500D02*
X37225100Y-34112500D01*
X31840200Y-42658900D02*
X31627900Y-42658900D01*
X37800000Y-29387500D02*
X39000000Y-28187500D01*
%TO.N,VBUS*%
X4087700Y-9838600D02*
X9173400Y-14924300D01*
X9173400Y-14924300D02*
X9173400Y-46186200D01*
%TO.N,SHIELD*%
X33680000Y-47870000D02*
X33680000Y-52050000D01*
X42320000Y-47870000D02*
X42320000Y-52050000D01*
%TO.N,3V3*%
X39418500Y-28073300D02*
X39418500Y-32144000D01*
X42987500Y-41600000D02*
X42387500Y-41600000D01*
X33112500Y-38000000D02*
X33112500Y-39025100D01*
X42487500Y-38000000D02*
X42987500Y-38000000D01*
X32362500Y-39775100D02*
X32362500Y-41600000D01*
X42387500Y-41600000D02*
X40200000Y-43787500D01*
X42987500Y-38000000D02*
X42987500Y-41600000D01*
X38782700Y-27437500D02*
X39418500Y-28073300D01*
X39418500Y-32144000D02*
X38200000Y-33362500D01*
X33112500Y-39025100D02*
X32362500Y-39775100D01*
X38600000Y-27437500D02*
X38782700Y-27437500D01*
X38600000Y-34112500D02*
X42487500Y-38000000D01*
%TO.N,I2C0_SDA*%
X38200000Y-28187500D02*
X36329600Y-30057900D01*
X36329600Y-36382900D02*
X33112500Y-39600000D01*
X36329600Y-30057900D02*
X36329600Y-36382900D01*
%TO.N,I2C0_SCL*%
X36997100Y-28837600D02*
X36997100Y-28015500D01*
X36997100Y-28015500D02*
X37575100Y-27437500D01*
X32362500Y-39200000D02*
X32362500Y-33472200D01*
X37575100Y-27437500D02*
X37800000Y-27437500D01*
X32362500Y-33472200D02*
X36997100Y-28837600D01*
%TO.N,SWCLK*%
X38176700Y-36607600D02*
X38176700Y-33960900D01*
X14000000Y-49167100D02*
X14409400Y-49576500D01*
X38775100Y-33362500D02*
X39000000Y-33362500D01*
X27900200Y-47043500D02*
X27900200Y-46671800D01*
X14409400Y-49576500D02*
X25367200Y-49576500D01*
X27900200Y-46671800D02*
X31640500Y-42931500D01*
X31852800Y-42931500D02*
X38176700Y-36607600D01*
X31640500Y-42931500D02*
X31852800Y-42931500D01*
X25367200Y-49576500D02*
X27900200Y-47043500D01*
X38176700Y-33960900D02*
X38775100Y-33362500D01*
%TO.N,RUN_RESET*%
X40135400Y-33362500D02*
X39800000Y-33362500D01*
X65362700Y-48926100D02*
X55699000Y-48926100D01*
X18014800Y-49167400D02*
X18124300Y-49057900D01*
X55699000Y-48926100D02*
X40135400Y-33362500D01*
X18124300Y-49057900D02*
X18124300Y-34731800D01*
%TO.N,USB_DM_MCU*%
X48385300Y-44167100D02*
X49396300Y-43156100D01*
X39962300Y-44167100D02*
X48385300Y-44167100D01*
X39400000Y-43787500D02*
X39582700Y-43787500D01*
X39582700Y-43787500D02*
X39962300Y-44167100D01*
%TO.N,LP_IREF*%
X36398300Y-27437500D02*
X31029100Y-32806700D01*
X37000000Y-27437500D02*
X36398300Y-27437500D01*
%TD*%
D14*
X39000000Y-20562500D03*
X65140700Y-18133300D03*
X46980700Y-29648300D03*
X54594300Y-44182800D03*
X23633600Y-39000000D03*
X12273600Y-14648300D03*
X38600000Y-19812500D03*
X64700000Y-12850000D03*
X38200000Y-20562500D03*
X42187500Y-23000000D03*
X41437500Y-22600000D03*
X39400000Y-19812500D03*
X22328800Y-37148300D03*
X33812500Y-23400000D03*
X34562500Y-23800000D03*
X33812500Y-24200000D03*
X12268200Y-34048300D03*
X30187100Y-27483400D03*
X37800000Y-19812500D03*
X45237000Y-29462000D03*
X37400000Y-20562500D03*
X37000000Y-19812500D03*
X34562500Y-24600000D03*
X9727100Y-19269700D03*
X33812500Y-25000000D03*
X34562500Y-25400000D03*
X28107500Y-34343400D03*
X36600000Y-20562500D03*
X33812500Y-22600000D03*
X28454600Y-30472500D03*
X34562500Y-23000000D03*
X27523500Y-46887500D03*
X37000000Y-34112500D03*
X39000000Y-28187500D03*
X39400000Y-27437500D03*
X9173400Y-46186200D03*
X4087700Y-9838600D03*
X51228200Y-45000000D03*
X34122300Y-46223400D03*
X42010800Y-46230200D03*
X28418400Y-46705200D03*
X5908200Y-43453600D03*
X5503000Y-39240000D03*
X30941000Y-45984000D03*
X39194900Y-45853200D03*
X58760200Y-45778600D03*
X37800000Y-43787500D03*
X40200000Y-43787500D03*
X38200000Y-44537500D03*
X32362500Y-41600000D03*
X38600000Y-27437500D03*
X38200000Y-33362500D03*
X25625900Y-41412200D03*
X42987500Y-38000000D03*
X42987500Y-41600000D03*
X33112500Y-38000000D03*
X38600000Y-34112500D03*
X37400000Y-28187500D03*
X55189300Y-28915100D03*
X37400000Y-33362500D03*
X23942100Y-31092000D03*
X37800000Y-34112500D03*
X30484500Y-33164000D03*
X38200000Y-28187500D03*
X33112500Y-39600000D03*
X4000000Y-23733600D03*
X38600000Y-43787500D03*
X37800000Y-27437500D03*
X32362500Y-39200000D03*
X4587500Y-25587500D03*
X49210900Y-28614100D03*
X14000000Y-49167100D03*
X39000000Y-33362500D03*
X10000000Y-39211800D03*
X39400000Y-34112500D03*
X65362700Y-48926100D03*
X39800000Y-33362500D03*
X18124300Y-34731800D03*
X18014800Y-49167400D03*
X4000000Y-36164800D03*
X42940500Y-42987000D03*
X39800000Y-44537500D03*
X39400000Y-43787500D03*
X49396300Y-43156100D03*
X39000000Y-44537500D03*
X37400000Y-44537500D03*
X37000000Y-43787500D03*
X36600000Y-44537500D03*
X19525000Y-39000000D03*
X36200000Y-43787500D03*
X35800000Y-44537500D03*
X17300000Y-39635000D03*
X35400000Y-43787500D03*
X21963200Y-40905000D03*
X61000000Y-47462700D03*
X36600000Y-28187500D03*
X31029100Y-32806700D03*
X37000000Y-27437500D03*
D15*
X72000000Y-4000000D03*
X4000000Y-4000000D03*
X72000000Y-52000000D03*
X4000000Y-52000000D03*
X40890000Y-48400000D03*
X35110000Y-48400000D03*
D16*
X42320000Y-52050000D03*
D17*
X42320000Y-47870000D03*
D16*
X33680000Y-52050000D03*
D17*
X33680000Y-47870000D03*
M02*
