%TF.GenerationSoftware,KiCad,Pcbnew,10.0.3*%
%TF.CreationDate,2026-06-01T00:55:40+08:00*%
%TF.ProjectId,tellmelight_rev_a4,74656c6c-6d65-46c6-9967-68745f726576,A4*%
%TF.SameCoordinates,Original*%
%TF.FileFunction,Copper,L4,Bot*%
%TF.FilePolarity,Positive*%
%FSLAX46Y46*%
G04 Gerber Fmt 4.6, Leading zero omitted, Abs format (unit mm)*
G04 Created by KiCad (PCBNEW 10.0.3) date 2026-06-01 00:55:40*
%MOMM*%
%LPD*%
G01*
G04 APERTURE LIST*
G04 Aperture macros list*
%AMRoundRect*
0 Rectangle with rounded corners*
0 $1 Rounding radius*
0 $2 $3 $4 $5 $6 $7 $8 $9 X,Y pos of 4 corners*
0 Add a 4 corners polygon primitive as box body*
4,1,4,$2,$3,$4,$5,$6,$7,$8,$9,$2,$3,0*
0 Add four circle primitives for the rounded corners*
1,1,$1+$1,$2,$3*
1,1,$1+$1,$4,$5*
1,1,$1+$1,$6,$7*
1,1,$1+$1,$8,$9*
0 Add four rect primitives between the rounded corners*
20,1,$1+$1,$2,$3,$4,$5,0*
20,1,$1+$1,$4,$5,$6,$7,0*
20,1,$1+$1,$6,$7,$8,$9,0*
20,1,$1+$1,$8,$9,$2,$3,0*%
G04 Aperture macros list end*
%TA.AperFunction,SMDPad,CuDef*%
%ADD10RoundRect,0.150000X0.150000X0.575000X-0.150000X0.575000X-0.150000X-0.575000X0.150000X-0.575000X0*%
%TD*%
%TA.AperFunction,SMDPad,CuDef*%
%ADD11RoundRect,0.075000X0.075000X0.650000X-0.075000X0.650000X-0.075000X-0.650000X0.075000X-0.650000X0*%
%TD*%
%TA.AperFunction,ComponentPad*%
%ADD12O,1.000000X1.600000*%
%TD*%
%TA.AperFunction,ComponentPad*%
%ADD13O,1.000000X2.100000*%
%TD*%
%TA.AperFunction,SMDPad,CuDef*%
%ADD14C,1.000000*%
%TD*%
%TA.AperFunction,SMDPad,CuDef*%
%ADD15RoundRect,0.200000X-0.200000X-0.275000X0.200000X-0.275000X0.200000X0.275000X-0.200000X0.275000X0*%
%TD*%
%TA.AperFunction,SMDPad,CuDef*%
%ADD16RoundRect,0.225000X-0.225000X-0.250000X0.225000X-0.250000X0.225000X0.250000X-0.225000X0.250000X0*%
%TD*%
%TA.AperFunction,SMDPad,CuDef*%
%ADD17RoundRect,0.050000X-0.337500X-0.050000X0.337500X-0.050000X0.337500X0.050000X-0.337500X0.050000X0*%
%TD*%
%TA.AperFunction,SMDPad,CuDef*%
%ADD18RoundRect,0.050000X-0.050000X-0.337500X0.050000X-0.337500X0.050000X0.337500X-0.050000X0.337500X0*%
%TD*%
%TA.AperFunction,HeatsinkPad*%
%ADD19C,0.500000*%
%TD*%
%TA.AperFunction,HeatsinkPad*%
%ADD20R,2.800000X2.800000*%
%TD*%
%TA.AperFunction,SMDPad,CuDef*%
%ADD21RoundRect,0.250000X-0.450000X-0.350000X0.450000X-0.350000X0.450000X0.350000X-0.450000X0.350000X0*%
%TD*%
%TA.AperFunction,SMDPad,CuDef*%
%ADD22RoundRect,0.150000X-0.825000X-0.150000X0.825000X-0.150000X0.825000X0.150000X-0.825000X0.150000X0*%
%TD*%
%TA.AperFunction,SMDPad,CuDef*%
%ADD23RoundRect,0.250000X-0.475000X-0.250000X0.475000X-0.250000X0.475000X0.250000X-0.475000X0.250000X0*%
%TD*%
%TA.AperFunction,SMDPad,CuDef*%
%ADD24RoundRect,0.050000X-0.387500X-0.050000X0.387500X-0.050000X0.387500X0.050000X-0.387500X0.050000X0*%
%TD*%
%TA.AperFunction,SMDPad,CuDef*%
%ADD25RoundRect,0.050000X-0.050000X-0.387500X0.050000X-0.387500X0.050000X0.387500X-0.050000X0.387500X0*%
%TD*%
%TA.AperFunction,HeatsinkPad*%
%ADD26R,3.200000X3.200000*%
%TD*%
%TA.AperFunction,SMDPad,CuDef*%
%ADD27RoundRect,0.150000X-0.512500X-0.150000X0.512500X-0.150000X0.512500X0.150000X-0.512500X0.150000X0*%
%TD*%
%TA.AperFunction,SMDPad,CuDef*%
%ADD28RoundRect,0.075000X-0.075000X-0.175000X0.075000X-0.175000X0.075000X0.175000X-0.075000X0.175000X0*%
%TD*%
%TA.AperFunction,SMDPad,CuDef*%
%ADD29RoundRect,0.075000X-0.075000X-0.075000X0.075000X-0.075000X0.075000X0.075000X-0.075000X0.075000X0*%
%TD*%
%TA.AperFunction,ViaPad*%
%ADD30C,0.250000*%
%TD*%
%TA.AperFunction,ViaPad*%
%ADD31C,0.600000*%
%TD*%
%TA.AperFunction,Conductor*%
%ADD32C,0.100000*%
%TD*%
%TA.AperFunction,Conductor*%
%ADD33C,0.200000*%
%TD*%
G04 APERTURE END LIST*
D10*
%TO.P,J1,A1*%
%TO.N,GND*%
X41250000Y-46955000D03*
%TO.P,J1,A4*%
%TO.N,VBUS*%
X40450000Y-46955000D03*
D11*
%TO.P,J1,A5*%
%TO.N,CC1*%
X39250000Y-46955000D03*
%TO.P,J1,A6*%
%TO.N,USB_DP_CONN*%
X38250000Y-46955000D03*
%TO.P,J1,A7*%
%TO.N,USB_DM_CONN*%
X37750000Y-46955000D03*
%TO.P,J1,A8*%
%TO.N,N/C*%
X36750000Y-46955000D03*
D10*
%TO.P,J1,A9*%
%TO.N,VBUS*%
X35550000Y-46955000D03*
%TO.P,J1,A12*%
%TO.N,GND*%
X34750000Y-46955000D03*
%TO.P,J1,B1*%
X34750000Y-46955000D03*
%TO.P,J1,B4*%
%TO.N,VBUS*%
X35550000Y-46955000D03*
D11*
%TO.P,J1,B5*%
%TO.N,CC2*%
X36250000Y-46955000D03*
%TO.P,J1,B6*%
%TO.N,USB_DP_CONN*%
X37250000Y-46955000D03*
%TO.P,J1,B7*%
%TO.N,USB_DM_CONN*%
X38750000Y-46955000D03*
%TO.P,J1,B8*%
%TO.N,N/C*%
X39750000Y-46955000D03*
D10*
%TO.P,J1,B9*%
%TO.N,VBUS*%
X40450000Y-46955000D03*
%TO.P,J1,B12*%
%TO.N,GND*%
X41250000Y-46955000D03*
D12*
%TO.P,J1,SH*%
%TO.N,SHIELD*%
X42320000Y-52050000D03*
D13*
X42320000Y-47870000D03*
D12*
X33680000Y-52050000D03*
D13*
X33680000Y-47870000D03*
%TD*%
D14*
%TO.P,TP3,1*%
%TO.N,GND*%
X4000000Y-17000000D03*
%TD*%
%TO.P,TP7,1*%
%TO.N,USB_DM_CONN*%
X4000000Y-33000000D03*
%TD*%
D15*
%TO.P,R10,1*%
%TO.N,VBUS*%
X52175000Y-45000000D03*
%TO.P,R10,2*%
%TO.N,VLED*%
X53825000Y-45000000D03*
%TD*%
D14*
%TO.P,TP12,1*%
%TO.N,3V3*%
X22000000Y-52000000D03*
%TD*%
D16*
%TO.P,C10,1*%
%TO.N,3V3*%
X49225000Y-22000000D03*
%TO.P,C10,2*%
%TO.N,GND*%
X50775000Y-22000000D03*
%TD*%
%TO.P,C4,1*%
%TO.N,3V3*%
X43225000Y-20000000D03*
%TO.P,C4,2*%
%TO.N,GND*%
X44775000Y-20000000D03*
%TD*%
%TO.P,C14,1*%
%TO.N,XOUT*%
X27225000Y-29000000D03*
%TO.P,C14,2*%
%TO.N,GND*%
X28775000Y-29000000D03*
%TD*%
%TO.P,C16,1*%
%TO.N,3V3*%
X54225000Y-22000000D03*
%TO.P,C16,2*%
%TO.N,GND*%
X55775000Y-22000000D03*
%TD*%
D14*
%TO.P,TP2,1*%
%TO.N,3V3*%
X4000000Y-13000000D03*
%TD*%
D16*
%TO.P,C8,1*%
%TO.N,VBUS*%
X52225000Y-43000000D03*
%TO.P,C8,2*%
%TO.N,GND*%
X53775000Y-43000000D03*
%TD*%
D15*
%TO.P,R7,1*%
%TO.N,LP_IREF*%
X29175000Y-32000000D03*
%TO.P,R7,2*%
%TO.N,GND*%
X30825000Y-32000000D03*
%TD*%
D16*
%TO.P,C17,1*%
%TO.N,SHIELD*%
X65225000Y-42000000D03*
%TO.P,C17,2*%
%TO.N,GND*%
X66775000Y-42000000D03*
%TD*%
D15*
%TO.P,R5,1*%
%TO.N,3V3*%
X44175000Y-28000000D03*
%TO.P,R5,2*%
%TO.N,I2C0_SDA*%
X45825000Y-28000000D03*
%TD*%
D16*
%TO.P,C2,1*%
%TO.N,3V3*%
X43225000Y-36000000D03*
%TO.P,C2,2*%
%TO.N,GND*%
X44775000Y-36000000D03*
%TD*%
%TO.P,C9,1*%
%TO.N,3V3*%
X24225000Y-26000000D03*
%TO.P,C9,2*%
%TO.N,GND*%
X25775000Y-26000000D03*
%TD*%
%TO.P,C7,1*%
%TO.N,3V3_USB*%
X41225000Y-44500000D03*
%TO.P,C7,2*%
%TO.N,GND*%
X42775000Y-44500000D03*
%TD*%
D17*
%TO.P,U2,1*%
%TO.N,D1_R*%
X36012500Y-25400000D03*
%TO.P,U2,2*%
%TO.N,D1_G*%
X36012500Y-25000000D03*
%TO.P,U2,3*%
%TO.N,D1_B*%
X36012500Y-24600000D03*
%TO.P,U2,4*%
%TO.N,D2_R*%
X36012500Y-24200000D03*
%TO.P,U2,5*%
%TO.N,D2_G*%
X36012500Y-23800000D03*
%TO.P,U2,6*%
%TO.N,D2_B*%
X36012500Y-23400000D03*
%TO.P,U2,7*%
%TO.N,D3_R*%
X36012500Y-23000000D03*
%TO.P,U2,8*%
%TO.N,D3_G*%
X36012500Y-22600000D03*
D18*
%TO.P,U2,9*%
%TO.N,D3_B*%
X36600000Y-22012500D03*
%TO.P,U2,10*%
%TO.N,D4_R*%
X37000000Y-22012500D03*
%TO.P,U2,11*%
%TO.N,D4_G*%
X37400000Y-22012500D03*
%TO.P,U2,12*%
%TO.N,D4_B*%
X37800000Y-22012500D03*
%TO.P,U2,13*%
%TO.N,D5_R*%
X38200000Y-22012500D03*
%TO.P,U2,14*%
%TO.N,D5_G*%
X38600000Y-22012500D03*
%TO.P,U2,15*%
%TO.N,D5_B*%
X39000000Y-22012500D03*
%TO.P,U2,16*%
%TO.N,D6_R*%
X39400000Y-22012500D03*
D17*
%TO.P,U2,17*%
%TO.N,D6_G*%
X39987500Y-22600000D03*
%TO.P,U2,18*%
%TO.N,D6_B*%
X39987500Y-23000000D03*
%TO.P,U2,19*%
%TO.N,N/C*%
X39987500Y-23400000D03*
%TO.P,U2,20*%
X39987500Y-23800000D03*
%TO.P,U2,21*%
X39987500Y-24200000D03*
%TO.P,U2,22*%
X39987500Y-24600000D03*
%TO.P,U2,23*%
X39987500Y-25000000D03*
%TO.P,U2,24*%
X39987500Y-25400000D03*
D18*
%TO.P,U2,25*%
%TO.N,GND*%
X39400000Y-25987500D03*
%TO.P,U2,26*%
X39000000Y-25987500D03*
%TO.P,U2,27*%
%TO.N,3V3*%
X38600000Y-25987500D03*
%TO.P,U2,28*%
%TO.N,I2C0_SDA*%
X38200000Y-25987500D03*
%TO.P,U2,29*%
%TO.N,I2C0_SCL*%
X37800000Y-25987500D03*
%TO.P,U2,30*%
%TO.N,LP_EN*%
X37400000Y-25987500D03*
%TO.P,U2,31*%
%TO.N,LP_IREF*%
X37000000Y-25987500D03*
%TO.P,U2,32*%
%TO.N,LP_VCAP*%
X36600000Y-25987500D03*
D19*
%TO.P,U2,33*%
%TO.N,GND*%
X36850000Y-22850000D03*
X36850000Y-24000000D03*
X36850000Y-25150000D03*
X38000000Y-22850000D03*
X38000000Y-24000000D03*
D20*
X38000000Y-24000000D03*
D19*
X38000000Y-25150000D03*
X39150000Y-22850000D03*
X39150000Y-24000000D03*
X39150000Y-25150000D03*
%TD*%
D16*
%TO.P,C11,1*%
%TO.N,VBUS*%
X59225000Y-39000000D03*
%TO.P,C11,2*%
%TO.N,GND*%
X60775000Y-39000000D03*
%TD*%
D21*
%TO.P,Y1,1*%
%TO.N,XIN*%
X22900000Y-31150000D03*
%TO.P,Y1,2*%
%TO.N,GND*%
X25100000Y-31150000D03*
%TO.P,Y1,3*%
%TO.N,XOUT*%
X25100000Y-32850000D03*
%TO.P,Y1,4*%
%TO.N,GND*%
X22900000Y-32850000D03*
%TD*%
D22*
%TO.P,U3,1*%
%TO.N,FLASH_CS_N_BOOTSEL*%
X19525000Y-40905000D03*
%TO.P,U3,2*%
%TO.N,FLASH_IO1_MISO*%
X19525000Y-39635000D03*
%TO.P,U3,3*%
%TO.N,FLASH_WP_IO2*%
X19525000Y-38365000D03*
%TO.P,U3,4*%
%TO.N,GND*%
X19525000Y-37095000D03*
%TO.P,U3,5*%
%TO.N,FLASH_IO0_MOSI*%
X24475000Y-37095000D03*
%TO.P,U3,6*%
%TO.N,FLASH_SCLK*%
X24475000Y-38365000D03*
%TO.P,U3,7*%
%TO.N,FLASH_HOLD_IO3*%
X24475000Y-39635000D03*
%TO.P,U3,8*%
%TO.N,3V3*%
X24475000Y-40905000D03*
%TD*%
D16*
%TO.P,C5,1*%
%TO.N,3V3*%
X19225000Y-34000000D03*
%TO.P,C5,2*%
%TO.N,GND*%
X20775000Y-34000000D03*
%TD*%
D15*
%TO.P,R8,1*%
%TO.N,3V3*%
X53175000Y-28000000D03*
%TO.P,R8,2*%
%TO.N,LP_EN*%
X54825000Y-28000000D03*
%TD*%
%TO.P,R3,1*%
%TO.N,CC1*%
X49175000Y-49000000D03*
%TO.P,R3,2*%
%TO.N,GND*%
X50825000Y-49000000D03*
%TD*%
D16*
%TO.P,C6,1*%
%TO.N,3V3*%
X55225000Y-34000000D03*
%TO.P,C6,2*%
%TO.N,GND*%
X56775000Y-34000000D03*
%TD*%
%TO.P,C18,1*%
%TO.N,RP2040_VREG_OUT*%
X45725000Y-40500000D03*
%TO.P,C18,2*%
%TO.N,GND*%
X47275000Y-40500000D03*
%TD*%
D14*
%TO.P,TP5,1*%
%TO.N,I2C0_SCL*%
X4000000Y-25000000D03*
%TD*%
%TO.P,TP10,1*%
%TO.N,SWCLK*%
X14000000Y-50000000D03*
%TD*%
D15*
%TO.P,R2,1*%
%TO.N,USB_DM_CONN*%
X48175000Y-44000000D03*
%TO.P,R2,2*%
%TO.N,USB_DM_MCU*%
X49825000Y-44000000D03*
%TD*%
D23*
%TO.P,SW1,1*%
%TO.N,FLASH_CS_N_BOOTSEL*%
X58425000Y-48850000D03*
X63575000Y-48850000D03*
%TO.P,SW1,2*%
%TO.N,GND*%
X58425000Y-47150000D03*
X63575000Y-47150000D03*
%TD*%
D14*
%TO.P,TP4,1*%
%TO.N,I2C0_SDA*%
X4000000Y-21000000D03*
%TD*%
D16*
%TO.P,C1,1*%
%TO.N,3V3*%
X31225000Y-36000000D03*
%TO.P,C1,2*%
%TO.N,GND*%
X32775000Y-36000000D03*
%TD*%
D24*
%TO.P,U1,1*%
%TO.N,3V3*%
X34562500Y-41600000D03*
%TO.P,U1,2*%
%TO.N,GPIO0_RESERVED*%
X34562500Y-41200000D03*
%TO.P,U1,3*%
%TO.N,GPIO1_RESERVED_LP_EN_OPTION*%
X34562500Y-40800000D03*
%TO.P,U1,4*%
%TO.N,N/C*%
X34562500Y-40400000D03*
%TO.P,U1,5*%
X34562500Y-40000000D03*
%TO.P,U1,6*%
%TO.N,I2C0_SDA*%
X34562500Y-39600000D03*
%TO.P,U1,7*%
%TO.N,I2C0_SCL*%
X34562500Y-39200000D03*
%TO.P,U1,8*%
%TO.N,N/C*%
X34562500Y-38800000D03*
%TO.P,U1,9*%
X34562500Y-38400000D03*
%TO.P,U1,10*%
%TO.N,3V3*%
X34562500Y-38000000D03*
%TO.P,U1,11*%
%TO.N,N/C*%
X34562500Y-37600000D03*
%TO.P,U1,12*%
X34562500Y-37200000D03*
%TO.P,U1,13*%
X34562500Y-36800000D03*
%TO.P,U1,14*%
X34562500Y-36400000D03*
D25*
%TO.P,U1,15*%
X35400000Y-35562500D03*
%TO.P,U1,16*%
X35800000Y-35562500D03*
%TO.P,U1,17*%
X36200000Y-35562500D03*
%TO.P,U1,18*%
X36600000Y-35562500D03*
%TO.P,U1,19*%
%TO.N,GND*%
X37000000Y-35562500D03*
%TO.P,U1,20*%
%TO.N,XIN*%
X37400000Y-35562500D03*
%TO.P,U1,21*%
%TO.N,XOUT*%
X37800000Y-35562500D03*
%TO.P,U1,22*%
%TO.N,3V3*%
X38200000Y-35562500D03*
%TO.P,U1,23*%
X38600000Y-35562500D03*
%TO.P,U1,24*%
%TO.N,SWCLK*%
X39000000Y-35562500D03*
%TO.P,U1,25*%
%TO.N,SWDIO*%
X39400000Y-35562500D03*
%TO.P,U1,26*%
%TO.N,RUN_RESET*%
X39800000Y-35562500D03*
%TO.P,U1,27*%
%TO.N,N/C*%
X40200000Y-35562500D03*
%TO.P,U1,28*%
X40600000Y-35562500D03*
D24*
%TO.P,U1,29*%
X41437500Y-36400000D03*
%TO.P,U1,30*%
X41437500Y-36800000D03*
%TO.P,U1,31*%
X41437500Y-37200000D03*
%TO.P,U1,32*%
X41437500Y-37600000D03*
%TO.P,U1,33*%
%TO.N,3V3*%
X41437500Y-38000000D03*
%TO.P,U1,34*%
%TO.N,N/C*%
X41437500Y-38400000D03*
%TO.P,U1,35*%
X41437500Y-38800000D03*
%TO.P,U1,36*%
X41437500Y-39200000D03*
%TO.P,U1,37*%
X41437500Y-39600000D03*
%TO.P,U1,38*%
X41437500Y-40000000D03*
%TO.P,U1,39*%
X41437500Y-40400000D03*
%TO.P,U1,40*%
X41437500Y-40800000D03*
%TO.P,U1,41*%
X41437500Y-41200000D03*
%TO.P,U1,42*%
%TO.N,3V3*%
X41437500Y-41600000D03*
D25*
%TO.P,U1,43*%
%TO.N,N/C*%
X40600000Y-42437500D03*
%TO.P,U1,44*%
%TO.N,3V3*%
X40200000Y-42437500D03*
%TO.P,U1,45*%
%TO.N,RP2040_VREG_OUT*%
X39800000Y-42437500D03*
%TO.P,U1,46*%
%TO.N,USB_DM_MCU*%
X39400000Y-42437500D03*
%TO.P,U1,47*%
%TO.N,USB_DP_MCU*%
X39000000Y-42437500D03*
%TO.P,U1,48*%
%TO.N,3V3_USB*%
X38600000Y-42437500D03*
%TO.P,U1,49*%
%TO.N,3V3*%
X38200000Y-42437500D03*
%TO.P,U1,50*%
X37800000Y-42437500D03*
%TO.P,U1,51*%
%TO.N,FLASH_HOLD_IO3*%
X37400000Y-42437500D03*
%TO.P,U1,52*%
%TO.N,FLASH_SCLK*%
X37000000Y-42437500D03*
%TO.P,U1,53*%
%TO.N,FLASH_IO0_MOSI*%
X36600000Y-42437500D03*
%TO.P,U1,54*%
%TO.N,FLASH_WP_IO2*%
X36200000Y-42437500D03*
%TO.P,U1,55*%
%TO.N,FLASH_IO1_MISO*%
X35800000Y-42437500D03*
%TO.P,U1,56*%
%TO.N,FLASH_CS_N_BOOTSEL*%
X35400000Y-42437500D03*
D19*
%TO.P,U1,57*%
%TO.N,GND*%
X36650000Y-37650000D03*
X36650000Y-40350000D03*
D26*
X38000000Y-39000000D03*
D19*
X39350000Y-37650000D03*
X39350000Y-40350000D03*
%TD*%
D15*
%TO.P,R1,1*%
%TO.N,USB_DP_CONN*%
X44175000Y-44000000D03*
%TO.P,R1,2*%
%TO.N,USB_DP_MCU*%
X45825000Y-44000000D03*
%TD*%
D14*
%TO.P,TP6,1*%
%TO.N,USB_DP_CONN*%
X4000000Y-29000000D03*
%TD*%
%TO.P,TP13,1*%
%TO.N,GND*%
X26000000Y-52000000D03*
%TD*%
D16*
%TO.P,C12,1*%
%TO.N,3V3*%
X61225000Y-35000000D03*
%TO.P,C12,2*%
%TO.N,GND*%
X62775000Y-35000000D03*
%TD*%
D27*
%TO.P,U4,1*%
%TO.N,VBUS*%
X54862500Y-39950000D03*
%TO.P,U4,2*%
%TO.N,GND*%
X54862500Y-39000000D03*
%TO.P,U4,3*%
%TO.N,VBUS*%
X54862500Y-38050000D03*
%TO.P,U4,4*%
%TO.N,N/C*%
X57137500Y-38050000D03*
%TO.P,U4,5*%
%TO.N,3V3*%
X57137500Y-39950000D03*
%TD*%
D15*
%TO.P,R4,1*%
%TO.N,CC2*%
X54175000Y-49000000D03*
%TO.P,R4,2*%
%TO.N,GND*%
X55825000Y-49000000D03*
%TD*%
%TO.P,R6,1*%
%TO.N,3V3*%
X48175000Y-28000000D03*
%TO.P,R6,2*%
%TO.N,I2C0_SCL*%
X49825000Y-28000000D03*
%TD*%
D16*
%TO.P,C15,1*%
%TO.N,LP_VCAP*%
X34225000Y-31000000D03*
%TO.P,C15,2*%
%TO.N,GND*%
X35775000Y-31000000D03*
%TD*%
D14*
%TO.P,TP9,1*%
%TO.N,SWDIO*%
X10000000Y-50000000D03*
%TD*%
%TO.P,TP1,1*%
%TO.N,VBUS*%
X4000000Y-9000000D03*
%TD*%
D28*
%TO.P,U6,1*%
%TO.N,VLED*%
X23650000Y-48000000D03*
%TO.P,U6,2*%
%TO.N,GND*%
X24350000Y-48000000D03*
%TD*%
D14*
%TO.P,TP8,1*%
%TO.N,RUN_RESET*%
X4000000Y-37000000D03*
%TD*%
D16*
%TO.P,C3,1*%
%TO.N,3V3*%
X31225000Y-20000000D03*
%TO.P,C3,2*%
%TO.N,GND*%
X32775000Y-20000000D03*
%TD*%
D29*
%TO.P,U5,1*%
%TO.N,USB_DP_CONN*%
X28650000Y-47575000D03*
%TO.P,U5,2*%
%TO.N,USB_DM_CONN*%
X29350000Y-47575000D03*
%TO.P,U5,3*%
%TO.N,GND*%
X29000000Y-48425000D03*
%TD*%
D23*
%TO.P,SW2,1*%
%TO.N,RUN_RESET*%
X66425000Y-48850000D03*
X71575000Y-48850000D03*
%TO.P,SW2,2*%
%TO.N,GND*%
X66425000Y-47150000D03*
X71575000Y-47150000D03*
%TD*%
D15*
%TO.P,R9,1*%
%TO.N,SHIELD*%
X60175000Y-42000000D03*
%TO.P,R9,2*%
%TO.N,GND*%
X61825000Y-42000000D03*
%TD*%
D16*
%TO.P,C13,1*%
%TO.N,XIN*%
X20225000Y-28000000D03*
%TO.P,C13,2*%
%TO.N,GND*%
X21775000Y-28000000D03*
%TD*%
D14*
%TO.P,TP11,1*%
%TO.N,RUN_RESET*%
X18000000Y-50000000D03*
%TD*%
D30*
%TO.N,D4_B*%
X37550000Y-19200000D03*
D31*
X43846400Y-30550000D03*
%TO.N,VLED*%
X65483000Y-18189100D03*
X11813900Y-17436700D03*
X12459600Y-38050000D03*
X22997900Y-48000000D03*
X57240800Y-41224000D03*
D30*
%TO.N,D4_G*%
X36900000Y-19200000D03*
D31*
%TO.N,D4_R*%
X45402600Y-25600900D03*
D30*
X36250000Y-19200000D03*
%TO.N,D2_B*%
X33000000Y-22750000D03*
%TO.N,D2_G*%
X33000000Y-23400000D03*
%TO.N,D2_R*%
X33000000Y-24050000D03*
%TO.N,D5_B*%
X39500000Y-19200000D03*
%TO.N,D5_G*%
X38850000Y-19200000D03*
D31*
%TO.N,D5_R*%
X64525200Y-15219300D03*
D30*
X38200000Y-19200000D03*
%TO.N,D1_B*%
X33000000Y-24700000D03*
D31*
X10441800Y-16812000D03*
D30*
%TO.N,D1_G*%
X33000000Y-25350000D03*
D31*
X9888600Y-13713100D03*
%TO.N,D1_R*%
X12383100Y-11398300D03*
D30*
X33000000Y-26000000D03*
%TO.N,D3_B*%
X35600000Y-19200000D03*
%TO.N,D3_G*%
X33000000Y-21450000D03*
D31*
X28007000Y-30466400D03*
D30*
%TO.N,D3_R*%
X31600000Y-22000000D03*
%TO.N,D6_B*%
X42500000Y-22350000D03*
%TO.N,D6_G*%
X42500000Y-21700000D03*
%TO.N,D6_R*%
X40150000Y-19200000D03*
%TO.N,GND*%
X39800000Y-27000000D03*
D31*
X53482100Y-39749600D03*
X6770600Y-20506300D03*
D30*
X37000000Y-34600000D03*
D31*
X32406300Y-46291200D03*
D30*
X39200000Y-27000000D03*
D31*
X44001200Y-35226200D03*
%TO.N,VBUS*%
X39861000Y-48193400D03*
X30719400Y-46227400D03*
X5025700Y-9000000D03*
%TO.N,USB_DP_CONN*%
X29490700Y-46297100D03*
X12442200Y-29000000D03*
%TO.N,USB_DM_CONN*%
X3183900Y-43147100D03*
X40972200Y-43445100D03*
X29856400Y-47068500D03*
X37952300Y-48191700D03*
%TO.N,SHIELD*%
X60175000Y-43924400D03*
D30*
%TO.N,3V3*%
X42400000Y-41600000D03*
X42400000Y-38000000D03*
X38600000Y-27000000D03*
X32800000Y-38000000D03*
X38600000Y-34200000D03*
X38200000Y-43300000D03*
X37800000Y-43000000D03*
X38200000Y-34600000D03*
X40200000Y-43300000D03*
D31*
%TO.N,XOUT*%
X26875400Y-31074600D03*
D30*
X37800000Y-32900000D03*
D31*
%TO.N,LP_IREF*%
X29175000Y-30470600D03*
D30*
X37000000Y-29200000D03*
D31*
%TO.N,I2C0_SDA*%
X4801700Y-26221300D03*
D30*
X38200000Y-28500000D03*
X32800000Y-39600000D03*
D31*
%TO.N,I2C0_SCL*%
X49825000Y-29478100D03*
D30*
X37800000Y-29200000D03*
X32000000Y-39200000D03*
D31*
X6125800Y-26672900D03*
D30*
%TO.N,LP_EN*%
X37400000Y-28500000D03*
D31*
X55032200Y-28983200D03*
X39907400Y-29442700D03*
%TO.N,XIN*%
X21667700Y-31746400D03*
D30*
X37400000Y-33700000D03*
D31*
%TO.N,FLASH_CS_N_BOOTSEL*%
X53258300Y-49480300D03*
D30*
X35400000Y-44700000D03*
D31*
X20511800Y-42986500D03*
%TO.N,FLASH_IO1_MISO*%
X21761000Y-41737600D03*
D30*
X35800000Y-44000000D03*
D31*
%TO.N,FLASH_WP_IO2*%
X21544200Y-39487500D03*
D30*
X36200000Y-44700000D03*
D31*
%TO.N,FLASH_IO0_MOSI*%
X25752300Y-41541700D03*
D30*
X36600000Y-44000000D03*
D31*
%TO.N,FLASH_SCLK*%
X26260300Y-38675500D03*
D30*
X37000000Y-44700000D03*
%TO.N,FLASH_HOLD_IO3*%
X37400000Y-44000000D03*
D31*
X22997600Y-39443700D03*
D30*
%TO.N,RP2040_VREG_OUT*%
X39800000Y-44000000D03*
D31*
X44951500Y-41273500D03*
D30*
%TO.N,SWCLK*%
X39000000Y-33700000D03*
D31*
X14721800Y-50721800D03*
D30*
%TO.N,USB_DM_MCU*%
X39400000Y-44700000D03*
D31*
X49427800Y-42943100D03*
D30*
%TO.N,SWDIO*%
X39400000Y-32900000D03*
D31*
X10000000Y-44753600D03*
D30*
%TO.N,RUN_RESET*%
X39800000Y-33700000D03*
D31*
X72643800Y-45005900D03*
X19262600Y-50963100D03*
D30*
%TO.N,USB_DP_MCU*%
X39000000Y-44000000D03*
D31*
X45089100Y-43264100D03*
%TD*%
%TO.N,D4_B*%
D32*
X37800000Y-22012500D02*
X37550000Y-19200000D01*
%TO.N,VLED*%
D33*
X23650000Y-48000000D02*
X22997900Y-48000000D01*
X57240800Y-41584200D02*
X57240800Y-41224000D01*
X53825000Y-45000000D02*
X57240800Y-41584200D01*
%TO.N,D4_G*%
D32*
X37400000Y-22012500D02*
X36900000Y-19200000D01*
%TO.N,D4_R*%
X37000000Y-22012500D02*
X36250000Y-19200000D01*
%TO.N,D2_B*%
X36012500Y-23400000D02*
X33000000Y-22750000D01*
%TO.N,D2_G*%
X36012500Y-23800000D02*
X33000000Y-23400000D01*
%TO.N,D2_R*%
X36012500Y-24200000D02*
X33000000Y-24050000D01*
%TO.N,D5_B*%
X39000000Y-22012500D02*
X39500000Y-19200000D01*
%TO.N,D5_G*%
X38600000Y-22012500D02*
X38850000Y-19200000D01*
%TO.N,D5_R*%
X38200000Y-22012500D02*
X38200000Y-19200000D01*
%TO.N,D1_B*%
X36012500Y-24600000D02*
X33000000Y-24700000D01*
%TO.N,D1_G*%
X36012500Y-25000000D02*
X33000000Y-25350000D01*
%TO.N,D1_R*%
X36012500Y-25400000D02*
X33000000Y-26000000D01*
%TO.N,D3_B*%
X36600000Y-22012500D02*
X35600000Y-19200000D01*
%TO.N,D3_G*%
X36012500Y-22600000D02*
X33000000Y-21450000D01*
%TO.N,D3_R*%
X36012500Y-23000000D02*
X31600000Y-22000000D01*
%TO.N,D6_B*%
X39987500Y-23000000D02*
X42500000Y-22350000D01*
%TO.N,D6_G*%
X39987500Y-22600000D02*
X42500000Y-21700000D01*
%TO.N,D6_R*%
X39400000Y-22012500D02*
X40150000Y-19200000D01*
%TO.N,GND*%
D33*
X53775000Y-39691400D02*
X53775000Y-39749600D01*
X66775000Y-47150000D02*
X66775000Y-42000000D01*
X25100000Y-29870200D02*
X26757400Y-28212800D01*
X32775000Y-20000000D02*
X28775000Y-24000000D01*
X26000000Y-49649900D02*
X27775100Y-49649900D01*
X6770600Y-20506300D02*
X6770600Y-19770600D01*
X42775000Y-45430000D02*
X42775000Y-44827900D01*
X32775000Y-33950000D02*
X30825000Y-32000000D01*
X25999900Y-49649900D02*
X26000000Y-49649900D01*
X48535000Y-44827900D02*
X42775000Y-44827900D01*
X56775000Y-23000000D02*
X56775000Y-34000000D01*
X32406300Y-46291200D02*
X32406300Y-46467400D01*
X53775000Y-43000000D02*
X53096900Y-43678100D01*
X32406300Y-46467400D02*
X34262400Y-46467400D01*
X29000000Y-48425000D02*
X30448700Y-48425000D01*
X55825000Y-49000000D02*
X55045600Y-48220600D01*
X55775000Y-22000000D02*
X56775000Y-23000000D01*
X22775000Y-29000000D02*
X21775000Y-28000000D01*
X28775000Y-29000000D02*
X30825000Y-31050000D01*
X62775000Y-35000000D02*
X61775000Y-34000000D01*
X21925000Y-32850000D02*
X20775000Y-34000000D01*
X47275000Y-41641100D02*
X48887600Y-43253700D01*
X54990800Y-21215800D02*
X51559200Y-21215800D01*
X24350000Y-48000000D02*
X25999900Y-49649900D01*
X22775000Y-29000000D02*
X25775000Y-26000000D01*
X26000000Y-49649900D02*
X26000000Y-52000000D01*
X24600000Y-31150000D02*
X22900000Y-32850000D01*
X54466400Y-39000000D02*
X53775000Y-39691400D01*
X34262400Y-46467400D02*
X34750000Y-46955000D01*
X28775000Y-24000000D02*
X28775000Y-28212800D01*
X51559200Y-21215800D02*
X50775000Y-22000000D01*
X32775000Y-36000000D02*
X32775000Y-33950000D01*
X6770600Y-19770600D02*
X4000000Y-17000000D01*
X62275000Y-37500000D02*
X60775000Y-39000000D01*
X62775000Y-37000000D02*
X62275000Y-37500000D01*
D32*
X37000000Y-35562500D02*
X37000000Y-34600000D01*
D33*
X41250000Y-46955000D02*
X42775000Y-45430000D01*
X22900000Y-32850000D02*
X21925000Y-32850000D01*
X48887600Y-43253700D02*
X48887600Y-44475300D01*
X71575000Y-47150000D02*
X66775000Y-47150000D01*
X38000000Y-39000000D02*
X39350000Y-37650000D01*
X66425000Y-47150000D02*
X63575000Y-47150000D01*
X51604400Y-48220600D02*
X50825000Y-49000000D01*
X55045600Y-48220600D02*
X53096900Y-48220600D01*
X48775000Y-20000000D02*
X50775000Y-22000000D01*
X53775000Y-39749600D02*
X53775000Y-43000000D01*
X48887600Y-44475300D02*
X48535000Y-44827900D01*
D32*
X39000000Y-25987500D02*
X39200000Y-27000000D01*
D33*
X30448700Y-48425000D02*
X32406300Y-46467400D01*
X61775000Y-34000000D02*
X56775000Y-34000000D01*
X32775000Y-33950000D02*
X35200000Y-33950000D01*
X35200000Y-33950000D02*
X35775000Y-33375000D01*
X56575000Y-49000000D02*
X55825000Y-49000000D01*
X53096900Y-48220600D02*
X51604400Y-48220600D01*
X55775000Y-22000000D02*
X54990800Y-21215800D01*
X19525000Y-37095000D02*
X20775000Y-35845000D01*
X27775100Y-49649900D02*
X29000000Y-48425000D01*
X63575000Y-47150000D02*
X62645200Y-46220200D01*
X44775000Y-20000000D02*
X48775000Y-20000000D01*
X25100000Y-31150000D02*
X25100000Y-29870200D01*
X35775000Y-33375000D02*
X37000000Y-34600000D01*
X47275000Y-38500000D02*
X44775000Y-36000000D01*
X20775000Y-35845000D02*
X20775000Y-34000000D01*
X59354800Y-46220200D02*
X58425000Y-47150000D01*
X24600000Y-30825000D02*
X22775000Y-29000000D01*
X24600000Y-31150000D02*
X24600000Y-30825000D01*
X66775000Y-42000000D02*
X62275000Y-37500000D01*
X62645200Y-46220200D02*
X61825000Y-46220200D01*
D32*
X39400000Y-25987500D02*
X39800000Y-27000000D01*
D33*
X53096900Y-43678100D02*
X53096900Y-48220600D01*
X66775000Y-47150000D02*
X66425000Y-47150000D01*
X25100000Y-31150000D02*
X24600000Y-31150000D01*
X47275000Y-40500000D02*
X47275000Y-41641100D01*
X42775000Y-44827900D02*
X42775000Y-44500000D01*
X53482100Y-39749600D02*
X53775000Y-39749600D01*
X61825000Y-46220200D02*
X59354800Y-46220200D01*
X26757400Y-28212800D02*
X28775000Y-28212800D01*
X28775000Y-28212800D02*
X28775000Y-29000000D01*
X54862500Y-39000000D02*
X54466400Y-39000000D01*
X47275000Y-40500000D02*
X47275000Y-38500000D01*
X58425000Y-47150000D02*
X56575000Y-49000000D01*
X30825000Y-31050000D02*
X30825000Y-32000000D01*
X35775000Y-31000000D02*
X35775000Y-33375000D01*
X61825000Y-46220200D02*
X61825000Y-42000000D01*
X62775000Y-35000000D02*
X62775000Y-37000000D01*
X44775000Y-36000000D02*
X44001200Y-35226200D01*
%TO.N,VBUS*%
X4000000Y-9000000D02*
X5025700Y-9000000D01*
X31258900Y-45687900D02*
X30719400Y-46227400D01*
X45796700Y-46473800D02*
X43024100Y-49246400D01*
X52225000Y-40116300D02*
X52225000Y-43000000D01*
X55876300Y-39312100D02*
X55876300Y-38655000D01*
X55506000Y-39682400D02*
X56419300Y-40595700D01*
X52175000Y-43050000D02*
X52175000Y-45000000D01*
X43024100Y-49246400D02*
X40729500Y-49246400D01*
X59225000Y-39264400D02*
X59225000Y-39000000D01*
X57893700Y-40595700D02*
X59225000Y-39264400D01*
X40729500Y-49246400D02*
X40105800Y-48622700D01*
X54862500Y-38050000D02*
X54291300Y-38050000D01*
X55238400Y-39950000D02*
X55506000Y-39682400D01*
X40105800Y-48622700D02*
X40105800Y-48193400D01*
X40105800Y-48193400D02*
X40105800Y-47934600D01*
X52175000Y-45000000D02*
X50701200Y-46473800D01*
X34854300Y-45687900D02*
X31258900Y-45687900D01*
X54862500Y-39950000D02*
X55238400Y-39950000D01*
X50701200Y-46473800D02*
X45796700Y-46473800D01*
X52225000Y-43000000D02*
X52175000Y-43050000D01*
X40105800Y-47934600D02*
X40450000Y-47590400D01*
X40450000Y-47590400D02*
X40450000Y-46955000D01*
X55271300Y-38050000D02*
X54862500Y-38050000D01*
X54291300Y-38050000D02*
X52225000Y-40116300D01*
X55876300Y-38655000D02*
X55271300Y-38050000D01*
X35550000Y-46955000D02*
X35550000Y-46383600D01*
X40105800Y-48193400D02*
X39861000Y-48193400D01*
X56419300Y-40595700D02*
X57893700Y-40595700D01*
X55506000Y-39682400D02*
X55876300Y-39312100D01*
X35550000Y-46383600D02*
X34854300Y-45687900D01*
%TO.N,CC1*%
X39250000Y-48519600D02*
X39250000Y-46955000D01*
X48506800Y-49668200D02*
X40398600Y-49668200D01*
X40398600Y-49668200D02*
X39250000Y-48519600D01*
X49175000Y-49000000D02*
X48506800Y-49668200D01*
%TO.N,USB_DP_CONN*%
X36346200Y-45286200D02*
X30783000Y-45286200D01*
X37250000Y-46190000D02*
X37531400Y-45908600D01*
X41370400Y-45581500D02*
X42000000Y-44951900D01*
X43854200Y-43679200D02*
X44175000Y-44000000D01*
X38250000Y-46196900D02*
X38865400Y-45581500D01*
X4000000Y-29000000D02*
X12442200Y-29000000D01*
X29490700Y-46297100D02*
X29631400Y-46437800D01*
X42340300Y-43679200D02*
X43854200Y-43679200D01*
X37250000Y-46190000D02*
X36346200Y-45286200D01*
X28650000Y-47419200D02*
X28650000Y-47575000D01*
X42000000Y-44019500D02*
X42340300Y-43679200D01*
X38250000Y-46196900D02*
X38250000Y-46955000D01*
X29631400Y-46437800D02*
X28650000Y-47419200D01*
X38865400Y-45581500D02*
X41370400Y-45581500D01*
X37961700Y-45908600D02*
X38250000Y-46196900D01*
X42000000Y-44951900D02*
X42000000Y-44019500D01*
X37531400Y-45908600D02*
X37961700Y-45908600D01*
X30783000Y-45286200D02*
X29631400Y-46437800D01*
X37250000Y-46955000D02*
X37250000Y-46190000D01*
%TO.N,USB_DM_CONN*%
X38542100Y-47988200D02*
X37952300Y-47988200D01*
X37952300Y-47988200D02*
X37952300Y-48191700D01*
X37952300Y-47988200D02*
X37750000Y-47785900D01*
X38750000Y-46955000D02*
X38750000Y-47780300D01*
X3183900Y-33816100D02*
X3183900Y-43147100D01*
X29856400Y-47068600D02*
X29856400Y-47068500D01*
X29350000Y-47575000D02*
X29856400Y-47068600D01*
X4000000Y-33000000D02*
X3183900Y-33816100D01*
X46826900Y-42651900D02*
X41765400Y-42651900D01*
X38750000Y-47780300D02*
X38542100Y-47988200D01*
X37750000Y-47785900D02*
X37750000Y-46955000D01*
X48175000Y-44000000D02*
X46826900Y-42651900D01*
X41765400Y-42651900D02*
X40972200Y-43445100D01*
%TO.N,CC2*%
X36250000Y-46955000D02*
X36250000Y-47780200D01*
X51708600Y-50137500D02*
X52986400Y-48859700D01*
X52986400Y-48859700D02*
X54034700Y-48859700D01*
X36250000Y-47780200D02*
X38607300Y-50137500D01*
X54034700Y-48859700D02*
X54175000Y-49000000D01*
X38607300Y-50137500D02*
X51708600Y-50137500D01*
%TO.N,SHIELD*%
X60175000Y-42000000D02*
X60175000Y-43924400D01*
X65225000Y-42000000D02*
X64437000Y-41212000D01*
X64437000Y-41212000D02*
X60963000Y-41212000D01*
X60963000Y-41212000D02*
X60175000Y-42000000D01*
%TO.N,3V3*%
X55225000Y-34000000D02*
X55225000Y-30050000D01*
X18205400Y-48205400D02*
X22000000Y-52000000D01*
X18217200Y-35007800D02*
X18217200Y-37427500D01*
X23800900Y-26424100D02*
X24225000Y-26000000D01*
X24475000Y-40905000D02*
X23608100Y-40905000D01*
X44175000Y-27697800D02*
X44175000Y-28000000D01*
X31225000Y-40400500D02*
X31600500Y-40400500D01*
X19225000Y-34000000D02*
X18217200Y-35007800D01*
X31225000Y-40400500D02*
X31225000Y-38000000D01*
X29471800Y-42153700D02*
X31225000Y-40400500D01*
D32*
X38200000Y-42437500D02*
X38200000Y-43300000D01*
D33*
X19225000Y-26424100D02*
X23800900Y-26424100D01*
D32*
X41437500Y-41600000D02*
X42400000Y-41600000D01*
D33*
X58725000Y-37866700D02*
X58725000Y-37500000D01*
X58725000Y-37500000D02*
X55225000Y-34000000D01*
X19225000Y-34000000D02*
X19225000Y-26424100D01*
X20686400Y-37730000D02*
X18519700Y-37730000D01*
X53175000Y-27187100D02*
X53175000Y-28000000D01*
D32*
X38600000Y-25987500D02*
X38600000Y-27000000D01*
D33*
X22149600Y-39193200D02*
X20686400Y-37730000D01*
X55225000Y-30050000D02*
X53175000Y-28000000D01*
X25442400Y-42153700D02*
X29471800Y-42153700D01*
X30225000Y-20000000D02*
X24225000Y-26000000D01*
X43225000Y-36000000D02*
X42400000Y-36825000D01*
X18205400Y-38044300D02*
X18205400Y-48205400D01*
X48175000Y-23050000D02*
X48175000Y-25237100D01*
X18519700Y-37730000D02*
X18205400Y-38044300D01*
D32*
X34562500Y-38000000D02*
X32800000Y-38000000D01*
D33*
X46635700Y-25237100D02*
X44175000Y-27697800D01*
X57137500Y-39454200D02*
X58725000Y-37866700D01*
D32*
X34562500Y-41600000D02*
X32800000Y-41600000D01*
D33*
X53175000Y-27187100D02*
X48175000Y-27187100D01*
D32*
X37800000Y-42437500D02*
X37800000Y-43000000D01*
D33*
X24475000Y-41186300D02*
X25442400Y-42153700D01*
X23608100Y-40905000D02*
X22149600Y-39446500D01*
X53987900Y-27187100D02*
X53175000Y-27187100D01*
X24475000Y-40905000D02*
X24475000Y-41186300D01*
X48175000Y-25237100D02*
X48175000Y-27187100D01*
X58725000Y-37500000D02*
X61225000Y-35000000D01*
D32*
X38200000Y-35562500D02*
X38200000Y-34600000D01*
D33*
X54225000Y-22000000D02*
X54225000Y-26950000D01*
X17424100Y-26424100D02*
X19225000Y-26424100D01*
X44175000Y-27697800D02*
X39212700Y-27697800D01*
X57137500Y-39950000D02*
X57137500Y-39454200D01*
X22149600Y-39446500D02*
X22149600Y-39193200D01*
X18217200Y-37427500D02*
X18519700Y-37730000D01*
D32*
X38600000Y-35562500D02*
X38600000Y-34200000D01*
D33*
X31225000Y-20000000D02*
X30225000Y-20000000D01*
X48175000Y-27187100D02*
X48175000Y-28000000D01*
X48175000Y-25237100D02*
X46635700Y-25237100D01*
X31225000Y-38000000D02*
X32800000Y-38000000D01*
X54225000Y-26950000D02*
X53987900Y-27187100D01*
X38600000Y-27085100D02*
X38600000Y-27000000D01*
X31600500Y-40400500D02*
X32800000Y-41600000D01*
D32*
X41437500Y-38000000D02*
X42400000Y-38000000D01*
D33*
X31225000Y-38000000D02*
X31225000Y-36000000D01*
X43225000Y-20000000D02*
X43225000Y-21826400D01*
X43225000Y-21826400D02*
X46635700Y-25237100D01*
D32*
X40200000Y-42437500D02*
X40200000Y-43300000D01*
D33*
X42400000Y-36825000D02*
X42400000Y-38000000D01*
X39212700Y-27697800D02*
X38600000Y-27085100D01*
X4000000Y-13000000D02*
X17424100Y-26424100D01*
X49225000Y-22000000D02*
X48175000Y-23050000D01*
%TO.N,XOUT*%
X27225000Y-30725000D02*
X27225000Y-29000000D01*
X26875400Y-31074600D02*
X27225000Y-30725000D01*
D32*
X37800000Y-35562500D02*
X37800000Y-32900000D01*
D33*
X25100000Y-32850000D02*
X26875400Y-31074600D01*
%TO.N,LP_IREF*%
D32*
X37000000Y-25987500D02*
X37000000Y-29200000D01*
D33*
X29175000Y-32000000D02*
X29175000Y-30470600D01*
%TO.N,I2C0_SDA*%
D32*
X38200000Y-25987500D02*
X38200000Y-28500000D01*
D33*
X44998300Y-28826700D02*
X38526700Y-28826700D01*
X38526700Y-28826700D02*
X38200000Y-28500000D01*
X4000000Y-21000000D02*
X4801700Y-21801700D01*
D32*
X34562500Y-39600000D02*
X32800000Y-39600000D01*
D33*
X4801700Y-21801700D02*
X4801700Y-26221300D01*
X45825000Y-28000000D02*
X44998300Y-28826700D01*
%TO.N,3V3_USB*%
X39033500Y-45133500D02*
X38600000Y-44700000D01*
X41225000Y-44500000D02*
X40591500Y-45133500D01*
D32*
X38600000Y-42437500D02*
X38600000Y-44700000D01*
D33*
X40591500Y-45133500D02*
X39033500Y-45133500D01*
%TO.N,I2C0_SCL*%
D32*
X34562500Y-39200000D02*
X32000000Y-39200000D01*
X37800000Y-25987500D02*
X37800000Y-29200000D01*
D33*
X4529900Y-26824900D02*
X5973800Y-26824900D01*
X4000000Y-26295000D02*
X4529900Y-26824900D01*
X49825000Y-28000000D02*
X49825000Y-29478100D01*
X5973800Y-26824900D02*
X6125800Y-26672900D01*
X4000000Y-25000000D02*
X4000000Y-26295000D01*
%TO.N,LP_EN*%
X54825000Y-28000000D02*
X54825000Y-28776000D01*
D32*
X37400000Y-25987500D02*
X37400000Y-28500000D01*
D33*
X54825000Y-28776000D02*
X55032200Y-28983200D01*
%TO.N,LP_VCAP*%
X34225000Y-30875000D02*
X36600000Y-28500000D01*
D32*
X36600000Y-25987500D02*
X36600000Y-28500000D01*
D33*
X34225000Y-31000000D02*
X34225000Y-30875000D01*
%TO.N,XIN*%
X20225000Y-28000000D02*
X20225000Y-29707300D01*
D32*
X37400000Y-35562500D02*
X37400000Y-33700000D01*
D33*
X20225000Y-29707300D02*
X21667700Y-31150000D01*
X21667700Y-31150000D02*
X21667700Y-31746400D01*
X22900000Y-31150000D02*
X21667700Y-31150000D01*
%TO.N,FLASH_CS_N_BOOTSEL*%
X58425000Y-48850000D02*
X57410500Y-49864500D01*
X19525000Y-40905000D02*
X20511800Y-41891800D01*
X20511800Y-41891800D02*
X20511800Y-42986500D01*
X63575000Y-48850000D02*
X58425000Y-48850000D01*
X53642500Y-49864500D02*
X53258300Y-49480300D01*
D32*
X35400000Y-42437500D02*
X35400000Y-44700000D01*
D33*
X57410500Y-49864500D02*
X53642500Y-49864500D01*
%TO.N,FLASH_IO1_MISO*%
D32*
X35800000Y-42437500D02*
X35800000Y-44000000D01*
D33*
X19872400Y-39635000D02*
X21761000Y-41523600D01*
X21761000Y-41523600D02*
X21761000Y-41737600D01*
X19525000Y-39635000D02*
X19872400Y-39635000D01*
%TO.N,FLASH_WP_IO2*%
D32*
X36200000Y-42437500D02*
X36200000Y-44700000D01*
D33*
X19525000Y-38365000D02*
X20421700Y-38365000D01*
X20421700Y-38365000D02*
X21544200Y-39487500D01*
%TO.N,FLASH_IO0_MOSI*%
X23173200Y-38762300D02*
X23410900Y-39000000D01*
X23410900Y-39000000D02*
X25457700Y-39000000D01*
D32*
X36600000Y-42437500D02*
X36600000Y-44000000D01*
D33*
X23173200Y-38001800D02*
X23173200Y-38762300D01*
X24475000Y-37095000D02*
X24080000Y-37095000D01*
X25457700Y-39000000D02*
X25752300Y-39294600D01*
X24080000Y-37095000D02*
X23173200Y-38001800D01*
X25752300Y-39294600D02*
X25752300Y-41541700D01*
%TO.N,FLASH_SCLK*%
D32*
X37000000Y-42437500D02*
X37000000Y-44700000D01*
D33*
X25949800Y-38365000D02*
X26260300Y-38675500D01*
X24475000Y-38365000D02*
X25949800Y-38365000D01*
%TO.N,FLASH_HOLD_IO3*%
X22997600Y-39443700D02*
X23188900Y-39635000D01*
D32*
X37400000Y-42437500D02*
X37400000Y-44000000D01*
D33*
X23188900Y-39635000D02*
X24475000Y-39635000D01*
%TO.N,RP2040_VREG_OUT*%
X44951500Y-41273500D02*
X45725000Y-40500000D01*
D32*
X39800000Y-42437500D02*
X39800000Y-44000000D01*
%TO.N,SWCLK*%
X39000000Y-35562500D02*
X39000000Y-33700000D01*
D33*
X14000000Y-50000000D02*
X14721800Y-50721800D01*
%TO.N,USB_DM_MCU*%
X49825000Y-44000000D02*
X49427800Y-43602800D01*
X49427800Y-43602800D02*
X49427800Y-42943100D01*
D32*
X39400000Y-42437500D02*
X39400000Y-44700000D01*
%TO.N,SWDIO*%
D33*
X10000000Y-50000000D02*
X10000000Y-44753600D01*
D32*
X39400000Y-35562500D02*
X39400000Y-32900000D01*
%TO.N,RUN_RESET*%
D33*
X72643800Y-47781200D02*
X72643800Y-45005900D01*
X71575000Y-48850000D02*
X72643800Y-47781200D01*
X71575000Y-48850000D02*
X66425000Y-48850000D01*
X5000000Y-37000000D02*
X4000000Y-37000000D01*
X18963100Y-50963100D02*
X18000000Y-50000000D01*
X18000000Y-50000000D02*
X5000000Y-37000000D01*
X19262600Y-50963100D02*
X18963100Y-50963100D01*
D32*
X39800000Y-35562500D02*
X39800000Y-33700000D01*
%TO.N,USB_DP_MCU*%
X39000000Y-42437500D02*
X39000000Y-44000000D01*
D33*
X45089100Y-43264100D02*
X45825000Y-44000000D01*
%TD*%
M02*
