M48
; DRILL file KiCad 10.0.3 date 2026-06-01T02:14:20
; FORMAT={-:-/ absolute / metric / decimal}
; #@! TF.CreationDate,2026-06-01T02:14:20+08:00
; #@! TF.GenerationSoftware,Kicad,Pcbnew,10.0.3
; #@! TF.FileFunction,MixedPlating,1,4
FMAT,2
METRIC
; #@! TA.AperFunction,Plated,PTH,ViaDrill
T1C0.300
; #@! TA.AperFunction,Plated,PTH,ComponentDrill
T2C0.600
; #@! TA.AperFunction,NonPlated,NPTH,ComponentDrill
T3C0.650
; #@! TA.AperFunction,NonPlated,NPTH,ComponentDrill
T4C2.200
%
G90
G05
T1
X4.0Y-23.734
X4.0Y-36.165
X4.088Y-9.839
X4.587Y-25.587
X5.503Y-39.24
X5.908Y-43.454
X9.173Y-46.186
X9.727Y-19.27
X10.0Y-39.212
X12.268Y-34.048
X12.274Y-14.648
X14.0Y-49.167
X17.3Y-39.635
X18.015Y-49.167
X18.124Y-34.732
X19.525Y-39.0
X21.963Y-40.905
X22.329Y-37.148
X23.634Y-39.0
X23.942Y-31.092
X25.626Y-41.412
X27.523Y-46.887
X28.107Y-34.343
X28.418Y-46.705
X28.455Y-30.473
X30.187Y-27.483
X30.484Y-33.164
X30.941Y-45.984
X31.029Y-32.807
X32.362Y-39.2
X32.362Y-41.6
X33.112Y-38.0
X33.112Y-39.6
X33.812Y-22.6
X33.812Y-23.4
X33.812Y-24.2
X33.812Y-25.0
X34.122Y-46.223
X34.562Y-23.0
X34.562Y-23.8
X34.562Y-24.6
X34.562Y-25.4
X35.4Y-43.788
X35.8Y-44.538
X36.2Y-43.788
X36.6Y-20.562
X36.6Y-28.188
X36.6Y-44.538
X37.0Y-19.812
X37.0Y-27.438
X37.0Y-34.112
X37.0Y-43.788
X37.4Y-20.562
X37.4Y-28.188
X37.4Y-33.362
X37.4Y-44.538
X37.8Y-19.812
X37.8Y-27.438
X37.8Y-34.112
X37.8Y-43.788
X38.2Y-20.562
X38.2Y-28.188
X38.2Y-33.362
X38.2Y-44.538
X38.6Y-19.812
X38.6Y-27.438
X38.6Y-34.112
X38.6Y-43.788
X39.0Y-20.562
X39.0Y-28.188
X39.0Y-33.362
X39.0Y-44.538
X39.195Y-45.853
X39.4Y-19.812
X39.4Y-27.438
X39.4Y-34.112
X39.4Y-43.788
X39.8Y-33.362
X39.8Y-44.538
X40.2Y-43.788
X41.438Y-22.6
X42.011Y-46.23
X42.188Y-23.0
X42.941Y-42.987
X42.987Y-38.0
X42.987Y-41.6
X45.237Y-29.462
X46.981Y-29.648
X49.211Y-28.614
X49.396Y-43.156
X51.228Y-45.0
X54.594Y-44.183
X55.189Y-28.915
X58.76Y-45.779
X61.0Y-47.463
X64.7Y-12.85
X65.141Y-18.133
X65.363Y-48.926
T3
X35.11Y-48.4
X40.89Y-48.4
T4
X4.0Y-4.0
X4.0Y-52.0
X72.0Y-4.0
X72.0Y-52.0
T2
X33.68Y-48.42G85X33.68Y-47.32
G05
X33.68Y-52.35G85X33.68Y-51.75
G05
X42.32Y-48.42G85X42.32Y-47.32
G05
X42.32Y-52.35G85X42.32Y-51.75
G05
M30
