M48
; DRILL file KiCad 10.0.3 date 2026-06-01T00:55:41
; FORMAT={-:-/ absolute / metric / decimal}
; #@! TF.CreationDate,2026-06-01T00:55:41+08:00
; #@! TF.GenerationSoftware,Kicad,Pcbnew,10.0.3
; #@! TF.FileFunction,MixedPlating,1,4
FMAT,2
METRIC
; #@! TA.AperFunction,Plated,PTH,ViaDrill
T1C0.100
; #@! TA.AperFunction,Plated,PTH,ComponentDrill
T2C0.200
; #@! TA.AperFunction,Plated,PTH,ViaDrill
T3C0.300
; #@! TA.AperFunction,Plated,PTH,ComponentDrill
T4C0.600
; #@! TA.AperFunction,NonPlated,NPTH,ComponentDrill
T5C0.650
; #@! TA.AperFunction,NonPlated,NPTH,ComponentDrill
T6C2.200
%
G90
G05
T1
X31.6Y-22.0
X32.0Y-39.2
X32.8Y-38.0
X32.8Y-39.6
X33.0Y-21.45
X33.0Y-22.75
X33.0Y-23.4
X33.0Y-24.05
X33.0Y-24.7
X33.0Y-25.35
X33.0Y-26.0
X35.4Y-44.7
X35.6Y-19.2
X35.8Y-44.0
X36.2Y-44.7
X36.25Y-19.2
X36.6Y-44.0
X36.9Y-19.2
X37.0Y-29.2
X37.0Y-34.6
X37.0Y-44.7
X37.4Y-28.5
X37.4Y-33.7
X37.4Y-44.0
X37.55Y-19.2
X37.8Y-29.2
X37.8Y-32.9
X37.8Y-43.0
X38.2Y-19.2
X38.2Y-28.5
X38.2Y-34.6
X38.2Y-43.3
X38.6Y-27.0
X38.6Y-34.2
X38.85Y-19.2
X39.0Y-33.7
X39.0Y-44.0
X39.2Y-27.0
X39.4Y-32.9
X39.4Y-44.7
X39.5Y-19.2
X39.8Y-27.0
X39.8Y-33.7
X39.8Y-44.0
X40.15Y-19.2
X40.2Y-43.3
X42.4Y-38.0
X42.4Y-41.6
X42.5Y-21.7
X42.5Y-22.35
T2
X36.65Y-37.65
X36.65Y-40.35
X36.85Y-22.85
X36.85Y-24.0
X36.85Y-25.15
X38.0Y-22.85
X38.0Y-24.0
X38.0Y-25.15
X39.15Y-22.85
X39.15Y-24.0
X39.15Y-25.15
X39.35Y-37.65
X39.35Y-40.35
T3
X3.184Y-43.147
X4.802Y-26.221
X5.026Y-9.0
X6.126Y-26.673
X6.771Y-20.506
X9.889Y-13.713
X10.0Y-44.754
X10.442Y-16.812
X11.814Y-17.437
X12.383Y-11.398
X12.442Y-29.0
X12.46Y-38.05
X14.722Y-50.722
X19.263Y-50.963
X20.512Y-42.986
X21.544Y-39.487
X21.668Y-31.746
X21.761Y-41.738
X22.998Y-39.444
X22.998Y-48.0
X25.752Y-41.542
X26.26Y-38.675
X26.875Y-31.075
X28.007Y-30.466
X29.175Y-30.471
X29.491Y-46.297
X29.856Y-47.069
X30.719Y-46.227
X32.406Y-46.291
X37.952Y-48.192
X39.861Y-48.193
X39.907Y-29.443
X40.972Y-43.445
X43.846Y-30.55
X44.001Y-35.226
X44.951Y-41.273
X45.089Y-43.264
X45.403Y-25.601
X49.428Y-42.943
X49.825Y-29.478
X53.258Y-49.48
X53.482Y-39.75
X55.032Y-28.983
X57.241Y-41.224
X60.175Y-43.924
X64.525Y-15.219
X65.483Y-18.189
X72.644Y-45.006
T5
X35.11Y-48.4
X40.89Y-48.4
T6
X4.0Y-4.0
X4.0Y-52.0
X72.0Y-4.0
X72.0Y-52.0
T4
X33.68Y-48.42G85X33.68Y-47.32
G05
X33.68Y-52.35G85X33.68Y-51.75
G05
X42.32Y-48.42G85X42.32Y-47.32
G05
X42.32Y-52.35G85X42.32Y-51.75
G05
M30
