%TF.GenerationSoftware,KiCad,Pcbnew,10.0.3*%
%TF.CreationDate,2026-05-31T01:06:46+08:00*%
%TF.ProjectId,tellmelight_rev_a3,74656c6c-6d65-46c6-9967-68745f726576,A3*%
%TF.SameCoordinates,Original*%
%TF.FileFunction,Paste,Bot*%
%TF.FilePolarity,Positive*%
%FSLAX46Y46*%
G04 Gerber Fmt 4.6, Leading zero omitted, Abs format (unit mm)*
G04 Created by KiCad (PCBNEW 10.0.3) date 2026-05-31 01:06:46*
%MOMM*%
%LPD*%
G01*
G04 APERTURE LIST*
G04 Aperture macros list*
%AMRoundRect*
0 Rectangle with rounded corners*
0 $1 Rounding radius*
0 $2 $3 $4 $5 $6 $7 $8 $9 X,Y pos of 4 corners*
0 Add a 4 corners polygon primitive as box body*
4,1,4,$2,$3,$4,$5,$6,$7,$8,$9,$2,$3,0*
0 Add four circle primitives for the rounded corners*
1,1,$1+$1,$2,$3*
1,1,$1+$1,$4,$5*
1,1,$1+$1,$6,$7*
1,1,$1+$1,$8,$9*
0 Add four rect primitives between the rounded corners*
20,1,$1+$1,$2,$3,$4,$5,0*
20,1,$1+$1,$4,$5,$6,$7,0*
20,1,$1+$1,$6,$7,$8,$9,0*
20,1,$1+$1,$8,$9,$2,$3,0*%
G04 Aperture macros list end*
%ADD10RoundRect,0.225000X-0.225000X-0.250000X0.225000X-0.250000X0.225000X0.250000X-0.225000X0.250000X0*%
%ADD11RoundRect,0.200000X-0.200000X-0.275000X0.200000X-0.275000X0.200000X0.275000X-0.200000X0.275000X0*%
%ADD12RoundRect,0.150000X-0.512500X-0.150000X0.512500X-0.150000X0.512500X0.150000X-0.512500X0.150000X0*%
%ADD13RoundRect,0.250000X-0.450000X-0.350000X0.450000X-0.350000X0.450000X0.350000X-0.450000X0.350000X0*%
%ADD14RoundRect,0.250000X-0.475000X-0.250000X0.475000X-0.250000X0.475000X0.250000X-0.475000X0.250000X0*%
%ADD15RoundRect,0.250000X-0.370000X-0.370000X0.370000X-0.370000X0.370000X0.370000X-0.370000X0.370000X0*%
%ADD16RoundRect,0.050000X-0.387500X-0.050000X0.387500X-0.050000X0.387500X0.050000X-0.387500X0.050000X0*%
%ADD17RoundRect,0.050000X-0.050000X-0.387500X0.050000X-0.387500X0.050000X0.387500X-0.050000X0.387500X0*%
%ADD18RoundRect,0.150000X-0.825000X-0.150000X0.825000X-0.150000X0.825000X0.150000X-0.825000X0.150000X0*%
%ADD19RoundRect,0.075000X-0.075000X-0.075000X0.075000X-0.075000X0.075000X0.075000X-0.075000X0.075000X0*%
%ADD20RoundRect,0.150000X0.150000X0.575000X-0.150000X0.575000X-0.150000X-0.575000X0.150000X-0.575000X0*%
%ADD21RoundRect,0.075000X0.075000X0.650000X-0.075000X0.650000X-0.075000X-0.650000X0.075000X-0.650000X0*%
%ADD22RoundRect,0.250000X-0.335000X-0.335000X0.335000X-0.335000X0.335000X0.335000X-0.335000X0.335000X0*%
%ADD23RoundRect,0.050000X-0.337500X-0.050000X0.337500X-0.050000X0.337500X0.050000X-0.337500X0.050000X0*%
%ADD24RoundRect,0.050000X-0.050000X-0.337500X0.050000X-0.337500X0.050000X0.337500X-0.050000X0.337500X0*%
%ADD25RoundRect,0.075000X-0.075000X-0.175000X0.075000X-0.175000X0.075000X0.175000X-0.075000X0.175000X0*%
G04 APERTURE END LIST*
D10*
%TO.C,C15*%
X30225000Y-28000000D03*
X31775000Y-28000000D03*
%TD*%
D11*
%TO.C,R10*%
X46175000Y-45000000D03*
X47825000Y-45000000D03*
%TD*%
D10*
%TO.C,C13*%
X20225000Y-28000000D03*
X21775000Y-28000000D03*
%TD*%
%TO.C,C1*%
X31225000Y-36000000D03*
X32775000Y-36000000D03*
%TD*%
%TO.C,C14*%
X27225000Y-29000000D03*
X28775000Y-29000000D03*
%TD*%
%TO.C,C8*%
X52225000Y-43000000D03*
X53775000Y-43000000D03*
%TD*%
D12*
%TO.C,U4*%
X54862500Y-39950000D03*
X54862500Y-39000000D03*
X54862500Y-38050000D03*
X57137500Y-38050000D03*
X57137500Y-39950000D03*
%TD*%
D10*
%TO.C,C4*%
X43225000Y-20000000D03*
X44775000Y-20000000D03*
%TD*%
D11*
%TO.C,R5*%
X44175000Y-28000000D03*
X45825000Y-28000000D03*
%TD*%
%TO.C,R9*%
X60175000Y-42000000D03*
X61825000Y-42000000D03*
%TD*%
%TO.C,R3*%
X49175000Y-49000000D03*
X50825000Y-49000000D03*
%TD*%
%TO.C,R7*%
X33175000Y-28000000D03*
X34825000Y-28000000D03*
%TD*%
%TO.C,R8*%
X53175000Y-28000000D03*
X54825000Y-28000000D03*
%TD*%
%TO.C,R4*%
X54175000Y-49000000D03*
X55825000Y-49000000D03*
%TD*%
D13*
%TO.C,Y1*%
X22900000Y-31150000D03*
X25100000Y-31150000D03*
X25100000Y-32850000D03*
X22900000Y-32850000D03*
%TD*%
D10*
%TO.C,C16*%
X54225000Y-22000000D03*
X55775000Y-22000000D03*
%TD*%
%TO.C,C6*%
X55225000Y-34000000D03*
X56775000Y-34000000D03*
%TD*%
D11*
%TO.C,R1*%
X31175000Y-44000000D03*
X32825000Y-44000000D03*
%TD*%
%TO.C,R2*%
X35175000Y-44000000D03*
X36825000Y-44000000D03*
%TD*%
D14*
%TO.C,SW2*%
X66425000Y-48850000D03*
X71575000Y-48850000D03*
X66425000Y-47150000D03*
X71575000Y-47150000D03*
%TD*%
D11*
%TO.C,R6*%
X48175000Y-28000000D03*
X49825000Y-28000000D03*
%TD*%
D10*
%TO.C,C5*%
X19225000Y-34000000D03*
X20775000Y-34000000D03*
%TD*%
D15*
%TO.C,U1*%
X37200000Y-38200000D03*
X37200000Y-39800000D03*
X38800000Y-38200000D03*
X38800000Y-39800000D03*
D16*
X34562500Y-41600000D03*
X34562500Y-41200000D03*
X34562500Y-40800000D03*
X34562500Y-40400000D03*
X34562500Y-40000000D03*
X34562500Y-39600000D03*
X34562500Y-39200000D03*
X34562500Y-38800000D03*
X34562500Y-38400000D03*
X34562500Y-38000000D03*
X34562500Y-37600000D03*
X34562500Y-37200000D03*
X34562500Y-36800000D03*
X34562500Y-36400000D03*
D17*
X35400000Y-35562500D03*
X35800000Y-35562500D03*
X36200000Y-35562500D03*
X36600000Y-35562500D03*
X37000000Y-35562500D03*
X37400000Y-35562500D03*
X37800000Y-35562500D03*
X38200000Y-35562500D03*
X38600000Y-35562500D03*
X39000000Y-35562500D03*
X39400000Y-35562500D03*
X39800000Y-35562500D03*
X40200000Y-35562500D03*
X40600000Y-35562500D03*
D16*
X41437500Y-36400000D03*
X41437500Y-36800000D03*
X41437500Y-37200000D03*
X41437500Y-37600000D03*
X41437500Y-38000000D03*
X41437500Y-38400000D03*
X41437500Y-38800000D03*
X41437500Y-39200000D03*
X41437500Y-39600000D03*
X41437500Y-40000000D03*
X41437500Y-40400000D03*
X41437500Y-40800000D03*
X41437500Y-41200000D03*
X41437500Y-41600000D03*
D17*
X40600000Y-42437500D03*
X40200000Y-42437500D03*
X39800000Y-42437500D03*
X39400000Y-42437500D03*
X39000000Y-42437500D03*
X38600000Y-42437500D03*
X38200000Y-42437500D03*
X37800000Y-42437500D03*
X37400000Y-42437500D03*
X37000000Y-42437500D03*
X36600000Y-42437500D03*
X36200000Y-42437500D03*
X35800000Y-42437500D03*
X35400000Y-42437500D03*
%TD*%
D18*
%TO.C,U3*%
X19525000Y-40905000D03*
X19525000Y-39635000D03*
X19525000Y-38365000D03*
X19525000Y-37095000D03*
X24475000Y-37095000D03*
X24475000Y-38365000D03*
X24475000Y-39635000D03*
X24475000Y-40905000D03*
%TD*%
D19*
%TO.C,U5*%
X28650000Y-47575000D03*
X29350000Y-47575000D03*
X29000000Y-48425000D03*
%TD*%
D20*
%TO.C,J1*%
X41250000Y-46955000D03*
X40450000Y-46955000D03*
D21*
X39250000Y-46955000D03*
X38250000Y-46955000D03*
X37750000Y-46955000D03*
X36750000Y-46955000D03*
D20*
X35550000Y-46955000D03*
X34750000Y-46955000D03*
X34750000Y-46955000D03*
X35550000Y-46955000D03*
D21*
X36250000Y-46955000D03*
X37250000Y-46955000D03*
X38750000Y-46955000D03*
X39750000Y-46955000D03*
D20*
X40450000Y-46955000D03*
X41250000Y-46955000D03*
%TD*%
D10*
%TO.C,C7*%
X27225000Y-44000000D03*
X28775000Y-44000000D03*
%TD*%
D22*
%TO.C,U2*%
X37300000Y-23300000D03*
X37300000Y-24700000D03*
X38700000Y-23300000D03*
X38700000Y-24700000D03*
D23*
X36012500Y-25400000D03*
X36012500Y-25000000D03*
X36012500Y-24600000D03*
X36012500Y-24200000D03*
X36012500Y-23800000D03*
X36012500Y-23400000D03*
X36012500Y-23000000D03*
X36012500Y-22600000D03*
D24*
X36600000Y-22012500D03*
X37000000Y-22012500D03*
X37400000Y-22012500D03*
X37800000Y-22012500D03*
X38200000Y-22012500D03*
X38600000Y-22012500D03*
X39000000Y-22012500D03*
X39400000Y-22012500D03*
D23*
X39987500Y-22600000D03*
X39987500Y-23000000D03*
X39987500Y-23400000D03*
X39987500Y-23800000D03*
X39987500Y-24200000D03*
X39987500Y-24600000D03*
X39987500Y-25000000D03*
X39987500Y-25400000D03*
D24*
X39400000Y-25987500D03*
X39000000Y-25987500D03*
X38600000Y-25987500D03*
X38200000Y-25987500D03*
X37800000Y-25987500D03*
X37400000Y-25987500D03*
X37000000Y-25987500D03*
X36600000Y-25987500D03*
%TD*%
D10*
%TO.C,C2*%
X43225000Y-36000000D03*
X44775000Y-36000000D03*
%TD*%
%TO.C,C10*%
X49225000Y-22000000D03*
X50775000Y-22000000D03*
%TD*%
%TO.C,C9*%
X24225000Y-26000000D03*
X25775000Y-26000000D03*
%TD*%
%TO.C,C12*%
X61225000Y-35000000D03*
X62775000Y-35000000D03*
%TD*%
D14*
%TO.C,SW1*%
X58425000Y-48850000D03*
X63575000Y-48850000D03*
X58425000Y-47150000D03*
X63575000Y-47150000D03*
%TD*%
D10*
%TO.C,C3*%
X31225000Y-20000000D03*
X32775000Y-20000000D03*
%TD*%
%TO.C,C17*%
X65225000Y-42000000D03*
X66775000Y-42000000D03*
%TD*%
D25*
%TO.C,U6*%
X23650000Y-48000000D03*
X24350000Y-48000000D03*
%TD*%
D10*
%TO.C,C11*%
X59225000Y-39000000D03*
X60775000Y-39000000D03*
%TD*%
M02*
