%TF.GenerationSoftware,KiCad,Pcbnew,10.0.3*%
%TF.CreationDate,2026-05-31T01:54:39+08:00*%
%TF.ProjectId,tellmelight_rev_a3,74656c6c-6d65-46c6-9967-68745f726576,A3*%
%TF.SameCoordinates,Original*%
%TF.FileFunction,Legend,Bot*%
%TF.FilePolarity,Positive*%
%FSLAX46Y46*%
G04 Gerber Fmt 4.6, Leading zero omitted, Abs format (unit mm)*
G04 Created by KiCad (PCBNEW 10.0.3) date 2026-05-31 01:54:39*
%MOMM*%
%LPD*%
G01*
G04 APERTURE LIST*
%ADD10C,0.120000*%
%ADD11C,0.150000*%
%ADD12C,0.160000*%
G04 APERTURE END LIST*
D10*
X30009523Y-4063855D02*
X30009523Y-4635283D01*
X30009523Y-4635283D02*
X30047618Y-4749569D01*
X30047618Y-4749569D02*
X30123809Y-4825760D01*
X30123809Y-4825760D02*
X30238094Y-4863855D01*
X30238094Y-4863855D02*
X30314285Y-4863855D01*
X29247618Y-4863855D02*
X29628570Y-4863855D01*
X29628570Y-4863855D02*
X29628570Y-4063855D01*
X28523808Y-4787664D02*
X28561904Y-4825760D01*
X28561904Y-4825760D02*
X28676189Y-4863855D01*
X28676189Y-4863855D02*
X28752380Y-4863855D01*
X28752380Y-4863855D02*
X28866666Y-4825760D01*
X28866666Y-4825760D02*
X28942856Y-4749569D01*
X28942856Y-4749569D02*
X28980951Y-4673379D01*
X28980951Y-4673379D02*
X29019047Y-4520998D01*
X29019047Y-4520998D02*
X29019047Y-4406712D01*
X29019047Y-4406712D02*
X28980951Y-4254331D01*
X28980951Y-4254331D02*
X28942856Y-4178140D01*
X28942856Y-4178140D02*
X28866666Y-4101950D01*
X28866666Y-4101950D02*
X28752380Y-4063855D01*
X28752380Y-4063855D02*
X28676189Y-4063855D01*
X28676189Y-4063855D02*
X28561904Y-4101950D01*
X28561904Y-4101950D02*
X28523808Y-4140045D01*
X27419046Y-4063855D02*
X27266665Y-4063855D01*
X27266665Y-4063855D02*
X27190475Y-4101950D01*
X27190475Y-4101950D02*
X27114284Y-4178140D01*
X27114284Y-4178140D02*
X27076189Y-4330521D01*
X27076189Y-4330521D02*
X27076189Y-4597188D01*
X27076189Y-4597188D02*
X27114284Y-4749569D01*
X27114284Y-4749569D02*
X27190475Y-4825760D01*
X27190475Y-4825760D02*
X27266665Y-4863855D01*
X27266665Y-4863855D02*
X27419046Y-4863855D01*
X27419046Y-4863855D02*
X27495237Y-4825760D01*
X27495237Y-4825760D02*
X27571427Y-4749569D01*
X27571427Y-4749569D02*
X27609523Y-4597188D01*
X27609523Y-4597188D02*
X27609523Y-4330521D01*
X27609523Y-4330521D02*
X27571427Y-4178140D01*
X27571427Y-4178140D02*
X27495237Y-4101950D01*
X27495237Y-4101950D02*
X27419046Y-4063855D01*
X26276189Y-4863855D02*
X26542856Y-4482902D01*
X26733332Y-4863855D02*
X26733332Y-4063855D01*
X26733332Y-4063855D02*
X26428570Y-4063855D01*
X26428570Y-4063855D02*
X26352380Y-4101950D01*
X26352380Y-4101950D02*
X26314285Y-4140045D01*
X26314285Y-4140045D02*
X26276189Y-4216236D01*
X26276189Y-4216236D02*
X26276189Y-4330521D01*
X26276189Y-4330521D02*
X26314285Y-4406712D01*
X26314285Y-4406712D02*
X26352380Y-4444807D01*
X26352380Y-4444807D02*
X26428570Y-4482902D01*
X26428570Y-4482902D02*
X26733332Y-4482902D01*
X25933332Y-4863855D02*
X25933332Y-4063855D01*
X25552380Y-4444807D02*
X25285714Y-4444807D01*
X25171428Y-4863855D02*
X25552380Y-4863855D01*
X25552380Y-4863855D02*
X25552380Y-4063855D01*
X25552380Y-4063855D02*
X25171428Y-4063855D01*
X24828570Y-4863855D02*
X24828570Y-4063855D01*
X24828570Y-4063855D02*
X24371427Y-4863855D01*
X24371427Y-4863855D02*
X24371427Y-4063855D01*
X24104761Y-4063855D02*
X23647618Y-4063855D01*
X23876190Y-4863855D02*
X23876190Y-4063855D01*
D11*
X56761904Y-40854819D02*
X56761904Y-41664342D01*
X56761904Y-41664342D02*
X56714285Y-41759580D01*
X56714285Y-41759580D02*
X56666666Y-41807200D01*
X56666666Y-41807200D02*
X56571428Y-41854819D01*
X56571428Y-41854819D02*
X56380952Y-41854819D01*
X56380952Y-41854819D02*
X56285714Y-41807200D01*
X56285714Y-41807200D02*
X56238095Y-41759580D01*
X56238095Y-41759580D02*
X56190476Y-41664342D01*
X56190476Y-41664342D02*
X56190476Y-40854819D01*
X55285714Y-41188152D02*
X55285714Y-41854819D01*
X55523809Y-40807200D02*
X55761904Y-41521485D01*
X55761904Y-41521485D02*
X55142857Y-41521485D01*
X70333332Y-51157200D02*
X70190475Y-51204819D01*
X70190475Y-51204819D02*
X69952380Y-51204819D01*
X69952380Y-51204819D02*
X69857142Y-51157200D01*
X69857142Y-51157200D02*
X69809523Y-51109580D01*
X69809523Y-51109580D02*
X69761904Y-51014342D01*
X69761904Y-51014342D02*
X69761904Y-50919104D01*
X69761904Y-50919104D02*
X69809523Y-50823866D01*
X69809523Y-50823866D02*
X69857142Y-50776247D01*
X69857142Y-50776247D02*
X69952380Y-50728628D01*
X69952380Y-50728628D02*
X70142856Y-50681009D01*
X70142856Y-50681009D02*
X70238094Y-50633390D01*
X70238094Y-50633390D02*
X70285713Y-50585771D01*
X70285713Y-50585771D02*
X70333332Y-50490533D01*
X70333332Y-50490533D02*
X70333332Y-50395295D01*
X70333332Y-50395295D02*
X70285713Y-50300057D01*
X70285713Y-50300057D02*
X70238094Y-50252438D01*
X70238094Y-50252438D02*
X70142856Y-50204819D01*
X70142856Y-50204819D02*
X69904761Y-50204819D01*
X69904761Y-50204819D02*
X69761904Y-50252438D01*
X69428570Y-50204819D02*
X69190475Y-51204819D01*
X69190475Y-51204819D02*
X68999999Y-50490533D01*
X68999999Y-50490533D02*
X68809523Y-51204819D01*
X68809523Y-51204819D02*
X68571428Y-50204819D01*
X68238094Y-50300057D02*
X68190475Y-50252438D01*
X68190475Y-50252438D02*
X68095237Y-50204819D01*
X68095237Y-50204819D02*
X67857142Y-50204819D01*
X67857142Y-50204819D02*
X67761904Y-50252438D01*
X67761904Y-50252438D02*
X67714285Y-50300057D01*
X67714285Y-50300057D02*
X67666666Y-50395295D01*
X67666666Y-50395295D02*
X67666666Y-50490533D01*
X67666666Y-50490533D02*
X67714285Y-50633390D01*
X67714285Y-50633390D02*
X68285713Y-51204819D01*
X68285713Y-51204819D02*
X67666666Y-51204819D01*
X38333333Y-44809819D02*
X38333333Y-45524104D01*
X38333333Y-45524104D02*
X38380952Y-45666961D01*
X38380952Y-45666961D02*
X38476190Y-45762200D01*
X38476190Y-45762200D02*
X38619047Y-45809819D01*
X38619047Y-45809819D02*
X38714285Y-45809819D01*
X37333333Y-45809819D02*
X37904761Y-45809819D01*
X37619047Y-45809819D02*
X37619047Y-44809819D01*
X37619047Y-44809819D02*
X37714285Y-44952676D01*
X37714285Y-44952676D02*
X37809523Y-45047914D01*
X37809523Y-45047914D02*
X37904761Y-45095533D01*
X24476190Y-34428628D02*
X24476190Y-34904819D01*
X24809523Y-33904819D02*
X24476190Y-34428628D01*
X24476190Y-34428628D02*
X24142857Y-33904819D01*
X23285714Y-34904819D02*
X23857142Y-34904819D01*
X23571428Y-34904819D02*
X23571428Y-33904819D01*
X23571428Y-33904819D02*
X23666666Y-34047676D01*
X23666666Y-34047676D02*
X23761904Y-34142914D01*
X23761904Y-34142914D02*
X23857142Y-34190533D01*
X62333332Y-51157200D02*
X62190475Y-51204819D01*
X62190475Y-51204819D02*
X61952380Y-51204819D01*
X61952380Y-51204819D02*
X61857142Y-51157200D01*
X61857142Y-51157200D02*
X61809523Y-51109580D01*
X61809523Y-51109580D02*
X61761904Y-51014342D01*
X61761904Y-51014342D02*
X61761904Y-50919104D01*
X61761904Y-50919104D02*
X61809523Y-50823866D01*
X61809523Y-50823866D02*
X61857142Y-50776247D01*
X61857142Y-50776247D02*
X61952380Y-50728628D01*
X61952380Y-50728628D02*
X62142856Y-50681009D01*
X62142856Y-50681009D02*
X62238094Y-50633390D01*
X62238094Y-50633390D02*
X62285713Y-50585771D01*
X62285713Y-50585771D02*
X62333332Y-50490533D01*
X62333332Y-50490533D02*
X62333332Y-50395295D01*
X62333332Y-50395295D02*
X62285713Y-50300057D01*
X62285713Y-50300057D02*
X62238094Y-50252438D01*
X62238094Y-50252438D02*
X62142856Y-50204819D01*
X62142856Y-50204819D02*
X61904761Y-50204819D01*
X61904761Y-50204819D02*
X61761904Y-50252438D01*
X61428570Y-50204819D02*
X61190475Y-51204819D01*
X61190475Y-51204819D02*
X60999999Y-50490533D01*
X60999999Y-50490533D02*
X60809523Y-51204819D01*
X60809523Y-51204819D02*
X60571428Y-50204819D01*
X59666666Y-51204819D02*
X60238094Y-51204819D01*
X59952380Y-51204819D02*
X59952380Y-50204819D01*
X59952380Y-50204819D02*
X60047618Y-50347676D01*
X60047618Y-50347676D02*
X60142856Y-50442914D01*
X60142856Y-50442914D02*
X60238094Y-50490533D01*
X22761904Y-41854819D02*
X22761904Y-42664342D01*
X22761904Y-42664342D02*
X22714285Y-42759580D01*
X22714285Y-42759580D02*
X22666666Y-42807200D01*
X22666666Y-42807200D02*
X22571428Y-42854819D01*
X22571428Y-42854819D02*
X22380952Y-42854819D01*
X22380952Y-42854819D02*
X22285714Y-42807200D01*
X22285714Y-42807200D02*
X22238095Y-42759580D01*
X22238095Y-42759580D02*
X22190476Y-42664342D01*
X22190476Y-42664342D02*
X22190476Y-41854819D01*
X21809523Y-41854819D02*
X21190476Y-41854819D01*
X21190476Y-41854819D02*
X21523809Y-42235771D01*
X21523809Y-42235771D02*
X21380952Y-42235771D01*
X21380952Y-42235771D02*
X21285714Y-42283390D01*
X21285714Y-42283390D02*
X21238095Y-42331009D01*
X21238095Y-42331009D02*
X21190476Y-42426247D01*
X21190476Y-42426247D02*
X21190476Y-42664342D01*
X21190476Y-42664342D02*
X21238095Y-42759580D01*
X21238095Y-42759580D02*
X21285714Y-42807200D01*
X21285714Y-42807200D02*
X21380952Y-42854819D01*
X21380952Y-42854819D02*
X21666666Y-42854819D01*
X21666666Y-42854819D02*
X21761904Y-42807200D01*
X21761904Y-42807200D02*
X21809523Y-42759580D01*
X38761904Y-26784819D02*
X38761904Y-27594342D01*
X38761904Y-27594342D02*
X38714285Y-27689580D01*
X38714285Y-27689580D02*
X38666666Y-27737200D01*
X38666666Y-27737200D02*
X38571428Y-27784819D01*
X38571428Y-27784819D02*
X38380952Y-27784819D01*
X38380952Y-27784819D02*
X38285714Y-27737200D01*
X38285714Y-27737200D02*
X38238095Y-27689580D01*
X38238095Y-27689580D02*
X38190476Y-27594342D01*
X38190476Y-27594342D02*
X38190476Y-26784819D01*
X37761904Y-26880057D02*
X37714285Y-26832438D01*
X37714285Y-26832438D02*
X37619047Y-26784819D01*
X37619047Y-26784819D02*
X37380952Y-26784819D01*
X37380952Y-26784819D02*
X37285714Y-26832438D01*
X37285714Y-26832438D02*
X37238095Y-26880057D01*
X37238095Y-26880057D02*
X37190476Y-26975295D01*
X37190476Y-26975295D02*
X37190476Y-27070533D01*
X37190476Y-27070533D02*
X37238095Y-27213390D01*
X37238095Y-27213390D02*
X37809523Y-27784819D01*
X37809523Y-27784819D02*
X37190476Y-27784819D01*
%TO.C,U4*%
D10*
X55090000Y-37440000D02*
X55090000Y-37490000D01*
X55090000Y-40510000D02*
X55090000Y-40560000D01*
X55090000Y-40560000D02*
X56910000Y-40560000D01*
X56910000Y-37440000D02*
X55090000Y-37440000D01*
X56910000Y-37490000D02*
X56910000Y-37440000D01*
X56910000Y-39390000D02*
X56910000Y-38610000D01*
X56910000Y-40560000D02*
X56910000Y-40510000D01*
X54550000Y-40510000D02*
X54310000Y-40840000D01*
X54790000Y-40840000D01*
X54550000Y-40510000D01*
G36*
X54790000Y-40840000D02*
G01*
X54310000Y-40840000D01*
X54550000Y-40510000D01*
X54790000Y-40840000D01*
G37*
%TO.C,C3*%
X31859420Y-19490000D02*
X32140580Y-19490000D01*
X31859420Y-20510000D02*
X32140580Y-20510000D01*
%TO.C,C14*%
X27859420Y-28490000D02*
X28140580Y-28490000D01*
X27859420Y-29510000D02*
X28140580Y-29510000D01*
%TO.C,R8*%
X53762742Y-27477500D02*
X54237258Y-27477500D01*
X53762742Y-28522500D02*
X54237258Y-28522500D01*
%TO.C,C6*%
X55859420Y-33490000D02*
X56140580Y-33490000D01*
X55859420Y-34510000D02*
X56140580Y-34510000D01*
%TO.C,R6*%
X48762742Y-27477500D02*
X49237258Y-27477500D01*
X48762742Y-28522500D02*
X49237258Y-28522500D01*
%TO.C,C12*%
X61859420Y-34490000D02*
X62140580Y-34490000D01*
X61859420Y-35510000D02*
X62140580Y-35510000D01*
%TO.C,C15*%
X30859420Y-27490000D02*
X31140580Y-27490000D01*
X30859420Y-28510000D02*
X31140580Y-28510000D01*
%TO.C,SW2*%
X66540000Y-46140000D02*
X71460000Y-46140000D01*
X66540000Y-46390000D02*
X66540000Y-46140000D01*
X66540000Y-49860000D02*
X66540000Y-49610000D01*
X71460000Y-46390000D02*
X71460000Y-46140000D01*
X71460000Y-49860000D02*
X66540000Y-49860000D01*
X71460000Y-49860000D02*
X71460000Y-49610000D01*
%TO.C,C16*%
X54859420Y-21490000D02*
X55140580Y-21490000D01*
X54859420Y-22510000D02*
X55140580Y-22510000D01*
%TO.C,R2*%
X35762742Y-43477500D02*
X36237258Y-43477500D01*
X35762742Y-44522500D02*
X36237258Y-44522500D01*
%TO.C,C13*%
X20859420Y-27490000D02*
X21140580Y-27490000D01*
X20859420Y-28510000D02*
X21140580Y-28510000D01*
%TO.C,C10*%
X49859420Y-21490000D02*
X50140580Y-21490000D01*
X49859420Y-22510000D02*
X50140580Y-22510000D01*
%TO.C,C8*%
X52859420Y-42490000D02*
X53140580Y-42490000D01*
X52859420Y-43510000D02*
X53140580Y-43510000D01*
%TO.C,R1*%
X31762742Y-43477500D02*
X32237258Y-43477500D01*
X31762742Y-44522500D02*
X32237258Y-44522500D01*
%TO.C,J1*%
X33300000Y-49100000D02*
X33300000Y-51100000D01*
X33300000Y-53000000D02*
X33300000Y-54900000D01*
X42700000Y-49100000D02*
X42700000Y-51100000D01*
X42700000Y-53000000D02*
X42700000Y-54900000D01*
X42700000Y-54900000D02*
X33300000Y-54900000D01*
%TO.C,C17*%
X65859420Y-41490000D02*
X66140580Y-41490000D01*
X65859420Y-42510000D02*
X66140580Y-42510000D01*
%TO.C,C1*%
X31859420Y-35490000D02*
X32140580Y-35490000D01*
X31859420Y-36510000D02*
X32140580Y-36510000D01*
%TO.C,C5*%
X19859420Y-33490000D02*
X20140580Y-33490000D01*
X19859420Y-34510000D02*
X20140580Y-34510000D01*
%TO.C,TP8*%
X4700000Y-37000000D02*
G75*
G02*
X3300000Y-37000000I-700000J0D01*
G01*
X3300000Y-37000000D02*
G75*
G02*
X4700000Y-37000000I700000J0D01*
G01*
%TO.C,TP5*%
X4700000Y-25000000D02*
G75*
G02*
X3300000Y-25000000I-700000J0D01*
G01*
X3300000Y-25000000D02*
G75*
G02*
X4700000Y-25000000I700000J0D01*
G01*
%TO.C,Y1*%
X21940000Y-30290000D02*
X26060000Y-30290000D01*
X21940000Y-33710000D02*
X21940000Y-30290000D01*
%TO.C,U5*%
X28350000Y-48000000D02*
X28350000Y-48550000D01*
X28350000Y-48550000D02*
X28550000Y-48550000D01*
X29650000Y-48000000D02*
X29650000Y-48550000D01*
X29650000Y-48550000D02*
X29450000Y-48550000D01*
X28240000Y-47570000D02*
X28240000Y-47290000D01*
X27960000Y-47570000D01*
X28240000Y-47570000D01*
G36*
X28240000Y-47570000D02*
G01*
X27960000Y-47570000D01*
X28240000Y-47290000D01*
X28240000Y-47570000D01*
G37*
%TO.C,TP9*%
X10700000Y-50000000D02*
G75*
G02*
X9300000Y-50000000I-700000J0D01*
G01*
X9300000Y-50000000D02*
G75*
G02*
X10700000Y-50000000I700000J0D01*
G01*
%TO.C,R5*%
X44762742Y-27477500D02*
X45237258Y-27477500D01*
X44762742Y-28522500D02*
X45237258Y-28522500D01*
%TO.C,C7*%
X27859420Y-43490000D02*
X28140580Y-43490000D01*
X27859420Y-44510000D02*
X28140580Y-44510000D01*
%TO.C,TP10*%
X14700000Y-50000000D02*
G75*
G02*
X13300000Y-50000000I-700000J0D01*
G01*
X13300000Y-50000000D02*
G75*
G02*
X14700000Y-50000000I700000J0D01*
G01*
%TO.C,C4*%
X43859420Y-19490000D02*
X44140580Y-19490000D01*
X43859420Y-20510000D02*
X44140580Y-20510000D01*
%TO.C,SW1*%
X58540000Y-46140000D02*
X63460000Y-46140000D01*
X58540000Y-46390000D02*
X58540000Y-46140000D01*
X58540000Y-49860000D02*
X58540000Y-49610000D01*
X63460000Y-46390000D02*
X63460000Y-46140000D01*
X63460000Y-49860000D02*
X58540000Y-49860000D01*
X63460000Y-49860000D02*
X63460000Y-49610000D01*
%TO.C,TP3*%
X4700000Y-17000000D02*
G75*
G02*
X3300000Y-17000000I-700000J0D01*
G01*
X3300000Y-17000000D02*
G75*
G02*
X4700000Y-17000000I700000J0D01*
G01*
%TO.C,U6*%
D12*
X23280000Y-48000000D02*
G75*
G02*
X23120000Y-48000000I-80000J0D01*
G01*
X23120000Y-48000000D02*
G75*
G02*
X23280000Y-48000000I80000J0D01*
G01*
%TO.C,C9*%
D10*
X24859420Y-25490000D02*
X25140580Y-25490000D01*
X24859420Y-26510000D02*
X25140580Y-26510000D01*
%TO.C,TP1*%
X4700000Y-9000000D02*
G75*
G02*
X3300000Y-9000000I-700000J0D01*
G01*
X3300000Y-9000000D02*
G75*
G02*
X4700000Y-9000000I700000J0D01*
G01*
%TO.C,C2*%
X43859420Y-35490000D02*
X44140580Y-35490000D01*
X43859420Y-36510000D02*
X44140580Y-36510000D01*
%TO.C,R7*%
X33762742Y-27477500D02*
X34237258Y-27477500D01*
X33762742Y-28522500D02*
X34237258Y-28522500D01*
%TO.C,TP13*%
X26700000Y-52000000D02*
G75*
G02*
X25300000Y-52000000I-700000J0D01*
G01*
X25300000Y-52000000D02*
G75*
G02*
X26700000Y-52000000I700000J0D01*
G01*
%TO.C,TP11*%
X18700000Y-50000000D02*
G75*
G02*
X17300000Y-50000000I-700000J0D01*
G01*
X17300000Y-50000000D02*
G75*
G02*
X18700000Y-50000000I700000J0D01*
G01*
%TO.C,TP2*%
X4700000Y-13000000D02*
G75*
G02*
X3300000Y-13000000I-700000J0D01*
G01*
X3300000Y-13000000D02*
G75*
G02*
X4700000Y-13000000I700000J0D01*
G01*
%TO.C,U3*%
X19940000Y-36440000D02*
X19940000Y-36535000D01*
X19940000Y-41465000D02*
X19940000Y-41560000D01*
X19940000Y-41560000D02*
X24060000Y-41560000D01*
X24060000Y-36440000D02*
X19940000Y-36440000D01*
X24060000Y-36535000D02*
X24060000Y-36440000D01*
X24060000Y-41560000D02*
X24060000Y-41465000D01*
X19400000Y-41470000D02*
X19160000Y-41800000D01*
X19640000Y-41800000D01*
X19400000Y-41470000D01*
G36*
X19640000Y-41800000D02*
G01*
X19160000Y-41800000D01*
X19400000Y-41470000D01*
X19640000Y-41800000D01*
G37*
%TO.C,R10*%
X46762742Y-44477500D02*
X47237258Y-44477500D01*
X46762742Y-45522500D02*
X47237258Y-45522500D01*
%TO.C,C11*%
X59859420Y-38490000D02*
X60140580Y-38490000D01*
X59859420Y-39510000D02*
X60140580Y-39510000D01*
%TO.C,R9*%
X60762742Y-41477500D02*
X61237258Y-41477500D01*
X60762742Y-42522500D02*
X61237258Y-42522500D01*
%TO.C,TP4*%
X4700000Y-21000000D02*
G75*
G02*
X3300000Y-21000000I-700000J0D01*
G01*
X3300000Y-21000000D02*
G75*
G02*
X4700000Y-21000000I700000J0D01*
G01*
%TO.C,R3*%
X49762742Y-48477500D02*
X50237258Y-48477500D01*
X49762742Y-49522500D02*
X50237258Y-49522500D01*
%TO.C,U2*%
X35890000Y-21890000D02*
X35890000Y-22240000D01*
X35890000Y-25760000D02*
X35890000Y-26110000D01*
X35890000Y-26110000D02*
X36240000Y-26110000D01*
X36240000Y-21890000D02*
X35890000Y-21890000D01*
X39760000Y-26110000D02*
X40110000Y-26110000D01*
X40110000Y-21890000D02*
X39760000Y-21890000D01*
X40110000Y-22240000D02*
X40110000Y-21890000D01*
X40110000Y-26110000D02*
X40110000Y-25760000D01*
X35360000Y-25400000D02*
X35030000Y-25160000D01*
X35030000Y-25640000D01*
X35360000Y-25400000D01*
G36*
X35360000Y-25400000D02*
G01*
X35030000Y-25640000D01*
X35030000Y-25160000D01*
X35360000Y-25400000D01*
G37*
%TO.C,TP12*%
X22700000Y-52000000D02*
G75*
G02*
X21300000Y-52000000I-700000J0D01*
G01*
X21300000Y-52000000D02*
G75*
G02*
X22700000Y-52000000I700000J0D01*
G01*
%TO.C,U1*%
X34390000Y-35390000D02*
X34390000Y-36040000D01*
X34390000Y-41960000D02*
X34390000Y-42610000D01*
X34390000Y-42610000D02*
X35040000Y-42610000D01*
X35040000Y-35390000D02*
X34390000Y-35390000D01*
X40960000Y-42610000D02*
X41610000Y-42610000D01*
X41610000Y-35390000D02*
X40960000Y-35390000D01*
X41610000Y-36040000D02*
X41610000Y-35390000D01*
X41610000Y-42610000D02*
X41610000Y-41960000D01*
X33860000Y-41600000D02*
X33530000Y-41360000D01*
X33530000Y-41840000D01*
X33860000Y-41600000D01*
G36*
X33860000Y-41600000D02*
G01*
X33530000Y-41840000D01*
X33530000Y-41360000D01*
X33860000Y-41600000D01*
G37*
%TO.C,TP6*%
X4700000Y-29000000D02*
G75*
G02*
X3300000Y-29000000I-700000J0D01*
G01*
X3300000Y-29000000D02*
G75*
G02*
X4700000Y-29000000I700000J0D01*
G01*
%TO.C,TP7*%
X4700000Y-33000000D02*
G75*
G02*
X3300000Y-33000000I-700000J0D01*
G01*
X3300000Y-33000000D02*
G75*
G02*
X4700000Y-33000000I700000J0D01*
G01*
%TO.C,R4*%
X54762742Y-48477500D02*
X55237258Y-48477500D01*
X54762742Y-49522500D02*
X55237258Y-49522500D01*
%TD*%
M02*
