%TF.GenerationSoftware,KiCad,Pcbnew,10.0.3*%
%TF.CreationDate,2026-05-31T01:06:47+08:00*%
%TF.ProjectId,tellmelight_rev_a3,74656c6c-6d65-46c6-9967-68745f726576,A3*%
%TF.SameCoordinates,Original*%
%TF.FileFunction,Other,User*%
%FSLAX46Y46*%
G04 Gerber Fmt 4.6, Leading zero omitted, Abs format (unit mm)*
G04 Created by KiCad (PCBNEW 10.0.3) date 2026-05-31 01:06:47*
%MOMM*%
%LPD*%
G01*
G04 APERTURE LIST*
%ADD10C,0.050000*%
G04 APERTURE END LIST*
%TO.C,H4*%
D10*
X74450000Y-52000000D02*
G75*
G02*
X69550000Y-52000000I-2450000J0D01*
G01*
X69550000Y-52000000D02*
G75*
G02*
X74450000Y-52000000I2450000J0D01*
G01*
%TO.C,H1*%
X6450000Y-4000000D02*
G75*
G02*
X1550000Y-4000000I-2450000J0D01*
G01*
X1550000Y-4000000D02*
G75*
G02*
X6450000Y-4000000I2450000J0D01*
G01*
%TO.C,H2*%
X74450000Y-4000000D02*
G75*
G02*
X69550000Y-4000000I-2450000J0D01*
G01*
X69550000Y-4000000D02*
G75*
G02*
X74450000Y-4000000I2450000J0D01*
G01*
%TO.C,D2*%
X9150000Y-33950000D02*
X9150000Y-39050000D01*
X9150000Y-39050000D02*
X12450000Y-39050000D01*
X12450000Y-33950000D02*
X9150000Y-33950000D01*
X12450000Y-39050000D02*
X12450000Y-33950000D01*
%TO.C,D3*%
X27350000Y-31450000D02*
X27350000Y-36550000D01*
X27350000Y-36550000D02*
X30650000Y-36550000D01*
X30650000Y-31450000D02*
X27350000Y-31450000D01*
X30650000Y-36550000D02*
X30650000Y-31450000D01*
%TO.C,D6*%
X62350000Y-35950000D02*
X62350000Y-41050000D01*
X62350000Y-41050000D02*
X65650000Y-41050000D01*
X65650000Y-35950000D02*
X62350000Y-35950000D01*
X65650000Y-41050000D02*
X65650000Y-35950000D01*
%TO.C,D4*%
X43850000Y-26450000D02*
X43850000Y-31550000D01*
X43850000Y-31550000D02*
X47150000Y-31550000D01*
X47150000Y-26450000D02*
X43850000Y-26450000D01*
X47150000Y-31550000D02*
X47150000Y-26450000D01*
%TO.C,D1*%
X9150000Y-11450000D02*
X9150000Y-16550000D01*
X9150000Y-16550000D02*
X12450000Y-16550000D01*
X12450000Y-11450000D02*
X9150000Y-11450000D01*
X12450000Y-16550000D02*
X12450000Y-11450000D01*
%TO.C,D5*%
X62350000Y-12950000D02*
X62350000Y-18050000D01*
X62350000Y-18050000D02*
X65650000Y-18050000D01*
X65650000Y-12950000D02*
X62350000Y-12950000D01*
X65650000Y-18050000D02*
X65650000Y-12950000D01*
%TO.C,H3*%
X6450000Y-52000000D02*
G75*
G02*
X1550000Y-52000000I-2450000J0D01*
G01*
X1550000Y-52000000D02*
G75*
G02*
X6450000Y-52000000I2450000J0D01*
G01*
%TD*%
M02*
