%TF.GenerationSoftware,KiCad,Pcbnew,10.0.3*%
%TF.CreationDate,2026-05-31T01:47:48+08:00*%
%TF.ProjectId,tellmelight_rev_a3,74656c6c-6d65-46c6-9967-68745f726576,A3*%
%TF.SameCoordinates,Original*%
%TF.FileFunction,Copper,L1,Top*%
%TF.FilePolarity,Positive*%
%FSLAX46Y46*%
G04 Gerber Fmt 4.6, Leading zero omitted, Abs format (unit mm)*
G04 Created by KiCad (PCBNEW 10.0.3) date 2026-05-31 01:47:48*
%MOMM*%
%LPD*%
G01*
G04 APERTURE LIST*
%TA.AperFunction,SMDPad,CuDef*%
%ADD10R,0.900000X1.500000*%
%TD*%
%TA.AperFunction,ComponentPad*%
%ADD11O,1.000000X1.600000*%
%TD*%
%TA.AperFunction,ComponentPad*%
%ADD12O,1.000000X2.100000*%
%TD*%
%TA.AperFunction,HeatsinkPad*%
%ADD13C,0.500000*%
%TD*%
%TA.AperFunction,HeatsinkPad*%
%ADD14R,2.800000X2.800000*%
%TD*%
%TA.AperFunction,HeatsinkPad*%
%ADD15R,3.200000X3.200000*%
%TD*%
G04 APERTURE END LIST*
D10*
%TO.P,D2,1*%
%TO.N,N/C*%
X10100000Y-38050000D03*
%TO.P,D2,2*%
X11500000Y-38050000D03*
%TO.P,D2,3*%
X10100000Y-34950000D03*
%TO.P,D2,4*%
X11500000Y-34950000D03*
%TD*%
%TO.P,D6,1*%
%TO.N,N/C*%
X63300000Y-40050000D03*
%TO.P,D6,2*%
X64700000Y-40050000D03*
%TO.P,D6,3*%
X63300000Y-36950000D03*
%TO.P,D6,4*%
X64700000Y-36950000D03*
%TD*%
%TO.P,D3,1*%
%TO.N,N/C*%
X28300000Y-35550000D03*
%TO.P,D3,2*%
X29700000Y-35550000D03*
%TO.P,D3,3*%
X28300000Y-32450000D03*
%TO.P,D3,4*%
X29700000Y-32450000D03*
%TD*%
%TO.P,D1,1*%
%TO.N,N/C*%
X10100000Y-15550000D03*
%TO.P,D1,2*%
X11500000Y-15550000D03*
%TO.P,D1,3*%
X10100000Y-12450000D03*
%TO.P,D1,4*%
X11500000Y-12450000D03*
%TD*%
%TO.P,D4,1*%
%TO.N,N/C*%
X44800000Y-30550000D03*
%TO.P,D4,2*%
X46200000Y-30550000D03*
%TO.P,D4,3*%
X44800000Y-27450000D03*
%TO.P,D4,4*%
X46200000Y-27450000D03*
%TD*%
%TO.P,D5,1*%
%TO.N,N/C*%
X63300000Y-17050000D03*
%TO.P,D5,2*%
X64700000Y-17050000D03*
%TO.P,D5,3*%
X63300000Y-13950000D03*
%TO.P,D5,4*%
X64700000Y-13950000D03*
%TD*%
D11*
%TO.P,J1,SH*%
%TO.N,N/C*%
X42320000Y-52050000D03*
D12*
X42320000Y-47870000D03*
D11*
X33680000Y-52050000D03*
D12*
X33680000Y-47870000D03*
%TD*%
D13*
%TO.P,U2,33*%
%TO.N,N/C*%
X36850000Y-22850000D03*
X36850000Y-24000000D03*
X36850000Y-25150000D03*
X38000000Y-22850000D03*
X38000000Y-24000000D03*
D14*
X38000000Y-24000000D03*
D13*
X38000000Y-25150000D03*
X39150000Y-22850000D03*
X39150000Y-24000000D03*
X39150000Y-25150000D03*
%TD*%
%TO.P,U1,57*%
%TO.N,N/C*%
X36650000Y-37650000D03*
X36650000Y-40350000D03*
D15*
X38000000Y-39000000D03*
D13*
X39350000Y-37650000D03*
X39350000Y-40350000D03*
%TD*%
M02*
